<svg width="942" height="580" viewBox="0 0 942 580" fill="none" xmlns="http://www.w3.org/2000/svg">
<rect width="942" height="580" rx="4" fill="#FAFAFA"/>
<mask id="mask0" mask-type="alpha" maskUnits="userSpaceOnUse" x="0" y="0" width="942" height="580">
<rect width="942" height="580" rx="4" fill="#FAFAFA"/>
</mask>
<g mask="url(#mask0)">
<path d="M442.5 417.5L433 417.5C433 435.862 447.888 450.75 466.25 450.75L466.25 472.125C466.25 473.431 467.319 474.5 468.625 474.5L473.375 474.5C474.681 474.5 475.75 473.431 475.75 472.125L475.75 450.75C475.75 432.388 460.862 417.5 442.5 417.5ZM499.5 408C487.002 408 476.136 414.902 470.451 425.1C474.562 429.583 477.605 435.03 479.209 441.072C495.937 439.335 509 425.204 509 408L499.5 408Z" fill="black"/>
</g>
</svg>
