<svg width="665" height="580" viewBox="0 0 665 580" fill="none" xmlns="http://www.w3.org/2000/svg">
<rect width="665" height="580" rx="4" fill="#FAFAFA"/>
<path d="M304.5 417.5L295 417.5C295 435.862 309.888 450.75 328.25 450.75L328.25 472.125C328.25 473.431 329.319 474.5 330.625 474.5L335.375 474.5C336.681 474.5 337.75 473.431 337.75 472.125L337.75 450.75C337.75 432.388 322.862 417.5 304.5 417.5ZM361.5 408C349.002 408 338.136 414.902 332.451 425.1C336.562 429.583 339.605 435.03 341.209 441.072C357.937 439.335 371 425.204 371 408L361.5 408Z" fill="#565656"/>
</svg>
