<svg width="336" height="228" viewBox="0 0 336 228" fill="none" xmlns="http://www.w3.org/2000/svg">
<path d="M143.407 60.216C142.159 60.216 141.067 59.94 140.131 59.388C139.195 58.836 138.463 58.074 137.935 57.102C137.407 56.118 137.143 54.984 137.143 53.7C137.143 52.416 137.407 51.288 137.935 50.316C138.463 49.332 139.195 48.564 140.131 48.012C141.067 47.46 142.159 47.184 143.407 47.184C144.655 47.184 145.747 47.46 146.683 48.012C147.619 48.564 148.345 49.332 148.861 50.316C149.389 51.288 149.653 52.416 149.653 53.7C149.653 54.936 149.407 56.034 148.915 56.994C148.435 57.954 147.763 58.71 146.899 59.262L149.941 62.358H147.529L145.279 59.982C144.691 60.138 144.067 60.216 143.407 60.216ZM143.407 58.506C144.271 58.506 145.021 58.314 145.657 57.93C146.305 57.546 146.809 56.994 147.169 56.274C147.529 55.554 147.709 54.696 147.709 53.7C147.709 52.704 147.529 51.846 147.169 51.126C146.809 50.406 146.305 49.854 145.657 49.47C145.021 49.086 144.271 48.894 143.407 48.894C142.543 48.894 141.787 49.086 141.139 49.47C140.491 49.854 139.987 50.406 139.627 51.126C139.279 51.846 139.105 52.704 139.105 53.7C139.105 54.696 139.279 55.554 139.627 56.274C139.987 56.994 140.491 57.546 141.139 57.93C141.787 58.314 142.543 58.506 143.407 58.506ZM153.093 60V49.56L151.059 50.028V48.624L153.849 47.4H155.073V60H153.093ZM161.916 60V58.632C162.732 57.984 163.512 57.33 164.256 56.67C165 56.01 165.66 55.362 166.236 54.726C166.824 54.078 167.286 53.448 167.622 52.836C167.958 52.212 168.126 51.612 168.126 51.036C168.126 50.652 168.06 50.292 167.928 49.956C167.796 49.608 167.58 49.332 167.28 49.128C166.98 48.912 166.578 48.804 166.074 48.804C165.318 48.804 164.748 49.044 164.364 49.524C163.992 50.004 163.812 50.58 163.824 51.252H161.97C161.982 50.364 162.168 49.62 162.528 49.02C162.9 48.42 163.392 47.964 164.004 47.652C164.628 47.34 165.33 47.184 166.11 47.184C167.298 47.184 168.246 47.52 168.954 48.192C169.674 48.852 170.034 49.776 170.034 50.964C170.034 51.672 169.86 52.374 169.512 53.07C169.176 53.766 168.732 54.438 168.18 55.086C167.64 55.722 167.058 56.322 166.434 56.886C165.81 57.45 165.216 57.96 164.652 58.416H170.412V60H161.916ZM177.368 60.216C176.228 60.216 175.244 59.946 174.416 59.406C173.6 58.854 172.97 58.092 172.526 57.12C172.094 56.136 171.878 54.996 171.878 53.7C171.878 52.404 172.094 51.27 172.526 50.298C172.97 49.314 173.6 48.552 174.416 48.012C175.244 47.46 176.228 47.184 177.368 47.184C178.508 47.184 179.486 47.46 180.302 48.012C181.118 48.552 181.742 49.314 182.174 50.298C182.618 51.27 182.84 52.404 182.84 53.7C182.84 54.996 182.618 56.136 182.174 57.12C181.742 58.092 181.118 58.854 180.302 59.406C179.486 59.946 178.508 60.216 177.368 60.216ZM177.368 58.506C178.052 58.506 178.658 58.314 179.186 57.93C179.726 57.546 180.146 56.994 180.446 56.274C180.746 55.554 180.896 54.696 180.896 53.7C180.896 52.704 180.746 51.846 180.446 51.126C180.146 50.406 179.726 49.854 179.186 49.47C178.658 49.086 178.052 48.894 177.368 48.894C176.672 48.894 176.06 49.086 175.532 49.47C175.004 49.854 174.59 50.406 174.29 51.126C173.99 51.846 173.84 52.704 173.84 53.7C173.84 54.696 173.99 55.554 174.29 56.274C174.59 56.994 175.004 57.546 175.532 57.93C176.06 58.314 176.672 58.506 177.368 58.506ZM184.574 60V58.632C185.39 57.984 186.17 57.33 186.914 56.67C187.658 56.01 188.318 55.362 188.894 54.726C189.482 54.078 189.944 53.448 190.28 52.836C190.616 52.212 190.784 51.612 190.784 51.036C190.784 50.652 190.718 50.292 190.586 49.956C190.454 49.608 190.238 49.332 189.938 49.128C189.638 48.912 189.236 48.804 188.732 48.804C187.976 48.804 187.406 49.044 187.022 49.524C186.65 50.004 186.47 50.58 186.482 51.252H184.628C184.64 50.364 184.826 49.62 185.186 49.02C185.558 48.42 186.05 47.964 186.662 47.652C187.286 47.34 187.988 47.184 188.768 47.184C189.956 47.184 190.904 47.52 191.612 48.192C192.332 48.852 192.692 49.776 192.692 50.964C192.692 51.672 192.518 52.374 192.17 53.07C191.834 53.766 191.39 54.438 190.838 55.086C190.298 55.722 189.716 56.322 189.092 56.886C188.468 57.45 187.874 57.96 187.31 58.416H193.07V60H184.574ZM196.423 60V49.56L194.389 50.028V48.624L197.179 47.4H198.403V60H196.423Z" fill="#737373"/>
<path d="M115.976 18.376L118.208 12.088L118.256 12.088L120.416 18.376L115.976 18.376ZM116.336 7.864L109.856 25L113.648 25L114.992 21.184L121.4 21.184L122.696 25L126.608 25L120.2 7.864L116.336 7.864ZM132.046 12.592L132.046 8.872L128.638 8.872L128.638 12.592L126.574 12.592L126.574 14.872L128.638 14.872L128.638 22.192C128.638 22.816 128.742 23.32 128.95 23.704C129.158 24.088 129.438 24.384 129.79 24.592C130.158 24.8 130.574 24.936 131.038 25C131.518 25.08 132.022 25.12 132.55 25.12C132.886 25.12 133.23 25.112 133.582 25.096C133.934 25.08 134.254 25.048 134.542 25L134.542 22.36C134.382 22.392 134.214 22.416 134.038 22.432C133.862 22.448 133.678 22.456 133.486 22.456C132.91 22.456 132.526 22.36 132.334 22.168C132.142 21.976 132.046 21.592 132.046 21.016L132.046 14.872L134.542 14.872L134.542 12.592L132.046 12.592ZM143.203 7.864L143.203 25L155.323 25L155.323 21.832L146.971 21.832L146.971 7.864L143.203 7.864ZM156.925 16.408C156.973 15.608 157.173 14.944 157.525 14.416C157.877 13.888 158.325 13.464 158.869 13.144C159.413 12.824 160.021 12.6 160.693 12.472C161.381 12.328 162.069 12.256 162.757 12.256C163.381 12.256 164.013 12.304 164.653 12.4C165.293 12.48 165.877 12.648 166.405 12.904C166.933 13.16 167.365 13.52 167.701 13.984C168.037 14.432 168.205 15.032 168.205 15.784L168.205 22.24C168.205 22.8 168.237 23.336 168.301 23.848C168.365 24.36 168.477 24.744 168.637 25L165.181 25C165.117 24.808 165.061 24.616 165.013 24.424C164.981 24.216 164.957 24.008 164.941 23.8C164.397 24.36 163.757 24.752 163.021 24.976C162.285 25.2 161.533 25.312 160.765 25.312C160.173 25.312 159.621 25.24 159.109 25.096C158.597 24.952 158.149 24.728 157.765 24.424C157.381 24.12 157.077 23.736 156.853 23.272C156.645 22.808 156.541 22.256 156.541 21.616C156.541 20.912 156.661 20.336 156.901 19.888C157.157 19.424 157.477 19.056 157.861 18.784C158.261 18.512 158.709 18.312 159.205 18.184C159.717 18.04 160.229 17.928 160.741 17.848C161.253 17.768 161.757 17.704 162.253 17.656C162.749 17.608 163.189 17.536 163.573 17.44C163.957 17.344 164.261 17.208 164.485 17.032C164.709 16.84 164.813 16.568 164.797 16.216C164.797 15.848 164.733 15.56 164.605 15.352C164.493 15.128 164.333 14.96 164.125 14.848C163.933 14.72 163.701 14.64 163.429 14.608C163.173 14.56 162.893 14.536 162.589 14.536C161.917 14.536 161.389 14.68 161.005 14.968C160.621 15.256 160.397 15.736 160.333 16.408L156.925 16.408ZM164.797 18.928C164.653 19.056 164.469 19.16 164.245 19.24C164.037 19.304 163.805 19.36 163.549 19.408C163.309 19.456 163.053 19.496 162.781 19.528C162.509 19.56 162.237 19.6 161.965 19.648C161.709 19.696 161.453 19.76 161.197 19.84C160.957 19.92 160.741 20.032 160.549 20.176C160.373 20.304 160.229 20.472 160.117 20.68C160.005 20.888 159.949 21.152 159.949 21.472C159.949 21.776 160.005 22.032 160.117 22.24C160.229 22.448 160.381 22.616 160.573 22.744C160.765 22.856 160.989 22.936 161.245 22.984C161.501 23.032 161.765 23.056 162.037 23.056C162.709 23.056 163.229 22.944 163.597 22.72C163.965 22.496 164.237 22.232 164.413 21.928C164.589 21.608 164.693 21.288 164.725 20.968C164.773 20.648 164.797 20.392 164.797 20.2L164.797 18.928ZM182.491 25L182.491 12.592L179.083 12.592L179.083 19.096C179.083 20.36 178.875 21.272 178.459 21.832C178.043 22.376 177.371 22.648 176.443 22.648C175.627 22.648 175.059 22.4 174.739 21.904C174.419 21.392 174.259 20.624 174.259 19.6L174.259 12.592L170.851 12.592L170.851 20.224C170.851 20.992 170.915 21.696 171.043 22.336C171.187 22.96 171.427 23.496 171.763 23.944C172.099 24.376 172.555 24.712 173.131 24.952C173.723 25.192 174.475 25.312 175.387 25.312C176.107 25.312 176.811 25.152 177.499 24.832C178.187 24.512 178.747 23.992 179.179 23.272L179.251 23.272L179.251 25L182.491 25ZM185.077 12.592L185.077 25L188.485 25L188.485 18.496C188.485 17.232 188.693 16.328 189.109 15.784C189.525 15.224 190.197 14.944 191.125 14.944C191.941 14.944 192.509 15.2 192.829 15.712C193.149 16.208 193.309 16.968 193.309 17.992L193.309 25L196.717 25L196.717 17.368C196.717 16.6 196.645 15.904 196.501 15.28C196.373 14.64 196.141 14.104 195.805 13.672C195.469 13.224 195.005 12.88 194.413 12.64C193.837 12.384 193.093 12.256 192.181 12.256C191.461 12.256 190.757 12.424 190.069 12.76C189.381 13.08 188.821 13.6 188.389 14.32L188.317 14.32L188.317 12.592L185.077 12.592ZM207.752 16.96L211.088 16.96C211.04 16.16 210.848 15.472 210.512 14.896C210.176 14.304 209.736 13.816 209.192 13.432C208.664 13.032 208.056 12.736 207.368 12.544C206.696 12.352 205.992 12.256 205.256 12.256C204.248 12.256 203.352 12.424 202.568 12.76C201.784 13.096 201.12 13.568 200.576 14.176C200.032 14.768 199.616 15.48 199.328 16.312C199.056 17.128 198.92 18.016 198.92 18.976C198.92 19.904 199.072 20.76 199.376 21.544C199.68 22.312 200.104 22.976 200.648 23.536C201.192 24.096 201.848 24.536 202.616 24.856C203.4 25.16 204.256 25.312 205.184 25.312C206.832 25.312 208.184 24.88 209.24 24.016C210.296 23.152 210.936 21.896 211.16 20.248L207.872 20.248C207.76 21.016 207.48 21.632 207.032 22.096C206.6 22.544 205.976 22.768 205.16 22.768C204.632 22.768 204.184 22.648 203.816 22.408C203.448 22.168 203.152 21.864 202.928 21.496C202.72 21.112 202.568 20.688 202.472 20.224C202.376 19.76 202.328 19.304 202.328 18.856C202.328 18.392 202.376 17.928 202.472 17.464C202.568 16.984 202.728 16.552 202.952 16.168C203.192 15.768 203.496 15.448 203.864 15.208C204.232 14.952 204.688 14.824 205.232 14.824C206.688 14.824 207.528 15.536 207.752 16.96ZM213.085 7.864L213.085 25L216.493 25L216.493 18.496C216.493 17.232 216.701 16.328 217.117 15.784C217.533 15.224 218.205 14.944 219.133 14.944C219.949 14.944 220.517 15.2 220.837 15.712C221.157 16.208 221.317 16.968 221.317 17.992L221.317 25L224.725 25L224.725 17.368C224.725 16.6 224.653 15.904 224.509 15.28C224.381 14.64 224.149 14.104 223.813 13.672C223.477 13.224 223.013 12.88 222.421 12.64C221.845 12.384 221.101 12.256 220.189 12.256C219.549 12.256 218.893 12.424 218.221 12.76C217.549 13.08 216.997 13.6 216.565 14.32L216.493 14.32L216.493 7.864L213.085 7.864Z" fill="black"/>
<path d="M91.274 193.216C90.41 193.216 89.648 193.012 88.988 192.604C88.328 192.196 87.812 191.638 87.44 190.93C87.068 190.222 86.882 189.418 86.882 188.518C86.882 187.618 87.068 186.82 87.44 186.124C87.812 185.416 88.328 184.864 88.988 184.468C89.66 184.06 90.428 183.856 91.292 183.856C92 183.856 92.618 183.994 93.146 184.27C93.686 184.546 94.106 184.936 94.406 185.44V180.04H96.314V193H94.604L94.406 191.614C94.118 192.034 93.722 192.406 93.218 192.73C92.714 193.054 92.066 193.216 91.274 193.216ZM91.616 191.56C92.432 191.56 93.098 191.278 93.614 190.714C94.142 190.15 94.406 189.424 94.406 188.536C94.406 187.636 94.142 186.91 93.614 186.358C93.098 185.794 92.432 185.512 91.616 185.512C90.8 185.512 90.128 185.794 89.6 186.358C89.072 186.91 88.808 187.636 88.808 188.536C88.808 189.124 88.928 189.646 89.168 190.102C89.408 190.558 89.738 190.918 90.158 191.182C90.59 191.434 91.076 191.56 91.616 191.56ZM101.744 193V181.948H98.0177V180.4H107.36V181.948H103.652V193H101.744ZM108.124 193V184.072H109.834L109.996 185.764C110.308 185.176 110.74 184.714 111.292 184.378C111.856 184.03 112.534 183.856 113.326 183.856V185.854H112.804C112.276 185.854 111.802 185.944 111.382 186.124C110.974 186.292 110.644 186.586 110.392 187.006C110.152 187.414 110.032 187.984 110.032 188.716V193H108.124ZM117.986 193.216C117.23 193.216 116.606 193.09 116.114 192.838C115.622 192.586 115.256 192.256 115.016 191.848C114.776 191.428 114.656 190.972 114.656 190.48C114.656 189.616 114.992 188.932 115.664 188.428C116.336 187.924 117.296 187.672 118.544 187.672H120.884V187.51C120.884 186.814 120.692 186.292 120.308 185.944C119.936 185.596 119.45 185.422 118.85 185.422C118.322 185.422 117.86 185.554 117.464 185.818C117.08 186.07 116.846 186.448 116.762 186.952H114.854C114.914 186.304 115.13 185.752 115.502 185.296C115.886 184.828 116.366 184.474 116.942 184.234C117.53 183.982 118.172 183.856 118.868 183.856C120.116 183.856 121.082 184.186 121.766 184.846C122.45 185.494 122.792 186.382 122.792 187.51V193H121.136L120.974 191.47C120.722 191.962 120.356 192.376 119.876 192.712C119.396 193.048 118.766 193.216 117.986 193.216ZM118.364 191.668C118.88 191.668 119.312 191.548 119.66 191.308C120.02 191.056 120.296 190.726 120.488 190.318C120.692 189.91 120.818 189.46 120.866 188.968H118.742C117.986 188.968 117.446 189.1 117.122 189.364C116.81 189.628 116.654 189.958 116.654 190.354C116.654 190.762 116.804 191.086 117.104 191.326C117.416 191.554 117.836 191.668 118.364 191.668ZM129.085 193.216C128.221 193.216 127.459 193.012 126.799 192.604C126.139 192.196 125.623 191.638 125.251 190.93C124.879 190.222 124.693 189.418 124.693 188.518C124.693 187.618 124.879 186.82 125.251 186.124C125.623 185.416 126.139 184.864 126.799 184.468C127.471 184.06 128.239 183.856 129.103 183.856C129.811 183.856 130.429 183.994 130.957 184.27C131.497 184.546 131.917 184.936 132.217 185.44V180.04H134.125V193H132.415L132.217 191.614C131.929 192.034 131.533 192.406 131.029 192.73C130.525 193.054 129.877 193.216 129.085 193.216ZM129.427 191.56C130.243 191.56 130.909 191.278 131.425 190.714C131.953 190.15 132.217 189.424 132.217 188.536C132.217 187.636 131.953 186.91 131.425 186.358C130.909 185.794 130.243 185.512 129.427 185.512C128.611 185.512 127.939 185.794 127.411 186.358C126.883 186.91 126.619 187.636 126.619 188.536C126.619 189.124 126.739 189.646 126.979 190.102C127.219 190.558 127.549 190.918 127.969 191.182C128.401 191.434 128.887 191.56 129.427 191.56ZM140.706 193.216C139.83 193.216 139.05 193.024 138.366 192.64C137.694 192.244 137.166 191.698 136.782 191.002C136.398 190.306 136.206 189.496 136.206 188.572C136.206 187.636 136.392 186.814 136.764 186.106C137.148 185.398 137.676 184.846 138.348 184.45C139.032 184.054 139.824 183.856 140.724 183.856C141.6 183.856 142.362 184.054 143.01 184.45C143.658 184.834 144.162 185.35 144.522 185.998C144.882 186.646 145.062 187.36 145.062 188.14C145.062 188.26 145.056 188.392 145.044 188.536C145.044 188.668 145.038 188.818 145.026 188.986H138.078C138.138 189.85 138.42 190.51 138.924 190.966C139.44 191.41 140.034 191.632 140.706 191.632C141.246 191.632 141.696 191.512 142.056 191.272C142.428 191.02 142.704 190.684 142.884 190.264H144.792C144.552 191.104 144.072 191.806 143.352 192.37C142.644 192.934 141.762 193.216 140.706 193.216ZM140.706 185.422C140.07 185.422 139.506 185.614 139.014 185.998C138.522 186.37 138.222 186.934 138.114 187.69H143.154C143.118 186.994 142.872 186.442 142.416 186.034C141.96 185.626 141.39 185.422 140.706 185.422Z" fill="#737373"/>
<path fill-rule="evenodd" clip-rule="evenodd" d="M111.921 120.379C113.82 121.92 115.303 123.243 116.369 124.349C112.551 124.863 109.329 126.344 106.705 128.793C104.103 131.243 102.801 134.294 102.801 137.948C102.801 141.74 103.985 144.772 106.353 147.044C108.721 149.315 111.623 150.451 115.057 150.451C118.833 150.451 122.129 149.039 124.945 146.214C127.783 143.37 129.201 140.091 129.201 136.378C129.201 134.265 128.721 132.26 127.761 130.364C126.801 128.468 125.553 126.858 124.017 125.534C122.503 124.211 119.9 122.374 116.209 120.024C115.197 119.382 114.297 118.798 113.51 118.273L113.525 118.276C113.511 118.269 113.497 118.261 113.482 118.254C112.89 117.858 112.361 117.496 111.897 117.167C110.672 116.037 109.767 114.245 111.051 111.676C111.876 110.026 114.351 109.201 116.826 110.026H116.837C116.95 110.086 117.061 110.149 117.169 110.217C118.108 110.77 119.249 111.738 120.593 113.121C121.916 114.484 123.068 115.165 124.049 115.165C124.732 115.165 125.329 114.918 125.841 114.424C126.353 113.931 126.609 113.308 126.609 112.558C126.609 110.997 125.553 109.773 123.441 108.884C121.351 107.995 118.897 107.551 116.081 107.551C113.265 107.551 110.983 108.054 109.233 109.062C107.484 110.049 106.609 111.412 106.609 113.15C106.609 114.316 106.972 115.392 107.697 116.38C108.423 117.348 109.831 118.681 111.921 120.379ZM108.593 137.385C108.593 130.532 111.655 126.641 117.777 125.712C121.575 129.287 123.473 133.405 123.473 138.067C123.473 141.286 122.791 143.844 121.425 145.74C120.06 147.617 118.321 148.555 116.209 148.555C114.183 148.555 112.401 147.577 110.865 145.622C109.351 143.666 108.593 140.921 108.593 137.385Z" fill="#565656"/>
<path d="M184.278 191V178.4H192.288V179.948H186.186V183.872H191.748V185.384H186.186V189.452H192.288V191H184.278ZM198.557 191.216C197.693 191.216 196.931 191.012 196.271 190.604C195.611 190.196 195.095 189.638 194.723 188.93C194.351 188.222 194.165 187.418 194.165 186.518C194.165 185.618 194.351 184.82 194.723 184.124C195.095 183.416 195.611 182.864 196.271 182.468C196.943 182.06 197.711 181.856 198.575 181.856C199.283 181.856 199.901 181.994 200.429 182.27C200.969 182.546 201.389 182.936 201.689 183.44V178.04H203.597V191H201.887L201.689 189.614C201.401 190.034 201.005 190.406 200.501 190.73C199.997 191.054 199.349 191.216 198.557 191.216ZM198.899 189.56C199.715 189.56 200.381 189.278 200.897 188.714C201.425 188.15 201.689 187.424 201.689 186.536C201.689 185.636 201.425 184.91 200.897 184.358C200.381 183.794 199.715 183.512 198.899 183.512C198.083 183.512 197.411 183.794 196.883 184.358C196.355 184.91 196.091 185.636 196.091 186.536C196.091 187.124 196.211 187.646 196.451 188.102C196.691 188.558 197.021 188.918 197.441 189.182C197.873 189.434 198.359 189.56 198.899 189.56ZM209.657 188.264C209.189 188.264 208.757 188.21 208.361 188.102L207.587 188.858C207.719 188.942 207.881 189.014 208.073 189.074C208.265 189.134 208.535 189.188 208.883 189.236C209.231 189.284 209.705 189.332 210.305 189.38C211.493 189.488 212.351 189.776 212.879 190.244C213.407 190.7 213.671 191.312 213.671 192.08C213.671 192.608 213.527 193.106 213.239 193.574C212.963 194.054 212.525 194.438 211.925 194.726C211.337 195.026 210.581 195.176 209.657 195.176C208.409 195.176 207.395 194.936 206.615 194.456C205.847 193.988 205.463 193.274 205.463 192.314C205.463 191.942 205.559 191.57 205.751 191.198C205.955 190.838 206.273 190.496 206.705 190.172C206.453 190.064 206.231 189.95 206.039 189.83C205.859 189.698 205.697 189.566 205.553 189.434V189.002L207.101 187.418C206.405 186.818 206.057 186.032 206.057 185.06C206.057 184.472 206.195 183.938 206.471 183.458C206.759 182.966 207.173 182.576 207.713 182.288C208.253 182 208.901 181.856 209.657 181.856C210.161 181.856 210.629 181.928 211.061 182.072H214.391V183.332L212.807 183.422C213.095 183.914 213.239 184.46 213.239 185.06C213.239 185.66 213.095 186.2 212.807 186.68C212.531 187.16 212.123 187.544 211.583 187.832C211.055 188.12 210.413 188.264 209.657 188.264ZM209.657 186.77C210.209 186.77 210.653 186.626 210.989 186.338C211.337 186.038 211.511 185.618 211.511 185.078C211.511 184.526 211.337 184.106 210.989 183.818C210.653 183.53 210.209 183.386 209.657 183.386C209.093 183.386 208.637 183.53 208.289 183.818C207.953 184.106 207.785 184.526 207.785 185.078C207.785 185.618 207.953 186.038 208.289 186.338C208.637 186.626 209.093 186.77 209.657 186.77ZM207.263 192.134C207.263 192.65 207.491 193.034 207.947 193.286C208.403 193.55 208.973 193.682 209.657 193.682C210.317 193.682 210.851 193.538 211.259 193.25C211.667 192.974 211.871 192.602 211.871 192.134C211.871 191.786 211.733 191.486 211.457 191.234C211.181 190.994 210.659 190.844 209.891 190.784C209.315 190.748 208.805 190.694 208.361 190.622C207.941 190.85 207.653 191.096 207.497 191.36C207.341 191.624 207.263 191.882 207.263 192.134ZM219.917 191.216C219.041 191.216 218.261 191.024 217.577 190.64C216.905 190.244 216.377 189.698 215.993 189.002C215.609 188.306 215.417 187.496 215.417 186.572C215.417 185.636 215.603 184.814 215.975 184.106C216.359 183.398 216.887 182.846 217.559 182.45C218.243 182.054 219.035 181.856 219.935 181.856C220.811 181.856 221.573 182.054 222.221 182.45C222.869 182.834 223.373 183.35 223.733 183.998C224.093 184.646 224.273 185.36 224.273 186.14C224.273 186.26 224.267 186.392 224.255 186.536C224.255 186.668 224.249 186.818 224.237 186.986H217.289C217.349 187.85 217.631 188.51 218.135 188.966C218.651 189.41 219.245 189.632 219.917 189.632C220.457 189.632 220.907 189.512 221.267 189.272C221.639 189.02 221.915 188.684 222.095 188.264H224.003C223.763 189.104 223.283 189.806 222.563 190.37C221.855 190.934 220.973 191.216 219.917 191.216ZM219.917 183.422C219.281 183.422 218.717 183.614 218.225 183.998C217.733 184.37 217.433 184.934 217.325 185.69H222.365C222.329 184.994 222.083 184.442 221.627 184.034C221.171 183.626 220.601 183.422 219.917 183.422ZM227.683 191L225.055 182.072H226.963L228.691 188.804L230.635 182.072H232.759L234.703 188.804L236.431 182.072H238.339L235.711 191H233.749L231.697 183.98L229.645 191H227.683ZM242.531 191.216C241.775 191.216 241.151 191.09 240.659 190.838C240.167 190.586 239.801 190.256 239.561 189.848C239.321 189.428 239.201 188.972 239.201 188.48C239.201 187.616 239.537 186.932 240.209 186.428C240.881 185.924 241.841 185.672 243.089 185.672H245.429V185.51C245.429 184.814 245.237 184.292 244.853 183.944C244.481 183.596 243.995 183.422 243.395 183.422C242.867 183.422 242.405 183.554 242.009 183.818C241.625 184.07 241.391 184.448 241.307 184.952H239.399C239.459 184.304 239.675 183.752 240.047 183.296C240.431 182.828 240.911 182.474 241.487 182.234C242.075 181.982 242.717 181.856 243.413 181.856C244.661 181.856 245.627 182.186 246.311 182.846C246.995 183.494 247.337 184.382 247.337 185.51V191H245.681L245.519 189.47C245.267 189.962 244.901 190.376 244.421 190.712C243.941 191.048 243.311 191.216 242.531 191.216ZM242.909 189.668C243.425 189.668 243.857 189.548 244.205 189.308C244.565 189.056 244.841 188.726 245.033 188.318C245.237 187.91 245.363 187.46 245.411 186.968H243.287C242.531 186.968 241.991 187.1 241.667 187.364C241.355 187.628 241.199 187.958 241.199 188.354C241.199 188.762 241.349 189.086 241.649 189.326C241.961 189.554 242.381 189.668 242.909 189.668ZM249.561 191V182.072H251.271L251.433 183.764C251.745 183.176 252.177 182.714 252.729 182.378C253.293 182.03 253.971 181.856 254.763 181.856V183.854H254.241C253.713 183.854 253.239 183.944 252.819 184.124C252.411 184.292 252.081 184.586 251.829 185.006C251.589 185.414 251.469 185.984 251.469 186.716V191H249.561ZM260.329 191.216C259.453 191.216 258.673 191.024 257.989 190.64C257.317 190.244 256.789 189.698 256.405 189.002C256.021 188.306 255.829 187.496 255.829 186.572C255.829 185.636 256.015 184.814 256.387 184.106C256.771 183.398 257.299 182.846 257.971 182.45C258.655 182.054 259.447 181.856 260.347 181.856C261.223 181.856 261.985 182.054 262.633 182.45C263.281 182.834 263.785 183.35 264.145 183.998C264.505 184.646 264.685 185.36 264.685 186.14C264.685 186.26 264.679 186.392 264.667 186.536C264.667 186.668 264.661 186.818 264.649 186.986H257.701C257.761 187.85 258.043 188.51 258.547 188.966C259.063 189.41 259.657 189.632 260.329 189.632C260.869 189.632 261.319 189.512 261.679 189.272C262.051 189.02 262.327 188.684 262.507 188.264H264.415C264.175 189.104 263.695 189.806 262.975 190.37C262.267 190.934 261.385 191.216 260.329 191.216ZM260.329 183.422C259.693 183.422 259.129 183.614 258.637 183.998C258.145 184.37 257.845 184.934 257.737 185.69H262.777C262.741 184.994 262.495 184.442 262.039 184.034C261.583 183.626 261.013 183.422 260.329 183.422Z" fill="#737373"/>
<path d="M202.518 114H207.443V145H202.518V114Z" fill="#565656"/>
<path d="M238.478 114H243.404V130.692H238.478V114Z" fill="#565656"/>
<path d="M225.345 143.964L222.882 139.833L237.811 131.487L240.273 135.617L225.345 143.964Z" fill="#565656"/>
<path d="M256.537 143.964L259 139.833L244.071 131.487L241.609 135.617L256.537 143.964Z" fill="#565656"/>
<path d="M190 123.936L192.463 119.806L220.187 135.306L217.725 139.436L190 123.936Z" fill="#565656"/>
<path d="M192.463 139.436L190 135.306L217.725 119.806L220.187 123.936L192.463 139.436Z" fill="#565656"/>
</svg>
