<svg width="336" height="228" viewBox="0 0 336 228" fill="none" xmlns="http://www.w3.org/2000/svg">
<path d="M81.278 193V180.4H85.688C86.672 180.4 87.488 180.568 88.136 180.904C88.784 181.228 89.264 181.678 89.576 182.254C89.9 182.818 90.062 183.46 90.062 184.18C90.062 184.864 89.906 185.494 89.594 186.07C89.294 186.634 88.82 187.084 88.172 187.42C87.524 187.756 86.696 187.924 85.688 187.924H83.186V193H81.278ZM83.186 186.358H85.598C86.498 186.358 87.14 186.166 87.524 185.782C87.92 185.386 88.118 184.852 88.118 184.18C88.118 183.484 87.92 182.944 87.524 182.56C87.14 182.164 86.498 181.966 85.598 181.966H83.186V186.358ZM95.5597 193.216C94.7077 193.216 93.9397 193.024 93.2557 192.64C92.5837 192.244 92.0497 191.698 91.6537 191.002C91.2577 190.294 91.0597 189.472 91.0597 188.536C91.0597 187.6 91.2577 186.784 91.6537 186.088C92.0617 185.38 92.6077 184.834 93.2917 184.45C93.9757 184.054 94.7377 183.856 95.5777 183.856C96.4297 183.856 97.1917 184.054 97.8637 184.45C98.5477 184.834 99.0877 185.38 99.4837 186.088C99.8917 186.784 100.096 187.6 100.096 188.536C100.096 189.472 99.8917 190.294 99.4837 191.002C99.0877 191.698 98.5477 192.244 97.8637 192.64C97.1797 193.024 96.4117 193.216 95.5597 193.216ZM95.5597 191.578C96.0157 191.578 96.4357 191.464 96.8197 191.236C97.2157 191.008 97.5337 190.672 97.7737 190.228C98.0137 189.772 98.1337 189.208 98.1337 188.536C98.1337 187.864 98.0137 187.306 97.7737 186.862C97.5457 186.406 97.2337 186.064 96.8377 185.836C96.4537 185.608 96.0337 185.494 95.5777 185.494C95.1217 185.494 94.6957 185.608 94.2997 185.836C93.9157 186.064 93.6037 186.406 93.3637 186.862C93.1237 187.306 93.0037 187.864 93.0037 188.536C93.0037 189.208 93.1237 189.772 93.3637 190.228C93.6037 190.672 93.9157 191.008 94.2997 191.236C94.6837 191.464 95.1037 191.578 95.5597 191.578ZM102.159 193V180.04H104.067V193H102.159ZM106.483 193V180.04H108.391V187.762L111.811 184.072H114.097L110.299 188.122L114.655 193H112.243L108.391 188.428V193H106.483ZM118.964 193.216C118.208 193.216 117.584 193.09 117.092 192.838C116.6 192.586 116.234 192.256 115.994 191.848C115.754 191.428 115.634 190.972 115.634 190.48C115.634 189.616 115.97 188.932 116.642 188.428C117.314 187.924 118.274 187.672 119.522 187.672H121.862V187.51C121.862 186.814 121.67 186.292 121.286 185.944C120.914 185.596 120.428 185.422 119.828 185.422C119.3 185.422 118.838 185.554 118.442 185.818C118.058 186.07 117.824 186.448 117.74 186.952H115.832C115.892 186.304 116.108 185.752 116.48 185.296C116.864 184.828 117.344 184.474 117.92 184.234C118.508 183.982 119.15 183.856 119.846 183.856C121.094 183.856 122.06 184.186 122.744 184.846C123.428 185.494 123.77 186.382 123.77 187.51V193H122.114L121.952 191.47C121.7 191.962 121.334 192.376 120.854 192.712C120.374 193.048 119.744 193.216 118.964 193.216ZM119.342 191.668C119.858 191.668 120.29 191.548 120.638 191.308C120.998 191.056 121.274 190.726 121.466 190.318C121.67 189.91 121.796 189.46 121.844 188.968H119.72C118.964 188.968 118.424 189.1 118.1 189.364C117.788 189.628 117.632 189.958 117.632 190.354C117.632 190.762 117.782 191.086 118.082 191.326C118.394 191.554 118.814 191.668 119.342 191.668ZM130.063 193.216C129.199 193.216 128.437 193.012 127.777 192.604C127.117 192.196 126.601 191.638 126.229 190.93C125.857 190.222 125.671 189.418 125.671 188.518C125.671 187.618 125.857 186.82 126.229 186.124C126.601 185.416 127.117 184.864 127.777 184.468C128.449 184.06 129.217 183.856 130.081 183.856C130.789 183.856 131.407 183.994 131.935 184.27C132.475 184.546 132.895 184.936 133.195 185.44V180.04H135.103V193H133.393L133.195 191.614C132.907 192.034 132.511 192.406 132.007 192.73C131.503 193.054 130.855 193.216 130.063 193.216ZM130.405 191.56C131.221 191.56 131.887 191.278 132.403 190.714C132.931 190.15 133.195 189.424 133.195 188.536C133.195 187.636 132.931 186.91 132.403 186.358C131.887 185.794 131.221 185.512 130.405 185.512C129.589 185.512 128.917 185.794 128.389 186.358C127.861 186.91 127.597 187.636 127.597 188.536C127.597 189.124 127.717 189.646 127.957 190.102C128.197 190.558 128.527 190.918 128.947 191.182C129.379 191.434 129.865 191.56 130.405 191.56ZM141.685 193.216C140.833 193.216 140.065 193.024 139.381 192.64C138.709 192.244 138.175 191.698 137.779 191.002C137.383 190.294 137.185 189.472 137.185 188.536C137.185 187.6 137.383 186.784 137.779 186.088C138.187 185.38 138.733 184.834 139.417 184.45C140.101 184.054 140.863 183.856 141.703 183.856C142.555 183.856 143.317 184.054 143.989 184.45C144.673 184.834 145.213 185.38 145.609 186.088C146.017 186.784 146.221 187.6 146.221 188.536C146.221 189.472 146.017 190.294 145.609 191.002C145.213 191.698 144.673 192.244 143.989 192.64C143.305 193.024 142.537 193.216 141.685 193.216ZM141.685 191.578C142.141 191.578 142.561 191.464 142.945 191.236C143.341 191.008 143.659 190.672 143.899 190.228C144.139 189.772 144.259 189.208 144.259 188.536C144.259 187.864 144.139 187.306 143.899 186.862C143.671 186.406 143.359 186.064 142.963 185.836C142.579 185.608 142.159 185.494 141.703 185.494C141.247 185.494 140.821 185.608 140.425 185.836C140.041 186.064 139.729 186.406 139.489 186.862C139.249 187.306 139.129 187.864 139.129 188.536C139.129 189.208 139.249 189.772 139.489 190.228C139.729 190.672 140.041 191.008 140.425 191.236C140.809 191.464 141.229 191.578 141.685 191.578ZM151.677 193C150.801 193 150.105 192.79 149.589 192.37C149.073 191.938 148.815 191.176 148.815 190.084V185.674H147.285V184.072H148.815L149.049 181.804H150.723V184.072H153.243V185.674H150.723V190.084C150.723 190.576 150.825 190.918 151.029 191.11C151.245 191.29 151.611 191.38 152.127 191.38H153.153V193H151.677Z" fill="#737373"/>
<g clip-path="url(#clip0)">
<path d="M117.171 110C113.09 110.015 109.18 111.619 106.295 114.462C103.409 117.305 101.781 121.157 101.766 125.177C101.765 126.854 102.04 128.519 102.577 130.109C102.771 130.63 103.158 131.058 103.662 131.306C104.165 131.554 104.745 131.602 105.283 131.442C105.806 131.247 106.233 130.862 106.477 130.366C106.722 129.871 106.765 129.302 106.598 128.776C106.14 127.54 105.937 126.226 105.999 124.911C106.063 122.788 106.752 120.729 107.982 118.986C109.212 117.242 110.931 115.888 112.928 115.09C114.925 114.291 117.115 114.082 119.231 114.487C121.347 114.893 123.297 115.896 124.844 117.374C126.392 118.853 127.47 120.742 127.946 122.813C128.423 124.885 128.278 127.047 127.53 129.039C126.781 131.03 125.461 132.764 123.729 134.029C121.998 135.295 119.931 136.037 117.779 136.165C117.779 136.165 115.624 136.298 114.542 136.432C114.145 136.487 113.751 136.563 113.363 136.66C113.335 136.681 113.3 136.691 113.266 136.688C113.231 136.686 113.198 136.671 113.173 136.647C113.149 136.623 113.134 136.59 113.131 136.556C113.129 136.522 113.139 136.488 113.16 136.46L113.498 134.661L115.528 125.606C115.644 125.067 115.539 124.504 115.234 124.041C114.93 123.579 114.451 123.255 113.904 123.14C113.357 123.025 112.786 123.129 112.316 123.429C111.847 123.729 111.518 124.2 111.401 124.739C111.401 124.739 106.569 146.848 106.569 147.048C106.502 147.315 106.492 147.592 106.538 147.863C106.584 148.134 106.685 148.393 106.837 148.624C106.988 148.855 107.185 149.053 107.416 149.206C107.648 149.359 107.909 149.464 108.183 149.514C108.454 149.578 108.736 149.587 109.011 149.541C109.286 149.494 109.548 149.393 109.783 149.243C110.017 149.094 110.217 148.899 110.373 148.67C110.528 148.442 110.635 148.185 110.686 147.915C110.753 147.648 111.362 144.715 111.362 144.715C111.587 143.636 112.141 142.65 112.952 141.891C113.762 141.131 114.789 140.635 115.895 140.469C116.359 140.402 118.321 140.269 118.321 140.269C122.241 139.912 125.874 138.088 128.472 135.174C131.07 132.259 132.436 128.474 132.288 124.598C132.141 120.722 130.492 117.048 127.68 114.333C124.868 111.618 121.107 110.067 117.171 110Z" fill="#565656"/>
<path d="M122.124 144.954C121.791 144.887 121.448 144.886 121.114 144.951C120.781 145.015 120.463 145.144 120.18 145.33C119.898 145.516 119.655 145.755 119.466 146.033C119.277 146.312 119.146 146.624 119.08 146.953C119.009 147.282 119.005 147.621 119.068 147.951C119.132 148.281 119.263 148.595 119.452 148.875C119.641 149.155 119.885 149.394 120.17 149.579C120.455 149.764 120.774 149.891 121.11 149.952C121.443 150.027 121.788 150.034 122.124 149.973C122.46 149.911 122.78 149.783 123.064 149.596C123.348 149.409 123.59 149.167 123.776 148.884C123.962 148.602 124.087 148.285 124.144 147.953C124.258 147.294 124.113 146.616 123.737 146.059C123.362 145.502 122.785 145.106 122.124 144.954Z" fill="#565656"/>
</g>
<path d="M188.278 193V180.4H190.186V185.8L195.154 180.4H197.512L192.85 185.422L197.62 193H195.298L191.482 186.88L190.186 188.284V193H188.278ZM202.275 193.216C201.195 193.216 200.343 192.88 199.719 192.208C199.107 191.536 198.801 190.534 198.801 189.202V184.072H200.709V189.004C200.709 190.732 201.417 191.596 202.833 191.596C203.541 191.596 204.123 191.344 204.579 190.84C205.035 190.336 205.263 189.616 205.263 188.68V184.072H207.171V193H205.479L205.335 191.434C205.059 191.986 204.651 192.424 204.111 192.748C203.583 193.06 202.971 193.216 202.275 193.216ZM213.163 193.216C212.035 193.216 211.105 192.94 210.373 192.388C209.641 191.836 209.221 191.104 209.113 190.192H211.039C211.135 190.6 211.363 190.954 211.723 191.254C212.083 191.542 212.557 191.686 213.145 191.686C213.721 191.686 214.141 191.566 214.405 191.326C214.669 191.086 214.801 190.81 214.801 190.498C214.801 190.042 214.615 189.736 214.243 189.58C213.883 189.412 213.379 189.262 212.731 189.13C212.227 189.022 211.723 188.878 211.219 188.698C210.727 188.518 210.313 188.266 209.977 187.942C209.653 187.606 209.491 187.156 209.491 186.592C209.491 185.812 209.791 185.164 210.391 184.648C210.991 184.12 211.831 183.856 212.911 183.856C213.907 183.856 214.711 184.096 215.323 184.576C215.947 185.056 216.313 185.734 216.421 186.61H214.585C214.525 186.226 214.345 185.926 214.045 185.71C213.757 185.494 213.367 185.386 212.875 185.386C212.395 185.386 212.023 185.488 211.759 185.692C211.495 185.884 211.363 186.136 211.363 186.448C211.363 186.76 211.543 187.006 211.903 187.186C212.275 187.366 212.761 187.528 213.361 187.672C213.961 187.804 214.513 187.96 215.017 188.14C215.533 188.308 215.947 188.56 216.259 188.896C216.571 189.232 216.727 189.724 216.727 190.372C216.739 191.188 216.421 191.866 215.773 192.406C215.137 192.946 214.267 193.216 213.163 193.216ZM221.834 193.216C221.078 193.216 220.454 193.09 219.962 192.838C219.47 192.586 219.104 192.256 218.864 191.848C218.624 191.428 218.504 190.972 218.504 190.48C218.504 189.616 218.84 188.932 219.512 188.428C220.184 187.924 221.144 187.672 222.392 187.672H224.732V187.51C224.732 186.814 224.54 186.292 224.156 185.944C223.784 185.596 223.298 185.422 222.698 185.422C222.17 185.422 221.708 185.554 221.312 185.818C220.928 186.07 220.694 186.448 220.61 186.952H218.702C218.762 186.304 218.978 185.752 219.35 185.296C219.734 184.828 220.214 184.474 220.79 184.234C221.378 183.982 222.02 183.856 222.716 183.856C223.964 183.856 224.93 184.186 225.614 184.846C226.298 185.494 226.64 186.382 226.64 187.51V193H224.984L224.822 191.47C224.57 191.962 224.204 192.376 223.724 192.712C223.244 193.048 222.614 193.216 221.834 193.216ZM222.212 191.668C222.728 191.668 223.16 191.548 223.508 191.308C223.868 191.056 224.144 190.726 224.336 190.318C224.54 189.91 224.666 189.46 224.714 188.968H222.59C221.834 188.968 221.294 189.1 220.97 189.364C220.658 189.628 220.502 189.958 220.502 190.354C220.502 190.762 220.652 191.086 220.952 191.326C221.264 191.554 221.684 191.668 222.212 191.668ZM228.864 193V184.072H230.556L230.718 185.332C231.006 184.876 231.384 184.516 231.852 184.252C232.332 183.988 232.884 183.856 233.508 183.856C234.924 183.856 235.908 184.414 236.46 185.53C236.784 185.014 237.216 184.606 237.756 184.306C238.308 184.006 238.902 183.856 239.538 183.856C240.654 183.856 241.53 184.192 242.166 184.864C242.802 185.536 243.12 186.538 243.12 187.87V193H241.212V188.068C241.212 186.34 240.552 185.476 239.232 185.476C238.56 185.476 238.008 185.728 237.576 186.232C237.156 186.736 236.946 187.456 236.946 188.392V193H235.038V188.068C235.038 186.34 234.372 185.476 233.04 185.476C232.38 185.476 231.834 185.728 231.402 186.232C230.982 186.736 230.772 187.456 230.772 188.392V193H228.864ZM248.376 193.216C247.62 193.216 246.996 193.09 246.504 192.838C246.012 192.586 245.646 192.256 245.406 191.848C245.166 191.428 245.046 190.972 245.046 190.48C245.046 189.616 245.382 188.932 246.054 188.428C246.726 187.924 247.686 187.672 248.934 187.672H251.274V187.51C251.274 186.814 251.082 186.292 250.698 185.944C250.326 185.596 249.84 185.422 249.24 185.422C248.712 185.422 248.25 185.554 247.854 185.818C247.47 186.07 247.236 186.448 247.152 186.952H245.244C245.304 186.304 245.52 185.752 245.892 185.296C246.276 184.828 246.756 184.474 247.332 184.234C247.92 183.982 248.562 183.856 249.258 183.856C250.506 183.856 251.472 184.186 252.156 184.846C252.84 185.494 253.182 186.382 253.182 187.51V193H251.526L251.364 191.47C251.112 191.962 250.746 192.376 250.266 192.712C249.786 193.048 249.156 193.216 248.376 193.216ZM248.754 191.668C249.27 191.668 249.702 191.548 250.05 191.308C250.41 191.056 250.686 190.726 250.878 190.318C251.082 189.91 251.208 189.46 251.256 188.968H249.132C248.376 188.968 247.836 189.1 247.512 189.364C247.2 189.628 247.044 189.958 247.044 190.354C247.044 190.762 247.194 191.086 247.494 191.326C247.806 191.554 248.226 191.668 248.754 191.668Z" fill="#737373"/>
<path d="M243.066 115.757C242.314 115.118 241.417 114.246 239.782 114.028C238.249 113.81 236.687 114.916 235.631 115.648C234.575 116.38 232.579 118.53 231.755 119.184C230.93 119.838 228.819 120.446 225.42 122.642C222.021 124.838 208.685 134.059 208.685 134.059L212.156 134.106L196.68 142.689H198.227L196 144.511C196 144.511 197.967 145.072 199.616 143.951V144.465C199.616 144.465 218.043 136.645 221.601 138.67L219.432 139.355C219.62 139.355 223.12 139.605 223.12 139.605C223.205 140.385 223.448 141.136 223.833 141.804C224.218 142.471 224.735 143.04 225.347 143.468C227.459 144.963 227.502 145.789 227.502 145.789C227.502 145.789 226.403 146.271 226.403 146.879C226.403 146.879 228.023 146.349 229.527 146.396C230.482 146.435 231.429 146.597 232.348 146.879C232.348 146.879 232.232 146.225 230.771 145.789C229.31 145.352 227.864 143.639 227.155 142.704C226.721 142.109 226.438 141.403 226.334 140.655C226.23 139.907 226.309 139.142 226.562 138.436C227.069 137.019 228.833 136.24 232.478 134.215C236.774 131.816 237.757 130.041 238.365 128.654C238.972 127.268 239.869 124.511 240.375 123.218C241.012 121.551 241.793 120.664 242.444 120.134C243.095 119.604 245.987 118.436 245.987 118.436C245.987 118.436 243.774 116.364 243.066 115.757Z" fill="#565656"/>
<path d="M141.499 60.216C140.251 60.216 139.159 59.94 138.223 59.388C137.287 58.836 136.555 58.074 136.027 57.102C135.499 56.118 135.235 54.984 135.235 53.7C135.235 52.416 135.499 51.288 136.027 50.316C136.555 49.332 137.287 48.564 138.223 48.012C139.159 47.46 140.251 47.184 141.499 47.184C142.747 47.184 143.839 47.46 144.775 48.012C145.711 48.564 146.437 49.332 146.953 50.316C147.481 51.288 147.745 52.416 147.745 53.7C147.745 54.936 147.499 56.034 147.007 56.994C146.527 57.954 145.855 58.71 144.991 59.262L148.033 62.358H145.621L143.371 59.982C142.783 60.138 142.159 60.216 141.499 60.216ZM141.499 58.506C142.363 58.506 143.113 58.314 143.749 57.93C144.397 57.546 144.901 56.994 145.261 56.274C145.621 55.554 145.801 54.696 145.801 53.7C145.801 52.704 145.621 51.846 145.261 51.126C144.901 50.406 144.397 49.854 143.749 49.47C143.113 49.086 142.363 48.894 141.499 48.894C140.635 48.894 139.879 49.086 139.231 49.47C138.583 49.854 138.079 50.406 137.719 51.126C137.371 51.846 137.197 52.704 137.197 53.7C137.197 54.696 137.371 55.554 137.719 56.274C138.079 56.994 138.583 57.546 139.231 57.93C139.879 58.314 140.635 58.506 141.499 58.506ZM153.92 60.216C153.104 60.216 152.36 60.072 151.688 59.784C151.028 59.484 150.5 59.034 150.104 58.434C149.708 57.834 149.498 57.084 149.474 56.184H151.364C151.388 56.856 151.616 57.426 152.048 57.894C152.492 58.35 153.116 58.578 153.92 58.578C154.688 58.578 155.276 58.368 155.684 57.948C156.092 57.516 156.296 56.982 156.296 56.346C156.296 55.578 156.02 55.008 155.468 54.636C154.928 54.264 154.262 54.078 153.47 54.078H152.534V52.494H153.488C154.196 52.494 154.766 52.326 155.198 51.99C155.642 51.654 155.864 51.18 155.864 50.568C155.864 50.052 155.69 49.632 155.342 49.308C155.006 48.984 154.526 48.822 153.902 48.822C153.254 48.822 152.744 49.014 152.372 49.398C152 49.77 151.796 50.238 151.76 50.802H149.87C149.894 50.07 150.074 49.434 150.41 48.894C150.758 48.354 151.232 47.934 151.832 47.634C152.432 47.334 153.122 47.184 153.902 47.184C154.742 47.184 155.444 47.334 156.008 47.634C156.584 47.922 157.016 48.318 157.304 48.822C157.604 49.314 157.754 49.854 157.754 50.442C157.754 51.114 157.568 51.702 157.196 52.206C156.824 52.71 156.326 53.046 155.702 53.214C156.422 53.37 157.016 53.724 157.484 54.276C157.952 54.816 158.186 55.518 158.186 56.382C158.186 57.078 158.024 57.72 157.7 58.308C157.376 58.884 156.896 59.346 156.26 59.694C155.624 60.042 154.844 60.216 153.92 60.216ZM164.824 60V58.632C165.64 57.984 166.42 57.33 167.164 56.67C167.908 56.01 168.568 55.362 169.144 54.726C169.732 54.078 170.194 53.448 170.53 52.836C170.866 52.212 171.034 51.612 171.034 51.036C171.034 50.652 170.968 50.292 170.836 49.956C170.704 49.608 170.488 49.332 170.188 49.128C169.888 48.912 169.486 48.804 168.982 48.804C168.226 48.804 167.656 49.044 167.272 49.524C166.9 50.004 166.72 50.58 166.732 51.252H164.878C164.89 50.364 165.076 49.62 165.436 49.02C165.808 48.42 166.3 47.964 166.912 47.652C167.536 47.34 168.238 47.184 169.018 47.184C170.206 47.184 171.154 47.52 171.862 48.192C172.582 48.852 172.942 49.776 172.942 50.964C172.942 51.672 172.768 52.374 172.42 53.07C172.084 53.766 171.64 54.438 171.088 55.086C170.548 55.722 169.966 56.322 169.342 56.886C168.718 57.45 168.124 57.96 167.56 58.416H173.32V60H164.824ZM180.276 60.216C179.136 60.216 178.152 59.946 177.324 59.406C176.508 58.854 175.878 58.092 175.434 57.12C175.002 56.136 174.786 54.996 174.786 53.7C174.786 52.404 175.002 51.27 175.434 50.298C175.878 49.314 176.508 48.552 177.324 48.012C178.152 47.46 179.136 47.184 180.276 47.184C181.416 47.184 182.394 47.46 183.21 48.012C184.026 48.552 184.65 49.314 185.082 50.298C185.526 51.27 185.748 52.404 185.748 53.7C185.748 54.996 185.526 56.136 185.082 57.12C184.65 58.092 184.026 58.854 183.21 59.406C182.394 59.946 181.416 60.216 180.276 60.216ZM180.276 58.506C180.96 58.506 181.566 58.314 182.094 57.93C182.634 57.546 183.054 56.994 183.354 56.274C183.654 55.554 183.804 54.696 183.804 53.7C183.804 52.704 183.654 51.846 183.354 51.126C183.054 50.406 182.634 49.854 182.094 49.47C181.566 49.086 180.96 48.894 180.276 48.894C179.58 48.894 178.968 49.086 178.44 49.47C177.912 49.854 177.498 50.406 177.198 51.126C176.898 51.846 176.748 52.704 176.748 53.7C176.748 54.696 176.898 55.554 177.198 56.274C177.498 56.994 177.912 57.546 178.44 57.93C178.968 58.314 179.58 58.506 180.276 58.506ZM187.482 60V58.632C188.298 57.984 189.078 57.33 189.822 56.67C190.566 56.01 191.226 55.362 191.802 54.726C192.39 54.078 192.852 53.448 193.188 52.836C193.524 52.212 193.692 51.612 193.692 51.036C193.692 50.652 193.626 50.292 193.494 49.956C193.362 49.608 193.146 49.332 192.846 49.128C192.546 48.912 192.144 48.804 191.64 48.804C190.884 48.804 190.314 49.044 189.93 49.524C189.558 50.004 189.378 50.58 189.39 51.252H187.536C187.548 50.364 187.734 49.62 188.094 49.02C188.466 48.42 188.958 47.964 189.57 47.652C190.194 47.34 190.896 47.184 191.676 47.184C192.864 47.184 193.812 47.52 194.52 48.192C195.24 48.852 195.6 49.776 195.6 50.964C195.6 51.672 195.426 52.374 195.078 53.07C194.742 53.766 194.298 54.438 193.746 55.086C193.206 55.722 192.624 56.322 192 56.886C191.376 57.45 190.782 57.96 190.218 58.416H195.978V60H187.482ZM199.331 60V49.56L197.297 50.028V48.624L200.087 47.4H201.311V60H199.331Z" fill="#737373"/>
<path d="M79.8904 7.864L79.8904 25L83.6584 25L83.6584 7.864L79.8904 7.864ZM86.6085 12.592L86.6085 25L90.0165 25L90.0165 18.496C90.0165 17.232 90.2245 16.328 90.6405 15.784C91.0565 15.224 91.7285 14.944 92.6565 14.944C93.4725 14.944 94.0405 15.2 94.3605 15.712C94.6805 16.208 94.8405 16.968 94.8405 17.992L94.8405 25L98.2485 25L98.2485 17.368C98.2485 16.6 98.1765 15.904 98.0325 15.28C97.9045 14.64 97.6725 14.104 97.3365 13.672C97.0005 13.224 96.5365 12.88 95.9445 12.64C95.3685 12.384 94.6245 12.256 93.7125 12.256C92.9925 12.256 92.2885 12.424 91.6005 12.76C90.9125 13.08 90.3525 13.6 89.9205 14.32L89.8485 14.32L89.8485 12.592L86.6085 12.592ZM111.643 21.832L111.643 11.032L114.331 11.032C115.259 11.032 116.035 11.168 116.659 11.44C117.299 11.696 117.811 12.072 118.195 12.568C118.579 13.064 118.851 13.664 119.011 14.368C119.187 15.056 119.275 15.832 119.275 16.696C119.275 17.64 119.155 18.44 118.915 19.096C118.675 19.752 118.355 20.288 117.955 20.704C117.555 21.104 117.099 21.392 116.587 21.568C116.075 21.744 115.547 21.832 115.003 21.832L111.643 21.832ZM107.875 7.864L107.875 25L115.267 25C116.579 25 117.715 24.784 118.675 24.352C119.651 23.904 120.459 23.296 121.099 22.528C121.755 21.76 122.243 20.848 122.563 19.792C122.883 18.736 123.043 17.584 123.043 16.336C123.043 14.912 122.843 13.672 122.443 12.616C122.059 11.56 121.515 10.68 120.811 9.976C120.123 9.272 119.299 8.744 118.339 8.392C117.395 8.04 116.371 7.864 115.267 7.864L107.875 7.864ZM133.656 17.464L128.112 17.464C128.128 17.224 128.176 16.952 128.256 16.648C128.352 16.344 128.504 16.056 128.712 15.784C128.936 15.512 129.224 15.288 129.576 15.112C129.944 14.92 130.4 14.824 130.944 14.824C131.776 14.824 132.392 15.048 132.792 15.496C133.208 15.944 133.496 16.6 133.656 17.464ZM128.112 19.624L137.064 19.624C137.128 18.664 137.048 17.744 136.824 16.864C136.6 15.984 136.232 15.2 135.72 14.512C135.224 13.824 134.584 13.28 133.8 12.88C133.016 12.464 132.096 12.256 131.04 12.256C130.096 12.256 129.232 12.424 128.448 12.76C127.68 13.096 127.016 13.56 126.456 14.152C125.896 14.728 125.464 15.416 125.16 16.216C124.856 17.016 124.704 17.88 124.704 18.808C124.704 19.768 124.848 20.648 125.136 21.448C125.44 22.248 125.864 22.936 126.408 23.512C126.952 24.088 127.616 24.536 128.4 24.856C129.184 25.16 130.064 25.312 131.04 25.312C132.448 25.312 133.648 24.992 134.64 24.352C135.632 23.712 136.368 22.648 136.848 21.16L133.848 21.16C133.736 21.544 133.432 21.912 132.936 22.264C132.44 22.6 131.848 22.768 131.16 22.768C130.2 22.768 129.464 22.52 128.952 22.024C128.44 21.528 128.16 20.728 128.112 19.624ZM145.949 25L150.149 12.592L146.765 12.592L144.149 21.064L144.101 21.064L141.485 12.592L137.909 12.592L142.157 25L145.949 25ZM159.906 17.464L154.362 17.464C154.378 17.224 154.426 16.952 154.506 16.648C154.602 16.344 154.754 16.056 154.962 15.784C155.186 15.512 155.474 15.288 155.826 15.112C156.194 14.92 156.65 14.824 157.194 14.824C158.026 14.824 158.642 15.048 159.042 15.496C159.458 15.944 159.746 16.6 159.906 17.464ZM154.362 19.624L163.314 19.624C163.378 18.664 163.298 17.744 163.074 16.864C162.85 15.984 162.482 15.2 161.97 14.512C161.474 13.824 160.834 13.28 160.05 12.88C159.266 12.464 158.346 12.256 157.29 12.256C156.346 12.256 155.482 12.424 154.698 12.76C153.93 13.096 153.266 13.56 152.706 14.152C152.146 14.728 151.714 15.416 151.41 16.216C151.106 17.016 150.954 17.88 150.954 18.808C150.954 19.768 151.098 20.648 151.386 21.448C151.69 22.248 152.114 22.936 152.658 23.512C153.202 24.088 153.866 24.536 154.65 24.856C155.434 25.16 156.314 25.312 157.29 25.312C158.698 25.312 159.898 24.992 160.89 24.352C161.882 23.712 162.618 22.648 163.098 21.16L160.098 21.16C159.986 21.544 159.682 21.912 159.186 22.264C158.69 22.6 158.098 22.768 157.41 22.768C156.45 22.768 155.714 22.52 155.202 22.024C154.69 21.528 154.41 20.728 154.362 19.624ZM165.431 7.864L165.431 25L168.839 25L168.839 7.864L165.431 7.864ZM174.547 18.808C174.547 18.312 174.595 17.824 174.691 17.344C174.787 16.864 174.947 16.44 175.171 16.072C175.411 15.704 175.723 15.408 176.107 15.184C176.491 14.944 176.971 14.824 177.547 14.824C178.123 14.824 178.603 14.944 178.987 15.184C179.387 15.408 179.699 15.704 179.923 16.072C180.163 16.44 180.331 16.864 180.427 17.344C180.523 17.824 180.571 18.312 180.571 18.808C180.571 19.304 180.523 19.792 180.427 20.272C180.331 20.736 180.163 21.16 179.923 21.544C179.699 21.912 179.387 22.208 178.987 22.432C178.603 22.656 178.123 22.768 177.547 22.768C176.971 22.768 176.491 22.656 176.107 22.432C175.723 22.208 175.411 21.912 175.171 21.544C174.947 21.16 174.787 20.736 174.691 20.272C174.595 19.792 174.547 19.304 174.547 18.808ZM171.139 18.808C171.139 19.8 171.291 20.696 171.595 21.496C171.899 22.296 172.331 22.984 172.891 23.56C173.451 24.12 174.123 24.552 174.907 24.856C175.691 25.16 176.571 25.312 177.547 25.312C178.523 25.312 179.403 25.16 180.187 24.856C180.987 24.552 181.667 24.12 182.227 23.56C182.787 22.984 183.219 22.296 183.523 21.496C183.827 20.696 183.979 19.8 183.979 18.808C183.979 17.816 183.827 16.92 183.523 16.12C183.219 15.304 182.787 14.616 182.227 14.056C181.667 13.48 180.987 13.04 180.187 12.736C179.403 12.416 178.523 12.256 177.547 12.256C176.571 12.256 175.691 12.416 174.907 12.736C174.123 13.04 173.451 13.48 172.891 14.056C172.331 14.616 171.899 15.304 171.595 16.12C171.291 16.92 171.139 17.816 171.139 18.808ZM192.458 22.768C191.914 22.768 191.45 22.656 191.066 22.432C190.682 22.208 190.37 21.92 190.13 21.568C189.906 21.2 189.738 20.776 189.626 20.296C189.53 19.816 189.482 19.328 189.482 18.832C189.482 18.32 189.53 17.824 189.626 17.344C189.722 16.864 189.882 16.44 190.106 16.072C190.346 15.704 190.65 15.408 191.018 15.184C191.402 14.944 191.874 14.824 192.434 14.824C192.978 14.824 193.434 14.944 193.802 15.184C194.186 15.408 194.498 15.712 194.738 16.096C194.978 16.464 195.146 16.888 195.242 17.368C195.354 17.848 195.41 18.336 195.41 18.832C195.41 19.328 195.362 19.816 195.266 20.296C195.17 20.776 195.002 21.2 194.762 21.568C194.538 21.92 194.234 22.208 193.85 22.432C193.482 22.656 193.018 22.768 192.458 22.768ZM186.194 12.592L186.194 29.344L189.602 29.344L189.602 23.464L189.65 23.464C190.066 24.072 190.594 24.536 191.234 24.856C191.89 25.16 192.602 25.312 193.37 25.312C194.282 25.312 195.074 25.136 195.746 24.784C196.434 24.432 197.002 23.96 197.45 23.368C197.914 22.776 198.258 22.096 198.482 21.328C198.706 20.56 198.818 19.76 198.818 18.928C198.818 18.048 198.706 17.208 198.482 16.408C198.258 15.592 197.914 14.88 197.45 14.272C196.986 13.664 196.402 13.176 195.698 12.808C194.994 12.44 194.154 12.256 193.178 12.256C192.41 12.256 191.706 12.408 191.066 12.712C190.426 13.016 189.898 13.504 189.482 14.176L189.434 14.176L189.434 12.592L186.194 12.592ZM200.962 12.592L200.962 25L204.37 25L204.37 17.8C204.37 17.192 204.458 16.704 204.634 16.336C204.81 15.952 205.018 15.664 205.258 15.472C205.514 15.264 205.77 15.128 206.026 15.064C206.298 14.984 206.514 14.944 206.674 14.944C207.218 14.944 207.626 15.04 207.898 15.232C208.186 15.408 208.386 15.648 208.498 15.952C208.626 16.256 208.698 16.592 208.714 16.96C208.73 17.312 208.738 17.672 208.738 18.04L208.738 25L212.146 25L212.146 18.088C212.146 17.704 212.17 17.328 212.218 16.96C212.282 16.576 212.394 16.24 212.554 15.952C212.73 15.648 212.962 15.408 213.25 15.232C213.554 15.04 213.946 14.944 214.426 14.944C214.906 14.944 215.282 15.024 215.554 15.184C215.842 15.344 216.058 15.56 216.202 15.832C216.346 16.104 216.434 16.424 216.466 16.792C216.498 17.16 216.514 17.552 216.514 17.968L216.514 25L219.922 25L219.922 16.696C219.922 15.896 219.81 15.216 219.586 14.656C219.362 14.08 219.05 13.616 218.65 13.264C218.25 12.912 217.77 12.656 217.21 12.496C216.65 12.336 216.042 12.256 215.386 12.256C214.522 12.256 213.77 12.464 213.13 12.88C212.506 13.296 212.01 13.776 211.642 14.32C211.306 13.552 210.81 13.016 210.154 12.712C209.514 12.408 208.802 12.256 208.018 12.256C207.202 12.256 206.474 12.432 205.834 12.784C205.21 13.136 204.674 13.632 204.226 14.272L204.178 14.272L204.178 12.592L200.962 12.592ZM230.968 17.464L225.424 17.464C225.44 17.224 225.488 16.952 225.568 16.648C225.664 16.344 225.816 16.056 226.024 15.784C226.248 15.512 226.536 15.288 226.888 15.112C227.256 14.92 227.712 14.824 228.256 14.824C229.088 14.824 229.704 15.048 230.104 15.496C230.52 15.944 230.808 16.6 230.968 17.464ZM225.424 19.624L234.376 19.624C234.44 18.664 234.36 17.744 234.136 16.864C233.912 15.984 233.544 15.2 233.032 14.512C232.536 13.824 231.896 13.28 231.112 12.88C230.328 12.464 229.408 12.256 228.352 12.256C227.408 12.256 226.544 12.424 225.76 12.76C224.992 13.096 224.328 13.56 223.768 14.152C223.208 14.728 222.776 15.416 222.472 16.216C222.168 17.016 222.016 17.88 222.016 18.808C222.016 19.768 222.16 20.648 222.448 21.448C222.752 22.248 223.176 22.936 223.72 23.512C224.264 24.088 224.928 24.536 225.712 24.856C226.496 25.16 227.376 25.312 228.352 25.312C229.76 25.312 230.96 24.992 231.952 24.352C232.944 23.712 233.68 22.648 234.16 21.16L231.16 21.16C231.048 21.544 230.744 21.912 230.248 22.264C229.752 22.6 229.16 22.768 228.472 22.768C227.512 22.768 226.776 22.52 226.264 22.024C225.752 21.528 225.472 20.728 225.424 19.624ZM236.398 12.592L236.398 25L239.806 25L239.806 18.496C239.806 17.232 240.014 16.328 240.43 15.784C240.846 15.224 241.518 14.944 242.446 14.944C243.262 14.944 243.83 15.2 244.15 15.712C244.47 16.208 244.63 16.968 244.63 17.992L244.63 25L248.038 25L248.038 17.368C248.038 16.6 247.966 15.904 247.822 15.28C247.694 14.64 247.462 14.104 247.126 13.672C246.79 13.224 246.326 12.88 245.734 12.64C245.158 12.384 244.414 12.256 243.502 12.256C242.782 12.256 242.078 12.424 241.39 12.76C240.702 13.08 240.142 13.6 239.71 14.32L239.638 14.32L239.638 12.592L236.398 12.592ZM254.944 12.592L254.944 8.872L251.536 8.872L251.536 12.592L249.472 12.592L249.472 14.872L251.536 14.872L251.536 22.192C251.536 22.816 251.64 23.32 251.848 23.704C252.056 24.088 252.336 24.384 252.688 24.592C253.056 24.8 253.472 24.936 253.936 25C254.416 25.08 254.92 25.12 255.448 25.12C255.784 25.12 256.128 25.112 256.48 25.096C256.832 25.08 257.152 25.048 257.44 25L257.44 22.36C257.28 22.392 257.112 22.416 256.936 22.432C256.76 22.448 256.576 22.456 256.384 22.456C255.808 22.456 255.424 22.36 255.232 22.168C255.04 21.976 254.944 21.592 254.944 21.016L254.944 14.872L257.44 14.872L257.44 12.592L254.944 12.592Z" fill="black"/>
<defs>
<clipPath id="clip0">
<rect width="31.4651" height="41" fill="white" transform="translate(101.766 110)"/>
</clipPath>
</defs>
</svg>
