<svg width="336" height="228" viewBox="0 0 336 228" fill="none" xmlns="http://www.w3.org/2000/svg">
<path d="M144.499 59.192C143.39 59.192 142.419 58.9467 141.587 58.456C140.755 57.9653 140.105 57.288 139.635 56.424C139.166 55.5493 138.931 54.5413 138.931 53.4C138.931 52.2587 139.166 51.256 139.635 50.392C140.105 49.5173 140.755 48.8347 141.587 48.344C142.419 47.8533 143.39 47.608 144.499 47.608C145.609 47.608 146.579 47.8533 147.411 48.344C148.243 48.8347 148.889 49.5173 149.347 50.392C149.817 51.256 150.051 52.2587 150.051 53.4C150.051 54.4987 149.833 55.4747 149.395 56.328C148.969 57.1813 148.371 57.8533 147.603 58.344L150.307 61.096H148.163L146.163 58.984C145.641 59.1227 145.086 59.192 144.499 59.192ZM144.499 57.672C145.267 57.672 145.934 57.5013 146.499 57.16C147.075 56.8187 147.523 56.328 147.843 55.688C148.163 55.048 148.323 54.2853 148.323 53.4C148.323 52.5147 148.163 51.752 147.843 51.112C147.523 50.472 147.075 49.9813 146.499 49.64C145.934 49.2987 145.267 49.128 144.499 49.128C143.731 49.128 143.059 49.2987 142.483 49.64C141.907 49.9813 141.459 50.472 141.139 51.112C140.83 51.752 140.675 52.5147 140.675 53.4C140.675 54.2853 140.83 55.048 141.139 55.688C141.459 56.328 141.907 56.8187 142.483 57.16C143.059 57.5013 143.731 57.672 144.499 57.672ZM155.54 59.192C154.815 59.192 154.154 59.064 153.556 58.808C152.97 58.5413 152.5 58.1413 152.148 57.608C151.796 57.0747 151.61 56.408 151.588 55.608H153.268C153.29 56.2053 153.492 56.712 153.876 57.128C154.271 57.5333 154.826 57.736 155.54 57.736C156.223 57.736 156.746 57.5493 157.108 57.176C157.471 56.792 157.652 56.3173 157.652 55.752C157.652 55.0693 157.407 54.5627 156.916 54.232C156.436 53.9013 155.844 53.736 155.14 53.736H154.308V52.328H155.156C155.786 52.328 156.292 52.1787 156.676 51.88C157.071 51.5813 157.268 51.16 157.268 50.616C157.268 50.1573 157.114 49.784 156.804 49.496C156.506 49.208 156.079 49.064 155.524 49.064C154.948 49.064 154.495 49.2347 154.164 49.576C153.834 49.9067 153.652 50.3227 153.62 50.824H151.94C151.962 50.1733 152.122 49.608 152.42 49.128C152.73 48.648 153.151 48.2747 153.684 48.008C154.218 47.7413 154.831 47.608 155.524 47.608C156.271 47.608 156.895 47.7413 157.396 48.008C157.908 48.264 158.292 48.616 158.548 49.064C158.815 49.5013 158.948 49.9813 158.948 50.504C158.948 51.1013 158.783 51.624 158.452 52.072C158.122 52.52 157.679 52.8187 157.124 52.968C157.764 53.1067 158.292 53.4213 158.708 53.912C159.124 54.392 159.332 55.016 159.332 55.784C159.332 56.4027 159.188 56.9733 158.9 57.496C158.612 58.008 158.186 58.4187 157.62 58.728C157.055 59.0373 156.362 59.192 155.54 59.192ZM165.232 59V57.784C165.958 57.208 166.651 56.6267 167.312 56.04C167.974 55.4533 168.56 54.8773 169.072 54.312C169.595 53.736 170.006 53.176 170.304 52.632C170.603 52.0773 170.752 51.544 170.752 51.032C170.752 50.6907 170.694 50.3707 170.576 50.072C170.459 49.7627 170.267 49.5173 170 49.336C169.734 49.144 169.376 49.048 168.928 49.048C168.256 49.048 167.75 49.2613 167.408 49.688C167.078 50.1147 166.918 50.6267 166.928 51.224H165.28C165.291 50.4347 165.456 49.7733 165.776 49.24C166.107 48.7067 166.544 48.3013 167.088 48.024C167.643 47.7467 168.267 47.608 168.96 47.608C170.016 47.608 170.859 47.9067 171.488 48.504C172.128 49.0907 172.448 49.912 172.448 50.968C172.448 51.5973 172.294 52.2213 171.984 52.84C171.686 53.4587 171.291 54.056 170.8 54.632C170.32 55.1973 169.803 55.7307 169.248 56.232C168.694 56.7333 168.166 57.1867 167.664 57.592H172.784V59H165.232ZM178.968 59.192C177.954 59.192 177.08 58.952 176.344 58.472C175.618 57.9813 175.058 57.304 174.664 56.44C174.28 55.5653 174.088 54.552 174.088 53.4C174.088 52.248 174.28 51.24 174.664 50.376C175.058 49.5013 175.618 48.824 176.344 48.344C177.08 47.8533 177.954 47.608 178.968 47.608C179.981 47.608 180.85 47.8533 181.576 48.344C182.301 48.824 182.856 49.5013 183.24 50.376C183.634 51.24 183.832 52.248 183.832 53.4C183.832 54.552 183.634 55.5653 183.24 56.44C182.856 57.304 182.301 57.9813 181.576 58.472C180.85 58.952 179.981 59.192 178.968 59.192ZM178.968 57.672C179.576 57.672 180.114 57.5013 180.584 57.16C181.064 56.8187 181.437 56.328 181.704 55.688C181.97 55.048 182.104 54.2853 182.104 53.4C182.104 52.5147 181.97 51.752 181.704 51.112C181.437 50.472 181.064 49.9813 180.584 49.64C180.114 49.2987 179.576 49.128 178.968 49.128C178.349 49.128 177.805 49.2987 177.336 49.64C176.866 49.9813 176.498 50.472 176.232 51.112C175.965 51.752 175.832 52.5147 175.832 53.4C175.832 54.2853 175.965 55.048 176.232 55.688C176.498 56.328 176.866 56.8187 177.336 57.16C177.805 57.5013 178.349 57.672 178.968 57.672ZM185.373 59V57.784C186.098 57.208 186.792 56.6267 187.453 56.04C188.114 55.4533 188.701 54.8773 189.213 54.312C189.736 53.736 190.146 53.176 190.445 52.632C190.744 52.0773 190.893 51.544 190.893 51.032C190.893 50.6907 190.834 50.3707 190.717 50.072C190.6 49.7627 190.408 49.5173 190.141 49.336C189.874 49.144 189.517 49.048 189.069 49.048C188.397 49.048 187.89 49.2613 187.549 49.688C187.218 50.1147 187.058 50.6267 187.069 51.224H185.421C185.432 50.4347 185.597 49.7733 185.917 49.24C186.248 48.7067 186.685 48.3013 187.229 48.024C187.784 47.7467 188.408 47.608 189.101 47.608C190.157 47.608 191 47.9067 191.629 48.504C192.269 49.0907 192.589 49.912 192.589 50.968C192.589 51.5973 192.434 52.2213 192.125 52.84C191.826 53.4587 191.432 54.056 190.941 54.632C190.461 55.1973 189.944 55.7307 189.389 56.232C188.834 56.7333 188.306 57.1867 187.805 57.592H192.925V59H185.373ZM195.905 59V49.72L194.097 50.136V48.888L196.577 47.8H197.665V59H195.905Z" fill="#737373"/>
<path d="M102.418 12.148L102.418 25L105.244 25L105.244 12.148L102.418 12.148ZM107.456 15.694L107.456 25L110.012 25L110.012 20.122C110.012 19.174 110.168 18.496 110.48 18.088C110.792 17.668 111.296 17.458 111.992 17.458C112.604 17.458 113.03 17.65 113.27 18.034C113.51 18.406 113.63 18.976 113.63 19.744L113.63 25L116.186 25L116.186 19.276C116.186 18.7 116.132 18.178 116.024 17.71C115.928 17.23 115.754 16.828 115.502 16.504C115.25 16.168 114.902 15.91 114.458 15.73C114.026 15.538 113.468 15.442 112.784 15.442C112.244 15.442 111.716 15.568 111.2 15.82C110.684 16.06 110.264 16.45 109.94 16.99L109.886 16.99L109.886 15.694L107.456 15.694ZM126.232 22.624L126.232 14.524L128.248 14.524C128.944 14.524 129.526 14.626 129.994 14.83C130.474 15.022 130.858 15.304 131.146 15.676C131.434 16.048 131.638 16.498 131.758 17.026C131.89 17.542 131.956 18.124 131.956 18.772C131.956 19.48 131.866 20.08 131.686 20.572C131.506 21.064 131.266 21.466 130.966 21.778C130.666 22.078 130.324 22.294 129.94 22.426C129.556 22.558 129.16 22.624 128.752 22.624L126.232 22.624ZM123.406 12.148L123.406 25L128.95 25C129.934 25 130.786 24.838 131.506 24.514C132.238 24.178 132.844 23.722 133.324 23.146C133.816 22.57 134.182 21.886 134.422 21.094C134.662 20.302 134.782 19.438 134.782 18.502C134.782 17.434 134.632 16.504 134.332 15.712C134.044 14.92 133.636 14.26 133.108 13.732C132.592 13.204 131.974 12.808 131.254 12.544C130.546 12.28 129.778 12.148 128.95 12.148L123.406 12.148ZM142.742 19.348L138.584 19.348C138.596 19.168 138.632 18.964 138.692 18.736C138.764 18.508 138.878 18.292 139.034 18.088C139.202 17.884 139.418 17.716 139.682 17.584C139.958 17.44 140.3 17.368 140.708 17.368C141.332 17.368 141.794 17.536 142.094 17.872C142.406 18.208 142.622 18.7 142.742 19.348ZM138.584 20.968L145.298 20.968C145.346 20.248 145.286 19.558 145.118 18.898C144.95 18.238 144.674 17.65 144.29 17.134C143.918 16.618 143.438 16.21 142.85 15.91C142.262 15.598 141.572 15.442 140.78 15.442C140.072 15.442 139.424 15.568 138.836 15.82C138.26 16.072 137.762 16.42 137.342 16.864C136.922 17.296 136.598 17.812 136.37 18.412C136.142 19.012 136.028 19.66 136.028 20.356C136.028 21.076 136.136 21.736 136.352 22.336C136.58 22.936 136.898 23.452 137.306 23.884C137.714 24.316 138.212 24.652 138.8 24.892C139.388 25.12 140.048 25.234 140.78 25.234C141.836 25.234 142.736 24.994 143.48 24.514C144.224 24.034 144.776 23.236 145.136 22.12L142.886 22.12C142.802 22.408 142.574 22.684 142.202 22.948C141.83 23.2 141.386 23.326 140.87 23.326C140.15 23.326 139.598 23.14 139.214 22.768C138.83 22.396 138.62 21.796 138.584 20.968ZM151.962 25L155.112 15.694L152.574 15.694L150.612 22.048L150.576 22.048L148.614 15.694L145.932 15.694L149.118 25L151.962 25ZM162.429 19.348L158.271 19.348C158.283 19.168 158.319 18.964 158.379 18.736C158.451 18.508 158.565 18.292 158.721 18.088C158.889 17.884 159.105 17.716 159.369 17.584C159.645 17.44 159.987 17.368 160.395 17.368C161.019 17.368 161.481 17.536 161.781 17.872C162.093 18.208 162.309 18.7 162.429 19.348ZM158.271 20.968L164.985 20.968C165.033 20.248 164.973 19.558 164.805 18.898C164.637 18.238 164.361 17.65 163.977 17.134C163.605 16.618 163.125 16.21 162.537 15.91C161.949 15.598 161.259 15.442 160.467 15.442C159.759 15.442 159.111 15.568 158.523 15.82C157.947 16.072 157.449 16.42 157.029 16.864C156.609 17.296 156.285 17.812 156.057 18.412C155.829 19.012 155.715 19.66 155.715 20.356C155.715 21.076 155.823 21.736 156.039 22.336C156.267 22.936 156.585 23.452 156.993 23.884C157.401 24.316 157.899 24.652 158.487 24.892C159.075 25.12 159.735 25.234 160.467 25.234C161.523 25.234 162.423 24.994 163.167 24.514C163.911 24.034 164.463 23.236 164.823 22.12L162.573 22.12C162.489 22.408 162.261 22.684 161.889 22.948C161.517 23.2 161.073 23.326 160.557 23.326C159.837 23.326 159.285 23.14 158.901 22.768C158.517 22.396 158.307 21.796 158.271 20.968ZM166.573 12.148L166.573 25L169.129 25L169.129 12.148L166.573 12.148ZM173.41 20.356C173.41 19.984 173.446 19.618 173.518 19.258C173.59 18.898 173.71 18.58 173.878 18.304C174.058 18.028 174.292 17.806 174.58 17.638C174.868 17.458 175.228 17.368 175.66 17.368C176.092 17.368 176.452 17.458 176.74 17.638C177.04 17.806 177.274 18.028 177.442 18.304C177.622 18.58 177.748 18.898 177.82 19.258C177.892 19.618 177.928 19.984 177.928 20.356C177.928 20.728 177.892 21.094 177.82 21.454C177.748 21.802 177.622 22.12 177.442 22.408C177.274 22.684 177.04 22.906 176.74 23.074C176.452 23.242 176.092 23.326 175.66 23.326C175.228 23.326 174.868 23.242 174.58 23.074C174.292 22.906 174.058 22.684 173.878 22.408C173.71 22.12 173.59 21.802 173.518 21.454C173.446 21.094 173.41 20.728 173.41 20.356ZM170.854 20.356C170.854 21.1 170.968 21.772 171.196 22.372C171.424 22.972 171.748 23.488 172.168 23.92C172.588 24.34 173.092 24.664 173.68 24.892C174.268 25.12 174.928 25.234 175.66 25.234C176.392 25.234 177.052 25.12 177.64 24.892C178.24 24.664 178.75 24.34 179.17 23.92C179.59 23.488 179.914 22.972 180.142 22.372C180.37 21.772 180.484 21.1 180.484 20.356C180.484 19.612 180.37 18.94 180.142 18.34C179.914 17.728 179.59 17.212 179.17 16.792C178.75 16.36 178.24 16.03 177.64 15.802C177.052 15.562 176.392 15.442 175.66 15.442C174.928 15.442 174.268 15.562 173.68 15.802C173.092 16.03 172.588 16.36 172.168 16.792C171.748 17.212 171.424 17.728 171.196 18.34C170.968 18.94 170.854 19.612 170.854 20.356ZM186.844 23.326C186.436 23.326 186.088 23.242 185.8 23.074C185.512 22.906 185.278 22.69 185.098 22.426C184.93 22.15 184.804 21.832 184.72 21.472C184.648 21.112 184.612 20.746 184.612 20.374C184.612 19.99 184.648 19.618 184.72 19.258C184.792 18.898 184.912 18.58 185.08 18.304C185.26 18.028 185.488 17.806 185.764 17.638C186.052 17.458 186.406 17.368 186.826 17.368C187.234 17.368 187.576 17.458 187.852 17.638C188.14 17.806 188.374 18.034 188.554 18.322C188.734 18.598 188.86 18.916 188.932 19.276C189.016 19.636 189.058 20.002 189.058 20.374C189.058 20.746 189.022 21.112 188.95 21.472C188.878 21.832 188.752 22.15 188.572 22.426C188.404 22.69 188.176 22.906 187.888 23.074C187.612 23.242 187.264 23.326 186.844 23.326ZM182.146 15.694L182.146 28.258L184.702 28.258L184.702 23.848L184.738 23.848C185.05 24.304 185.446 24.652 185.926 24.892C186.418 25.12 186.952 25.234 187.528 25.234C188.212 25.234 188.806 25.102 189.31 24.838C189.826 24.574 190.252 24.22 190.588 23.776C190.936 23.332 191.194 22.822 191.362 22.246C191.53 21.67 191.614 21.07 191.614 20.446C191.614 19.786 191.53 19.156 191.362 18.556C191.194 17.944 190.936 17.41 190.588 16.954C190.24 16.498 189.802 16.132 189.274 15.856C188.746 15.58 188.116 15.442 187.384 15.442C186.808 15.442 186.28 15.556 185.8 15.784C185.32 16.012 184.924 16.378 184.612 16.882L184.576 16.882L184.576 15.694L182.146 15.694ZM193.222 15.694L193.222 25L195.778 25L195.778 19.6C195.778 19.144 195.844 18.778 195.976 18.502C196.108 18.214 196.264 17.998 196.444 17.854C196.636 17.698 196.828 17.596 197.02 17.548C197.224 17.488 197.386 17.458 197.506 17.458C197.914 17.458 198.22 17.53 198.424 17.674C198.64 17.806 198.79 17.986 198.874 18.214C198.97 18.442 199.024 18.694 199.036 18.97C199.048 19.234 199.054 19.504 199.054 19.78L199.054 25L201.61 25L201.61 19.816C201.61 19.528 201.628 19.246 201.664 18.97C201.712 18.682 201.796 18.43 201.916 18.214C202.048 17.986 202.222 17.806 202.438 17.674C202.666 17.53 202.96 17.458 203.32 17.458C203.68 17.458 203.962 17.518 204.166 17.638C204.382 17.758 204.544 17.92 204.652 18.124C204.76 18.328 204.826 18.568 204.85 18.844C204.874 19.12 204.886 19.414 204.886 19.726L204.886 25L207.442 25L207.442 18.772C207.442 18.172 207.358 17.662 207.19 17.242C207.022 16.81 206.788 16.462 206.488 16.198C206.188 15.934 205.828 15.742 205.408 15.622C204.988 15.502 204.532 15.442 204.04 15.442C203.392 15.442 202.828 15.598 202.348 15.91C201.88 16.222 201.508 16.582 201.232 16.99C200.98 16.414 200.608 16.012 200.116 15.784C199.636 15.556 199.102 15.442 198.514 15.442C197.902 15.442 197.356 15.574 196.876 15.838C196.408 16.102 196.006 16.474 195.67 16.954L195.634 16.954L195.634 15.694L193.222 15.694ZM215.726 19.348L211.568 19.348C211.58 19.168 211.616 18.964 211.676 18.736C211.748 18.508 211.862 18.292 212.018 18.088C212.186 17.884 212.402 17.716 212.666 17.584C212.942 17.44 213.284 17.368 213.692 17.368C214.316 17.368 214.778 17.536 215.078 17.872C215.39 18.208 215.606 18.7 215.726 19.348ZM211.568 20.968L218.282 20.968C218.33 20.248 218.27 19.558 218.102 18.898C217.934 18.238 217.658 17.65 217.274 17.134C216.902 16.618 216.422 16.21 215.834 15.91C215.246 15.598 214.556 15.442 213.764 15.442C213.056 15.442 212.408 15.568 211.82 15.82C211.244 16.072 210.746 16.42 210.326 16.864C209.906 17.296 209.582 17.812 209.354 18.412C209.126 19.012 209.012 19.66 209.012 20.356C209.012 21.076 209.12 21.736 209.336 22.336C209.564 22.936 209.882 23.452 210.29 23.884C210.698 24.316 211.196 24.652 211.784 24.892C212.372 25.12 213.032 25.234 213.764 25.234C214.82 25.234 215.72 24.994 216.464 24.514C217.208 24.034 217.76 23.236 218.12 22.12L215.87 22.12C215.786 22.408 215.558 22.684 215.186 22.948C214.814 23.2 214.37 23.326 213.854 23.326C213.134 23.326 212.582 23.14 212.198 22.768C211.814 22.396 211.604 21.796 211.568 20.968ZM219.798 15.694L219.798 25L222.354 25L222.354 20.122C222.354 19.174 222.51 18.496 222.822 18.088C223.134 17.668 223.638 17.458 224.334 17.458C224.946 17.458 225.372 17.65 225.612 18.034C225.852 18.406 225.972 18.976 225.972 19.744L225.972 25L228.528 25L228.528 19.276C228.528 18.7 228.474 18.178 228.366 17.71C228.27 17.23 228.096 16.828 227.844 16.504C227.592 16.168 227.244 15.91 226.8 15.73C226.368 15.538 225.81 15.442 225.126 15.442C224.586 15.442 224.058 15.568 223.542 15.82C223.026 16.06 222.606 16.45 222.282 16.99L222.228 16.99L222.228 15.694L219.798 15.694ZM233.708 15.694L233.708 12.904L231.152 12.904L231.152 15.694L229.604 15.694L229.604 17.404L231.152 17.404L231.152 22.894C231.152 23.362 231.23 23.74 231.386 24.028C231.542 24.316 231.752 24.538 232.016 24.694C232.292 24.85 232.604 24.952 232.952 25C233.312 25.06 233.69 25.09 234.086 25.09C234.338 25.09 234.596 25.084 234.86 25.072C235.124 25.06 235.364 25.036 235.58 25L235.58 23.02C235.46 23.044 235.334 23.062 235.202 23.074C235.07 23.086 234.932 23.092 234.788 23.092C234.356 23.092 234.068 23.02 233.924 22.876C233.78 22.732 233.708 22.444 233.708 22.012L233.708 17.404L235.58 17.404L235.58 15.694L233.708 15.694Z" fill="black"/>
<path d="M24.278 176V163.4H32.288V164.948H26.186V168.872H31.748V170.384H26.186V174.452H32.288V176H24.278ZM38.5572 176.216C37.6932 176.216 36.9312 176.012 36.2712 175.604C35.6112 175.196 35.0952 174.638 34.7232 173.93C34.3512 173.222 34.1652 172.418 34.1652 171.518C34.1652 170.618 34.3512 169.82 34.7232 169.124C35.0952 168.416 35.6112 167.864 36.2712 167.468C36.9432 167.06 37.7112 166.856 38.5752 166.856C39.2832 166.856 39.9012 166.994 40.4292 167.27C40.9692 167.546 41.3892 167.936 41.6892 168.44V163.04H43.5972V176H41.8872L41.6892 174.614C41.4012 175.034 41.0052 175.406 40.5012 175.73C39.9972 176.054 39.3492 176.216 38.5572 176.216ZM38.8992 174.56C39.7152 174.56 40.3812 174.278 40.8972 173.714C41.4252 173.15 41.6892 172.424 41.6892 171.536C41.6892 170.636 41.4252 169.91 40.8972 169.358C40.3812 168.794 39.7152 168.512 38.8992 168.512C38.0832 168.512 37.4112 168.794 36.8832 169.358C36.3552 169.91 36.0912 170.636 36.0912 171.536C36.0912 172.124 36.2112 172.646 36.4512 173.102C36.6912 173.558 37.0212 173.918 37.4412 174.182C37.8732 174.434 38.3592 174.56 38.8992 174.56ZM49.6569 173.264C49.1889 173.264 48.7569 173.21 48.3609 173.102L47.5869 173.858C47.7189 173.942 47.8809 174.014 48.0729 174.074C48.2649 174.134 48.5349 174.188 48.8829 174.236C49.2309 174.284 49.7049 174.332 50.3049 174.38C51.4929 174.488 52.3509 174.776 52.8789 175.244C53.4069 175.7 53.6709 176.312 53.6709 177.08C53.6709 177.608 53.5269 178.106 53.2389 178.574C52.9629 179.054 52.5249 179.438 51.9249 179.726C51.3369 180.026 50.5809 180.176 49.6569 180.176C48.4089 180.176 47.3949 179.936 46.6149 179.456C45.8469 178.988 45.4629 178.274 45.4629 177.314C45.4629 176.942 45.5589 176.57 45.7509 176.198C45.9549 175.838 46.2729 175.496 46.7049 175.172C46.4529 175.064 46.2309 174.95 46.0389 174.83C45.8589 174.698 45.6969 174.566 45.5529 174.434V174.002L47.1009 172.418C46.4049 171.818 46.0569 171.032 46.0569 170.06C46.0569 169.472 46.1949 168.938 46.4709 168.458C46.7589 167.966 47.1729 167.576 47.7129 167.288C48.2529 167 48.9009 166.856 49.6569 166.856C50.1609 166.856 50.6289 166.928 51.0609 167.072H54.3909V168.332L52.8069 168.422C53.0949 168.914 53.2389 169.46 53.2389 170.06C53.2389 170.66 53.0949 171.2 52.8069 171.68C52.5309 172.16 52.1229 172.544 51.5829 172.832C51.0549 173.12 50.4129 173.264 49.6569 173.264ZM49.6569 171.77C50.2089 171.77 50.6529 171.626 50.9889 171.338C51.3369 171.038 51.5109 170.618 51.5109 170.078C51.5109 169.526 51.3369 169.106 50.9889 168.818C50.6529 168.53 50.2089 168.386 49.6569 168.386C49.0929 168.386 48.6369 168.53 48.2889 168.818C47.9529 169.106 47.7849 169.526 47.7849 170.078C47.7849 170.618 47.9529 171.038 48.2889 171.338C48.6369 171.626 49.0929 171.77 49.6569 171.77ZM47.2629 177.134C47.2629 177.65 47.4909 178.034 47.9469 178.286C48.4029 178.55 48.9729 178.682 49.6569 178.682C50.3169 178.682 50.8509 178.538 51.2589 178.25C51.6669 177.974 51.8709 177.602 51.8709 177.134C51.8709 176.786 51.7329 176.486 51.4569 176.234C51.1809 175.994 50.6589 175.844 49.8909 175.784C49.3149 175.748 48.8049 175.694 48.3609 175.622C47.9409 175.85 47.6529 176.096 47.4969 176.36C47.3409 176.624 47.2629 176.882 47.2629 177.134ZM59.9172 176.216C59.0412 176.216 58.2612 176.024 57.5772 175.64C56.9052 175.244 56.3772 174.698 55.9932 174.002C55.6092 173.306 55.4172 172.496 55.4172 171.572C55.4172 170.636 55.6032 169.814 55.9752 169.106C56.3592 168.398 56.8872 167.846 57.5592 167.45C58.2432 167.054 59.0352 166.856 59.9352 166.856C60.8112 166.856 61.5732 167.054 62.2212 167.45C62.8692 167.834 63.3732 168.35 63.7332 168.998C64.0932 169.646 64.2732 170.36 64.2732 171.14C64.2732 171.26 64.2672 171.392 64.2552 171.536C64.2552 171.668 64.2492 171.818 64.2372 171.986H57.2892C57.3492 172.85 57.6312 173.51 58.1352 173.966C58.6512 174.41 59.2452 174.632 59.9172 174.632C60.4572 174.632 60.9072 174.512 61.2672 174.272C61.6392 174.02 61.9152 173.684 62.0952 173.264H64.0032C63.7632 174.104 63.2832 174.806 62.5632 175.37C61.8552 175.934 60.9732 176.216 59.9172 176.216ZM59.9172 168.422C59.2812 168.422 58.7172 168.614 58.2252 168.998C57.7332 169.37 57.4332 169.934 57.3252 170.69H62.3652C62.3292 169.994 62.0832 169.442 61.6272 169.034C61.1712 168.626 60.6012 168.422 59.9172 168.422ZM67.6833 176L65.0553 167.072H66.9633L68.6913 173.804L70.6353 167.072H72.7593L74.7033 173.804L76.4313 167.072H78.3393L75.7113 176H73.7493L71.6973 168.98L69.6453 176H67.6833ZM82.5308 176.216C81.7748 176.216 81.1508 176.09 80.6588 175.838C80.1668 175.586 79.8008 175.256 79.5608 174.848C79.3208 174.428 79.2008 173.972 79.2008 173.48C79.2008 172.616 79.5368 171.932 80.2088 171.428C80.8808 170.924 81.8408 170.672 83.0888 170.672H85.4288V170.51C85.4288 169.814 85.2368 169.292 84.8528 168.944C84.4808 168.596 83.9948 168.422 83.3948 168.422C82.8668 168.422 82.4048 168.554 82.0088 168.818C81.6248 169.07 81.3908 169.448 81.3068 169.952H79.3988C79.4588 169.304 79.6748 168.752 80.0468 168.296C80.4308 167.828 80.9108 167.474 81.4868 167.234C82.0748 166.982 82.7168 166.856 83.4128 166.856C84.6608 166.856 85.6268 167.186 86.3108 167.846C86.9948 168.494 87.3368 169.382 87.3368 170.51V176H85.6808L85.5188 174.47C85.2668 174.962 84.9008 175.376 84.4208 175.712C83.9408 176.048 83.3108 176.216 82.5308 176.216ZM82.9088 174.668C83.4248 174.668 83.8568 174.548 84.2048 174.308C84.5648 174.056 84.8408 173.726 85.0328 173.318C85.2368 172.91 85.3628 172.46 85.4108 171.968H83.2868C82.5308 171.968 81.9908 172.1 81.6668 172.364C81.3548 172.628 81.1988 172.958 81.1988 173.354C81.1988 173.762 81.3488 174.086 81.6488 174.326C81.9608 174.554 82.3808 174.668 82.9088 174.668ZM89.5615 176V167.072H91.2715L91.4335 168.764C91.7455 168.176 92.1775 167.714 92.7295 167.378C93.2935 167.03 93.9715 166.856 94.7635 166.856V168.854H94.2415C93.7135 168.854 93.2395 168.944 92.8195 169.124C92.4115 169.292 92.0815 169.586 91.8295 170.006C91.5895 170.414 91.4695 170.984 91.4695 171.716V176H89.5615ZM100.329 176.216C99.4533 176.216 98.6733 176.024 97.9893 175.64C97.3173 175.244 96.7893 174.698 96.4053 174.002C96.0213 173.306 95.8293 172.496 95.8293 171.572C95.8293 170.636 96.0153 169.814 96.3873 169.106C96.7713 168.398 97.2993 167.846 97.9713 167.45C98.6553 167.054 99.4473 166.856 100.347 166.856C101.223 166.856 101.985 167.054 102.633 167.45C103.281 167.834 103.785 168.35 104.145 168.998C104.505 169.646 104.685 170.36 104.685 171.14C104.685 171.26 104.679 171.392 104.667 171.536C104.667 171.668 104.661 171.818 104.649 171.986H97.7013C97.7613 172.85 98.0433 173.51 98.5473 173.966C99.0633 174.41 99.6573 174.632 100.329 174.632C100.869 174.632 101.319 174.512 101.679 174.272C102.051 174.02 102.327 173.684 102.507 173.264H104.415C104.175 174.104 103.695 174.806 102.975 175.37C102.267 175.934 101.385 176.216 100.329 176.216ZM100.329 168.422C99.6933 168.422 99.1293 168.614 98.6373 168.998C98.1453 169.37 97.8453 169.934 97.7373 170.69H102.777C102.741 169.994 102.495 169.442 102.039 169.034C101.583 168.626 101.013 168.422 100.329 168.422Z" fill="#737373"/>
<path d="M42.5182 99H47.4434V130H42.5182V99Z" fill="#565656"/>
<path d="M78.4784 99H83.4036V115.692H78.4784V99Z" fill="#565656"/>
<path d="M65.3445 128.964L62.882 124.833L77.8106 116.487L80.2732 120.617L65.3445 128.964Z" fill="#565656"/>
<path d="M96.5374 128.964L99 124.833L84.0713 116.487L81.6087 120.617L96.5374 128.964Z" fill="#565656"/>
<path d="M30 108.936L32.4626 104.806L60.1873 120.306L57.7247 124.436L30 108.936Z" fill="#565656"/>
<path d="M32.4626 124.436L30 120.306L57.7247 104.806L60.1873 108.936L32.4626 124.436Z" fill="#565656"/>
<path d="M132.278 177V164.4H136.688C137.672 164.4 138.488 164.568 139.136 164.904C139.784 165.228 140.264 165.678 140.576 166.254C140.9 166.818 141.062 167.46 141.062 168.18C141.062 168.864 140.906 169.494 140.594 170.07C140.294 170.634 139.82 171.084 139.172 171.42C138.524 171.756 137.696 171.924 136.688 171.924H134.186V177H132.278ZM134.186 170.358H136.598C137.498 170.358 138.14 170.166 138.524 169.782C138.92 169.386 139.118 168.852 139.118 168.18C139.118 167.484 138.92 166.944 138.524 166.56C138.14 166.164 137.498 165.966 136.598 165.966H134.186V170.358ZM146.56 177.216C145.708 177.216 144.94 177.024 144.256 176.64C143.584 176.244 143.05 175.698 142.654 175.002C142.258 174.294 142.06 173.472 142.06 172.536C142.06 171.6 142.258 170.784 142.654 170.088C143.062 169.38 143.608 168.834 144.292 168.45C144.976 168.054 145.738 167.856 146.578 167.856C147.43 167.856 148.192 168.054 148.864 168.45C149.548 168.834 150.088 169.38 150.484 170.088C150.892 170.784 151.096 171.6 151.096 172.536C151.096 173.472 150.892 174.294 150.484 175.002C150.088 175.698 149.548 176.244 148.864 176.64C148.18 177.024 147.412 177.216 146.56 177.216ZM146.56 175.578C147.016 175.578 147.436 175.464 147.82 175.236C148.216 175.008 148.534 174.672 148.774 174.228C149.014 173.772 149.134 173.208 149.134 172.536C149.134 171.864 149.014 171.306 148.774 170.862C148.546 170.406 148.234 170.064 147.838 169.836C147.454 169.608 147.034 169.494 146.578 169.494C146.122 169.494 145.696 169.608 145.3 169.836C144.916 170.064 144.604 170.406 144.364 170.862C144.124 171.306 144.004 171.864 144.004 172.536C144.004 173.208 144.124 173.772 144.364 174.228C144.604 174.672 144.916 175.008 145.3 175.236C145.684 175.464 146.104 175.578 146.56 175.578ZM153.159 177V164.04H155.067V177H153.159ZM157.483 177V164.04H159.391V171.762L162.811 168.072H165.097L161.299 172.122L165.655 177H163.243L159.391 172.428V177H157.483ZM169.964 177.216C169.208 177.216 168.584 177.09 168.092 176.838C167.6 176.586 167.234 176.256 166.994 175.848C166.754 175.428 166.634 174.972 166.634 174.48C166.634 173.616 166.97 172.932 167.642 172.428C168.314 171.924 169.274 171.672 170.522 171.672H172.862V171.51C172.862 170.814 172.67 170.292 172.286 169.944C171.914 169.596 171.428 169.422 170.828 169.422C170.3 169.422 169.838 169.554 169.442 169.818C169.058 170.07 168.824 170.448 168.74 170.952H166.832C166.892 170.304 167.108 169.752 167.48 169.296C167.864 168.828 168.344 168.474 168.92 168.234C169.508 167.982 170.15 167.856 170.846 167.856C172.094 167.856 173.06 168.186 173.744 168.846C174.428 169.494 174.77 170.382 174.77 171.51V177H173.114L172.952 175.47C172.7 175.962 172.334 176.376 171.854 176.712C171.374 177.048 170.744 177.216 169.964 177.216ZM170.342 175.668C170.858 175.668 171.29 175.548 171.638 175.308C171.998 175.056 172.274 174.726 172.466 174.318C172.67 173.91 172.796 173.46 172.844 172.968H170.72C169.964 172.968 169.424 173.1 169.1 173.364C168.788 173.628 168.632 173.958 168.632 174.354C168.632 174.762 168.782 175.086 169.082 175.326C169.394 175.554 169.814 175.668 170.342 175.668ZM181.063 177.216C180.199 177.216 179.437 177.012 178.777 176.604C178.117 176.196 177.601 175.638 177.229 174.93C176.857 174.222 176.671 173.418 176.671 172.518C176.671 171.618 176.857 170.82 177.229 170.124C177.601 169.416 178.117 168.864 178.777 168.468C179.449 168.06 180.217 167.856 181.081 167.856C181.789 167.856 182.407 167.994 182.935 168.27C183.475 168.546 183.895 168.936 184.195 169.44V164.04H186.103V177H184.393L184.195 175.614C183.907 176.034 183.511 176.406 183.007 176.73C182.503 177.054 181.855 177.216 181.063 177.216ZM181.405 175.56C182.221 175.56 182.887 175.278 183.403 174.714C183.931 174.15 184.195 173.424 184.195 172.536C184.195 171.636 183.931 170.91 183.403 170.358C182.887 169.794 182.221 169.512 181.405 169.512C180.589 169.512 179.917 169.794 179.389 170.358C178.861 170.91 178.597 171.636 178.597 172.536C178.597 173.124 178.717 173.646 178.957 174.102C179.197 174.558 179.527 174.918 179.947 175.182C180.379 175.434 180.865 175.56 181.405 175.56ZM192.685 177.216C191.833 177.216 191.065 177.024 190.381 176.64C189.709 176.244 189.175 175.698 188.779 175.002C188.383 174.294 188.185 173.472 188.185 172.536C188.185 171.6 188.383 170.784 188.779 170.088C189.187 169.38 189.733 168.834 190.417 168.45C191.101 168.054 191.863 167.856 192.703 167.856C193.555 167.856 194.317 168.054 194.989 168.45C195.673 168.834 196.213 169.38 196.609 170.088C197.017 170.784 197.221 171.6 197.221 172.536C197.221 173.472 197.017 174.294 196.609 175.002C196.213 175.698 195.673 176.244 194.989 176.64C194.305 177.024 193.537 177.216 192.685 177.216ZM192.685 175.578C193.141 175.578 193.561 175.464 193.945 175.236C194.341 175.008 194.659 174.672 194.899 174.228C195.139 173.772 195.259 173.208 195.259 172.536C195.259 171.864 195.139 171.306 194.899 170.862C194.671 170.406 194.359 170.064 193.963 169.836C193.579 169.608 193.159 169.494 192.703 169.494C192.247 169.494 191.821 169.608 191.425 169.836C191.041 170.064 190.729 170.406 190.489 170.862C190.249 171.306 190.129 171.864 190.129 172.536C190.129 173.208 190.249 173.772 190.489 174.228C190.729 174.672 191.041 175.008 191.425 175.236C191.809 175.464 192.229 175.578 192.685 175.578ZM202.677 177C201.801 177 201.105 176.79 200.589 176.37C200.073 175.938 199.815 175.176 199.815 174.084V169.674H198.285V168.072H199.815L200.049 165.804H201.723V168.072H204.243V169.674H201.723V174.084C201.723 174.576 201.825 174.918 202.029 175.11C202.245 175.29 202.611 175.38 203.127 175.38H204.153V177H202.677Z" fill="#737373"/>
<g clip-path="url(#clip0)">
<path d="M168.171 94C164.09 94.015 160.18 95.6189 157.295 98.4619C154.409 101.305 152.781 105.157 152.766 109.177C152.765 110.854 153.04 112.519 153.577 114.109C153.771 114.63 154.158 115.058 154.662 115.306C155.165 115.554 155.745 115.602 156.283 115.442C156.806 115.247 157.233 114.862 157.477 114.366C157.722 113.871 157.765 113.302 157.598 112.776C157.14 111.54 156.937 110.226 156.999 108.911C157.063 106.788 157.752 104.729 158.982 102.986C160.212 101.242 161.931 99.8882 163.928 99.0895C165.925 98.2909 168.115 98.0816 170.231 98.4873C172.347 98.893 174.297 99.896 175.844 101.374C177.392 102.853 178.47 104.742 178.946 106.813C179.423 108.885 179.278 111.047 178.53 113.039C177.781 115.03 176.461 116.764 174.729 118.029C172.998 119.295 170.931 120.037 168.779 120.165C168.779 120.165 166.624 120.298 165.542 120.432C165.145 120.487 164.751 120.563 164.363 120.66C164.335 120.681 164.3 120.691 164.266 120.688C164.231 120.686 164.198 120.671 164.173 120.647C164.149 120.623 164.134 120.59 164.131 120.556C164.129 120.522 164.139 120.488 164.16 120.46L164.498 118.661L166.528 109.606C166.644 109.067 166.539 108.504 166.234 108.041C165.93 107.579 165.451 107.255 164.904 107.14C164.357 107.025 163.786 107.129 163.316 107.429C162.847 107.729 162.518 108.2 162.401 108.739C162.401 108.739 157.569 130.848 157.569 131.048C157.502 131.315 157.492 131.592 157.538 131.863C157.584 132.134 157.685 132.393 157.837 132.624C157.988 132.855 158.185 133.053 158.416 133.206C158.648 133.359 158.909 133.464 159.183 133.514C159.454 133.578 159.736 133.587 160.011 133.541C160.286 133.494 160.548 133.393 160.783 133.243C161.017 133.094 161.217 132.899 161.373 132.67C161.528 132.442 161.635 132.185 161.686 131.915C161.753 131.648 162.362 128.715 162.362 128.715C162.587 127.636 163.141 126.65 163.952 125.891C164.762 125.131 165.789 124.635 166.895 124.469C167.359 124.402 169.321 124.269 169.321 124.269C173.241 123.912 176.874 122.088 179.472 119.174C182.07 116.259 183.436 112.474 183.288 108.598C183.141 104.722 181.492 101.048 178.68 98.3331C175.868 95.6179 172.107 94.0672 168.171 94Z" fill="#565656"/>
<path d="M173.125 128.953C172.791 128.886 172.448 128.885 172.114 128.95C171.781 129.015 171.463 129.144 171.181 129.329C170.898 129.515 170.655 129.754 170.466 130.033C170.277 130.311 170.146 130.624 170.08 130.953C170.009 131.281 170.005 131.621 170.069 131.951C170.132 132.281 170.263 132.595 170.452 132.875C170.641 133.154 170.885 133.394 171.17 133.579C171.455 133.764 171.774 133.891 172.11 133.952C172.443 134.026 172.788 134.033 173.124 133.972C173.46 133.911 173.78 133.783 174.064 133.596C174.348 133.409 174.59 133.166 174.776 132.884C174.962 132.601 175.087 132.284 175.144 131.952C175.258 131.293 175.113 130.616 174.737 130.058C174.362 129.501 173.785 129.106 173.125 128.953Z" fill="#565656"/>
</g>
<path d="M239.278 177V164.4H241.186V169.8L246.154 164.4H248.512L243.85 169.422L248.62 177H246.298L242.482 170.88L241.186 172.284V177H239.278ZM253.275 177.216C252.195 177.216 251.343 176.88 250.719 176.208C250.107 175.536 249.801 174.534 249.801 173.202V168.072H251.709V173.004C251.709 174.732 252.417 175.596 253.833 175.596C254.541 175.596 255.123 175.344 255.579 174.84C256.035 174.336 256.263 173.616 256.263 172.68V168.072H258.171V177H256.479L256.335 175.434C256.059 175.986 255.651 176.424 255.111 176.748C254.583 177.06 253.971 177.216 253.275 177.216ZM264.163 177.216C263.035 177.216 262.105 176.94 261.373 176.388C260.641 175.836 260.221 175.104 260.113 174.192H262.039C262.135 174.6 262.363 174.954 262.723 175.254C263.083 175.542 263.557 175.686 264.145 175.686C264.721 175.686 265.141 175.566 265.405 175.326C265.669 175.086 265.801 174.81 265.801 174.498C265.801 174.042 265.615 173.736 265.243 173.58C264.883 173.412 264.379 173.262 263.731 173.13C263.227 173.022 262.723 172.878 262.219 172.698C261.727 172.518 261.313 172.266 260.977 171.942C260.653 171.606 260.491 171.156 260.491 170.592C260.491 169.812 260.791 169.164 261.391 168.648C261.991 168.12 262.831 167.856 263.911 167.856C264.907 167.856 265.711 168.096 266.323 168.576C266.947 169.056 267.313 169.734 267.421 170.61H265.585C265.525 170.226 265.345 169.926 265.045 169.71C264.757 169.494 264.367 169.386 263.875 169.386C263.395 169.386 263.023 169.488 262.759 169.692C262.495 169.884 262.363 170.136 262.363 170.448C262.363 170.76 262.543 171.006 262.903 171.186C263.275 171.366 263.761 171.528 264.361 171.672C264.961 171.804 265.513 171.96 266.017 172.14C266.533 172.308 266.947 172.56 267.259 172.896C267.571 173.232 267.727 173.724 267.727 174.372C267.739 175.188 267.421 175.866 266.773 176.406C266.137 176.946 265.267 177.216 264.163 177.216ZM272.834 177.216C272.078 177.216 271.454 177.09 270.962 176.838C270.47 176.586 270.104 176.256 269.864 175.848C269.624 175.428 269.504 174.972 269.504 174.48C269.504 173.616 269.84 172.932 270.512 172.428C271.184 171.924 272.144 171.672 273.392 171.672H275.732V171.51C275.732 170.814 275.54 170.292 275.156 169.944C274.784 169.596 274.298 169.422 273.698 169.422C273.17 169.422 272.708 169.554 272.312 169.818C271.928 170.07 271.694 170.448 271.61 170.952H269.702C269.762 170.304 269.978 169.752 270.35 169.296C270.734 168.828 271.214 168.474 271.79 168.234C272.378 167.982 273.02 167.856 273.716 167.856C274.964 167.856 275.93 168.186 276.614 168.846C277.298 169.494 277.64 170.382 277.64 171.51V177H275.984L275.822 175.47C275.57 175.962 275.204 176.376 274.724 176.712C274.244 177.048 273.614 177.216 272.834 177.216ZM273.212 175.668C273.728 175.668 274.16 175.548 274.508 175.308C274.868 175.056 275.144 174.726 275.336 174.318C275.54 173.91 275.666 173.46 275.714 172.968H273.59C272.834 172.968 272.294 173.1 271.97 173.364C271.658 173.628 271.502 173.958 271.502 174.354C271.502 174.762 271.652 175.086 271.952 175.326C272.264 175.554 272.684 175.668 273.212 175.668ZM279.864 177V168.072H281.556L281.718 169.332C282.006 168.876 282.384 168.516 282.852 168.252C283.332 167.988 283.884 167.856 284.508 167.856C285.924 167.856 286.908 168.414 287.46 169.53C287.784 169.014 288.216 168.606 288.756 168.306C289.308 168.006 289.902 167.856 290.538 167.856C291.654 167.856 292.53 168.192 293.166 168.864C293.802 169.536 294.12 170.538 294.12 171.87V177H292.212V172.068C292.212 170.34 291.552 169.476 290.232 169.476C289.56 169.476 289.008 169.728 288.576 170.232C288.156 170.736 287.946 171.456 287.946 172.392V177H286.038V172.068C286.038 170.34 285.372 169.476 284.04 169.476C283.38 169.476 282.834 169.728 282.402 170.232C281.982 170.736 281.772 171.456 281.772 172.392V177H279.864ZM299.376 177.216C298.62 177.216 297.996 177.09 297.504 176.838C297.012 176.586 296.646 176.256 296.406 175.848C296.166 175.428 296.046 174.972 296.046 174.48C296.046 173.616 296.382 172.932 297.054 172.428C297.726 171.924 298.686 171.672 299.934 171.672H302.274V171.51C302.274 170.814 302.082 170.292 301.698 169.944C301.326 169.596 300.84 169.422 300.24 169.422C299.712 169.422 299.25 169.554 298.854 169.818C298.47 170.07 298.236 170.448 298.152 170.952H296.244C296.304 170.304 296.52 169.752 296.892 169.296C297.276 168.828 297.756 168.474 298.332 168.234C298.92 167.982 299.562 167.856 300.258 167.856C301.506 167.856 302.472 168.186 303.156 168.846C303.84 169.494 304.182 170.382 304.182 171.51V177H302.526L302.364 175.47C302.112 175.962 301.746 176.376 301.266 176.712C300.786 177.048 300.156 177.216 299.376 177.216ZM299.754 175.668C300.27 175.668 300.702 175.548 301.05 175.308C301.41 175.056 301.686 174.726 301.878 174.318C302.082 173.91 302.208 173.46 302.256 172.968H300.132C299.376 172.968 298.836 173.1 298.512 173.364C298.2 173.628 298.044 173.958 298.044 174.354C298.044 174.762 298.194 175.086 298.494 175.326C298.806 175.554 299.226 175.668 299.754 175.668Z" fill="#737373"/>
<path d="M294.066 99.757C293.314 99.1183 292.417 98.246 290.782 98.028C289.249 97.8099 287.687 98.9158 286.631 99.6479C285.575 100.38 283.579 102.53 282.755 103.184C281.93 103.838 279.819 104.446 276.42 106.642C273.021 108.838 259.685 118.059 259.685 118.059L263.156 118.106L247.68 126.689H249.227L247 128.511C247 128.511 248.967 129.072 250.616 127.951V128.465C250.616 128.465 269.043 120.645 272.601 122.67L270.432 123.355C270.62 123.355 274.12 123.605 274.12 123.605C274.205 124.385 274.448 125.136 274.833 125.804C275.218 126.471 275.735 127.04 276.347 127.468C278.459 128.963 278.502 129.789 278.502 129.789C278.502 129.789 277.403 130.271 277.403 130.879C277.403 130.879 279.023 130.349 280.527 130.396C281.482 130.435 282.429 130.597 283.348 130.879C283.348 130.879 283.232 130.225 281.771 129.789C280.31 129.352 278.864 127.639 278.155 126.704C277.721 126.109 277.438 125.403 277.334 124.655C277.23 123.907 277.309 123.142 277.562 122.436C278.069 121.019 279.833 120.24 283.478 118.215C287.774 115.816 288.757 114.041 289.365 112.654C289.972 111.268 290.869 108.511 291.375 107.218C292.012 105.551 292.793 104.664 293.444 104.134C294.095 103.604 296.987 102.436 296.987 102.436C296.987 102.436 294.774 100.364 294.066 99.757Z" fill="#565656"/>
<defs>
<clipPath id="clip0">
<rect width="31.4651" height="41" fill="white" transform="translate(152.766 94)"/>
</clipPath>
</defs>
</svg>
