<svg width="336" height="210" viewBox="0 0 336 210" fill="none" xmlns="http://www.w3.org/2000/svg">
<path d="M146.64 57.192C145.531 57.192 144.56 56.9467 143.728 56.456C142.896 55.9653 142.245 55.288 141.776 54.424C141.307 53.5493 141.072 52.5413 141.072 51.4C141.072 50.2587 141.307 49.256 141.776 48.392C142.245 47.5173 142.896 46.8347 143.728 46.344C144.56 45.8533 145.531 45.608 146.64 45.608C147.749 45.608 148.72 45.8533 149.552 46.344C150.384 46.8347 151.029 47.5173 151.488 48.392C151.957 49.256 152.192 50.2587 152.192 51.4C152.192 52.4987 151.973 53.4747 151.536 54.328C151.109 55.1813 150.512 55.8533 149.744 56.344L152.448 59.096H150.304L148.304 56.984C147.781 57.1227 147.227 57.192 146.64 57.192ZM146.64 55.672C147.408 55.672 148.075 55.5013 148.64 55.16C149.216 54.8187 149.664 54.328 149.984 53.688C150.304 53.048 150.464 52.2853 150.464 51.4C150.464 50.5147 150.304 49.752 149.984 49.112C149.664 48.472 149.216 47.9813 148.64 47.64C148.075 47.2987 147.408 47.128 146.64 47.128C145.872 47.128 145.2 47.2987 144.624 47.64C144.048 47.9813 143.6 48.472 143.28 49.112C142.971 49.752 142.816 50.5147 142.816 51.4C142.816 52.2853 142.971 53.048 143.28 53.688C143.6 54.328 144.048 54.8187 144.624 55.16C145.2 55.5013 145.872 55.672 146.64 55.672ZM155.249 57V47.72L153.441 48.136V46.888L155.921 45.8H157.009V57H155.249ZM163.092 57V55.784C163.817 55.208 164.51 54.6267 165.172 54.04C165.833 53.4533 166.42 52.8773 166.932 52.312C167.454 51.736 167.865 51.176 168.164 50.632C168.462 50.0773 168.612 49.544 168.612 49.032C168.612 48.6907 168.553 48.3707 168.436 48.072C168.318 47.7627 168.126 47.5173 167.86 47.336C167.593 47.144 167.236 47.048 166.788 47.048C166.116 47.048 165.609 47.2613 165.268 47.688C164.937 48.1147 164.777 48.6267 164.788 49.224H163.14C163.15 48.4347 163.316 47.7733 163.636 47.24C163.966 46.7067 164.404 46.3013 164.948 46.024C165.502 45.7467 166.126 45.608 166.82 45.608C167.876 45.608 168.718 45.9067 169.348 46.504C169.988 47.0907 170.308 47.912 170.308 48.968C170.308 49.5973 170.153 50.2213 169.844 50.84C169.545 51.4587 169.15 52.056 168.66 52.632C168.18 53.1973 167.662 53.7307 167.108 54.232C166.553 54.7333 166.025 55.1867 165.524 55.592H170.644V57H163.092ZM176.827 57.192C175.814 57.192 174.939 56.952 174.203 56.472C173.478 55.9813 172.918 55.304 172.523 54.44C172.139 53.5653 171.947 52.552 171.947 51.4C171.947 50.248 172.139 49.24 172.523 48.376C172.918 47.5013 173.478 46.824 174.203 46.344C174.939 45.8533 175.814 45.608 176.827 45.608C177.84 45.608 178.71 45.8533 179.435 46.344C180.16 46.824 180.715 47.5013 181.099 48.376C181.494 49.24 181.691 50.248 181.691 51.4C181.691 52.552 181.494 53.5653 181.099 54.44C180.715 55.304 180.16 55.9813 179.435 56.472C178.71 56.952 177.84 57.192 176.827 57.192ZM176.827 55.672C177.435 55.672 177.974 55.5013 178.443 55.16C178.923 54.8187 179.296 54.328 179.563 53.688C179.83 53.048 179.963 52.2853 179.963 51.4C179.963 50.5147 179.83 49.752 179.563 49.112C179.296 48.472 178.923 47.9813 178.443 47.64C177.974 47.2987 177.435 47.128 176.827 47.128C176.208 47.128 175.664 47.2987 175.195 47.64C174.726 47.9813 174.358 48.472 174.091 49.112C173.824 49.752 173.691 50.5147 173.691 51.4C173.691 52.2853 173.824 53.048 174.091 53.688C174.358 54.328 174.726 54.8187 175.195 55.16C175.664 55.5013 176.208 55.672 176.827 55.672ZM183.232 57V55.784C183.958 55.208 184.651 54.6267 185.312 54.04C185.974 53.4533 186.56 52.8773 187.072 52.312C187.595 51.736 188.006 51.176 188.304 50.632C188.603 50.0773 188.752 49.544 188.752 49.032C188.752 48.6907 188.694 48.3707 188.576 48.072C188.459 47.7627 188.267 47.5173 188 47.336C187.734 47.144 187.376 47.048 186.928 47.048C186.256 47.048 185.75 47.2613 185.408 47.688C185.078 48.1147 184.918 48.6267 184.928 49.224H183.28C183.291 48.4347 183.456 47.7733 183.776 47.24C184.107 46.7067 184.544 46.3013 185.088 46.024C185.643 45.7467 186.267 45.608 186.96 45.608C188.016 45.608 188.859 45.9067 189.488 46.504C190.128 47.0907 190.448 47.912 190.448 48.968C190.448 49.5973 190.294 50.2213 189.984 50.84C189.686 51.4587 189.291 52.056 188.8 52.632C188.32 53.1973 187.803 53.7307 187.248 54.232C186.694 54.7333 186.166 55.1867 185.664 55.592H190.784V57H183.232ZM193.765 57V47.72L191.957 48.136V46.888L194.437 45.8H195.525V57H193.765Z" fill="#737373"/>
<path d="M128.976 18.032L130.65 13.316L130.686 13.316L132.306 18.032L128.976 18.032ZM129.246 10.148L124.386 23L127.23 23L128.238 20.138L133.044 20.138L134.016 23L136.95 23L132.144 10.148L129.246 10.148ZM141.028 13.694L141.028 10.904L138.472 10.904L138.472 13.694L136.924 13.694L136.924 15.404L138.472 15.404L138.472 20.894C138.472 21.362 138.55 21.74 138.706 22.028C138.862 22.316 139.072 22.538 139.336 22.694C139.612 22.85 139.924 22.952 140.272 23C140.632 23.06 141.01 23.09 141.406 23.09C141.658 23.09 141.916 23.084 142.18 23.072C142.444 23.06 142.684 23.036 142.9 23L142.9 21.02C142.78 21.044 142.654 21.062 142.522 21.074C142.39 21.086 142.252 21.092 142.108 21.092C141.676 21.092 141.388 21.02 141.244 20.876C141.1 20.732 141.028 20.444 141.028 20.012L141.028 15.404L142.9 15.404L142.9 13.694L141.028 13.694ZM149.396 10.148L149.396 23L158.486 23L158.486 20.624L152.222 20.624L152.222 10.148L149.396 10.148ZM159.688 16.556C159.724 15.956 159.874 15.458 160.138 15.062C160.402 14.666 160.738 14.348 161.146 14.108C161.554 13.868 162.01 13.7 162.514 13.604C163.03 13.496 163.546 13.442 164.062 13.442C164.53 13.442 165.004 13.478 165.484 13.55C165.964 13.61 166.402 13.736 166.798 13.928C167.194 14.12 167.518 14.39 167.77 14.738C168.022 15.074 168.148 15.524 168.148 16.088L168.148 20.93C168.148 21.35 168.172 21.752 168.22 22.136C168.268 22.52 168.352 22.808 168.472 23L165.88 23C165.832 22.856 165.79 22.712 165.754 22.568C165.73 22.412 165.712 22.256 165.7 22.1C165.292 22.52 164.812 22.814 164.26 22.982C163.708 23.15 163.144 23.234 162.568 23.234C162.124 23.234 161.71 23.18 161.326 23.072C160.942 22.964 160.606 22.796 160.318 22.568C160.03 22.34 159.802 22.052 159.634 21.704C159.478 21.356 159.4 20.942 159.4 20.462C159.4 19.934 159.49 19.502 159.67 19.166C159.862 18.818 160.102 18.542 160.39 18.338C160.69 18.134 161.026 17.984 161.398 17.888C161.782 17.78 162.166 17.696 162.55 17.636C162.934 17.576 163.312 17.528 163.684 17.492C164.056 17.456 164.386 17.402 164.674 17.33C164.962 17.258 165.19 17.156 165.358 17.024C165.526 16.88 165.604 16.676 165.592 16.412C165.592 16.136 165.544 15.92 165.448 15.764C165.364 15.596 165.244 15.47 165.088 15.386C164.944 15.29 164.77 15.23 164.566 15.206C164.374 15.17 164.164 15.152 163.936 15.152C163.432 15.152 163.036 15.26 162.748 15.476C162.46 15.692 162.292 16.052 162.244 16.556L159.688 16.556ZM165.592 18.446C165.484 18.542 165.346 18.62 165.178 18.68C165.022 18.728 164.848 18.77 164.656 18.806C164.476 18.842 164.284 18.872 164.08 18.896C163.876 18.92 163.672 18.95 163.468 18.986C163.276 19.022 163.084 19.07 162.892 19.13C162.712 19.19 162.55 19.274 162.406 19.382C162.274 19.478 162.166 19.604 162.082 19.76C161.998 19.916 161.956 20.114 161.956 20.354C161.956 20.582 161.998 20.774 162.082 20.93C162.166 21.086 162.28 21.212 162.424 21.308C162.568 21.392 162.736 21.452 162.928 21.488C163.12 21.524 163.318 21.542 163.522 21.542C164.026 21.542 164.416 21.458 164.692 21.29C164.968 21.122 165.172 20.924 165.304 20.696C165.436 20.456 165.514 20.216 165.538 19.976C165.574 19.736 165.592 19.544 165.592 19.4L165.592 18.446ZM178.862 23L178.862 13.694L176.306 13.694L176.306 18.572C176.306 19.52 176.15 20.204 175.838 20.624C175.526 21.032 175.022 21.236 174.326 21.236C173.714 21.236 173.288 21.05 173.048 20.678C172.808 20.294 172.688 19.718 172.688 18.95L172.688 13.694L170.132 13.694L170.132 19.418C170.132 19.994 170.18 20.522 170.276 21.002C170.384 21.47 170.564 21.872 170.816 22.208C171.068 22.532 171.41 22.784 171.842 22.964C172.286 23.144 172.85 23.234 173.534 23.234C174.074 23.234 174.602 23.114 175.118 22.874C175.634 22.634 176.054 22.244 176.378 21.704L176.432 21.704L176.432 23L178.862 23ZM180.802 13.694L180.802 23L183.358 23L183.358 18.122C183.358 17.174 183.514 16.496 183.826 16.088C184.138 15.668 184.642 15.458 185.338 15.458C185.95 15.458 186.376 15.65 186.616 16.034C186.856 16.406 186.976 16.976 186.976 17.744L186.976 23L189.532 23L189.532 17.276C189.532 16.7 189.478 16.178 189.37 15.71C189.274 15.23 189.1 14.828 188.848 14.504C188.596 14.168 188.248 13.91 187.804 13.73C187.372 13.538 186.814 13.442 186.13 13.442C185.59 13.442 185.062 13.568 184.546 13.82C184.03 14.06 183.61 14.45 183.286 14.99L183.232 14.99L183.232 13.694L180.802 13.694ZM197.808 16.97L200.31 16.97C200.274 16.37 200.13 15.854 199.878 15.422C199.626 14.978 199.296 14.612 198.888 14.324C198.492 14.024 198.036 13.802 197.52 13.658C197.016 13.514 196.488 13.442 195.936 13.442C195.18 13.442 194.508 13.568 193.92 13.82C193.332 14.072 192.834 14.426 192.426 14.882C192.018 15.326 191.706 15.86 191.49 16.484C191.286 17.096 191.184 17.762 191.184 18.482C191.184 19.178 191.298 19.82 191.526 20.408C191.754 20.984 192.072 21.482 192.48 21.902C192.888 22.322 193.38 22.652 193.956 22.892C194.544 23.12 195.186 23.234 195.882 23.234C197.118 23.234 198.132 22.91 198.924 22.262C199.716 21.614 200.196 20.672 200.364 19.436L197.898 19.436C197.814 20.012 197.604 20.474 197.268 20.822C196.944 21.158 196.476 21.326 195.864 21.326C195.468 21.326 195.132 21.236 194.856 21.056C194.58 20.876 194.358 20.648 194.19 20.372C194.034 20.084 193.92 19.766 193.848 19.418C193.776 19.07 193.74 18.728 193.74 18.392C193.74 18.044 193.776 17.696 193.848 17.348C193.92 16.988 194.04 16.664 194.208 16.376C194.388 16.076 194.616 15.836 194.892 15.656C195.168 15.464 195.51 15.368 195.918 15.368C197.01 15.368 197.64 15.902 197.808 16.97ZM201.808 10.148L201.808 23L204.364 23L204.364 18.122C204.364 17.174 204.52 16.496 204.832 16.088C205.144 15.668 205.648 15.458 206.344 15.458C206.956 15.458 207.382 15.65 207.622 16.034C207.862 16.406 207.982 16.976 207.982 17.744L207.982 23L210.538 23L210.538 17.276C210.538 16.7 210.484 16.178 210.376 15.71C210.28 15.23 210.106 14.828 209.854 14.504C209.602 14.168 209.254 13.91 208.81 13.73C208.378 13.538 207.82 13.442 207.136 13.442C206.656 13.442 206.164 13.568 205.66 13.82C205.156 14.06 204.742 14.45 204.418 14.99L204.364 14.99L204.364 10.148L201.808 10.148Z" fill="black"/>
<path d="M43.278 175V162.4H47.364C48.84 162.4 50.052 162.658 51 163.174C51.96 163.69 52.668 164.422 53.124 165.37C53.592 166.306 53.826 167.422 53.826 168.718C53.826 170.002 53.592 171.118 53.124 172.066C52.668 173.002 51.96 173.728 51 174.244C50.052 174.748 48.84 175 47.364 175H43.278ZM45.186 173.38H47.292C48.432 173.38 49.332 173.194 49.992 172.822C50.664 172.45 51.144 171.916 51.432 171.22C51.732 170.524 51.882 169.69 51.882 168.718C51.882 167.746 51.732 166.906 51.432 166.198C51.144 165.49 50.664 164.95 49.992 164.578C49.332 164.194 48.432 164.002 47.292 164.002H45.186V173.38ZM58.8863 175.216C58.1303 175.216 57.5063 175.09 57.0143 174.838C56.5223 174.586 56.1563 174.256 55.9163 173.848C55.6763 173.428 55.5563 172.972 55.5563 172.48C55.5563 171.616 55.8923 170.932 56.5643 170.428C57.2363 169.924 58.1963 169.672 59.4443 169.672H61.7843V169.51C61.7843 168.814 61.5923 168.292 61.2083 167.944C60.8363 167.596 60.3503 167.422 59.7503 167.422C59.2223 167.422 58.7603 167.554 58.3643 167.818C57.9803 168.07 57.7463 168.448 57.6623 168.952H55.7543C55.8143 168.304 56.0303 167.752 56.4023 167.296C56.7863 166.828 57.2663 166.474 57.8423 166.234C58.4303 165.982 59.0723 165.856 59.7683 165.856C61.0163 165.856 61.9823 166.186 62.6663 166.846C63.3503 167.494 63.6923 168.382 63.6923 169.51V175H62.0363L61.8743 173.47C61.6223 173.962 61.2563 174.376 60.7763 174.712C60.2963 175.048 59.6663 175.216 58.8863 175.216ZM59.2643 173.668C59.7803 173.668 60.2123 173.548 60.5603 173.308C60.9203 173.056 61.1963 172.726 61.3883 172.318C61.5923 171.91 61.7183 171.46 61.7663 170.968H59.6423C58.8863 170.968 58.3463 171.1 58.0223 171.364C57.7103 171.628 57.5543 171.958 57.5543 172.354C57.5543 172.762 57.7043 173.086 58.0043 173.326C58.3163 173.554 58.7363 173.668 59.2643 173.668ZM66.9969 164.38C66.6369 164.38 66.3369 164.272 66.0969 164.056C65.8689 163.828 65.7549 163.546 65.7549 163.21C65.7549 162.874 65.8689 162.598 66.0969 162.382C66.3369 162.154 66.6369 162.04 66.9969 162.04C67.3569 162.04 67.6509 162.154 67.8789 162.382C68.1189 162.598 68.2389 162.874 68.2389 163.21C68.2389 163.546 68.1189 163.828 67.8789 164.056C67.6509 164.272 67.3569 164.38 66.9969 164.38ZM66.0429 175V166.072H67.9509V175H66.0429Z" fill="#737373"/>
<path d="M39.6475 129.73V129.602C39.6475 127.937 39.6475 126.273 39.6475 124.63C39.6475 124.075 39.6475 123.498 39.6475 122.944V117.928C39.6475 117.651 39.6475 117.608 39.3076 117.608H34.6971C34.4422 117.608 34.3359 117.608 34.3359 117.267C34.3359 115.922 34.3359 114.557 34.3359 113.212H39.2651C39.5413 113.212 39.6475 113.212 39.6475 112.849C39.6475 111.505 39.6475 110.181 39.6475 108.837C39.6475 108.581 39.6475 108.517 39.3076 108.517H34.6971C34.4422 108.517 34.3359 108.517 34.3359 108.175C34.3359 106.938 34.3359 105.679 34.3359 104.419C34.3359 104.185 34.3359 104.121 34.6759 104.121C36.1844 104.121 37.7141 104.121 39.2438 104.121C39.5625 104.121 39.6475 104.121 39.6475 103.715V92.212C39.6475 91.8705 39.6475 91.7852 40.0724 91.7852H56.007C57.1544 91.8278 58.3229 91.9559 59.4491 92.1693C61.7862 92.5961 64.0383 93.4498 66.0991 94.6449C67.4589 95.4559 68.7123 96.4162 69.8385 97.5474C70.6671 98.4223 71.4318 99.3827 72.1119 100.386C72.7917 101.41 73.3441 102.499 73.7689 103.651C73.8327 103.95 74.109 104.142 74.4063 104.099C75.66 104.099 76.9347 104.099 78.2094 104.099C78.6982 104.099 78.6982 104.099 78.7195 104.569V108.069C78.7195 108.41 78.592 108.496 78.2519 108.496H75.3199C75.0226 108.496 74.9376 108.496 74.9589 108.88C75.0651 110.181 75.0651 111.483 74.9589 112.785C74.9589 113.148 74.9589 113.191 75.3624 113.191H78.7195C78.7195 113.191 78.7195 116.242 78.7195 117.096C78.7195 117.459 78.6132 117.566 78.2944 117.566C76.9559 117.566 75.6175 117.566 74.279 117.566C74.0027 117.523 73.7264 117.694 73.6627 117.971C72.7067 120.468 71.177 122.709 69.2011 124.502C68.4786 125.163 67.7562 125.803 66.9278 126.337C66.0991 126.871 65.2493 127.34 64.3781 127.746C62.7634 128.471 61.0851 129.005 59.364 129.346C57.728 129.645 56.0495 129.773 54.3925 129.752H39.6475V129.73ZM68.9886 117.63H67.905H44.3428C44.0243 117.63 43.918 117.63 43.918 118.057C43.918 120.532 43.918 122.986 43.918 125.462C43.918 125.803 43.918 125.889 44.3428 125.889H55.2211C55.7947 125.889 56.5383 125.846 57.0694 125.782C58.6842 125.547 59.9164 125.313 61.3824 124.758C61.9135 124.566 62.9971 124.075 63.0822 124.032C65.6316 122.709 67.6927 120.596 69.0099 118.035C69.0099 118.035 69.1586 117.715 68.9886 117.63ZM68.9886 103.758C68.7761 103.288 68.5211 102.84 68.2238 102.413C67.7775 101.688 67.2464 101.026 66.6515 100.429C66.3752 100.066 66.0354 99.7456 65.6741 99.4681C63.8258 97.8888 61.6587 96.779 59.3003 96.2242C58.1106 95.9467 56.8994 95.8187 55.6884 95.84C51.8853 95.84 48.0822 95.84 44.2791 95.84C43.9605 95.84 43.918 95.9681 43.918 96.2455C43.918 98.7638 43.918 101.303 43.918 103.822C43.918 104.142 43.918 104.227 44.3216 104.227H68.8399C68.8399 104.227 69.1161 104.227 69.0949 104.057C69.0949 104.057 69.0311 103.843 68.9886 103.758ZM57.0907 113.191H70.0083C70.2846 113.191 70.4121 113.191 70.4334 112.828C70.5396 111.505 70.5396 110.181 70.4334 108.858C70.4334 108.602 70.3059 108.496 70.0296 108.496H44.3216C44.003 108.496 43.918 108.602 43.918 108.901V112.7C43.918 113.191 43.918 113.191 44.4279 113.191H57.0907Z" fill="#565656"/>
<path d="M132.436 175.216C131.512 175.216 130.702 175.054 130.006 174.73C129.31 174.406 128.764 173.944 128.368 173.344C127.984 172.744 127.786 172.03 127.774 171.202H129.79C129.802 171.874 130.036 172.444 130.492 172.912C130.948 173.38 131.59 173.614 132.418 173.614C133.15 173.614 133.72 173.44 134.128 173.092C134.548 172.732 134.758 172.276 134.758 171.724C134.758 171.28 134.656 170.92 134.452 170.644C134.26 170.368 133.99 170.14 133.642 169.96C133.306 169.78 132.916 169.618 132.472 169.474C132.028 169.33 131.56 169.174 131.068 169.006C130.096 168.682 129.364 168.262 128.872 167.746C128.392 167.23 128.152 166.552 128.152 165.712C128.14 165.004 128.302 164.386 128.638 163.858C128.986 163.33 129.466 162.922 130.078 162.634C130.702 162.334 131.428 162.184 132.256 162.184C133.072 162.184 133.786 162.334 134.398 162.634C135.022 162.934 135.508 163.354 135.856 163.894C136.204 164.422 136.384 165.04 136.396 165.748H134.38C134.38 165.424 134.296 165.118 134.128 164.83C133.96 164.53 133.714 164.284 133.39 164.092C133.066 163.9 132.67 163.804 132.202 163.804C131.602 163.792 131.104 163.942 130.708 164.254C130.324 164.566 130.132 164.998 130.132 165.55C130.132 166.042 130.276 166.42 130.564 166.684C130.852 166.948 131.248 167.17 131.752 167.35C132.256 167.518 132.832 167.716 133.48 167.944C134.104 168.148 134.662 168.394 135.154 168.682C135.646 168.97 136.036 169.348 136.324 169.816C136.624 170.284 136.774 170.878 136.774 171.598C136.774 172.234 136.612 172.828 136.288 173.38C135.964 173.92 135.478 174.364 134.83 174.712C134.182 175.048 133.384 175.216 132.436 175.216ZM139.832 178.96L141.974 174.262H141.452L137.924 166.072H139.994L142.73 172.678L145.592 166.072H147.608L141.848 178.96H139.832ZM149.177 175V166.072H150.869L151.013 167.638C151.289 167.086 151.691 166.654 152.219 166.342C152.759 166.018 153.377 165.856 154.073 165.856C155.153 165.856 155.999 166.192 156.611 166.864C157.235 167.536 157.547 168.538 157.547 169.87V175H155.657V170.068C155.657 168.34 154.949 167.476 153.533 167.476C152.825 167.476 152.237 167.728 151.769 168.232C151.313 168.736 151.085 169.456 151.085 170.392V175H149.177ZM163.538 175C162.662 175 161.966 174.79 161.45 174.37C160.934 173.938 160.676 173.176 160.676 172.084V167.674H159.146V166.072H160.676L160.91 163.804H162.584V166.072H165.104V167.674H162.584V172.084C162.584 172.576 162.686 172.918 162.89 173.11C163.106 173.29 163.472 173.38 163.988 173.38H165.014V175H163.538ZM167.071 175V162.04H168.979V167.512C169.279 166.996 169.693 166.594 170.221 166.306C170.761 166.006 171.355 165.856 172.003 165.856C173.071 165.856 173.911 166.192 174.523 166.864C175.135 167.536 175.441 168.538 175.441 169.87V175H173.551V170.068C173.551 168.34 172.861 167.476 171.481 167.476C170.761 167.476 170.161 167.728 169.681 168.232C169.213 168.736 168.979 169.456 168.979 170.392V175H167.071ZM181.864 175.216C180.988 175.216 180.208 175.024 179.524 174.64C178.852 174.244 178.324 173.698 177.94 173.002C177.556 172.306 177.364 171.496 177.364 170.572C177.364 169.636 177.55 168.814 177.922 168.106C178.306 167.398 178.834 166.846 179.506 166.45C180.19 166.054 180.982 165.856 181.882 165.856C182.758 165.856 183.52 166.054 184.168 166.45C184.816 166.834 185.32 167.35 185.68 167.998C186.04 168.646 186.22 169.36 186.22 170.14C186.22 170.26 186.214 170.392 186.202 170.536C186.202 170.668 186.196 170.818 186.184 170.986H179.236C179.296 171.85 179.578 172.51 180.082 172.966C180.598 173.41 181.192 173.632 181.864 173.632C182.404 173.632 182.854 173.512 183.214 173.272C183.586 173.02 183.862 172.684 184.042 172.264H185.95C185.71 173.104 185.23 173.806 184.51 174.37C183.802 174.934 182.92 175.216 181.864 175.216ZM181.864 167.422C181.228 167.422 180.664 167.614 180.172 167.998C179.68 168.37 179.38 168.934 179.272 169.69H184.312C184.276 168.994 184.03 168.442 183.574 168.034C183.118 167.626 182.548 167.422 181.864 167.422ZM191.716 175C190.84 175 190.144 174.79 189.628 174.37C189.112 173.938 188.854 173.176 188.854 172.084V167.674H187.324V166.072H188.854L189.088 163.804H190.762V166.072H193.282V167.674H190.762V172.084C190.762 172.576 190.864 172.918 191.068 173.11C191.284 173.29 191.65 173.38 192.166 173.38H193.192V175H191.716ZM196.329 164.38C195.969 164.38 195.669 164.272 195.429 164.056C195.201 163.828 195.087 163.546 195.087 163.21C195.087 162.874 195.201 162.598 195.429 162.382C195.669 162.154 195.969 162.04 196.329 162.04C196.689 162.04 196.983 162.154 197.211 162.382C197.451 162.598 197.571 162.874 197.571 163.21C197.571 163.546 197.451 163.828 197.211 164.056C196.983 164.272 196.689 164.38 196.329 164.38ZM195.375 175V166.072H197.283V175H195.375ZM198.938 175L202.106 170.536L198.938 166.072H200.972L203.366 169.492L205.742 166.072H207.794L204.626 170.536L207.794 175H205.742L203.366 171.58L200.972 175H198.938Z" fill="#737373"/>
<g clip-path="url(#clip0)">
<path fill-rule="evenodd" clip-rule="evenodd" d="M176.42 100.009C177.1 100.511 177.239 101.465 176.732 102.139L172.663 107.257C172.156 107.931 171.194 108.07 170.514 107.567C169.835 107.064 169.695 106.11 170.202 105.436L174.271 100.318C174.778 99.6442 175.74 99.5056 176.42 100.009ZM164.449 115.528C165.11 116.055 165.215 117.013 164.684 117.669L159.861 123.47C159.33 124.126 158.364 124.23 157.702 123.704C157.041 123.177 156.936 122.219 157.467 121.563L162.29 115.762C162.821 115.107 163.787 115.002 164.449 115.528Z" fill="#565656"/>
<path fill-rule="evenodd" clip-rule="evenodd" d="M170.293 109.388C170.88 109.403 171.437 109.646 171.847 110.066C172.257 110.487 172.486 111.05 172.486 111.637C172.486 112.224 172.257 112.788 171.847 113.208C171.437 113.628 170.88 113.872 170.293 113.887H164.475C161.78 113.855 159.207 112.761 157.313 110.844C155.418 108.927 154.356 106.341 154.356 103.646C154.356 100.951 155.418 98.3641 157.313 96.447C159.207 94.5299 161.78 93.4366 164.475 93.4043H179.478C180.065 93.4193 180.622 93.6629 181.032 94.0832C181.441 94.5035 181.671 95.0671 181.671 95.654C181.671 96.2409 181.441 96.8046 181.032 97.2248C180.622 97.6451 180.065 97.8887 179.478 97.9037H164.475C162.952 97.9037 161.492 98.5087 160.415 99.5855C159.338 100.662 158.733 102.123 158.733 103.646C158.733 105.169 159.338 106.629 160.415 107.706C161.492 108.783 162.952 109.388 164.475 109.388H170.293Z" fill="#565656"/>
<path fill-rule="evenodd" clip-rule="evenodd" d="M165.703 113.885C165.117 113.87 164.559 113.627 164.149 113.207C163.74 112.786 163.51 112.223 163.51 111.636C163.51 111.049 163.74 110.485 164.149 110.065C164.559 109.645 165.117 109.401 165.703 109.386H171.521C174.216 109.418 176.79 110.512 178.684 112.429C180.578 114.346 181.64 116.932 181.64 119.627C181.64 122.322 180.578 124.909 178.684 126.826C176.79 128.743 174.216 129.836 171.521 129.869H156.517C155.93 129.854 155.373 129.61 154.963 129.19C154.553 128.77 154.324 128.206 154.324 127.619C154.324 127.032 154.553 126.468 154.963 126.048C155.373 125.628 155.93 125.384 156.517 125.369H171.521C173.044 125.369 174.504 124.764 175.581 123.687C176.658 122.611 177.263 121.15 177.263 119.627C177.263 118.104 176.658 116.644 175.581 115.567C174.504 114.49 173.044 113.885 171.521 113.885H165.703Z" fill="#565656"/>
</g>
<path d="M255.274 175.216C254.41 175.216 253.648 175.012 252.988 174.604C252.328 174.196 251.812 173.638 251.44 172.93C251.068 172.222 250.882 171.418 250.882 170.518C250.882 169.618 251.068 168.82 251.44 168.124C251.812 167.416 252.328 166.864 252.988 166.468C253.66 166.06 254.428 165.856 255.292 165.856C256 165.856 256.618 165.994 257.146 166.27C257.686 166.546 258.106 166.936 258.406 167.44V162.04H260.314V175H258.604L258.406 173.614C258.118 174.034 257.722 174.406 257.218 174.73C256.714 175.054 256.066 175.216 255.274 175.216ZM255.616 173.56C256.432 173.56 257.098 173.278 257.614 172.714C258.142 172.15 258.406 171.424 258.406 170.536C258.406 169.636 258.142 168.91 257.614 168.358C257.098 167.794 256.432 167.512 255.616 167.512C254.8 167.512 254.128 167.794 253.6 168.358C253.072 168.91 252.808 169.636 252.808 170.536C252.808 171.124 252.928 171.646 253.168 172.102C253.408 172.558 253.738 172.918 254.158 173.182C254.59 173.434 255.076 173.56 255.616 173.56ZM265.744 175V163.948H262.018V162.4H271.36V163.948H267.652V175H265.744ZM272.124 175V166.072H273.834L273.996 167.764C274.308 167.176 274.74 166.714 275.292 166.378C275.856 166.03 276.534 165.856 277.326 165.856V167.854H276.804C276.276 167.854 275.802 167.944 275.382 168.124C274.974 168.292 274.644 168.586 274.392 169.006C274.152 169.414 274.032 169.984 274.032 170.716V175H272.124ZM281.986 175.216C281.23 175.216 280.606 175.09 280.114 174.838C279.622 174.586 279.256 174.256 279.016 173.848C278.776 173.428 278.656 172.972 278.656 172.48C278.656 171.616 278.992 170.932 279.664 170.428C280.336 169.924 281.296 169.672 282.544 169.672H284.884V169.51C284.884 168.814 284.692 168.292 284.308 167.944C283.936 167.596 283.45 167.422 282.85 167.422C282.322 167.422 281.86 167.554 281.464 167.818C281.08 168.07 280.846 168.448 280.762 168.952H278.854C278.914 168.304 279.13 167.752 279.502 167.296C279.886 166.828 280.366 166.474 280.942 166.234C281.53 165.982 282.172 165.856 282.868 165.856C284.116 165.856 285.082 166.186 285.766 166.846C286.45 167.494 286.792 168.382 286.792 169.51V175H285.136L284.974 173.47C284.722 173.962 284.356 174.376 283.876 174.712C283.396 175.048 282.766 175.216 281.986 175.216ZM282.364 173.668C282.88 173.668 283.312 173.548 283.66 173.308C284.02 173.056 284.296 172.726 284.488 172.318C284.692 171.91 284.818 171.46 284.866 170.968H282.742C281.986 170.968 281.446 171.1 281.122 171.364C280.81 171.628 280.654 171.958 280.654 172.354C280.654 172.762 280.804 173.086 281.104 173.326C281.416 173.554 281.836 173.668 282.364 173.668ZM293.085 175.216C292.221 175.216 291.459 175.012 290.799 174.604C290.139 174.196 289.623 173.638 289.251 172.93C288.879 172.222 288.693 171.418 288.693 170.518C288.693 169.618 288.879 168.82 289.251 168.124C289.623 167.416 290.139 166.864 290.799 166.468C291.471 166.06 292.239 165.856 293.103 165.856C293.811 165.856 294.429 165.994 294.957 166.27C295.497 166.546 295.917 166.936 296.217 167.44V162.04H298.125V175H296.415L296.217 173.614C295.929 174.034 295.533 174.406 295.029 174.73C294.525 175.054 293.877 175.216 293.085 175.216ZM293.427 173.56C294.243 173.56 294.909 173.278 295.425 172.714C295.953 172.15 296.217 171.424 296.217 170.536C296.217 169.636 295.953 168.91 295.425 168.358C294.909 167.794 294.243 167.512 293.427 167.512C292.611 167.512 291.939 167.794 291.411 168.358C290.883 168.91 290.619 169.636 290.619 170.536C290.619 171.124 290.739 171.646 290.979 172.102C291.219 172.558 291.549 172.918 291.969 173.182C292.401 173.434 292.887 173.56 293.427 173.56ZM304.706 175.216C303.83 175.216 303.05 175.024 302.366 174.64C301.694 174.244 301.166 173.698 300.782 173.002C300.398 172.306 300.206 171.496 300.206 170.572C300.206 169.636 300.392 168.814 300.764 168.106C301.148 167.398 301.676 166.846 302.348 166.45C303.032 166.054 303.824 165.856 304.724 165.856C305.6 165.856 306.362 166.054 307.01 166.45C307.658 166.834 308.162 167.35 308.522 167.998C308.882 168.646 309.062 169.36 309.062 170.14C309.062 170.26 309.056 170.392 309.044 170.536C309.044 170.668 309.038 170.818 309.026 170.986H302.078C302.138 171.85 302.42 172.51 302.924 172.966C303.44 173.41 304.034 173.632 304.706 173.632C305.246 173.632 305.696 173.512 306.056 173.272C306.428 173.02 306.704 172.684 306.884 172.264H308.792C308.552 173.104 308.072 173.806 307.352 174.37C306.644 174.934 305.762 175.216 304.706 175.216ZM304.706 167.422C304.07 167.422 303.506 167.614 303.014 167.998C302.522 168.37 302.222 168.934 302.114 169.69H307.154C307.118 168.994 306.872 168.442 306.416 168.034C305.96 167.626 305.39 167.422 304.706 167.422Z" fill="#737373"/>
<path fill-rule="evenodd" clip-rule="evenodd" d="M275.921 102.379C277.819 103.92 279.302 105.243 280.369 106.349C276.55 106.863 273.329 108.344 270.705 110.793C268.102 113.243 266.801 116.294 266.801 119.948C266.801 123.74 267.985 126.772 270.353 129.044C272.721 131.315 275.622 132.451 279.057 132.451C282.833 132.451 286.129 131.039 288.945 128.214C291.782 125.37 293.201 122.091 293.201 118.378C293.201 116.265 292.721 114.26 291.761 112.364C290.801 110.467 289.553 108.858 288.017 107.534C286.502 106.211 283.899 104.374 280.209 102.024C279.196 101.382 278.297 100.798 277.51 100.273L277.524 100.276C277.51 100.268 277.496 100.261 277.482 100.254C276.889 99.8582 276.361 99.4958 275.896 99.1668C274.671 98.0371 273.766 96.2452 275.051 93.6758C275.876 92.0258 278.351 91.2008 280.826 92.0258H280.836C280.949 92.0856 281.06 92.1494 281.169 92.2172C282.107 92.7703 283.249 93.7381 284.593 95.1207C285.915 96.4835 287.067 97.1649 288.049 97.1649C288.731 97.1649 289.329 96.918 289.841 96.4243C290.353 95.9305 290.609 95.3083 290.609 94.5578C290.609 92.9974 289.553 91.7728 287.441 90.884C285.35 89.9952 282.897 89.5508 280.081 89.5508C277.265 89.5508 274.982 90.0544 273.233 91.0618C271.483 92.0493 270.609 93.4122 270.609 95.1503C270.609 96.3156 270.971 97.3921 271.697 98.3797C272.422 99.3475 273.83 100.681 275.921 102.379ZM272.593 119.385C272.593 112.532 275.654 108.64 281.777 107.712C285.574 111.287 287.473 115.405 287.473 120.067C287.473 123.286 286.79 125.844 285.425 127.74C284.059 129.616 282.321 130.555 280.209 130.555C278.182 130.555 276.401 129.577 274.865 127.622C273.35 125.666 272.593 122.921 272.593 119.385Z" fill="#565656"/>
<defs>
<clipPath id="clip0">
<rect width="47" height="39" fill="white" transform="translate(145 91)"/>
</clipPath>
</defs>
</svg>
