<svg width="32" height="32" viewBox="0 0 32 32" fill="none" xmlns="http://www.w3.org/2000/svg">
<path d="M16.0013 2.99609C12.8353 2.99623 9.77262 4.12291 7.36129 6.17456C4.94996 8.2262 3.34734 11.0689 2.84018 14.1941C2.33303 17.3192 2.95443 20.5229 4.5932 23.2318C6.23198 25.9407 8.78119 27.9781 11.7847 28.9794C12.4514 29.0961 12.7014 28.6961 12.7014 28.3461C12.7014 28.0294 12.6847 26.9794 12.6847 25.8628C9.33467 26.4794 8.46801 25.0461 8.20134 24.2961C7.90544 23.5667 7.43637 22.9203 6.83467 22.4128C6.36801 22.1628 5.70134 21.5461 6.81799 21.5295C7.24437 21.5757 7.65332 21.7241 8.01018 21.962C8.36704 22.1999 8.66129 22.5203 8.86801 22.8961C9.05037 23.2237 9.29558 23.5121 9.58959 23.7447C9.8836 23.9774 10.2206 24.1498 10.5814 24.252C10.9421 24.3541 11.3195 24.3841 11.6918 24.3402C12.0642 24.2963 12.4242 24.1794 12.7513 23.9961C12.809 23.3182 13.1111 22.6845 13.6013 22.2128C10.6347 21.8795 7.53467 20.7294 7.53467 15.6295C7.51594 14.3043 8.00492 13.0222 8.90134 12.0461C8.49371 10.8944 8.54141 9.63051 9.03467 8.5128C9.03467 8.5128 10.1513 8.16279 12.7013 9.87947C14.8831 9.27943 17.1863 9.27943 19.368 9.87947C21.918 8.14613 23.0347 8.5128 23.0347 8.5128C23.528 9.6305 23.5757 10.8944 23.168 12.0461C24.0671 13.0206 24.5565 14.3038 24.5347 15.6295C24.5347 20.7461 21.418 21.8795 18.4513 22.2128C18.7695 22.5353 19.0146 22.9225 19.1699 23.3481C19.3252 23.7738 19.3871 24.2278 19.3513 24.6795C19.3513 26.4628 19.3347 27.8961 19.3347 28.3461C19.3347 28.6961 19.5847 29.1128 20.2513 28.9795C23.2495 27.97 25.7914 25.9278 27.4232 23.2175C29.055 20.5072 29.6705 17.3052 29.1598 14.1831C28.6492 11.061 27.0456 8.22192 24.6353 6.17278C22.225 4.12363 19.165 2.99774 16.0013 2.99609V2.99609Z" fill="black"/>
</svg>
