<svg width="28" height="28" viewBox="0 0 28 28" fill="none" xmlns="http://www.w3.org/2000/svg">
<path d="M13.9994 0.995117C10.8334 0.995248 7.77067 2.12194 5.35934 4.17358C2.94801 6.22523 1.34539 9.06795 0.83823 12.1931C0.331073 15.3182 0.952476 18.5219 2.59125 21.2308C4.23003 23.9397 6.77923 25.9771 9.78274 26.9784C10.4494 27.0951 10.6994 26.6951 10.6994 26.3451C10.6994 26.0285 10.6827 24.9784 10.6827 23.8618C7.33272 24.4784 6.46605 23.0452 6.19939 22.2952C5.90349 21.5657 5.43442 20.9193 4.83272 20.4118C4.36605 20.1618 3.69939 19.5451 4.81604 19.5285C5.24242 19.5747 5.65137 19.7231 6.00823 19.961C6.36508 20.1989 6.65934 20.5193 6.86605 20.8951C7.04841 21.2227 7.29363 21.5111 7.58764 21.7438C7.88165 21.9764 8.21869 22.1488 8.57943 22.251C8.94017 22.3532 9.31753 22.3832 9.68989 22.3393C10.0622 22.2954 10.4223 22.1784 10.7494 21.9951C10.8071 21.3173 11.1092 20.6835 11.5994 20.2118C8.63272 19.8785 5.53272 18.7284 5.53272 13.6285C5.51398 12.3034 6.00297 11.0213 6.89939 10.0452C6.49176 8.89345 6.53946 7.62954 7.03272 6.51182C7.03272 6.51182 8.14934 6.16181 10.6994 7.87849C12.8811 7.27846 15.1843 7.27846 17.3661 7.87849C19.916 6.14516 21.0327 6.51182 21.0327 6.51182C21.526 7.62952 21.5737 8.89346 21.1661 10.0452C22.0652 11.0196 22.5546 12.3028 22.5327 13.6285C22.5327 18.7451 19.416 19.8785 16.4494 20.2118C16.7676 20.5343 17.0127 20.9216 17.1679 21.3472C17.3232 21.7728 17.3851 22.2268 17.3494 22.6785C17.3494 24.4619 17.3327 25.8951 17.3327 26.3452C17.3327 26.6952 17.5827 27.1118 18.2494 26.9785C21.2476 25.969 23.7895 23.9268 25.4213 21.2165C27.0531 18.5062 27.6686 15.3042 27.1579 12.1821C26.6472 9.05998 25.0436 6.22095 22.6333 4.1718C20.2231 2.12265 17.163 0.996764 13.9994 0.995117V0.995117Z" fill="#565656"/>
</svg>
