<svg width="665" height="580" viewBox="0 0 665 580" fill="none" xmlns="http://www.w3.org/2000/svg">
<rect width="665" height="580" rx="4" fill="#26262B"/>
<path d="M71.136 421V409.8H78.256V411.176H72.832V414.664H77.776V416.008H72.832V419.624H78.256V421H71.136ZM83.8286 421.192C83.0606 421.192 82.3833 421.011 81.7966 420.648C81.21 420.285 80.7513 419.789 80.4206 419.16C80.09 418.531 79.9246 417.816 79.9246 417.016C79.9246 416.216 80.09 415.507 80.4206 414.888C80.7513 414.259 81.21 413.768 81.7966 413.416C82.394 413.053 83.0766 412.872 83.8446 412.872C84.474 412.872 85.0233 412.995 85.4926 413.24C85.9726 413.485 86.346 413.832 86.6126 414.28V409.48H88.3086V421H86.7886L86.6126 419.768C86.3566 420.141 86.0046 420.472 85.5566 420.76C85.1086 421.048 84.5326 421.192 83.8286 421.192ZM84.1326 419.72C84.858 419.72 85.45 419.469 85.9086 418.968C86.378 418.467 86.6126 417.821 86.6126 417.032C86.6126 416.232 86.378 415.587 85.9086 415.096C85.45 414.595 84.858 414.344 84.1326 414.344C83.4073 414.344 82.81 414.595 82.3406 415.096C81.8713 415.587 81.6366 416.232 81.6366 417.032C81.6366 417.555 81.7433 418.019 81.9566 418.424C82.17 418.829 82.4633 419.149 82.8366 419.384C83.2206 419.608 83.6526 419.72 84.1326 419.72ZM93.695 418.568C93.279 418.568 92.895 418.52 92.543 418.424L91.855 419.096C91.9723 419.171 92.1163 419.235 92.287 419.288C92.4577 419.341 92.6977 419.389 93.007 419.432C93.3163 419.475 93.7377 419.517 94.271 419.56C95.327 419.656 96.0897 419.912 96.559 420.328C97.0283 420.733 97.263 421.277 97.263 421.96C97.263 422.429 97.135 422.872 96.879 423.288C96.6337 423.715 96.2443 424.056 95.711 424.312C95.1883 424.579 94.5163 424.712 93.695 424.712C92.5857 424.712 91.6843 424.499 90.991 424.072C90.3083 423.656 89.967 423.021 89.967 422.168C89.967 421.837 90.0523 421.507 90.223 421.176C90.4043 420.856 90.687 420.552 91.071 420.264C90.847 420.168 90.6497 420.067 90.479 419.96C90.319 419.843 90.175 419.725 90.047 419.608V419.224L91.423 417.816C90.8043 417.283 90.495 416.584 90.495 415.72C90.495 415.197 90.6177 414.723 90.863 414.296C91.119 413.859 91.487 413.512 91.967 413.256C92.447 413 93.023 412.872 93.695 412.872C94.143 412.872 94.559 412.936 94.943 413.064H97.903V414.184L96.495 414.264C96.751 414.701 96.879 415.187 96.879 415.72C96.879 416.253 96.751 416.733 96.495 417.16C96.2497 417.587 95.887 417.928 95.407 418.184C94.9377 418.44 94.367 418.568 93.695 418.568ZM93.695 417.24C94.1857 417.24 94.5803 417.112 94.879 416.856C95.1883 416.589 95.343 416.216 95.343 415.736C95.343 415.245 95.1883 414.872 94.879 414.616C94.5803 414.36 94.1857 414.232 93.695 414.232C93.1937 414.232 92.7883 414.36 92.479 414.616C92.1803 414.872 92.031 415.245 92.031 415.736C92.031 416.216 92.1803 416.589 92.479 416.856C92.7883 417.112 93.1937 417.24 93.695 417.24ZM91.567 422.008C91.567 422.467 91.7697 422.808 92.175 423.032C92.5803 423.267 93.087 423.384 93.695 423.384C94.2817 423.384 94.7563 423.256 95.119 423C95.4817 422.755 95.663 422.424 95.663 422.008C95.663 421.699 95.5403 421.432 95.295 421.208C95.0497 420.995 94.5857 420.861 93.903 420.808C93.391 420.776 92.9377 420.728 92.543 420.664C92.1697 420.867 91.9137 421.085 91.775 421.32C91.6363 421.555 91.567 421.784 91.567 422.008ZM102.815 421.192C102.037 421.192 101.343 421.021 100.735 420.68C100.138 420.328 99.6686 419.843 99.3273 419.224C98.9859 418.605 98.8153 417.885 98.8153 417.064C98.8153 416.232 98.9806 415.501 99.3113 414.872C99.6526 414.243 100.122 413.752 100.719 413.4C101.327 413.048 102.031 412.872 102.831 412.872C103.61 412.872 104.287 413.048 104.863 413.4C105.439 413.741 105.887 414.2 106.207 414.776C106.527 415.352 106.687 415.987 106.687 416.68C106.687 416.787 106.682 416.904 106.671 417.032C106.671 417.149 106.666 417.283 106.655 417.432H100.479C100.533 418.2 100.783 418.787 101.231 419.192C101.69 419.587 102.218 419.784 102.815 419.784C103.295 419.784 103.695 419.677 104.015 419.464C104.346 419.24 104.591 418.941 104.751 418.568H106.447C106.234 419.315 105.807 419.939 105.167 420.44C104.538 420.941 103.754 421.192 102.815 421.192ZM102.815 414.264C102.25 414.264 101.749 414.435 101.311 414.776C100.874 415.107 100.607 415.608 100.511 416.28H104.991C104.959 415.661 104.741 415.171 104.335 414.808C103.93 414.445 103.423 414.264 102.815 414.264ZM109.719 421L107.383 413.064H109.079L110.615 419.048L112.343 413.064H114.231L115.959 419.048L117.495 413.064H119.191L116.855 421H115.111L113.287 414.76L111.463 421H109.719ZM122.916 421.192C122.244 421.192 121.69 421.08 121.252 420.856C120.815 420.632 120.49 420.339 120.276 419.976C120.063 419.603 119.956 419.197 119.956 418.76C119.956 417.992 120.255 417.384 120.852 416.936C121.45 416.488 122.303 416.264 123.412 416.264H125.492V416.12C125.492 415.501 125.322 415.037 124.98 414.728C124.65 414.419 124.218 414.264 123.684 414.264C123.215 414.264 122.804 414.381 122.452 414.616C122.111 414.84 121.903 415.176 121.828 415.624H120.132C120.186 415.048 120.378 414.557 120.708 414.152C121.05 413.736 121.476 413.421 121.988 413.208C122.511 412.984 123.082 412.872 123.7 412.872C124.81 412.872 125.668 413.165 126.276 413.752C126.884 414.328 127.188 415.117 127.188 416.12V421H125.716L125.572 419.64C125.348 420.077 125.023 420.445 124.596 420.744C124.17 421.043 123.61 421.192 122.916 421.192ZM123.252 419.816C123.711 419.816 124.095 419.709 124.404 419.496C124.724 419.272 124.97 418.979 125.14 418.616C125.322 418.253 125.434 417.853 125.476 417.416H123.588C122.916 417.416 122.436 417.533 122.148 417.768C121.871 418.003 121.732 418.296 121.732 418.648C121.732 419.011 121.866 419.299 122.132 419.512C122.41 419.715 122.783 419.816 123.252 419.816ZM129.166 421V413.064H130.686L130.83 414.568C131.107 414.045 131.491 413.635 131.982 413.336C132.483 413.027 133.086 412.872 133.79 412.872V414.648H133.326C132.856 414.648 132.435 414.728 132.062 414.888C131.699 415.037 131.406 415.299 131.182 415.672C130.968 416.035 130.862 416.541 130.862 417.192V421H129.166ZM138.737 421.192C137.958 421.192 137.265 421.021 136.657 420.68C136.06 420.328 135.59 419.843 135.249 419.224C134.908 418.605 134.737 417.885 134.737 417.064C134.737 416.232 134.902 415.501 135.233 414.872C135.574 414.243 136.044 413.752 136.641 413.4C137.249 413.048 137.953 412.872 138.753 412.872C139.532 412.872 140.209 413.048 140.785 413.4C141.361 413.741 141.809 414.2 142.129 414.776C142.449 415.352 142.609 415.987 142.609 416.68C142.609 416.787 142.604 416.904 142.593 417.032C142.593 417.149 142.588 417.283 142.577 417.432H136.401C136.454 418.2 136.705 418.787 137.153 419.192C137.612 419.587 138.14 419.784 138.737 419.784C139.217 419.784 139.617 419.677 139.937 419.464C140.268 419.24 140.513 418.941 140.673 418.568H142.369C142.156 419.315 141.729 419.939 141.089 420.44C140.46 420.941 139.676 421.192 138.737 421.192ZM138.737 414.264C138.172 414.264 137.67 414.435 137.233 414.776C136.796 415.107 136.529 415.608 136.433 416.28H140.913C140.881 415.661 140.662 415.171 140.257 414.808C139.852 414.445 139.345 414.264 138.737 414.264Z" fill="white"/>
<path opacity="0.5" d="M76.334 444.168C75.3727 444.168 74.542 443.958 73.842 443.538C73.1513 443.109 72.6147 442.516 72.232 441.76C71.8493 440.995 71.658 440.108 71.658 439.1C71.658 438.101 71.8493 437.224 72.232 436.468C72.6147 435.703 73.1513 435.105 73.842 434.676C74.542 434.247 75.3727 434.032 76.334 434.032C77.454 434.032 78.364 434.303 79.064 434.844C79.7733 435.376 80.226 436.123 80.422 437.084H79.12C78.9707 436.477 78.6627 435.992 78.196 435.628C77.7387 435.255 77.118 435.068 76.334 435.068C75.634 435.068 75.0227 435.231 74.5 435.558C73.9773 435.875 73.5713 436.337 73.282 436.944C73.002 437.541 72.862 438.26 72.862 439.1C72.862 439.94 73.002 440.663 73.282 441.27C73.5713 441.867 73.9773 442.329 74.5 442.656C75.0227 442.973 75.634 443.132 76.334 443.132C77.118 443.132 77.7387 442.955 78.196 442.6C78.6627 442.236 78.9707 441.755 79.12 441.158H80.422C80.226 442.101 79.7733 442.838 79.064 443.37C78.364 443.902 77.454 444.168 76.334 444.168ZM82.0422 444V437.056H83.1062L83.2042 438.386C83.4188 437.929 83.7455 437.565 84.1842 437.294C84.6228 437.023 85.1642 436.888 85.8082 436.888V438.12H85.4862C85.0755 438.12 84.6975 438.195 84.3522 438.344C84.0068 438.484 83.7315 438.727 83.5262 439.072C83.3208 439.417 83.2182 439.893 83.2182 440.5V444H82.0422ZM89.9903 444.168C89.3277 444.168 88.7397 444.019 88.2263 443.72C87.713 443.412 87.307 442.987 87.0083 442.446C86.719 441.905 86.5743 441.265 86.5743 440.528C86.5743 439.8 86.719 439.165 87.0083 438.624C87.2977 438.073 87.699 437.649 88.2123 437.35C88.735 437.042 89.337 436.888 90.0183 436.888C90.6903 436.888 91.269 437.042 91.7543 437.35C92.249 437.649 92.627 438.045 92.8883 438.54C93.1497 439.035 93.2803 439.567 93.2803 440.136C93.2803 440.239 93.2757 440.341 93.2663 440.444C93.2663 440.547 93.2663 440.663 93.2663 440.794H87.7363C87.7643 441.326 87.8857 441.769 88.1003 442.124C88.3243 442.469 88.5997 442.731 88.9263 442.908C89.2623 443.085 89.617 443.174 89.9903 443.174C90.4757 443.174 90.8817 443.062 91.2083 442.838C91.535 442.614 91.773 442.311 91.9223 441.928H93.0843C92.8977 442.572 92.5383 443.109 92.0063 443.538C91.4837 443.958 90.8117 444.168 89.9903 444.168ZM89.9903 437.882C89.4303 437.882 88.931 438.055 88.4923 438.4C88.063 438.736 87.8157 439.231 87.7503 439.884H92.1183C92.0903 439.259 91.8757 438.769 91.4743 438.414C91.073 438.059 90.5783 437.882 89.9903 437.882ZM97.989 444.168C97.2984 444.168 96.6917 444.009 96.169 443.692C95.6557 443.375 95.2544 442.941 94.965 442.39C94.685 441.839 94.545 441.214 94.545 440.514C94.545 439.814 94.6897 439.193 94.979 438.652C95.2684 438.101 95.6697 437.672 96.183 437.364C96.6964 437.047 97.303 436.888 98.003 436.888C98.5724 436.888 99.0764 437.005 99.515 437.238C99.9537 437.471 100.294 437.798 100.537 438.218V433.92H101.713V444H100.649L100.537 442.852C100.313 443.188 99.991 443.491 99.571 443.762C99.151 444.033 98.6237 444.168 97.989 444.168ZM98.115 443.146C98.5817 443.146 98.9924 443.039 99.347 442.824C99.711 442.6 99.991 442.292 100.187 441.9C100.392 441.508 100.495 441.051 100.495 440.528C100.495 440.005 100.392 439.548 100.187 439.156C99.991 438.764 99.711 438.461 99.347 438.246C98.9924 438.022 98.5817 437.91 98.115 437.91C97.6577 437.91 97.247 438.022 96.883 438.246C96.5284 438.461 96.2484 438.764 96.043 439.156C95.847 439.548 95.749 440.005 95.749 440.528C95.749 441.051 95.847 441.508 96.043 441.9C96.2484 442.292 96.5284 442.6 96.883 442.824C97.247 443.039 97.6577 443.146 98.115 443.146ZM104.344 435.516C104.111 435.516 103.915 435.441 103.756 435.292C103.607 435.133 103.532 434.937 103.532 434.704C103.532 434.48 103.607 434.293 103.756 434.144C103.915 433.995 104.111 433.92 104.344 433.92C104.568 433.92 104.759 433.995 104.918 434.144C105.077 434.293 105.156 434.48 105.156 434.704C105.156 434.937 105.077 435.133 104.918 435.292C104.759 435.441 104.568 435.516 104.344 435.516ZM103.756 444V437.056H104.932V444H103.756ZM109.724 444C109.089 444 108.59 443.846 108.226 443.538C107.862 443.23 107.68 442.675 107.68 441.872V438.05H106.476V437.056H107.68L107.834 435.39H108.856V437.056H110.9V438.05H108.856V441.872C108.856 442.311 108.944 442.609 109.122 442.768C109.299 442.917 109.612 442.992 110.06 442.992H110.788V444H109.724ZM116.169 444V434.2H117.345V443.062H121.909V444H116.169ZM124.168 435.516C123.935 435.516 123.739 435.441 123.58 435.292C123.431 435.133 123.356 434.937 123.356 434.704C123.356 434.48 123.431 434.293 123.58 434.144C123.739 433.995 123.935 433.92 124.168 433.92C124.392 433.92 124.584 433.995 124.742 434.144C124.901 434.293 124.98 434.48 124.98 434.704C124.98 434.937 124.901 435.133 124.742 435.292C124.584 435.441 124.392 435.516 124.168 435.516ZM123.58 444V437.056H124.756V444H123.58ZM126.804 444V437.056H127.868L127.938 438.302C128.162 437.863 128.484 437.518 128.904 437.266C129.324 437.014 129.8 436.888 130.332 436.888C131.153 436.888 131.807 437.14 132.292 437.644C132.787 438.139 133.034 438.904 133.034 439.94V444H131.858V440.066C131.858 438.619 131.261 437.896 130.066 437.896C129.469 437.896 128.969 438.115 128.568 438.554C128.176 438.983 127.98 439.599 127.98 440.402V444H126.804ZM137.938 444.168C137.275 444.168 136.687 444.019 136.174 443.72C135.66 443.412 135.254 442.987 134.956 442.446C134.666 441.905 134.522 441.265 134.522 440.528C134.522 439.8 134.666 439.165 134.956 438.624C135.245 438.073 135.646 437.649 136.16 437.35C136.682 437.042 137.284 436.888 137.966 436.888C138.638 436.888 139.216 437.042 139.702 437.35C140.196 437.649 140.574 438.045 140.836 438.54C141.097 439.035 141.228 439.567 141.228 440.136C141.228 440.239 141.223 440.341 141.214 440.444C141.214 440.547 141.214 440.663 141.214 440.794H135.684C135.712 441.326 135.833 441.769 136.048 442.124C136.272 442.469 136.547 442.731 136.874 442.908C137.21 443.085 137.564 443.174 137.938 443.174C138.423 443.174 138.829 443.062 139.156 442.838C139.482 442.614 139.72 442.311 139.87 441.928H141.032C140.845 442.572 140.486 443.109 139.954 443.538C139.431 443.958 138.759 444.168 137.938 444.168ZM137.938 437.882C137.378 437.882 136.878 438.055 136.44 438.4C136.01 438.736 135.763 439.231 135.698 439.884H140.066C140.038 439.259 139.823 438.769 139.422 438.414C139.02 438.059 138.526 437.882 137.938 437.882Z" fill="white"/>
<path d="M87.5182 351H92.4434V382H87.5182V351Z" fill="white"/>
<path d="M123.478 351H128.404V367.692H123.478V351Z" fill="white"/>
<path d="M110.345 380.964L107.882 376.833L122.811 368.487L125.273 372.617L110.345 380.964Z" fill="white"/>
<path d="M141.537 380.964L144 376.833L129.071 368.487L126.609 372.617L141.537 380.964Z" fill="white"/>
<path d="M75 360.936L77.4626 356.806L105.187 372.306L102.725 376.436L75 360.936Z" fill="white"/>
<path d="M77.4626 376.436L75 372.306L102.725 356.806L105.187 360.936L77.4626 376.436Z" fill="white"/>
<path d="M183.136 421V409.8H190.256V411.176H184.832V414.664H189.776V416.008H184.832V419.624H190.256V421H183.136ZM195.541 421C194.762 421 194.143 420.813 193.685 420.44C193.226 420.056 192.997 419.379 192.997 418.408V414.488H191.637V413.064H192.997L193.205 411.048H194.693V413.064H196.933V414.488H194.693V418.408C194.693 418.845 194.783 419.149 194.965 419.32C195.157 419.48 195.482 419.56 195.941 419.56H196.853V421H195.541ZM198.681 421V409.48H200.377V414.344C200.644 413.885 201.012 413.528 201.481 413.272C201.961 413.005 202.489 412.872 203.065 412.872C204.015 412.872 204.761 413.171 205.305 413.768C205.849 414.365 206.121 415.256 206.121 416.44V421H204.441V416.616C204.441 415.08 203.828 414.312 202.601 414.312C201.961 414.312 201.428 414.536 201.001 414.984C200.585 415.432 200.377 416.072 200.377 416.904V421H198.681ZM211.831 421.192C211.052 421.192 210.359 421.021 209.751 420.68C209.154 420.328 208.684 419.843 208.343 419.224C208.002 418.605 207.831 417.885 207.831 417.064C207.831 416.232 207.996 415.501 208.327 414.872C208.668 414.243 209.138 413.752 209.735 413.4C210.343 413.048 211.047 412.872 211.847 412.872C212.626 412.872 213.303 413.048 213.879 413.4C214.455 413.741 214.903 414.2 215.223 414.776C215.543 415.352 215.703 415.987 215.703 416.68C215.703 416.787 215.698 416.904 215.687 417.032C215.687 417.149 215.682 417.283 215.671 417.432H209.495C209.548 418.2 209.799 418.787 210.247 419.192C210.706 419.587 211.234 419.784 211.831 419.784C212.311 419.784 212.711 419.677 213.031 419.464C213.362 419.24 213.607 418.941 213.767 418.568H215.463C215.25 419.315 214.823 419.939 214.183 420.44C213.554 420.941 212.77 421.192 211.831 421.192ZM211.831 414.264C211.266 414.264 210.764 414.435 210.327 414.776C209.89 415.107 209.623 415.608 209.527 416.28H214.007C213.975 415.661 213.756 415.171 213.351 414.808C212.946 414.445 212.439 414.264 211.831 414.264ZM217.463 421V413.064H218.983L219.127 414.568C219.404 414.045 219.788 413.635 220.279 413.336C220.78 413.027 221.383 412.872 222.087 412.872V414.648H221.623C221.153 414.648 220.732 414.728 220.359 414.888C219.996 415.037 219.703 415.299 219.479 415.672C219.265 416.035 219.159 416.541 219.159 417.192V421H217.463ZM227.034 421.192C226.255 421.192 225.562 421.021 224.954 420.68C224.357 420.328 223.887 419.843 223.546 419.224C223.205 418.605 223.034 417.885 223.034 417.064C223.034 416.232 223.199 415.501 223.53 414.872C223.871 414.243 224.341 413.752 224.938 413.4C225.546 413.048 226.25 412.872 227.05 412.872C227.829 412.872 228.506 413.048 229.082 413.4C229.658 413.741 230.106 414.2 230.426 414.776C230.746 415.352 230.906 415.987 230.906 416.68C230.906 416.787 230.901 416.904 230.89 417.032C230.89 417.149 230.885 417.283 230.874 417.432H224.698C224.751 418.2 225.002 418.787 225.45 419.192C225.909 419.587 226.437 419.784 227.034 419.784C227.514 419.784 227.914 419.677 228.234 419.464C228.565 419.24 228.81 418.941 228.97 418.568H230.666C230.453 419.315 230.026 419.939 229.386 420.44C228.757 420.941 227.973 421.192 227.034 421.192ZM227.034 414.264C226.469 414.264 225.967 414.435 225.53 414.776C225.093 415.107 224.826 415.608 224.73 416.28H229.21C229.178 415.661 228.959 415.171 228.554 414.808C228.149 414.445 227.642 414.264 227.034 414.264ZM235.594 421.192C234.634 421.192 233.876 420.893 233.322 420.296C232.778 419.699 232.506 418.808 232.506 417.624V413.064H234.202V417.448C234.202 418.984 234.831 419.752 236.09 419.752C236.719 419.752 237.236 419.528 237.642 419.08C238.047 418.632 238.25 417.992 238.25 417.16V413.064H239.946V421H238.442L238.314 419.608C238.068 420.099 237.706 420.488 237.226 420.776C236.756 421.053 236.212 421.192 235.594 421.192ZM242.103 421V413.064H243.607L243.751 414.184C244.007 413.779 244.343 413.459 244.759 413.224C245.186 412.989 245.677 412.872 246.231 412.872C247.49 412.872 248.365 413.368 248.855 414.36C249.143 413.901 249.527 413.539 250.007 413.272C250.498 413.005 251.026 412.872 251.591 412.872C252.583 412.872 253.362 413.171 253.927 413.768C254.493 414.365 254.775 415.256 254.775 416.44V421H253.079V416.616C253.079 415.08 252.493 414.312 251.319 414.312C250.722 414.312 250.231 414.536 249.847 414.984C249.474 415.432 249.287 416.072 249.287 416.904V421H247.591V416.616C247.591 415.08 246.999 414.312 245.815 414.312C245.229 414.312 244.743 414.536 244.359 414.984C243.986 415.432 243.799 416.072 243.799 416.904V421H242.103Z" fill="white"/>
<path opacity="0.5" d="M188.334 444.168C187.373 444.168 186.542 443.958 185.842 443.538C185.151 443.109 184.615 442.516 184.232 441.76C183.849 440.995 183.658 440.108 183.658 439.1C183.658 438.101 183.849 437.224 184.232 436.468C184.615 435.703 185.151 435.105 185.842 434.676C186.542 434.247 187.373 434.032 188.334 434.032C189.454 434.032 190.364 434.303 191.064 434.844C191.773 435.376 192.226 436.123 192.422 437.084H191.12C190.971 436.477 190.663 435.992 190.196 435.628C189.739 435.255 189.118 435.068 188.334 435.068C187.634 435.068 187.023 435.231 186.5 435.558C185.977 435.875 185.571 436.337 185.282 436.944C185.002 437.541 184.862 438.26 184.862 439.1C184.862 439.94 185.002 440.663 185.282 441.27C185.571 441.867 185.977 442.329 186.5 442.656C187.023 442.973 187.634 443.132 188.334 443.132C189.118 443.132 189.739 442.955 190.196 442.6C190.663 442.236 190.971 441.755 191.12 441.158H192.422C192.226 442.101 191.773 442.838 191.064 443.37C190.364 443.902 189.454 444.168 188.334 444.168ZM194.042 444V437.056H195.106L195.204 438.386C195.419 437.929 195.746 437.565 196.184 437.294C196.623 437.023 197.164 436.888 197.808 436.888V438.12H197.486C197.076 438.12 196.698 438.195 196.352 438.344C196.007 438.484 195.732 438.727 195.526 439.072C195.321 439.417 195.218 439.893 195.218 440.5V444H194.042ZM201.99 444.168C201.328 444.168 200.74 444.019 200.226 443.72C199.713 443.412 199.307 442.987 199.008 442.446C198.719 441.905 198.574 441.265 198.574 440.528C198.574 439.8 198.719 439.165 199.008 438.624C199.298 438.073 199.699 437.649 200.212 437.35C200.735 437.042 201.337 436.888 202.018 436.888C202.69 436.888 203.269 437.042 203.754 437.35C204.249 437.649 204.627 438.045 204.888 438.54C205.15 439.035 205.28 439.567 205.28 440.136C205.28 440.239 205.276 440.341 205.266 440.444C205.266 440.547 205.266 440.663 205.266 440.794H199.736C199.764 441.326 199.886 441.769 200.1 442.124C200.324 442.469 200.6 442.731 200.926 442.908C201.262 443.085 201.617 443.174 201.99 443.174C202.476 443.174 202.882 443.062 203.208 442.838C203.535 442.614 203.773 442.311 203.922 441.928H205.084C204.898 442.572 204.538 443.109 204.006 443.538C203.484 443.958 202.812 444.168 201.99 444.168ZM201.99 437.882C201.43 437.882 200.931 438.055 200.492 438.4C200.063 438.736 199.816 439.231 199.75 439.884H204.118C204.09 439.259 203.876 438.769 203.474 438.414C203.073 438.059 202.578 437.882 201.99 437.882ZM209.989 444.168C209.298 444.168 208.692 444.009 208.169 443.692C207.656 443.375 207.254 442.941 206.965 442.39C206.685 441.839 206.545 441.214 206.545 440.514C206.545 439.814 206.69 439.193 206.979 438.652C207.268 438.101 207.67 437.672 208.183 437.364C208.696 437.047 209.303 436.888 210.003 436.888C210.572 436.888 211.076 437.005 211.515 437.238C211.954 437.471 212.294 437.798 212.537 438.218V433.92H213.713V444H212.649L212.537 442.852C212.313 443.188 211.991 443.491 211.571 443.762C211.151 444.033 210.624 444.168 209.989 444.168ZM210.115 443.146C210.582 443.146 210.992 443.039 211.347 442.824C211.711 442.6 211.991 442.292 212.187 441.9C212.392 441.508 212.495 441.051 212.495 440.528C212.495 440.005 212.392 439.548 212.187 439.156C211.991 438.764 211.711 438.461 211.347 438.246C210.992 438.022 210.582 437.91 210.115 437.91C209.658 437.91 209.247 438.022 208.883 438.246C208.528 438.461 208.248 438.764 208.043 439.156C207.847 439.548 207.749 440.005 207.749 440.528C207.749 441.051 207.847 441.508 208.043 441.9C208.248 442.292 208.528 442.6 208.883 442.824C209.247 443.039 209.658 443.146 210.115 443.146ZM216.344 435.516C216.111 435.516 215.915 435.441 215.756 435.292C215.607 435.133 215.532 434.937 215.532 434.704C215.532 434.48 215.607 434.293 215.756 434.144C215.915 433.995 216.111 433.92 216.344 433.92C216.568 433.92 216.759 433.995 216.918 434.144C217.077 434.293 217.156 434.48 217.156 434.704C217.156 434.937 217.077 435.133 216.918 435.292C216.759 435.441 216.568 435.516 216.344 435.516ZM215.756 444V437.056H216.932V444H215.756ZM221.724 444C221.089 444 220.59 443.846 220.226 443.538C219.862 443.23 219.68 442.675 219.68 441.872V438.05H218.476V437.056H219.68L219.834 435.39H220.856V437.056H222.9V438.05H220.856V441.872C220.856 442.311 220.944 442.609 221.122 442.768C221.299 442.917 221.612 442.992 222.06 442.992H222.788V444H221.724ZM228.169 444V434.2H229.345V443.062H233.909V444H228.169ZM236.168 435.516C235.935 435.516 235.739 435.441 235.58 435.292C235.431 435.133 235.356 434.937 235.356 434.704C235.356 434.48 235.431 434.293 235.58 434.144C235.739 433.995 235.935 433.92 236.168 433.92C236.392 433.92 236.584 433.995 236.742 434.144C236.901 434.293 236.98 434.48 236.98 434.704C236.98 434.937 236.901 435.133 236.742 435.292C236.584 435.441 236.392 435.516 236.168 435.516ZM235.58 444V437.056H236.756V444H235.58ZM238.804 444V437.056H239.868L239.938 438.302C240.162 437.863 240.484 437.518 240.904 437.266C241.324 437.014 241.8 436.888 242.332 436.888C243.153 436.888 243.807 437.14 244.292 437.644C244.787 438.139 245.034 438.904 245.034 439.94V444H243.858V440.066C243.858 438.619 243.261 437.896 242.066 437.896C241.469 437.896 240.969 438.115 240.568 438.554C240.176 438.983 239.98 439.599 239.98 440.402V444H238.804ZM249.938 444.168C249.275 444.168 248.687 444.019 248.174 443.72C247.66 443.412 247.254 442.987 246.956 442.446C246.666 441.905 246.522 441.265 246.522 440.528C246.522 439.8 246.666 439.165 246.956 438.624C247.245 438.073 247.646 437.649 248.16 437.35C248.682 437.042 249.284 436.888 249.966 436.888C250.638 436.888 251.216 437.042 251.702 437.35C252.196 437.649 252.574 438.045 252.836 438.54C253.097 439.035 253.228 439.567 253.228 440.136C253.228 440.239 253.223 440.341 253.214 440.444C253.214 440.547 253.214 440.663 253.214 440.794H247.684C247.712 441.326 247.833 441.769 248.048 442.124C248.272 442.469 248.547 442.731 248.874 442.908C249.21 443.085 249.564 443.174 249.938 443.174C250.423 443.174 250.829 443.062 251.156 442.838C251.482 442.614 251.72 442.311 251.87 441.928H253.032C252.845 442.572 252.486 443.109 251.954 443.538C251.431 443.958 250.759 444.168 249.938 444.168ZM249.938 437.882C249.378 437.882 248.878 438.055 248.44 438.4C248.01 438.736 247.763 439.231 247.698 439.884H252.066C252.038 439.259 251.823 438.769 251.422 438.414C251.02 438.059 250.526 437.882 249.938 437.882Z" fill="white"/>
<path fill-rule="evenodd" clip-rule="evenodd" d="M233.103 368.39L220.725 346.192L208.348 368.39H233.103ZM220.725 376.224L208.348 368.39H233.103L220.725 376.224ZM220.725 379.184L208.348 371.63L220.725 389.257V379.184ZM220.726 389.257L233.103 371.63L220.726 379.184V389.257Z" fill="white"/>
<path d="M303.128 421.192C302.019 421.192 301.059 420.952 300.248 420.472C299.448 419.981 298.829 419.304 298.392 418.44C297.955 417.565 297.736 416.557 297.736 415.416C297.736 414.264 297.955 413.256 298.392 412.392C298.829 411.517 299.448 410.835 300.248 410.344C301.059 409.853 302.019 409.608 303.128 409.608C304.44 409.608 305.512 409.928 306.344 410.568C307.176 411.208 307.704 412.104 307.928 413.256H306.04C305.891 412.605 305.571 412.088 305.08 411.704C304.589 411.32 303.933 411.128 303.112 411.128C301.992 411.128 301.107 411.512 300.456 412.28C299.805 413.037 299.48 414.083 299.48 415.416C299.48 416.739 299.805 417.779 300.456 418.536C301.107 419.293 301.992 419.672 303.112 419.672C303.933 419.672 304.589 419.491 305.08 419.128C305.571 418.765 305.891 418.269 306.04 417.64H307.928C307.704 418.749 307.176 419.619 306.344 420.248C305.512 420.877 304.44 421.192 303.128 421.192ZM309.728 421V409.48H311.424V414.344C311.691 413.885 312.059 413.528 312.528 413.272C313.008 413.005 313.536 412.872 314.112 412.872C315.062 412.872 315.808 413.171 316.352 413.768C316.896 414.365 317.168 415.256 317.168 416.44V421H315.488V416.616C315.488 415.08 314.875 414.312 313.648 414.312C313.008 414.312 312.475 414.536 312.048 414.984C311.632 415.432 311.424 416.072 311.424 416.904V421H309.728ZM321.854 421.192C321.182 421.192 320.627 421.08 320.19 420.856C319.752 420.632 319.427 420.339 319.214 419.976C319 419.603 318.894 419.197 318.894 418.76C318.894 417.992 319.192 417.384 319.79 416.936C320.387 416.488 321.24 416.264 322.35 416.264H324.43V416.12C324.43 415.501 324.259 415.037 323.918 414.728C323.587 414.419 323.155 414.264 322.622 414.264C322.152 414.264 321.742 414.381 321.39 414.616C321.048 414.84 320.84 415.176 320.766 415.624H319.07C319.123 415.048 319.315 414.557 319.646 414.152C319.987 413.736 320.414 413.421 320.926 413.208C321.448 412.984 322.019 412.872 322.638 412.872C323.747 412.872 324.606 413.165 325.214 413.752C325.822 414.328 326.126 415.117 326.126 416.12V421H324.654L324.51 419.64C324.286 420.077 323.96 420.445 323.534 420.744C323.107 421.043 322.547 421.192 321.854 421.192ZM322.19 419.816C322.648 419.816 323.032 419.709 323.342 419.496C323.662 419.272 323.907 418.979 324.078 418.616C324.259 418.253 324.371 417.853 324.414 417.416H322.526C321.854 417.416 321.374 417.533 321.086 417.768C320.808 418.003 320.67 418.296 320.67 418.648C320.67 419.011 320.803 419.299 321.07 419.512C321.347 419.715 321.72 419.816 322.19 419.816ZM329.063 411.56C328.743 411.56 328.477 411.464 328.263 411.272C328.061 411.069 327.959 410.819 327.959 410.52C327.959 410.221 328.061 409.976 328.263 409.784C328.477 409.581 328.743 409.48 329.063 409.48C329.383 409.48 329.645 409.581 329.847 409.784C330.061 409.976 330.167 410.221 330.167 410.52C330.167 410.819 330.061 411.069 329.847 411.272C329.645 411.464 329.383 411.56 329.063 411.56ZM328.215 421V413.064H329.911V421H328.215ZM332.15 421V413.064H333.654L333.782 414.456C334.027 413.965 334.385 413.581 334.854 413.304C335.334 413.016 335.883 412.872 336.502 412.872C337.462 412.872 338.214 413.171 338.758 413.768C339.313 414.365 339.59 415.256 339.59 416.44V421H337.91V416.616C337.91 415.08 337.281 414.312 336.022 414.312C335.393 414.312 334.87 414.536 334.454 414.984C334.049 415.432 333.846 416.072 333.846 416.904V421H332.15ZM341.588 421V409.48H343.284V421H341.588ZM346.391 411.56C346.071 411.56 345.805 411.464 345.591 411.272C345.389 411.069 345.287 410.819 345.287 410.52C345.287 410.221 345.389 409.976 345.591 409.784C345.805 409.581 346.071 409.48 346.391 409.48C346.711 409.48 346.973 409.581 347.175 409.784C347.389 409.976 347.495 410.221 347.495 410.52C347.495 410.819 347.389 411.069 347.175 411.272C346.973 411.464 346.711 411.56 346.391 411.56ZM345.543 421V413.064H347.239V421H345.543ZM349.478 421V413.064H350.982L351.11 414.456C351.356 413.965 351.713 413.581 352.182 413.304C352.662 413.016 353.212 412.872 353.83 412.872C354.79 412.872 355.542 413.171 356.086 413.768C356.641 414.365 356.918 415.256 356.918 416.44V421H355.238V416.616C355.238 415.08 354.609 414.312 353.35 414.312C352.721 414.312 352.198 414.536 351.782 414.984C351.377 415.432 351.174 416.072 351.174 416.904V421H349.478ZM358.916 421V409.48H360.612V416.344L363.652 413.064H365.684L362.308 416.664L366.18 421H364.036L360.612 416.936V421H358.916Z" fill="white"/>
<path opacity="0.5" d="M301.334 444.168C300.373 444.168 299.542 443.958 298.842 443.538C298.151 443.109 297.615 442.516 297.232 441.76C296.849 440.995 296.658 440.108 296.658 439.1C296.658 438.101 296.849 437.224 297.232 436.468C297.615 435.703 298.151 435.105 298.842 434.676C299.542 434.247 300.373 434.032 301.334 434.032C302.454 434.032 303.364 434.303 304.064 434.844C304.773 435.376 305.226 436.123 305.422 437.084H304.12C303.971 436.477 303.663 435.992 303.196 435.628C302.739 435.255 302.118 435.068 301.334 435.068C300.634 435.068 300.023 435.231 299.5 435.558C298.977 435.875 298.571 436.337 298.282 436.944C298.002 437.541 297.862 438.26 297.862 439.1C297.862 439.94 298.002 440.663 298.282 441.27C298.571 441.867 298.977 442.329 299.5 442.656C300.023 442.973 300.634 443.132 301.334 443.132C302.118 443.132 302.739 442.955 303.196 442.6C303.663 442.236 303.971 441.755 304.12 441.158H305.422C305.226 442.101 304.773 442.838 304.064 443.37C303.364 443.902 302.454 444.168 301.334 444.168ZM307.042 444V437.056H308.106L308.204 438.386C308.419 437.929 308.746 437.565 309.184 437.294C309.623 437.023 310.164 436.888 310.808 436.888V438.12H310.486C310.076 438.12 309.698 438.195 309.352 438.344C309.007 438.484 308.732 438.727 308.526 439.072C308.321 439.417 308.218 439.893 308.218 440.5V444H307.042ZM314.99 444.168C314.328 444.168 313.74 444.019 313.226 443.72C312.713 443.412 312.307 442.987 312.008 442.446C311.719 441.905 311.574 441.265 311.574 440.528C311.574 439.8 311.719 439.165 312.008 438.624C312.298 438.073 312.699 437.649 313.212 437.35C313.735 437.042 314.337 436.888 315.018 436.888C315.69 436.888 316.269 437.042 316.754 437.35C317.249 437.649 317.627 438.045 317.888 438.54C318.15 439.035 318.28 439.567 318.28 440.136C318.28 440.239 318.276 440.341 318.266 440.444C318.266 440.547 318.266 440.663 318.266 440.794H312.736C312.764 441.326 312.886 441.769 313.1 442.124C313.324 442.469 313.6 442.731 313.926 442.908C314.262 443.085 314.617 443.174 314.99 443.174C315.476 443.174 315.882 443.062 316.208 442.838C316.535 442.614 316.773 442.311 316.922 441.928H318.084C317.898 442.572 317.538 443.109 317.006 443.538C316.484 443.958 315.812 444.168 314.99 444.168ZM314.99 437.882C314.43 437.882 313.931 438.055 313.492 438.4C313.063 438.736 312.816 439.231 312.75 439.884H317.118C317.09 439.259 316.876 438.769 316.474 438.414C316.073 438.059 315.578 437.882 314.99 437.882ZM322.989 444.168C322.298 444.168 321.692 444.009 321.169 443.692C320.656 443.375 320.254 442.941 319.965 442.39C319.685 441.839 319.545 441.214 319.545 440.514C319.545 439.814 319.69 439.193 319.979 438.652C320.268 438.101 320.67 437.672 321.183 437.364C321.696 437.047 322.303 436.888 323.003 436.888C323.572 436.888 324.076 437.005 324.515 437.238C324.954 437.471 325.294 437.798 325.537 438.218V433.92H326.713V444H325.649L325.537 442.852C325.313 443.188 324.991 443.491 324.571 443.762C324.151 444.033 323.624 444.168 322.989 444.168ZM323.115 443.146C323.582 443.146 323.992 443.039 324.347 442.824C324.711 442.6 324.991 442.292 325.187 441.9C325.392 441.508 325.495 441.051 325.495 440.528C325.495 440.005 325.392 439.548 325.187 439.156C324.991 438.764 324.711 438.461 324.347 438.246C323.992 438.022 323.582 437.91 323.115 437.91C322.658 437.91 322.247 438.022 321.883 438.246C321.528 438.461 321.248 438.764 321.043 439.156C320.847 439.548 320.749 440.005 320.749 440.528C320.749 441.051 320.847 441.508 321.043 441.9C321.248 442.292 321.528 442.6 321.883 442.824C322.247 443.039 322.658 443.146 323.115 443.146ZM329.344 435.516C329.111 435.516 328.915 435.441 328.756 435.292C328.607 435.133 328.532 434.937 328.532 434.704C328.532 434.48 328.607 434.293 328.756 434.144C328.915 433.995 329.111 433.92 329.344 433.92C329.568 433.92 329.759 433.995 329.918 434.144C330.077 434.293 330.156 434.48 330.156 434.704C330.156 434.937 330.077 435.133 329.918 435.292C329.759 435.441 329.568 435.516 329.344 435.516ZM328.756 444V437.056H329.932V444H328.756ZM334.724 444C334.089 444 333.59 443.846 333.226 443.538C332.862 443.23 332.68 442.675 332.68 441.872V438.05H331.476V437.056H332.68L332.834 435.39H333.856V437.056H335.9V438.05H333.856V441.872C333.856 442.311 333.944 442.609 334.122 442.768C334.299 442.917 334.612 442.992 335.06 442.992H335.788V444H334.724ZM341.169 444V434.2H342.345V443.062H346.909V444H341.169ZM349.168 435.516C348.935 435.516 348.739 435.441 348.58 435.292C348.431 435.133 348.356 434.937 348.356 434.704C348.356 434.48 348.431 434.293 348.58 434.144C348.739 433.995 348.935 433.92 349.168 433.92C349.392 433.92 349.584 433.995 349.742 434.144C349.901 434.293 349.98 434.48 349.98 434.704C349.98 434.937 349.901 435.133 349.742 435.292C349.584 435.441 349.392 435.516 349.168 435.516ZM348.58 444V437.056H349.756V444H348.58ZM351.804 444V437.056H352.868L352.938 438.302C353.162 437.863 353.484 437.518 353.904 437.266C354.324 437.014 354.8 436.888 355.332 436.888C356.153 436.888 356.807 437.14 357.292 437.644C357.787 438.139 358.034 438.904 358.034 439.94V444H356.858V440.066C356.858 438.619 356.261 437.896 355.066 437.896C354.469 437.896 353.969 438.115 353.568 438.554C353.176 438.983 352.98 439.599 352.98 440.402V444H351.804ZM362.938 444.168C362.275 444.168 361.687 444.019 361.174 443.72C360.66 443.412 360.254 442.987 359.956 442.446C359.666 441.905 359.522 441.265 359.522 440.528C359.522 439.8 359.666 439.165 359.956 438.624C360.245 438.073 360.646 437.649 361.16 437.35C361.682 437.042 362.284 436.888 362.966 436.888C363.638 436.888 364.216 437.042 364.702 437.35C365.196 437.649 365.574 438.045 365.836 438.54C366.097 439.035 366.228 439.567 366.228 440.136C366.228 440.239 366.223 440.341 366.214 440.444C366.214 440.547 366.214 440.663 366.214 440.794H360.684C360.712 441.326 360.833 441.769 361.048 442.124C361.272 442.469 361.547 442.731 361.874 442.908C362.21 443.085 362.564 443.174 362.938 443.174C363.423 443.174 363.829 443.062 364.156 442.838C364.482 442.614 364.72 442.311 364.87 441.928H366.032C365.845 442.572 365.486 443.109 364.954 443.538C364.431 443.958 363.759 444.168 362.938 444.168ZM362.938 437.882C362.378 437.882 361.878 438.055 361.44 438.4C361.01 438.736 360.763 439.231 360.698 439.884H365.066C365.038 439.259 364.823 438.769 364.422 438.414C364.02 438.059 363.526 437.882 362.938 437.882Z" fill="white"/>
<path d="M333 345L328.979 347.321L318.021 353.679L314 356V378L318.021 380.321L329.079 386.679L333.1 389L337.122 386.679L347.979 380.321L352 378V356L347.979 353.679L337.021 347.321L333 345ZM322.042 373.358V360.642L333 354.284L343.958 360.642V373.358L333 379.716L322.042 373.358Z" fill="white"/>
<path d="M434.136 421V409.8H437.768C439.08 409.8 440.157 410.029 441 410.488C441.853 410.947 442.483 411.597 442.888 412.44C443.304 413.272 443.512 414.264 443.512 415.416C443.512 416.557 443.304 417.549 442.888 418.392C442.483 419.224 441.853 419.869 441 420.328C440.157 420.776 439.08 421 437.768 421H434.136ZM435.832 419.56H437.704C438.717 419.56 439.517 419.395 440.104 419.064C440.701 418.733 441.128 418.259 441.384 417.64C441.651 417.021 441.784 416.28 441.784 415.416C441.784 414.552 441.651 413.805 441.384 413.176C441.128 412.547 440.701 412.067 440.104 411.736C439.517 411.395 438.717 411.224 437.704 411.224H435.832V419.56ZM448.01 421.192C447.338 421.192 446.783 421.08 446.346 420.856C445.909 420.632 445.583 420.339 445.37 419.976C445.157 419.603 445.05 419.197 445.05 418.76C445.05 417.992 445.349 417.384 445.946 416.936C446.543 416.488 447.397 416.264 448.506 416.264H450.586V416.12C450.586 415.501 450.415 415.037 450.074 414.728C449.743 414.419 449.311 414.264 448.778 414.264C448.309 414.264 447.898 414.381 447.546 414.616C447.205 414.84 446.997 415.176 446.922 415.624H445.226C445.279 415.048 445.471 414.557 445.802 414.152C446.143 413.736 446.57 413.421 447.082 413.208C447.605 412.984 448.175 412.872 448.794 412.872C449.903 412.872 450.762 413.165 451.37 413.752C451.978 414.328 452.282 415.117 452.282 416.12V421H450.81L450.666 419.64C450.442 420.077 450.117 420.445 449.69 420.744C449.263 421.043 448.703 421.192 448.01 421.192ZM448.346 419.816C448.805 419.816 449.189 419.709 449.498 419.496C449.818 419.272 450.063 418.979 450.234 418.616C450.415 418.253 450.527 417.853 450.57 417.416H448.682C448.01 417.416 447.53 417.533 447.242 417.768C446.965 418.003 446.826 418.296 446.826 418.648C446.826 419.011 446.959 419.299 447.226 419.512C447.503 419.715 447.877 419.816 448.346 419.816ZM455.22 411.56C454.9 411.56 454.633 411.464 454.42 411.272C454.217 411.069 454.116 410.819 454.116 410.52C454.116 410.221 454.217 409.976 454.42 409.784C454.633 409.581 454.9 409.48 455.22 409.48C455.54 409.48 455.801 409.581 456.004 409.784C456.217 409.976 456.324 410.221 456.324 410.52C456.324 410.819 456.217 411.069 456.004 411.272C455.801 411.464 455.54 411.56 455.22 411.56ZM454.372 421V413.064H456.068V421H454.372Z" fill="white"/>
<path opacity="0.5" d="M415.334 444.168C414.373 444.168 413.542 443.958 412.842 443.538C412.151 443.109 411.615 442.516 411.232 441.76C410.849 440.995 410.658 440.108 410.658 439.1C410.658 438.101 410.849 437.224 411.232 436.468C411.615 435.703 412.151 435.105 412.842 434.676C413.542 434.247 414.373 434.032 415.334 434.032C416.454 434.032 417.364 434.303 418.064 434.844C418.773 435.376 419.226 436.123 419.422 437.084H418.12C417.971 436.477 417.663 435.992 417.196 435.628C416.739 435.255 416.118 435.068 415.334 435.068C414.634 435.068 414.023 435.231 413.5 435.558C412.977 435.875 412.571 436.337 412.282 436.944C412.002 437.541 411.862 438.26 411.862 439.1C411.862 439.94 412.002 440.663 412.282 441.27C412.571 441.867 412.977 442.329 413.5 442.656C414.023 442.973 414.634 443.132 415.334 443.132C416.118 443.132 416.739 442.955 417.196 442.6C417.663 442.236 417.971 441.755 418.12 441.158H419.422C419.226 442.101 418.773 442.838 418.064 443.37C417.364 443.902 416.454 444.168 415.334 444.168ZM421.042 444V437.056H422.106L422.204 438.386C422.419 437.929 422.746 437.565 423.184 437.294C423.623 437.023 424.164 436.888 424.808 436.888V438.12H424.486C424.076 438.12 423.698 438.195 423.352 438.344C423.007 438.484 422.732 438.727 422.526 439.072C422.321 439.417 422.218 439.893 422.218 440.5V444H421.042ZM428.99 444.168C428.328 444.168 427.74 444.019 427.226 443.72C426.713 443.412 426.307 442.987 426.008 442.446C425.719 441.905 425.574 441.265 425.574 440.528C425.574 439.8 425.719 439.165 426.008 438.624C426.298 438.073 426.699 437.649 427.212 437.35C427.735 437.042 428.337 436.888 429.018 436.888C429.69 436.888 430.269 437.042 430.754 437.35C431.249 437.649 431.627 438.045 431.888 438.54C432.15 439.035 432.28 439.567 432.28 440.136C432.28 440.239 432.276 440.341 432.266 440.444C432.266 440.547 432.266 440.663 432.266 440.794H426.736C426.764 441.326 426.886 441.769 427.1 442.124C427.324 442.469 427.6 442.731 427.926 442.908C428.262 443.085 428.617 443.174 428.99 443.174C429.476 443.174 429.882 443.062 430.208 442.838C430.535 442.614 430.773 442.311 430.922 441.928H432.084C431.898 442.572 431.538 443.109 431.006 443.538C430.484 443.958 429.812 444.168 428.99 444.168ZM428.99 437.882C428.43 437.882 427.931 438.055 427.492 438.4C427.063 438.736 426.816 439.231 426.75 439.884H431.118C431.09 439.259 430.876 438.769 430.474 438.414C430.073 438.059 429.578 437.882 428.99 437.882ZM436.989 444.168C436.298 444.168 435.692 444.009 435.169 443.692C434.656 443.375 434.254 442.941 433.965 442.39C433.685 441.839 433.545 441.214 433.545 440.514C433.545 439.814 433.69 439.193 433.979 438.652C434.268 438.101 434.67 437.672 435.183 437.364C435.696 437.047 436.303 436.888 437.003 436.888C437.572 436.888 438.076 437.005 438.515 437.238C438.954 437.471 439.294 437.798 439.537 438.218V433.92H440.713V444H439.649L439.537 442.852C439.313 443.188 438.991 443.491 438.571 443.762C438.151 444.033 437.624 444.168 436.989 444.168ZM437.115 443.146C437.582 443.146 437.992 443.039 438.347 442.824C438.711 442.6 438.991 442.292 439.187 441.9C439.392 441.508 439.495 441.051 439.495 440.528C439.495 440.005 439.392 439.548 439.187 439.156C438.991 438.764 438.711 438.461 438.347 438.246C437.992 438.022 437.582 437.91 437.115 437.91C436.658 437.91 436.247 438.022 435.883 438.246C435.528 438.461 435.248 438.764 435.043 439.156C434.847 439.548 434.749 440.005 434.749 440.528C434.749 441.051 434.847 441.508 435.043 441.9C435.248 442.292 435.528 442.6 435.883 442.824C436.247 443.039 436.658 443.146 437.115 443.146ZM443.344 435.516C443.111 435.516 442.915 435.441 442.756 435.292C442.607 435.133 442.532 434.937 442.532 434.704C442.532 434.48 442.607 434.293 442.756 434.144C442.915 433.995 443.111 433.92 443.344 433.92C443.568 433.92 443.759 433.995 443.918 434.144C444.077 434.293 444.156 434.48 444.156 434.704C444.156 434.937 444.077 435.133 443.918 435.292C443.759 435.441 443.568 435.516 443.344 435.516ZM442.756 444V437.056H443.932V444H442.756ZM448.724 444C448.089 444 447.59 443.846 447.226 443.538C446.862 443.23 446.68 442.675 446.68 441.872V438.05H445.476V437.056H446.68L446.834 435.39H447.856V437.056H449.9V438.05H447.856V441.872C447.856 442.311 447.944 442.609 448.122 442.768C448.299 442.917 448.612 442.992 449.06 442.992H449.788V444H448.724ZM455.169 444V434.2H456.345V443.062H460.909V444H455.169ZM463.168 435.516C462.935 435.516 462.739 435.441 462.58 435.292C462.431 435.133 462.356 434.937 462.356 434.704C462.356 434.48 462.431 434.293 462.58 434.144C462.739 433.995 462.935 433.92 463.168 433.92C463.392 433.92 463.584 433.995 463.742 434.144C463.901 434.293 463.98 434.48 463.98 434.704C463.98 434.937 463.901 435.133 463.742 435.292C463.584 435.441 463.392 435.516 463.168 435.516ZM462.58 444V437.056H463.756V444H462.58ZM465.804 444V437.056H466.868L466.938 438.302C467.162 437.863 467.484 437.518 467.904 437.266C468.324 437.014 468.8 436.888 469.332 436.888C470.153 436.888 470.807 437.14 471.292 437.644C471.787 438.139 472.034 438.904 472.034 439.94V444H470.858V440.066C470.858 438.619 470.261 437.896 469.066 437.896C468.469 437.896 467.969 438.115 467.568 438.554C467.176 438.983 466.98 439.599 466.98 440.402V444H465.804ZM476.938 444.168C476.275 444.168 475.687 444.019 475.174 443.72C474.66 443.412 474.254 442.987 473.956 442.446C473.666 441.905 473.522 441.265 473.522 440.528C473.522 439.8 473.666 439.165 473.956 438.624C474.245 438.073 474.646 437.649 475.16 437.35C475.682 437.042 476.284 436.888 476.966 436.888C477.638 436.888 478.216 437.042 478.702 437.35C479.196 437.649 479.574 438.045 479.836 438.54C480.097 439.035 480.228 439.567 480.228 440.136C480.228 440.239 480.223 440.341 480.214 440.444C480.214 440.547 480.214 440.663 480.214 440.794H474.684C474.712 441.326 474.833 441.769 475.048 442.124C475.272 442.469 475.547 442.731 475.874 442.908C476.21 443.085 476.564 443.174 476.938 443.174C477.423 443.174 477.829 443.062 478.156 442.838C478.482 442.614 478.72 442.311 478.87 441.928H480.032C479.845 442.572 479.486 443.109 478.954 443.538C478.431 443.958 477.759 444.168 476.938 444.168ZM476.938 437.882C476.378 437.882 475.878 438.055 475.44 438.4C475.01 438.736 474.763 439.231 474.698 439.884H479.066C479.038 439.259 478.823 438.769 478.422 438.414C478.02 438.059 477.526 437.882 476.938 437.882Z" fill="white"/>
<path d="M429.365 385.743V385.622C429.365 384.042 429.365 382.463 429.365 380.904C429.365 380.378 429.365 379.831 429.365 379.305V374.547C429.365 374.283 429.365 374.243 429.039 374.243H424.625C424.381 374.243 424.279 374.243 424.279 373.919C424.279 372.644 424.279 371.348 424.279 370.072H428.999C429.263 370.072 429.365 370.072 429.365 369.728C429.365 368.452 429.365 367.197 429.365 365.921C429.365 365.679 429.365 365.618 429.039 365.618H424.625C424.381 365.618 424.279 365.618 424.279 365.294C424.279 364.12 424.279 362.925 424.279 361.73C424.279 361.508 424.279 361.447 424.605 361.447C426.049 361.447 427.514 361.447 428.978 361.447C429.283 361.447 429.365 361.447 429.365 361.062V350.149C429.365 349.825 429.365 349.744 429.772 349.744H445.028C446.127 349.785 447.246 349.906 448.324 350.109C450.561 350.514 452.718 351.323 454.691 352.457C455.993 353.227 457.193 354.138 458.271 355.211C459.064 356.041 459.797 356.952 460.448 357.904C461.099 358.875 461.628 359.908 462.034 361.001C462.095 361.285 462.36 361.467 462.645 361.427C463.845 361.427 465.065 361.427 466.286 361.427C466.754 361.427 466.754 361.427 466.774 361.872V365.193C466.774 365.517 466.652 365.598 466.327 365.598H463.519C463.235 365.598 463.153 365.598 463.174 365.962C463.275 367.197 463.275 368.432 463.174 369.667C463.174 370.011 463.174 370.052 463.56 370.052H466.774C466.774 370.052 466.774 372.947 466.774 373.757C466.774 374.101 466.672 374.202 466.367 374.202C465.086 374.202 463.804 374.202 462.523 374.202C462.258 374.162 461.994 374.324 461.933 374.587C461.017 376.956 459.553 379.082 457.661 380.783C456.969 381.41 456.277 382.018 455.484 382.524C454.691 383.03 453.877 383.476 453.043 383.86C451.497 384.549 449.89 385.055 448.242 385.379C446.676 385.662 445.069 385.784 443.482 385.764H429.365V385.743ZM457.457 374.263H456.42H433.86C433.555 374.263 433.454 374.263 433.454 374.668C433.454 377.017 433.454 379.345 433.454 381.694C433.454 382.018 433.454 382.099 433.86 382.099H444.276C444.825 382.099 445.537 382.058 446.045 381.998C447.591 381.775 448.771 381.552 450.175 381.026C450.683 380.844 451.721 380.378 451.802 380.337C454.243 379.082 456.217 377.078 457.478 374.648C457.478 374.648 457.62 374.344 457.457 374.263ZM457.457 361.103C457.254 360.657 457.01 360.232 456.725 359.827C456.298 359.139 455.789 358.511 455.22 357.944C454.955 357.6 454.63 357.296 454.284 357.033C452.514 355.535 450.439 354.482 448.181 353.956C447.042 353.692 445.883 353.571 444.723 353.591C441.082 353.591 437.441 353.591 433.799 353.591C433.494 353.591 433.454 353.713 433.454 353.976C433.454 356.365 433.454 358.774 433.454 361.163C433.454 361.467 433.454 361.548 433.84 361.548H457.315C457.315 361.548 457.579 361.548 457.559 361.386C457.559 361.386 457.498 361.184 457.457 361.103ZM446.066 370.052H458.434C458.698 370.052 458.82 370.052 458.841 369.708C458.942 368.452 458.942 367.197 458.841 365.942C458.841 365.699 458.719 365.598 458.454 365.598H433.84C433.535 365.598 433.454 365.699 433.454 365.982V369.586C433.454 370.052 433.454 370.052 433.942 370.052H446.066Z" fill="#FEFEFD"/>
<path d="M525.136 421V409.8H529.056C529.931 409.8 530.656 409.949 531.232 410.248C531.808 410.536 532.235 410.936 532.512 411.448C532.8 411.949 532.944 412.52 532.944 413.16C532.944 413.768 532.805 414.328 532.528 414.84C532.261 415.341 531.84 415.741 531.264 416.04C530.688 416.339 529.952 416.488 529.056 416.488H526.832V421H525.136ZM526.832 415.096H528.976C529.776 415.096 530.347 414.925 530.688 414.584C531.04 414.232 531.216 413.757 531.216 413.16C531.216 412.541 531.04 412.061 530.688 411.72C530.347 411.368 529.776 411.192 528.976 411.192H526.832V415.096ZM537.831 421.192C537.074 421.192 536.391 421.021 535.783 420.68C535.186 420.328 534.711 419.843 534.359 419.224C534.007 418.595 533.831 417.864 533.831 417.032C533.831 416.2 534.007 415.475 534.359 414.856C534.722 414.227 535.207 413.741 535.815 413.4C536.423 413.048 537.1 412.872 537.847 412.872C538.604 412.872 539.282 413.048 539.879 413.4C540.487 413.741 540.967 414.227 541.319 414.856C541.682 415.475 541.863 416.2 541.863 417.032C541.863 417.864 541.682 418.595 541.319 419.224C540.967 419.843 540.487 420.328 539.879 420.68C539.271 421.021 538.588 421.192 537.831 421.192ZM537.831 419.736C538.236 419.736 538.61 419.635 538.951 419.432C539.303 419.229 539.586 418.931 539.799 418.536C540.012 418.131 540.119 417.629 540.119 417.032C540.119 416.435 540.012 415.939 539.799 415.544C539.596 415.139 539.319 414.835 538.967 414.632C538.626 414.429 538.252 414.328 537.847 414.328C537.442 414.328 537.063 414.429 536.711 414.632C536.37 414.835 536.092 415.139 535.879 415.544C535.666 415.939 535.559 416.435 535.559 417.032C535.559 417.629 535.666 418.131 535.879 418.536C536.092 418.931 536.37 419.229 536.711 419.432C537.052 419.635 537.426 419.736 537.831 419.736ZM543.697 421V409.48H545.393V421H543.697ZM547.541 421V409.48H549.237V416.344L552.277 413.064H554.309L550.933 416.664L554.805 421H552.661L549.237 416.936V421H547.541ZM558.635 421.192C557.963 421.192 557.408 421.08 556.971 420.856C556.534 420.632 556.208 420.339 555.995 419.976C555.782 419.603 555.675 419.197 555.675 418.76C555.675 417.992 555.974 417.384 556.571 416.936C557.168 416.488 558.022 416.264 559.131 416.264H561.211V416.12C561.211 415.501 561.04 415.037 560.699 414.728C560.368 414.419 559.936 414.264 559.403 414.264C558.934 414.264 558.523 414.381 558.171 414.616C557.83 414.84 557.622 415.176 557.547 415.624H555.851C555.904 415.048 556.096 414.557 556.427 414.152C556.768 413.736 557.195 413.421 557.707 413.208C558.23 412.984 558.8 412.872 559.419 412.872C560.528 412.872 561.387 413.165 561.995 413.752C562.603 414.328 562.907 415.117 562.907 416.12V421H561.435L561.291 419.64C561.067 420.077 560.742 420.445 560.315 420.744C559.888 421.043 559.328 421.192 558.635 421.192ZM558.971 419.816C559.43 419.816 559.814 419.709 560.123 419.496C560.443 419.272 560.688 418.979 560.859 418.616C561.04 418.253 561.152 417.853 561.195 417.416H559.307C558.635 417.416 558.155 417.533 557.867 417.768C557.59 418.003 557.451 418.296 557.451 418.648C557.451 419.011 557.584 419.299 557.851 419.512C558.128 419.715 558.502 419.816 558.971 419.816ZM568.501 421.192C567.733 421.192 567.055 421.011 566.469 420.648C565.882 420.285 565.423 419.789 565.093 419.16C564.762 418.531 564.597 417.816 564.597 417.016C564.597 416.216 564.762 415.507 565.093 414.888C565.423 414.259 565.882 413.768 566.469 413.416C567.066 413.053 567.749 412.872 568.516 412.872C569.146 412.872 569.695 412.995 570.165 413.24C570.645 413.485 571.018 413.832 571.285 414.28V409.48H572.981V421H571.461L571.285 419.768C571.029 420.141 570.677 420.472 570.229 420.76C569.781 421.048 569.205 421.192 568.501 421.192ZM568.805 419.72C569.53 419.72 570.122 419.469 570.581 418.968C571.05 418.467 571.285 417.821 571.285 417.032C571.285 416.232 571.05 415.587 570.581 415.096C570.122 414.595 569.53 414.344 568.805 414.344C568.079 414.344 567.482 414.595 567.013 415.096C566.543 415.587 566.309 416.232 566.309 417.032C566.309 417.555 566.415 418.019 566.629 418.424C566.842 418.829 567.135 419.149 567.509 419.384C567.893 419.608 568.325 419.72 568.805 419.72ZM578.831 421.192C578.074 421.192 577.391 421.021 576.783 420.68C576.186 420.328 575.711 419.843 575.359 419.224C575.007 418.595 574.831 417.864 574.831 417.032C574.831 416.2 575.007 415.475 575.359 414.856C575.722 414.227 576.207 413.741 576.815 413.4C577.423 413.048 578.1 412.872 578.847 412.872C579.604 412.872 580.282 413.048 580.879 413.4C581.487 413.741 581.967 414.227 582.319 414.856C582.682 415.475 582.863 416.2 582.863 417.032C582.863 417.864 582.682 418.595 582.319 419.224C581.967 419.843 581.487 420.328 580.879 420.68C580.271 421.021 579.588 421.192 578.831 421.192ZM578.831 419.736C579.236 419.736 579.61 419.635 579.951 419.432C580.303 419.229 580.586 418.931 580.799 418.536C581.012 418.131 581.119 417.629 581.119 417.032C581.119 416.435 581.012 415.939 580.799 415.544C580.596 415.139 580.319 414.835 579.967 414.632C579.626 414.429 579.252 414.328 578.847 414.328C578.442 414.328 578.063 414.429 577.711 414.632C577.37 414.835 577.092 415.139 576.879 415.544C576.666 415.939 576.559 416.435 576.559 417.032C576.559 417.629 576.666 418.131 576.879 418.536C577.092 418.931 577.37 419.229 577.711 419.432C578.052 419.635 578.426 419.736 578.831 419.736ZM587.713 421C586.934 421 586.315 420.813 585.857 420.44C585.398 420.056 585.169 419.379 585.169 418.408V414.488H583.809V413.064H585.169L585.377 411.048H586.865V413.064H589.105V414.488H586.865V418.408C586.865 418.845 586.955 419.149 587.137 419.32C587.329 419.48 587.654 419.56 588.113 419.56H589.025V421H587.713Z" fill="white"/>
<path opacity="0.5" d="M526.334 444.168C525.373 444.168 524.542 443.958 523.842 443.538C523.151 443.109 522.615 442.516 522.232 441.76C521.849 440.995 521.658 440.108 521.658 439.1C521.658 438.101 521.849 437.224 522.232 436.468C522.615 435.703 523.151 435.105 523.842 434.676C524.542 434.247 525.373 434.032 526.334 434.032C527.454 434.032 528.364 434.303 529.064 434.844C529.773 435.376 530.226 436.123 530.422 437.084H529.12C528.971 436.477 528.663 435.992 528.196 435.628C527.739 435.255 527.118 435.068 526.334 435.068C525.634 435.068 525.023 435.231 524.5 435.558C523.977 435.875 523.571 436.337 523.282 436.944C523.002 437.541 522.862 438.26 522.862 439.1C522.862 439.94 523.002 440.663 523.282 441.27C523.571 441.867 523.977 442.329 524.5 442.656C525.023 442.973 525.634 443.132 526.334 443.132C527.118 443.132 527.739 442.955 528.196 442.6C528.663 442.236 528.971 441.755 529.12 441.158H530.422C530.226 442.101 529.773 442.838 529.064 443.37C528.364 443.902 527.454 444.168 526.334 444.168ZM532.042 444V437.056H533.106L533.204 438.386C533.419 437.929 533.746 437.565 534.184 437.294C534.623 437.023 535.164 436.888 535.808 436.888V438.12H535.486C535.076 438.12 534.698 438.195 534.352 438.344C534.007 438.484 533.732 438.727 533.526 439.072C533.321 439.417 533.218 439.893 533.218 440.5V444H532.042ZM539.99 444.168C539.328 444.168 538.74 444.019 538.226 443.72C537.713 443.412 537.307 442.987 537.008 442.446C536.719 441.905 536.574 441.265 536.574 440.528C536.574 439.8 536.719 439.165 537.008 438.624C537.298 438.073 537.699 437.649 538.212 437.35C538.735 437.042 539.337 436.888 540.018 436.888C540.69 436.888 541.269 437.042 541.754 437.35C542.249 437.649 542.627 438.045 542.888 438.54C543.15 439.035 543.28 439.567 543.28 440.136C543.28 440.239 543.276 440.341 543.266 440.444C543.266 440.547 543.266 440.663 543.266 440.794H537.736C537.764 441.326 537.886 441.769 538.1 442.124C538.324 442.469 538.6 442.731 538.926 442.908C539.262 443.085 539.617 443.174 539.99 443.174C540.476 443.174 540.882 443.062 541.208 442.838C541.535 442.614 541.773 442.311 541.922 441.928H543.084C542.898 442.572 542.538 443.109 542.006 443.538C541.484 443.958 540.812 444.168 539.99 444.168ZM539.99 437.882C539.43 437.882 538.931 438.055 538.492 438.4C538.063 438.736 537.816 439.231 537.75 439.884H542.118C542.09 439.259 541.876 438.769 541.474 438.414C541.073 438.059 540.578 437.882 539.99 437.882ZM547.989 444.168C547.298 444.168 546.692 444.009 546.169 443.692C545.656 443.375 545.254 442.941 544.965 442.39C544.685 441.839 544.545 441.214 544.545 440.514C544.545 439.814 544.69 439.193 544.979 438.652C545.268 438.101 545.67 437.672 546.183 437.364C546.696 437.047 547.303 436.888 548.003 436.888C548.572 436.888 549.076 437.005 549.515 437.238C549.954 437.471 550.294 437.798 550.537 438.218V433.92H551.713V444H550.649L550.537 442.852C550.313 443.188 549.991 443.491 549.571 443.762C549.151 444.033 548.624 444.168 547.989 444.168ZM548.115 443.146C548.582 443.146 548.992 443.039 549.347 442.824C549.711 442.6 549.991 442.292 550.187 441.9C550.392 441.508 550.495 441.051 550.495 440.528C550.495 440.005 550.392 439.548 550.187 439.156C549.991 438.764 549.711 438.461 549.347 438.246C548.992 438.022 548.582 437.91 548.115 437.91C547.658 437.91 547.247 438.022 546.883 438.246C546.528 438.461 546.248 438.764 546.043 439.156C545.847 439.548 545.749 440.005 545.749 440.528C545.749 441.051 545.847 441.508 546.043 441.9C546.248 442.292 546.528 442.6 546.883 442.824C547.247 443.039 547.658 443.146 548.115 443.146ZM554.344 435.516C554.111 435.516 553.915 435.441 553.756 435.292C553.607 435.133 553.532 434.937 553.532 434.704C553.532 434.48 553.607 434.293 553.756 434.144C553.915 433.995 554.111 433.92 554.344 433.92C554.568 433.92 554.759 433.995 554.918 434.144C555.077 434.293 555.156 434.48 555.156 434.704C555.156 434.937 555.077 435.133 554.918 435.292C554.759 435.441 554.568 435.516 554.344 435.516ZM553.756 444V437.056H554.932V444H553.756ZM559.724 444C559.089 444 558.59 443.846 558.226 443.538C557.862 443.23 557.68 442.675 557.68 441.872V438.05H556.476V437.056H557.68L557.834 435.39H558.856V437.056H560.9V438.05H558.856V441.872C558.856 442.311 558.944 442.609 559.122 442.768C559.299 442.917 559.612 442.992 560.06 442.992H560.788V444H559.724ZM566.169 444V434.2H567.345V443.062H571.909V444H566.169ZM574.168 435.516C573.935 435.516 573.739 435.441 573.58 435.292C573.431 435.133 573.356 434.937 573.356 434.704C573.356 434.48 573.431 434.293 573.58 434.144C573.739 433.995 573.935 433.92 574.168 433.92C574.392 433.92 574.584 433.995 574.742 434.144C574.901 434.293 574.98 434.48 574.98 434.704C574.98 434.937 574.901 435.133 574.742 435.292C574.584 435.441 574.392 435.516 574.168 435.516ZM573.58 444V437.056H574.756V444H573.58ZM576.804 444V437.056H577.868L577.938 438.302C578.162 437.863 578.484 437.518 578.904 437.266C579.324 437.014 579.8 436.888 580.332 436.888C581.153 436.888 581.807 437.14 582.292 437.644C582.787 438.139 583.034 438.904 583.034 439.94V444H581.858V440.066C581.858 438.619 581.261 437.896 580.066 437.896C579.469 437.896 578.969 438.115 578.568 438.554C578.176 438.983 577.98 439.599 577.98 440.402V444H576.804ZM587.938 444.168C587.275 444.168 586.687 444.019 586.174 443.72C585.66 443.412 585.254 442.987 584.956 442.446C584.666 441.905 584.522 441.265 584.522 440.528C584.522 439.8 584.666 439.165 584.956 438.624C585.245 438.073 585.646 437.649 586.16 437.35C586.682 437.042 587.284 436.888 587.966 436.888C588.638 436.888 589.216 437.042 589.702 437.35C590.196 437.649 590.574 438.045 590.836 438.54C591.097 439.035 591.228 439.567 591.228 440.136C591.228 440.239 591.223 440.341 591.214 440.444C591.214 440.547 591.214 440.663 591.214 440.794H585.684C585.712 441.326 585.833 441.769 586.048 442.124C586.272 442.469 586.547 442.731 586.874 442.908C587.21 443.085 587.564 443.174 587.938 443.174C588.423 443.174 588.829 443.062 589.156 442.838C589.482 442.614 589.72 442.311 589.87 441.928H591.032C590.845 442.572 590.486 443.109 589.954 443.538C589.431 443.958 588.759 444.168 587.938 444.168ZM587.938 437.882C587.378 437.882 586.878 438.055 586.44 438.4C586.01 438.736 585.763 439.231 585.698 439.884H590.066C590.038 439.259 589.823 438.769 589.422 438.414C589.02 438.059 588.526 437.882 587.938 437.882Z" fill="white"/>
<path d="M557.136 346C552.596 346.017 548.248 347.856 545.038 351.115C541.828 354.374 540.017 358.789 540 363.398C540 365.32 540.305 367.229 540.903 369.052C541.118 369.649 541.549 370.14 542.109 370.424C542.669 370.708 543.314 370.764 543.913 370.58C544.494 370.356 544.969 369.915 545.241 369.347C545.513 368.779 545.561 368.127 545.375 367.524C544.866 366.106 544.64 364.6 544.709 363.093C544.78 360.659 545.546 358.299 546.915 356.301C548.283 354.302 550.195 352.75 552.416 351.834C554.638 350.919 557.074 350.679 559.427 351.144C561.781 351.609 563.95 352.759 565.672 354.454C567.393 356.148 568.592 358.314 569.122 360.689C569.652 363.063 569.491 365.542 568.658 367.825C567.826 370.108 566.357 372.096 564.431 373.546C562.506 374.996 560.206 375.847 557.813 375.994C557.813 375.994 555.416 376.147 554.212 376.3C553.77 376.363 553.332 376.45 552.9 376.562C552.869 376.585 552.831 376.597 552.792 376.594C552.753 376.591 552.717 376.574 552.689 376.546C552.662 376.519 552.645 376.482 552.642 376.442C552.64 376.403 552.651 376.364 552.674 376.332L553.051 374.27L555.308 363.889C555.438 363.271 555.32 362.626 554.982 362.096C554.643 361.566 554.111 361.194 553.502 361.063C552.893 360.931 552.258 361.05 551.736 361.394C551.214 361.738 550.848 362.278 550.718 362.896C550.718 362.896 545.343 388.241 545.343 388.47C545.269 388.776 545.257 389.093 545.308 389.404C545.359 389.715 545.473 390.011 545.641 390.276C545.809 390.541 546.028 390.768 546.286 390.943C546.543 391.119 546.833 391.239 547.138 391.297C547.44 391.37 547.753 391.38 548.059 391.327C548.365 391.274 548.657 391.158 548.918 390.986C549.178 390.815 549.401 390.591 549.574 390.329C549.747 390.068 549.865 389.773 549.922 389.463C549.998 389.157 550.675 385.796 550.675 385.796C550.924 384.558 551.541 383.428 552.443 382.558C553.344 381.687 554.487 381.118 555.717 380.928C556.233 380.851 558.415 380.698 558.415 380.698C562.776 380.289 566.817 378.199 569.706 374.858C572.596 371.516 574.115 367.178 573.952 362.734C573.788 358.291 571.953 354.08 568.826 350.967C565.698 347.855 561.515 346.077 557.136 346Z" fill="white"/>
<path d="M562.643 386.068C562.272 385.992 561.89 385.99 561.519 386.064C561.148 386.138 560.795 386.286 560.48 386.499C560.166 386.712 559.896 386.986 559.686 387.306C559.476 387.625 559.33 387.983 559.257 388.36C559.177 388.737 559.172 389.126 559.243 389.504C559.315 389.883 559.46 390.243 559.67 390.563C559.88 390.884 560.152 391.158 560.469 391.37C560.786 391.582 561.141 391.728 561.514 391.798C561.885 391.884 562.269 391.892 562.642 391.822C563.016 391.751 563.372 391.604 563.688 391.39C564.004 391.175 564.273 390.898 564.48 390.574C564.687 390.25 564.826 389.887 564.89 389.506C565.016 388.75 564.854 387.974 564.437 387.335C564.02 386.696 563.378 386.243 562.643 386.068Z" fill="white"/>
</svg>
