<svg width="363" height="580" viewBox="0 0 363 580" fill="none" xmlns="http://www.w3.org/2000/svg">
<rect width="363" height="580" rx="4" fill="#26262B"/>
<path d="M38.065 344V333.5H44.74V334.79H39.655V338.06H44.29V339.32H39.655V342.71H44.74V344H38.065ZM49.9643 344.18C49.2443 344.18 48.6093 344.01 48.0593 343.67C47.5093 343.33 47.0793 342.865 46.7693 342.275C46.4593 341.685 46.3043 341.015 46.3043 340.265C46.3043 339.515 46.4593 338.85 46.7693 338.27C47.0793 337.68 47.5093 337.22 48.0593 336.89C48.6193 336.55 49.2593 336.38 49.9793 336.38C50.5693 336.38 51.0843 336.495 51.5243 336.725C51.9743 336.955 52.3243 337.28 52.5743 337.7V333.2H54.1643V344H52.7393L52.5743 342.845C52.3343 343.195 52.0043 343.505 51.5843 343.775C51.1643 344.045 50.6243 344.18 49.9643 344.18ZM50.2493 342.8C50.9293 342.8 51.4843 342.565 51.9143 342.095C52.3543 341.625 52.5743 341.02 52.5743 340.28C52.5743 339.53 52.3543 338.925 51.9143 338.465C51.4843 337.995 50.9293 337.76 50.2493 337.76C49.5693 337.76 49.0093 337.995 48.5693 338.465C48.1293 338.925 47.9093 339.53 47.9093 340.28C47.9093 340.77 48.0093 341.205 48.2093 341.585C48.4093 341.965 48.6843 342.265 49.0343 342.485C49.3943 342.695 49.7993 342.8 50.2493 342.8ZM59.2141 341.72C58.8241 341.72 58.4641 341.675 58.1341 341.585L57.4891 342.215C57.5991 342.285 57.7341 342.345 57.8941 342.395C58.0541 342.445 58.2791 342.49 58.5691 342.53C58.8591 342.57 59.2541 342.61 59.7541 342.65C60.7441 342.74 61.4591 342.98 61.8991 343.37C62.3391 343.75 62.5591 344.26 62.5591 344.9C62.5591 345.34 62.4391 345.755 62.1991 346.145C61.9691 346.545 61.6041 346.865 61.1041 347.105C60.6141 347.355 59.9841 347.48 59.2141 347.48C58.1741 347.48 57.3291 347.28 56.6791 346.88C56.0391 346.49 55.7191 345.895 55.7191 345.095C55.7191 344.785 55.7991 344.475 55.9591 344.165C56.1291 343.865 56.3941 343.58 56.7541 343.31C56.5441 343.22 56.3591 343.125 56.1991 343.025C56.0491 342.915 55.9141 342.805 55.7941 342.695V342.335L57.0841 341.015C56.5041 340.515 56.2141 339.86 56.2141 339.05C56.2141 338.56 56.3291 338.115 56.5591 337.715C56.7991 337.305 57.1441 336.98 57.5941 336.74C58.0441 336.5 58.5841 336.38 59.2141 336.38C59.6341 336.38 60.0241 336.44 60.3841 336.56H63.1591V337.61L61.8391 337.685C62.0791 338.095 62.1991 338.55 62.1991 339.05C62.1991 339.55 62.0791 340 61.8391 340.4C61.6091 340.8 61.2691 341.12 60.8191 341.36C60.3791 341.6 59.8441 341.72 59.2141 341.72ZM59.2141 340.475C59.6741 340.475 60.0441 340.355 60.3241 340.115C60.6141 339.865 60.7591 339.515 60.7591 339.065C60.7591 338.605 60.6141 338.255 60.3241 338.015C60.0441 337.775 59.6741 337.655 59.2141 337.655C58.7441 337.655 58.3641 337.775 58.0741 338.015C57.7941 338.255 57.6541 338.605 57.6541 339.065C57.6541 339.515 57.7941 339.865 58.0741 340.115C58.3641 340.355 58.7441 340.475 59.2141 340.475ZM57.2191 344.945C57.2191 345.375 57.4091 345.695 57.7891 345.905C58.1691 346.125 58.6441 346.235 59.2141 346.235C59.7641 346.235 60.2091 346.115 60.5491 345.875C60.8891 345.645 61.0591 345.335 61.0591 344.945C61.0591 344.655 60.9441 344.405 60.7141 344.195C60.4841 343.995 60.0491 343.87 59.4091 343.82C58.9291 343.79 58.5041 343.745 58.1341 343.685C57.7841 343.875 57.5441 344.08 57.4141 344.3C57.2841 344.52 57.2191 344.735 57.2191 344.945ZM67.7643 344.18C67.0343 344.18 66.3843 344.02 65.8143 343.7C65.2543 343.37 64.8143 342.915 64.4943 342.335C64.1743 341.755 64.0143 341.08 64.0143 340.31C64.0143 339.53 64.1693 338.845 64.4793 338.255C64.7993 337.665 65.2393 337.205 65.7993 336.875C66.3693 336.545 67.0293 336.38 67.7793 336.38C68.5093 336.38 69.1443 336.545 69.6843 336.875C70.2243 337.195 70.6443 337.625 70.9443 338.165C71.2443 338.705 71.3943 339.3 71.3943 339.95C71.3943 340.05 71.3893 340.16 71.3793 340.28C71.3793 340.39 71.3743 340.515 71.3643 340.655H65.5743C65.6243 341.375 65.8593 341.925 66.2793 342.305C66.7093 342.675 67.2043 342.86 67.7643 342.86C68.2143 342.86 68.5893 342.76 68.8893 342.56C69.1993 342.35 69.4293 342.07 69.5793 341.72H71.1693C70.9693 342.42 70.5693 343.005 69.9693 343.475C69.3793 343.945 68.6443 344.18 67.7643 344.18ZM67.7643 337.685C67.2343 337.685 66.7643 337.845 66.3543 338.165C65.9443 338.475 65.6943 338.945 65.6043 339.575H69.8043C69.7743 338.995 69.5693 338.535 69.1893 338.195C68.8093 337.855 68.3343 337.685 67.7643 337.685ZM74.2361 344L72.0461 336.56H73.6361L75.0761 342.17L76.6961 336.56H78.4661L80.0861 342.17L81.5261 336.56H83.1161L80.9261 344H79.2911L77.5811 338.15L75.8711 344H74.2361ZM86.609 344.18C85.979 344.18 85.459 344.075 85.049 343.865C84.639 343.655 84.334 343.38 84.134 343.04C83.934 342.69 83.834 342.31 83.834 341.9C83.834 341.18 84.114 340.61 84.674 340.19C85.234 339.77 86.034 339.56 87.074 339.56H89.024V339.425C89.024 338.845 88.864 338.41 88.544 338.12C88.234 337.83 87.829 337.685 87.329 337.685C86.889 337.685 86.504 337.795 86.174 338.015C85.854 338.225 85.659 338.54 85.589 338.96H83.999C84.049 338.42 84.229 337.96 84.539 337.58C84.859 337.19 85.259 336.895 85.739 336.695C86.229 336.485 86.764 336.38 87.344 336.38C88.384 336.38 89.189 336.655 89.759 337.205C90.329 337.745 90.614 338.485 90.614 339.425V344H89.234L89.099 342.725C88.889 343.135 88.584 343.48 88.184 343.76C87.784 344.04 87.259 344.18 86.609 344.18ZM86.924 342.89C87.354 342.89 87.714 342.79 88.004 342.59C88.304 342.38 88.534 342.105 88.694 341.765C88.864 341.425 88.969 341.05 89.009 340.64H87.239C86.609 340.64 86.159 340.75 85.889 340.97C85.629 341.19 85.499 341.465 85.499 341.795C85.499 342.135 85.624 342.405 85.874 342.605C86.134 342.795 86.484 342.89 86.924 342.89ZM92.4679 344V336.56H93.8929L94.0279 337.97C94.2879 337.48 94.6479 337.095 95.1079 336.815C95.5779 336.525 96.1429 336.38 96.8029 336.38V338.045H96.3679C95.9279 338.045 95.5329 338.12 95.1829 338.27C94.8429 338.41 94.5679 338.655 94.3579 339.005C94.1579 339.345 94.0579 339.82 94.0579 340.43V344H92.4679ZM101.441 344.18C100.711 344.18 100.061 344.02 99.4911 343.7C98.9311 343.37 98.4911 342.915 98.1711 342.335C97.8511 341.755 97.6911 341.08 97.6911 340.31C97.6911 339.53 97.8461 338.845 98.1561 338.255C98.4761 337.665 98.9161 337.205 99.4761 336.875C100.046 336.545 100.706 336.38 101.456 336.38C102.186 336.38 102.821 336.545 103.361 336.875C103.901 337.195 104.321 337.625 104.621 338.165C104.921 338.705 105.071 339.3 105.071 339.95C105.071 340.05 105.066 340.16 105.056 340.28C105.056 340.39 105.051 340.515 105.041 340.655H99.2511C99.3011 341.375 99.5361 341.925 99.9561 342.305C100.386 342.675 100.881 342.86 101.441 342.86C101.891 342.86 102.266 342.76 102.566 342.56C102.876 342.35 103.106 342.07 103.256 341.72H104.846C104.646 342.42 104.246 343.005 103.646 343.475C103.056 343.945 102.321 344.18 101.441 344.18ZM101.441 337.685C100.911 337.685 100.441 337.845 100.031 338.165C99.6211 338.475 99.3711 338.945 99.2811 339.575H103.481C103.451 338.995 103.246 338.535 102.866 338.195C102.486 337.855 102.011 337.685 101.441 337.685Z" fill="white"/>
<path opacity="0.5" d="M44.953 366.156C44.0603 366.156 43.289 365.961 42.639 365.571C41.9977 365.172 41.4993 364.622 41.144 363.92C40.7887 363.209 40.611 362.386 40.611 361.45C40.611 360.523 40.7887 359.708 41.144 359.006C41.4993 358.295 41.9977 357.741 42.639 357.342C43.289 356.943 44.0603 356.744 44.953 356.744C45.993 356.744 46.838 356.995 47.488 357.498C48.1467 357.992 48.567 358.685 48.749 359.578H47.54C47.4013 359.015 47.1153 358.564 46.682 358.226C46.2573 357.879 45.681 357.706 44.953 357.706C44.303 357.706 43.7353 357.858 43.25 358.161C42.7647 358.456 42.3877 358.885 42.119 359.448C41.859 360.003 41.729 360.67 41.729 361.45C41.729 362.23 41.859 362.902 42.119 363.465C42.3877 364.02 42.7647 364.449 43.25 364.752C43.7353 365.047 44.303 365.194 44.953 365.194C45.681 365.194 46.2573 365.029 46.682 364.7C47.1153 364.362 47.4013 363.916 47.54 363.361H48.749C48.567 364.236 48.1467 364.921 47.488 365.415C46.838 365.909 45.993 366.156 44.953 366.156ZM50.2534 366V359.552H51.2414L51.3324 360.787C51.5318 360.362 51.8351 360.024 52.2424 359.773C52.6498 359.522 53.1524 359.396 53.7504 359.396V360.54H53.4514C53.0701 360.54 52.7191 360.609 52.3984 360.748C52.0778 360.878 51.8221 361.103 51.6314 361.424C51.4408 361.745 51.3454 362.187 51.3454 362.75V366H50.2534ZM57.6339 366.156C57.0186 366.156 56.4726 366.017 55.9959 365.74C55.5192 365.454 55.1422 365.06 54.8649 364.557C54.5962 364.054 54.4619 363.461 54.4619 362.776C54.4619 362.1 54.5962 361.511 54.8649 361.008C55.1336 360.497 55.5062 360.102 55.9829 359.825C56.4682 359.539 57.0272 359.396 57.6599 359.396C58.2839 359.396 58.8212 359.539 59.2719 359.825C59.7312 360.102 60.0822 360.471 60.3249 360.93C60.5676 361.389 60.6889 361.883 60.6889 362.412C60.6889 362.507 60.6846 362.603 60.6759 362.698C60.6759 362.793 60.6759 362.902 60.6759 363.023H55.5409C55.5669 363.517 55.6796 363.929 55.8789 364.258C56.0869 364.579 56.3426 364.821 56.6459 364.986C56.9579 365.151 57.2872 365.233 57.6339 365.233C58.0846 365.233 58.4616 365.129 58.7649 364.921C59.0682 364.713 59.2892 364.431 59.4279 364.076H60.5069C60.3336 364.674 59.9999 365.172 59.5059 365.571C59.0206 365.961 58.3966 366.156 57.6339 366.156ZM57.6339 360.319C57.1139 360.319 56.6502 360.479 56.2429 360.8C55.8442 361.112 55.6146 361.571 55.5539 362.178H59.6099C59.5839 361.597 59.3846 361.142 59.0119 360.813C58.6392 360.484 58.1799 360.319 57.6339 360.319ZM65.0613 366.156C64.4199 366.156 63.8566 366.009 63.3713 365.714C62.8946 365.419 62.5219 365.016 62.2533 364.505C61.9933 363.994 61.8633 363.413 61.8633 362.763C61.8633 362.113 61.9976 361.537 62.2663 361.034C62.5349 360.523 62.9076 360.124 63.3843 359.838C63.8609 359.543 64.4243 359.396 65.0743 359.396C65.6029 359.396 66.0709 359.504 66.4783 359.721C66.8856 359.938 67.2019 360.241 67.4273 360.631V356.64H68.5193V366H67.5313L67.4273 364.934C67.2193 365.246 66.9203 365.528 66.5303 365.779C66.1403 366.03 65.6506 366.156 65.0613 366.156ZM65.1783 365.207C65.6116 365.207 65.9929 365.107 66.3223 364.908C66.6603 364.7 66.9203 364.414 67.1023 364.05C67.2929 363.686 67.3883 363.261 67.3883 362.776C67.3883 362.291 67.2929 361.866 67.1023 361.502C66.9203 361.138 66.6603 360.856 66.3223 360.657C65.9929 360.449 65.6116 360.345 65.1783 360.345C64.7536 360.345 64.3723 360.449 64.0343 360.657C63.7049 360.856 63.4449 361.138 63.2543 361.502C63.0723 361.866 62.9813 362.291 62.9813 362.776C62.9813 363.261 63.0723 363.686 63.2543 364.05C63.4449 364.414 63.7049 364.7 64.0343 364.908C64.3723 365.107 64.7536 365.207 65.1783 365.207ZM70.9623 358.122C70.7457 358.122 70.5637 358.053 70.4163 357.914C70.2777 357.767 70.2083 357.585 70.2083 357.368C70.2083 357.16 70.2777 356.987 70.4163 356.848C70.5637 356.709 70.7457 356.64 70.9623 356.64C71.1703 356.64 71.348 356.709 71.4953 356.848C71.6427 356.987 71.7163 357.16 71.7163 357.368C71.7163 357.585 71.6427 357.767 71.4953 357.914C71.348 358.053 71.1703 358.122 70.9623 358.122ZM70.4163 366V359.552H71.5083V366H70.4163ZM75.9577 366C75.3684 366 74.9047 365.857 74.5667 365.571C74.2287 365.285 74.0597 364.769 74.0597 364.024V360.475H72.9417V359.552H74.0597L74.2027 358.005H75.1517V359.552H77.0497V360.475H75.1517V364.024C75.1517 364.431 75.234 364.709 75.3987 364.856C75.5634 364.995 75.8537 365.064 76.2697 365.064H76.9457V366H75.9577ZM81.9425 366V356.9H83.0345V365.129H87.2725V366H81.9425ZM89.3705 358.122C89.1539 358.122 88.9719 358.053 88.8245 357.914C88.6859 357.767 88.6165 357.585 88.6165 357.368C88.6165 357.16 88.6859 356.987 88.8245 356.848C88.9719 356.709 89.1539 356.64 89.3705 356.64C89.5785 356.64 89.7562 356.709 89.9035 356.848C90.0509 356.987 90.1245 357.16 90.1245 357.368C90.1245 357.585 90.0509 357.767 89.9035 357.914C89.7562 358.053 89.5785 358.122 89.3705 358.122ZM88.8245 366V359.552H89.9165V366H88.8245ZM91.8179 366V359.552H92.8059L92.8709 360.709C93.0789 360.302 93.3779 359.981 93.7679 359.747C94.1579 359.513 94.5999 359.396 95.0939 359.396C95.8566 359.396 96.4632 359.63 96.9139 360.098C97.3732 360.557 97.6029 361.268 97.6029 362.23V366H96.5109V362.347C96.5109 361.004 95.9562 360.332 94.8469 360.332C94.2922 360.332 93.8286 360.536 93.4559 360.943C93.0919 361.342 92.9099 361.914 92.9099 362.659V366H91.8179ZM102.156 366.156C101.541 366.156 100.995 366.017 100.518 365.74C100.042 365.454 99.6647 365.06 99.3874 364.557C99.1187 364.054 98.9844 363.461 98.9844 362.776C98.9844 362.1 99.1187 361.511 99.3874 361.008C99.656 360.497 100.029 360.102 100.505 359.825C100.991 359.539 101.55 359.396 102.182 359.396C102.806 359.396 103.344 359.539 103.794 359.825C104.254 360.102 104.605 360.471 104.847 360.93C105.09 361.389 105.211 361.883 105.211 362.412C105.211 362.507 105.207 362.603 105.198 362.698C105.198 362.793 105.198 362.902 105.198 363.023H100.063C100.089 363.517 100.202 363.929 100.401 364.258C100.609 364.579 100.865 364.821 101.168 364.986C101.48 365.151 101.81 365.233 102.156 365.233C102.607 365.233 102.984 365.129 103.287 364.921C103.591 364.713 103.812 364.431 103.95 364.076H105.029C104.856 364.674 104.522 365.172 104.028 365.571C103.543 365.961 102.919 366.156 102.156 366.156ZM102.156 360.319C101.636 360.319 101.173 360.479 100.765 360.8C100.367 361.112 100.137 361.571 100.076 362.178H104.132C104.106 361.597 103.907 361.142 103.534 360.813C103.162 360.484 102.702 360.319 102.156 360.319Z" fill="white"/>
<path d="M49.5182 274H54.4434V305H49.5182V274Z" fill="white"/>
<path d="M85.4784 274H90.4036V290.692H85.4784V274Z" fill="white"/>
<path d="M72.3445 303.964L69.882 299.833L84.8106 291.487L87.2732 295.617L72.3445 303.964Z" fill="white"/>
<path d="M103.537 303.964L106 299.833L91.0713 291.487L88.6087 295.617L103.537 303.964Z" fill="white"/>
<path d="M37 283.936L39.4626 279.806L67.1873 295.306L64.7247 299.436L37 283.936Z" fill="white"/>
<path d="M39.4626 299.436L37 295.306L64.7247 279.806L67.1873 283.936L39.4626 299.436Z" fill="white"/>
<path d="M144.065 344V333.5H150.74V334.79H145.655V338.06H150.29V339.32H145.655V342.71H150.74V344H144.065ZM155.694 344C154.964 344 154.384 343.825 153.954 343.475C153.524 343.115 153.309 342.48 153.309 341.57V337.895H152.034V336.56H153.309L153.504 334.67H154.899V336.56H156.999V337.895H154.899V341.57C154.899 341.98 154.984 342.265 155.154 342.425C155.334 342.575 155.639 342.65 156.069 342.65H156.924V344H155.694ZM158.639 344V333.2H160.229V337.76C160.479 337.33 160.824 336.995 161.264 336.755C161.714 336.505 162.209 336.38 162.749 336.38C163.639 336.38 164.339 336.66 164.849 337.22C165.359 337.78 165.614 338.615 165.614 339.725V344H164.039V339.89C164.039 338.45 163.464 337.73 162.314 337.73C161.714 337.73 161.214 337.94 160.814 338.36C160.424 338.78 160.229 339.38 160.229 340.16V344H158.639ZM170.966 344.18C170.236 344.18 169.586 344.02 169.016 343.7C168.456 343.37 168.016 342.915 167.696 342.335C167.376 341.755 167.216 341.08 167.216 340.31C167.216 339.53 167.371 338.845 167.681 338.255C168.001 337.665 168.441 337.205 169.001 336.875C169.571 336.545 170.231 336.38 170.981 336.38C171.711 336.38 172.346 336.545 172.886 336.875C173.426 337.195 173.846 337.625 174.146 338.165C174.446 338.705 174.596 339.3 174.596 339.95C174.596 340.05 174.591 340.16 174.581 340.28C174.581 340.39 174.576 340.515 174.566 340.655H168.776C168.826 341.375 169.061 341.925 169.481 342.305C169.911 342.675 170.406 342.86 170.966 342.86C171.416 342.86 171.791 342.76 172.091 342.56C172.401 342.35 172.631 342.07 172.781 341.72H174.371C174.171 342.42 173.771 343.005 173.171 343.475C172.581 343.945 171.846 344.18 170.966 344.18ZM170.966 337.685C170.436 337.685 169.966 337.845 169.556 338.165C169.146 338.475 168.896 338.945 168.806 339.575H173.006C172.976 338.995 172.771 338.535 172.391 338.195C172.011 337.855 171.536 337.685 170.966 337.685ZM176.246 344V336.56H177.671L177.806 337.97C178.066 337.48 178.426 337.095 178.886 336.815C179.356 336.525 179.921 336.38 180.581 336.38V338.045H180.146C179.706 338.045 179.311 338.12 178.961 338.27C178.621 338.41 178.346 338.655 178.136 339.005C177.936 339.345 177.836 339.82 177.836 340.43V344H176.246ZM185.219 344.18C184.489 344.18 183.839 344.02 183.269 343.7C182.709 343.37 182.269 342.915 181.949 342.335C181.629 341.755 181.469 341.08 181.469 340.31C181.469 339.53 181.624 338.845 181.934 338.255C182.254 337.665 182.694 337.205 183.254 336.875C183.824 336.545 184.484 336.38 185.234 336.38C185.964 336.38 186.599 336.545 187.139 336.875C187.679 337.195 188.099 337.625 188.399 338.165C188.699 338.705 188.849 339.3 188.849 339.95C188.849 340.05 188.844 340.16 188.834 340.28C188.834 340.39 188.829 340.515 188.819 340.655H183.029C183.079 341.375 183.314 341.925 183.734 342.305C184.164 342.675 184.659 342.86 185.219 342.86C185.669 342.86 186.044 342.76 186.344 342.56C186.654 342.35 186.884 342.07 187.034 341.72H188.624C188.424 342.42 188.024 343.005 187.424 343.475C186.834 343.945 186.099 344.18 185.219 344.18ZM185.219 337.685C184.689 337.685 184.219 337.845 183.809 338.165C183.399 338.475 183.149 338.945 183.059 339.575H187.259C187.229 338.995 187.024 338.535 186.644 338.195C186.264 337.855 185.789 337.685 185.219 337.685ZM193.244 344.18C192.344 344.18 191.634 343.9 191.114 343.34C190.604 342.78 190.349 341.945 190.349 340.835V336.56H191.939V340.67C191.939 342.11 192.529 342.83 193.709 342.83C194.299 342.83 194.784 342.62 195.164 342.2C195.544 341.78 195.734 341.18 195.734 340.4V336.56H197.324V344H195.914L195.794 342.695C195.564 343.155 195.224 343.52 194.774 343.79C194.334 344.05 193.824 344.18 193.244 344.18ZM199.347 344V336.56H200.757L200.892 337.61C201.132 337.23 201.447 336.93 201.837 336.71C202.237 336.49 202.697 336.38 203.217 336.38C204.397 336.38 205.217 336.845 205.677 337.775C205.947 337.345 206.307 337.005 206.757 336.755C207.217 336.505 207.712 336.38 208.242 336.38C209.172 336.38 209.902 336.66 210.432 337.22C210.962 337.78 211.227 338.615 211.227 339.725V344H209.637V339.89C209.637 338.45 209.087 337.73 207.987 337.73C207.427 337.73 206.967 337.94 206.607 338.36C206.257 338.78 206.082 339.38 206.082 340.16V344H204.492V339.89C204.492 338.45 203.937 337.73 202.827 337.73C202.277 337.73 201.822 337.94 201.462 338.36C201.112 338.78 200.937 339.38 200.937 340.16V344H199.347Z" fill="white"/>
<path opacity="0.5" d="M148.953 366.156C148.06 366.156 147.289 365.961 146.639 365.571C145.998 365.172 145.499 364.622 145.144 363.92C144.789 363.209 144.611 362.386 144.611 361.45C144.611 360.523 144.789 359.708 145.144 359.006C145.499 358.295 145.998 357.741 146.639 357.342C147.289 356.943 148.06 356.744 148.953 356.744C149.993 356.744 150.838 356.995 151.488 357.498C152.147 357.992 152.567 358.685 152.749 359.578H151.54C151.401 359.015 151.115 358.564 150.682 358.226C150.257 357.879 149.681 357.706 148.953 357.706C148.303 357.706 147.735 357.858 147.25 358.161C146.765 358.456 146.388 358.885 146.119 359.448C145.859 360.003 145.729 360.67 145.729 361.45C145.729 362.23 145.859 362.902 146.119 363.465C146.388 364.02 146.765 364.449 147.25 364.752C147.735 365.047 148.303 365.194 148.953 365.194C149.681 365.194 150.257 365.029 150.682 364.7C151.115 364.362 151.401 363.916 151.54 363.361H152.749C152.567 364.236 152.147 364.921 151.488 365.415C150.838 365.909 149.993 366.156 148.953 366.156ZM154.253 366V359.552H155.241L155.332 360.787C155.532 360.362 155.835 360.024 156.242 359.773C156.65 359.522 157.152 359.396 157.75 359.396V360.54H157.451C157.07 360.54 156.719 360.609 156.398 360.748C156.078 360.878 155.822 361.103 155.631 361.424C155.441 361.745 155.345 362.187 155.345 362.75V366H154.253ZM161.634 366.156C161.019 366.156 160.473 366.017 159.996 365.74C159.519 365.454 159.142 365.06 158.865 364.557C158.596 364.054 158.462 363.461 158.462 362.776C158.462 362.1 158.596 361.511 158.865 361.008C159.134 360.497 159.506 360.102 159.983 359.825C160.468 359.539 161.027 359.396 161.66 359.396C162.284 359.396 162.821 359.539 163.272 359.825C163.731 360.102 164.082 360.471 164.325 360.93C164.568 361.389 164.689 361.883 164.689 362.412C164.689 362.507 164.685 362.603 164.676 362.698C164.676 362.793 164.676 362.902 164.676 363.023H159.541C159.567 363.517 159.68 363.929 159.879 364.258C160.087 364.579 160.343 364.821 160.646 364.986C160.958 365.151 161.287 365.233 161.634 365.233C162.085 365.233 162.462 365.129 162.765 364.921C163.068 364.713 163.289 364.431 163.428 364.076H164.507C164.334 364.674 164 365.172 163.506 365.571C163.021 365.961 162.397 366.156 161.634 366.156ZM161.634 360.319C161.114 360.319 160.65 360.479 160.243 360.8C159.844 361.112 159.615 361.571 159.554 362.178H163.61C163.584 361.597 163.385 361.142 163.012 360.813C162.639 360.484 162.18 360.319 161.634 360.319ZM169.061 366.156C168.42 366.156 167.857 366.009 167.371 365.714C166.895 365.419 166.522 365.016 166.253 364.505C165.993 363.994 165.863 363.413 165.863 362.763C165.863 362.113 165.998 361.537 166.266 361.034C166.535 360.523 166.908 360.124 167.384 359.838C167.861 359.543 168.424 359.396 169.074 359.396C169.603 359.396 170.071 359.504 170.478 359.721C170.886 359.938 171.202 360.241 171.427 360.631V356.64H172.519V366H171.531L171.427 364.934C171.219 365.246 170.92 365.528 170.53 365.779C170.14 366.03 169.651 366.156 169.061 366.156ZM169.178 365.207C169.612 365.207 169.993 365.107 170.322 364.908C170.66 364.7 170.92 364.414 171.102 364.05C171.293 363.686 171.388 363.261 171.388 362.776C171.388 362.291 171.293 361.866 171.102 361.502C170.92 361.138 170.66 360.856 170.322 360.657C169.993 360.449 169.612 360.345 169.178 360.345C168.754 360.345 168.372 360.449 168.034 360.657C167.705 360.856 167.445 361.138 167.254 361.502C167.072 361.866 166.981 362.291 166.981 362.776C166.981 363.261 167.072 363.686 167.254 364.05C167.445 364.414 167.705 364.7 168.034 364.908C168.372 365.107 168.754 365.207 169.178 365.207ZM174.962 358.122C174.746 358.122 174.564 358.053 174.416 357.914C174.278 357.767 174.208 357.585 174.208 357.368C174.208 357.16 174.278 356.987 174.416 356.848C174.564 356.709 174.746 356.64 174.962 356.64C175.17 356.64 175.348 356.709 175.495 356.848C175.643 356.987 175.716 357.16 175.716 357.368C175.716 357.585 175.643 357.767 175.495 357.914C175.348 358.053 175.17 358.122 174.962 358.122ZM174.416 366V359.552H175.508V366H174.416ZM179.958 366C179.368 366 178.905 365.857 178.567 365.571C178.229 365.285 178.06 364.769 178.06 364.024V360.475H176.942V359.552H178.06L178.203 358.005H179.152V359.552H181.05V360.475H179.152V364.024C179.152 364.431 179.234 364.709 179.399 364.856C179.563 364.995 179.854 365.064 180.27 365.064H180.946V366H179.958ZM185.942 366V356.9H187.034V365.129H191.272V366H185.942ZM193.371 358.122C193.154 358.122 192.972 358.053 192.825 357.914C192.686 357.767 192.617 357.585 192.617 357.368C192.617 357.16 192.686 356.987 192.825 356.848C192.972 356.709 193.154 356.64 193.371 356.64C193.579 356.64 193.756 356.709 193.904 356.848C194.051 356.987 194.125 357.16 194.125 357.368C194.125 357.585 194.051 357.767 193.904 357.914C193.756 358.053 193.579 358.122 193.371 358.122ZM192.825 366V359.552H193.917V366H192.825ZM195.818 366V359.552H196.806L196.871 360.709C197.079 360.302 197.378 359.981 197.768 359.747C198.158 359.513 198.6 359.396 199.094 359.396C199.857 359.396 200.463 359.63 200.914 360.098C201.373 360.557 201.603 361.268 201.603 362.23V366H200.511V362.347C200.511 361.004 199.956 360.332 198.847 360.332C198.292 360.332 197.829 360.536 197.456 360.943C197.092 361.342 196.91 361.914 196.91 362.659V366H195.818ZM206.156 366.156C205.541 366.156 204.995 366.017 204.518 365.74C204.042 365.454 203.665 365.06 203.387 364.557C203.119 364.054 202.984 363.461 202.984 362.776C202.984 362.1 203.119 361.511 203.387 361.008C203.656 360.497 204.029 360.102 204.505 359.825C204.991 359.539 205.55 359.396 206.182 359.396C206.806 359.396 207.344 359.539 207.794 359.825C208.254 360.102 208.605 360.471 208.847 360.93C209.09 361.389 209.211 361.883 209.211 362.412C209.211 362.507 209.207 362.603 209.198 362.698C209.198 362.793 209.198 362.902 209.198 363.023H204.063C204.089 363.517 204.202 363.929 204.401 364.258C204.609 364.579 204.865 364.821 205.168 364.986C205.48 365.151 205.81 365.233 206.156 365.233C206.607 365.233 206.984 365.129 207.287 364.921C207.591 364.713 207.812 364.431 207.95 364.076H209.029C208.856 364.674 208.522 365.172 208.028 365.571C207.543 365.961 206.919 366.156 206.156 366.156ZM206.156 360.319C205.636 360.319 205.173 360.479 204.765 360.8C204.367 361.112 204.137 361.571 204.076 362.178H208.132C208.106 361.597 207.907 361.142 207.534 360.813C207.162 360.484 206.702 360.319 206.156 360.319Z" fill="white"/>
<path fill-rule="evenodd" clip-rule="evenodd" d="M190.103 291.39L177.725 269.192L165.348 291.39H190.103ZM177.725 299.224L165.348 291.39H190.103L177.725 299.224ZM177.725 302.184L165.348 294.63L177.725 312.257V302.184ZM177.726 312.257L190.103 294.63L177.726 302.184V312.257Z" fill="white"/>
<path d="M260.745 344.18C259.705 344.18 258.805 343.955 258.045 343.505C257.295 343.045 256.715 342.41 256.305 341.6C255.895 340.78 255.69 339.835 255.69 338.765C255.69 337.685 255.895 336.74 256.305 335.93C256.715 335.11 257.295 334.47 258.045 334.01C258.805 333.55 259.705 333.32 260.745 333.32C261.975 333.32 262.98 333.62 263.76 334.22C264.54 334.82 265.035 335.66 265.245 336.74H263.475C263.335 336.13 263.035 335.645 262.575 335.285C262.115 334.925 261.5 334.745 260.73 334.745C259.68 334.745 258.85 335.105 258.24 335.825C257.63 336.535 257.325 337.515 257.325 338.765C257.325 340.005 257.63 340.98 258.24 341.69C258.85 342.4 259.68 342.755 260.73 342.755C261.5 342.755 262.115 342.585 262.575 342.245C263.035 341.905 263.335 341.44 263.475 340.85H265.245C265.035 341.89 264.54 342.705 263.76 343.295C262.98 343.885 261.975 344.18 260.745 344.18ZM266.933 344V333.2H268.523V337.76C268.773 337.33 269.118 336.995 269.558 336.755C270.008 336.505 270.503 336.38 271.043 336.38C271.933 336.38 272.633 336.66 273.143 337.22C273.653 337.78 273.908 338.615 273.908 339.725V344H272.333V339.89C272.333 338.45 271.758 337.73 270.608 337.73C270.008 337.73 269.508 337.94 269.108 338.36C268.718 338.78 268.523 339.38 268.523 340.16V344H266.933ZM278.3 344.18C277.67 344.18 277.15 344.075 276.74 343.865C276.33 343.655 276.025 343.38 275.825 343.04C275.625 342.69 275.525 342.31 275.525 341.9C275.525 341.18 275.805 340.61 276.365 340.19C276.925 339.77 277.725 339.56 278.765 339.56H280.715V339.425C280.715 338.845 280.555 338.41 280.235 338.12C279.925 337.83 279.52 337.685 279.02 337.685C278.58 337.685 278.195 337.795 277.865 338.015C277.545 338.225 277.35 338.54 277.28 338.96H275.69C275.74 338.42 275.92 337.96 276.23 337.58C276.55 337.19 276.95 336.895 277.43 336.695C277.92 336.485 278.455 336.38 279.035 336.38C280.075 336.38 280.88 336.655 281.45 337.205C282.02 337.745 282.305 338.485 282.305 339.425V344H280.925L280.79 342.725C280.58 343.135 280.275 343.48 279.875 343.76C279.475 344.04 278.95 344.18 278.3 344.18ZM278.615 342.89C279.045 342.89 279.405 342.79 279.695 342.59C279.995 342.38 280.225 342.105 280.385 341.765C280.555 341.425 280.66 341.05 280.7 340.64H278.93C278.3 340.64 277.85 340.75 277.58 340.97C277.32 341.19 277.19 341.465 277.19 341.795C277.19 342.135 277.315 342.405 277.565 342.605C277.825 342.795 278.175 342.89 278.615 342.89ZM285.059 335.15C284.759 335.15 284.509 335.06 284.309 334.88C284.119 334.69 284.024 334.455 284.024 334.175C284.024 333.895 284.119 333.665 284.309 333.485C284.509 333.295 284.759 333.2 285.059 333.2C285.359 333.2 285.604 333.295 285.794 333.485C285.994 333.665 286.094 333.895 286.094 334.175C286.094 334.455 285.994 334.69 285.794 334.88C285.604 335.06 285.359 335.15 285.059 335.15ZM284.264 344V336.56H285.854V344H284.264ZM287.953 344V336.56H289.363L289.483 337.865C289.713 337.405 290.048 337.045 290.488 336.785C290.938 336.515 291.453 336.38 292.033 336.38C292.933 336.38 293.638 336.66 294.148 337.22C294.668 337.78 294.928 338.615 294.928 339.725V344H293.353V339.89C293.353 338.45 292.763 337.73 291.583 337.73C290.993 337.73 290.503 337.94 290.113 338.36C289.733 338.78 289.543 339.38 289.543 340.16V344H287.953ZM296.801 344V333.2H298.391V344H296.801ZM301.304 335.15C301.004 335.15 300.754 335.06 300.554 334.88C300.364 334.69 300.269 334.455 300.269 334.175C300.269 333.895 300.364 333.665 300.554 333.485C300.754 333.295 301.004 333.2 301.304 333.2C301.604 333.2 301.849 333.295 302.039 333.485C302.239 333.665 302.339 333.895 302.339 334.175C302.339 334.455 302.239 334.69 302.039 334.88C301.849 335.06 301.604 335.15 301.304 335.15ZM300.509 344V336.56H302.099V344H300.509ZM304.198 344V336.56H305.608L305.728 337.865C305.958 337.405 306.293 337.045 306.733 336.785C307.183 336.515 307.698 336.38 308.278 336.38C309.178 336.38 309.883 336.66 310.393 337.22C310.913 337.78 311.173 338.615 311.173 339.725V344H309.598V339.89C309.598 338.45 309.008 337.73 307.828 337.73C307.238 337.73 306.748 337.94 306.358 338.36C305.978 338.78 305.788 339.38 305.788 340.16V344H304.198ZM313.046 344V333.2H314.636V339.635L317.486 336.56H319.391L316.226 339.935L319.856 344H317.846L314.636 340.19V344H313.046Z" fill="white"/>
<path opacity="0.5" d="M258.953 366.156C258.06 366.156 257.289 365.961 256.639 365.571C255.998 365.172 255.499 364.622 255.144 363.92C254.789 363.209 254.611 362.386 254.611 361.45C254.611 360.523 254.789 359.708 255.144 359.006C255.499 358.295 255.998 357.741 256.639 357.342C257.289 356.943 258.06 356.744 258.953 356.744C259.993 356.744 260.838 356.995 261.488 357.498C262.147 357.992 262.567 358.685 262.749 359.578H261.54C261.401 359.015 261.115 358.564 260.682 358.226C260.257 357.879 259.681 357.706 258.953 357.706C258.303 357.706 257.735 357.858 257.25 358.161C256.765 358.456 256.388 358.885 256.119 359.448C255.859 360.003 255.729 360.67 255.729 361.45C255.729 362.23 255.859 362.902 256.119 363.465C256.388 364.02 256.765 364.449 257.25 364.752C257.735 365.047 258.303 365.194 258.953 365.194C259.681 365.194 260.257 365.029 260.682 364.7C261.115 364.362 261.401 363.916 261.54 363.361H262.749C262.567 364.236 262.147 364.921 261.488 365.415C260.838 365.909 259.993 366.156 258.953 366.156ZM264.253 366V359.552H265.241L265.332 360.787C265.532 360.362 265.835 360.024 266.242 359.773C266.65 359.522 267.152 359.396 267.75 359.396V360.54H267.451C267.07 360.54 266.719 360.609 266.398 360.748C266.078 360.878 265.822 361.103 265.631 361.424C265.441 361.745 265.345 362.187 265.345 362.75V366H264.253ZM271.634 366.156C271.019 366.156 270.473 366.017 269.996 365.74C269.519 365.454 269.142 365.06 268.865 364.557C268.596 364.054 268.462 363.461 268.462 362.776C268.462 362.1 268.596 361.511 268.865 361.008C269.134 360.497 269.506 360.102 269.983 359.825C270.468 359.539 271.027 359.396 271.66 359.396C272.284 359.396 272.821 359.539 273.272 359.825C273.731 360.102 274.082 360.471 274.325 360.93C274.568 361.389 274.689 361.883 274.689 362.412C274.689 362.507 274.685 362.603 274.676 362.698C274.676 362.793 274.676 362.902 274.676 363.023H269.541C269.567 363.517 269.68 363.929 269.879 364.258C270.087 364.579 270.343 364.821 270.646 364.986C270.958 365.151 271.287 365.233 271.634 365.233C272.085 365.233 272.462 365.129 272.765 364.921C273.068 364.713 273.289 364.431 273.428 364.076H274.507C274.334 364.674 274 365.172 273.506 365.571C273.021 365.961 272.397 366.156 271.634 366.156ZM271.634 360.319C271.114 360.319 270.65 360.479 270.243 360.8C269.844 361.112 269.615 361.571 269.554 362.178H273.61C273.584 361.597 273.385 361.142 273.012 360.813C272.639 360.484 272.18 360.319 271.634 360.319ZM279.061 366.156C278.42 366.156 277.857 366.009 277.371 365.714C276.895 365.419 276.522 365.016 276.253 364.505C275.993 363.994 275.863 363.413 275.863 362.763C275.863 362.113 275.998 361.537 276.266 361.034C276.535 360.523 276.908 360.124 277.384 359.838C277.861 359.543 278.424 359.396 279.074 359.396C279.603 359.396 280.071 359.504 280.478 359.721C280.886 359.938 281.202 360.241 281.427 360.631V356.64H282.519V366H281.531L281.427 364.934C281.219 365.246 280.92 365.528 280.53 365.779C280.14 366.03 279.651 366.156 279.061 366.156ZM279.178 365.207C279.612 365.207 279.993 365.107 280.322 364.908C280.66 364.7 280.92 364.414 281.102 364.05C281.293 363.686 281.388 363.261 281.388 362.776C281.388 362.291 281.293 361.866 281.102 361.502C280.92 361.138 280.66 360.856 280.322 360.657C279.993 360.449 279.612 360.345 279.178 360.345C278.754 360.345 278.372 360.449 278.034 360.657C277.705 360.856 277.445 361.138 277.254 361.502C277.072 361.866 276.981 362.291 276.981 362.776C276.981 363.261 277.072 363.686 277.254 364.05C277.445 364.414 277.705 364.7 278.034 364.908C278.372 365.107 278.754 365.207 279.178 365.207ZM284.962 358.122C284.746 358.122 284.564 358.053 284.416 357.914C284.278 357.767 284.208 357.585 284.208 357.368C284.208 357.16 284.278 356.987 284.416 356.848C284.564 356.709 284.746 356.64 284.962 356.64C285.17 356.64 285.348 356.709 285.495 356.848C285.643 356.987 285.716 357.16 285.716 357.368C285.716 357.585 285.643 357.767 285.495 357.914C285.348 358.053 285.17 358.122 284.962 358.122ZM284.416 366V359.552H285.508V366H284.416ZM289.958 366C289.368 366 288.905 365.857 288.567 365.571C288.229 365.285 288.06 364.769 288.06 364.024V360.475H286.942V359.552H288.06L288.203 358.005H289.152V359.552H291.05V360.475H289.152V364.024C289.152 364.431 289.234 364.709 289.399 364.856C289.563 364.995 289.854 365.064 290.27 365.064H290.946V366H289.958ZM295.942 366V356.9H297.034V365.129H301.272V366H295.942ZM303.371 358.122C303.154 358.122 302.972 358.053 302.825 357.914C302.686 357.767 302.617 357.585 302.617 357.368C302.617 357.16 302.686 356.987 302.825 356.848C302.972 356.709 303.154 356.64 303.371 356.64C303.579 356.64 303.756 356.709 303.904 356.848C304.051 356.987 304.125 357.16 304.125 357.368C304.125 357.585 304.051 357.767 303.904 357.914C303.756 358.053 303.579 358.122 303.371 358.122ZM302.825 366V359.552H303.917V366H302.825ZM305.818 366V359.552H306.806L306.871 360.709C307.079 360.302 307.378 359.981 307.768 359.747C308.158 359.513 308.6 359.396 309.094 359.396C309.857 359.396 310.463 359.63 310.914 360.098C311.373 360.557 311.603 361.268 311.603 362.23V366H310.511V362.347C310.511 361.004 309.956 360.332 308.847 360.332C308.292 360.332 307.829 360.536 307.456 360.943C307.092 361.342 306.91 361.914 306.91 362.659V366H305.818ZM316.156 366.156C315.541 366.156 314.995 366.017 314.518 365.74C314.042 365.454 313.665 365.06 313.387 364.557C313.119 364.054 312.984 363.461 312.984 362.776C312.984 362.1 313.119 361.511 313.387 361.008C313.656 360.497 314.029 360.102 314.505 359.825C314.991 359.539 315.55 359.396 316.182 359.396C316.806 359.396 317.344 359.539 317.794 359.825C318.254 360.102 318.605 360.471 318.847 360.93C319.09 361.389 319.211 361.883 319.211 362.412C319.211 362.507 319.207 362.603 319.198 362.698C319.198 362.793 319.198 362.902 319.198 363.023H314.063C314.089 363.517 314.202 363.929 314.401 364.258C314.609 364.579 314.865 364.821 315.168 364.986C315.48 365.151 315.81 365.233 316.156 365.233C316.607 365.233 316.984 365.129 317.287 364.921C317.591 364.713 317.812 364.431 317.95 364.076H319.029C318.856 364.674 318.522 365.172 318.028 365.571C317.543 365.961 316.919 366.156 316.156 366.156ZM316.156 360.319C315.636 360.319 315.173 360.479 314.765 360.8C314.367 361.112 314.137 361.571 314.076 362.178H318.132C318.106 361.597 317.907 361.142 317.534 360.813C317.162 360.484 316.702 360.319 316.156 360.319Z" fill="white"/>
<path d="M288 268L283.979 270.321L273.021 276.679L269 279V301L273.021 303.321L284.079 309.679L288.1 312L292.122 309.679L302.979 303.321L307 301V279L302.979 276.679L292.021 270.321L288 268ZM277.042 296.358V283.642L288 277.284L298.958 283.642V296.358L288 302.716L277.042 296.358Z" fill="white"/>
<path d="M116.065 474V463.5H119.47C120.7 463.5 121.71 463.715 122.5 464.145C123.3 464.575 123.89 465.185 124.27 465.975C124.66 466.755 124.855 467.685 124.855 468.765C124.855 469.835 124.66 470.765 124.27 471.555C123.89 472.335 123.3 472.94 122.5 473.37C121.71 473.79 120.7 474 119.47 474H116.065ZM117.655 472.65H119.41C120.36 472.65 121.11 472.495 121.66 472.185C122.22 471.875 122.62 471.43 122.86 470.85C123.11 470.27 123.235 469.575 123.235 468.765C123.235 467.955 123.11 467.255 122.86 466.665C122.62 466.075 122.22 465.625 121.66 465.315C121.11 464.995 120.36 464.835 119.41 464.835H117.655V472.65ZM129.072 474.18C128.442 474.18 127.922 474.075 127.512 473.865C127.102 473.655 126.797 473.38 126.597 473.04C126.397 472.69 126.297 472.31 126.297 471.9C126.297 471.18 126.577 470.61 127.137 470.19C127.697 469.77 128.497 469.56 129.537 469.56H131.487V469.425C131.487 468.845 131.327 468.41 131.007 468.12C130.697 467.83 130.292 467.685 129.792 467.685C129.352 467.685 128.967 467.795 128.637 468.015C128.317 468.225 128.122 468.54 128.052 468.96H126.462C126.512 468.42 126.692 467.96 127.002 467.58C127.322 467.19 127.722 466.895 128.202 466.695C128.692 466.485 129.227 466.38 129.807 466.38C130.847 466.38 131.652 466.655 132.222 467.205C132.792 467.745 133.077 468.485 133.077 469.425V474H131.697L131.562 472.725C131.352 473.135 131.047 473.48 130.647 473.76C130.247 474.04 129.722 474.18 129.072 474.18ZM129.387 472.89C129.817 472.89 130.177 472.79 130.467 472.59C130.767 472.38 130.997 472.105 131.157 471.765C131.327 471.425 131.432 471.05 131.472 470.64H129.702C129.072 470.64 128.622 470.75 128.352 470.97C128.092 471.19 127.962 471.465 127.962 471.795C127.962 472.135 128.087 472.405 128.337 472.605C128.597 472.795 128.947 472.89 129.387 472.89ZM135.831 465.15C135.531 465.15 135.281 465.06 135.081 464.88C134.891 464.69 134.796 464.455 134.796 464.175C134.796 463.895 134.891 463.665 135.081 463.485C135.281 463.295 135.531 463.2 135.831 463.2C136.131 463.2 136.376 463.295 136.566 463.485C136.766 463.665 136.866 463.895 136.866 464.175C136.866 464.455 136.766 464.69 136.566 464.88C136.376 465.06 136.131 465.15 135.831 465.15ZM135.036 474V466.56H136.626V474H135.036Z" fill="white"/>
<path opacity="0.5" d="M96.953 496.156C96.0603 496.156 95.289 495.961 94.639 495.571C93.9977 495.172 93.4993 494.622 93.144 493.92C92.7887 493.209 92.611 492.386 92.611 491.45C92.611 490.523 92.7887 489.708 93.144 489.006C93.4993 488.295 93.9977 487.741 94.639 487.342C95.289 486.943 96.0603 486.744 96.953 486.744C97.993 486.744 98.838 486.995 99.488 487.498C100.147 487.992 100.567 488.685 100.749 489.578H99.54C99.4013 489.015 99.1153 488.564 98.682 488.226C98.2573 487.879 97.681 487.706 96.953 487.706C96.303 487.706 95.7353 487.858 95.25 488.161C94.7647 488.456 94.3877 488.885 94.119 489.448C93.859 490.003 93.729 490.67 93.729 491.45C93.729 492.23 93.859 492.902 94.119 493.465C94.3877 494.02 94.7647 494.449 95.25 494.752C95.7353 495.047 96.303 495.194 96.953 495.194C97.681 495.194 98.2573 495.029 98.682 494.7C99.1153 494.362 99.4013 493.916 99.54 493.361H100.749C100.567 494.236 100.147 494.921 99.488 495.415C98.838 495.909 97.993 496.156 96.953 496.156ZM102.253 496V489.552H103.241L103.332 490.787C103.532 490.362 103.835 490.024 104.242 489.773C104.65 489.522 105.152 489.396 105.75 489.396V490.54H105.451C105.07 490.54 104.719 490.609 104.398 490.748C104.078 490.878 103.822 491.103 103.631 491.424C103.441 491.745 103.345 492.187 103.345 492.75V496H102.253ZM109.634 496.156C109.019 496.156 108.473 496.017 107.996 495.74C107.519 495.454 107.142 495.06 106.865 494.557C106.596 494.054 106.462 493.461 106.462 492.776C106.462 492.1 106.596 491.511 106.865 491.008C107.134 490.497 107.506 490.102 107.983 489.825C108.468 489.539 109.027 489.396 109.66 489.396C110.284 489.396 110.821 489.539 111.272 489.825C111.731 490.102 112.082 490.471 112.325 490.93C112.568 491.389 112.689 491.883 112.689 492.412C112.689 492.507 112.685 492.603 112.676 492.698C112.676 492.793 112.676 492.902 112.676 493.023H107.541C107.567 493.517 107.68 493.929 107.879 494.258C108.087 494.579 108.343 494.821 108.646 494.986C108.958 495.151 109.287 495.233 109.634 495.233C110.085 495.233 110.462 495.129 110.765 494.921C111.068 494.713 111.289 494.431 111.428 494.076H112.507C112.334 494.674 112 495.172 111.506 495.571C111.021 495.961 110.397 496.156 109.634 496.156ZM109.634 490.319C109.114 490.319 108.65 490.479 108.243 490.8C107.844 491.112 107.615 491.571 107.554 492.178H111.61C111.584 491.597 111.385 491.142 111.012 490.813C110.639 490.484 110.18 490.319 109.634 490.319ZM117.061 496.156C116.42 496.156 115.857 496.009 115.371 495.714C114.895 495.419 114.522 495.016 114.253 494.505C113.993 493.994 113.863 493.413 113.863 492.763C113.863 492.113 113.998 491.537 114.266 491.034C114.535 490.523 114.908 490.124 115.384 489.838C115.861 489.543 116.424 489.396 117.074 489.396C117.603 489.396 118.071 489.504 118.478 489.721C118.886 489.938 119.202 490.241 119.427 490.631V486.64H120.519V496H119.531L119.427 494.934C119.219 495.246 118.92 495.528 118.53 495.779C118.14 496.03 117.651 496.156 117.061 496.156ZM117.178 495.207C117.612 495.207 117.993 495.107 118.322 494.908C118.66 494.7 118.92 494.414 119.102 494.05C119.293 493.686 119.388 493.261 119.388 492.776C119.388 492.291 119.293 491.866 119.102 491.502C118.92 491.138 118.66 490.856 118.322 490.657C117.993 490.449 117.612 490.345 117.178 490.345C116.754 490.345 116.372 490.449 116.034 490.657C115.705 490.856 115.445 491.138 115.254 491.502C115.072 491.866 114.981 492.291 114.981 492.776C114.981 493.261 115.072 493.686 115.254 494.05C115.445 494.414 115.705 494.7 116.034 494.908C116.372 495.107 116.754 495.207 117.178 495.207ZM122.962 488.122C122.746 488.122 122.564 488.053 122.416 487.914C122.278 487.767 122.208 487.585 122.208 487.368C122.208 487.16 122.278 486.987 122.416 486.848C122.564 486.709 122.746 486.64 122.962 486.64C123.17 486.64 123.348 486.709 123.495 486.848C123.643 486.987 123.716 487.16 123.716 487.368C123.716 487.585 123.643 487.767 123.495 487.914C123.348 488.053 123.17 488.122 122.962 488.122ZM122.416 496V489.552H123.508V496H122.416ZM127.958 496C127.368 496 126.905 495.857 126.567 495.571C126.229 495.285 126.06 494.769 126.06 494.024V490.475H124.942V489.552H126.06L126.203 488.005H127.152V489.552H129.05V490.475H127.152V494.024C127.152 494.431 127.234 494.709 127.399 494.856C127.563 494.995 127.854 495.064 128.27 495.064H128.946V496H127.958ZM133.942 496V486.9H135.034V495.129H139.272V496H133.942ZM141.371 488.122C141.154 488.122 140.972 488.053 140.825 487.914C140.686 487.767 140.617 487.585 140.617 487.368C140.617 487.16 140.686 486.987 140.825 486.848C140.972 486.709 141.154 486.64 141.371 486.64C141.579 486.64 141.756 486.709 141.904 486.848C142.051 486.987 142.125 487.16 142.125 487.368C142.125 487.585 142.051 487.767 141.904 487.914C141.756 488.053 141.579 488.122 141.371 488.122ZM140.825 496V489.552H141.917V496H140.825ZM143.818 496V489.552H144.806L144.871 490.709C145.079 490.302 145.378 489.981 145.768 489.747C146.158 489.513 146.6 489.396 147.094 489.396C147.857 489.396 148.463 489.63 148.914 490.098C149.373 490.557 149.603 491.268 149.603 492.23V496H148.511V492.347C148.511 491.004 147.956 490.332 146.847 490.332C146.292 490.332 145.829 490.536 145.456 490.943C145.092 491.342 144.91 491.914 144.91 492.659V496H143.818ZM154.156 496.156C153.541 496.156 152.995 496.017 152.518 495.74C152.042 495.454 151.665 495.06 151.387 494.557C151.119 494.054 150.984 493.461 150.984 492.776C150.984 492.1 151.119 491.511 151.387 491.008C151.656 490.497 152.029 490.102 152.505 489.825C152.991 489.539 153.55 489.396 154.182 489.396C154.806 489.396 155.344 489.539 155.794 489.825C156.254 490.102 156.605 490.471 156.847 490.93C157.09 491.389 157.211 491.883 157.211 492.412C157.211 492.507 157.207 492.603 157.198 492.698C157.198 492.793 157.198 492.902 157.198 493.023H152.063C152.089 493.517 152.202 493.929 152.401 494.258C152.609 494.579 152.865 494.821 153.168 494.986C153.48 495.151 153.81 495.233 154.156 495.233C154.607 495.233 154.984 495.129 155.287 494.921C155.591 494.713 155.812 494.431 155.95 494.076H157.029C156.856 494.674 156.522 495.172 156.028 495.571C155.543 495.961 154.919 496.156 154.156 496.156ZM154.156 490.319C153.636 490.319 153.173 490.479 152.765 490.8C152.367 491.112 152.137 491.571 152.076 492.178H156.132C156.106 491.597 155.907 491.142 155.534 490.813C155.162 490.484 154.702 490.319 154.156 490.319Z" fill="white"/>
<path d="M111.367 438.743V438.622C111.367 437.042 111.367 435.463 111.367 433.904C111.367 433.378 111.367 432.831 111.367 432.305V427.547C111.367 427.283 111.367 427.243 111.041 427.243H106.627C106.383 427.243 106.281 427.243 106.281 426.919C106.281 425.644 106.281 424.348 106.281 423.072H111.001C111.265 423.072 111.367 423.072 111.367 422.728C111.367 421.452 111.367 420.197 111.367 418.921C111.367 418.679 111.367 418.618 111.041 418.618H106.627C106.383 418.618 106.281 418.618 106.281 418.294C106.281 417.12 106.281 415.925 106.281 414.73C106.281 414.508 106.281 414.447 106.607 414.447C108.051 414.447 109.516 414.447 110.98 414.447C111.285 414.447 111.367 414.447 111.367 414.062V403.149C111.367 402.825 111.367 402.744 111.774 402.744H127.03C128.129 402.785 129.247 402.906 130.326 403.109C132.563 403.514 134.72 404.323 136.693 405.457C137.995 406.227 139.195 407.138 140.273 408.211C141.066 409.041 141.799 409.952 142.45 410.904C143.101 411.875 143.629 412.908 144.036 414.001C144.097 414.285 144.362 414.467 144.646 414.427C145.847 414.427 147.067 414.427 148.288 414.427C148.756 414.427 148.756 414.427 148.776 414.872V418.193C148.776 418.517 148.654 418.598 148.328 418.598H145.521C145.237 418.598 145.155 418.598 145.176 418.962C145.277 420.197 145.277 421.432 145.176 422.667C145.176 423.011 145.176 423.052 145.562 423.052H148.776C148.776 423.052 148.776 425.947 148.776 426.757C148.776 427.101 148.674 427.202 148.369 427.202C147.088 427.202 145.806 427.202 144.525 427.202C144.26 427.162 143.996 427.324 143.935 427.587C143.019 429.956 141.555 432.082 139.663 433.783C138.971 434.41 138.279 435.018 137.486 435.524C136.693 436.03 135.879 436.476 135.045 436.86C133.499 437.549 131.892 438.055 130.244 438.379C128.678 438.662 127.071 438.784 125.484 438.764H111.367V438.743ZM139.459 427.263H138.422H115.862C115.557 427.263 115.456 427.263 115.456 427.668C115.456 430.017 115.456 432.345 115.456 434.694C115.456 435.018 115.456 435.099 115.862 435.099H126.278C126.827 435.099 127.539 435.058 128.047 434.998C129.593 434.775 130.773 434.552 132.177 434.026C132.685 433.844 133.723 433.378 133.804 433.337C136.245 432.082 138.219 430.078 139.48 427.648C139.48 427.648 139.622 427.344 139.459 427.263ZM139.459 414.103C139.256 413.657 139.012 413.232 138.727 412.827C138.3 412.139 137.791 411.511 137.222 410.944C136.957 410.6 136.632 410.296 136.286 410.033C134.516 408.535 132.441 407.482 130.183 406.956C129.044 406.692 127.885 406.571 126.725 406.591C123.084 406.591 119.443 406.591 115.801 406.591C115.496 406.591 115.456 406.713 115.456 406.976C115.456 409.365 115.456 411.774 115.456 414.163C115.456 414.467 115.456 414.548 115.842 414.548H139.317C139.317 414.548 139.581 414.548 139.561 414.386C139.561 414.386 139.5 414.184 139.459 414.103ZM128.068 423.052H140.436C140.7 423.052 140.822 423.052 140.843 422.708C140.944 421.452 140.944 420.197 140.843 418.942C140.843 418.699 140.721 418.598 140.456 418.598H115.842C115.537 418.598 115.456 418.699 115.456 418.982V422.586C115.456 423.052 115.456 423.052 115.944 423.052H128.068Z" fill="#FEFEFD"/>
<path d="M204.065 474V463.5H207.74C208.56 463.5 209.24 463.64 209.78 463.92C210.32 464.19 210.72 464.565 210.98 465.045C211.25 465.515 211.385 466.05 211.385 466.65C211.385 467.22 211.255 467.745 210.995 468.225C210.745 468.695 210.35 469.07 209.81 469.35C209.27 469.63 208.58 469.77 207.74 469.77H205.655V474H204.065ZM205.655 468.465H207.665C208.415 468.465 208.95 468.305 209.27 467.985C209.6 467.655 209.765 467.21 209.765 466.65C209.765 466.07 209.6 465.62 209.27 465.3C208.95 464.97 208.415 464.805 207.665 464.805H205.655V468.465ZM215.966 474.18C215.256 474.18 214.616 474.02 214.046 473.7C213.486 473.37 213.041 472.915 212.711 472.335C212.381 471.745 212.216 471.06 212.216 470.28C212.216 469.5 212.381 468.82 212.711 468.24C213.051 467.65 213.506 467.195 214.076 466.875C214.646 466.545 215.281 466.38 215.981 466.38C216.691 466.38 217.326 466.545 217.886 466.875C218.456 467.195 218.906 467.65 219.236 468.24C219.576 468.82 219.746 469.5 219.746 470.28C219.746 471.06 219.576 471.745 219.236 472.335C218.906 472.915 218.456 473.37 217.886 473.7C217.316 474.02 216.676 474.18 215.966 474.18ZM215.966 472.815C216.346 472.815 216.696 472.72 217.016 472.53C217.346 472.34 217.611 472.06 217.811 471.69C218.011 471.31 218.111 470.84 218.111 470.28C218.111 469.72 218.011 469.255 217.811 468.885C217.621 468.505 217.361 468.22 217.031 468.03C216.711 467.84 216.361 467.745 215.981 467.745C215.601 467.745 215.246 467.84 214.916 468.03C214.596 468.22 214.336 468.505 214.136 468.885C213.936 469.255 213.836 469.72 213.836 470.28C213.836 470.84 213.936 471.31 214.136 471.69C214.336 472.06 214.596 472.34 214.916 472.53C215.236 472.72 215.586 472.815 215.966 472.815ZM221.466 474V463.2H223.056V474H221.466ZM225.069 474V463.2H226.659V469.635L229.509 466.56H231.414L228.249 469.935L231.879 474H229.869L226.659 470.19V474H225.069ZM235.47 474.18C234.84 474.18 234.32 474.075 233.91 473.865C233.5 473.655 233.195 473.38 232.995 473.04C232.795 472.69 232.695 472.31 232.695 471.9C232.695 471.18 232.975 470.61 233.535 470.19C234.095 469.77 234.895 469.56 235.935 469.56H237.885V469.425C237.885 468.845 237.725 468.41 237.405 468.12C237.095 467.83 236.69 467.685 236.19 467.685C235.75 467.685 235.365 467.795 235.035 468.015C234.715 468.225 234.52 468.54 234.45 468.96H232.86C232.91 468.42 233.09 467.96 233.4 467.58C233.72 467.19 234.12 466.895 234.6 466.695C235.09 466.485 235.625 466.38 236.205 466.38C237.245 466.38 238.05 466.655 238.62 467.205C239.19 467.745 239.475 468.485 239.475 469.425V474H238.095L237.96 472.725C237.75 473.135 237.445 473.48 237.045 473.76C236.645 474.04 236.12 474.18 235.47 474.18ZM235.785 472.89C236.215 472.89 236.575 472.79 236.865 472.59C237.165 472.38 237.395 472.105 237.555 471.765C237.725 471.425 237.83 471.05 237.87 470.64H236.1C235.47 470.64 235.02 470.75 234.75 470.97C234.49 471.19 234.36 471.465 234.36 471.795C234.36 472.135 234.485 472.405 234.735 472.605C234.995 472.795 235.345 472.89 235.785 472.89ZM244.719 474.18C243.999 474.18 243.364 474.01 242.814 473.67C242.264 473.33 241.834 472.865 241.524 472.275C241.214 471.685 241.059 471.015 241.059 470.265C241.059 469.515 241.214 468.85 241.524 468.27C241.834 467.68 242.264 467.22 242.814 466.89C243.374 466.55 244.014 466.38 244.734 466.38C245.324 466.38 245.839 466.495 246.279 466.725C246.729 466.955 247.079 467.28 247.329 467.7V463.2H248.919V474H247.494L247.329 472.845C247.089 473.195 246.759 473.505 246.339 473.775C245.919 474.045 245.379 474.18 244.719 474.18ZM245.004 472.8C245.684 472.8 246.239 472.565 246.669 472.095C247.109 471.625 247.329 471.02 247.329 470.28C247.329 469.53 247.109 468.925 246.669 468.465C246.239 467.995 245.684 467.76 245.004 467.76C244.324 467.76 243.764 467.995 243.324 468.465C242.884 468.925 242.664 469.53 242.664 470.28C242.664 470.77 242.764 471.205 242.964 471.585C243.164 471.965 243.439 472.265 243.789 472.485C244.149 472.695 244.554 472.8 245.004 472.8ZM254.404 474.18C253.694 474.18 253.054 474.02 252.484 473.7C251.924 473.37 251.479 472.915 251.149 472.335C250.819 471.745 250.654 471.06 250.654 470.28C250.654 469.5 250.819 468.82 251.149 468.24C251.489 467.65 251.944 467.195 252.514 466.875C253.084 466.545 253.719 466.38 254.419 466.38C255.129 466.38 255.764 466.545 256.324 466.875C256.894 467.195 257.344 467.65 257.674 468.24C258.014 468.82 258.184 469.5 258.184 470.28C258.184 471.06 258.014 471.745 257.674 472.335C257.344 472.915 256.894 473.37 256.324 473.7C255.754 474.02 255.114 474.18 254.404 474.18ZM254.404 472.815C254.784 472.815 255.134 472.72 255.454 472.53C255.784 472.34 256.049 472.06 256.249 471.69C256.449 471.31 256.549 470.84 256.549 470.28C256.549 469.72 256.449 469.255 256.249 468.885C256.059 468.505 255.799 468.22 255.469 468.03C255.149 467.84 254.799 467.745 254.419 467.745C254.039 467.745 253.684 467.84 253.354 468.03C253.034 468.22 252.774 468.505 252.574 468.885C252.374 469.255 252.274 469.72 252.274 470.28C252.274 470.84 252.374 471.31 252.574 471.69C252.774 472.06 253.034 472.34 253.354 472.53C253.674 472.72 254.024 472.815 254.404 472.815ZM262.73 474C262 474 261.42 473.825 260.99 473.475C260.56 473.115 260.345 472.48 260.345 471.57V467.895H259.07V466.56H260.345L260.54 464.67H261.935V466.56H264.035V467.895H261.935V471.57C261.935 471.98 262.02 472.265 262.19 472.425C262.37 472.575 262.675 472.65 263.105 472.65H263.96V474H262.73Z" fill="white"/>
<path opacity="0.5" d="M204.953 496.156C204.06 496.156 203.289 495.961 202.639 495.571C201.998 495.172 201.499 494.622 201.144 493.92C200.789 493.209 200.611 492.386 200.611 491.45C200.611 490.523 200.789 489.708 201.144 489.006C201.499 488.295 201.998 487.741 202.639 487.342C203.289 486.943 204.06 486.744 204.953 486.744C205.993 486.744 206.838 486.995 207.488 487.498C208.147 487.992 208.567 488.685 208.749 489.578H207.54C207.401 489.015 207.115 488.564 206.682 488.226C206.257 487.879 205.681 487.706 204.953 487.706C204.303 487.706 203.735 487.858 203.25 488.161C202.765 488.456 202.388 488.885 202.119 489.448C201.859 490.003 201.729 490.67 201.729 491.45C201.729 492.23 201.859 492.902 202.119 493.465C202.388 494.02 202.765 494.449 203.25 494.752C203.735 495.047 204.303 495.194 204.953 495.194C205.681 495.194 206.257 495.029 206.682 494.7C207.115 494.362 207.401 493.916 207.54 493.361H208.749C208.567 494.236 208.147 494.921 207.488 495.415C206.838 495.909 205.993 496.156 204.953 496.156ZM210.253 496V489.552H211.241L211.332 490.787C211.532 490.362 211.835 490.024 212.242 489.773C212.65 489.522 213.152 489.396 213.75 489.396V490.54H213.451C213.07 490.54 212.719 490.609 212.398 490.748C212.078 490.878 211.822 491.103 211.631 491.424C211.441 491.745 211.345 492.187 211.345 492.75V496H210.253ZM217.634 496.156C217.019 496.156 216.473 496.017 215.996 495.74C215.519 495.454 215.142 495.06 214.865 494.557C214.596 494.054 214.462 493.461 214.462 492.776C214.462 492.1 214.596 491.511 214.865 491.008C215.134 490.497 215.506 490.102 215.983 489.825C216.468 489.539 217.027 489.396 217.66 489.396C218.284 489.396 218.821 489.539 219.272 489.825C219.731 490.102 220.082 490.471 220.325 490.93C220.568 491.389 220.689 491.883 220.689 492.412C220.689 492.507 220.685 492.603 220.676 492.698C220.676 492.793 220.676 492.902 220.676 493.023H215.541C215.567 493.517 215.68 493.929 215.879 494.258C216.087 494.579 216.343 494.821 216.646 494.986C216.958 495.151 217.287 495.233 217.634 495.233C218.085 495.233 218.462 495.129 218.765 494.921C219.068 494.713 219.289 494.431 219.428 494.076H220.507C220.334 494.674 220 495.172 219.506 495.571C219.021 495.961 218.397 496.156 217.634 496.156ZM217.634 490.319C217.114 490.319 216.65 490.479 216.243 490.8C215.844 491.112 215.615 491.571 215.554 492.178H219.61C219.584 491.597 219.385 491.142 219.012 490.813C218.639 490.484 218.18 490.319 217.634 490.319ZM225.061 496.156C224.42 496.156 223.857 496.009 223.371 495.714C222.895 495.419 222.522 495.016 222.253 494.505C221.993 493.994 221.863 493.413 221.863 492.763C221.863 492.113 221.998 491.537 222.266 491.034C222.535 490.523 222.908 490.124 223.384 489.838C223.861 489.543 224.424 489.396 225.074 489.396C225.603 489.396 226.071 489.504 226.478 489.721C226.886 489.938 227.202 490.241 227.427 490.631V486.64H228.519V496H227.531L227.427 494.934C227.219 495.246 226.92 495.528 226.53 495.779C226.14 496.03 225.651 496.156 225.061 496.156ZM225.178 495.207C225.612 495.207 225.993 495.107 226.322 494.908C226.66 494.7 226.92 494.414 227.102 494.05C227.293 493.686 227.388 493.261 227.388 492.776C227.388 492.291 227.293 491.866 227.102 491.502C226.92 491.138 226.66 490.856 226.322 490.657C225.993 490.449 225.612 490.345 225.178 490.345C224.754 490.345 224.372 490.449 224.034 490.657C223.705 490.856 223.445 491.138 223.254 491.502C223.072 491.866 222.981 492.291 222.981 492.776C222.981 493.261 223.072 493.686 223.254 494.05C223.445 494.414 223.705 494.7 224.034 494.908C224.372 495.107 224.754 495.207 225.178 495.207ZM230.962 488.122C230.746 488.122 230.564 488.053 230.416 487.914C230.278 487.767 230.208 487.585 230.208 487.368C230.208 487.16 230.278 486.987 230.416 486.848C230.564 486.709 230.746 486.64 230.962 486.64C231.17 486.64 231.348 486.709 231.495 486.848C231.643 486.987 231.716 487.16 231.716 487.368C231.716 487.585 231.643 487.767 231.495 487.914C231.348 488.053 231.17 488.122 230.962 488.122ZM230.416 496V489.552H231.508V496H230.416ZM235.958 496C235.368 496 234.905 495.857 234.567 495.571C234.229 495.285 234.06 494.769 234.06 494.024V490.475H232.942V489.552H234.06L234.203 488.005H235.152V489.552H237.05V490.475H235.152V494.024C235.152 494.431 235.234 494.709 235.399 494.856C235.563 494.995 235.854 495.064 236.27 495.064H236.946V496H235.958ZM241.942 496V486.9H243.034V495.129H247.272V496H241.942ZM249.371 488.122C249.154 488.122 248.972 488.053 248.825 487.914C248.686 487.767 248.617 487.585 248.617 487.368C248.617 487.16 248.686 486.987 248.825 486.848C248.972 486.709 249.154 486.64 249.371 486.64C249.579 486.64 249.756 486.709 249.904 486.848C250.051 486.987 250.125 487.16 250.125 487.368C250.125 487.585 250.051 487.767 249.904 487.914C249.756 488.053 249.579 488.122 249.371 488.122ZM248.825 496V489.552H249.917V496H248.825ZM251.818 496V489.552H252.806L252.871 490.709C253.079 490.302 253.378 489.981 253.768 489.747C254.158 489.513 254.6 489.396 255.094 489.396C255.857 489.396 256.463 489.63 256.914 490.098C257.373 490.557 257.603 491.268 257.603 492.23V496H256.511V492.347C256.511 491.004 255.956 490.332 254.847 490.332C254.292 490.332 253.829 490.536 253.456 490.943C253.092 491.342 252.91 491.914 252.91 492.659V496H251.818ZM262.156 496.156C261.541 496.156 260.995 496.017 260.518 495.74C260.042 495.454 259.665 495.06 259.387 494.557C259.119 494.054 258.984 493.461 258.984 492.776C258.984 492.1 259.119 491.511 259.387 491.008C259.656 490.497 260.029 490.102 260.505 489.825C260.991 489.539 261.55 489.396 262.182 489.396C262.806 489.396 263.344 489.539 263.794 489.825C264.254 490.102 264.605 490.471 264.847 490.93C265.09 491.389 265.211 491.883 265.211 492.412C265.211 492.507 265.207 492.603 265.198 492.698C265.198 492.793 265.198 492.902 265.198 493.023H260.063C260.089 493.517 260.202 493.929 260.401 494.258C260.609 494.579 260.865 494.821 261.168 494.986C261.48 495.151 261.81 495.233 262.156 495.233C262.607 495.233 262.984 495.129 263.287 494.921C263.591 494.713 263.812 494.431 263.95 494.076H265.029C264.856 494.674 264.522 495.172 264.028 495.571C263.543 495.961 262.919 496.156 262.156 496.156ZM262.156 490.319C261.636 490.319 261.173 490.479 260.765 490.8C260.367 491.112 260.137 491.571 260.076 492.178H264.132C264.106 491.597 263.907 491.142 263.534 490.813C263.162 490.484 262.702 490.319 262.156 490.319Z" fill="white"/>
<path d="M236.136 399C231.596 399.017 227.248 400.856 224.038 404.115C220.828 407.374 219.017 411.789 219 416.398C219 418.32 219.305 420.229 219.903 422.052C220.118 422.649 220.549 423.14 221.109 423.424C221.669 423.708 222.314 423.764 222.913 423.58C223.494 423.356 223.969 422.915 224.241 422.347C224.513 421.779 224.561 421.127 224.375 420.524C223.866 419.106 223.64 417.6 223.709 416.093C223.78 413.659 224.546 411.299 225.915 409.301C227.283 407.302 229.195 405.75 231.416 404.834C233.638 403.919 236.074 403.679 238.427 404.144C240.781 404.609 242.95 405.759 244.672 407.454C246.393 409.148 247.592 411.314 248.122 413.689C248.652 416.063 248.491 418.542 247.658 420.825C246.826 423.108 245.357 425.096 243.431 426.546C241.506 427.996 239.206 428.847 236.813 428.994C236.813 428.994 234.416 429.147 233.212 429.3C232.77 429.363 232.332 429.45 231.9 429.562C231.869 429.585 231.831 429.597 231.792 429.594C231.753 429.591 231.717 429.574 231.689 429.546C231.662 429.519 231.645 429.482 231.642 429.442C231.64 429.403 231.651 429.364 231.674 429.332L232.051 427.27L234.308 416.889C234.438 416.271 234.32 415.626 233.982 415.096C233.643 414.566 233.111 414.194 232.502 414.063C231.893 413.931 231.258 414.05 230.736 414.394C230.214 414.738 229.848 415.278 229.718 415.896C229.718 415.896 224.343 441.241 224.343 441.47C224.269 441.776 224.257 442.093 224.308 442.404C224.359 442.715 224.473 443.011 224.641 443.276C224.809 443.541 225.028 443.768 225.286 443.943C225.543 444.119 225.833 444.239 226.138 444.297C226.44 444.37 226.753 444.38 227.059 444.327C227.365 444.274 227.657 444.158 227.918 443.986C228.178 443.815 228.401 443.591 228.574 443.329C228.747 443.068 228.865 442.773 228.922 442.463C228.998 442.157 229.675 438.796 229.675 438.796C229.924 437.558 230.541 436.428 231.443 435.558C232.344 434.687 233.487 434.118 234.717 433.928C235.233 433.851 237.415 433.698 237.415 433.698C241.776 433.289 245.817 431.199 248.706 427.858C251.596 424.516 253.115 420.178 252.952 415.734C252.788 411.291 250.953 407.08 247.826 403.967C244.698 400.855 240.515 399.077 236.136 399Z" fill="white"/>
<path d="M241.645 439.068C241.274 438.992 240.892 438.99 240.521 439.064C240.15 439.138 239.797 439.286 239.482 439.499C239.168 439.712 238.898 439.986 238.688 440.306C238.478 440.625 238.332 440.983 238.259 441.36C238.179 441.737 238.174 442.126 238.245 442.504C238.316 442.883 238.461 443.243 238.672 443.563C238.882 443.884 239.154 444.158 239.471 444.37C239.788 444.582 240.143 444.728 240.516 444.798C240.887 444.884 241.271 444.892 241.644 444.822C242.018 444.751 242.374 444.604 242.69 444.39C243.006 444.175 243.275 443.898 243.482 443.574C243.689 443.25 243.828 442.887 243.892 442.506C244.018 441.75 243.856 440.974 243.439 440.335C243.021 439.696 242.38 439.243 241.645 439.068Z" fill="white"/>
</svg>
