<svg width="64" height="64" viewBox="0 0 64 64" fill="none" xmlns="http://www.w3.org/2000/svg">
<path d="M42.4201 34.48C42.4201 46.08 37.7601 50 32.0001 50C26.2401 50 21.5801 46.08 21.5801 34.48C21.5801 22.88 26.2401 8 32.0001 8C37.7601 8 42.4201 22.88 42.4201 34.48Z" fill="#565656"/>
<path d="M27.55 29.8701C27.55 30.4501 27.2 30.9201 26.77 30.9201C26.34 30.9201 26 30.4501 26 29.8701C26 29.2901 26.35 28.8701 26.77 28.8701C27.19 28.8701 27.55 29.3001 27.55 29.8701Z" fill="#787878"/>
<path d="M30.9992 29.8701C30.9992 30.4501 30.6592 30.9201 30.2292 30.9201C29.7992 30.9201 29.4492 30.4501 29.4492 29.8701C29.4492 29.2901 29.7992 28.8701 30.2292 28.8701C30.6592 28.8701 30.9992 29.3001 30.9992 29.8701Z" fill="#787878"/>
<path d="M34.52 29.8701C34.52 30.4501 34.17 30.9201 33.74 30.9201C33.31 30.9201 33 30.4501 33 29.8701C33 29.2901 33.34 28.8701 33.77 28.8701C34.2 28.8701 34.52 29.3001 34.52 29.8701Z" fill="#787878"/>
<path d="M37.9992 29.8701C37.9992 30.4501 37.6492 30.9201 37.2292 30.9201C36.8092 30.9201 36.4492 30.4501 36.4492 29.8701C36.4492 29.2901 36.7992 28.8701 37.2292 28.8701C37.6592 28.8701 37.9992 29.3001 37.9992 29.8701Z" fill="#787878"/>
<path d="M27.55 26.5098C27.55 27.0898 27.2 27.5098 26.77 27.5098C26.34 27.5098 26 27.0498 26 26.5098C26 25.9698 26.35 25.5098 26.77 25.5098C27.19 25.5098 27.55 25.9298 27.55 26.5098Z" fill="#787878"/>
<path d="M30.9992 26.5098C30.9992 27.0898 30.6592 27.5098 30.2292 27.5098C29.7992 27.5098 29.4492 27.0498 29.4492 26.5098C29.4492 25.9698 29.7992 25.5098 30.2292 25.5098C30.6592 25.5098 30.9992 25.9298 30.9992 26.5098Z" fill="#787878"/>
<path d="M34.5207 26.5098C34.5207 27.0898 34.1707 27.5098 33.7407 27.5098C33.3107 27.5098 32.9707 27.0498 32.9707 26.5098C32.9707 25.9698 33.3107 25.5098 33.7407 25.5098C34.1707 25.5098 34.5207 25.9298 34.5207 26.5098Z" fill="#787878"/>
<path d="M37.9992 26.5098C37.9992 27.0898 37.6492 27.5098 37.2292 27.5098C36.8092 27.5098 36.4492 27.0498 36.4492 26.5098C36.4492 25.9698 36.7992 25.5098 37.2292 25.5098C37.6592 25.5098 37.9992 25.9298 37.9992 26.5098Z" fill="#787878"/>
<path d="M29.2902 23.1504C29.2902 23.7204 28.9402 24.1504 28.5202 24.1504C28.1002 24.1504 27.7402 23.6804 27.7402 23.1504C27.7402 22.6204 28.0902 22.1504 28.5202 22.1504C28.9502 22.1504 29.2902 22.5704 29.2902 23.1504Z" fill="#787878"/>
<path d="M32.0005 24.1904C32.4257 24.1904 32.7705 23.7247 32.7705 23.1504C32.7705 22.576 32.4257 22.1104 32.0005 22.1104C31.5752 22.1104 31.2305 22.576 31.2305 23.1504C31.2305 23.7247 31.5752 24.1904 32.0005 24.1904Z" fill="#787878"/>
<path d="M36.2609 23.1504C36.2609 23.7204 35.9109 24.1504 35.4809 24.1504C35.0509 24.1504 34.7109 23.6804 34.7109 23.1504C34.7109 22.6204 35.0609 22.1504 35.4809 22.1504C35.9009 22.1504 36.2609 22.5704 36.2609 23.1504Z" fill="#787878"/>
<path d="M30.9992 19.7803C30.9992 20.3603 30.6592 20.7803 30.2292 20.7803C29.7992 20.7803 29.4492 20.3103 29.4492 19.7803C29.4492 19.2503 29.7992 18.7803 30.2292 18.7803C30.6592 18.7803 30.9992 19.2103 30.9992 19.7803Z" fill="#787878"/>
<path d="M34.5207 19.7803C34.5207 20.3603 34.1707 20.7803 33.7407 20.7803C33.3107 20.7803 32.9707 20.3103 32.9707 19.7803C32.9707 19.2503 33.3107 18.7803 33.7407 18.7803C34.1707 18.7803 34.5207 19.2103 34.5207 19.7803Z" fill="#787878"/>
<path d="M32.0005 17.4599C32.4257 17.4599 32.7705 16.9943 32.7705 16.4199C32.7705 15.8455 32.4257 15.3799 32.0005 15.3799C31.5752 15.3799 31.2305 15.8455 31.2305 16.4199C31.2305 16.9943 31.5752 17.4599 32.0005 17.4599Z" fill="#787878"/>
<path d="M26.9995 41.0001C29.2364 36.0206 32.7352 31.7117 37.1495 28.5001C41.7495 25.3501 45.6595 25.2801 47.7295 25.5701C47.8973 25.5997 48.0547 25.6717 48.1869 25.7792C48.3191 25.8868 48.4216 26.0263 48.4847 26.1846C48.5479 26.3429 48.5695 26.5146 48.5475 26.6836C48.5256 26.8526 48.4609 27.0132 48.3595 27.1501L44.6495 32.0001C43.7097 33.247 43.2071 34.7688 43.2195 36.3301C43.2195 48.7601 38.2195 52.9601 32.0495 52.9601C30.5473 53.0218 29.052 52.7268 27.6858 52.0993C26.3196 51.4718 25.1215 50.5297 24.1895 49.3501C24.7673 46.4586 25.7116 43.6527 26.9995 41.0001Z" fill="#787878"/>
<path d="M47.7194 25.5701C45.6594 25.2801 41.7194 25.3501 37.1494 28.5001C35.2346 29.8193 33.5029 31.3863 31.9994 33.1601C30.5086 31.3923 28.7943 29.8258 26.8994 28.5001C22.2994 25.3501 18.3894 25.2801 16.3294 25.5701C16.1608 25.5983 16.0021 25.6692 15.8687 25.7762C15.7353 25.8832 15.6315 26.0225 15.5673 26.181C15.5031 26.3395 15.4806 26.5118 15.502 26.6815C15.5234 26.8512 15.5879 27.0125 15.6894 27.1501L19.3394 31.9401C20.3067 33.2067 20.8303 34.7564 20.8294 36.3501C20.8294 44.5701 23.0194 49.1801 26.2794 51.3501C27.0691 51.8527 27.7217 52.5433 28.179 53.3601C28.6362 54.1768 28.8837 55.0942 28.8994 56.0301V56.1101H35.0994C35.1166 55.1695 35.3668 54.2479 35.8275 53.4277C36.2882 52.6074 36.9451 51.9142 37.7394 51.4101C41.0194 49.2401 43.2194 44.6201 43.2194 36.4101C43.2186 34.8164 43.7422 33.2667 44.7094 32.0001L48.3594 27.2101C48.4763 27.0726 48.5537 26.906 48.5836 26.728C48.6134 26.55 48.5945 26.3672 48.5289 26.1991C48.4633 26.031 48.3534 25.8837 48.2109 25.773C48.0684 25.6623 47.8986 25.5922 47.7194 25.5701Z" fill="#787878"/>
<path d="M37.0794 41.0001C34.8341 36.0171 31.3247 31.7078 26.8994 28.5001C22.2994 25.3501 18.3894 25.2801 16.3294 25.5701C16.1608 25.5983 16.0021 25.6692 15.8687 25.7762C15.7353 25.8832 15.6315 26.0225 15.5673 26.181C15.5031 26.3395 15.4806 26.5118 15.502 26.6815C15.5234 26.8512 15.5879 27.0125 15.6894 27.1501L19.3394 31.9401C20.3067 33.2067 20.8303 34.7564 20.8294 36.3501C20.8294 48.8001 25.8294 53.0001 31.9994 53.0001H32.0894C33.1676 52.9827 34.226 52.7076 35.1762 52.1979C36.1264 51.6881 36.9408 50.9584 37.5516 50.0697C38.1623 49.181 38.5516 48.1591 38.6869 47.0893C38.8222 46.0195 38.6996 44.9329 38.3294 43.9201C37.9994 42.9301 37.5494 42.0001 37.0794 41.0001Z" fill="#787878"/>
</svg>
