<svg width="64" height="64" viewBox="0 0 64 64" fill="none" xmlns="http://www.w3.org/2000/svg">
<path d="M31.94 55.88C39.6388 55.88 45.88 49.6388 45.88 41.94C45.88 34.2412 39.6388 28 31.94 28C24.2412 28 18 34.2412 18 41.94C18 49.6388 24.2412 55.88 31.94 55.88Z" fill="#787878"/>
<path d="M26.5 43.2169C26.2239 43.2169 26 42.993 26 42.7169V42.5622C26 42.286 26.2239 42.0622 26.5 42.0622H26.9632C27.0824 42.0622 27.1748 41.9585 27.167 41.8396C27.1599 41.7314 27.1563 41.6233 27.1563 41.5152C27.1563 41.4002 27.1599 41.287 27.1672 41.1756C27.1749 41.0567 27.0824 40.953 26.9632 40.953H26.5C26.2239 40.953 26 40.7292 26 40.453V40.2831C26 40.007 26.2239 39.7831 26.5 39.7831H27.2129C27.3048 39.7831 27.3845 39.7203 27.4089 39.6317C27.7044 38.5574 28.2592 37.6913 29.0733 37.0331C29.9355 36.3444 31.0207 36 32.3292 36C33.6072 36 34.6519 36.3191 35.4633 36.9572C35.9879 37.3582 36.3864 37.8644 36.6587 38.476C36.9118 39.0443 36.4293 39.616 35.8072 39.616H35.6521C35.1856 39.616 34.8047 39.2766 34.563 38.8776C34.4181 38.6382 34.2313 38.4336 34.0028 38.2638C33.5768 37.9296 33.0138 37.7624 32.314 37.7624C31.5938 37.7624 30.9852 37.9397 30.4882 38.2942C30.071 38.598 29.7468 39.006 29.5158 39.5182C29.4587 39.6448 29.5551 39.7831 29.6941 39.7831H32.0726C32.3488 39.7831 32.5726 40.007 32.5726 40.2831V40.453C32.5726 40.7292 32.3488 40.953 32.0726 40.953H29.3538C29.2476 40.953 29.1598 41.0359 29.156 41.142C29.1516 41.2642 29.1494 41.3886 29.1494 41.5152C29.1494 41.6389 29.1515 41.7585 29.1557 41.8738C29.1595 41.9796 29.2473 42.0622 29.3532 42.0622H32.0726C32.3488 42.0622 32.5726 42.286 32.5726 42.5622V42.7169C32.5726 42.993 32.3488 43.2169 32.0726 43.2169H29.6884C29.551 43.2169 29.4547 43.3523 29.5089 43.4784C29.7338 44.0015 30.0603 44.4157 30.4882 44.721C30.9852 45.0755 31.5938 45.2528 32.314 45.2528C33.0138 45.2528 33.5768 45.1008 34.0028 44.797C34.2245 44.6373 34.407 44.4475 34.5501 44.2276C34.8021 43.8404 35.1803 43.5055 35.6423 43.5055H35.7975C36.4228 43.5055 36.9057 44.0839 36.6355 44.6478C36.3639 45.2146 35.9732 45.6898 35.4633 46.0732C34.6519 46.6911 33.6072 47 32.3292 47C31.0207 47 29.9355 46.6607 29.0733 45.982C28.2493 45.3237 27.6893 44.4526 27.3935 43.3687C27.3692 43.2799 27.2894 43.2169 27.1973 43.2169H26.5Z" fill="white"/>
<path d="M27.3407 31.6509C28.584 26.3832 25.3216 21.1051 20.0539 19.8618C14.7863 18.6185 9.50811 21.8809 8.26483 27.1486C7.02155 32.4162 10.284 37.6944 15.5516 38.9377C20.8193 40.181 26.0974 36.9186 27.3407 31.6509Z" fill="#565656"/>
<path d="M13.4195 30.9047C13.1878 30.9047 13 30.7215 13 30.4956V30.369C13 30.1431 13.1878 29.9599 13.4195 29.9599H13.8081C13.9081 29.9599 13.9857 29.8751 13.9791 29.7778C13.9731 29.6894 13.9701 29.6009 13.9701 29.5124C13.9701 29.4183 13.9731 29.3257 13.9792 29.2346C13.9857 29.1373 13.9081 29.0525 13.8081 29.0525H13.4195C13.1878 29.0525 13 28.8693 13 28.6434V28.5044C13 28.2785 13.1878 28.0953 13.4195 28.0953H14.0176C14.0947 28.0953 14.1616 28.0439 14.182 27.9714C14.43 27.0925 14.8954 26.3838 15.5784 25.8453C16.3017 25.2818 17.2123 25 18.31 25C19.3822 25 20.2587 25.261 20.9395 25.7831C21.3796 26.1112 21.7139 26.5255 21.9424 27.0258C22.1547 27.4908 21.7499 27.9586 21.2279 27.9586H21.0979C20.7065 27.9586 20.3869 27.6809 20.1841 27.3544C20.0625 27.1586 19.9058 26.9912 19.7141 26.8522C19.3567 26.5787 18.8844 26.442 18.2972 26.442C17.6931 26.442 17.1825 26.587 16.7655 26.8771C16.4154 27.1257 16.1435 27.4595 15.9497 27.8785C15.9018 27.9821 15.9827 28.0953 16.0992 28.0953H18.0947C18.3264 28.0953 18.5142 28.2785 18.5142 28.5044V28.6434C18.5142 28.8693 18.3264 29.0525 18.0947 29.0525H15.8137C15.7247 29.0525 15.651 29.1203 15.6478 29.2071C15.6441 29.3071 15.6422 29.4089 15.6422 29.5124C15.6422 29.6137 15.644 29.7115 15.6475 29.8058C15.6507 29.8924 15.7244 29.9599 15.8132 29.9599H18.0947C18.3264 29.9599 18.5142 30.1431 18.5142 30.369V30.4956C18.5142 30.7215 18.3264 30.9047 18.0947 30.9047H16.0944C15.9792 30.9047 15.8984 31.0155 15.9439 31.1187C16.1326 31.5467 16.4064 31.8856 16.7655 32.1354C17.1825 32.4254 17.6931 32.5704 18.2972 32.5704C18.8844 32.5704 19.3567 32.4461 19.7141 32.1975C19.9001 32.0669 20.0532 31.9116 20.1733 31.7317C20.3847 31.4149 20.702 31.1409 21.0896 31.1409H21.2198C21.7445 31.1409 22.1496 31.6141 21.9229 32.0755C21.695 32.5392 21.3672 32.928 20.9395 33.2417C20.2587 33.7472 19.3822 34 18.31 34C17.2123 34 16.3017 33.7224 15.5784 33.1671C14.8871 32.6285 14.4173 31.9158 14.1691 31.0289C14.1487 30.9563 14.0817 30.9047 14.0045 30.9047H13.4195Z" fill="white"/>
<path d="M17.5205 8.13009L13.9005 12.5401C13.8572 12.5946 13.8302 12.6602 13.8226 12.7294C13.8149 12.7985 13.8269 12.8684 13.8572 12.9311C13.8875 12.9938 13.9348 13.0466 13.9938 13.0836C14.0527 13.1205 14.1209 13.1401 14.1905 13.1401H15.0005C15.096 13.1401 15.1875 13.178 15.255 13.2455C15.3226 13.313 15.3605 13.4046 15.3605 13.5001V16.0601C15.3605 16.2696 15.4437 16.4705 15.5919 16.6187C15.74 16.7669 15.941 16.8501 16.1505 16.8501H19.3705C19.5792 16.8475 19.7786 16.7634 19.9262 16.6158C20.0738 16.4682 20.1579 16.2688 20.1605 16.0601V13.5001C20.1605 13.4046 20.1984 13.313 20.2659 13.2455C20.3334 13.178 20.425 13.1401 20.5205 13.1401H21.3705C21.4401 13.1401 21.5083 13.1205 21.5672 13.0836C21.6262 13.0466 21.6735 12.9938 21.7038 12.9311C21.7341 12.8684 21.7461 12.7985 21.7384 12.7294C21.7308 12.6602 21.7037 12.5946 21.6605 12.5401L18.0805 8.13009C18.0458 8.08988 18.0028 8.05762 17.9544 8.03551C17.9061 8.0134 17.8536 8.00195 17.8005 8.00195C17.7473 8.00195 17.6948 8.0134 17.6465 8.03551C17.5982 8.05762 17.5552 8.08988 17.5205 8.13009Z" fill="#565656"/>
<path d="M36.4297 28.8604V33.8604C36.4297 36.0325 37.2926 38.1156 38.8285 39.6516C40.3644 41.1875 42.4476 42.0504 44.6197 42.0504H45.9397C45.9355 39.1328 45.0153 36.2903 43.309 33.9237C41.6027 31.5572 39.1965 29.7861 36.4297 28.8604Z" fill="#787878"/>
<path d="M31.5999 11.8196L26.4599 18.0896C26.3975 18.1656 26.3579 18.2578 26.3458 18.3554C26.3336 18.453 26.3494 18.552 26.3913 18.641C26.4332 18.73 26.4994 18.8053 26.5824 18.8581C26.6653 18.911 26.7616 18.9392 26.8599 18.9396H28.0799C28.2152 18.9396 28.3449 18.9933 28.4406 19.089C28.5362 19.1846 28.5899 19.3143 28.5899 19.4496V23.0796C28.5899 23.3776 28.7076 23.6635 28.9174 23.8751C29.1271 24.0867 29.412 24.207 29.7099 24.2096H34.2899C34.5879 24.207 34.8727 24.0867 35.0825 23.8751C35.2923 23.6635 35.4099 23.3776 35.4099 23.0796V19.4496C35.4099 19.3143 35.4637 19.1846 35.5593 19.089C35.6549 18.9933 35.7847 18.9396 35.9199 18.9396H37.1399C37.2383 18.9392 37.3345 18.911 37.4175 18.8581C37.5004 18.8053 37.5667 18.73 37.6086 18.641C37.6504 18.552 37.6662 18.453 37.6541 18.3554C37.6419 18.2578 37.6023 18.1656 37.5399 18.0896L32.3999 11.8196C32.3522 11.7592 32.2914 11.7105 32.2221 11.6769C32.1529 11.6434 32.0769 11.626 31.9999 11.626C31.923 11.626 31.847 11.6434 31.7777 11.6769C31.7085 11.7105 31.6477 11.7592 31.5999 11.8196Z" fill="#787878"/>
<path d="M53.1268 36.33C56.954 32.5029 56.954 26.2979 53.1268 22.4707C49.2997 18.6436 43.0947 18.6436 39.2675 22.4707C35.4404 26.2979 35.4404 32.5029 39.2675 36.33C43.0947 40.1572 49.2997 40.1572 53.1268 36.33Z" fill="#565656"/>
<path d="M41.9195 30.9047C41.6878 30.9047 41.5 30.7215 41.5 30.4956V30.369C41.5 30.1431 41.6878 29.9599 41.9195 29.9599H42.3081C42.4081 29.9599 42.4857 29.8751 42.4791 29.7778C42.4731 29.6894 42.4701 29.6009 42.4701 29.5124C42.4701 29.4183 42.4731 29.3257 42.4792 29.2346C42.4857 29.1373 42.4081 29.0525 42.3081 29.0525H41.9195C41.6878 29.0525 41.5 28.8693 41.5 28.6434V28.5044C41.5 28.2785 41.6878 28.0953 41.9195 28.0953H42.5176C42.5947 28.0953 42.6616 28.0439 42.682 27.9714C42.93 27.0925 43.3954 26.3838 44.0784 25.8453C44.8017 25.2818 45.7123 25 46.81 25C47.8822 25 48.7587 25.261 49.4395 25.7831C49.8796 26.1112 50.2139 26.5255 50.4424 27.0258C50.6547 27.4908 50.2499 27.9586 49.7279 27.9586H49.5979C49.2065 27.9586 48.8869 27.6809 48.6841 27.3544C48.5625 27.1586 48.4058 26.9912 48.2141 26.8522C47.8567 26.5787 47.3844 26.442 46.7972 26.442C46.1931 26.442 45.6825 26.587 45.2655 26.8771C44.9154 27.1257 44.6435 27.4595 44.4497 27.8785C44.4018 27.9821 44.4827 28.0953 44.5992 28.0953H46.5947C46.8264 28.0953 47.0142 28.2785 47.0142 28.5044V28.6434C47.0142 28.8693 46.8264 29.0525 46.5947 29.0525H44.3137C44.2247 29.0525 44.151 29.1203 44.1478 29.2071C44.1441 29.3071 44.1422 29.4089 44.1422 29.5124C44.1422 29.6137 44.144 29.7115 44.1475 29.8058C44.1507 29.8924 44.2244 29.9599 44.3132 29.9599H46.5947C46.8264 29.9599 47.0142 30.1431 47.0142 30.369V30.4956C47.0142 30.7215 46.8264 30.9047 46.5947 30.9047H44.5944C44.4792 30.9047 44.3984 31.0155 44.4439 31.1187C44.6326 31.5467 44.9064 31.8856 45.2655 32.1354C45.6825 32.4254 46.1931 32.5704 46.7972 32.5704C47.3844 32.5704 47.8567 32.4461 48.2141 32.1975C48.4001 32.0669 48.5532 31.9116 48.6733 31.7317C48.8847 31.4149 49.202 31.1409 49.5896 31.1409H49.7198C50.2445 31.1409 50.6496 31.6141 50.4229 32.0755C50.195 32.5392 49.8672 32.928 49.4395 33.2417C48.7587 33.7472 47.8822 34 46.81 34C45.7123 34 44.8017 33.7224 44.0784 33.1671C43.3871 32.6285 42.9173 31.9158 42.6691 31.0289C42.6487 30.9563 42.5817 30.9047 42.5045 30.9047H41.9195Z" fill="white"/>
<path d="M45.9209 8.13009L42.3009 12.5401C42.2576 12.5946 42.2306 12.6602 42.223 12.7294C42.2153 12.7985 42.2273 12.8684 42.2576 12.9311C42.2879 12.9938 42.3352 13.0466 42.3941 13.0836C42.4531 13.1205 42.5213 13.1401 42.5909 13.1401H43.4409C43.5364 13.1401 43.6279 13.178 43.6954 13.2455C43.7629 13.313 43.8009 13.4046 43.8009 13.5001V16.0601C43.8035 16.2688 43.8875 16.4682 44.0351 16.6158C44.1827 16.7634 44.3822 16.8475 44.5909 16.8501H47.8109C48.0204 16.8501 48.2213 16.7669 48.3695 16.6187C48.5176 16.4705 48.6009 16.2696 48.6009 16.0601V13.5001C48.6009 13.4046 48.6388 13.313 48.7063 13.2455C48.7738 13.178 48.8654 13.1401 48.9609 13.1401H49.8109C49.8805 13.1401 49.9486 13.1205 50.0076 13.0836C50.0666 13.0466 50.1139 12.9938 50.1442 12.9311C50.1745 12.8684 50.1865 12.7985 50.1788 12.7294C50.1711 12.6602 50.1441 12.5946 50.1009 12.5401L46.4809 8.13009C46.4461 8.08988 46.4032 8.05762 46.3548 8.03551C46.3065 8.0134 46.254 8.00195 46.2009 8.00195C46.1477 8.00195 46.0952 8.0134 46.0469 8.03551C45.9986 8.05762 45.9556 8.08988 45.9209 8.13009Z" fill="#787878"/>
<path d="M36.4297 28.8604C36.4297 29.0404 36.4297 29.2204 36.4297 29.4004C36.4307 31.8992 37.3872 34.3031 39.1032 36.1195C40.8193 37.9359 43.1649 39.0274 45.6597 39.1703C45.1528 36.7966 44.0344 34.5966 42.4154 32.7882C40.7965 30.9798 38.7331 29.6258 36.4297 28.8604Z" fill="#787878"/>
</svg>
