<svg width="64" height="64" viewBox="0 0 64 64" fill="none" xmlns="http://www.w3.org/2000/svg">
<path d="M31.9495 28.36C37.5718 28.36 42.1295 23.8023 42.1295 18.18C42.1295 12.5577 37.5718 8 31.9495 8C26.3273 8 21.7695 12.5577 21.7695 18.18C21.7695 23.8023 26.3273 28.36 31.9495 28.36Z" fill="#565656"/>
<path d="M35.6898 17.1101V15.4301C35.6907 14.772 35.5184 14.1251 35.1901 13.5546C34.8619 12.9842 34.3893 12.5101 33.8198 12.1801C33.2497 11.851 32.603 11.6777 31.9448 11.6777C31.2865 11.6777 30.6399 11.851 30.0698 12.1801C29.5003 12.5101 29.0277 12.9842 28.6994 13.5546C28.3712 14.1251 28.1989 14.772 28.1998 15.4301V17.1101C28.1889 17.6946 28.3354 18.2713 28.6239 18.7798C28.9125 19.2882 29.3324 19.7097 29.8398 20.0001C30.4801 20.3687 31.206 20.5626 31.9448 20.5626C32.6836 20.5626 33.4095 20.3687 34.0498 20.0001C34.5572 19.7097 34.9771 19.2882 35.2656 18.7798C35.5542 18.2713 35.7007 17.6946 35.6898 17.1101Z" fill="white"/>
<path d="M32 28.3597C34.6085 28.3612 37.1165 27.3544 39 25.5497C38.2697 24.3473 37.242 23.3533 36.0159 22.6635C34.7899 21.9737 33.4068 21.6113 32 21.6113C30.5932 21.6113 29.2101 21.9737 27.9841 22.6635C26.758 23.3533 25.7303 24.3473 25 25.5497C26.8835 27.3544 29.3915 28.3612 32 28.3597Z" fill="#787878"/>
<path d="M18.1292 55.9996C23.7515 55.9996 28.3092 51.4419 28.3092 45.8196C28.3092 40.1974 23.7515 35.6396 18.1292 35.6396C12.507 35.6396 7.94922 40.1974 7.94922 45.8196C7.94922 51.4419 12.507 55.9996 18.1292 55.9996Z" fill="#565656"/>
<path d="M21.8709 44.7498V43.0698C21.8719 42.4116 21.6995 41.7648 21.3713 41.1943C21.043 40.6238 20.5704 40.1498 20.0009 39.8198C19.4309 39.4907 18.7842 39.3174 18.1259 39.3174C17.4677 39.3174 16.821 39.4907 16.2509 39.8198C15.6814 40.1498 15.2088 40.6238 14.8806 41.1943C14.5523 41.7648 14.38 42.4116 14.3809 43.0698V44.7498C14.377 45.3239 14.5247 45.8889 14.8092 46.3876C15.0936 46.8863 15.5047 47.301 16.0009 47.5898C16.6413 47.9583 17.3671 48.1523 18.1059 48.1523C18.8447 48.1523 19.5706 47.9583 20.2109 47.5898C20.7146 47.3061 21.1337 46.8936 21.4254 46.3945C21.7171 45.8955 21.8709 45.3278 21.8709 44.7498Z" fill="white"/>
<path d="M18.1309 56.0004C20.7393 56.0018 23.2474 54.995 25.1309 53.1904C24.4006 51.988 23.3729 50.994 22.1468 50.3041C20.9207 49.6143 19.5377 49.252 18.1309 49.252C16.7241 49.252 15.341 49.6143 14.1149 50.3041C12.8889 50.994 11.8612 51.988 11.1309 53.1904C13.0143 54.995 15.5224 56.0018 18.1309 56.0004Z" fill="#787878"/>
<path d="M45.8695 55.9996C51.4917 55.9996 56.0495 51.4419 56.0495 45.8196C56.0495 40.1974 51.4917 35.6396 45.8695 35.6396C40.2472 35.6396 35.6895 40.1974 35.6895 45.8196C35.6895 51.4419 40.2472 55.9996 45.8695 55.9996Z" fill="#565656"/>
<path d="M49.6209 44.7498V43.0698C49.6218 42.4116 49.4495 41.7648 49.1212 41.1943C48.793 40.6238 48.3204 40.1498 47.7509 39.8198C47.1808 39.4907 46.5341 39.3174 45.8759 39.3174C45.2176 39.3174 44.5709 39.4907 44.0009 39.8198C43.4314 40.1498 42.9588 40.6238 42.6305 41.1943C42.3023 41.7648 42.1299 42.4116 42.1309 43.0698V44.7498C42.1289 45.3259 42.2797 45.8922 42.5678 46.391C42.8558 46.8899 43.271 47.3035 43.7709 47.5898C44.4112 47.9583 45.1371 48.1523 45.8759 48.1523C46.6147 48.1523 47.3405 47.9583 47.9809 47.5898C48.4808 47.3035 48.8959 46.8899 49.184 46.391C49.4721 45.8922 49.6228 45.3259 49.6209 44.7498Z" fill="white"/>
<path d="M45.8691 56.0004C48.4776 56.0018 50.9857 54.995 52.8691 53.1904C52.1388 51.988 51.1111 50.994 49.8851 50.3041C48.659 49.6143 47.2759 49.252 45.8691 49.252C44.4623 49.252 43.0793 49.6143 41.8532 50.3041C40.6271 50.994 39.5994 51.988 38.8691 53.1904C40.7526 54.995 43.2607 56.0018 45.8691 56.0004Z" fill="#787878"/>
<path d="M32 35.71C31.7348 35.71 31.4804 35.6046 31.2929 35.4171C31.1054 35.2295 31 34.9752 31 34.71V31.46C31 31.1947 31.1054 30.9404 31.2929 30.7529C31.4804 30.5653 31.7348 30.46 32 30.46C32.2652 30.46 32.5196 30.5653 32.7071 30.7529C32.8946 30.9404 33 31.1947 33 31.46V34.71C33 34.9752 32.8946 35.2295 32.7071 35.4171C32.5196 35.6046 32.2652 35.71 32 35.71Z" fill="#565656"/>
<path d="M28.8895 38.0002C28.6813 37.9995 28.4785 37.9339 28.3093 37.8125C28.1402 37.691 28.0132 37.5198 27.946 37.3228C27.8789 37.1257 27.8749 36.9126 27.9347 36.7131C27.9945 36.5137 28.115 36.3378 28.2795 36.2102L31.9995 33.4502L35.6595 36.2502C35.8574 36.4151 35.984 36.65 36.013 36.9059C36.042 37.1618 35.9711 37.4191 35.8151 37.624C35.6591 37.829 35.4301 37.9659 35.1757 38.0062C34.9213 38.0464 34.6611 37.987 34.4495 37.8402L31.9995 36.0002L29.5395 37.8802C29.3427 37.9927 29.1135 38.035 28.8895 38.0002Z" fill="#565656"/>
</svg>
