<svg width="64" height="64" viewBox="0 0 64 64" fill="none" xmlns="http://www.w3.org/2000/svg">
<path d="M18.7491 39.5498H11.4991C11.1069 39.5498 10.7891 39.8677 10.7891 40.2598V53.2898C10.7891 53.6819 11.1069 53.9998 11.4991 53.9998H18.7491C19.1412 53.9998 19.4591 53.6819 19.4591 53.2898V40.2598C19.4591 39.8677 19.1412 39.5498 18.7491 39.5498Z" fill="#565656"/>
<path d="M29.9991 29.04H22.7491C22.3569 29.04 22.0391 29.3579 22.0391 29.75V53.29C22.0391 53.6822 22.3569 54 22.7491 54H29.9991C30.3912 54 30.7091 53.6822 30.7091 53.29V29.75C30.7091 29.3579 30.3912 29.04 29.9991 29.04Z" fill="#787878"/>
<path d="M41.2491 18.5195H33.9991C33.6069 18.5195 33.2891 18.8374 33.2891 19.2295V53.2895C33.2891 53.6817 33.6069 53.9995 33.9991 53.9995H41.2491C41.6412 53.9995 41.9591 53.6817 41.9591 53.2895V19.2295C41.9591 18.8374 41.6412 18.5195 41.2491 18.5195Z" fill="#565656"/>
<path d="M52.4991 8H45.2491C44.8569 8 44.5391 8.31788 44.5391 8.71V53.29C44.5391 53.6821 44.8569 54 45.2491 54H52.4991C52.8912 54 53.2091 53.6821 53.2091 53.29V8.71C53.2091 8.31788 52.8912 8 52.4991 8Z" fill="#787878"/>
<path d="M55.1 52H8.9C8.40294 52 8 52.4029 8 52.9V55.1C8 55.5971 8.40294 56 8.9 56H55.1C55.5971 56 56 55.5971 56 55.1V52.9C56 52.4029 55.5971 52 55.1 52Z" fill="#565656"/>
<path d="M12.5287 31.8656L10.966 30.3029C10.9252 30.2621 10.8927 30.2136 10.8706 30.1602C10.8485 30.1068 10.8371 30.0496 10.8371 29.9918C10.8371 29.934 10.8485 29.8768 10.8706 29.8234C10.8927 29.77 10.9252 29.7215 10.966 29.6807L28.6437 12.003L30.8286 14.188L13.151 31.8656C13.1101 31.9065 13.0616 31.9389 13.0082 31.961C12.9548 31.9831 12.8976 31.9945 12.8398 31.9945C12.7821 31.9945 12.7248 31.9831 12.6715 31.961C12.6181 31.9389 12.5696 31.9065 12.5287 31.8656Z" fill="#565656"/>
<path d="M32.3591 10.8503L31.4691 15.5403C31.4592 15.5968 31.4338 15.6495 31.3957 15.6924C31.3576 15.7353 31.3083 15.7668 31.2534 15.7834C31.1984 15.8 31.14 15.801 31.0845 15.7863C31.029 15.7717 30.9787 15.7418 30.9391 15.7003L27.1491 11.9103C27.1075 11.8707 27.0777 11.8204 27.0631 11.7649C27.0484 11.7094 27.0494 11.6509 27.066 11.596C27.0826 11.541 27.1141 11.4918 27.157 11.4537C27.1999 11.4156 27.2526 11.3902 27.3091 11.3803L31.9991 10.4903C32.0484 10.4814 32.099 10.4846 32.1467 10.4995C32.1945 10.5145 32.2379 10.5408 32.2732 10.5761C32.3086 10.6115 32.3349 10.6549 32.3499 10.7027C32.3648 10.7504 32.368 10.801 32.3591 10.8503Z" fill="#565656"/>
</svg>
