<svg width="64" height="64" viewBox="0 0 64 64" fill="none" xmlns="http://www.w3.org/2000/svg">
<path d="M47.35 32.6904H53.68C53.8391 32.6904 53.9917 32.7536 54.1043 32.8662C54.2168 32.9787 54.28 33.1313 54.28 33.2904V46.9404H46.75V33.2904C46.75 33.1313 46.8132 32.9787 46.9257 32.8662C47.0383 32.7536 47.1909 32.6904 47.35 32.6904Z" fill="#565656"/>
<path d="M8.42 22.0596H10.58C10.6352 22.0596 10.6898 22.0704 10.7407 22.0915C10.7917 22.1126 10.838 22.1436 10.877 22.1826C10.916 22.2216 10.9469 22.2679 10.968 22.3188C10.9891 22.3698 11 22.4244 11 22.4796V29.6896H8V22.4796C8 22.4244 8.01086 22.3698 8.03197 22.3188C8.05308 22.2679 8.08401 22.2216 8.12302 22.1826C8.16202 22.1436 8.20832 22.1126 8.25927 22.0915C8.31023 22.0704 8.36484 22.0596 8.42 22.0596Z" fill="#565656"/>
<path d="M8 26.29H12.78C13.0452 26.29 13.2996 26.3954 13.4871 26.5829C13.6746 26.7705 13.78 27.0248 13.78 27.29V53.63H8V26.29Z" fill="#565656"/>
<path d="M18.97 28.6504H8V55.9804H18.97V28.6504Z" fill="#565656"/>
<path d="M31.5092 10.2804L22.4392 15.5204C22.2928 15.6072 22.171 15.7299 22.0852 15.8769C21.9995 16.0239 21.9527 16.1903 21.9492 16.3604V39.7804C21.9492 40.0457 22.0546 40.3 22.2421 40.4875C22.4296 40.6751 22.684 40.7804 22.9492 40.7804H41.0792C41.3444 40.7804 41.5988 40.6751 41.7863 40.4875C41.9739 40.3 42.0792 40.0457 42.0792 39.7804V16.3604C42.0758 16.1903 42.0289 16.0239 41.9432 15.8769C41.8575 15.7299 41.7356 15.6072 41.5892 15.5204L32.5192 10.2804C32.366 10.1908 32.1917 10.1436 32.0142 10.1436C31.8367 10.1436 31.6624 10.1908 31.5092 10.2804Z" fill="#565656"/>
<path d="M31.5107 16.4096L19.4507 23.4096C19.3062 23.4975 19.1863 23.6208 19.1024 23.7677C19.0184 23.9146 18.9731 24.0804 18.9707 24.2496V55.9996H45.0007V24.2096C44.9983 24.0404 44.953 23.8746 44.869 23.7277C44.7851 23.5808 44.6652 23.4575 44.5207 23.3696L32.4607 16.3696C32.3115 16.2969 32.1465 16.2625 31.9806 16.2694C31.8148 16.2764 31.6533 16.3246 31.5107 16.4096Z" fill="#787878"/>
<path d="M30.92 8H33.08C33.1914 8 33.2982 8.04425 33.377 8.12302C33.4557 8.20178 33.5 8.30861 33.5 8.42V15.63H30.5V8.42C30.5 8.30861 30.5442 8.20178 30.623 8.12302C30.7018 8.04425 30.8086 8 30.92 8Z" fill="#565656"/>
<path d="M49.43 29.6896H51.6C51.7114 29.6896 51.8182 29.7338 51.897 29.8126C51.9757 29.8914 52.02 29.9982 52.02 30.1096V37.3196H49V30.1096C49 30.0536 49.0112 29.9981 49.0329 29.9465C49.0546 29.8949 49.0865 29.8481 49.1265 29.809C49.1666 29.7699 49.2141 29.7391 49.2662 29.7186C49.3183 29.6981 49.374 29.6882 49.43 29.6896Z" fill="#565656"/>
<path d="M23.6202 25.8799H24.7202C24.8237 25.8799 24.9229 25.921 24.996 25.9941C25.0691 26.0673 25.1102 26.1664 25.1102 26.2699V28.6199C25.1102 28.7233 25.0691 28.8225 24.996 28.8957C24.9229 28.9688 24.8237 29.0099 24.7202 29.0099H23.6202C23.5195 29.0099 23.4228 28.9698 23.3515 28.8986C23.2803 28.8273 23.2402 28.7307 23.2402 28.6299V26.2599C23.2402 26.1591 23.2803 26.0624 23.3515 25.9912C23.4228 25.9199 23.5195 25.8799 23.6202 25.8799Z" fill="#565656"/>
<path d="M27.5406 25.88H28.6406C28.7414 25.88 28.8381 25.92 28.9093 25.9913C28.9806 26.0626 29.0206 26.1592 29.0206 26.26V28.61C29.0206 28.6612 29.0105 28.7119 28.9909 28.7593C28.9713 28.8066 28.9426 28.8496 28.9064 28.8858C28.8702 28.922 28.8272 28.9507 28.7799 28.9703C28.7326 28.9899 28.6818 29 28.6306 29H27.5306C27.4272 29 27.328 28.9589 27.2549 28.8858C27.1817 28.8126 27.1406 28.7134 27.1406 28.61V26.26C27.1419 26.2088 27.1533 26.1583 27.1741 26.1115C27.1949 26.0647 27.2247 26.0224 27.2619 25.9871C27.299 25.9518 27.3428 25.9242 27.3906 25.9058C27.4384 25.8875 27.4894 25.8787 27.5406 25.88Z" fill="#565656"/>
<path d="M32.5503 25.8799H31.4603C31.2449 25.8799 31.0703 26.0545 31.0703 26.2699V28.6199C31.0703 28.8353 31.2449 29.0099 31.4603 29.0099H32.5503C32.7657 29.0099 32.9403 28.8353 32.9403 28.6199V26.2699C32.9403 26.0545 32.7657 25.8799 32.5503 25.8799Z" fill="#565656"/>
<path d="M35.3702 25.8799H36.4702C36.5737 25.8799 36.6729 25.921 36.746 25.9941C36.8191 26.0673 36.8602 26.1664 36.8602 26.2699V28.6199C36.8602 28.7233 36.8191 28.8225 36.746 28.8957C36.6729 28.9688 36.5737 29.0099 36.4702 29.0099H35.3702C35.3203 29.0099 35.2709 29.0001 35.2248 28.981C35.1787 28.9619 35.1368 28.9339 35.1015 28.8986C35.0662 28.8633 35.0383 28.8214 35.0192 28.7753C35.0001 28.7292 34.9902 28.6798 34.9902 28.6299V26.2599C34.9928 26.1599 35.0336 26.0647 35.1043 25.994C35.1751 25.9233 35.2702 25.8824 35.3702 25.8799Z" fill="#565656"/>
<path d="M40.3804 25.8799H39.2904C39.075 25.8799 38.9004 26.0545 38.9004 26.2699V28.6199C38.9004 28.8353 39.075 29.0099 39.2904 29.0099H40.3804C40.5958 29.0099 40.7704 28.8353 40.7704 28.6199V26.2699C40.7704 26.0545 40.5958 25.8799 40.3804 25.8799Z" fill="#787878"/>
<path d="M23.6204 31.3496H24.7204C24.8238 31.3496 24.923 31.3907 24.9961 31.4638C25.0693 31.537 25.1104 31.6362 25.1104 31.7396V34.0896C25.1104 34.193 25.0693 34.2922 24.9961 34.3654C24.923 34.4385 24.8238 34.4796 24.7204 34.4796H23.6204C23.5705 34.4796 23.5211 34.4698 23.4749 34.4507C23.4288 34.4316 23.387 34.4036 23.3517 34.3683C23.3164 34.333 23.2884 34.2911 23.2693 34.245C23.2502 34.1989 23.2404 34.1495 23.2404 34.0996V31.7396C23.239 31.6889 23.2479 31.6384 23.2664 31.5911C23.2849 31.5439 23.3126 31.5008 23.3481 31.4644C23.3835 31.4281 23.4258 31.3992 23.4726 31.3795C23.5194 31.3597 23.5696 31.3496 23.6204 31.3496Z" fill="#787878"/>
<path d="M27.5402 31.3496H28.6402C28.7436 31.3496 28.8428 31.3907 28.9159 31.4638C28.9891 31.537 29.0302 31.6362 29.0302 31.7396V34.0896C29.0302 34.1904 28.9901 34.287 28.9189 34.3583C28.8476 34.4296 28.7509 34.4696 28.6502 34.4696H27.5502C27.4467 34.4696 27.3475 34.4285 27.2744 34.3554C27.2012 34.2822 27.1602 34.183 27.1602 34.0796V31.7396C27.1601 31.6379 27.1998 31.5402 27.2708 31.4673C27.3418 31.3945 27.4385 31.3522 27.5402 31.3496Z" fill="#565656"/>
<path d="M32.5503 31.3496H31.4603C31.2449 31.3496 31.0703 31.5242 31.0703 31.7396V34.0896C31.0703 34.305 31.2449 34.4796 31.4603 34.4796H32.5503C32.7657 34.4796 32.9403 34.305 32.9403 34.0896V31.7396C32.9403 31.5242 32.7657 31.3496 32.5503 31.3496Z" fill="#565656"/>
<path d="M35.3702 31.3496H36.4702C36.5737 31.3496 36.6729 31.3907 36.746 31.4638C36.8191 31.537 36.8602 31.6362 36.8602 31.7396V34.0896C36.8602 34.193 36.8191 34.2922 36.746 34.3654C36.6729 34.4385 36.5737 34.4796 36.4702 34.4796H35.3702C35.3203 34.4796 35.2709 34.4698 35.2248 34.4507C35.1787 34.4316 35.1368 34.4036 35.1015 34.3683C35.0662 34.333 35.0383 34.2911 35.0192 34.245C35.0001 34.1989 34.9902 34.1495 34.9902 34.0996V31.7396C34.9902 31.6379 35.0299 31.5402 35.1009 31.4673C35.1719 31.3945 35.2685 31.3522 35.3702 31.3496Z" fill="#565656"/>
<path d="M39.2806 31.3496H40.3806C40.4814 31.3496 40.5781 31.3896 40.6493 31.4609C40.7206 31.5322 40.7606 31.6288 40.7606 31.7296V34.0896C40.7606 34.1904 40.7206 34.287 40.6493 34.3583C40.5781 34.4296 40.4814 34.4696 40.3806 34.4696H39.2806C39.1772 34.4696 39.078 34.4285 39.0049 34.3554C38.9317 34.2822 38.8906 34.183 38.8906 34.0796V31.7396C38.8906 31.6362 38.9317 31.537 39.0049 31.4638C39.078 31.3907 39.1772 31.3496 39.2806 31.3496Z" fill="#565656"/>
<path d="M23.6204 36.8301H24.7204C24.8238 36.8301 24.923 36.8712 24.9961 36.9443C25.0693 37.0174 25.1104 37.1166 25.1104 37.2201V39.5701C25.1104 39.6735 25.0693 39.7727 24.9961 39.8458C24.923 39.919 24.8238 39.9601 24.7204 39.9601H23.6204C23.5196 39.9601 23.4229 39.92 23.3517 39.8488C23.2804 39.7775 23.2404 39.6809 23.2404 39.5801V37.2201C23.239 37.1693 23.2479 37.1188 23.2664 37.0716C23.2849 37.0243 23.3126 36.9812 23.3481 36.9449C23.3835 36.9085 23.4258 36.8796 23.4726 36.8599C23.5194 36.8402 23.5696 36.8301 23.6204 36.8301Z" fill="#565656"/>
<path d="M27.5406 36.8302H28.6406C28.7414 36.8302 28.8381 36.8702 28.9093 36.9415C28.9806 37.0128 29.0206 37.1094 29.0206 37.2102V39.5602C29.0206 39.6114 29.0105 39.6621 28.9909 39.7095C28.9713 39.7568 28.9426 39.7998 28.9064 39.836C28.8702 39.8722 28.8272 39.9009 28.7799 39.9205C28.7326 39.9401 28.6818 39.9502 28.6306 39.9502H27.5306C27.4272 39.9502 27.328 39.9091 27.2549 39.836C27.1817 39.7628 27.1406 39.6636 27.1406 39.5602V37.2202C27.1406 37.1681 27.151 37.1166 27.1712 37.0686C27.1915 37.0206 27.2211 36.9772 27.2584 36.9408C27.2956 36.9045 27.3398 36.876 27.3883 36.857C27.4368 36.838 27.4886 36.8289 27.5406 36.8302Z" fill="#565656"/>
<path d="M32.5503 36.8301H31.4603C31.2449 36.8301 31.0703 37.0047 31.0703 37.2201V39.5701C31.0703 39.7855 31.2449 39.9601 31.4603 39.9601H32.5503C32.7657 39.9601 32.9403 39.7855 32.9403 39.5701V37.2201C32.9403 37.0047 32.7657 36.8301 32.5503 36.8301Z" fill="#565656"/>
<path d="M35.3704 36.8301H36.4704C36.5738 36.8301 36.673 36.8712 36.7461 36.9443C36.8193 37.0174 36.8604 37.1166 36.8604 37.2201V39.5701C36.8604 39.6735 36.8193 39.7727 36.7461 39.8458C36.673 39.919 36.5738 39.9601 36.4704 39.9601H35.3704C35.3205 39.9601 35.271 39.9502 35.2249 39.9312C35.1788 39.9121 35.1369 39.8841 35.1017 39.8488C35.0664 39.8135 35.0384 39.7716 35.0193 39.7255C35.0002 39.6794 34.9904 39.63 34.9904 39.5801V37.2201C34.989 37.1693 34.9979 37.1188 35.0164 37.0716C35.0349 37.0243 35.0626 36.9812 35.0981 36.9449C35.1335 36.9085 35.1758 36.8796 35.2226 36.8599C35.2694 36.8402 35.3196 36.8301 35.3704 36.8301Z" fill="#787878"/>
<path d="M39.2809 36.8302H40.3809C40.4816 36.8302 40.5783 36.8702 40.6496 36.9415C40.7208 37.0128 40.7609 37.1094 40.7609 37.2102V39.5602C40.7609 39.6636 40.7198 39.7628 40.6466 39.836C40.5735 39.9091 40.4743 39.9502 40.3709 39.9502H39.2709C39.1674 39.9502 39.0682 39.9091 38.9951 39.836C38.9219 39.7628 38.8809 39.6636 38.8809 39.5602V37.2202C38.8808 37.1681 38.8913 37.1166 38.9115 37.0686C38.9317 37.0206 38.9613 36.9772 38.9986 36.9408C39.0359 36.9045 39.0801 36.876 39.1285 36.857C39.177 36.838 39.2288 36.8289 39.2809 36.8302Z" fill="#565656"/>
<path d="M23.6204 42.3096H24.7204C24.8238 42.3096 24.923 42.3507 24.9961 42.4238C25.0693 42.4969 25.1104 42.5961 25.1104 42.6996V45.0496C25.1104 45.153 25.0693 45.2522 24.9961 45.3253C24.923 45.3985 24.8238 45.4396 24.7204 45.4396H23.6204C23.5196 45.4396 23.4229 45.3995 23.3517 45.3283C23.2804 45.257 23.2404 45.1604 23.2404 45.0596V42.6996C23.239 42.6488 23.2479 42.5983 23.2664 42.5511C23.2849 42.5038 23.3126 42.4607 23.3481 42.4244C23.3835 42.388 23.4258 42.3591 23.4726 42.3394C23.5194 42.3197 23.5696 42.3096 23.6204 42.3096Z" fill="#565656"/>
<path d="M27.5406 42.3097H28.6406C28.7414 42.3097 28.8381 42.3497 28.9093 42.421C28.9806 42.4923 29.0206 42.5889 29.0206 42.6897V45.0397C29.0206 45.0909 29.0105 45.1416 28.9909 45.1889C28.9713 45.2363 28.9426 45.2793 28.9064 45.3155C28.8702 45.3517 28.8272 45.3804 28.7799 45.4C28.7326 45.4196 28.6818 45.4297 28.6306 45.4297H27.5306C27.4272 45.4297 27.328 45.3886 27.2549 45.3155C27.1817 45.2423 27.1406 45.1431 27.1406 45.0397V42.6997C27.1406 42.6476 27.151 42.5961 27.1712 42.5481C27.1915 42.5001 27.2211 42.4567 27.2584 42.4203C27.2956 42.384 27.3398 42.3555 27.3883 42.3365C27.4368 42.3175 27.4886 42.3084 27.5406 42.3097Z" fill="#787878"/>
<path d="M32.5503 42.3096H31.4603C31.2449 42.3096 31.0703 42.4842 31.0703 42.6996V45.0496C31.0703 45.265 31.2449 45.4396 31.4603 45.4396H32.5503C32.7657 45.4396 32.9403 45.265 32.9403 45.0496V42.6996C32.9403 42.4842 32.7657 42.3096 32.5503 42.3096Z" fill="#565656"/>
<path d="M35.3702 42.3096H36.4702C36.5737 42.3096 36.6729 42.3507 36.746 42.4238C36.8191 42.4969 36.8602 42.5961 36.8602 42.6996V45.0496C36.8602 45.153 36.8191 45.2522 36.746 45.3253C36.6729 45.3985 36.5737 45.4396 36.4702 45.4396H35.3702C35.3203 45.4396 35.2709 45.4297 35.2248 45.4106C35.1787 45.3915 35.1368 45.3636 35.1015 45.3283C35.0662 45.293 35.0383 45.2511 35.0192 45.205C35.0001 45.1589 34.9902 45.1095 34.9902 45.0596V42.6996C34.9902 42.5978 35.0299 42.5001 35.1009 42.4273C35.1719 42.3544 35.2685 42.3122 35.3702 42.3096Z" fill="#565656"/>
<path d="M40.3804 42.3096H39.2904C39.075 42.3096 38.9004 42.4842 38.9004 42.6996V45.0496C38.9004 45.265 39.075 45.4396 39.2904 45.4396H40.3804C40.5958 45.4396 40.7704 45.265 40.7704 45.0496V42.6996C40.7704 42.4842 40.5958 42.3096 40.3804 42.3096Z" fill="#565656"/>
<path d="M23.6204 47.79H24.7204C24.7716 47.79 24.8223 47.8001 24.8696 47.8197C24.9169 47.8393 24.9599 47.8681 24.9961 47.9043C25.0324 47.9405 25.0611 47.9835 25.0807 48.0308C25.1003 48.0781 25.1104 48.1288 25.1104 48.18V50.53C25.1104 50.6335 25.0693 50.7327 24.9961 50.8058C24.923 50.8789 24.8238 50.92 24.7204 50.92H23.6204C23.5196 50.92 23.4229 50.88 23.3517 50.8087C23.2804 50.7375 23.2404 50.6408 23.2404 50.54V48.18C23.239 48.1293 23.2479 48.0788 23.2664 48.0315C23.2849 47.9843 23.3126 47.9412 23.3481 47.9049C23.3835 47.8685 23.4258 47.8396 23.4726 47.8199C23.5194 47.8002 23.5696 47.79 23.6204 47.79Z" fill="#565656"/>
<path d="M27.5402 47.79H28.6402C28.6914 47.79 28.7421 47.8001 28.7894 47.8197C28.8367 47.8393 28.8797 47.8681 28.9159 47.9043C28.9521 47.9405 28.9809 47.9835 29.0005 48.0308C29.0201 48.0781 29.0302 48.1288 29.0302 48.18V50.53C29.0302 50.6308 28.9901 50.7275 28.9189 50.7987C28.8476 50.87 28.7509 50.91 28.6502 50.91H27.5502C27.4467 50.91 27.3475 50.8689 27.2744 50.7958C27.2012 50.7227 27.1602 50.6235 27.1602 50.52V48.18C27.1601 48.0783 27.1998 47.9806 27.2708 47.9077C27.3418 47.8349 27.4385 47.7926 27.5402 47.79Z" fill="#565656"/>
<path d="M32.5503 47.79H31.4603C31.2449 47.79 31.0703 47.9646 31.0703 48.18V50.53C31.0703 50.7454 31.2449 50.92 31.4603 50.92H32.5503C32.7657 50.92 32.9403 50.7454 32.9403 50.53V48.18C32.9403 47.9646 32.7657 47.79 32.5503 47.79Z" fill="#565656"/>
<path d="M35.3702 47.79H36.4702C36.5214 47.79 36.5722 47.8001 36.6195 47.8197C36.6668 47.8393 36.7098 47.8681 36.746 47.9043C36.7822 47.9405 36.8109 47.9835 36.8305 48.0308C36.8501 48.0781 36.8602 48.1288 36.8602 48.18V50.53C36.8602 50.6335 36.8191 50.7327 36.746 50.8058C36.6729 50.8789 36.5737 50.92 36.4702 50.92H35.3702C35.3203 50.92 35.2709 50.9102 35.2248 50.8911C35.1787 50.872 35.1368 50.844 35.1015 50.8087C35.0662 50.7735 35.0383 50.7316 35.0192 50.6855C35.0001 50.6394 34.9902 50.5899 34.9902 50.54V48.18C34.9902 48.0783 35.0299 47.9806 35.1009 47.9077C35.1719 47.8349 35.2685 47.7926 35.3702 47.79Z" fill="#787878"/>
<path d="M39.2806 47.79H40.3806C40.4814 47.79 40.5781 47.8301 40.6493 47.9013C40.7206 47.9726 40.7606 48.0693 40.7606 48.17V50.53C40.7606 50.6308 40.7206 50.7275 40.6493 50.7987C40.5781 50.87 40.4814 50.91 40.3806 50.91H39.2806C39.1772 50.91 39.078 50.8689 39.0049 50.7958C38.9317 50.7227 38.8906 50.6235 38.8906 50.52V48.18C38.8906 48.1288 38.9007 48.0781 38.9203 48.0308C38.9399 47.9835 38.9686 47.9405 39.0049 47.9043C39.0411 47.8681 39.0841 47.8393 39.1314 47.8197C39.1787 47.8001 39.2294 47.79 39.2806 47.79Z" fill="#565656"/>
<path d="M25.1004 55.9995V53.6595C25.1017 53.6088 25.0929 53.5583 25.0744 53.511C25.0559 53.4638 25.0281 53.4207 24.9927 53.3843C24.9572 53.348 24.9149 53.3191 24.8681 53.2994C24.8214 53.2797 24.7711 53.2695 24.7204 53.2695H23.6204C23.5696 53.2695 23.5194 53.2797 23.4726 53.2994C23.4258 53.3191 23.3835 53.348 23.3481 53.3843C23.3126 53.4207 23.2849 53.4638 23.2664 53.511C23.2479 53.5583 23.239 53.6088 23.2404 53.6595V55.9995H25.1004Z" fill="#565656"/>
<path d="M29.0005 55.9997V53.6597C29.0019 53.6081 28.9928 53.5567 28.9736 53.5088C28.9545 53.4609 28.9259 53.4173 28.8894 53.3808C28.8529 53.3443 28.8093 53.3157 28.7614 53.2965C28.7134 53.2774 28.6621 53.2683 28.6105 53.2697H27.5405C27.4889 53.2683 27.4376 53.2774 27.3897 53.2965C27.3417 53.3157 27.2982 53.3443 27.2617 53.3808C27.2252 53.4173 27.1965 53.4609 27.1774 53.5088C27.1583 53.5567 27.1491 53.6081 27.1505 53.6597V55.9997H29.0005Z" fill="#565656"/>
<path d="M32.9304 55.9995V53.6595C32.9318 53.6088 32.9229 53.5583 32.9044 53.511C32.8859 53.4638 32.8582 53.4207 32.8227 53.3843C32.7873 53.348 32.745 53.3191 32.6982 53.2994C32.6514 53.2797 32.6012 53.2695 32.5504 53.2695H31.4504C31.3997 53.2695 31.3494 53.2797 31.3027 53.2994C31.2559 53.3191 31.2136 53.348 31.1781 53.3843C31.1427 53.4207 31.1149 53.4638 31.0964 53.511C31.078 53.5583 31.0691 53.6088 31.0704 53.6595V55.9995H32.9304Z" fill="#787878"/>
<path d="M36.8506 55.9997V53.6597C36.852 53.6081 36.8428 53.5567 36.8237 53.5088C36.8046 53.4609 36.7759 53.4173 36.7394 53.3808C36.7029 53.3443 36.6594 53.3157 36.6115 53.2965C36.5635 53.2774 36.5122 53.2683 36.4606 53.2697H35.3706C35.319 53.2683 35.2677 53.2774 35.2197 53.2965C35.1718 53.3157 35.1283 53.3443 35.0918 53.3808C35.0553 53.4173 35.0266 53.4609 35.0075 53.5088C34.9884 53.5567 34.9792 53.6081 34.9806 53.6597V55.9997H36.8506Z" fill="#565656"/>
<path d="M40.7605 55.9995V53.6595C40.7619 53.6088 40.753 53.5583 40.7345 53.511C40.716 53.4638 40.6882 53.4207 40.6528 53.3843C40.6174 53.348 40.5751 53.3191 40.5283 53.2994C40.4815 53.2797 40.4313 53.2695 40.3805 53.2695H39.2805C39.2298 53.2695 39.1795 53.2797 39.1328 53.2994C39.086 53.3191 39.0436 53.348 39.0082 53.3843C38.9728 53.4207 38.945 53.4638 38.9265 53.511C38.908 53.5583 38.8992 53.6088 38.9005 53.6595V55.9995H40.7605Z" fill="#565656"/>
<path d="M16.5401 32H10.4301C10.2368 32 10.0801 32.1567 10.0801 32.35V32.96C10.0801 33.1533 10.2368 33.31 10.4301 33.31H16.5401C16.7334 33.31 16.8901 33.1533 16.8901 32.96V32.35C16.8901 32.1567 16.7334 32 16.5401 32Z" fill="#565656"/>
<path d="M16.5401 35.25H10.4301C10.2368 35.25 10.0801 35.4067 10.0801 35.6V36.21C10.0801 36.4033 10.2368 36.56 10.4301 36.56H16.5401C16.7334 36.56 16.8901 36.4033 16.8901 36.21V35.6C16.8901 35.4067 16.7334 35.25 16.5401 35.25Z" fill="#565656"/>
<path d="M16.5401 38.5H10.4301C10.2368 38.5 10.0801 38.6567 10.0801 38.85V39.46C10.0801 39.6533 10.2368 39.81 10.4301 39.81H16.5401C16.7334 39.81 16.8901 39.6533 16.8901 39.46V38.85C16.8901 38.6567 16.7334 38.5 16.5401 38.5Z" fill="#565656"/>
<path d="M16.5401 41.75H10.4301C10.2368 41.75 10.0801 41.9067 10.0801 42.1V42.71C10.0801 42.9033 10.2368 43.06 10.4301 43.06H16.5401C16.7334 43.06 16.8901 42.9033 16.8901 42.71V42.1C16.8901 41.9067 16.7334 41.75 16.5401 41.75Z" fill="#565656"/>
<path d="M16.5401 45H10.4301C10.2368 45 10.0801 45.1567 10.0801 45.35V45.96C10.0801 46.1533 10.2368 46.31 10.4301 46.31H16.5401C16.7334 46.31 16.8901 46.1533 16.8901 45.96V45.35C16.8901 45.1567 16.7334 45 16.5401 45Z" fill="#565656"/>
<path d="M16.5401 48.25H10.4301C10.2368 48.25 10.0801 48.4067 10.0801 48.6V49.21C10.0801 49.4033 10.2368 49.56 10.4301 49.56H16.5401C16.7334 49.56 16.8901 49.4033 16.8901 49.21V48.6C16.8901 48.4067 16.7334 48.25 16.5401 48.25Z" fill="#565656"/>
<path d="M16.5401 51.5H10.4301C10.2368 51.5 10.0801 51.6567 10.0801 51.85V52.46C10.0801 52.6533 10.2368 52.81 10.4301 52.81H16.5401C16.7334 52.81 16.8901 52.6533 16.8901 52.46V51.85C16.8901 51.6567 16.7334 51.5 16.5401 51.5Z" fill="#565656"/>
<path d="M55.9993 35.25H45.0293V56H55.9993V35.25Z" fill="#565656"/>
<path d="M48.16 37.75H47.11C46.9112 37.75 46.75 37.9112 46.75 38.11V39.16C46.75 39.3588 46.9112 39.52 47.11 39.52H48.16C48.3588 39.52 48.52 39.3588 48.52 39.16V38.11C48.52 37.9112 48.3588 37.75 48.16 37.75Z" fill="#565656"/>
<path d="M51.0409 37.75H49.9909C49.792 37.75 49.6309 37.9112 49.6309 38.11V39.16C49.6309 39.3588 49.792 39.52 49.9909 39.52H51.0409C51.2397 39.52 51.4009 39.3588 51.4009 39.16V38.11C51.4009 37.9112 51.2397 37.75 51.0409 37.75Z" fill="#565656"/>
<path d="M53.9198 37.75H52.8698C52.6709 37.75 52.5098 37.9112 52.5098 38.11V39.16C52.5098 39.3588 52.6709 39.52 52.8698 39.52H53.9198C54.1186 39.52 54.2798 39.3588 54.2798 39.16V38.11C54.2798 37.9112 54.1186 37.75 53.9198 37.75Z" fill="#565656"/>
<path d="M48.16 40.75H47.11C46.9112 40.75 46.75 40.9112 46.75 41.11V42.16C46.75 42.3588 46.9112 42.52 47.11 42.52H48.16C48.3588 42.52 48.52 42.3588 48.52 42.16V41.11C48.52 40.9112 48.3588 40.75 48.16 40.75Z" fill="#565656"/>
<path d="M51.0409 40.75H49.9909C49.792 40.75 49.6309 40.9112 49.6309 41.11V42.16C49.6309 42.3588 49.792 42.52 49.9909 42.52H51.0409C51.2397 42.52 51.4009 42.3588 51.4009 42.16V41.11C51.4009 40.9112 51.2397 40.75 51.0409 40.75Z" fill="#565656"/>
<path d="M53.9198 40.75H52.8698C52.6709 40.75 52.5098 40.9112 52.5098 41.11V42.16C52.5098 42.3588 52.6709 42.52 52.8698 42.52H53.9198C54.1186 42.52 54.2798 42.3588 54.2798 42.16V41.11C54.2798 40.9112 54.1186 40.75 53.9198 40.75Z" fill="#565656"/>
<path d="M48.16 43.75H47.11C46.9112 43.75 46.75 43.9112 46.75 44.11V45.16C46.75 45.3588 46.9112 45.52 47.11 45.52H48.16C48.3588 45.52 48.52 45.3588 48.52 45.16V44.11C48.52 43.9112 48.3588 43.75 48.16 43.75Z" fill="#565656"/>
<path d="M51.0409 43.75H49.9909C49.792 43.75 49.6309 43.9112 49.6309 44.11V45.16C49.6309 45.3588 49.792 45.52 49.9909 45.52H51.0409C51.2397 45.52 51.4009 45.3588 51.4009 45.16V44.11C51.4009 43.9112 51.2397 43.75 51.0409 43.75Z" fill="#565656"/>
<path d="M53.9198 43.75H52.8698C52.6709 43.75 52.5098 43.9112 52.5098 44.11V45.16C52.5098 45.3588 52.6709 45.52 52.8698 45.52H53.9198C54.1186 45.52 54.2798 45.3588 54.2798 45.16V44.11C54.2798 43.9112 54.1186 43.75 53.9198 43.75Z" fill="#565656"/>
<path d="M48.16 46.75H47.11C46.9112 46.75 46.75 46.9112 46.75 47.11V48.16C46.75 48.3588 46.9112 48.52 47.11 48.52H48.16C48.3588 48.52 48.52 48.3588 48.52 48.16V47.11C48.52 46.9112 48.3588 46.75 48.16 46.75Z" fill="#565656"/>
<path d="M51.0409 46.75H49.9909C49.792 46.75 49.6309 46.9112 49.6309 47.11V48.16C49.6309 48.3588 49.792 48.52 49.9909 48.52H51.0409C51.2397 48.52 51.4009 48.3588 51.4009 48.16V47.11C51.4009 46.9112 51.2397 46.75 51.0409 46.75Z" fill="#565656"/>
<path d="M53.9198 46.75H52.8698C52.6709 46.75 52.5098 46.9112 52.5098 47.11V48.16C52.5098 48.3588 52.6709 48.52 52.8698 48.52H53.9198C54.1186 48.52 54.2798 48.3588 54.2798 48.16V47.11C54.2798 46.9112 54.1186 46.75 53.9198 46.75Z" fill="#565656"/>
<path d="M48.16 49.75H47.11C46.9112 49.75 46.75 49.9112 46.75 50.11V51.16C46.75 51.3588 46.9112 51.52 47.11 51.52H48.16C48.3588 51.52 48.52 51.3588 48.52 51.16V50.11C48.52 49.9112 48.3588 49.75 48.16 49.75Z" fill="#565656"/>
<path d="M51.0409 49.75H49.9909C49.792 49.75 49.6309 49.9112 49.6309 50.11V51.16C49.6309 51.3588 49.792 51.52 49.9909 51.52H51.0409C51.2397 51.52 51.4009 51.3588 51.4009 51.16V50.11C51.4009 49.9112 51.2397 49.75 51.0409 49.75Z" fill="#565656"/>
<path d="M53.9198 49.75H52.8698C52.6709 49.75 52.5098 49.9112 52.5098 50.11V51.16C52.5098 51.3588 52.6709 51.52 52.8698 51.52H53.9198C54.1186 51.52 54.2798 51.3588 54.2798 51.16V50.11C54.2798 49.9112 54.1186 49.75 53.9198 49.75Z" fill="#565656"/>
<path d="M48.16 52.75H47.11C46.9112 52.75 46.75 52.9112 46.75 53.11V54.16C46.75 54.3588 46.9112 54.52 47.11 54.52H48.16C48.3588 54.52 48.52 54.3588 48.52 54.16V53.11C48.52 52.9112 48.3588 52.75 48.16 52.75Z" fill="#565656"/>
<path d="M51.0409 52.75H49.9909C49.792 52.75 49.6309 52.9112 49.6309 53.11V54.16C49.6309 54.3588 49.792 54.52 49.9909 54.52H51.0409C51.2397 54.52 51.4009 54.3588 51.4009 54.16V53.11C51.4009 52.9112 51.2397 52.75 51.0409 52.75Z" fill="#565656"/>
<path d="M53.9198 52.75H52.8698C52.6709 52.75 52.5098 52.9112 52.5098 53.11V54.16C52.5098 54.3588 52.6709 54.52 52.8698 54.52H53.9198C54.1186 54.52 54.2798 54.3588 54.2798 54.16V53.11C54.2798 52.9112 54.1186 52.75 53.9198 52.75Z" fill="#565656"/>
</svg>
