<svg width="43" height="37" viewBox="0 0 43 37" fill="none" xmlns="http://www.w3.org/2000/svg">
<path d="M5.36482 36.7433V36.6218C5.36482 35.0425 5.36482 33.4634 5.36482 31.9043C5.36482 31.3779 5.36482 30.8311 5.36482 30.3047V25.5467C5.36482 25.2834 5.36483 25.2429 5.03936 25.2429H0.625112C0.380996 25.2429 0.279297 25.2429 0.279297 24.9191C0.279297 23.6436 0.279297 22.3478 0.279297 21.0721H4.99868C5.26313 21.0721 5.36482 21.0721 5.36482 20.728C5.36482 19.4524 5.36482 18.197 5.36482 16.9214C5.36482 16.6786 5.36483 16.6178 5.03936 16.6178H0.625112C0.380996 16.6178 0.279297 16.6178 0.279297 16.2938C0.279297 15.1195 0.279297 13.925 0.279297 12.7303C0.279297 12.5077 0.279297 12.447 0.604764 12.447C2.04907 12.447 3.5137 12.447 4.97833 12.447C5.28347 12.447 5.36482 12.447 5.36482 12.0622V1.14908C5.36482 0.825111 5.36483 0.744141 5.77168 0.744141H21.0282C22.1268 0.784626 23.2455 0.906103 24.3238 1.10857C26.5615 1.51353 28.7177 2.3234 30.6909 3.45723C31.9928 4.22662 33.1929 5.13773 34.2711 6.21091C35.0645 7.04088 35.7966 7.95205 36.4478 8.90373C37.0987 9.87547 37.6275 10.9082 38.0343 12.0014C38.0953 12.2849 38.3599 12.4672 38.6445 12.4267C39.8449 12.4267 41.0653 12.4267 42.2858 12.4267C42.7538 12.4267 42.7538 12.4267 42.7742 12.8721V16.1925C42.7742 16.5166 42.6521 16.5976 42.3265 16.5976H39.5193C39.2346 16.5976 39.1532 16.5976 39.1736 16.9619C39.2753 18.197 39.2753 19.4322 39.1736 20.6672C39.1736 21.0113 39.1736 21.0518 39.56 21.0518H42.7742C42.7742 21.0518 42.7742 23.9471 42.7742 24.7571C42.7742 25.1014 42.6724 25.2024 42.3672 25.2024C41.0857 25.2024 39.8042 25.2024 38.5226 25.2024C38.2581 25.1621 37.9936 25.3239 37.9326 25.5872C37.0173 27.9562 35.5526 30.0819 33.6609 31.7828C32.9691 32.4104 32.2774 33.0178 31.4843 33.5241C30.6909 34.0302 29.8772 34.4756 29.0431 34.8604C27.4971 35.5488 25.8902 36.0549 24.2424 36.3788C22.676 36.6623 21.0689 36.7838 19.4824 36.7636H5.36482V36.7433ZM33.4574 25.2632H32.4199H9.86038C9.55536 25.2632 9.45362 25.2632 9.45362 25.6682C9.45362 28.0168 9.45362 30.3452 9.45362 32.6939C9.45362 33.0178 9.45362 33.0988 9.86038 33.0988H20.2757C20.8249 33.0988 21.5369 33.0583 22.0454 32.9975C23.5914 32.775 24.7712 32.5522 26.1748 32.0258C26.6833 31.8435 27.7209 31.3779 27.8023 31.3374C30.2432 30.0819 32.2166 28.0775 33.4778 25.648C33.4778 25.648 33.6202 25.3442 33.4574 25.2632ZM33.4574 12.1027C33.2539 11.6573 33.0098 11.232 32.7251 10.8271C32.2978 10.1388 31.7893 9.51111 31.2197 8.94423C30.9552 8.59994 30.6298 8.29634 30.2839 8.03306C28.5143 6.53476 26.4394 5.48193 24.1813 4.95552C23.0423 4.69229 21.8826 4.57082 20.7232 4.59107C17.0819 4.59107 13.4406 4.59107 9.79934 4.59107C9.49432 4.59107 9.45362 4.71254 9.45362 4.97575C9.45362 7.36492 9.45362 9.7742 9.45362 12.1634C9.45362 12.4672 9.45362 12.5482 9.84004 12.5482H33.315C33.315 12.5482 33.5795 12.5482 33.5591 12.3862C33.5591 12.3862 33.4981 12.1837 33.4574 12.1027ZM22.0658 21.0518H34.4337C34.6982 21.0518 34.8203 21.0518 34.8407 20.7077C34.9424 19.4524 34.9424 18.197 34.8407 16.9417C34.8407 16.6988 34.7186 16.5976 34.4541 16.5976H9.84004C9.53501 16.5976 9.45362 16.6988 9.45362 16.9822V20.5862C9.45362 21.0518 9.45362 21.0518 9.94178 21.0518H22.0658Z" fill="#FEFEFD"/>
</svg>
