<svg width="112" height="122" viewBox="0 0 112 122" fill="none" xmlns="http://www.w3.org/2000/svg">
<path d="M43.278 87V74.4H47.364C48.84 74.4 50.052 74.658 51 75.174C51.96 75.69 52.668 76.422 53.124 77.37C53.592 78.306 53.826 79.422 53.826 80.718C53.826 82.002 53.592 83.118 53.124 84.066C52.668 85.002 51.96 85.728 51 86.244C50.052 86.748 48.84 87 47.364 87H43.278ZM45.186 85.38H47.292C48.432 85.38 49.332 85.194 49.992 84.822C50.664 84.45 51.144 83.916 51.432 83.22C51.732 82.524 51.882 81.69 51.882 80.718C51.882 79.746 51.732 78.906 51.432 78.198C51.144 77.49 50.664 76.95 49.992 76.578C49.332 76.194 48.432 76.002 47.292 76.002H45.186V85.38ZM58.8863 87.216C58.1303 87.216 57.5063 87.09 57.0143 86.838C56.5223 86.586 56.1563 86.256 55.9163 85.848C55.6763 85.428 55.5563 84.972 55.5563 84.48C55.5563 83.616 55.8923 82.932 56.5643 82.428C57.2363 81.924 58.1963 81.672 59.4443 81.672H61.7843V81.51C61.7843 80.814 61.5923 80.292 61.2083 79.944C60.8363 79.596 60.3503 79.422 59.7503 79.422C59.2223 79.422 58.7603 79.554 58.3643 79.818C57.9803 80.07 57.7463 80.448 57.6623 80.952H55.7543C55.8143 80.304 56.0303 79.752 56.4023 79.296C56.7863 78.828 57.2663 78.474 57.8423 78.234C58.4303 77.982 59.0723 77.856 59.7683 77.856C61.0163 77.856 61.9823 78.186 62.6663 78.846C63.3503 79.494 63.6923 80.382 63.6923 81.51V87H62.0363L61.8743 85.47C61.6223 85.962 61.2563 86.376 60.7763 86.712C60.2963 87.048 59.6663 87.216 58.8863 87.216ZM59.2643 85.668C59.7803 85.668 60.2123 85.548 60.5603 85.308C60.9203 85.056 61.1963 84.726 61.3883 84.318C61.5923 83.91 61.7183 83.46 61.7663 82.968H59.6423C58.8863 82.968 58.3463 83.1 58.0223 83.364C57.7103 83.628 57.5543 83.958 57.5543 84.354C57.5543 84.762 57.7043 85.086 58.0043 85.326C58.3163 85.554 58.7363 85.668 59.2643 85.668ZM66.9969 76.38C66.6369 76.38 66.3369 76.272 66.0969 76.056C65.8689 75.828 65.7549 75.546 65.7549 75.21C65.7549 74.874 65.8689 74.598 66.0969 74.382C66.3369 74.154 66.6369 74.04 66.9969 74.04C67.3569 74.04 67.6509 74.154 67.8789 74.382C68.1189 74.598 68.2389 74.874 68.2389 75.21C68.2389 75.546 68.1189 75.828 67.8789 76.056C67.6509 76.272 67.3569 76.38 66.9969 76.38ZM66.0429 87V78.072H67.9509V87H66.0429Z" fill="white"/>
<path opacity="0.5" d="M26.334 115.168C25.3727 115.168 24.542 114.958 23.842 114.538C23.1513 114.109 22.6147 113.516 22.232 112.76C21.8493 111.995 21.658 111.108 21.658 110.1C21.658 109.101 21.8493 108.224 22.232 107.468C22.6147 106.703 23.1513 106.105 23.842 105.676C24.542 105.247 25.3727 105.032 26.334 105.032C27.454 105.032 28.364 105.303 29.064 105.844C29.7733 106.376 30.226 107.123 30.422 108.084H29.12C28.9707 107.477 28.6627 106.992 28.196 106.628C27.7387 106.255 27.118 106.068 26.334 106.068C25.634 106.068 25.0227 106.231 24.5 106.558C23.9773 106.875 23.5713 107.337 23.282 107.944C23.002 108.541 22.862 109.26 22.862 110.1C22.862 110.94 23.002 111.663 23.282 112.27C23.5713 112.867 23.9773 113.329 24.5 113.656C25.0227 113.973 25.634 114.132 26.334 114.132C27.118 114.132 27.7387 113.955 28.196 113.6C28.6627 113.236 28.9707 112.755 29.12 112.158H30.422C30.226 113.101 29.7733 113.838 29.064 114.37C28.364 114.902 27.454 115.168 26.334 115.168ZM32.0422 115V108.056H33.1062L33.2042 109.386C33.4188 108.929 33.7455 108.565 34.1842 108.294C34.6228 108.023 35.1642 107.888 35.8082 107.888V109.12H35.4862C35.0755 109.12 34.6975 109.195 34.3522 109.344C34.0068 109.484 33.7315 109.727 33.5262 110.072C33.3208 110.417 33.2182 110.893 33.2182 111.5V115H32.0422ZM39.9903 115.168C39.3277 115.168 38.7397 115.019 38.2263 114.72C37.713 114.412 37.307 113.987 37.0083 113.446C36.719 112.905 36.5743 112.265 36.5743 111.528C36.5743 110.8 36.719 110.165 37.0083 109.624C37.2977 109.073 37.699 108.649 38.2123 108.35C38.735 108.042 39.337 107.888 40.0183 107.888C40.6903 107.888 41.269 108.042 41.7543 108.35C42.249 108.649 42.627 109.045 42.8883 109.54C43.1497 110.035 43.2803 110.567 43.2803 111.136C43.2803 111.239 43.2757 111.341 43.2663 111.444C43.2663 111.547 43.2663 111.663 43.2663 111.794H37.7363C37.7643 112.326 37.8857 112.769 38.1003 113.124C38.3243 113.469 38.5997 113.731 38.9263 113.908C39.2623 114.085 39.617 114.174 39.9903 114.174C40.4757 114.174 40.8817 114.062 41.2083 113.838C41.535 113.614 41.773 113.311 41.9223 112.928H43.0843C42.8977 113.572 42.5383 114.109 42.0063 114.538C41.4837 114.958 40.8117 115.168 39.9903 115.168ZM39.9903 108.882C39.4303 108.882 38.931 109.055 38.4923 109.4C38.063 109.736 37.8157 110.231 37.7503 110.884H42.1183C42.0903 110.259 41.8757 109.769 41.4743 109.414C41.073 109.059 40.5783 108.882 39.9903 108.882ZM47.989 115.168C47.2984 115.168 46.6917 115.009 46.169 114.692C45.6557 114.375 45.2544 113.941 44.965 113.39C44.685 112.839 44.545 112.214 44.545 111.514C44.545 110.814 44.6897 110.193 44.979 109.652C45.2684 109.101 45.6697 108.672 46.183 108.364C46.6964 108.047 47.303 107.888 48.003 107.888C48.5724 107.888 49.0764 108.005 49.515 108.238C49.9537 108.471 50.2944 108.798 50.537 109.218V104.92H51.713V115H50.649L50.537 113.852C50.313 114.188 49.991 114.491 49.571 114.762C49.151 115.033 48.6237 115.168 47.989 115.168ZM48.115 114.146C48.5817 114.146 48.9924 114.039 49.347 113.824C49.711 113.6 49.991 113.292 50.187 112.9C50.3924 112.508 50.495 112.051 50.495 111.528C50.495 111.005 50.3924 110.548 50.187 110.156C49.991 109.764 49.711 109.461 49.347 109.246C48.9924 109.022 48.5817 108.91 48.115 108.91C47.6577 108.91 47.247 109.022 46.883 109.246C46.5284 109.461 46.2484 109.764 46.043 110.156C45.847 110.548 45.749 111.005 45.749 111.528C45.749 112.051 45.847 112.508 46.043 112.9C46.2484 113.292 46.5284 113.6 46.883 113.824C47.247 114.039 47.6577 114.146 48.115 114.146ZM54.3441 106.516C54.1107 106.516 53.9147 106.441 53.7561 106.292C53.6067 106.133 53.5321 105.937 53.5321 105.704C53.5321 105.48 53.6067 105.293 53.7561 105.144C53.9147 104.995 54.1107 104.92 54.3441 104.92C54.5681 104.92 54.7594 104.995 54.9181 105.144C55.0767 105.293 55.1561 105.48 55.1561 105.704C55.1561 105.937 55.0767 106.133 54.9181 106.292C54.7594 106.441 54.5681 106.516 54.3441 106.516ZM53.7561 115V108.056H54.9321V115H53.7561ZM59.7237 115C59.089 115 58.5897 114.846 58.2257 114.538C57.8617 114.23 57.6797 113.675 57.6797 112.872V109.05H56.4757V108.056H57.6797L57.8337 106.39H58.8557V108.056H60.8997V109.05H58.8557V112.872C58.8557 113.311 58.9443 113.609 59.1217 113.768C59.299 113.917 59.6117 113.992 60.0597 113.992H60.7877V115H59.7237ZM66.1688 115V105.2H67.3448V114.062H71.9088V115H66.1688ZM74.1683 106.516C73.9349 106.516 73.7389 106.441 73.5803 106.292C73.4309 106.133 73.3563 105.937 73.3563 105.704C73.3563 105.48 73.4309 105.293 73.5803 105.144C73.7389 104.995 73.9349 104.92 74.1683 104.92C74.3923 104.92 74.5836 104.995 74.7423 105.144C74.9009 105.293 74.9803 105.48 74.9803 105.704C74.9803 105.937 74.9009 106.133 74.7423 106.292C74.5836 106.441 74.3923 106.516 74.1683 106.516ZM73.5803 115V108.056H74.7563V115H73.5803ZM76.8039 115V108.056H77.8679L77.9379 109.302C78.1619 108.863 78.4839 108.518 78.9039 108.266C79.3239 108.014 79.7999 107.888 80.3319 107.888C81.1532 107.888 81.8066 108.14 82.2919 108.644C82.7866 109.139 83.0339 109.904 83.0339 110.94V115H81.8579V111.066C81.8579 109.619 81.2606 108.896 80.0659 108.896C79.4686 108.896 78.9692 109.115 78.5679 109.554C78.1759 109.983 77.9799 110.599 77.9799 111.402V115H76.8039ZM87.9376 115.168C87.2749 115.168 86.6869 115.019 86.1736 114.72C85.6603 114.412 85.2543 113.987 84.9556 113.446C84.6663 112.905 84.5216 112.265 84.5216 111.528C84.5216 110.8 84.6663 110.165 84.9556 109.624C85.2449 109.073 85.6463 108.649 86.1596 108.35C86.6823 108.042 87.2843 107.888 87.9656 107.888C88.6376 107.888 89.2163 108.042 89.7016 108.35C90.1963 108.649 90.5743 109.045 90.8356 109.54C91.0969 110.035 91.2276 110.567 91.2276 111.136C91.2276 111.239 91.2229 111.341 91.2136 111.444C91.2136 111.547 91.2136 111.663 91.2136 111.794H85.6836C85.7116 112.326 85.8329 112.769 86.0476 113.124C86.2716 113.469 86.5469 113.731 86.8736 113.908C87.2096 114.085 87.5643 114.174 87.9376 114.174C88.4229 114.174 88.8289 114.062 89.1556 113.838C89.4823 113.614 89.7203 113.311 89.8696 112.928H91.0316C90.8449 113.572 90.4856 114.109 89.9536 114.538C89.4309 114.958 88.7589 115.168 87.9376 115.168ZM87.9376 108.882C87.3776 108.882 86.8783 109.055 86.4396 109.4C86.0103 109.736 85.7629 110.231 85.6976 110.884H90.0656C90.0376 110.259 89.8229 109.769 89.4216 109.414C89.0203 109.059 88.5256 108.882 87.9376 108.882Z" fill="white"/>
<path d="M39.6475 41.7302V41.6021C39.6475 39.9375 39.6475 38.273 39.6475 36.6296C39.6475 36.0748 39.6475 35.4984 39.6475 34.9436V29.9284C39.6475 29.6509 39.6475 29.6082 39.3076 29.6082H34.6971C34.4422 29.6082 34.3359 29.6082 34.3359 29.2669C34.3359 27.9224 34.3359 26.5566 34.3359 25.2119H39.2651C39.5413 25.2119 39.6475 25.2119 39.6475 24.8492C39.6475 23.5047 39.6475 22.1814 39.6475 20.8369C39.6475 20.5809 39.6475 20.5169 39.3076 20.5169H34.6971C34.4422 20.5169 34.3359 20.5169 34.3359 20.1753C34.3359 18.9376 34.3359 17.6785 34.3359 16.4192C34.3359 16.1846 34.3359 16.1206 34.6759 16.1206C36.1844 16.1206 37.7141 16.1206 39.2438 16.1206C39.5625 16.1206 39.6475 16.1206 39.6475 15.715V4.21198C39.6475 3.8705 39.6475 3.78516 40.0724 3.78516H56.007C57.1544 3.82783 58.3229 3.95587 59.4491 4.16929C61.7862 4.59613 64.0383 5.44978 66.0991 6.6449C67.4589 7.45588 68.7123 8.41624 69.8385 9.54743C70.6671 10.4223 71.4318 11.3827 72.1119 12.3858C72.7917 13.4101 73.3441 14.4986 73.7689 15.6509C73.8327 15.9498 74.109 16.1419 74.4063 16.0992C75.66 16.0992 76.9347 16.0992 78.2094 16.0992C78.6982 16.0992 78.6982 16.0992 78.7195 16.5687V20.0686C78.7195 20.4102 78.592 20.4956 78.2519 20.4956H75.3199C75.0226 20.4956 74.9376 20.4955 74.9589 20.8796C75.0651 22.1814 75.0651 23.4834 74.9589 24.7851C74.9589 25.1478 74.9589 25.1905 75.3624 25.1905H78.7195C78.7195 25.1905 78.7195 28.2424 78.7195 29.0961C78.7195 29.459 78.6132 29.5655 78.2944 29.5655C76.9559 29.5655 75.6175 29.5655 74.279 29.5655C74.0027 29.523 73.7264 29.6936 73.6627 29.9711C72.7067 32.4681 71.177 34.7088 69.2011 36.5016C68.4786 37.1631 67.7562 37.8033 66.9278 38.337C66.0991 38.8705 65.2493 39.3399 64.3781 39.7455C62.7634 40.4711 61.0851 41.0046 59.364 41.346C57.728 41.6448 56.0495 41.7729 54.3925 41.7516H39.6475V41.7302ZM68.9886 29.6296H67.905H44.3428C44.0243 29.6296 43.918 29.6296 43.918 30.0565C43.918 32.532 43.918 34.9863 43.918 37.462C43.918 37.8033 43.918 37.8887 44.3428 37.8887H55.2211C55.7947 37.8887 56.5383 37.846 57.0694 37.782C58.6842 37.5474 59.9164 37.3126 61.3824 36.7577C61.9135 36.5656 62.9971 36.0748 63.0822 36.0321C65.6316 34.7088 67.6927 32.596 69.0099 30.0352C69.0099 30.0352 69.1586 29.7149 68.9886 29.6296ZM68.9886 15.7577C68.7761 15.2882 68.5211 14.8399 68.2238 14.4132C67.7775 13.6876 67.2464 13.026 66.6515 12.4285C66.3752 12.0656 66.0354 11.7456 65.6741 11.4681C63.8258 9.88878 61.6587 8.77904 59.3003 8.22418C58.1106 7.94672 56.8994 7.81868 55.6884 7.84003C51.8853 7.84003 48.0822 7.84003 44.2791 7.84003C43.9605 7.84003 43.918 7.96807 43.918 8.2455C43.918 10.7638 43.918 13.3033 43.918 15.8217C43.918 16.1419 43.918 16.2273 44.3216 16.2273H68.8399C68.8399 16.2273 69.1161 16.2273 69.0949 16.0565C69.0949 16.0565 69.0311 15.8431 68.9886 15.7577ZM57.0907 25.1905H70.0083C70.2846 25.1905 70.4121 25.1905 70.4334 24.8278C70.5396 23.5047 70.5396 22.1814 70.4334 20.8582C70.4334 20.6023 70.3059 20.4956 70.0296 20.4956H44.3216C44.003 20.4956 43.918 20.6023 43.918 20.9009V24.6997C43.918 25.1905 43.918 25.1905 44.4279 25.1905H57.0907Z" fill="#FEFEFD"/>
</svg>
