<svg width="112" height="126" viewBox="0 0 112 126" fill="none" xmlns="http://www.w3.org/2000/svg">
<path d="M16.278 91V78.4H24.288V79.948H18.186V83.872H23.748V85.384H18.186V89.452H24.288V91H16.278ZM30.2332 91C29.3572 91 28.6612 90.79 28.1452 90.37C27.6292 89.938 27.3712 89.176 27.3712 88.084V83.674H25.8412V82.072H27.3712L27.6052 79.804H29.2792V82.072H31.7992V83.674H29.2792V88.084C29.2792 88.576 29.3812 88.918 29.5852 89.11C29.8012 89.29 30.1672 89.38 30.6832 89.38H31.7092V91H30.2332ZM33.7665 91V78.04H35.6745V83.512C35.9745 82.996 36.3885 82.594 36.9165 82.306C37.4565 82.006 38.0505 81.856 38.6985 81.856C39.7665 81.856 40.6065 82.192 41.2185 82.864C41.8305 83.536 42.1365 84.538 42.1365 85.87V91H40.2465V86.068C40.2465 84.34 39.5565 83.476 38.1765 83.476C37.4565 83.476 36.8565 83.728 36.3765 84.232C35.9085 84.736 35.6745 85.456 35.6745 86.392V91H33.7665ZM48.5597 91.216C47.6837 91.216 46.9037 91.024 46.2197 90.64C45.5477 90.244 45.0197 89.698 44.6357 89.002C44.2517 88.306 44.0597 87.496 44.0597 86.572C44.0597 85.636 44.2457 84.814 44.6177 84.106C45.0017 83.398 45.5297 82.846 46.2017 82.45C46.8857 82.054 47.6777 81.856 48.5777 81.856C49.4537 81.856 50.2157 82.054 50.8637 82.45C51.5117 82.834 52.0157 83.35 52.3757 83.998C52.7357 84.646 52.9157 85.36 52.9157 86.14C52.9157 86.26 52.9097 86.392 52.8977 86.536C52.8977 86.668 52.8917 86.818 52.8797 86.986H45.9317C45.9917 87.85 46.2737 88.51 46.7777 88.966C47.2937 89.41 47.8877 89.632 48.5597 89.632C49.0997 89.632 49.5497 89.512 49.9097 89.272C50.2817 89.02 50.5577 88.684 50.7377 88.264H52.6457C52.4057 89.104 51.9257 89.806 51.2057 90.37C50.4977 90.934 49.6157 91.216 48.5597 91.216ZM48.5597 83.422C47.9237 83.422 47.3597 83.614 46.8677 83.998C46.3757 84.37 46.0757 84.934 45.9677 85.69H51.0077C50.9717 84.994 50.7257 84.442 50.2697 84.034C49.8137 83.626 49.2437 83.422 48.5597 83.422ZM54.8955 91V82.072H56.6055L56.7675 83.764C57.0795 83.176 57.5115 82.714 58.0635 82.378C58.6275 82.03 59.3055 81.856 60.0975 81.856V83.854H59.5755C59.0475 83.854 58.5735 83.944 58.1535 84.124C57.7455 84.292 57.4155 84.586 57.1635 85.006C56.9235 85.414 56.8035 85.984 56.8035 86.716V91H54.8955ZM65.6633 91.216C64.7873 91.216 64.0073 91.024 63.3233 90.64C62.6513 90.244 62.1233 89.698 61.7393 89.002C61.3553 88.306 61.1633 87.496 61.1633 86.572C61.1633 85.636 61.3493 84.814 61.7213 84.106C62.1053 83.398 62.6333 82.846 63.3053 82.45C63.9893 82.054 64.7813 81.856 65.6813 81.856C66.5573 81.856 67.3193 82.054 67.9673 82.45C68.6153 82.834 69.1193 83.35 69.4793 83.998C69.8393 84.646 70.0193 85.36 70.0193 86.14C70.0193 86.26 70.0133 86.392 70.0013 86.536C70.0013 86.668 69.9953 86.818 69.9833 86.986H63.0353C63.0953 87.85 63.3773 88.51 63.8813 88.966C64.3973 89.41 64.9913 89.632 65.6633 89.632C66.2033 89.632 66.6533 89.512 67.0133 89.272C67.3853 89.02 67.6613 88.684 67.8413 88.264H69.7493C69.5093 89.104 69.0293 89.806 68.3093 90.37C67.6013 90.934 66.7193 91.216 65.6633 91.216ZM65.6633 83.422C65.0273 83.422 64.4633 83.614 63.9713 83.998C63.4793 84.37 63.1793 84.934 63.0713 85.69H68.1113C68.0753 84.994 67.8293 84.442 67.3733 84.034C66.9173 83.626 66.3473 83.422 65.6633 83.422ZM75.293 91.216C74.213 91.216 73.361 90.88 72.737 90.208C72.125 89.536 71.819 88.534 71.819 87.202V82.072H73.727V87.004C73.727 88.732 74.435 89.596 75.851 89.596C76.559 89.596 77.141 89.344 77.597 88.84C78.053 88.336 78.281 87.616 78.281 86.68V82.072H80.189V91H78.497L78.353 89.434C78.077 89.986 77.669 90.424 77.129 90.748C76.601 91.06 75.989 91.216 75.293 91.216ZM82.6162 91V82.072H84.3082L84.4702 83.332C84.7582 82.876 85.1362 82.516 85.6042 82.252C86.0842 81.988 86.6362 81.856 87.2602 81.856C88.6762 81.856 89.6602 82.414 90.2122 83.53C90.5362 83.014 90.9682 82.606 91.5082 82.306C92.0602 82.006 92.6542 81.856 93.2902 81.856C94.4062 81.856 95.2822 82.192 95.9182 82.864C96.5542 83.536 96.8722 84.538 96.8722 85.87V91H94.9642V86.068C94.9642 84.34 94.3042 83.476 92.9842 83.476C92.3122 83.476 91.7602 83.728 91.3282 84.232C90.9082 84.736 90.6982 85.456 90.6982 86.392V91H88.7902V86.068C88.7902 84.34 88.1242 83.476 86.7922 83.476C86.1322 83.476 85.5862 83.728 85.1542 84.232C84.7342 84.736 84.5242 85.456 84.5242 86.392V91H82.6162Z" fill="white"/>
<path opacity="0.5" d="M26.334 119.168C25.3727 119.168 24.542 118.958 23.842 118.538C23.1513 118.109 22.6147 117.516 22.232 116.76C21.8493 115.995 21.658 115.108 21.658 114.1C21.658 113.101 21.8493 112.224 22.232 111.468C22.6147 110.703 23.1513 110.105 23.842 109.676C24.542 109.247 25.3727 109.032 26.334 109.032C27.454 109.032 28.364 109.303 29.064 109.844C29.7733 110.376 30.226 111.123 30.422 112.084H29.12C28.9707 111.477 28.6627 110.992 28.196 110.628C27.7387 110.255 27.118 110.068 26.334 110.068C25.634 110.068 25.0227 110.231 24.5 110.558C23.9773 110.875 23.5713 111.337 23.282 111.944C23.002 112.541 22.862 113.26 22.862 114.1C22.862 114.94 23.002 115.663 23.282 116.27C23.5713 116.867 23.9773 117.329 24.5 117.656C25.0227 117.973 25.634 118.132 26.334 118.132C27.118 118.132 27.7387 117.955 28.196 117.6C28.6627 117.236 28.9707 116.755 29.12 116.158H30.422C30.226 117.101 29.7733 117.838 29.064 118.37C28.364 118.902 27.454 119.168 26.334 119.168ZM32.0422 119V112.056H33.1062L33.2042 113.386C33.4188 112.929 33.7455 112.565 34.1842 112.294C34.6228 112.023 35.1642 111.888 35.8082 111.888V113.12H35.4862C35.0755 113.12 34.6975 113.195 34.3522 113.344C34.0068 113.484 33.7315 113.727 33.5262 114.072C33.3208 114.417 33.2182 114.893 33.2182 115.5V119H32.0422ZM39.9903 119.168C39.3277 119.168 38.7397 119.019 38.2263 118.72C37.713 118.412 37.307 117.987 37.0083 117.446C36.719 116.905 36.5743 116.265 36.5743 115.528C36.5743 114.8 36.719 114.165 37.0083 113.624C37.2977 113.073 37.699 112.649 38.2123 112.35C38.735 112.042 39.337 111.888 40.0183 111.888C40.6903 111.888 41.269 112.042 41.7543 112.35C42.249 112.649 42.627 113.045 42.8883 113.54C43.1497 114.035 43.2803 114.567 43.2803 115.136C43.2803 115.239 43.2757 115.341 43.2663 115.444C43.2663 115.547 43.2663 115.663 43.2663 115.794H37.7363C37.7643 116.326 37.8857 116.769 38.1003 117.124C38.3243 117.469 38.5997 117.731 38.9263 117.908C39.2623 118.085 39.617 118.174 39.9903 118.174C40.4757 118.174 40.8817 118.062 41.2083 117.838C41.535 117.614 41.773 117.311 41.9223 116.928H43.0843C42.8977 117.572 42.5383 118.109 42.0063 118.538C41.4837 118.958 40.8117 119.168 39.9903 119.168ZM39.9903 112.882C39.4303 112.882 38.931 113.055 38.4923 113.4C38.063 113.736 37.8157 114.231 37.7503 114.884H42.1183C42.0903 114.259 41.8757 113.769 41.4743 113.414C41.073 113.059 40.5783 112.882 39.9903 112.882ZM47.989 119.168C47.2984 119.168 46.6917 119.009 46.169 118.692C45.6557 118.375 45.2544 117.941 44.965 117.39C44.685 116.839 44.545 116.214 44.545 115.514C44.545 114.814 44.6897 114.193 44.979 113.652C45.2684 113.101 45.6697 112.672 46.183 112.364C46.6964 112.047 47.303 111.888 48.003 111.888C48.5724 111.888 49.0764 112.005 49.515 112.238C49.9537 112.471 50.2944 112.798 50.537 113.218V108.92H51.713V119H50.649L50.537 117.852C50.313 118.188 49.991 118.491 49.571 118.762C49.151 119.033 48.6237 119.168 47.989 119.168ZM48.115 118.146C48.5817 118.146 48.9924 118.039 49.347 117.824C49.711 117.6 49.991 117.292 50.187 116.9C50.3924 116.508 50.495 116.051 50.495 115.528C50.495 115.005 50.3924 114.548 50.187 114.156C49.991 113.764 49.711 113.461 49.347 113.246C48.9924 113.022 48.5817 112.91 48.115 112.91C47.6577 112.91 47.247 113.022 46.883 113.246C46.5284 113.461 46.2484 113.764 46.043 114.156C45.847 114.548 45.749 115.005 45.749 115.528C45.749 116.051 45.847 116.508 46.043 116.9C46.2484 117.292 46.5284 117.6 46.883 117.824C47.247 118.039 47.6577 118.146 48.115 118.146ZM54.3441 110.516C54.1107 110.516 53.9147 110.441 53.7561 110.292C53.6067 110.133 53.5321 109.937 53.5321 109.704C53.5321 109.48 53.6067 109.293 53.7561 109.144C53.9147 108.995 54.1107 108.92 54.3441 108.92C54.5681 108.92 54.7594 108.995 54.9181 109.144C55.0767 109.293 55.1561 109.48 55.1561 109.704C55.1561 109.937 55.0767 110.133 54.9181 110.292C54.7594 110.441 54.5681 110.516 54.3441 110.516ZM53.7561 119V112.056H54.9321V119H53.7561ZM59.7237 119C59.089 119 58.5897 118.846 58.2257 118.538C57.8617 118.23 57.6797 117.675 57.6797 116.872V113.05H56.4757V112.056H57.6797L57.8337 110.39H58.8557V112.056H60.8997V113.05H58.8557V116.872C58.8557 117.311 58.9443 117.609 59.1217 117.768C59.299 117.917 59.6117 117.992 60.0597 117.992H60.7877V119H59.7237ZM66.1688 119V109.2H67.3448V118.062H71.9088V119H66.1688ZM74.1683 110.516C73.9349 110.516 73.7389 110.441 73.5803 110.292C73.4309 110.133 73.3563 109.937 73.3563 109.704C73.3563 109.48 73.4309 109.293 73.5803 109.144C73.7389 108.995 73.9349 108.92 74.1683 108.92C74.3923 108.92 74.5836 108.995 74.7423 109.144C74.9009 109.293 74.9803 109.48 74.9803 109.704C74.9803 109.937 74.9009 110.133 74.7423 110.292C74.5836 110.441 74.3923 110.516 74.1683 110.516ZM73.5803 119V112.056H74.7563V119H73.5803ZM76.8039 119V112.056H77.8679L77.9379 113.302C78.1619 112.863 78.4839 112.518 78.9039 112.266C79.3239 112.014 79.7999 111.888 80.3319 111.888C81.1532 111.888 81.8066 112.14 82.2919 112.644C82.7866 113.139 83.0339 113.904 83.0339 114.94V119H81.8579V115.066C81.8579 113.619 81.2606 112.896 80.0659 112.896C79.4686 112.896 78.9692 113.115 78.5679 113.554C78.1759 113.983 77.9799 114.599 77.9799 115.402V119H76.8039ZM87.9376 119.168C87.2749 119.168 86.6869 119.019 86.1736 118.72C85.6603 118.412 85.2543 117.987 84.9556 117.446C84.6663 116.905 84.5216 116.265 84.5216 115.528C84.5216 114.8 84.6663 114.165 84.9556 113.624C85.2449 113.073 85.6463 112.649 86.1596 112.35C86.6823 112.042 87.2843 111.888 87.9656 111.888C88.6376 111.888 89.2163 112.042 89.7016 112.35C90.1963 112.649 90.5743 113.045 90.8356 113.54C91.0969 114.035 91.2276 114.567 91.2276 115.136C91.2276 115.239 91.2229 115.341 91.2136 115.444C91.2136 115.547 91.2136 115.663 91.2136 115.794H85.6836C85.7116 116.326 85.8329 116.769 86.0476 117.124C86.2716 117.469 86.5469 117.731 86.8736 117.908C87.2096 118.085 87.5643 118.174 87.9376 118.174C88.4229 118.174 88.8289 118.062 89.1556 117.838C89.4823 117.614 89.7203 117.311 89.8696 116.928H91.0316C90.8449 117.572 90.4856 118.109 89.9536 118.538C89.4309 118.958 88.7589 119.168 87.9376 119.168ZM87.9376 112.882C87.3776 112.882 86.8783 113.055 86.4396 113.4C86.0103 113.736 85.7629 114.231 85.6976 114.884H90.0656C90.0376 114.259 89.8229 113.769 89.4216 113.414C89.0203 113.059 88.5256 112.882 87.9376 112.882Z" fill="white"/>
<path fill-rule="evenodd" clip-rule="evenodd" d="M69.9663 27.4581L55.6843 1.40039L41.4023 27.4581H69.9663ZM55.6843 36.6548L41.4026 27.4581H69.9663L55.6843 36.6548ZM55.6843 40.1301L41.4026 31.2619L55.6843 51.9547V40.1301ZM55.6846 51.9547L69.9666 31.2619L55.6846 40.1301V51.9547Z" fill="white"/>
</svg>
