<svg width="104" height="120" viewBox="0 0 104 120" fill="none" xmlns="http://www.w3.org/2000/svg">
<path d="M12.278 85V72.4H20.288V73.948H14.186V77.872H19.748V79.384H14.186V83.452H20.288V85H12.278ZM26.5572 85.216C25.6932 85.216 24.9312 85.012 24.2712 84.604C23.6112 84.196 23.0952 83.638 22.7232 82.93C22.3512 82.222 22.1652 81.418 22.1652 80.518C22.1652 79.618 22.3512 78.82 22.7232 78.124C23.0952 77.416 23.6112 76.864 24.2712 76.468C24.9432 76.06 25.7112 75.856 26.5752 75.856C27.2832 75.856 27.9012 75.994 28.4292 76.27C28.9692 76.546 29.3892 76.936 29.6892 77.44V72.04H31.5972V85H29.8872L29.6892 83.614C29.4012 84.034 29.0052 84.406 28.5012 84.73C27.9972 85.054 27.3492 85.216 26.5572 85.216ZM26.8992 83.56C27.7152 83.56 28.3812 83.278 28.8972 82.714C29.4252 82.15 29.6892 81.424 29.6892 80.536C29.6892 79.636 29.4252 78.91 28.8972 78.358C28.3812 77.794 27.7152 77.512 26.8992 77.512C26.0832 77.512 25.4112 77.794 24.8832 78.358C24.3552 78.91 24.0912 79.636 24.0912 80.536C24.0912 81.124 24.2112 81.646 24.4512 82.102C24.6912 82.558 25.0212 82.918 25.4412 83.182C25.8732 83.434 26.3592 83.56 26.8992 83.56ZM37.6569 82.264C37.1889 82.264 36.7569 82.21 36.3609 82.102L35.5869 82.858C35.7189 82.942 35.8809 83.014 36.0729 83.074C36.2649 83.134 36.5349 83.188 36.8829 83.236C37.2309 83.284 37.7049 83.332 38.3049 83.38C39.4929 83.488 40.3509 83.776 40.8789 84.244C41.4069 84.7 41.6709 85.312 41.6709 86.08C41.6709 86.608 41.5269 87.106 41.2389 87.574C40.9629 88.054 40.5249 88.438 39.9249 88.726C39.3369 89.026 38.5809 89.176 37.6569 89.176C36.4089 89.176 35.3949 88.936 34.6149 88.456C33.8469 87.988 33.4629 87.274 33.4629 86.314C33.4629 85.942 33.5589 85.57 33.7509 85.198C33.9549 84.838 34.2729 84.496 34.7049 84.172C34.4529 84.064 34.2309 83.95 34.0389 83.83C33.8589 83.698 33.6969 83.566 33.5529 83.434V83.002L35.1009 81.418C34.4049 80.818 34.0569 80.032 34.0569 79.06C34.0569 78.472 34.1949 77.938 34.4709 77.458C34.7589 76.966 35.1729 76.576 35.7129 76.288C36.2529 76 36.9009 75.856 37.6569 75.856C38.1609 75.856 38.6289 75.928 39.0609 76.072H42.3909V77.332L40.8069 77.422C41.0949 77.914 41.2389 78.46 41.2389 79.06C41.2389 79.66 41.0949 80.2 40.8069 80.68C40.5309 81.16 40.1229 81.544 39.5829 81.832C39.0549 82.12 38.4129 82.264 37.6569 82.264ZM37.6569 80.77C38.2089 80.77 38.6529 80.626 38.9889 80.338C39.3369 80.038 39.5109 79.618 39.5109 79.078C39.5109 78.526 39.3369 78.106 38.9889 77.818C38.6529 77.53 38.2089 77.386 37.6569 77.386C37.0929 77.386 36.6369 77.53 36.2889 77.818C35.9529 78.106 35.7849 78.526 35.7849 79.078C35.7849 79.618 35.9529 80.038 36.2889 80.338C36.6369 80.626 37.0929 80.77 37.6569 80.77ZM35.2629 86.134C35.2629 86.65 35.4909 87.034 35.9469 87.286C36.4029 87.55 36.9729 87.682 37.6569 87.682C38.3169 87.682 38.8509 87.538 39.2589 87.25C39.6669 86.974 39.8709 86.602 39.8709 86.134C39.8709 85.786 39.7329 85.486 39.4569 85.234C39.1809 84.994 38.6589 84.844 37.8909 84.784C37.3149 84.748 36.8049 84.694 36.3609 84.622C35.9409 84.85 35.6529 85.096 35.4969 85.36C35.3409 85.624 35.2629 85.882 35.2629 86.134ZM47.9172 85.216C47.0412 85.216 46.2612 85.024 45.5772 84.64C44.9052 84.244 44.3772 83.698 43.9932 83.002C43.6092 82.306 43.4172 81.496 43.4172 80.572C43.4172 79.636 43.6032 78.814 43.9752 78.106C44.3592 77.398 44.8872 76.846 45.5592 76.45C46.2432 76.054 47.0352 75.856 47.9352 75.856C48.8112 75.856 49.5732 76.054 50.2212 76.45C50.8692 76.834 51.3732 77.35 51.7332 77.998C52.0932 78.646 52.2732 79.36 52.2732 80.14C52.2732 80.26 52.2672 80.392 52.2552 80.536C52.2552 80.668 52.2492 80.818 52.2372 80.986H45.2892C45.3492 81.85 45.6312 82.51 46.1352 82.966C46.6512 83.41 47.2452 83.632 47.9172 83.632C48.4572 83.632 48.9072 83.512 49.2672 83.272C49.6392 83.02 49.9152 82.684 50.0952 82.264H52.0032C51.7632 83.104 51.2832 83.806 50.5632 84.37C49.8552 84.934 48.9732 85.216 47.9172 85.216ZM47.9172 77.422C47.2812 77.422 46.7172 77.614 46.2252 77.998C45.7332 78.37 45.4332 78.934 45.3252 79.69H50.3652C50.3292 78.994 50.0832 78.442 49.6272 78.034C49.1712 77.626 48.6012 77.422 47.9172 77.422ZM55.6833 85L53.0553 76.072H54.9633L56.6913 82.804L58.6353 76.072H60.7593L62.7033 82.804L64.4313 76.072H66.3393L63.7113 85H61.7493L59.6973 77.98L57.6453 85H55.6833ZM70.5308 85.216C69.7748 85.216 69.1508 85.09 68.6588 84.838C68.1668 84.586 67.8008 84.256 67.5608 83.848C67.3208 83.428 67.2008 82.972 67.2008 82.48C67.2008 81.616 67.5368 80.932 68.2088 80.428C68.8808 79.924 69.8408 79.672 71.0888 79.672H73.4288V79.51C73.4288 78.814 73.2368 78.292 72.8528 77.944C72.4808 77.596 71.9948 77.422 71.3948 77.422C70.8668 77.422 70.4048 77.554 70.0088 77.818C69.6248 78.07 69.3908 78.448 69.3068 78.952H67.3988C67.4588 78.304 67.6748 77.752 68.0468 77.296C68.4308 76.828 68.9108 76.474 69.4868 76.234C70.0748 75.982 70.7168 75.856 71.4128 75.856C72.6608 75.856 73.6268 76.186 74.3108 76.846C74.9948 77.494 75.3368 78.382 75.3368 79.51V85H73.6808L73.5188 83.47C73.2668 83.962 72.9008 84.376 72.4208 84.712C71.9408 85.048 71.3108 85.216 70.5308 85.216ZM70.9088 83.668C71.4248 83.668 71.8568 83.548 72.2048 83.308C72.5648 83.056 72.8408 82.726 73.0328 82.318C73.2368 81.91 73.3628 81.46 73.4108 80.968H71.2868C70.5308 80.968 69.9908 81.1 69.6668 81.364C69.3548 81.628 69.1988 81.958 69.1988 82.354C69.1988 82.762 69.3488 83.086 69.6488 83.326C69.9608 83.554 70.3808 83.668 70.9088 83.668ZM77.5615 85V76.072H79.2715L79.4335 77.764C79.7455 77.176 80.1775 76.714 80.7295 76.378C81.2935 76.03 81.9715 75.856 82.7635 75.856V77.854H82.2415C81.7135 77.854 81.2395 77.944 80.8195 78.124C80.4115 78.292 80.0815 78.586 79.8295 79.006C79.5895 79.414 79.4695 79.984 79.4695 80.716V85H77.5615ZM88.3293 85.216C87.4533 85.216 86.6733 85.024 85.9893 84.64C85.3173 84.244 84.7893 83.698 84.4053 83.002C84.0213 82.306 83.8293 81.496 83.8293 80.572C83.8293 79.636 84.0153 78.814 84.3873 78.106C84.7713 77.398 85.2993 76.846 85.9713 76.45C86.6553 76.054 87.4473 75.856 88.3473 75.856C89.2233 75.856 89.9853 76.054 90.6333 76.45C91.2813 76.834 91.7853 77.35 92.1453 77.998C92.5053 78.646 92.6853 79.36 92.6853 80.14C92.6853 80.26 92.6793 80.392 92.6673 80.536C92.6673 80.668 92.6613 80.818 92.6493 80.986H85.7013C85.7613 81.85 86.0433 82.51 86.5473 82.966C87.0633 83.41 87.6573 83.632 88.3293 83.632C88.8693 83.632 89.3193 83.512 89.6793 83.272C90.0513 83.02 90.3273 82.684 90.5073 82.264H92.4153C92.1753 83.104 91.6953 83.806 90.9753 84.37C90.2673 84.934 89.3853 85.216 88.3293 85.216ZM88.3293 77.422C87.6933 77.422 87.1293 77.614 86.6373 77.998C86.1453 78.37 85.8453 78.934 85.7373 79.69H90.7773C90.7413 78.994 90.4953 78.442 90.0393 78.034C89.5833 77.626 89.0133 77.422 88.3293 77.422Z" fill="white"/>
<path opacity="0.5" d="M22.334 113.168C21.3727 113.168 20.542 112.958 19.842 112.538C19.1513 112.109 18.6147 111.516 18.232 110.76C17.8493 109.995 17.658 109.108 17.658 108.1C17.658 107.101 17.8493 106.224 18.232 105.468C18.6147 104.703 19.1513 104.105 19.842 103.676C20.542 103.247 21.3727 103.032 22.334 103.032C23.454 103.032 24.364 103.303 25.064 103.844C25.7733 104.376 26.226 105.123 26.422 106.084H25.12C24.9707 105.477 24.6627 104.992 24.196 104.628C23.7387 104.255 23.118 104.068 22.334 104.068C21.634 104.068 21.0227 104.231 20.5 104.558C19.9773 104.875 19.5713 105.337 19.282 105.944C19.002 106.541 18.862 107.26 18.862 108.1C18.862 108.94 19.002 109.663 19.282 110.27C19.5713 110.867 19.9773 111.329 20.5 111.656C21.0227 111.973 21.634 112.132 22.334 112.132C23.118 112.132 23.7387 111.955 24.196 111.6C24.6627 111.236 24.9707 110.755 25.12 110.158H26.422C26.226 111.101 25.7733 111.838 25.064 112.37C24.364 112.902 23.454 113.168 22.334 113.168ZM28.0422 113V106.056H29.1062L29.2042 107.386C29.4188 106.929 29.7455 106.565 30.1842 106.294C30.6228 106.023 31.1642 105.888 31.8082 105.888V107.12H31.4862C31.0755 107.12 30.6975 107.195 30.3522 107.344C30.0068 107.484 29.7315 107.727 29.5262 108.072C29.3208 108.417 29.2182 108.893 29.2182 109.5V113H28.0422ZM35.9903 113.168C35.3277 113.168 34.7397 113.019 34.2263 112.72C33.713 112.412 33.307 111.987 33.0083 111.446C32.719 110.905 32.5743 110.265 32.5743 109.528C32.5743 108.8 32.719 108.165 33.0083 107.624C33.2977 107.073 33.699 106.649 34.2123 106.35C34.735 106.042 35.337 105.888 36.0183 105.888C36.6903 105.888 37.269 106.042 37.7543 106.35C38.249 106.649 38.627 107.045 38.8883 107.54C39.1497 108.035 39.2803 108.567 39.2803 109.136C39.2803 109.239 39.2757 109.341 39.2663 109.444C39.2663 109.547 39.2663 109.663 39.2663 109.794H33.7363C33.7643 110.326 33.8857 110.769 34.1003 111.124C34.3243 111.469 34.5997 111.731 34.9263 111.908C35.2623 112.085 35.617 112.174 35.9903 112.174C36.4757 112.174 36.8817 112.062 37.2083 111.838C37.535 111.614 37.773 111.311 37.9223 110.928H39.0843C38.8977 111.572 38.5383 112.109 38.0063 112.538C37.4837 112.958 36.8117 113.168 35.9903 113.168ZM35.9903 106.882C35.4303 106.882 34.931 107.055 34.4923 107.4C34.063 107.736 33.8157 108.231 33.7503 108.884H38.1183C38.0903 108.259 37.8757 107.769 37.4743 107.414C37.073 107.059 36.5783 106.882 35.9903 106.882ZM43.989 113.168C43.2984 113.168 42.6917 113.009 42.169 112.692C41.6557 112.375 41.2544 111.941 40.965 111.39C40.685 110.839 40.545 110.214 40.545 109.514C40.545 108.814 40.6897 108.193 40.979 107.652C41.2684 107.101 41.6697 106.672 42.183 106.364C42.6964 106.047 43.303 105.888 44.003 105.888C44.5724 105.888 45.0764 106.005 45.515 106.238C45.9537 106.471 46.2944 106.798 46.537 107.218V102.92H47.713V113H46.649L46.537 111.852C46.313 112.188 45.991 112.491 45.571 112.762C45.151 113.033 44.6237 113.168 43.989 113.168ZM44.115 112.146C44.5817 112.146 44.9924 112.039 45.347 111.824C45.711 111.6 45.991 111.292 46.187 110.9C46.3924 110.508 46.495 110.051 46.495 109.528C46.495 109.005 46.3924 108.548 46.187 108.156C45.991 107.764 45.711 107.461 45.347 107.246C44.9924 107.022 44.5817 106.91 44.115 106.91C43.6577 106.91 43.247 107.022 42.883 107.246C42.5284 107.461 42.2484 107.764 42.043 108.156C41.847 108.548 41.749 109.005 41.749 109.528C41.749 110.051 41.847 110.508 42.043 110.9C42.2484 111.292 42.5284 111.6 42.883 111.824C43.247 112.039 43.6577 112.146 44.115 112.146ZM50.3441 104.516C50.1107 104.516 49.9147 104.441 49.7561 104.292C49.6067 104.133 49.5321 103.937 49.5321 103.704C49.5321 103.48 49.6067 103.293 49.7561 103.144C49.9147 102.995 50.1107 102.92 50.3441 102.92C50.5681 102.92 50.7594 102.995 50.9181 103.144C51.0767 103.293 51.1561 103.48 51.1561 103.704C51.1561 103.937 51.0767 104.133 50.9181 104.292C50.7594 104.441 50.5681 104.516 50.3441 104.516ZM49.7561 113V106.056H50.9321V113H49.7561ZM55.7237 113C55.089 113 54.5897 112.846 54.2257 112.538C53.8617 112.23 53.6797 111.675 53.6797 110.872V107.05H52.4757V106.056H53.6797L53.8337 104.39H54.8557V106.056H56.8997V107.05H54.8557V110.872C54.8557 111.311 54.9443 111.609 55.1217 111.768C55.299 111.917 55.6117 111.992 56.0597 111.992H56.7877V113H55.7237ZM62.1688 113V103.2H63.3448V112.062H67.9088V113H62.1688ZM70.1683 104.516C69.9349 104.516 69.7389 104.441 69.5803 104.292C69.4309 104.133 69.3563 103.937 69.3563 103.704C69.3563 103.48 69.4309 103.293 69.5803 103.144C69.7389 102.995 69.9349 102.92 70.1683 102.92C70.3923 102.92 70.5836 102.995 70.7423 103.144C70.9009 103.293 70.9803 103.48 70.9803 103.704C70.9803 103.937 70.9009 104.133 70.7423 104.292C70.5836 104.441 70.3923 104.516 70.1683 104.516ZM69.5803 113V106.056H70.7563V113H69.5803ZM72.8039 113V106.056H73.8679L73.9379 107.302C74.1619 106.863 74.4839 106.518 74.9039 106.266C75.3239 106.014 75.7999 105.888 76.3319 105.888C77.1532 105.888 77.8066 106.14 78.2919 106.644C78.7866 107.139 79.0339 107.904 79.0339 108.94V113H77.8579V109.066C77.8579 107.619 77.2606 106.896 76.0659 106.896C75.4686 106.896 74.9692 107.115 74.5679 107.554C74.1759 107.983 73.9799 108.599 73.9799 109.402V113H72.8039ZM83.9376 113.168C83.2749 113.168 82.6869 113.019 82.1736 112.72C81.6603 112.412 81.2543 111.987 80.9556 111.446C80.6663 110.905 80.5216 110.265 80.5216 109.528C80.5216 108.8 80.6663 108.165 80.9556 107.624C81.2449 107.073 81.6463 106.649 82.1596 106.35C82.6823 106.042 83.2843 105.888 83.9656 105.888C84.6376 105.888 85.2163 106.042 85.7016 106.35C86.1963 106.649 86.5743 107.045 86.8356 107.54C87.0969 108.035 87.2276 108.567 87.2276 109.136C87.2276 109.239 87.2229 109.341 87.2136 109.444C87.2136 109.547 87.2136 109.663 87.2136 109.794H81.6836C81.7116 110.326 81.8329 110.769 82.0476 111.124C82.2716 111.469 82.5469 111.731 82.8736 111.908C83.2096 112.085 83.5643 112.174 83.9376 112.174C84.4229 112.174 84.8289 112.062 85.1556 111.838C85.4823 111.614 85.7203 111.311 85.8696 110.928H87.0316C86.8449 111.572 86.4856 112.109 85.9536 112.538C85.4309 112.958 84.7589 113.168 83.9376 113.168ZM83.9376 106.882C83.3776 106.882 82.8783 107.055 82.4396 107.4C82.0103 107.736 81.7629 108.231 81.6976 108.884H86.0656C86.0376 108.259 85.8229 107.769 85.4216 107.414C85.0203 107.059 84.5256 106.882 83.9376 106.882Z" fill="white"/>
<path d="M24.7838 1H30.9938V40H24.7838V1Z" fill="white"/>
<path d="M70.1249 1H76.3349V22H70.1249V1Z" fill="white"/>
<path d="M53.5649 38.6962L50.4599 33.5L69.283 23L72.388 28.1962L53.5649 38.6962Z" fill="white"/>
<path d="M92.895 38.6962L96 33.5L77.1769 23L74.0719 28.1962L92.895 38.6962Z" fill="white"/>
<path d="M9 13.5L12.105 8.30385L47.0622 27.8038L43.9572 33L9 13.5Z" fill="white"/>
<path d="M12.105 33L9 27.8038L43.9572 8.30385L47.0622 13.5L12.105 33Z" fill="white"/>
</svg>
