<svg width="112" height="123" viewBox="0 0 112 123" fill="none" xmlns="http://www.w3.org/2000/svg">
<path d="M20.278 88V75.4H24.688C25.672 75.4 26.488 75.568 27.136 75.904C27.784 76.228 28.264 76.678 28.576 77.254C28.9 77.818 29.062 78.46 29.062 79.18C29.062 79.864 28.906 80.494 28.594 81.07C28.294 81.634 27.82 82.084 27.172 82.42C26.524 82.756 25.696 82.924 24.688 82.924H22.186V88H20.278ZM22.186 81.358H24.598C25.498 81.358 26.14 81.166 26.524 80.782C26.92 80.386 27.118 79.852 27.118 79.18C27.118 78.484 26.92 77.944 26.524 77.56C26.14 77.164 25.498 76.966 24.598 76.966H22.186V81.358ZM34.5597 88.216C33.7077 88.216 32.9397 88.024 32.2557 87.64C31.5837 87.244 31.0497 86.698 30.6537 86.002C30.2577 85.294 30.0597 84.472 30.0597 83.536C30.0597 82.6 30.2577 81.784 30.6537 81.088C31.0617 80.38 31.6077 79.834 32.2917 79.45C32.9757 79.054 33.7377 78.856 34.5777 78.856C35.4297 78.856 36.1917 79.054 36.8637 79.45C37.5477 79.834 38.0877 80.38 38.4837 81.088C38.8917 81.784 39.0957 82.6 39.0957 83.536C39.0957 84.472 38.8917 85.294 38.4837 86.002C38.0877 86.698 37.5477 87.244 36.8637 87.64C36.1797 88.024 35.4117 88.216 34.5597 88.216ZM34.5597 86.578C35.0157 86.578 35.4357 86.464 35.8197 86.236C36.2157 86.008 36.5337 85.672 36.7737 85.228C37.0137 84.772 37.1337 84.208 37.1337 83.536C37.1337 82.864 37.0137 82.306 36.7737 81.862C36.5457 81.406 36.2337 81.064 35.8377 80.836C35.4537 80.608 35.0337 80.494 34.5777 80.494C34.1217 80.494 33.6957 80.608 33.2997 80.836C32.9157 81.064 32.6037 81.406 32.3637 81.862C32.1237 82.306 32.0037 82.864 32.0037 83.536C32.0037 84.208 32.1237 84.772 32.3637 85.228C32.6037 85.672 32.9157 86.008 33.2997 86.236C33.6837 86.464 34.1037 86.578 34.5597 86.578ZM41.1591 88V75.04H43.0671V88H41.1591ZM45.4833 88V75.04H47.3913V82.762L50.8113 79.072H53.0973L49.2993 83.122L53.6553 88H51.2433L47.3913 83.428V88H45.4833ZM57.9644 88.216C57.2084 88.216 56.5844 88.09 56.0924 87.838C55.6004 87.586 55.2344 87.256 54.9944 86.848C54.7544 86.428 54.6344 85.972 54.6344 85.48C54.6344 84.616 54.9704 83.932 55.6424 83.428C56.3144 82.924 57.2744 82.672 58.5224 82.672H60.8624V82.51C60.8624 81.814 60.6704 81.292 60.2864 80.944C59.9144 80.596 59.4284 80.422 58.8284 80.422C58.3004 80.422 57.8384 80.554 57.4424 80.818C57.0584 81.07 56.8244 81.448 56.7404 81.952H54.8324C54.8924 81.304 55.1084 80.752 55.4804 80.296C55.8644 79.828 56.3444 79.474 56.9204 79.234C57.5084 78.982 58.1504 78.856 58.8464 78.856C60.0944 78.856 61.0604 79.186 61.7444 79.846C62.4284 80.494 62.7704 81.382 62.7704 82.51V88H61.1144L60.9524 86.47C60.7004 86.962 60.3344 87.376 59.8544 87.712C59.3744 88.048 58.7444 88.216 57.9644 88.216ZM58.3424 86.668C58.8584 86.668 59.2904 86.548 59.6384 86.308C59.9984 86.056 60.2744 85.726 60.4664 85.318C60.6704 84.91 60.7964 84.46 60.8444 83.968H58.7204C57.9644 83.968 57.4244 84.1 57.1004 84.364C56.7884 84.628 56.6324 84.958 56.6324 85.354C56.6324 85.762 56.7824 86.086 57.0824 86.326C57.3944 86.554 57.8144 86.668 58.3424 86.668ZM69.0631 88.216C68.1991 88.216 67.4371 88.012 66.7771 87.604C66.1171 87.196 65.6011 86.638 65.2291 85.93C64.8571 85.222 64.6711 84.418 64.6711 83.518C64.6711 82.618 64.8571 81.82 65.2291 81.124C65.6011 80.416 66.1171 79.864 66.7771 79.468C67.4491 79.06 68.2171 78.856 69.0811 78.856C69.7891 78.856 70.4071 78.994 70.9351 79.27C71.4751 79.546 71.8951 79.936 72.1951 80.44V75.04H74.1031V88H72.3931L72.1951 86.614C71.9071 87.034 71.5111 87.406 71.0071 87.73C70.5031 88.054 69.8551 88.216 69.0631 88.216ZM69.4051 86.56C70.2211 86.56 70.8871 86.278 71.4031 85.714C71.9311 85.15 72.1951 84.424 72.1951 83.536C72.1951 82.636 71.9311 81.91 71.4031 81.358C70.8871 80.794 70.2211 80.512 69.4051 80.512C68.5891 80.512 67.9171 80.794 67.3891 81.358C66.8611 81.91 66.5971 82.636 66.5971 83.536C66.5971 84.124 66.7171 84.646 66.9571 85.102C67.1971 85.558 67.5271 85.918 67.9471 86.182C68.3791 86.434 68.8651 86.56 69.4051 86.56ZM80.6847 88.216C79.8327 88.216 79.0647 88.024 78.3807 87.64C77.7087 87.244 77.1747 86.698 76.7787 86.002C76.3827 85.294 76.1847 84.472 76.1847 83.536C76.1847 82.6 76.3827 81.784 76.7787 81.088C77.1867 80.38 77.7327 79.834 78.4167 79.45C79.1007 79.054 79.8627 78.856 80.7027 78.856C81.5547 78.856 82.3167 79.054 82.9887 79.45C83.6727 79.834 84.2127 80.38 84.6087 81.088C85.0167 81.784 85.2207 82.6 85.2207 83.536C85.2207 84.472 85.0167 85.294 84.6087 86.002C84.2127 86.698 83.6727 87.244 82.9887 87.64C82.3047 88.024 81.5367 88.216 80.6847 88.216ZM80.6847 86.578C81.1407 86.578 81.5607 86.464 81.9447 86.236C82.3407 86.008 82.6587 85.672 82.8987 85.228C83.1387 84.772 83.2587 84.208 83.2587 83.536C83.2587 82.864 83.1387 82.306 82.8987 81.862C82.6707 81.406 82.3587 81.064 81.9627 80.836C81.5787 80.608 81.1587 80.494 80.7027 80.494C80.2467 80.494 79.8207 80.608 79.4247 80.836C79.0407 81.064 78.7287 81.406 78.4887 81.862C78.2487 82.306 78.1287 82.864 78.1287 83.536C78.1287 84.208 78.2487 84.772 78.4887 85.228C78.7287 85.672 79.0407 86.008 79.4247 86.236C79.8087 86.464 80.2287 86.578 80.6847 86.578ZM90.6766 88C89.8006 88 89.1046 87.79 88.5886 87.37C88.0726 86.938 87.8146 86.176 87.8146 85.084V80.674H86.2846V79.072H87.8146L88.0486 76.804H89.7226V79.072H92.2426V80.674H89.7226V85.084C89.7226 85.576 89.8246 85.918 90.0286 86.11C90.2446 86.29 90.6106 86.38 91.1266 86.38H92.1526V88H90.6766Z" fill="white"/>
<path opacity="0.5" d="M26.334 116.168C25.3727 116.168 24.542 115.958 23.842 115.538C23.1513 115.109 22.6147 114.516 22.232 113.76C21.8493 112.995 21.658 112.108 21.658 111.1C21.658 110.101 21.8493 109.224 22.232 108.468C22.6147 107.703 23.1513 107.105 23.842 106.676C24.542 106.247 25.3727 106.032 26.334 106.032C27.454 106.032 28.364 106.303 29.064 106.844C29.7733 107.376 30.226 108.123 30.422 109.084H29.12C28.9707 108.477 28.6627 107.992 28.196 107.628C27.7387 107.255 27.118 107.068 26.334 107.068C25.634 107.068 25.0227 107.231 24.5 107.558C23.9773 107.875 23.5713 108.337 23.282 108.944C23.002 109.541 22.862 110.26 22.862 111.1C22.862 111.94 23.002 112.663 23.282 113.27C23.5713 113.867 23.9773 114.329 24.5 114.656C25.0227 114.973 25.634 115.132 26.334 115.132C27.118 115.132 27.7387 114.955 28.196 114.6C28.6627 114.236 28.9707 113.755 29.12 113.158H30.422C30.226 114.101 29.7733 114.838 29.064 115.37C28.364 115.902 27.454 116.168 26.334 116.168ZM32.0422 116V109.056H33.1062L33.2042 110.386C33.4188 109.929 33.7455 109.565 34.1842 109.294C34.6228 109.023 35.1642 108.888 35.8082 108.888V110.12H35.4862C35.0755 110.12 34.6975 110.195 34.3522 110.344C34.0068 110.484 33.7315 110.727 33.5262 111.072C33.3208 111.417 33.2182 111.893 33.2182 112.5V116H32.0422ZM39.9903 116.168C39.3277 116.168 38.7397 116.019 38.2263 115.72C37.713 115.412 37.307 114.987 37.0083 114.446C36.719 113.905 36.5743 113.265 36.5743 112.528C36.5743 111.8 36.719 111.165 37.0083 110.624C37.2977 110.073 37.699 109.649 38.2123 109.35C38.735 109.042 39.337 108.888 40.0183 108.888C40.6903 108.888 41.269 109.042 41.7543 109.35C42.249 109.649 42.627 110.045 42.8883 110.54C43.1497 111.035 43.2803 111.567 43.2803 112.136C43.2803 112.239 43.2757 112.341 43.2663 112.444C43.2663 112.547 43.2663 112.663 43.2663 112.794H37.7363C37.7643 113.326 37.8857 113.769 38.1003 114.124C38.3243 114.469 38.5997 114.731 38.9263 114.908C39.2623 115.085 39.617 115.174 39.9903 115.174C40.4757 115.174 40.8817 115.062 41.2083 114.838C41.535 114.614 41.773 114.311 41.9223 113.928H43.0843C42.8977 114.572 42.5383 115.109 42.0063 115.538C41.4837 115.958 40.8117 116.168 39.9903 116.168ZM39.9903 109.882C39.4303 109.882 38.931 110.055 38.4923 110.4C38.063 110.736 37.8157 111.231 37.7503 111.884H42.1183C42.0903 111.259 41.8757 110.769 41.4743 110.414C41.073 110.059 40.5783 109.882 39.9903 109.882ZM47.989 116.168C47.2984 116.168 46.6917 116.009 46.169 115.692C45.6557 115.375 45.2544 114.941 44.965 114.39C44.685 113.839 44.545 113.214 44.545 112.514C44.545 111.814 44.6897 111.193 44.979 110.652C45.2684 110.101 45.6697 109.672 46.183 109.364C46.6964 109.047 47.303 108.888 48.003 108.888C48.5724 108.888 49.0764 109.005 49.515 109.238C49.9537 109.471 50.2944 109.798 50.537 110.218V105.92H51.713V116H50.649L50.537 114.852C50.313 115.188 49.991 115.491 49.571 115.762C49.151 116.033 48.6237 116.168 47.989 116.168ZM48.115 115.146C48.5817 115.146 48.9924 115.039 49.347 114.824C49.711 114.6 49.991 114.292 50.187 113.9C50.3924 113.508 50.495 113.051 50.495 112.528C50.495 112.005 50.3924 111.548 50.187 111.156C49.991 110.764 49.711 110.461 49.347 110.246C48.9924 110.022 48.5817 109.91 48.115 109.91C47.6577 109.91 47.247 110.022 46.883 110.246C46.5284 110.461 46.2484 110.764 46.043 111.156C45.847 111.548 45.749 112.005 45.749 112.528C45.749 113.051 45.847 113.508 46.043 113.9C46.2484 114.292 46.5284 114.6 46.883 114.824C47.247 115.039 47.6577 115.146 48.115 115.146ZM54.3441 107.516C54.1107 107.516 53.9147 107.441 53.7561 107.292C53.6067 107.133 53.5321 106.937 53.5321 106.704C53.5321 106.48 53.6067 106.293 53.7561 106.144C53.9147 105.995 54.1107 105.92 54.3441 105.92C54.5681 105.92 54.7594 105.995 54.9181 106.144C55.0767 106.293 55.1561 106.48 55.1561 106.704C55.1561 106.937 55.0767 107.133 54.9181 107.292C54.7594 107.441 54.5681 107.516 54.3441 107.516ZM53.7561 116V109.056H54.9321V116H53.7561ZM59.7237 116C59.089 116 58.5897 115.846 58.2257 115.538C57.8617 115.23 57.6797 114.675 57.6797 113.872V110.05H56.4757V109.056H57.6797L57.8337 107.39H58.8557V109.056H60.8997V110.05H58.8557V113.872C58.8557 114.311 58.9443 114.609 59.1217 114.768C59.299 114.917 59.6117 114.992 60.0597 114.992H60.7877V116H59.7237ZM66.1688 116V106.2H67.3448V115.062H71.9088V116H66.1688ZM74.1683 107.516C73.9349 107.516 73.7389 107.441 73.5803 107.292C73.4309 107.133 73.3563 106.937 73.3563 106.704C73.3563 106.48 73.4309 106.293 73.5803 106.144C73.7389 105.995 73.9349 105.92 74.1683 105.92C74.3923 105.92 74.5836 105.995 74.7423 106.144C74.9009 106.293 74.9803 106.48 74.9803 106.704C74.9803 106.937 74.9009 107.133 74.7423 107.292C74.5836 107.441 74.3923 107.516 74.1683 107.516ZM73.5803 116V109.056H74.7563V116H73.5803ZM76.8039 116V109.056H77.8679L77.9379 110.302C78.1619 109.863 78.4839 109.518 78.9039 109.266C79.3239 109.014 79.7999 108.888 80.3319 108.888C81.1532 108.888 81.8066 109.14 82.2919 109.644C82.7866 110.139 83.0339 110.904 83.0339 111.94V116H81.8579V112.066C81.8579 110.619 81.2606 109.896 80.0659 109.896C79.4686 109.896 78.9692 110.115 78.5679 110.554C78.1759 110.983 77.9799 111.599 77.9799 112.402V116H76.8039ZM87.9376 116.168C87.2749 116.168 86.6869 116.019 86.1736 115.72C85.6603 115.412 85.2543 114.987 84.9556 114.446C84.6663 113.905 84.5216 113.265 84.5216 112.528C84.5216 111.8 84.6663 111.165 84.9556 110.624C85.2449 110.073 85.6463 109.649 86.1596 109.35C86.6823 109.042 87.2843 108.888 87.9656 108.888C88.6376 108.888 89.2163 109.042 89.7016 109.35C90.1963 109.649 90.5743 110.045 90.8356 110.54C91.0969 111.035 91.2276 111.567 91.2276 112.136C91.2276 112.239 91.2229 112.341 91.2136 112.444C91.2136 112.547 91.2136 112.663 91.2136 112.794H85.6836C85.7116 113.326 85.8329 113.769 86.0476 114.124C86.2716 114.469 86.5469 114.731 86.8736 114.908C87.2096 115.085 87.5643 115.174 87.9376 115.174C88.4229 115.174 88.8289 115.062 89.1556 114.838C89.4823 114.614 89.7203 114.311 89.8696 113.928H91.0316C90.8449 114.572 90.4856 115.109 89.9536 115.538C89.4309 115.958 88.7589 116.168 87.9376 116.168ZM87.9376 109.882C87.3776 109.882 86.8783 110.055 86.4396 110.4C86.0103 110.736 85.7629 111.231 85.6976 111.884H90.0656C90.0376 111.259 89.8229 110.769 89.4216 110.414C89.0203 110.059 88.5256 109.882 87.9376 109.882Z" fill="white"/>
<path d="M56.0939 0C51.0357 0.0187198 46.1901 2.01376 42.6134 5.55021C39.0367 9.08666 37.0189 13.8777 37 18.879C36.9998 20.9642 37.3395 23.0358 38.0062 25.0141C38.2456 25.6615 38.7263 26.194 39.3499 26.5022C39.9735 26.8105 40.6927 26.8713 41.3602 26.6722C42.008 26.4288 42.5374 25.95 42.8402 25.3337C43.143 24.7173 43.1963 24.0099 42.9893 23.356C42.4222 21.8175 42.1697 20.183 42.2466 18.5474C42.3259 15.9069 43.1799 13.3463 44.7048 11.1772C46.2298 9.00817 48.3597 7.32437 50.8352 6.33089C53.3107 5.33741 56.025 5.07712 58.6475 5.58174C61.27 6.08635 63.6874 7.33409 65.6055 9.17297C67.5235 11.0119 68.8593 13.3625 69.4503 15.9387C70.0412 18.5149 69.8617 21.2054 68.9337 23.6825C68.0056 26.1596 66.3691 28.3164 64.2234 29.8903C62.0777 31.4641 59.5154 32.3871 56.8486 32.5467C56.8486 32.5467 54.1774 32.7126 52.8358 32.8784C52.3438 32.947 51.856 33.0419 51.3744 33.1626C51.3398 33.1883 51.297 33.2007 51.2538 33.1977C51.2107 33.1947 51.1701 33.1764 51.1395 33.1461C51.1089 33.1159 51.0904 33.0757 51.0873 33.0331C51.0843 32.9904 51.0969 32.9481 51.1228 32.9139L51.5421 30.6754L54.0576 19.412C54.2021 18.7413 54.0713 18.0414 53.6939 17.4661C53.3165 16.8908 52.7234 16.4874 52.0452 16.3444C51.3669 16.2015 50.659 16.3309 50.0771 16.704C49.4953 17.0772 49.0872 17.6635 48.9427 18.3342C48.9427 18.3342 42.9534 45.8355 42.9534 46.0842C42.8709 46.416 42.8578 46.761 42.9149 47.098C42.9719 47.435 43.0979 47.7569 43.2852 48.0441C43.4725 48.3313 43.7171 48.5776 44.004 48.7681C44.2909 48.9585 44.6141 49.0891 44.9538 49.1517C45.2902 49.2314 45.6394 49.2426 45.9803 49.1847C46.3212 49.1268 46.6466 49.001 46.9367 48.8149C47.2269 48.6288 47.4758 48.3863 47.6683 48.1022C47.8607 47.818 47.9927 47.4981 48.0563 47.162C48.1401 46.8303 48.8948 43.1825 48.8948 43.1825C49.1728 41.8397 49.8603 40.6135 50.8648 39.669C51.8693 38.7245 53.1425 38.1072 54.5128 37.9001C55.0877 37.8172 57.5194 37.6514 57.5194 37.6514C62.3788 37.2073 66.8814 34.9393 70.1015 31.3137C73.3216 27.688 75.0144 22.9803 74.8318 18.1586C74.6493 13.3368 72.6053 8.7674 69.12 5.38993C65.6348 2.01247 60.9733 0.083625 56.0939 0Z" fill="white"/>
<path d="M62.2305 43.4771C61.8174 43.3943 61.3919 43.3931 60.9784 43.4734C60.5649 43.5537 60.1715 43.714 59.8209 43.9452C59.4703 44.1763 59.1693 44.4737 58.9352 44.8202C58.7012 45.1667 58.5388 45.5555 58.4572 45.9643C58.3684 46.373 58.3635 46.7952 58.4426 47.2058C58.5217 47.6165 58.6833 48.0073 58.9178 48.3551C59.1524 48.703 59.455 49.0008 59.808 49.2309C60.1609 49.4611 60.557 49.6189 60.9727 49.6951C61.3857 49.788 61.8135 49.7966 62.23 49.7204C62.6464 49.6443 63.0428 49.4849 63.3949 49.2521C63.7469 49.0193 64.0473 48.7179 64.2775 48.3665C64.5078 48.015 64.6631 47.6208 64.734 47.2079C64.8751 46.3878 64.6948 45.5454 64.2296 44.8522C63.7645 44.159 63.0495 43.6673 62.2305 43.4771Z" fill="white"/>
</svg>
