<svg width="112" height="125" viewBox="0 0 112 125" fill="none" xmlns="http://www.w3.org/2000/svg">
<path d="M23.894 90.216C22.646 90.216 21.566 89.946 20.654 89.406C19.754 88.854 19.058 88.092 18.566 87.12C18.074 86.136 17.828 85.002 17.828 83.718C17.828 82.422 18.074 81.288 18.566 80.316C19.058 79.332 19.754 78.564 20.654 78.012C21.566 77.46 22.646 77.184 23.894 77.184C25.37 77.184 26.576 77.544 27.512 78.264C28.448 78.984 29.042 79.992 29.294 81.288H27.17C27.002 80.556 26.642 79.974 26.09 79.542C25.538 79.11 24.8 78.894 23.876 78.894C22.616 78.894 21.62 79.326 20.888 80.19C20.156 81.042 19.79 82.218 19.79 83.718C19.79 85.206 20.156 86.376 20.888 87.228C21.62 88.08 22.616 88.506 23.876 88.506C24.8 88.506 25.538 88.302 26.09 87.894C26.642 87.486 27.002 86.928 27.17 86.22H29.294C29.042 87.468 28.448 88.446 27.512 89.154C26.576 89.862 25.37 90.216 23.894 90.216ZM31.3193 90V77.04H33.2273V82.512C33.5273 81.996 33.9413 81.594 34.4693 81.306C35.0093 81.006 35.6033 80.856 36.2513 80.856C37.3193 80.856 38.1593 81.192 38.7713 81.864C39.3833 82.536 39.6893 83.538 39.6893 84.87V90H37.7993V85.068C37.7993 83.34 37.1093 82.476 35.7293 82.476C35.0093 82.476 34.4093 82.728 33.9293 83.232C33.4613 83.736 33.2273 84.456 33.2273 85.392V90H31.3193ZM44.9605 90.216C44.2045 90.216 43.5805 90.09 43.0885 89.838C42.5965 89.586 42.2305 89.256 41.9905 88.848C41.7505 88.428 41.6305 87.972 41.6305 87.48C41.6305 86.616 41.9665 85.932 42.6385 85.428C43.3105 84.924 44.2705 84.672 45.5185 84.672H47.8585V84.51C47.8585 83.814 47.6665 83.292 47.2825 82.944C46.9105 82.596 46.4245 82.422 45.8245 82.422C45.2965 82.422 44.8345 82.554 44.4385 82.818C44.0545 83.07 43.8205 83.448 43.7365 83.952H41.8285C41.8885 83.304 42.1045 82.752 42.4765 82.296C42.8605 81.828 43.3405 81.474 43.9165 81.234C44.5045 80.982 45.1465 80.856 45.8425 80.856C47.0905 80.856 48.0565 81.186 48.7405 81.846C49.4245 82.494 49.7665 83.382 49.7665 84.51V90H48.1105L47.9485 88.47C47.6965 88.962 47.3305 89.376 46.8505 89.712C46.3705 90.048 45.7405 90.216 44.9605 90.216ZM45.3385 88.668C45.8545 88.668 46.2865 88.548 46.6345 88.308C46.9945 88.056 47.2705 87.726 47.4625 87.318C47.6665 86.91 47.7925 86.46 47.8405 85.968H45.7165C44.9605 85.968 44.4205 86.1 44.0965 86.364C43.7845 86.628 43.6285 86.958 43.6285 87.354C43.6285 87.762 43.7785 88.086 44.0785 88.326C44.3905 88.554 44.8105 88.668 45.3385 88.668ZM53.0712 79.38C52.7112 79.38 52.4112 79.272 52.1712 79.056C51.9432 78.828 51.8292 78.546 51.8292 78.21C51.8292 77.874 51.9432 77.598 52.1712 77.382C52.4112 77.154 52.7112 77.04 53.0712 77.04C53.4312 77.04 53.7252 77.154 53.9532 77.382C54.1932 77.598 54.3132 77.874 54.3132 78.21C54.3132 78.546 54.1932 78.828 53.9532 79.056C53.7252 79.272 53.4312 79.38 53.0712 79.38ZM52.1172 90V81.072H54.0252V90H52.1172ZM56.5439 90V81.072H58.2359L58.3799 82.638C58.6559 82.086 59.0579 81.654 59.5859 81.342C60.1259 81.018 60.7439 80.856 61.4399 80.856C62.5199 80.856 63.3659 81.192 63.9779 81.864C64.6019 82.536 64.9139 83.538 64.9139 84.87V90H63.0239V85.068C63.0239 83.34 62.3159 82.476 60.8999 82.476C60.1919 82.476 59.6039 82.728 59.1359 83.232C58.6799 83.736 58.4519 84.456 58.4519 85.392V90H56.5439ZM67.1611 90V77.04H69.0691V90H67.1611ZM72.5653 79.38C72.2053 79.38 71.9053 79.272 71.6653 79.056C71.4373 78.828 71.3233 78.546 71.3233 78.21C71.3233 77.874 71.4373 77.598 71.6653 77.382C71.9053 77.154 72.2053 77.04 72.5653 77.04C72.9253 77.04 73.2193 77.154 73.4473 77.382C73.6873 77.598 73.8073 77.874 73.8073 78.21C73.8073 78.546 73.6873 78.828 73.4473 79.056C73.2193 79.272 72.9253 79.38 72.5653 79.38ZM71.6113 90V81.072H73.5193V90H71.6113ZM76.038 90V81.072H77.73L77.874 82.638C78.15 82.086 78.552 81.654 79.08 81.342C79.62 81.018 80.238 80.856 80.934 80.856C82.014 80.856 82.86 81.192 83.472 81.864C84.096 82.536 84.408 83.538 84.408 84.87V90H82.518V85.068C82.518 83.34 81.81 82.476 80.394 82.476C79.686 82.476 79.098 82.728 78.63 83.232C78.174 83.736 77.946 84.456 77.946 85.392V90H76.038ZM86.6552 90V77.04H88.5632V84.762L91.9832 81.072H94.2692L90.4712 85.122L94.8272 90H92.4152L88.5632 85.428V90H86.6552Z" fill="white"/>
<path opacity="0.5" d="M26.334 118.168C25.3727 118.168 24.542 117.958 23.842 117.538C23.1513 117.109 22.6147 116.516 22.232 115.76C21.8493 114.995 21.658 114.108 21.658 113.1C21.658 112.101 21.8493 111.224 22.232 110.468C22.6147 109.703 23.1513 109.105 23.842 108.676C24.542 108.247 25.3727 108.032 26.334 108.032C27.454 108.032 28.364 108.303 29.064 108.844C29.7733 109.376 30.226 110.123 30.422 111.084H29.12C28.9707 110.477 28.6627 109.992 28.196 109.628C27.7387 109.255 27.118 109.068 26.334 109.068C25.634 109.068 25.0227 109.231 24.5 109.558C23.9773 109.875 23.5713 110.337 23.282 110.944C23.002 111.541 22.862 112.26 22.862 113.1C22.862 113.94 23.002 114.663 23.282 115.27C23.5713 115.867 23.9773 116.329 24.5 116.656C25.0227 116.973 25.634 117.132 26.334 117.132C27.118 117.132 27.7387 116.955 28.196 116.6C28.6627 116.236 28.9707 115.755 29.12 115.158H30.422C30.226 116.101 29.7733 116.838 29.064 117.37C28.364 117.902 27.454 118.168 26.334 118.168ZM32.0422 118V111.056H33.1062L33.2042 112.386C33.4188 111.929 33.7455 111.565 34.1842 111.294C34.6228 111.023 35.1642 110.888 35.8082 110.888V112.12H35.4862C35.0755 112.12 34.6975 112.195 34.3522 112.344C34.0068 112.484 33.7315 112.727 33.5262 113.072C33.3208 113.417 33.2182 113.893 33.2182 114.5V118H32.0422ZM39.9903 118.168C39.3277 118.168 38.7397 118.019 38.2263 117.72C37.713 117.412 37.307 116.987 37.0083 116.446C36.719 115.905 36.5743 115.265 36.5743 114.528C36.5743 113.8 36.719 113.165 37.0083 112.624C37.2977 112.073 37.699 111.649 38.2123 111.35C38.735 111.042 39.337 110.888 40.0183 110.888C40.6903 110.888 41.269 111.042 41.7543 111.35C42.249 111.649 42.627 112.045 42.8883 112.54C43.1497 113.035 43.2803 113.567 43.2803 114.136C43.2803 114.239 43.2757 114.341 43.2663 114.444C43.2663 114.547 43.2663 114.663 43.2663 114.794H37.7363C37.7643 115.326 37.8857 115.769 38.1003 116.124C38.3243 116.469 38.5997 116.731 38.9263 116.908C39.2623 117.085 39.617 117.174 39.9903 117.174C40.4757 117.174 40.8817 117.062 41.2083 116.838C41.535 116.614 41.773 116.311 41.9223 115.928H43.0843C42.8977 116.572 42.5383 117.109 42.0063 117.538C41.4837 117.958 40.8117 118.168 39.9903 118.168ZM39.9903 111.882C39.4303 111.882 38.931 112.055 38.4923 112.4C38.063 112.736 37.8157 113.231 37.7503 113.884H42.1183C42.0903 113.259 41.8757 112.769 41.4743 112.414C41.073 112.059 40.5783 111.882 39.9903 111.882ZM47.989 118.168C47.2984 118.168 46.6917 118.009 46.169 117.692C45.6557 117.375 45.2544 116.941 44.965 116.39C44.685 115.839 44.545 115.214 44.545 114.514C44.545 113.814 44.6897 113.193 44.979 112.652C45.2684 112.101 45.6697 111.672 46.183 111.364C46.6964 111.047 47.303 110.888 48.003 110.888C48.5724 110.888 49.0764 111.005 49.515 111.238C49.9537 111.471 50.2944 111.798 50.537 112.218V107.92H51.713V118H50.649L50.537 116.852C50.313 117.188 49.991 117.491 49.571 117.762C49.151 118.033 48.6237 118.168 47.989 118.168ZM48.115 117.146C48.5817 117.146 48.9924 117.039 49.347 116.824C49.711 116.6 49.991 116.292 50.187 115.9C50.3924 115.508 50.495 115.051 50.495 114.528C50.495 114.005 50.3924 113.548 50.187 113.156C49.991 112.764 49.711 112.461 49.347 112.246C48.9924 112.022 48.5817 111.91 48.115 111.91C47.6577 111.91 47.247 112.022 46.883 112.246C46.5284 112.461 46.2484 112.764 46.043 113.156C45.847 113.548 45.749 114.005 45.749 114.528C45.749 115.051 45.847 115.508 46.043 115.9C46.2484 116.292 46.5284 116.6 46.883 116.824C47.247 117.039 47.6577 117.146 48.115 117.146ZM54.3441 109.516C54.1107 109.516 53.9147 109.441 53.7561 109.292C53.6067 109.133 53.5321 108.937 53.5321 108.704C53.5321 108.48 53.6067 108.293 53.7561 108.144C53.9147 107.995 54.1107 107.92 54.3441 107.92C54.5681 107.92 54.7594 107.995 54.9181 108.144C55.0767 108.293 55.1561 108.48 55.1561 108.704C55.1561 108.937 55.0767 109.133 54.9181 109.292C54.7594 109.441 54.5681 109.516 54.3441 109.516ZM53.7561 118V111.056H54.9321V118H53.7561ZM59.7237 118C59.089 118 58.5897 117.846 58.2257 117.538C57.8617 117.23 57.6797 116.675 57.6797 115.872V112.05H56.4757V111.056H57.6797L57.8337 109.39H58.8557V111.056H60.8997V112.05H58.8557V115.872C58.8557 116.311 58.9443 116.609 59.1217 116.768C59.299 116.917 59.6117 116.992 60.0597 116.992H60.7877V118H59.7237ZM66.1688 118V108.2H67.3448V117.062H71.9088V118H66.1688ZM74.1683 109.516C73.9349 109.516 73.7389 109.441 73.5803 109.292C73.4309 109.133 73.3563 108.937 73.3563 108.704C73.3563 108.48 73.4309 108.293 73.5803 108.144C73.7389 107.995 73.9349 107.92 74.1683 107.92C74.3923 107.92 74.5836 107.995 74.7423 108.144C74.9009 108.293 74.9803 108.48 74.9803 108.704C74.9803 108.937 74.9009 109.133 74.7423 109.292C74.5836 109.441 74.3923 109.516 74.1683 109.516ZM73.5803 118V111.056H74.7563V118H73.5803ZM76.8039 118V111.056H77.8679L77.9379 112.302C78.1619 111.863 78.4839 111.518 78.9039 111.266C79.3239 111.014 79.7999 110.888 80.3319 110.888C81.1532 110.888 81.8066 111.14 82.2919 111.644C82.7866 112.139 83.0339 112.904 83.0339 113.94V118H81.8579V114.066C81.8579 112.619 81.2606 111.896 80.0659 111.896C79.4686 111.896 78.9692 112.115 78.5679 112.554C78.1759 112.983 77.9799 113.599 77.9799 114.402V118H76.8039ZM87.9376 118.168C87.2749 118.168 86.6869 118.019 86.1736 117.72C85.6603 117.412 85.2543 116.987 84.9556 116.446C84.6663 115.905 84.5216 115.265 84.5216 114.528C84.5216 113.8 84.6663 113.165 84.9556 112.624C85.2449 112.073 85.6463 111.649 86.1596 111.35C86.6823 111.042 87.2843 110.888 87.9656 110.888C88.6376 110.888 89.2163 111.042 89.7016 111.35C90.1963 111.649 90.5743 112.045 90.8356 112.54C91.0969 113.035 91.2276 113.567 91.2276 114.136C91.2276 114.239 91.2229 114.341 91.2136 114.444C91.2136 114.547 91.2136 114.663 91.2136 114.794H85.6836C85.7116 115.326 85.8329 115.769 86.0476 116.124C86.2716 116.469 86.5469 116.731 86.8736 116.908C87.2096 117.085 87.5643 117.174 87.9376 117.174C88.4229 117.174 88.8289 117.062 89.1556 116.838C89.4823 116.614 89.7203 116.311 89.8696 115.928H91.0316C90.8449 116.572 90.4856 117.109 89.9536 117.538C89.4309 117.958 88.7589 118.168 87.9376 118.168ZM87.9376 111.882C87.3776 111.882 86.8783 112.055 86.4396 112.4C86.0103 112.736 85.7629 113.231 85.6976 113.884H90.0656C90.0376 113.259 89.8229 112.769 89.4216 112.414C89.0203 112.059 88.5256 111.882 87.9376 111.882Z" fill="white"/>
<path d="M56 0.181641L51.5555 2.80008L39.4444 9.9723L35 12.5907V37.4089L39.4444 40.0274L51.6668 47.1996L56.1111 49.818L60.5556 47.1996L72.5555 40.0274L77 37.4089V12.5907L72.5555 9.9723L60.4445 2.80008L56 0.181641ZM43.8888 32.172V17.8276L56 10.6554L68.1112 17.8276V32.172L56 39.3443L43.8888 32.172Z" fill="white"/>
</svg>
