<svg width="680" height="126" viewBox="0 0 680 126" fill="none" xmlns="http://www.w3.org/2000/svg">
<path d="M12.278 90V77.4H20.288V78.948H14.186V82.872H19.748V84.384H14.186V88.452H20.288V90H12.278ZM26.5572 90.216C25.6932 90.216 24.9312 90.012 24.2712 89.604C23.6112 89.196 23.0952 88.638 22.7232 87.93C22.3512 87.222 22.1652 86.418 22.1652 85.518C22.1652 84.618 22.3512 83.82 22.7232 83.124C23.0952 82.416 23.6112 81.864 24.2712 81.468C24.9432 81.06 25.7112 80.856 26.5752 80.856C27.2832 80.856 27.9012 80.994 28.4292 81.27C28.9692 81.546 29.3892 81.936 29.6892 82.44V77.04H31.5972V90H29.8872L29.6892 88.614C29.4012 89.034 29.0052 89.406 28.5012 89.73C27.9972 90.054 27.3492 90.216 26.5572 90.216ZM26.8992 88.56C27.7152 88.56 28.3812 88.278 28.8972 87.714C29.4252 87.15 29.6892 86.424 29.6892 85.536C29.6892 84.636 29.4252 83.91 28.8972 83.358C28.3812 82.794 27.7152 82.512 26.8992 82.512C26.0832 82.512 25.4112 82.794 24.8832 83.358C24.3552 83.91 24.0912 84.636 24.0912 85.536C24.0912 86.124 24.2112 86.646 24.4512 87.102C24.6912 87.558 25.0212 87.918 25.4412 88.182C25.8732 88.434 26.3592 88.56 26.8992 88.56ZM37.6569 87.264C37.1889 87.264 36.7569 87.21 36.3609 87.102L35.5869 87.858C35.7189 87.942 35.8809 88.014 36.0729 88.074C36.2649 88.134 36.5349 88.188 36.8829 88.236C37.2309 88.284 37.7049 88.332 38.3049 88.38C39.4929 88.488 40.3509 88.776 40.8789 89.244C41.4069 89.7 41.6709 90.312 41.6709 91.08C41.6709 91.608 41.5269 92.106 41.2389 92.574C40.9629 93.054 40.5249 93.438 39.9249 93.726C39.3369 94.026 38.5809 94.176 37.6569 94.176C36.4089 94.176 35.3949 93.936 34.6149 93.456C33.8469 92.988 33.4629 92.274 33.4629 91.314C33.4629 90.942 33.5589 90.57 33.7509 90.198C33.9549 89.838 34.2729 89.496 34.7049 89.172C34.4529 89.064 34.2309 88.95 34.0389 88.83C33.8589 88.698 33.6969 88.566 33.5529 88.434V88.002L35.1009 86.418C34.4049 85.818 34.0569 85.032 34.0569 84.06C34.0569 83.472 34.1949 82.938 34.4709 82.458C34.7589 81.966 35.1729 81.576 35.7129 81.288C36.2529 81 36.9009 80.856 37.6569 80.856C38.1609 80.856 38.6289 80.928 39.0609 81.072H42.3909V82.332L40.8069 82.422C41.0949 82.914 41.2389 83.46 41.2389 84.06C41.2389 84.66 41.0949 85.2 40.8069 85.68C40.5309 86.16 40.1229 86.544 39.5829 86.832C39.0549 87.12 38.4129 87.264 37.6569 87.264ZM37.6569 85.77C38.2089 85.77 38.6529 85.626 38.9889 85.338C39.3369 85.038 39.5109 84.618 39.5109 84.078C39.5109 83.526 39.3369 83.106 38.9889 82.818C38.6529 82.53 38.2089 82.386 37.6569 82.386C37.0929 82.386 36.6369 82.53 36.2889 82.818C35.9529 83.106 35.7849 83.526 35.7849 84.078C35.7849 84.618 35.9529 85.038 36.2889 85.338C36.6369 85.626 37.0929 85.77 37.6569 85.77ZM35.2629 91.134C35.2629 91.65 35.4909 92.034 35.9469 92.286C36.4029 92.55 36.9729 92.682 37.6569 92.682C38.3169 92.682 38.8509 92.538 39.2589 92.25C39.6669 91.974 39.8709 91.602 39.8709 91.134C39.8709 90.786 39.7329 90.486 39.4569 90.234C39.1809 89.994 38.6589 89.844 37.8909 89.784C37.3149 89.748 36.8049 89.694 36.3609 89.622C35.9409 89.85 35.6529 90.096 35.4969 90.36C35.3409 90.624 35.2629 90.882 35.2629 91.134ZM47.9172 90.216C47.0412 90.216 46.2612 90.024 45.5772 89.64C44.9052 89.244 44.3772 88.698 43.9932 88.002C43.6092 87.306 43.4172 86.496 43.4172 85.572C43.4172 84.636 43.6032 83.814 43.9752 83.106C44.3592 82.398 44.8872 81.846 45.5592 81.45C46.2432 81.054 47.0352 80.856 47.9352 80.856C48.8112 80.856 49.5732 81.054 50.2212 81.45C50.8692 81.834 51.3732 82.35 51.7332 82.998C52.0932 83.646 52.2732 84.36 52.2732 85.14C52.2732 85.26 52.2672 85.392 52.2552 85.536C52.2552 85.668 52.2492 85.818 52.2372 85.986H45.2892C45.3492 86.85 45.6312 87.51 46.1352 87.966C46.6512 88.41 47.2452 88.632 47.9172 88.632C48.4572 88.632 48.9072 88.512 49.2672 88.272C49.6392 88.02 49.9152 87.684 50.0952 87.264H52.0032C51.7632 88.104 51.2832 88.806 50.5632 89.37C49.8552 89.934 48.9732 90.216 47.9172 90.216ZM47.9172 82.422C47.2812 82.422 46.7172 82.614 46.2252 82.998C45.7332 83.37 45.4332 83.934 45.3252 84.69H50.3652C50.3292 83.994 50.0832 83.442 49.6272 83.034C49.1712 82.626 48.6012 82.422 47.9172 82.422ZM55.6833 90L53.0553 81.072H54.9633L56.6913 87.804L58.6353 81.072H60.7593L62.7033 87.804L64.4313 81.072H66.3393L63.7113 90H61.7493L59.6973 82.98L57.6453 90H55.6833ZM70.5308 90.216C69.7748 90.216 69.1508 90.09 68.6588 89.838C68.1668 89.586 67.8008 89.256 67.5608 88.848C67.3208 88.428 67.2008 87.972 67.2008 87.48C67.2008 86.616 67.5368 85.932 68.2088 85.428C68.8808 84.924 69.8408 84.672 71.0888 84.672H73.4288V84.51C73.4288 83.814 73.2368 83.292 72.8528 82.944C72.4808 82.596 71.9948 82.422 71.3948 82.422C70.8668 82.422 70.4048 82.554 70.0088 82.818C69.6248 83.07 69.3908 83.448 69.3068 83.952H67.3988C67.4588 83.304 67.6748 82.752 68.0468 82.296C68.4308 81.828 68.9108 81.474 69.4868 81.234C70.0748 80.982 70.7168 80.856 71.4128 80.856C72.6608 80.856 73.6268 81.186 74.3108 81.846C74.9948 82.494 75.3368 83.382 75.3368 84.51V90H73.6808L73.5188 88.47C73.2668 88.962 72.9008 89.376 72.4208 89.712C71.9408 90.048 71.3108 90.216 70.5308 90.216ZM70.9088 88.668C71.4248 88.668 71.8568 88.548 72.2048 88.308C72.5648 88.056 72.8408 87.726 73.0328 87.318C73.2368 86.91 73.3628 86.46 73.4108 85.968H71.2868C70.5308 85.968 69.9908 86.1 69.6668 86.364C69.3548 86.628 69.1988 86.958 69.1988 87.354C69.1988 87.762 69.3488 88.086 69.6488 88.326C69.9608 88.554 70.3808 88.668 70.9088 88.668ZM77.5615 90V81.072H79.2715L79.4335 82.764C79.7455 82.176 80.1775 81.714 80.7295 81.378C81.2935 81.03 81.9715 80.856 82.7635 80.856V82.854H82.2415C81.7135 82.854 81.2395 82.944 80.8195 83.124C80.4115 83.292 80.0815 83.586 79.8295 84.006C79.5895 84.414 79.4695 84.984 79.4695 85.716V90H77.5615ZM88.3293 90.216C87.4533 90.216 86.6733 90.024 85.9893 89.64C85.3173 89.244 84.7893 88.698 84.4053 88.002C84.0213 87.306 83.8293 86.496 83.8293 85.572C83.8293 84.636 84.0153 83.814 84.3873 83.106C84.7713 82.398 85.2993 81.846 85.9713 81.45C86.6553 81.054 87.4473 80.856 88.3473 80.856C89.2233 80.856 89.9853 81.054 90.6333 81.45C91.2813 81.834 91.7853 82.35 92.1453 82.998C92.5053 83.646 92.6853 84.36 92.6853 85.14C92.6853 85.26 92.6793 85.392 92.6673 85.536C92.6673 85.668 92.6613 85.818 92.6493 85.986H85.7013C85.7613 86.85 86.0433 87.51 86.5473 87.966C87.0633 88.41 87.6573 88.632 88.3293 88.632C88.8693 88.632 89.3193 88.512 89.6793 88.272C90.0513 88.02 90.3273 87.684 90.5073 87.264H92.4153C92.1753 88.104 91.6953 88.806 90.9753 89.37C90.2673 89.934 89.3853 90.216 88.3293 90.216ZM88.3293 82.422C87.6933 82.422 87.1293 82.614 86.6373 82.998C86.1453 83.37 85.8453 83.934 85.7373 84.69H90.7773C90.7413 83.994 90.4953 83.442 90.0393 83.034C89.5833 82.626 89.0133 82.422 88.3293 82.422Z" fill="white"/>
<path opacity="0.5" d="M22.334 118.168C21.3727 118.168 20.542 117.958 19.842 117.538C19.1513 117.109 18.6147 116.516 18.232 115.76C17.8493 114.995 17.658 114.108 17.658 113.1C17.658 112.101 17.8493 111.224 18.232 110.468C18.6147 109.703 19.1513 109.105 19.842 108.676C20.542 108.247 21.3727 108.032 22.334 108.032C23.454 108.032 24.364 108.303 25.064 108.844C25.7733 109.376 26.226 110.123 26.422 111.084H25.12C24.9707 110.477 24.6627 109.992 24.196 109.628C23.7387 109.255 23.118 109.068 22.334 109.068C21.634 109.068 21.0227 109.231 20.5 109.558C19.9773 109.875 19.5713 110.337 19.282 110.944C19.002 111.541 18.862 112.26 18.862 113.1C18.862 113.94 19.002 114.663 19.282 115.27C19.5713 115.867 19.9773 116.329 20.5 116.656C21.0227 116.973 21.634 117.132 22.334 117.132C23.118 117.132 23.7387 116.955 24.196 116.6C24.6627 116.236 24.9707 115.755 25.12 115.158H26.422C26.226 116.101 25.7733 116.838 25.064 117.37C24.364 117.902 23.454 118.168 22.334 118.168ZM28.0422 118V111.056H29.1062L29.2042 112.386C29.4188 111.929 29.7455 111.565 30.1842 111.294C30.6228 111.023 31.1642 110.888 31.8082 110.888V112.12H31.4862C31.0755 112.12 30.6975 112.195 30.3522 112.344C30.0068 112.484 29.7315 112.727 29.5262 113.072C29.3208 113.417 29.2182 113.893 29.2182 114.5V118H28.0422ZM35.9903 118.168C35.3277 118.168 34.7397 118.019 34.2263 117.72C33.713 117.412 33.307 116.987 33.0083 116.446C32.719 115.905 32.5743 115.265 32.5743 114.528C32.5743 113.8 32.719 113.165 33.0083 112.624C33.2977 112.073 33.699 111.649 34.2123 111.35C34.735 111.042 35.337 110.888 36.0183 110.888C36.6903 110.888 37.269 111.042 37.7543 111.35C38.249 111.649 38.627 112.045 38.8883 112.54C39.1497 113.035 39.2803 113.567 39.2803 114.136C39.2803 114.239 39.2757 114.341 39.2663 114.444C39.2663 114.547 39.2663 114.663 39.2663 114.794H33.7363C33.7643 115.326 33.8857 115.769 34.1003 116.124C34.3243 116.469 34.5997 116.731 34.9263 116.908C35.2623 117.085 35.617 117.174 35.9903 117.174C36.4757 117.174 36.8817 117.062 37.2083 116.838C37.535 116.614 37.773 116.311 37.9223 115.928H39.0843C38.8977 116.572 38.5383 117.109 38.0063 117.538C37.4837 117.958 36.8117 118.168 35.9903 118.168ZM35.9903 111.882C35.4303 111.882 34.931 112.055 34.4923 112.4C34.063 112.736 33.8157 113.231 33.7503 113.884H38.1183C38.0903 113.259 37.8757 112.769 37.4743 112.414C37.073 112.059 36.5783 111.882 35.9903 111.882ZM43.989 118.168C43.2984 118.168 42.6917 118.009 42.169 117.692C41.6557 117.375 41.2544 116.941 40.965 116.39C40.685 115.839 40.545 115.214 40.545 114.514C40.545 113.814 40.6897 113.193 40.979 112.652C41.2684 112.101 41.6697 111.672 42.183 111.364C42.6964 111.047 43.303 110.888 44.003 110.888C44.5724 110.888 45.0764 111.005 45.515 111.238C45.9537 111.471 46.2944 111.798 46.537 112.218V107.92H47.713V118H46.649L46.537 116.852C46.313 117.188 45.991 117.491 45.571 117.762C45.151 118.033 44.6237 118.168 43.989 118.168ZM44.115 117.146C44.5817 117.146 44.9924 117.039 45.347 116.824C45.711 116.6 45.991 116.292 46.187 115.9C46.3924 115.508 46.495 115.051 46.495 114.528C46.495 114.005 46.3924 113.548 46.187 113.156C45.991 112.764 45.711 112.461 45.347 112.246C44.9924 112.022 44.5817 111.91 44.115 111.91C43.6577 111.91 43.247 112.022 42.883 112.246C42.5284 112.461 42.2484 112.764 42.043 113.156C41.847 113.548 41.749 114.005 41.749 114.528C41.749 115.051 41.847 115.508 42.043 115.9C42.2484 116.292 42.5284 116.6 42.883 116.824C43.247 117.039 43.6577 117.146 44.115 117.146ZM50.3441 109.516C50.1107 109.516 49.9147 109.441 49.7561 109.292C49.6067 109.133 49.5321 108.937 49.5321 108.704C49.5321 108.48 49.6067 108.293 49.7561 108.144C49.9147 107.995 50.1107 107.92 50.3441 107.92C50.5681 107.92 50.7594 107.995 50.9181 108.144C51.0767 108.293 51.1561 108.48 51.1561 108.704C51.1561 108.937 51.0767 109.133 50.9181 109.292C50.7594 109.441 50.5681 109.516 50.3441 109.516ZM49.7561 118V111.056H50.9321V118H49.7561ZM55.7237 118C55.089 118 54.5897 117.846 54.2257 117.538C53.8617 117.23 53.6797 116.675 53.6797 115.872V112.05H52.4757V111.056H53.6797L53.8337 109.39H54.8557V111.056H56.8997V112.05H54.8557V115.872C54.8557 116.311 54.9443 116.609 55.1217 116.768C55.299 116.917 55.6117 116.992 56.0597 116.992H56.7877V118H55.7237ZM62.1688 118V108.2H63.3448V117.062H67.9088V118H62.1688ZM70.1683 109.516C69.9349 109.516 69.7389 109.441 69.5803 109.292C69.4309 109.133 69.3563 108.937 69.3563 108.704C69.3563 108.48 69.4309 108.293 69.5803 108.144C69.7389 107.995 69.9349 107.92 70.1683 107.92C70.3923 107.92 70.5836 107.995 70.7423 108.144C70.9009 108.293 70.9803 108.48 70.9803 108.704C70.9803 108.937 70.9009 109.133 70.7423 109.292C70.5836 109.441 70.3923 109.516 70.1683 109.516ZM69.5803 118V111.056H70.7563V118H69.5803ZM72.8039 118V111.056H73.8679L73.9379 112.302C74.1619 111.863 74.4839 111.518 74.9039 111.266C75.3239 111.014 75.7999 110.888 76.3319 110.888C77.1532 110.888 77.8066 111.14 78.2919 111.644C78.7866 112.139 79.0339 112.904 79.0339 113.94V118H77.8579V114.066C77.8579 112.619 77.2606 111.896 76.0659 111.896C75.4686 111.896 74.9692 112.115 74.5679 112.554C74.1759 112.983 73.9799 113.599 73.9799 114.402V118H72.8039ZM83.9376 118.168C83.2749 118.168 82.6869 118.019 82.1736 117.72C81.6603 117.412 81.2543 116.987 80.9556 116.446C80.6663 115.905 80.5216 115.265 80.5216 114.528C80.5216 113.8 80.6663 113.165 80.9556 112.624C81.2449 112.073 81.6463 111.649 82.1596 111.35C82.6823 111.042 83.2843 110.888 83.9656 110.888C84.6376 110.888 85.2163 111.042 85.7016 111.35C86.1963 111.649 86.5743 112.045 86.8356 112.54C87.0969 113.035 87.2276 113.567 87.2276 114.136C87.2276 114.239 87.2229 114.341 87.2136 114.444C87.2136 114.547 87.2136 114.663 87.2136 114.794H81.6836C81.7116 115.326 81.8329 115.769 82.0476 116.124C82.2716 116.469 82.5469 116.731 82.8736 116.908C83.2096 117.085 83.5643 117.174 83.9376 117.174C84.4229 117.174 84.8289 117.062 85.1556 116.838C85.4823 116.614 85.7203 116.311 85.8696 115.928H87.0316C86.8449 116.572 86.4856 117.109 85.9536 117.538C85.4309 117.958 84.7589 118.168 83.9376 118.168ZM83.9376 111.882C83.3776 111.882 82.8783 112.055 82.4396 112.4C82.0103 112.736 81.7629 113.231 81.6976 113.884H86.0656C86.0376 113.259 85.8229 112.769 85.4216 112.414C85.0203 112.059 84.5256 111.882 83.9376 111.882Z" fill="white"/>
<path d="M24.7838 6H30.9938V45H24.7838V6Z" fill="white"/>
<path d="M70.1249 6H76.3349V27H70.1249V6Z" fill="white"/>
<path d="M53.5649 43.6962L50.4599 38.5L69.283 28L72.388 33.1962L53.5649 43.6962Z" fill="white"/>
<path d="M92.895 43.6962L96 38.5L77.1769 28L74.0719 33.1962L92.895 43.6962Z" fill="white"/>
<path d="M9 18.5L12.105 13.3038L47.0622 32.8038L43.9572 38L9 18.5Z" fill="white"/>
<path d="M12.105 38L9 32.8038L43.9572 13.3038L47.0622 18.5L12.105 38Z" fill="white"/>
<path d="M152.278 91V78.4H160.288V79.948H154.186V83.872H159.748V85.384H154.186V89.452H160.288V91H152.278ZM166.233 91C165.357 91 164.661 90.79 164.145 90.37C163.629 89.938 163.371 89.176 163.371 88.084V83.674H161.841V82.072H163.371L163.605 79.804H165.279V82.072H167.799V83.674H165.279V88.084C165.279 88.576 165.381 88.918 165.585 89.11C165.801 89.29 166.167 89.38 166.683 89.38H167.709V91H166.233ZM169.767 91V78.04H171.675V83.512C171.975 82.996 172.389 82.594 172.917 82.306C173.457 82.006 174.051 81.856 174.699 81.856C175.767 81.856 176.607 82.192 177.219 82.864C177.831 83.536 178.137 84.538 178.137 85.87V91H176.247V86.068C176.247 84.34 175.557 83.476 174.177 83.476C173.457 83.476 172.857 83.728 172.377 84.232C171.909 84.736 171.675 85.456 171.675 86.392V91H169.767ZM184.56 91.216C183.684 91.216 182.904 91.024 182.22 90.64C181.548 90.244 181.02 89.698 180.636 89.002C180.252 88.306 180.06 87.496 180.06 86.572C180.06 85.636 180.246 84.814 180.618 84.106C181.002 83.398 181.53 82.846 182.202 82.45C182.886 82.054 183.678 81.856 184.578 81.856C185.454 81.856 186.216 82.054 186.864 82.45C187.512 82.834 188.016 83.35 188.376 83.998C188.736 84.646 188.916 85.36 188.916 86.14C188.916 86.26 188.91 86.392 188.898 86.536C188.898 86.668 188.892 86.818 188.88 86.986H181.932C181.992 87.85 182.274 88.51 182.778 88.966C183.294 89.41 183.888 89.632 184.56 89.632C185.1 89.632 185.55 89.512 185.91 89.272C186.282 89.02 186.558 88.684 186.738 88.264H188.646C188.406 89.104 187.926 89.806 187.206 90.37C186.498 90.934 185.616 91.216 184.56 91.216ZM184.56 83.422C183.924 83.422 183.36 83.614 182.868 83.998C182.376 84.37 182.076 84.934 181.968 85.69H187.008C186.972 84.994 186.726 84.442 186.27 84.034C185.814 83.626 185.244 83.422 184.56 83.422ZM190.895 91V82.072H192.605L192.767 83.764C193.079 83.176 193.511 82.714 194.063 82.378C194.627 82.03 195.305 81.856 196.097 81.856V83.854H195.575C195.047 83.854 194.573 83.944 194.153 84.124C193.745 84.292 193.415 84.586 193.163 85.006C192.923 85.414 192.803 85.984 192.803 86.716V91H190.895ZM201.663 91.216C200.787 91.216 200.007 91.024 199.323 90.64C198.651 90.244 198.123 89.698 197.739 89.002C197.355 88.306 197.163 87.496 197.163 86.572C197.163 85.636 197.349 84.814 197.721 84.106C198.105 83.398 198.633 82.846 199.305 82.45C199.989 82.054 200.781 81.856 201.681 81.856C202.557 81.856 203.319 82.054 203.967 82.45C204.615 82.834 205.119 83.35 205.479 83.998C205.839 84.646 206.019 85.36 206.019 86.14C206.019 86.26 206.013 86.392 206.001 86.536C206.001 86.668 205.995 86.818 205.983 86.986H199.035C199.095 87.85 199.377 88.51 199.881 88.966C200.397 89.41 200.991 89.632 201.663 89.632C202.203 89.632 202.653 89.512 203.013 89.272C203.385 89.02 203.661 88.684 203.841 88.264H205.749C205.509 89.104 205.029 89.806 204.309 90.37C203.601 90.934 202.719 91.216 201.663 91.216ZM201.663 83.422C201.027 83.422 200.463 83.614 199.971 83.998C199.479 84.37 199.179 84.934 199.071 85.69H204.111C204.075 84.994 203.829 84.442 203.373 84.034C202.917 83.626 202.347 83.422 201.663 83.422ZM211.293 91.216C210.213 91.216 209.361 90.88 208.737 90.208C208.125 89.536 207.819 88.534 207.819 87.202V82.072H209.727V87.004C209.727 88.732 210.435 89.596 211.851 89.596C212.559 89.596 213.141 89.344 213.597 88.84C214.053 88.336 214.281 87.616 214.281 86.68V82.072H216.189V91H214.497L214.353 89.434C214.077 89.986 213.669 90.424 213.129 90.748C212.601 91.06 211.989 91.216 211.293 91.216ZM218.616 91V82.072H220.308L220.47 83.332C220.758 82.876 221.136 82.516 221.604 82.252C222.084 81.988 222.636 81.856 223.26 81.856C224.676 81.856 225.66 82.414 226.212 83.53C226.536 83.014 226.968 82.606 227.508 82.306C228.06 82.006 228.654 81.856 229.29 81.856C230.406 81.856 231.282 82.192 231.918 82.864C232.554 83.536 232.872 84.538 232.872 85.87V91H230.964V86.068C230.964 84.34 230.304 83.476 228.984 83.476C228.312 83.476 227.76 83.728 227.328 84.232C226.908 84.736 226.698 85.456 226.698 86.392V91H224.79V86.068C224.79 84.34 224.124 83.476 222.792 83.476C222.132 83.476 221.586 83.728 221.154 84.232C220.734 84.736 220.524 85.456 220.524 86.392V91H218.616Z" fill="white"/>
<path opacity="0.5" d="M162.334 119.168C161.373 119.168 160.542 118.958 159.842 118.538C159.151 118.109 158.615 117.516 158.232 116.76C157.849 115.995 157.658 115.108 157.658 114.1C157.658 113.101 157.849 112.224 158.232 111.468C158.615 110.703 159.151 110.105 159.842 109.676C160.542 109.247 161.373 109.032 162.334 109.032C163.454 109.032 164.364 109.303 165.064 109.844C165.773 110.376 166.226 111.123 166.422 112.084H165.12C164.971 111.477 164.663 110.992 164.196 110.628C163.739 110.255 163.118 110.068 162.334 110.068C161.634 110.068 161.023 110.231 160.5 110.558C159.977 110.875 159.571 111.337 159.282 111.944C159.002 112.541 158.862 113.26 158.862 114.1C158.862 114.94 159.002 115.663 159.282 116.27C159.571 116.867 159.977 117.329 160.5 117.656C161.023 117.973 161.634 118.132 162.334 118.132C163.118 118.132 163.739 117.955 164.196 117.6C164.663 117.236 164.971 116.755 165.12 116.158H166.422C166.226 117.101 165.773 117.838 165.064 118.37C164.364 118.902 163.454 119.168 162.334 119.168ZM168.042 119V112.056H169.106L169.204 113.386C169.419 112.929 169.746 112.565 170.184 112.294C170.623 112.023 171.164 111.888 171.808 111.888V113.12H171.486C171.076 113.12 170.698 113.195 170.352 113.344C170.007 113.484 169.732 113.727 169.526 114.072C169.321 114.417 169.218 114.893 169.218 115.5V119H168.042ZM175.99 119.168C175.328 119.168 174.74 119.019 174.226 118.72C173.713 118.412 173.307 117.987 173.008 117.446C172.719 116.905 172.574 116.265 172.574 115.528C172.574 114.8 172.719 114.165 173.008 113.624C173.298 113.073 173.699 112.649 174.212 112.35C174.735 112.042 175.337 111.888 176.018 111.888C176.69 111.888 177.269 112.042 177.754 112.35C178.249 112.649 178.627 113.045 178.888 113.54C179.15 114.035 179.28 114.567 179.28 115.136C179.28 115.239 179.276 115.341 179.266 115.444C179.266 115.547 179.266 115.663 179.266 115.794H173.736C173.764 116.326 173.886 116.769 174.1 117.124C174.324 117.469 174.6 117.731 174.926 117.908C175.262 118.085 175.617 118.174 175.99 118.174C176.476 118.174 176.882 118.062 177.208 117.838C177.535 117.614 177.773 117.311 177.922 116.928H179.084C178.898 117.572 178.538 118.109 178.006 118.538C177.484 118.958 176.812 119.168 175.99 119.168ZM175.99 112.882C175.43 112.882 174.931 113.055 174.492 113.4C174.063 113.736 173.816 114.231 173.75 114.884H178.118C178.09 114.259 177.876 113.769 177.474 113.414C177.073 113.059 176.578 112.882 175.99 112.882ZM183.989 119.168C183.298 119.168 182.692 119.009 182.169 118.692C181.656 118.375 181.254 117.941 180.965 117.39C180.685 116.839 180.545 116.214 180.545 115.514C180.545 114.814 180.69 114.193 180.979 113.652C181.268 113.101 181.67 112.672 182.183 112.364C182.696 112.047 183.303 111.888 184.003 111.888C184.572 111.888 185.076 112.005 185.515 112.238C185.954 112.471 186.294 112.798 186.537 113.218V108.92H187.713V119H186.649L186.537 117.852C186.313 118.188 185.991 118.491 185.571 118.762C185.151 119.033 184.624 119.168 183.989 119.168ZM184.115 118.146C184.582 118.146 184.992 118.039 185.347 117.824C185.711 117.6 185.991 117.292 186.187 116.9C186.392 116.508 186.495 116.051 186.495 115.528C186.495 115.005 186.392 114.548 186.187 114.156C185.991 113.764 185.711 113.461 185.347 113.246C184.992 113.022 184.582 112.91 184.115 112.91C183.658 112.91 183.247 113.022 182.883 113.246C182.528 113.461 182.248 113.764 182.043 114.156C181.847 114.548 181.749 115.005 181.749 115.528C181.749 116.051 181.847 116.508 182.043 116.9C182.248 117.292 182.528 117.6 182.883 117.824C183.247 118.039 183.658 118.146 184.115 118.146ZM190.344 110.516C190.111 110.516 189.915 110.441 189.756 110.292C189.607 110.133 189.532 109.937 189.532 109.704C189.532 109.48 189.607 109.293 189.756 109.144C189.915 108.995 190.111 108.92 190.344 108.92C190.568 108.92 190.759 108.995 190.918 109.144C191.077 109.293 191.156 109.48 191.156 109.704C191.156 109.937 191.077 110.133 190.918 110.292C190.759 110.441 190.568 110.516 190.344 110.516ZM189.756 119V112.056H190.932V119H189.756ZM195.724 119C195.089 119 194.59 118.846 194.226 118.538C193.862 118.23 193.68 117.675 193.68 116.872V113.05H192.476V112.056H193.68L193.834 110.39H194.856V112.056H196.9V113.05H194.856V116.872C194.856 117.311 194.944 117.609 195.122 117.768C195.299 117.917 195.612 117.992 196.06 117.992H196.788V119H195.724ZM202.169 119V109.2H203.345V118.062H207.909V119H202.169ZM210.168 110.516C209.935 110.516 209.739 110.441 209.58 110.292C209.431 110.133 209.356 109.937 209.356 109.704C209.356 109.48 209.431 109.293 209.58 109.144C209.739 108.995 209.935 108.92 210.168 108.92C210.392 108.92 210.584 108.995 210.742 109.144C210.901 109.293 210.98 109.48 210.98 109.704C210.98 109.937 210.901 110.133 210.742 110.292C210.584 110.441 210.392 110.516 210.168 110.516ZM209.58 119V112.056H210.756V119H209.58ZM212.804 119V112.056H213.868L213.938 113.302C214.162 112.863 214.484 112.518 214.904 112.266C215.324 112.014 215.8 111.888 216.332 111.888C217.153 111.888 217.807 112.14 218.292 112.644C218.787 113.139 219.034 113.904 219.034 114.94V119H217.858V115.066C217.858 113.619 217.261 112.896 216.066 112.896C215.469 112.896 214.969 113.115 214.568 113.554C214.176 113.983 213.98 114.599 213.98 115.402V119H212.804ZM223.938 119.168C223.275 119.168 222.687 119.019 222.174 118.72C221.66 118.412 221.254 117.987 220.956 117.446C220.666 116.905 220.522 116.265 220.522 115.528C220.522 114.8 220.666 114.165 220.956 113.624C221.245 113.073 221.646 112.649 222.16 112.35C222.682 112.042 223.284 111.888 223.966 111.888C224.638 111.888 225.216 112.042 225.702 112.35C226.196 112.649 226.574 113.045 226.836 113.54C227.097 114.035 227.228 114.567 227.228 115.136C227.228 115.239 227.223 115.341 227.214 115.444C227.214 115.547 227.214 115.663 227.214 115.794H221.684C221.712 116.326 221.833 116.769 222.048 117.124C222.272 117.469 222.547 117.731 222.874 117.908C223.21 118.085 223.564 118.174 223.938 118.174C224.423 118.174 224.829 118.062 225.156 117.838C225.482 117.614 225.72 117.311 225.87 116.928H227.032C226.845 117.572 226.486 118.109 225.954 118.538C225.431 118.958 224.759 119.168 223.938 119.168ZM223.938 112.882C223.378 112.882 222.878 113.055 222.44 113.4C222.01 113.736 221.763 114.231 221.698 114.884H226.066C226.038 114.259 225.823 113.769 225.422 113.414C225.02 113.059 224.526 112.882 223.938 112.882Z" fill="white"/>
<path fill-rule="evenodd" clip-rule="evenodd" d="M205.966 27.4581L191.684 1.40039L177.402 27.4581H205.966ZM191.684 36.6548L177.403 27.4581H205.966L191.684 36.6548ZM191.684 40.1301L177.403 31.2619L191.684 51.9547V40.1301ZM191.685 51.9547L205.967 31.2619L191.685 40.1301V51.9547Z" fill="white"/>
<path d="M303.894 91.216C302.646 91.216 301.566 90.946 300.654 90.406C299.754 89.854 299.058 89.092 298.566 88.12C298.074 87.136 297.828 86.002 297.828 84.718C297.828 83.422 298.074 82.288 298.566 81.316C299.058 80.332 299.754 79.564 300.654 79.012C301.566 78.46 302.646 78.184 303.894 78.184C305.37 78.184 306.576 78.544 307.512 79.264C308.448 79.984 309.042 80.992 309.294 82.288H307.17C307.002 81.556 306.642 80.974 306.09 80.542C305.538 80.11 304.8 79.894 303.876 79.894C302.616 79.894 301.62 80.326 300.888 81.19C300.156 82.042 299.79 83.218 299.79 84.718C299.79 86.206 300.156 87.376 300.888 88.228C301.62 89.08 302.616 89.506 303.876 89.506C304.8 89.506 305.538 89.302 306.09 88.894C306.642 88.486 307.002 87.928 307.17 87.22H309.294C309.042 88.468 308.448 89.446 307.512 90.154C306.576 90.862 305.37 91.216 303.894 91.216ZM311.319 91V78.04H313.227V83.512C313.527 82.996 313.941 82.594 314.469 82.306C315.009 82.006 315.603 81.856 316.251 81.856C317.319 81.856 318.159 82.192 318.771 82.864C319.383 83.536 319.689 84.538 319.689 85.87V91H317.799V86.068C317.799 84.34 317.109 83.476 315.729 83.476C315.009 83.476 314.409 83.728 313.929 84.232C313.461 84.736 313.227 85.456 313.227 86.392V91H311.319ZM324.96 91.216C324.204 91.216 323.58 91.09 323.088 90.838C322.596 90.586 322.23 90.256 321.99 89.848C321.75 89.428 321.63 88.972 321.63 88.48C321.63 87.616 321.966 86.932 322.638 86.428C323.31 85.924 324.27 85.672 325.518 85.672H327.858V85.51C327.858 84.814 327.666 84.292 327.282 83.944C326.91 83.596 326.424 83.422 325.824 83.422C325.296 83.422 324.834 83.554 324.438 83.818C324.054 84.07 323.82 84.448 323.736 84.952H321.828C321.888 84.304 322.104 83.752 322.476 83.296C322.86 82.828 323.34 82.474 323.916 82.234C324.504 81.982 325.146 81.856 325.842 81.856C327.09 81.856 328.056 82.186 328.74 82.846C329.424 83.494 329.766 84.382 329.766 85.51V91H328.11L327.948 89.47C327.696 89.962 327.33 90.376 326.85 90.712C326.37 91.048 325.74 91.216 324.96 91.216ZM325.338 89.668C325.854 89.668 326.286 89.548 326.634 89.308C326.994 89.056 327.27 88.726 327.462 88.318C327.666 87.91 327.792 87.46 327.84 86.968H325.716C324.96 86.968 324.42 87.1 324.096 87.364C323.784 87.628 323.628 87.958 323.628 88.354C323.628 88.762 323.778 89.086 324.078 89.326C324.39 89.554 324.81 89.668 325.338 89.668ZM333.071 80.38C332.711 80.38 332.411 80.272 332.171 80.056C331.943 79.828 331.829 79.546 331.829 79.21C331.829 78.874 331.943 78.598 332.171 78.382C332.411 78.154 332.711 78.04 333.071 78.04C333.431 78.04 333.725 78.154 333.953 78.382C334.193 78.598 334.313 78.874 334.313 79.21C334.313 79.546 334.193 79.828 333.953 80.056C333.725 80.272 333.431 80.38 333.071 80.38ZM332.117 91V82.072H334.025V91H332.117ZM336.544 91V82.072H338.236L338.38 83.638C338.656 83.086 339.058 82.654 339.586 82.342C340.126 82.018 340.744 81.856 341.44 81.856C342.52 81.856 343.366 82.192 343.978 82.864C344.602 83.536 344.914 84.538 344.914 85.87V91H343.024V86.068C343.024 84.34 342.316 83.476 340.9 83.476C340.192 83.476 339.604 83.728 339.136 84.232C338.68 84.736 338.452 85.456 338.452 86.392V91H336.544ZM347.161 91V78.04H349.069V91H347.161ZM352.565 80.38C352.205 80.38 351.905 80.272 351.665 80.056C351.437 79.828 351.323 79.546 351.323 79.21C351.323 78.874 351.437 78.598 351.665 78.382C351.905 78.154 352.205 78.04 352.565 78.04C352.925 78.04 353.219 78.154 353.447 78.382C353.687 78.598 353.807 78.874 353.807 79.21C353.807 79.546 353.687 79.828 353.447 80.056C353.219 80.272 352.925 80.38 352.565 80.38ZM351.611 91V82.072H353.519V91H351.611ZM356.038 91V82.072H357.73L357.874 83.638C358.15 83.086 358.552 82.654 359.08 82.342C359.62 82.018 360.238 81.856 360.934 81.856C362.014 81.856 362.86 82.192 363.472 82.864C364.096 83.536 364.408 84.538 364.408 85.87V91H362.518V86.068C362.518 84.34 361.81 83.476 360.394 83.476C359.686 83.476 359.098 83.728 358.63 84.232C358.174 84.736 357.946 85.456 357.946 86.392V91H356.038ZM366.655 91V78.04H368.563V85.762L371.983 82.072H374.269L370.471 86.122L374.827 91H372.415L368.563 86.428V91H366.655Z" fill="white"/>
<path opacity="0.5" d="M306.334 119.168C305.373 119.168 304.542 118.958 303.842 118.538C303.151 118.109 302.615 117.516 302.232 116.76C301.849 115.995 301.658 115.108 301.658 114.1C301.658 113.101 301.849 112.224 302.232 111.468C302.615 110.703 303.151 110.105 303.842 109.676C304.542 109.247 305.373 109.032 306.334 109.032C307.454 109.032 308.364 109.303 309.064 109.844C309.773 110.376 310.226 111.123 310.422 112.084H309.12C308.971 111.477 308.663 110.992 308.196 110.628C307.739 110.255 307.118 110.068 306.334 110.068C305.634 110.068 305.023 110.231 304.5 110.558C303.977 110.875 303.571 111.337 303.282 111.944C303.002 112.541 302.862 113.26 302.862 114.1C302.862 114.94 303.002 115.663 303.282 116.27C303.571 116.867 303.977 117.329 304.5 117.656C305.023 117.973 305.634 118.132 306.334 118.132C307.118 118.132 307.739 117.955 308.196 117.6C308.663 117.236 308.971 116.755 309.12 116.158H310.422C310.226 117.101 309.773 117.838 309.064 118.37C308.364 118.902 307.454 119.168 306.334 119.168ZM312.042 119V112.056H313.106L313.204 113.386C313.419 112.929 313.746 112.565 314.184 112.294C314.623 112.023 315.164 111.888 315.808 111.888V113.12H315.486C315.076 113.12 314.698 113.195 314.352 113.344C314.007 113.484 313.732 113.727 313.526 114.072C313.321 114.417 313.218 114.893 313.218 115.5V119H312.042ZM319.99 119.168C319.328 119.168 318.74 119.019 318.226 118.72C317.713 118.412 317.307 117.987 317.008 117.446C316.719 116.905 316.574 116.265 316.574 115.528C316.574 114.8 316.719 114.165 317.008 113.624C317.298 113.073 317.699 112.649 318.212 112.35C318.735 112.042 319.337 111.888 320.018 111.888C320.69 111.888 321.269 112.042 321.754 112.35C322.249 112.649 322.627 113.045 322.888 113.54C323.15 114.035 323.28 114.567 323.28 115.136C323.28 115.239 323.276 115.341 323.266 115.444C323.266 115.547 323.266 115.663 323.266 115.794H317.736C317.764 116.326 317.886 116.769 318.1 117.124C318.324 117.469 318.6 117.731 318.926 117.908C319.262 118.085 319.617 118.174 319.99 118.174C320.476 118.174 320.882 118.062 321.208 117.838C321.535 117.614 321.773 117.311 321.922 116.928H323.084C322.898 117.572 322.538 118.109 322.006 118.538C321.484 118.958 320.812 119.168 319.99 119.168ZM319.99 112.882C319.43 112.882 318.931 113.055 318.492 113.4C318.063 113.736 317.816 114.231 317.75 114.884H322.118C322.09 114.259 321.876 113.769 321.474 113.414C321.073 113.059 320.578 112.882 319.99 112.882ZM327.989 119.168C327.298 119.168 326.692 119.009 326.169 118.692C325.656 118.375 325.254 117.941 324.965 117.39C324.685 116.839 324.545 116.214 324.545 115.514C324.545 114.814 324.69 114.193 324.979 113.652C325.268 113.101 325.67 112.672 326.183 112.364C326.696 112.047 327.303 111.888 328.003 111.888C328.572 111.888 329.076 112.005 329.515 112.238C329.954 112.471 330.294 112.798 330.537 113.218V108.92H331.713V119H330.649L330.537 117.852C330.313 118.188 329.991 118.491 329.571 118.762C329.151 119.033 328.624 119.168 327.989 119.168ZM328.115 118.146C328.582 118.146 328.992 118.039 329.347 117.824C329.711 117.6 329.991 117.292 330.187 116.9C330.392 116.508 330.495 116.051 330.495 115.528C330.495 115.005 330.392 114.548 330.187 114.156C329.991 113.764 329.711 113.461 329.347 113.246C328.992 113.022 328.582 112.91 328.115 112.91C327.658 112.91 327.247 113.022 326.883 113.246C326.528 113.461 326.248 113.764 326.043 114.156C325.847 114.548 325.749 115.005 325.749 115.528C325.749 116.051 325.847 116.508 326.043 116.9C326.248 117.292 326.528 117.6 326.883 117.824C327.247 118.039 327.658 118.146 328.115 118.146ZM334.344 110.516C334.111 110.516 333.915 110.441 333.756 110.292C333.607 110.133 333.532 109.937 333.532 109.704C333.532 109.48 333.607 109.293 333.756 109.144C333.915 108.995 334.111 108.92 334.344 108.92C334.568 108.92 334.759 108.995 334.918 109.144C335.077 109.293 335.156 109.48 335.156 109.704C335.156 109.937 335.077 110.133 334.918 110.292C334.759 110.441 334.568 110.516 334.344 110.516ZM333.756 119V112.056H334.932V119H333.756ZM339.724 119C339.089 119 338.59 118.846 338.226 118.538C337.862 118.23 337.68 117.675 337.68 116.872V113.05H336.476V112.056H337.68L337.834 110.39H338.856V112.056H340.9V113.05H338.856V116.872C338.856 117.311 338.944 117.609 339.122 117.768C339.299 117.917 339.612 117.992 340.06 117.992H340.788V119H339.724ZM346.169 119V109.2H347.345V118.062H351.909V119H346.169ZM354.168 110.516C353.935 110.516 353.739 110.441 353.58 110.292C353.431 110.133 353.356 109.937 353.356 109.704C353.356 109.48 353.431 109.293 353.58 109.144C353.739 108.995 353.935 108.92 354.168 108.92C354.392 108.92 354.584 108.995 354.742 109.144C354.901 109.293 354.98 109.48 354.98 109.704C354.98 109.937 354.901 110.133 354.742 110.292C354.584 110.441 354.392 110.516 354.168 110.516ZM353.58 119V112.056H354.756V119H353.58ZM356.804 119V112.056H357.868L357.938 113.302C358.162 112.863 358.484 112.518 358.904 112.266C359.324 112.014 359.8 111.888 360.332 111.888C361.153 111.888 361.807 112.14 362.292 112.644C362.787 113.139 363.034 113.904 363.034 114.94V119H361.858V115.066C361.858 113.619 361.261 112.896 360.066 112.896C359.469 112.896 358.969 113.115 358.568 113.554C358.176 113.983 357.98 114.599 357.98 115.402V119H356.804ZM367.938 119.168C367.275 119.168 366.687 119.019 366.174 118.72C365.66 118.412 365.254 117.987 364.956 117.446C364.666 116.905 364.522 116.265 364.522 115.528C364.522 114.8 364.666 114.165 364.956 113.624C365.245 113.073 365.646 112.649 366.16 112.35C366.682 112.042 367.284 111.888 367.966 111.888C368.638 111.888 369.216 112.042 369.702 112.35C370.196 112.649 370.574 113.045 370.836 113.54C371.097 114.035 371.228 114.567 371.228 115.136C371.228 115.239 371.223 115.341 371.214 115.444C371.214 115.547 371.214 115.663 371.214 115.794H365.684C365.712 116.326 365.833 116.769 366.048 117.124C366.272 117.469 366.547 117.731 366.874 117.908C367.21 118.085 367.564 118.174 367.938 118.174C368.423 118.174 368.829 118.062 369.156 117.838C369.482 117.614 369.72 117.311 369.87 116.928H371.032C370.845 117.572 370.486 118.109 369.954 118.538C369.431 118.958 368.759 119.168 367.938 119.168ZM367.938 112.882C367.378 112.882 366.878 113.055 366.44 113.4C366.01 113.736 365.763 114.231 365.698 114.884H370.066C370.038 114.259 369.823 113.769 369.422 113.414C369.02 113.059 368.526 112.882 367.938 112.882Z" fill="white"/>
<path d="M336 1.18164L331.555 3.80008L319.444 10.9723L315 13.5907V38.4089L319.444 41.0274L331.667 48.1996L336.111 50.818L340.556 48.1996L352.555 41.0274L357 38.4089V13.5907L352.555 10.9723L340.445 3.80008L336 1.18164ZM323.889 33.172V18.8276L336 11.6554L348.111 18.8276V33.172L336 40.3443L323.889 33.172Z" fill="white"/>
<path d="M467.278 91V78.4H471.364C472.84 78.4 474.052 78.658 475 79.174C475.96 79.69 476.668 80.422 477.124 81.37C477.592 82.306 477.826 83.422 477.826 84.718C477.826 86.002 477.592 87.118 477.124 88.066C476.668 89.002 475.96 89.728 475 90.244C474.052 90.748 472.84 91 471.364 91H467.278ZM469.186 89.38H471.292C472.432 89.38 473.332 89.194 473.992 88.822C474.664 88.45 475.144 87.916 475.432 87.22C475.732 86.524 475.882 85.69 475.882 84.718C475.882 83.746 475.732 82.906 475.432 82.198C475.144 81.49 474.664 80.95 473.992 80.578C473.332 80.194 472.432 80.002 471.292 80.002H469.186V89.38ZM482.886 91.216C482.13 91.216 481.506 91.09 481.014 90.838C480.522 90.586 480.156 90.256 479.916 89.848C479.676 89.428 479.556 88.972 479.556 88.48C479.556 87.616 479.892 86.932 480.564 86.428C481.236 85.924 482.196 85.672 483.444 85.672H485.784V85.51C485.784 84.814 485.592 84.292 485.208 83.944C484.836 83.596 484.35 83.422 483.75 83.422C483.222 83.422 482.76 83.554 482.364 83.818C481.98 84.07 481.746 84.448 481.662 84.952H479.754C479.814 84.304 480.03 83.752 480.402 83.296C480.786 82.828 481.266 82.474 481.842 82.234C482.43 81.982 483.072 81.856 483.768 81.856C485.016 81.856 485.982 82.186 486.666 82.846C487.35 83.494 487.692 84.382 487.692 85.51V91H486.036L485.874 89.47C485.622 89.962 485.256 90.376 484.776 90.712C484.296 91.048 483.666 91.216 482.886 91.216ZM483.264 89.668C483.78 89.668 484.212 89.548 484.56 89.308C484.92 89.056 485.196 88.726 485.388 88.318C485.592 87.91 485.718 87.46 485.766 86.968H483.642C482.886 86.968 482.346 87.1 482.022 87.364C481.71 87.628 481.554 87.958 481.554 88.354C481.554 88.762 481.704 89.086 482.004 89.326C482.316 89.554 482.736 89.668 483.264 89.668ZM490.997 80.38C490.637 80.38 490.337 80.272 490.097 80.056C489.869 79.828 489.755 79.546 489.755 79.21C489.755 78.874 489.869 78.598 490.097 78.382C490.337 78.154 490.637 78.04 490.997 78.04C491.357 78.04 491.651 78.154 491.879 78.382C492.119 78.598 492.239 78.874 492.239 79.21C492.239 79.546 492.119 79.828 491.879 80.056C491.651 80.272 491.357 80.38 490.997 80.38ZM490.043 91V82.072H491.951V91H490.043Z" fill="white"/>
<path opacity="0.5" d="M450.334 119.168C449.373 119.168 448.542 118.958 447.842 118.538C447.151 118.109 446.615 117.516 446.232 116.76C445.849 115.995 445.658 115.108 445.658 114.1C445.658 113.101 445.849 112.224 446.232 111.468C446.615 110.703 447.151 110.105 447.842 109.676C448.542 109.247 449.373 109.032 450.334 109.032C451.454 109.032 452.364 109.303 453.064 109.844C453.773 110.376 454.226 111.123 454.422 112.084H453.12C452.971 111.477 452.663 110.992 452.196 110.628C451.739 110.255 451.118 110.068 450.334 110.068C449.634 110.068 449.023 110.231 448.5 110.558C447.977 110.875 447.571 111.337 447.282 111.944C447.002 112.541 446.862 113.26 446.862 114.1C446.862 114.94 447.002 115.663 447.282 116.27C447.571 116.867 447.977 117.329 448.5 117.656C449.023 117.973 449.634 118.132 450.334 118.132C451.118 118.132 451.739 117.955 452.196 117.6C452.663 117.236 452.971 116.755 453.12 116.158H454.422C454.226 117.101 453.773 117.838 453.064 118.37C452.364 118.902 451.454 119.168 450.334 119.168ZM456.042 119V112.056H457.106L457.204 113.386C457.419 112.929 457.746 112.565 458.184 112.294C458.623 112.023 459.164 111.888 459.808 111.888V113.12H459.486C459.076 113.12 458.698 113.195 458.352 113.344C458.007 113.484 457.732 113.727 457.526 114.072C457.321 114.417 457.218 114.893 457.218 115.5V119H456.042ZM463.99 119.168C463.328 119.168 462.74 119.019 462.226 118.72C461.713 118.412 461.307 117.987 461.008 117.446C460.719 116.905 460.574 116.265 460.574 115.528C460.574 114.8 460.719 114.165 461.008 113.624C461.298 113.073 461.699 112.649 462.212 112.35C462.735 112.042 463.337 111.888 464.018 111.888C464.69 111.888 465.269 112.042 465.754 112.35C466.249 112.649 466.627 113.045 466.888 113.54C467.15 114.035 467.28 114.567 467.28 115.136C467.28 115.239 467.276 115.341 467.266 115.444C467.266 115.547 467.266 115.663 467.266 115.794H461.736C461.764 116.326 461.886 116.769 462.1 117.124C462.324 117.469 462.6 117.731 462.926 117.908C463.262 118.085 463.617 118.174 463.99 118.174C464.476 118.174 464.882 118.062 465.208 117.838C465.535 117.614 465.773 117.311 465.922 116.928H467.084C466.898 117.572 466.538 118.109 466.006 118.538C465.484 118.958 464.812 119.168 463.99 119.168ZM463.99 112.882C463.43 112.882 462.931 113.055 462.492 113.4C462.063 113.736 461.816 114.231 461.75 114.884H466.118C466.09 114.259 465.876 113.769 465.474 113.414C465.073 113.059 464.578 112.882 463.99 112.882ZM471.989 119.168C471.298 119.168 470.692 119.009 470.169 118.692C469.656 118.375 469.254 117.941 468.965 117.39C468.685 116.839 468.545 116.214 468.545 115.514C468.545 114.814 468.69 114.193 468.979 113.652C469.268 113.101 469.67 112.672 470.183 112.364C470.696 112.047 471.303 111.888 472.003 111.888C472.572 111.888 473.076 112.005 473.515 112.238C473.954 112.471 474.294 112.798 474.537 113.218V108.92H475.713V119H474.649L474.537 117.852C474.313 118.188 473.991 118.491 473.571 118.762C473.151 119.033 472.624 119.168 471.989 119.168ZM472.115 118.146C472.582 118.146 472.992 118.039 473.347 117.824C473.711 117.6 473.991 117.292 474.187 116.9C474.392 116.508 474.495 116.051 474.495 115.528C474.495 115.005 474.392 114.548 474.187 114.156C473.991 113.764 473.711 113.461 473.347 113.246C472.992 113.022 472.582 112.91 472.115 112.91C471.658 112.91 471.247 113.022 470.883 113.246C470.528 113.461 470.248 113.764 470.043 114.156C469.847 114.548 469.749 115.005 469.749 115.528C469.749 116.051 469.847 116.508 470.043 116.9C470.248 117.292 470.528 117.6 470.883 117.824C471.247 118.039 471.658 118.146 472.115 118.146ZM478.344 110.516C478.111 110.516 477.915 110.441 477.756 110.292C477.607 110.133 477.532 109.937 477.532 109.704C477.532 109.48 477.607 109.293 477.756 109.144C477.915 108.995 478.111 108.92 478.344 108.92C478.568 108.92 478.759 108.995 478.918 109.144C479.077 109.293 479.156 109.48 479.156 109.704C479.156 109.937 479.077 110.133 478.918 110.292C478.759 110.441 478.568 110.516 478.344 110.516ZM477.756 119V112.056H478.932V119H477.756ZM483.724 119C483.089 119 482.59 118.846 482.226 118.538C481.862 118.23 481.68 117.675 481.68 116.872V113.05H480.476V112.056H481.68L481.834 110.39H482.856V112.056H484.9V113.05H482.856V116.872C482.856 117.311 482.944 117.609 483.122 117.768C483.299 117.917 483.612 117.992 484.06 117.992H484.788V119H483.724ZM490.169 119V109.2H491.345V118.062H495.909V119H490.169ZM498.168 110.516C497.935 110.516 497.739 110.441 497.58 110.292C497.431 110.133 497.356 109.937 497.356 109.704C497.356 109.48 497.431 109.293 497.58 109.144C497.739 108.995 497.935 108.92 498.168 108.92C498.392 108.92 498.584 108.995 498.742 109.144C498.901 109.293 498.98 109.48 498.98 109.704C498.98 109.937 498.901 110.133 498.742 110.292C498.584 110.441 498.392 110.516 498.168 110.516ZM497.58 119V112.056H498.756V119H497.58ZM500.804 119V112.056H501.868L501.938 113.302C502.162 112.863 502.484 112.518 502.904 112.266C503.324 112.014 503.8 111.888 504.332 111.888C505.153 111.888 505.807 112.14 506.292 112.644C506.787 113.139 507.034 113.904 507.034 114.94V119H505.858V115.066C505.858 113.619 505.261 112.896 504.066 112.896C503.469 112.896 502.969 113.115 502.568 113.554C502.176 113.983 501.98 114.599 501.98 115.402V119H500.804ZM511.938 119.168C511.275 119.168 510.687 119.019 510.174 118.72C509.66 118.412 509.254 117.987 508.956 117.446C508.666 116.905 508.522 116.265 508.522 115.528C508.522 114.8 508.666 114.165 508.956 113.624C509.245 113.073 509.646 112.649 510.16 112.35C510.682 112.042 511.284 111.888 511.966 111.888C512.638 111.888 513.216 112.042 513.702 112.35C514.196 112.649 514.574 113.045 514.836 113.54C515.097 114.035 515.228 114.567 515.228 115.136C515.228 115.239 515.223 115.341 515.214 115.444C515.214 115.547 515.214 115.663 515.214 115.794H509.684C509.712 116.326 509.833 116.769 510.048 117.124C510.272 117.469 510.547 117.731 510.874 117.908C511.21 118.085 511.564 118.174 511.938 118.174C512.423 118.174 512.829 118.062 513.156 117.838C513.482 117.614 513.72 117.311 513.87 116.928H515.032C514.845 117.572 514.486 118.109 513.954 118.538C513.431 118.958 512.759 119.168 511.938 119.168ZM511.938 112.882C511.378 112.882 510.878 113.055 510.44 113.4C510.01 113.736 509.763 114.231 509.698 114.884H514.066C514.038 114.259 513.823 113.769 513.422 113.414C513.02 113.059 512.526 112.882 511.938 112.882Z" fill="white"/>
<path d="M463.647 45.7302V45.6021C463.647 43.9375 463.647 42.273 463.647 40.6296C463.647 40.0748 463.647 39.4984 463.647 38.9436V33.9284C463.647 33.6509 463.647 33.6082 463.308 33.6082H458.697C458.442 33.6082 458.336 33.6082 458.336 33.2669C458.336 31.9224 458.336 30.5566 458.336 29.2119H463.265C463.541 29.2119 463.647 29.2119 463.647 28.8492C463.647 27.5047 463.647 26.1814 463.647 24.8369C463.647 24.5809 463.647 24.5169 463.308 24.5169H458.697C458.442 24.5169 458.336 24.5169 458.336 24.1753C458.336 22.9376 458.336 21.6785 458.336 20.4192C458.336 20.1846 458.336 20.1206 458.676 20.1206C460.184 20.1206 461.714 20.1206 463.244 20.1206C463.563 20.1206 463.647 20.1206 463.647 19.715V8.21198C463.647 7.8705 463.647 7.78516 464.072 7.78516H480.007C481.154 7.82783 482.323 7.95587 483.449 8.16929C485.786 8.59613 488.038 9.44978 490.099 10.6449C491.459 11.4559 492.712 12.4162 493.839 13.5474C494.667 14.4223 495.432 15.3827 496.112 16.3858C496.792 17.4101 497.344 18.4986 497.769 19.6509C497.833 19.9498 498.109 20.1419 498.406 20.0992C499.66 20.0992 500.935 20.0992 502.209 20.0992C502.698 20.0992 502.698 20.0992 502.719 20.5687V24.0686C502.719 24.4102 502.592 24.4956 502.252 24.4956H499.32C499.023 24.4956 498.938 24.4955 498.959 24.8796C499.065 26.1814 499.065 27.4834 498.959 28.7851C498.959 29.1478 498.959 29.1905 499.362 29.1905H502.719C502.719 29.1905 502.719 32.2424 502.719 33.0961C502.719 33.459 502.613 33.5655 502.294 33.5655C500.956 33.5655 499.617 33.5655 498.279 33.5655C498.003 33.523 497.726 33.6936 497.663 33.9711C496.707 36.4681 495.177 38.7088 493.201 40.5016C492.479 41.1631 491.756 41.8033 490.928 42.337C490.099 42.8705 489.249 43.3399 488.378 43.7455C486.763 44.4711 485.085 45.0046 483.364 45.346C481.728 45.6448 480.05 45.7729 478.392 45.7516H463.647V45.7302ZM492.989 33.6296H491.905H468.343C468.024 33.6296 467.918 33.6296 467.918 34.0565C467.918 36.532 467.918 38.9863 467.918 41.462C467.918 41.8033 467.918 41.8887 468.343 41.8887H479.221C479.795 41.8887 480.538 41.846 481.069 41.782C482.684 41.5474 483.916 41.3126 485.382 40.7577C485.913 40.5656 486.997 40.0748 487.082 40.0321C489.632 38.7088 491.693 36.596 493.01 34.0352C493.01 34.0352 493.159 33.7149 492.989 33.6296ZM492.989 19.7577C492.776 19.2882 492.521 18.8399 492.224 18.4132C491.777 17.6876 491.246 17.026 490.652 16.4285C490.375 16.0656 490.035 15.7456 489.674 15.4681C487.826 13.8888 485.659 12.779 483.3 12.2242C482.111 11.9467 480.899 11.8187 479.688 11.84C475.885 11.84 472.082 11.84 468.279 11.84C467.961 11.84 467.918 11.9681 467.918 12.2455C467.918 14.7638 467.918 17.3033 467.918 19.8217C467.918 20.1419 467.918 20.2273 468.322 20.2273H492.84C492.84 20.2273 493.116 20.2273 493.095 20.0565C493.095 20.0565 493.031 19.8431 492.989 19.7577ZM481.091 29.1905H494.008C494.285 29.1905 494.412 29.1905 494.433 28.8278C494.54 27.5047 494.54 26.1814 494.433 24.8582C494.433 24.6023 494.306 24.4956 494.03 24.4956H468.322C468.003 24.4956 467.918 24.6023 467.918 24.9009V28.6997C467.918 29.1905 467.918 29.1905 468.428 29.1905H481.091Z" fill="#FEFEFD"/>
<path d="M588.278 91V78.4H592.688C593.672 78.4 594.488 78.568 595.136 78.904C595.784 79.228 596.264 79.678 596.576 80.254C596.9 80.818 597.062 81.46 597.062 82.18C597.062 82.864 596.906 83.494 596.594 84.07C596.294 84.634 595.82 85.084 595.172 85.42C594.524 85.756 593.696 85.924 592.688 85.924H590.186V91H588.278ZM590.186 84.358H592.598C593.498 84.358 594.14 84.166 594.524 83.782C594.92 83.386 595.118 82.852 595.118 82.18C595.118 81.484 594.92 80.944 594.524 80.56C594.14 80.164 593.498 79.966 592.598 79.966H590.186V84.358ZM602.56 91.216C601.708 91.216 600.94 91.024 600.256 90.64C599.584 90.244 599.05 89.698 598.654 89.002C598.258 88.294 598.06 87.472 598.06 86.536C598.06 85.6 598.258 84.784 598.654 84.088C599.062 83.38 599.608 82.834 600.292 82.45C600.976 82.054 601.738 81.856 602.578 81.856C603.43 81.856 604.192 82.054 604.864 82.45C605.548 82.834 606.088 83.38 606.484 84.088C606.892 84.784 607.096 85.6 607.096 86.536C607.096 87.472 606.892 88.294 606.484 89.002C606.088 89.698 605.548 90.244 604.864 90.64C604.18 91.024 603.412 91.216 602.56 91.216ZM602.56 89.578C603.016 89.578 603.436 89.464 603.82 89.236C604.216 89.008 604.534 88.672 604.774 88.228C605.014 87.772 605.134 87.208 605.134 86.536C605.134 85.864 605.014 85.306 604.774 84.862C604.546 84.406 604.234 84.064 603.838 83.836C603.454 83.608 603.034 83.494 602.578 83.494C602.122 83.494 601.696 83.608 601.3 83.836C600.916 84.064 600.604 84.406 600.364 84.862C600.124 85.306 600.004 85.864 600.004 86.536C600.004 87.208 600.124 87.772 600.364 88.228C600.604 88.672 600.916 89.008 601.3 89.236C601.684 89.464 602.104 89.578 602.56 89.578ZM609.159 91V78.04H611.067V91H609.159ZM613.483 91V78.04H615.391V85.762L618.811 82.072H621.097L617.299 86.122L621.655 91H619.243L615.391 86.428V91H613.483ZM625.964 91.216C625.208 91.216 624.584 91.09 624.092 90.838C623.6 90.586 623.234 90.256 622.994 89.848C622.754 89.428 622.634 88.972 622.634 88.48C622.634 87.616 622.97 86.932 623.642 86.428C624.314 85.924 625.274 85.672 626.522 85.672H628.862V85.51C628.862 84.814 628.67 84.292 628.286 83.944C627.914 83.596 627.428 83.422 626.828 83.422C626.3 83.422 625.838 83.554 625.442 83.818C625.058 84.07 624.824 84.448 624.74 84.952H622.832C622.892 84.304 623.108 83.752 623.48 83.296C623.864 82.828 624.344 82.474 624.92 82.234C625.508 81.982 626.15 81.856 626.846 81.856C628.094 81.856 629.06 82.186 629.744 82.846C630.428 83.494 630.77 84.382 630.77 85.51V91H629.114L628.952 89.47C628.7 89.962 628.334 90.376 627.854 90.712C627.374 91.048 626.744 91.216 625.964 91.216ZM626.342 89.668C626.858 89.668 627.29 89.548 627.638 89.308C627.998 89.056 628.274 88.726 628.466 88.318C628.67 87.91 628.796 87.46 628.844 86.968H626.72C625.964 86.968 625.424 87.1 625.1 87.364C624.788 87.628 624.632 87.958 624.632 88.354C624.632 88.762 624.782 89.086 625.082 89.326C625.394 89.554 625.814 89.668 626.342 89.668ZM637.063 91.216C636.199 91.216 635.437 91.012 634.777 90.604C634.117 90.196 633.601 89.638 633.229 88.93C632.857 88.222 632.671 87.418 632.671 86.518C632.671 85.618 632.857 84.82 633.229 84.124C633.601 83.416 634.117 82.864 634.777 82.468C635.449 82.06 636.217 81.856 637.081 81.856C637.789 81.856 638.407 81.994 638.935 82.27C639.475 82.546 639.895 82.936 640.195 83.44V78.04H642.103V91H640.393L640.195 89.614C639.907 90.034 639.511 90.406 639.007 90.73C638.503 91.054 637.855 91.216 637.063 91.216ZM637.405 89.56C638.221 89.56 638.887 89.278 639.403 88.714C639.931 88.15 640.195 87.424 640.195 86.536C640.195 85.636 639.931 84.91 639.403 84.358C638.887 83.794 638.221 83.512 637.405 83.512C636.589 83.512 635.917 83.794 635.389 84.358C634.861 84.91 634.597 85.636 634.597 86.536C634.597 87.124 634.717 87.646 634.957 88.102C635.197 88.558 635.527 88.918 635.947 89.182C636.379 89.434 636.865 89.56 637.405 89.56ZM648.685 91.216C647.833 91.216 647.065 91.024 646.381 90.64C645.709 90.244 645.175 89.698 644.779 89.002C644.383 88.294 644.185 87.472 644.185 86.536C644.185 85.6 644.383 84.784 644.779 84.088C645.187 83.38 645.733 82.834 646.417 82.45C647.101 82.054 647.863 81.856 648.703 81.856C649.555 81.856 650.317 82.054 650.989 82.45C651.673 82.834 652.213 83.38 652.609 84.088C653.017 84.784 653.221 85.6 653.221 86.536C653.221 87.472 653.017 88.294 652.609 89.002C652.213 89.698 651.673 90.244 650.989 90.64C650.305 91.024 649.537 91.216 648.685 91.216ZM648.685 89.578C649.141 89.578 649.561 89.464 649.945 89.236C650.341 89.008 650.659 88.672 650.899 88.228C651.139 87.772 651.259 87.208 651.259 86.536C651.259 85.864 651.139 85.306 650.899 84.862C650.671 84.406 650.359 84.064 649.963 83.836C649.579 83.608 649.159 83.494 648.703 83.494C648.247 83.494 647.821 83.608 647.425 83.836C647.041 84.064 646.729 84.406 646.489 84.862C646.249 85.306 646.129 85.864 646.129 86.536C646.129 87.208 646.249 87.772 646.489 88.228C646.729 88.672 647.041 89.008 647.425 89.236C647.809 89.464 648.229 89.578 648.685 89.578ZM658.677 91C657.801 91 657.105 90.79 656.589 90.37C656.073 89.938 655.815 89.176 655.815 88.084V83.674H654.285V82.072H655.815L656.049 79.804H657.723V82.072H660.243V83.674H657.723V88.084C657.723 88.576 657.825 88.918 658.029 89.11C658.245 89.29 658.611 89.38 659.127 89.38H660.153V91H658.677Z" fill="white"/>
<path opacity="0.5" d="M594.334 119.168C593.373 119.168 592.542 118.958 591.842 118.538C591.151 118.109 590.615 117.516 590.232 116.76C589.849 115.995 589.658 115.108 589.658 114.1C589.658 113.101 589.849 112.224 590.232 111.468C590.615 110.703 591.151 110.105 591.842 109.676C592.542 109.247 593.373 109.032 594.334 109.032C595.454 109.032 596.364 109.303 597.064 109.844C597.773 110.376 598.226 111.123 598.422 112.084H597.12C596.971 111.477 596.663 110.992 596.196 110.628C595.739 110.255 595.118 110.068 594.334 110.068C593.634 110.068 593.023 110.231 592.5 110.558C591.977 110.875 591.571 111.337 591.282 111.944C591.002 112.541 590.862 113.26 590.862 114.1C590.862 114.94 591.002 115.663 591.282 116.27C591.571 116.867 591.977 117.329 592.5 117.656C593.023 117.973 593.634 118.132 594.334 118.132C595.118 118.132 595.739 117.955 596.196 117.6C596.663 117.236 596.971 116.755 597.12 116.158H598.422C598.226 117.101 597.773 117.838 597.064 118.37C596.364 118.902 595.454 119.168 594.334 119.168ZM600.042 119V112.056H601.106L601.204 113.386C601.419 112.929 601.746 112.565 602.184 112.294C602.623 112.023 603.164 111.888 603.808 111.888V113.12H603.486C603.076 113.12 602.698 113.195 602.352 113.344C602.007 113.484 601.732 113.727 601.526 114.072C601.321 114.417 601.218 114.893 601.218 115.5V119H600.042ZM607.99 119.168C607.328 119.168 606.74 119.019 606.226 118.72C605.713 118.412 605.307 117.987 605.008 117.446C604.719 116.905 604.574 116.265 604.574 115.528C604.574 114.8 604.719 114.165 605.008 113.624C605.298 113.073 605.699 112.649 606.212 112.35C606.735 112.042 607.337 111.888 608.018 111.888C608.69 111.888 609.269 112.042 609.754 112.35C610.249 112.649 610.627 113.045 610.888 113.54C611.15 114.035 611.28 114.567 611.28 115.136C611.28 115.239 611.276 115.341 611.266 115.444C611.266 115.547 611.266 115.663 611.266 115.794H605.736C605.764 116.326 605.886 116.769 606.1 117.124C606.324 117.469 606.6 117.731 606.926 117.908C607.262 118.085 607.617 118.174 607.99 118.174C608.476 118.174 608.882 118.062 609.208 117.838C609.535 117.614 609.773 117.311 609.922 116.928H611.084C610.898 117.572 610.538 118.109 610.006 118.538C609.484 118.958 608.812 119.168 607.99 119.168ZM607.99 112.882C607.43 112.882 606.931 113.055 606.492 113.4C606.063 113.736 605.816 114.231 605.75 114.884H610.118C610.09 114.259 609.876 113.769 609.474 113.414C609.073 113.059 608.578 112.882 607.99 112.882ZM615.989 119.168C615.298 119.168 614.692 119.009 614.169 118.692C613.656 118.375 613.254 117.941 612.965 117.39C612.685 116.839 612.545 116.214 612.545 115.514C612.545 114.814 612.69 114.193 612.979 113.652C613.268 113.101 613.67 112.672 614.183 112.364C614.696 112.047 615.303 111.888 616.003 111.888C616.572 111.888 617.076 112.005 617.515 112.238C617.954 112.471 618.294 112.798 618.537 113.218V108.92H619.713V119H618.649L618.537 117.852C618.313 118.188 617.991 118.491 617.571 118.762C617.151 119.033 616.624 119.168 615.989 119.168ZM616.115 118.146C616.582 118.146 616.992 118.039 617.347 117.824C617.711 117.6 617.991 117.292 618.187 116.9C618.392 116.508 618.495 116.051 618.495 115.528C618.495 115.005 618.392 114.548 618.187 114.156C617.991 113.764 617.711 113.461 617.347 113.246C616.992 113.022 616.582 112.91 616.115 112.91C615.658 112.91 615.247 113.022 614.883 113.246C614.528 113.461 614.248 113.764 614.043 114.156C613.847 114.548 613.749 115.005 613.749 115.528C613.749 116.051 613.847 116.508 614.043 116.9C614.248 117.292 614.528 117.6 614.883 117.824C615.247 118.039 615.658 118.146 616.115 118.146ZM622.344 110.516C622.111 110.516 621.915 110.441 621.756 110.292C621.607 110.133 621.532 109.937 621.532 109.704C621.532 109.48 621.607 109.293 621.756 109.144C621.915 108.995 622.111 108.92 622.344 108.92C622.568 108.92 622.759 108.995 622.918 109.144C623.077 109.293 623.156 109.48 623.156 109.704C623.156 109.937 623.077 110.133 622.918 110.292C622.759 110.441 622.568 110.516 622.344 110.516ZM621.756 119V112.056H622.932V119H621.756ZM627.724 119C627.089 119 626.59 118.846 626.226 118.538C625.862 118.23 625.68 117.675 625.68 116.872V113.05H624.476V112.056H625.68L625.834 110.39H626.856V112.056H628.9V113.05H626.856V116.872C626.856 117.311 626.944 117.609 627.122 117.768C627.299 117.917 627.612 117.992 628.06 117.992H628.788V119H627.724ZM634.169 119V109.2H635.345V118.062H639.909V119H634.169ZM642.168 110.516C641.935 110.516 641.739 110.441 641.58 110.292C641.431 110.133 641.356 109.937 641.356 109.704C641.356 109.48 641.431 109.293 641.58 109.144C641.739 108.995 641.935 108.92 642.168 108.92C642.392 108.92 642.584 108.995 642.742 109.144C642.901 109.293 642.98 109.48 642.98 109.704C642.98 109.937 642.901 110.133 642.742 110.292C642.584 110.441 642.392 110.516 642.168 110.516ZM641.58 119V112.056H642.756V119H641.58ZM644.804 119V112.056H645.868L645.938 113.302C646.162 112.863 646.484 112.518 646.904 112.266C647.324 112.014 647.8 111.888 648.332 111.888C649.153 111.888 649.807 112.14 650.292 112.644C650.787 113.139 651.034 113.904 651.034 114.94V119H649.858V115.066C649.858 113.619 649.261 112.896 648.066 112.896C647.469 112.896 646.969 113.115 646.568 113.554C646.176 113.983 645.98 114.599 645.98 115.402V119H644.804ZM655.938 119.168C655.275 119.168 654.687 119.019 654.174 118.72C653.66 118.412 653.254 117.987 652.956 117.446C652.666 116.905 652.522 116.265 652.522 115.528C652.522 114.8 652.666 114.165 652.956 113.624C653.245 113.073 653.646 112.649 654.16 112.35C654.682 112.042 655.284 111.888 655.966 111.888C656.638 111.888 657.216 112.042 657.702 112.35C658.196 112.649 658.574 113.045 658.836 113.54C659.097 114.035 659.228 114.567 659.228 115.136C659.228 115.239 659.223 115.341 659.214 115.444C659.214 115.547 659.214 115.663 659.214 115.794H653.684C653.712 116.326 653.833 116.769 654.048 117.124C654.272 117.469 654.547 117.731 654.874 117.908C655.21 118.085 655.564 118.174 655.938 118.174C656.423 118.174 656.829 118.062 657.156 117.838C657.482 117.614 657.72 117.311 657.87 116.928H659.032C658.845 117.572 658.486 118.109 657.954 118.538C657.431 118.958 656.759 119.168 655.938 119.168ZM655.938 112.882C655.378 112.882 654.878 113.055 654.44 113.4C654.01 113.736 653.763 114.231 653.698 114.884H658.066C658.038 114.259 657.823 113.769 657.422 113.414C657.02 113.059 656.526 112.882 655.938 112.882Z" fill="white"/>
<path d="M624.094 3C619.036 3.01872 614.19 5.01376 610.613 8.55021C607.037 12.0867 605.019 16.8777 605 21.879C605 23.9642 605.34 26.0358 606.006 28.0141C606.246 28.6615 606.726 29.194 607.35 29.5022C607.974 29.8105 608.693 29.8713 609.36 29.6722C610.008 29.4288 610.537 28.95 610.84 28.3337C611.143 27.7173 611.196 27.0099 610.989 26.356C610.422 24.8175 610.17 23.183 610.247 21.5474C610.326 18.9069 611.18 16.3463 612.705 14.1772C614.23 12.0082 616.36 10.3244 618.835 9.33089C621.311 8.33741 624.025 8.07712 626.647 8.58174C629.27 9.08635 631.687 10.3341 633.605 12.173C635.524 14.0119 636.859 16.3625 637.45 18.9387C638.041 21.5149 637.862 24.2054 636.934 26.6825C636.006 29.1596 634.369 31.3164 632.223 32.8903C630.078 34.4641 627.515 35.3871 624.849 35.5467C624.849 35.5467 622.177 35.7126 620.836 35.8784C620.344 35.947 619.856 36.0419 619.374 36.1626C619.34 36.1883 619.297 36.2007 619.254 36.1977C619.211 36.1947 619.17 36.1764 619.14 36.1461C619.109 36.1159 619.09 36.0757 619.087 36.0331C619.084 35.9904 619.097 35.9481 619.123 35.9139L619.542 33.6754L622.058 22.412C622.202 21.7413 622.071 21.0414 621.694 20.4661C621.317 19.8908 620.723 19.4874 620.045 19.3444C619.367 19.2015 618.659 19.3309 618.077 19.704C617.495 20.0772 617.087 20.6635 616.943 21.3342C616.943 21.3342 610.953 48.8355 610.953 49.0842C610.871 49.416 610.858 49.761 610.915 50.098C610.972 50.435 611.098 50.7569 611.285 51.0441C611.472 51.3313 611.717 51.5776 612.004 51.7681C612.291 51.9585 612.614 52.0891 612.954 52.1517C613.29 52.2314 613.639 52.2426 613.98 52.1847C614.321 52.1268 614.647 52.001 614.937 51.8149C615.227 51.6288 615.476 51.3863 615.668 51.1022C615.861 50.818 615.993 50.4981 616.056 50.162C616.14 49.8303 616.895 46.1825 616.895 46.1825C617.173 44.8397 617.86 43.6135 618.865 42.669C619.869 41.7245 621.142 41.1072 622.513 40.9001C623.088 40.8172 625.519 40.6514 625.519 40.6514C630.379 40.2073 634.881 37.9393 638.102 34.3137C641.322 30.688 643.014 25.9803 642.832 21.1586C642.649 16.3368 640.605 11.7674 637.12 8.38993C633.635 5.01247 628.973 3.08363 624.094 3Z" fill="white"/>
<path d="M630.23 46.4771C629.817 46.3943 629.392 46.3931 628.978 46.4734C628.565 46.5537 628.172 46.714 627.821 46.9452C627.47 47.1763 627.169 47.4737 626.935 47.8202C626.701 48.1667 626.539 48.5555 626.457 48.9643C626.368 49.373 626.363 49.7952 626.443 50.2058C626.522 50.6165 626.683 51.0073 626.918 51.3551C627.152 51.703 627.455 52.0008 627.808 52.2309C628.161 52.4611 628.557 52.6189 628.973 52.6951C629.386 52.788 629.813 52.7966 630.23 52.7204C630.646 52.6443 631.043 52.4849 631.395 52.2521C631.747 52.0193 632.047 51.7179 632.278 51.3665C632.508 51.015 632.663 50.6208 632.734 50.2079C632.875 49.3878 632.695 48.5454 632.23 47.8522C631.764 47.159 631.05 46.6673 630.23 46.4771Z" fill="white"/>
</svg>
