<svg width="314" height="252" viewBox="0 0 314 252" fill="none" xmlns="http://www.w3.org/2000/svg">
<path d="M13.065 76V65.5H19.74V66.79H14.655V70.06H19.29V71.32H14.655V74.71H19.74V76H13.065ZM24.9643 76.18C24.2443 76.18 23.6093 76.01 23.0593 75.67C22.5093 75.33 22.0793 74.865 21.7693 74.275C21.4593 73.685 21.3043 73.015 21.3043 72.265C21.3043 71.515 21.4593 70.85 21.7693 70.27C22.0793 69.68 22.5093 69.22 23.0593 68.89C23.6193 68.55 24.2593 68.38 24.9793 68.38C25.5693 68.38 26.0843 68.495 26.5243 68.725C26.9743 68.955 27.3243 69.28 27.5743 69.7V65.2H29.1643V76H27.7393L27.5743 74.845C27.3343 75.195 27.0043 75.505 26.5843 75.775C26.1643 76.045 25.6243 76.18 24.9643 76.18ZM25.2493 74.8C25.9293 74.8 26.4843 74.565 26.9143 74.095C27.3543 73.625 27.5743 73.02 27.5743 72.28C27.5743 71.53 27.3543 70.925 26.9143 70.465C26.4843 69.995 25.9293 69.76 25.2493 69.76C24.5693 69.76 24.0093 69.995 23.5693 70.465C23.1293 70.925 22.9093 71.53 22.9093 72.28C22.9093 72.77 23.0093 73.205 23.2093 73.585C23.4093 73.965 23.6843 74.265 24.0343 74.485C24.3943 74.695 24.7993 74.8 25.2493 74.8ZM34.2141 73.72C33.8241 73.72 33.4641 73.675 33.1341 73.585L32.4891 74.215C32.5991 74.285 32.7341 74.345 32.8941 74.395C33.0541 74.445 33.2791 74.49 33.5691 74.53C33.8591 74.57 34.2541 74.61 34.7541 74.65C35.7441 74.74 36.4591 74.98 36.8991 75.37C37.3391 75.75 37.5591 76.26 37.5591 76.9C37.5591 77.34 37.4391 77.755 37.1991 78.145C36.9691 78.545 36.6041 78.865 36.1041 79.105C35.6141 79.355 34.9841 79.48 34.2141 79.48C33.1741 79.48 32.3291 79.28 31.6791 78.88C31.0391 78.49 30.7191 77.895 30.7191 77.095C30.7191 76.785 30.7991 76.475 30.9591 76.165C31.1291 75.865 31.3941 75.58 31.7541 75.31C31.5441 75.22 31.3591 75.125 31.1991 75.025C31.0491 74.915 30.9141 74.805 30.7941 74.695V74.335L32.0841 73.015C31.5041 72.515 31.2141 71.86 31.2141 71.05C31.2141 70.56 31.3291 70.115 31.5591 69.715C31.7991 69.305 32.1441 68.98 32.5941 68.74C33.0441 68.5 33.5841 68.38 34.2141 68.38C34.6341 68.38 35.0241 68.44 35.3841 68.56H38.1591V69.61L36.8391 69.685C37.0791 70.095 37.1991 70.55 37.1991 71.05C37.1991 71.55 37.0791 72 36.8391 72.4C36.6091 72.8 36.2691 73.12 35.8191 73.36C35.3791 73.6 34.8441 73.72 34.2141 73.72ZM34.2141 72.475C34.6741 72.475 35.0441 72.355 35.3241 72.115C35.6141 71.865 35.7591 71.515 35.7591 71.065C35.7591 70.605 35.6141 70.255 35.3241 70.015C35.0441 69.775 34.6741 69.655 34.2141 69.655C33.7441 69.655 33.3641 69.775 33.0741 70.015C32.7941 70.255 32.6541 70.605 32.6541 71.065C32.6541 71.515 32.7941 71.865 33.0741 72.115C33.3641 72.355 33.7441 72.475 34.2141 72.475ZM32.2191 76.945C32.2191 77.375 32.4091 77.695 32.7891 77.905C33.1691 78.125 33.6441 78.235 34.2141 78.235C34.7641 78.235 35.2091 78.115 35.5491 77.875C35.8891 77.645 36.0591 77.335 36.0591 76.945C36.0591 76.655 35.9441 76.405 35.7141 76.195C35.4841 75.995 35.0491 75.87 34.4091 75.82C33.9291 75.79 33.5041 75.745 33.1341 75.685C32.7841 75.875 32.5441 76.08 32.4141 76.3C32.2841 76.52 32.2191 76.735 32.2191 76.945ZM42.7643 76.18C42.0343 76.18 41.3843 76.02 40.8143 75.7C40.2543 75.37 39.8143 74.915 39.4943 74.335C39.1743 73.755 39.0143 73.08 39.0143 72.31C39.0143 71.53 39.1693 70.845 39.4793 70.255C39.7993 69.665 40.2393 69.205 40.7993 68.875C41.3693 68.545 42.0293 68.38 42.7793 68.38C43.5093 68.38 44.1443 68.545 44.6843 68.875C45.2243 69.195 45.6443 69.625 45.9443 70.165C46.2443 70.705 46.3943 71.3 46.3943 71.95C46.3943 72.05 46.3893 72.16 46.3793 72.28C46.3793 72.39 46.3743 72.515 46.3643 72.655H40.5743C40.6243 73.375 40.8593 73.925 41.2793 74.305C41.7093 74.675 42.2043 74.86 42.7643 74.86C43.2143 74.86 43.5893 74.76 43.8893 74.56C44.1993 74.35 44.4293 74.07 44.5793 73.72H46.1693C45.9693 74.42 45.5693 75.005 44.9693 75.475C44.3793 75.945 43.6443 76.18 42.7643 76.18ZM42.7643 69.685C42.2343 69.685 41.7643 69.845 41.3543 70.165C40.9443 70.475 40.6943 70.945 40.6043 71.575H44.8043C44.7743 70.995 44.5693 70.535 44.1893 70.195C43.8093 69.855 43.3343 69.685 42.7643 69.685ZM49.2361 76L47.0461 68.56H48.6361L50.0761 74.17L51.6961 68.56H53.4661L55.0861 74.17L56.5261 68.56H58.1161L55.9261 76H54.2911L52.5811 70.15L50.8711 76H49.2361ZM61.609 76.18C60.979 76.18 60.459 76.075 60.049 75.865C59.639 75.655 59.334 75.38 59.134 75.04C58.934 74.69 58.834 74.31 58.834 73.9C58.834 73.18 59.114 72.61 59.674 72.19C60.234 71.77 61.034 71.56 62.074 71.56H64.024V71.425C64.024 70.845 63.864 70.41 63.544 70.12C63.234 69.83 62.829 69.685 62.329 69.685C61.889 69.685 61.504 69.795 61.174 70.015C60.854 70.225 60.659 70.54 60.589 70.96H58.999C59.049 70.42 59.229 69.96 59.539 69.58C59.859 69.19 60.259 68.895 60.739 68.695C61.229 68.485 61.764 68.38 62.344 68.38C63.384 68.38 64.189 68.655 64.759 69.205C65.329 69.745 65.614 70.485 65.614 71.425V76H64.234L64.099 74.725C63.889 75.135 63.584 75.48 63.184 75.76C62.784 76.04 62.259 76.18 61.609 76.18ZM61.924 74.89C62.354 74.89 62.714 74.79 63.004 74.59C63.304 74.38 63.534 74.105 63.694 73.765C63.864 73.425 63.969 73.05 64.009 72.64H62.239C61.609 72.64 61.159 72.75 60.889 72.97C60.629 73.19 60.499 73.465 60.499 73.795C60.499 74.135 60.624 74.405 60.874 74.605C61.134 74.795 61.484 74.89 61.924 74.89ZM67.4679 76V68.56H68.8929L69.0279 69.97C69.2879 69.48 69.6479 69.095 70.1079 68.815C70.5779 68.525 71.1429 68.38 71.8029 68.38V70.045H71.3679C70.9279 70.045 70.5329 70.12 70.1829 70.27C69.8429 70.41 69.5679 70.655 69.3579 71.005C69.1579 71.345 69.0579 71.82 69.0579 72.43V76H67.4679ZM76.4411 76.18C75.7111 76.18 75.0611 76.02 74.4911 75.7C73.9311 75.37 73.4911 74.915 73.1711 74.335C72.8511 73.755 72.6911 73.08 72.6911 72.31C72.6911 71.53 72.8461 70.845 73.1561 70.255C73.4761 69.665 73.9161 69.205 74.4761 68.875C75.0461 68.545 75.7061 68.38 76.4561 68.38C77.1861 68.38 77.8211 68.545 78.3611 68.875C78.9011 69.195 79.3211 69.625 79.6211 70.165C79.9211 70.705 80.0711 71.3 80.0711 71.95C80.0711 72.05 80.0661 72.16 80.0561 72.28C80.0561 72.39 80.0511 72.515 80.0411 72.655H74.2511C74.3011 73.375 74.5361 73.925 74.9561 74.305C75.3861 74.675 75.8811 74.86 76.4411 74.86C76.8911 74.86 77.2661 74.76 77.5661 74.56C77.8761 74.35 78.1061 74.07 78.2561 73.72H79.8461C79.6461 74.42 79.2461 75.005 78.6461 75.475C78.0561 75.945 77.3211 76.18 76.4411 76.18ZM76.4411 69.685C75.9111 69.685 75.4411 69.845 75.0311 70.165C74.6211 70.475 74.3711 70.945 74.2811 71.575H78.4811C78.4511 70.995 78.2461 70.535 77.8661 70.195C77.4861 69.855 77.0111 69.685 76.4411 69.685Z" fill="white"/>
<path opacity="0.5" d="M19.953 98.156C19.0603 98.156 18.289 97.961 17.639 97.571C16.9977 97.1723 16.4993 96.622 16.144 95.92C15.7887 95.2093 15.611 94.386 15.611 93.45C15.611 92.5227 15.7887 91.708 16.144 91.006C16.4993 90.2953 16.9977 89.7407 17.639 89.342C18.289 88.9433 19.0603 88.744 19.953 88.744C20.993 88.744 21.838 88.9953 22.488 89.498C23.1467 89.992 23.567 90.6853 23.749 91.578H22.54C22.4013 91.0147 22.1153 90.564 21.682 90.226C21.2573 89.8793 20.681 89.706 19.953 89.706C19.303 89.706 18.7353 89.8577 18.25 90.161C17.7647 90.4557 17.3877 90.8847 17.119 91.448C16.859 92.0027 16.729 92.67 16.729 93.45C16.729 94.23 16.859 94.9017 17.119 95.465C17.3877 96.0197 17.7647 96.4487 18.25 96.752C18.7353 97.0467 19.303 97.194 19.953 97.194C20.681 97.194 21.2573 97.0293 21.682 96.7C22.1153 96.362 22.4013 95.9157 22.54 95.361H23.749C23.567 96.2363 23.1467 96.921 22.488 97.415C21.838 97.909 20.993 98.156 19.953 98.156ZM25.2534 98V91.552H26.2414L26.3324 92.787C26.5318 92.3623 26.8351 92.0243 27.2424 91.773C27.6498 91.5217 28.1524 91.396 28.7504 91.396V92.54H28.4514C28.0701 92.54 27.7191 92.6093 27.3984 92.748C27.0778 92.878 26.8221 93.1033 26.6314 93.424C26.4408 93.7447 26.3454 94.1867 26.3454 94.75V98H25.2534ZM32.6339 98.156C32.0186 98.156 31.4726 98.0173 30.9959 97.74C30.5192 97.454 30.1422 97.0597 29.8649 96.557C29.5962 96.0543 29.4619 95.4607 29.4619 94.776C29.4619 94.1 29.5962 93.5107 29.8649 93.008C30.1336 92.4967 30.5062 92.1023 30.9829 91.825C31.4682 91.539 32.0272 91.396 32.6599 91.396C33.2839 91.396 33.8212 91.539 34.2719 91.825C34.7312 92.1023 35.0822 92.4707 35.3249 92.93C35.5676 93.3893 35.6889 93.8833 35.6889 94.412C35.6889 94.5073 35.6846 94.6027 35.6759 94.698C35.6759 94.7933 35.6759 94.9017 35.6759 95.023H30.5409C30.5669 95.517 30.6796 95.9287 30.8789 96.258C31.0869 96.5787 31.3426 96.8213 31.6459 96.986C31.9579 97.1507 32.2872 97.233 32.6339 97.233C33.0846 97.233 33.4616 97.129 33.7649 96.921C34.0682 96.713 34.2892 96.4313 34.4279 96.076H35.5069C35.3336 96.674 34.9999 97.1723 34.5059 97.571C34.0206 97.961 33.3966 98.156 32.6339 98.156ZM32.6339 92.319C32.1139 92.319 31.6502 92.4793 31.2429 92.8C30.8442 93.112 30.6146 93.5713 30.5539 94.178H34.6099C34.5839 93.5973 34.3846 93.1423 34.0119 92.813C33.6392 92.4837 33.1799 92.319 32.6339 92.319ZM40.0613 98.156C39.4199 98.156 38.8566 98.0087 38.3713 97.714C37.8946 97.4193 37.5219 97.0163 37.2533 96.505C36.9933 95.9937 36.8633 95.413 36.8633 94.763C36.8633 94.113 36.9976 93.5367 37.2663 93.034C37.5349 92.5227 37.9076 92.124 38.3843 91.838C38.8609 91.5433 39.4243 91.396 40.0743 91.396C40.6029 91.396 41.0709 91.5043 41.4783 91.721C41.8856 91.9377 42.2019 92.241 42.4273 92.631V88.64H43.5193V98H42.5313L42.4273 96.934C42.2193 97.246 41.9203 97.5277 41.5303 97.779C41.1403 98.0303 40.6506 98.156 40.0613 98.156ZM40.1783 97.207C40.6116 97.207 40.9929 97.1073 41.3223 96.908C41.6603 96.7 41.9203 96.414 42.1023 96.05C42.2929 95.686 42.3883 95.2613 42.3883 94.776C42.3883 94.2907 42.2929 93.866 42.1023 93.502C41.9203 93.138 41.6603 92.8563 41.3223 92.657C40.9929 92.449 40.6116 92.345 40.1783 92.345C39.7536 92.345 39.3723 92.449 39.0343 92.657C38.7049 92.8563 38.4449 93.138 38.2543 93.502C38.0723 93.866 37.9813 94.2907 37.9813 94.776C37.9813 95.2613 38.0723 95.686 38.2543 96.05C38.4449 96.414 38.7049 96.7 39.0343 96.908C39.3723 97.1073 39.7536 97.207 40.1783 97.207ZM45.9623 90.122C45.7457 90.122 45.5637 90.0527 45.4163 89.914C45.2777 89.7667 45.2083 89.5847 45.2083 89.368C45.2083 89.16 45.2777 88.9867 45.4163 88.848C45.5637 88.7093 45.7457 88.64 45.9623 88.64C46.1703 88.64 46.348 88.7093 46.4953 88.848C46.6427 88.9867 46.7163 89.16 46.7163 89.368C46.7163 89.5847 46.6427 89.7667 46.4953 89.914C46.348 90.0527 46.1703 90.122 45.9623 90.122ZM45.4163 98V91.552H46.5083V98H45.4163ZM50.9577 98C50.3684 98 49.9047 97.857 49.5667 97.571C49.2287 97.285 49.0597 96.7693 49.0597 96.024V92.475H47.9417V91.552H49.0597L49.2027 90.005H50.1517V91.552H52.0497V92.475H50.1517V96.024C50.1517 96.4313 50.234 96.7087 50.3987 96.856C50.5634 96.9947 50.8537 97.064 51.2697 97.064H51.9457V98H50.9577ZM56.9425 98V88.9H58.0345V97.129H62.2725V98H56.9425ZM64.3705 90.122C64.1539 90.122 63.9719 90.0527 63.8245 89.914C63.6859 89.7667 63.6165 89.5847 63.6165 89.368C63.6165 89.16 63.6859 88.9867 63.8245 88.848C63.9719 88.7093 64.1539 88.64 64.3705 88.64C64.5785 88.64 64.7562 88.7093 64.9035 88.848C65.0509 88.9867 65.1245 89.16 65.1245 89.368C65.1245 89.5847 65.0509 89.7667 64.9035 89.914C64.7562 90.0527 64.5785 90.122 64.3705 90.122ZM63.8245 98V91.552H64.9165V98H63.8245ZM66.8179 98V91.552H67.8059L67.8709 92.709C68.0789 92.3017 68.3779 91.981 68.7679 91.747C69.1579 91.513 69.5999 91.396 70.0939 91.396C70.8566 91.396 71.4632 91.63 71.9139 92.098C72.3732 92.5573 72.6029 93.268 72.6029 94.23V98H71.5109V94.347C71.5109 93.0037 70.9562 92.332 69.8469 92.332C69.2922 92.332 68.8286 92.5357 68.4559 92.943C68.0919 93.3417 67.9099 93.9137 67.9099 94.659V98H66.8179ZM77.1564 98.156C76.541 98.156 75.995 98.0173 75.5184 97.74C75.0417 97.454 74.6647 97.0597 74.3874 96.557C74.1187 96.0543 73.9844 95.4607 73.9844 94.776C73.9844 94.1 74.1187 93.5107 74.3874 93.008C74.656 92.4967 75.0287 92.1023 75.5054 91.825C75.9907 91.539 76.5497 91.396 77.1824 91.396C77.8064 91.396 78.3437 91.539 78.7944 91.825C79.2537 92.1023 79.6047 92.4707 79.8474 92.93C80.09 93.3893 80.2114 93.8833 80.2114 94.412C80.2114 94.5073 80.207 94.6027 80.1984 94.698C80.1984 94.7933 80.1984 94.9017 80.1984 95.023H75.0634C75.0894 95.517 75.202 95.9287 75.4014 96.258C75.6094 96.5787 75.865 96.8213 76.1684 96.986C76.4804 97.1507 76.8097 97.233 77.1564 97.233C77.607 97.233 77.984 97.129 78.2874 96.921C78.5907 96.713 78.8117 96.4313 78.9504 96.076H80.0294C79.856 96.674 79.5224 97.1723 79.0284 97.571C78.543 97.961 77.919 98.156 77.1564 98.156ZM77.1564 92.319C76.6364 92.319 76.1727 92.4793 75.7654 92.8C75.3667 93.112 75.137 93.5713 75.0764 94.178H79.1324C79.1064 93.5973 78.907 93.1423 78.5344 92.813C78.1617 92.4837 77.7024 92.319 77.1564 92.319Z" fill="white"/>
<path d="M24.5182 6H29.4434V37H24.5182V6Z" fill="white"/>
<path d="M60.4784 6H65.4036V22.6923H60.4784V6Z" fill="white"/>
<path d="M47.3445 35.9636L44.882 31.8333L59.8106 23.4872L62.2732 27.6175L47.3445 35.9636Z" fill="white"/>
<path d="M78.5374 35.9636L81 31.8333L66.0713 23.4872L63.6087 27.6175L78.5374 35.9636Z" fill="white"/>
<path d="M12 15.9359L14.4626 11.8056L42.1873 27.3056L39.7247 31.4359L12 15.9359Z" fill="white"/>
<path d="M14.4626 31.4359L12 27.3056L39.7247 11.8056L42.1873 15.9359L14.4626 31.4359Z" fill="white"/>
<path d="M119.065 76V65.5H125.74V66.79H120.655V70.06H125.29V71.32H120.655V74.71H125.74V76H119.065ZM130.694 76C129.964 76 129.384 75.825 128.954 75.475C128.524 75.115 128.309 74.48 128.309 73.57V69.895H127.034V68.56H128.309L128.504 66.67H129.899V68.56H131.999V69.895H129.899V73.57C129.899 73.98 129.984 74.265 130.154 74.425C130.334 74.575 130.639 74.65 131.069 74.65H131.924V76H130.694ZM133.639 76V65.2H135.229V69.76C135.479 69.33 135.824 68.995 136.264 68.755C136.714 68.505 137.209 68.38 137.749 68.38C138.639 68.38 139.339 68.66 139.849 69.22C140.359 69.78 140.614 70.615 140.614 71.725V76H139.039V71.89C139.039 70.45 138.464 69.73 137.314 69.73C136.714 69.73 136.214 69.94 135.814 70.36C135.424 70.78 135.229 71.38 135.229 72.16V76H133.639ZM145.966 76.18C145.236 76.18 144.586 76.02 144.016 75.7C143.456 75.37 143.016 74.915 142.696 74.335C142.376 73.755 142.216 73.08 142.216 72.31C142.216 71.53 142.371 70.845 142.681 70.255C143.001 69.665 143.441 69.205 144.001 68.875C144.571 68.545 145.231 68.38 145.981 68.38C146.711 68.38 147.346 68.545 147.886 68.875C148.426 69.195 148.846 69.625 149.146 70.165C149.446 70.705 149.596 71.3 149.596 71.95C149.596 72.05 149.591 72.16 149.581 72.28C149.581 72.39 149.576 72.515 149.566 72.655H143.776C143.826 73.375 144.061 73.925 144.481 74.305C144.911 74.675 145.406 74.86 145.966 74.86C146.416 74.86 146.791 74.76 147.091 74.56C147.401 74.35 147.631 74.07 147.781 73.72H149.371C149.171 74.42 148.771 75.005 148.171 75.475C147.581 75.945 146.846 76.18 145.966 76.18ZM145.966 69.685C145.436 69.685 144.966 69.845 144.556 70.165C144.146 70.475 143.896 70.945 143.806 71.575H148.006C147.976 70.995 147.771 70.535 147.391 70.195C147.011 69.855 146.536 69.685 145.966 69.685ZM151.246 76V68.56H152.671L152.806 69.97C153.066 69.48 153.426 69.095 153.886 68.815C154.356 68.525 154.921 68.38 155.581 68.38V70.045H155.146C154.706 70.045 154.311 70.12 153.961 70.27C153.621 70.41 153.346 70.655 153.136 71.005C152.936 71.345 152.836 71.82 152.836 72.43V76H151.246ZM160.219 76.18C159.489 76.18 158.839 76.02 158.269 75.7C157.709 75.37 157.269 74.915 156.949 74.335C156.629 73.755 156.469 73.08 156.469 72.31C156.469 71.53 156.624 70.845 156.934 70.255C157.254 69.665 157.694 69.205 158.254 68.875C158.824 68.545 159.484 68.38 160.234 68.38C160.964 68.38 161.599 68.545 162.139 68.875C162.679 69.195 163.099 69.625 163.399 70.165C163.699 70.705 163.849 71.3 163.849 71.95C163.849 72.05 163.844 72.16 163.834 72.28C163.834 72.39 163.829 72.515 163.819 72.655H158.029C158.079 73.375 158.314 73.925 158.734 74.305C159.164 74.675 159.659 74.86 160.219 74.86C160.669 74.86 161.044 74.76 161.344 74.56C161.654 74.35 161.884 74.07 162.034 73.72H163.624C163.424 74.42 163.024 75.005 162.424 75.475C161.834 75.945 161.099 76.18 160.219 76.18ZM160.219 69.685C159.689 69.685 159.219 69.845 158.809 70.165C158.399 70.475 158.149 70.945 158.059 71.575H162.259C162.229 70.995 162.024 70.535 161.644 70.195C161.264 69.855 160.789 69.685 160.219 69.685ZM168.244 76.18C167.344 76.18 166.634 75.9 166.114 75.34C165.604 74.78 165.349 73.945 165.349 72.835V68.56H166.939V72.67C166.939 74.11 167.529 74.83 168.709 74.83C169.299 74.83 169.784 74.62 170.164 74.2C170.544 73.78 170.734 73.18 170.734 72.4V68.56H172.324V76H170.914L170.794 74.695C170.564 75.155 170.224 75.52 169.774 75.79C169.334 76.05 168.824 76.18 168.244 76.18ZM174.347 76V68.56H175.757L175.892 69.61C176.132 69.23 176.447 68.93 176.837 68.71C177.237 68.49 177.697 68.38 178.217 68.38C179.397 68.38 180.217 68.845 180.677 69.775C180.947 69.345 181.307 69.005 181.757 68.755C182.217 68.505 182.712 68.38 183.242 68.38C184.172 68.38 184.902 68.66 185.432 69.22C185.962 69.78 186.227 70.615 186.227 71.725V76H184.637V71.89C184.637 70.45 184.087 69.73 182.987 69.73C182.427 69.73 181.967 69.94 181.607 70.36C181.257 70.78 181.082 71.38 181.082 72.16V76H179.492V71.89C179.492 70.45 178.937 69.73 177.827 69.73C177.277 69.73 176.822 69.94 176.462 70.36C176.112 70.78 175.937 71.38 175.937 72.16V76H174.347Z" fill="white"/>
<path opacity="0.5" d="M123.953 98.156C123.06 98.156 122.289 97.961 121.639 97.571C120.998 97.1723 120.499 96.622 120.144 95.92C119.789 95.2093 119.611 94.386 119.611 93.45C119.611 92.5227 119.789 91.708 120.144 91.006C120.499 90.2953 120.998 89.7407 121.639 89.342C122.289 88.9433 123.06 88.744 123.953 88.744C124.993 88.744 125.838 88.9953 126.488 89.498C127.147 89.992 127.567 90.6853 127.749 91.578H126.54C126.401 91.0147 126.115 90.564 125.682 90.226C125.257 89.8793 124.681 89.706 123.953 89.706C123.303 89.706 122.735 89.8577 122.25 90.161C121.765 90.4557 121.388 90.8847 121.119 91.448C120.859 92.0027 120.729 92.67 120.729 93.45C120.729 94.23 120.859 94.9017 121.119 95.465C121.388 96.0197 121.765 96.4487 122.25 96.752C122.735 97.0467 123.303 97.194 123.953 97.194C124.681 97.194 125.257 97.0293 125.682 96.7C126.115 96.362 126.401 95.9157 126.54 95.361H127.749C127.567 96.2363 127.147 96.921 126.488 97.415C125.838 97.909 124.993 98.156 123.953 98.156ZM129.253 98V91.552H130.241L130.332 92.787C130.532 92.3623 130.835 92.0243 131.242 91.773C131.65 91.5217 132.152 91.396 132.75 91.396V92.54H132.451C132.07 92.54 131.719 92.6093 131.398 92.748C131.078 92.878 130.822 93.1033 130.631 93.424C130.441 93.7447 130.345 94.1867 130.345 94.75V98H129.253ZM136.634 98.156C136.019 98.156 135.473 98.0173 134.996 97.74C134.519 97.454 134.142 97.0597 133.865 96.557C133.596 96.0543 133.462 95.4607 133.462 94.776C133.462 94.1 133.596 93.5107 133.865 93.008C134.134 92.4967 134.506 92.1023 134.983 91.825C135.468 91.539 136.027 91.396 136.66 91.396C137.284 91.396 137.821 91.539 138.272 91.825C138.731 92.1023 139.082 92.4707 139.325 92.93C139.568 93.3893 139.689 93.8833 139.689 94.412C139.689 94.5073 139.685 94.6027 139.676 94.698C139.676 94.7933 139.676 94.9017 139.676 95.023H134.541C134.567 95.517 134.68 95.9287 134.879 96.258C135.087 96.5787 135.343 96.8213 135.646 96.986C135.958 97.1507 136.287 97.233 136.634 97.233C137.085 97.233 137.462 97.129 137.765 96.921C138.068 96.713 138.289 96.4313 138.428 96.076H139.507C139.334 96.674 139 97.1723 138.506 97.571C138.021 97.961 137.397 98.156 136.634 98.156ZM136.634 92.319C136.114 92.319 135.65 92.4793 135.243 92.8C134.844 93.112 134.615 93.5713 134.554 94.178H138.61C138.584 93.5973 138.385 93.1423 138.012 92.813C137.639 92.4837 137.18 92.319 136.634 92.319ZM144.061 98.156C143.42 98.156 142.857 98.0087 142.371 97.714C141.895 97.4193 141.522 97.0163 141.253 96.505C140.993 95.9937 140.863 95.413 140.863 94.763C140.863 94.113 140.998 93.5367 141.266 93.034C141.535 92.5227 141.908 92.124 142.384 91.838C142.861 91.5433 143.424 91.396 144.074 91.396C144.603 91.396 145.071 91.5043 145.478 91.721C145.886 91.9377 146.202 92.241 146.427 92.631V88.64H147.519V98H146.531L146.427 96.934C146.219 97.246 145.92 97.5277 145.53 97.779C145.14 98.0303 144.651 98.156 144.061 98.156ZM144.178 97.207C144.612 97.207 144.993 97.1073 145.322 96.908C145.66 96.7 145.92 96.414 146.102 96.05C146.293 95.686 146.388 95.2613 146.388 94.776C146.388 94.2907 146.293 93.866 146.102 93.502C145.92 93.138 145.66 92.8563 145.322 92.657C144.993 92.449 144.612 92.345 144.178 92.345C143.754 92.345 143.372 92.449 143.034 92.657C142.705 92.8563 142.445 93.138 142.254 93.502C142.072 93.866 141.981 94.2907 141.981 94.776C141.981 95.2613 142.072 95.686 142.254 96.05C142.445 96.414 142.705 96.7 143.034 96.908C143.372 97.1073 143.754 97.207 144.178 97.207ZM149.962 90.122C149.746 90.122 149.564 90.0527 149.416 89.914C149.278 89.7667 149.208 89.5847 149.208 89.368C149.208 89.16 149.278 88.9867 149.416 88.848C149.564 88.7093 149.746 88.64 149.962 88.64C150.17 88.64 150.348 88.7093 150.495 88.848C150.643 88.9867 150.716 89.16 150.716 89.368C150.716 89.5847 150.643 89.7667 150.495 89.914C150.348 90.0527 150.17 90.122 149.962 90.122ZM149.416 98V91.552H150.508V98H149.416ZM154.958 98C154.368 98 153.905 97.857 153.567 97.571C153.229 97.285 153.06 96.7693 153.06 96.024V92.475H151.942V91.552H153.06L153.203 90.005H154.152V91.552H156.05V92.475H154.152V96.024C154.152 96.4313 154.234 96.7087 154.399 96.856C154.563 96.9947 154.854 97.064 155.27 97.064H155.946V98H154.958ZM160.942 98V88.9H162.034V97.129H166.272V98H160.942ZM168.371 90.122C168.154 90.122 167.972 90.0527 167.825 89.914C167.686 89.7667 167.617 89.5847 167.617 89.368C167.617 89.16 167.686 88.9867 167.825 88.848C167.972 88.7093 168.154 88.64 168.371 88.64C168.579 88.64 168.756 88.7093 168.904 88.848C169.051 88.9867 169.125 89.16 169.125 89.368C169.125 89.5847 169.051 89.7667 168.904 89.914C168.756 90.0527 168.579 90.122 168.371 90.122ZM167.825 98V91.552H168.917V98H167.825ZM170.818 98V91.552H171.806L171.871 92.709C172.079 92.3017 172.378 91.981 172.768 91.747C173.158 91.513 173.6 91.396 174.094 91.396C174.857 91.396 175.463 91.63 175.914 92.098C176.373 92.5573 176.603 93.268 176.603 94.23V98H175.511V94.347C175.511 93.0037 174.956 92.332 173.847 92.332C173.292 92.332 172.829 92.5357 172.456 92.943C172.092 93.3417 171.91 93.9137 171.91 94.659V98H170.818ZM181.156 98.156C180.541 98.156 179.995 98.0173 179.518 97.74C179.042 97.454 178.665 97.0597 178.387 96.557C178.119 96.0543 177.984 95.4607 177.984 94.776C177.984 94.1 178.119 93.5107 178.387 93.008C178.656 92.4967 179.029 92.1023 179.505 91.825C179.991 91.539 180.55 91.396 181.182 91.396C181.806 91.396 182.344 91.539 182.794 91.825C183.254 92.1023 183.605 92.4707 183.847 92.93C184.09 93.3893 184.211 93.8833 184.211 94.412C184.211 94.5073 184.207 94.6027 184.198 94.698C184.198 94.7933 184.198 94.9017 184.198 95.023H179.063C179.089 95.517 179.202 95.9287 179.401 96.258C179.609 96.5787 179.865 96.8213 180.168 96.986C180.48 97.1507 180.81 97.233 181.156 97.233C181.607 97.233 181.984 97.129 182.287 96.921C182.591 96.713 182.812 96.4313 182.95 96.076H184.029C183.856 96.674 183.522 97.1723 183.028 97.571C182.543 97.961 181.919 98.156 181.156 98.156ZM181.156 92.319C180.636 92.319 180.173 92.4793 179.765 92.8C179.367 93.112 179.137 93.5713 179.076 94.178H183.132C183.106 93.5973 182.907 93.1423 182.534 92.813C182.162 92.4837 181.702 92.319 181.156 92.319Z" fill="white"/>
<path fill-rule="evenodd" clip-rule="evenodd" d="M165.103 23.3906L152.725 1.19336L140.348 23.3906H165.103ZM152.725 31.2249L140.348 23.3906H165.103L152.725 31.2249ZM152.725 34.1854L140.348 26.6309L152.725 44.2581V34.1854ZM152.726 44.2581L165.103 26.6309L152.726 34.1854V44.2581Z" fill="white"/>
<path d="M235.745 76.18C234.705 76.18 233.805 75.955 233.045 75.505C232.295 75.045 231.715 74.41 231.305 73.6C230.895 72.78 230.69 71.835 230.69 70.765C230.69 69.685 230.895 68.74 231.305 67.93C231.715 67.11 232.295 66.47 233.045 66.01C233.805 65.55 234.705 65.32 235.745 65.32C236.975 65.32 237.98 65.62 238.76 66.22C239.54 66.82 240.035 67.66 240.245 68.74H238.475C238.335 68.13 238.035 67.645 237.575 67.285C237.115 66.925 236.5 66.745 235.73 66.745C234.68 66.745 233.85 67.105 233.24 67.825C232.63 68.535 232.325 69.515 232.325 70.765C232.325 72.005 232.63 72.98 233.24 73.69C233.85 74.4 234.68 74.755 235.73 74.755C236.5 74.755 237.115 74.585 237.575 74.245C238.035 73.905 238.335 73.44 238.475 72.85H240.245C240.035 73.89 239.54 74.705 238.76 75.295C237.98 75.885 236.975 76.18 235.745 76.18ZM241.933 76V65.2H243.523V69.76C243.773 69.33 244.118 68.995 244.558 68.755C245.008 68.505 245.503 68.38 246.043 68.38C246.933 68.38 247.633 68.66 248.143 69.22C248.653 69.78 248.908 70.615 248.908 71.725V76H247.333V71.89C247.333 70.45 246.758 69.73 245.608 69.73C245.008 69.73 244.508 69.94 244.108 70.36C243.718 70.78 243.523 71.38 243.523 72.16V76H241.933ZM253.3 76.18C252.67 76.18 252.15 76.075 251.74 75.865C251.33 75.655 251.025 75.38 250.825 75.04C250.625 74.69 250.525 74.31 250.525 73.9C250.525 73.18 250.805 72.61 251.365 72.19C251.925 71.77 252.725 71.56 253.765 71.56H255.715V71.425C255.715 70.845 255.555 70.41 255.235 70.12C254.925 69.83 254.52 69.685 254.02 69.685C253.58 69.685 253.195 69.795 252.865 70.015C252.545 70.225 252.35 70.54 252.28 70.96H250.69C250.74 70.42 250.92 69.96 251.23 69.58C251.55 69.19 251.95 68.895 252.43 68.695C252.92 68.485 253.455 68.38 254.035 68.38C255.075 68.38 255.88 68.655 256.45 69.205C257.02 69.745 257.305 70.485 257.305 71.425V76H255.925L255.79 74.725C255.58 75.135 255.275 75.48 254.875 75.76C254.475 76.04 253.95 76.18 253.3 76.18ZM253.615 74.89C254.045 74.89 254.405 74.79 254.695 74.59C254.995 74.38 255.225 74.105 255.385 73.765C255.555 73.425 255.66 73.05 255.7 72.64H253.93C253.3 72.64 252.85 72.75 252.58 72.97C252.32 73.19 252.19 73.465 252.19 73.795C252.19 74.135 252.315 74.405 252.565 74.605C252.825 74.795 253.175 74.89 253.615 74.89ZM260.059 67.15C259.759 67.15 259.509 67.06 259.309 66.88C259.119 66.69 259.024 66.455 259.024 66.175C259.024 65.895 259.119 65.665 259.309 65.485C259.509 65.295 259.759 65.2 260.059 65.2C260.359 65.2 260.604 65.295 260.794 65.485C260.994 65.665 261.094 65.895 261.094 66.175C261.094 66.455 260.994 66.69 260.794 66.88C260.604 67.06 260.359 67.15 260.059 67.15ZM259.264 76V68.56H260.854V76H259.264ZM262.953 76V68.56H264.363L264.483 69.865C264.713 69.405 265.048 69.045 265.488 68.785C265.938 68.515 266.453 68.38 267.033 68.38C267.933 68.38 268.638 68.66 269.148 69.22C269.668 69.78 269.928 70.615 269.928 71.725V76H268.353V71.89C268.353 70.45 267.763 69.73 266.583 69.73C265.993 69.73 265.503 69.94 265.113 70.36C264.733 70.78 264.543 71.38 264.543 72.16V76H262.953ZM271.801 76V65.2H273.391V76H271.801ZM276.304 67.15C276.004 67.15 275.754 67.06 275.554 66.88C275.364 66.69 275.269 66.455 275.269 66.175C275.269 65.895 275.364 65.665 275.554 65.485C275.754 65.295 276.004 65.2 276.304 65.2C276.604 65.2 276.849 65.295 277.039 65.485C277.239 65.665 277.339 65.895 277.339 66.175C277.339 66.455 277.239 66.69 277.039 66.88C276.849 67.06 276.604 67.15 276.304 67.15ZM275.509 76V68.56H277.099V76H275.509ZM279.198 76V68.56H280.608L280.728 69.865C280.958 69.405 281.293 69.045 281.733 68.785C282.183 68.515 282.698 68.38 283.278 68.38C284.178 68.38 284.883 68.66 285.393 69.22C285.913 69.78 286.173 70.615 286.173 71.725V76H284.598V71.89C284.598 70.45 284.008 69.73 282.828 69.73C282.238 69.73 281.748 69.94 281.358 70.36C280.978 70.78 280.788 71.38 280.788 72.16V76H279.198ZM288.046 76V65.2H289.636V71.635L292.486 68.56H294.391L291.226 71.935L294.856 76H292.846L289.636 72.19V76H288.046Z" fill="white"/>
<path opacity="0.5" d="M233.953 98.156C233.06 98.156 232.289 97.961 231.639 97.571C230.998 97.1723 230.499 96.622 230.144 95.92C229.789 95.2093 229.611 94.386 229.611 93.45C229.611 92.5227 229.789 91.708 230.144 91.006C230.499 90.2953 230.998 89.7407 231.639 89.342C232.289 88.9433 233.06 88.744 233.953 88.744C234.993 88.744 235.838 88.9953 236.488 89.498C237.147 89.992 237.567 90.6853 237.749 91.578H236.54C236.401 91.0147 236.115 90.564 235.682 90.226C235.257 89.8793 234.681 89.706 233.953 89.706C233.303 89.706 232.735 89.8577 232.25 90.161C231.765 90.4557 231.388 90.8847 231.119 91.448C230.859 92.0027 230.729 92.67 230.729 93.45C230.729 94.23 230.859 94.9017 231.119 95.465C231.388 96.0197 231.765 96.4487 232.25 96.752C232.735 97.0467 233.303 97.194 233.953 97.194C234.681 97.194 235.257 97.0293 235.682 96.7C236.115 96.362 236.401 95.9157 236.54 95.361H237.749C237.567 96.2363 237.147 96.921 236.488 97.415C235.838 97.909 234.993 98.156 233.953 98.156ZM239.253 98V91.552H240.241L240.332 92.787C240.532 92.3623 240.835 92.0243 241.242 91.773C241.65 91.5217 242.152 91.396 242.75 91.396V92.54H242.451C242.07 92.54 241.719 92.6093 241.398 92.748C241.078 92.878 240.822 93.1033 240.631 93.424C240.441 93.7447 240.345 94.1867 240.345 94.75V98H239.253ZM246.634 98.156C246.019 98.156 245.473 98.0173 244.996 97.74C244.519 97.454 244.142 97.0597 243.865 96.557C243.596 96.0543 243.462 95.4607 243.462 94.776C243.462 94.1 243.596 93.5107 243.865 93.008C244.134 92.4967 244.506 92.1023 244.983 91.825C245.468 91.539 246.027 91.396 246.66 91.396C247.284 91.396 247.821 91.539 248.272 91.825C248.731 92.1023 249.082 92.4707 249.325 92.93C249.568 93.3893 249.689 93.8833 249.689 94.412C249.689 94.5073 249.685 94.6027 249.676 94.698C249.676 94.7933 249.676 94.9017 249.676 95.023H244.541C244.567 95.517 244.68 95.9287 244.879 96.258C245.087 96.5787 245.343 96.8213 245.646 96.986C245.958 97.1507 246.287 97.233 246.634 97.233C247.085 97.233 247.462 97.129 247.765 96.921C248.068 96.713 248.289 96.4313 248.428 96.076H249.507C249.334 96.674 249 97.1723 248.506 97.571C248.021 97.961 247.397 98.156 246.634 98.156ZM246.634 92.319C246.114 92.319 245.65 92.4793 245.243 92.8C244.844 93.112 244.615 93.5713 244.554 94.178H248.61C248.584 93.5973 248.385 93.1423 248.012 92.813C247.639 92.4837 247.18 92.319 246.634 92.319ZM254.061 98.156C253.42 98.156 252.857 98.0087 252.371 97.714C251.895 97.4193 251.522 97.0163 251.253 96.505C250.993 95.9937 250.863 95.413 250.863 94.763C250.863 94.113 250.998 93.5367 251.266 93.034C251.535 92.5227 251.908 92.124 252.384 91.838C252.861 91.5433 253.424 91.396 254.074 91.396C254.603 91.396 255.071 91.5043 255.478 91.721C255.886 91.9377 256.202 92.241 256.427 92.631V88.64H257.519V98H256.531L256.427 96.934C256.219 97.246 255.92 97.5277 255.53 97.779C255.14 98.0303 254.651 98.156 254.061 98.156ZM254.178 97.207C254.612 97.207 254.993 97.1073 255.322 96.908C255.66 96.7 255.92 96.414 256.102 96.05C256.293 95.686 256.388 95.2613 256.388 94.776C256.388 94.2907 256.293 93.866 256.102 93.502C255.92 93.138 255.66 92.8563 255.322 92.657C254.993 92.449 254.612 92.345 254.178 92.345C253.754 92.345 253.372 92.449 253.034 92.657C252.705 92.8563 252.445 93.138 252.254 93.502C252.072 93.866 251.981 94.2907 251.981 94.776C251.981 95.2613 252.072 95.686 252.254 96.05C252.445 96.414 252.705 96.7 253.034 96.908C253.372 97.1073 253.754 97.207 254.178 97.207ZM259.962 90.122C259.746 90.122 259.564 90.0527 259.416 89.914C259.278 89.7667 259.208 89.5847 259.208 89.368C259.208 89.16 259.278 88.9867 259.416 88.848C259.564 88.7093 259.746 88.64 259.962 88.64C260.17 88.64 260.348 88.7093 260.495 88.848C260.643 88.9867 260.716 89.16 260.716 89.368C260.716 89.5847 260.643 89.7667 260.495 89.914C260.348 90.0527 260.17 90.122 259.962 90.122ZM259.416 98V91.552H260.508V98H259.416ZM264.958 98C264.368 98 263.905 97.857 263.567 97.571C263.229 97.285 263.06 96.7693 263.06 96.024V92.475H261.942V91.552H263.06L263.203 90.005H264.152V91.552H266.05V92.475H264.152V96.024C264.152 96.4313 264.234 96.7087 264.399 96.856C264.563 96.9947 264.854 97.064 265.27 97.064H265.946V98H264.958ZM270.942 98V88.9H272.034V97.129H276.272V98H270.942ZM278.371 90.122C278.154 90.122 277.972 90.0527 277.825 89.914C277.686 89.7667 277.617 89.5847 277.617 89.368C277.617 89.16 277.686 88.9867 277.825 88.848C277.972 88.7093 278.154 88.64 278.371 88.64C278.579 88.64 278.756 88.7093 278.904 88.848C279.051 88.9867 279.125 89.16 279.125 89.368C279.125 89.5847 279.051 89.7667 278.904 89.914C278.756 90.0527 278.579 90.122 278.371 90.122ZM277.825 98V91.552H278.917V98H277.825ZM280.818 98V91.552H281.806L281.871 92.709C282.079 92.3017 282.378 91.981 282.768 91.747C283.158 91.513 283.6 91.396 284.094 91.396C284.857 91.396 285.463 91.63 285.914 92.098C286.373 92.5573 286.603 93.268 286.603 94.23V98H285.511V94.347C285.511 93.0037 284.956 92.332 283.847 92.332C283.292 92.332 282.829 92.5357 282.456 92.943C282.092 93.3417 281.91 93.9137 281.91 94.659V98H280.818ZM291.156 98.156C290.541 98.156 289.995 98.0173 289.518 97.74C289.042 97.454 288.665 97.0597 288.387 96.557C288.119 96.0543 287.984 95.4607 287.984 94.776C287.984 94.1 288.119 93.5107 288.387 93.008C288.656 92.4967 289.029 92.1023 289.505 91.825C289.991 91.539 290.55 91.396 291.182 91.396C291.806 91.396 292.344 91.539 292.794 91.825C293.254 92.1023 293.605 92.4707 293.847 92.93C294.09 93.3893 294.211 93.8833 294.211 94.412C294.211 94.5073 294.207 94.6027 294.198 94.698C294.198 94.7933 294.198 94.9017 294.198 95.023H289.063C289.089 95.517 289.202 95.9287 289.401 96.258C289.609 96.5787 289.865 96.8213 290.168 96.986C290.48 97.1507 290.81 97.233 291.156 97.233C291.607 97.233 291.984 97.129 292.287 96.921C292.591 96.713 292.812 96.4313 292.95 96.076H294.029C293.856 96.674 293.522 97.1723 293.028 97.571C292.543 97.961 291.919 98.156 291.156 98.156ZM291.156 92.319C290.636 92.319 290.173 92.4793 289.765 92.8C289.367 93.112 289.137 93.5713 289.076 94.178H293.132C293.106 93.5973 292.907 93.1423 292.534 92.813C292.162 92.4837 291.702 92.319 291.156 92.319Z" fill="white"/>
<path d="M263 0L258.979 2.32111L248.021 8.6789L244 11V33L248.021 35.3211L259.079 41.6789L263.1 44L267.122 41.6789L277.979 35.3211L282 33V11L277.979 8.6789L267.021 2.32111L263 0ZM252.042 28.3578V15.6422L263 9.2844L273.958 15.6422V28.3578L263 34.7156L252.042 28.3578Z" fill="white"/>
<path d="M91.065 206V195.5H94.47C95.7 195.5 96.71 195.715 97.5 196.145C98.3 196.575 98.89 197.185 99.27 197.975C99.66 198.755 99.855 199.685 99.855 200.765C99.855 201.835 99.66 202.765 99.27 203.555C98.89 204.335 98.3 204.94 97.5 205.37C96.71 205.79 95.7 206 94.47 206H91.065ZM92.655 204.65H94.41C95.36 204.65 96.11 204.495 96.66 204.185C97.22 203.875 97.62 203.43 97.86 202.85C98.11 202.27 98.235 201.575 98.235 200.765C98.235 199.955 98.11 199.255 97.86 198.665C97.62 198.075 97.22 197.625 96.66 197.315C96.11 196.995 95.36 196.835 94.41 196.835H92.655V204.65ZM104.072 206.18C103.442 206.18 102.922 206.075 102.512 205.865C102.102 205.655 101.797 205.38 101.597 205.04C101.397 204.69 101.297 204.31 101.297 203.9C101.297 203.18 101.577 202.61 102.137 202.19C102.697 201.77 103.497 201.56 104.537 201.56H106.487V201.425C106.487 200.845 106.327 200.41 106.007 200.12C105.697 199.83 105.292 199.685 104.792 199.685C104.352 199.685 103.967 199.795 103.637 200.015C103.317 200.225 103.122 200.54 103.052 200.96H101.462C101.512 200.42 101.692 199.96 102.002 199.58C102.322 199.19 102.722 198.895 103.202 198.695C103.692 198.485 104.227 198.38 104.807 198.38C105.847 198.38 106.652 198.655 107.222 199.205C107.792 199.745 108.077 200.485 108.077 201.425V206H106.697L106.562 204.725C106.352 205.135 106.047 205.48 105.647 205.76C105.247 206.04 104.722 206.18 104.072 206.18ZM104.387 204.89C104.817 204.89 105.177 204.79 105.467 204.59C105.767 204.38 105.997 204.105 106.157 203.765C106.327 203.425 106.432 203.05 106.472 202.64H104.702C104.072 202.64 103.622 202.75 103.352 202.97C103.092 203.19 102.962 203.465 102.962 203.795C102.962 204.135 103.087 204.405 103.337 204.605C103.597 204.795 103.947 204.89 104.387 204.89ZM110.831 197.15C110.531 197.15 110.281 197.06 110.081 196.88C109.891 196.69 109.796 196.455 109.796 196.175C109.796 195.895 109.891 195.665 110.081 195.485C110.281 195.295 110.531 195.2 110.831 195.2C111.131 195.2 111.376 195.295 111.566 195.485C111.766 195.665 111.866 195.895 111.866 196.175C111.866 196.455 111.766 196.69 111.566 196.88C111.376 197.06 111.131 197.15 110.831 197.15ZM110.036 206V198.56H111.626V206H110.036Z" fill="white"/>
<path opacity="0.5" d="M71.953 228.156C71.0603 228.156 70.289 227.961 69.639 227.571C68.9977 227.172 68.4993 226.622 68.144 225.92C67.7887 225.209 67.611 224.386 67.611 223.45C67.611 222.523 67.7887 221.708 68.144 221.006C68.4993 220.295 68.9977 219.741 69.639 219.342C70.289 218.943 71.0603 218.744 71.953 218.744C72.993 218.744 73.838 218.995 74.488 219.498C75.1467 219.992 75.567 220.685 75.749 221.578H74.54C74.4013 221.015 74.1153 220.564 73.682 220.226C73.2573 219.879 72.681 219.706 71.953 219.706C71.303 219.706 70.7353 219.858 70.25 220.161C69.7647 220.456 69.3877 220.885 69.119 221.448C68.859 222.003 68.729 222.67 68.729 223.45C68.729 224.23 68.859 224.902 69.119 225.465C69.3877 226.02 69.7647 226.449 70.25 226.752C70.7353 227.047 71.303 227.194 71.953 227.194C72.681 227.194 73.2573 227.029 73.682 226.7C74.1153 226.362 74.4013 225.916 74.54 225.361H75.749C75.567 226.236 75.1467 226.921 74.488 227.415C73.838 227.909 72.993 228.156 71.953 228.156ZM77.2534 228V221.552H78.2414L78.3324 222.787C78.5318 222.362 78.8351 222.024 79.2424 221.773C79.6498 221.522 80.1524 221.396 80.7504 221.396V222.54H80.4514C80.0701 222.54 79.7191 222.609 79.3984 222.748C79.0778 222.878 78.8221 223.103 78.6314 223.424C78.4408 223.745 78.3454 224.187 78.3454 224.75V228H77.2534ZM84.6339 228.156C84.0186 228.156 83.4726 228.017 82.9959 227.74C82.5192 227.454 82.1422 227.06 81.8649 226.557C81.5962 226.054 81.4619 225.461 81.4619 224.776C81.4619 224.1 81.5962 223.511 81.8649 223.008C82.1336 222.497 82.5062 222.102 82.9829 221.825C83.4682 221.539 84.0272 221.396 84.6599 221.396C85.2839 221.396 85.8212 221.539 86.2719 221.825C86.7312 222.102 87.0822 222.471 87.3249 222.93C87.5676 223.389 87.6889 223.883 87.6889 224.412C87.6889 224.507 87.6846 224.603 87.6759 224.698C87.6759 224.793 87.6759 224.902 87.6759 225.023H82.5409C82.5669 225.517 82.6796 225.929 82.8789 226.258C83.0869 226.579 83.3426 226.821 83.6459 226.986C83.9579 227.151 84.2872 227.233 84.6339 227.233C85.0846 227.233 85.4616 227.129 85.7649 226.921C86.0682 226.713 86.2892 226.431 86.4279 226.076H87.5069C87.3336 226.674 86.9999 227.172 86.5059 227.571C86.0206 227.961 85.3966 228.156 84.6339 228.156ZM84.6339 222.319C84.1139 222.319 83.6502 222.479 83.2429 222.8C82.8442 223.112 82.6146 223.571 82.5539 224.178H86.6099C86.5839 223.597 86.3846 223.142 86.0119 222.813C85.6392 222.484 85.1799 222.319 84.6339 222.319ZM92.0613 228.156C91.4199 228.156 90.8566 228.009 90.3713 227.714C89.8946 227.419 89.5219 227.016 89.2533 226.505C88.9933 225.994 88.8633 225.413 88.8633 224.763C88.8633 224.113 88.9976 223.537 89.2663 223.034C89.5349 222.523 89.9076 222.124 90.3843 221.838C90.8609 221.543 91.4243 221.396 92.0743 221.396C92.6029 221.396 93.0709 221.504 93.4783 221.721C93.8856 221.938 94.2019 222.241 94.4273 222.631V218.64H95.5193V228H94.5313L94.4273 226.934C94.2193 227.246 93.9203 227.528 93.5303 227.779C93.1403 228.03 92.6506 228.156 92.0613 228.156ZM92.1783 227.207C92.6116 227.207 92.9929 227.107 93.3223 226.908C93.6603 226.7 93.9203 226.414 94.1023 226.05C94.2929 225.686 94.3883 225.261 94.3883 224.776C94.3883 224.291 94.2929 223.866 94.1023 223.502C93.9203 223.138 93.6603 222.856 93.3223 222.657C92.9929 222.449 92.6116 222.345 92.1783 222.345C91.7536 222.345 91.3723 222.449 91.0343 222.657C90.7049 222.856 90.4449 223.138 90.2543 223.502C90.0723 223.866 89.9813 224.291 89.9813 224.776C89.9813 225.261 90.0723 225.686 90.2543 226.05C90.4449 226.414 90.7049 226.7 91.0343 226.908C91.3723 227.107 91.7536 227.207 92.1783 227.207ZM97.9623 220.122C97.7457 220.122 97.5637 220.053 97.4163 219.914C97.2777 219.767 97.2083 219.585 97.2083 219.368C97.2083 219.16 97.2777 218.987 97.4163 218.848C97.5637 218.709 97.7457 218.64 97.9623 218.64C98.1703 218.64 98.348 218.709 98.4953 218.848C98.6427 218.987 98.7163 219.16 98.7163 219.368C98.7163 219.585 98.6427 219.767 98.4953 219.914C98.348 220.053 98.1703 220.122 97.9623 220.122ZM97.4163 228V221.552H98.5083V228H97.4163ZM102.958 228C102.368 228 101.905 227.857 101.567 227.571C101.229 227.285 101.06 226.769 101.06 226.024V222.475H99.9417V221.552H101.06L101.203 220.005H102.152V221.552H104.05V222.475H102.152V226.024C102.152 226.431 102.234 226.709 102.399 226.856C102.563 226.995 102.854 227.064 103.27 227.064H103.946V228H102.958ZM108.942 228V218.9H110.034V227.129H114.272V228H108.942ZM116.371 220.122C116.154 220.122 115.972 220.053 115.825 219.914C115.686 219.767 115.617 219.585 115.617 219.368C115.617 219.16 115.686 218.987 115.825 218.848C115.972 218.709 116.154 218.64 116.371 218.64C116.579 218.64 116.756 218.709 116.904 218.848C117.051 218.987 117.125 219.16 117.125 219.368C117.125 219.585 117.051 219.767 116.904 219.914C116.756 220.053 116.579 220.122 116.371 220.122ZM115.825 228V221.552H116.917V228H115.825ZM118.818 228V221.552H119.806L119.871 222.709C120.079 222.302 120.378 221.981 120.768 221.747C121.158 221.513 121.6 221.396 122.094 221.396C122.857 221.396 123.463 221.63 123.914 222.098C124.373 222.557 124.603 223.268 124.603 224.23V228H123.511V224.347C123.511 223.004 122.956 222.332 121.847 222.332C121.292 222.332 120.829 222.536 120.456 222.943C120.092 223.342 119.91 223.914 119.91 224.659V228H118.818ZM129.156 228.156C128.541 228.156 127.995 228.017 127.518 227.74C127.042 227.454 126.665 227.06 126.387 226.557C126.119 226.054 125.984 225.461 125.984 224.776C125.984 224.1 126.119 223.511 126.387 223.008C126.656 222.497 127.029 222.102 127.505 221.825C127.991 221.539 128.55 221.396 129.182 221.396C129.806 221.396 130.344 221.539 130.794 221.825C131.254 222.102 131.605 222.471 131.847 222.93C132.09 223.389 132.211 223.883 132.211 224.412C132.211 224.507 132.207 224.603 132.198 224.698C132.198 224.793 132.198 224.902 132.198 225.023H127.063C127.089 225.517 127.202 225.929 127.401 226.258C127.609 226.579 127.865 226.821 128.168 226.986C128.48 227.151 128.81 227.233 129.156 227.233C129.607 227.233 129.984 227.129 130.287 226.921C130.591 226.713 130.812 226.431 130.95 226.076H132.029C131.856 226.674 131.522 227.172 131.028 227.571C130.543 227.961 129.919 228.156 129.156 228.156ZM129.156 222.319C128.636 222.319 128.173 222.479 127.765 222.8C127.367 223.112 127.137 223.571 127.076 224.178H131.132C131.106 223.597 130.907 223.142 130.534 222.813C130.162 222.484 129.702 222.319 129.156 222.319Z" fill="white"/>
<path d="M86.3668 170.743V170.622C86.3668 169.042 86.3668 167.463 86.3668 165.904C86.3668 165.378 86.3668 164.831 86.3668 164.305V159.547C86.3668 159.283 86.3668 159.243 86.0413 159.243H81.6271C81.3829 159.243 81.2812 159.243 81.2812 158.919C81.2812 157.644 81.2812 156.348 81.2812 155.072H86.0006C86.2651 155.072 86.3668 155.072 86.3668 154.728C86.3668 153.452 86.3668 152.197 86.3668 150.921C86.3668 150.679 86.3668 150.618 86.0413 150.618H81.6271C81.3829 150.618 81.2812 150.618 81.2812 150.294C81.2812 149.12 81.2812 147.925 81.2812 146.73C81.2812 146.508 81.2812 146.447 81.6067 146.447C83.051 146.447 84.5157 146.447 85.9803 146.447C86.2854 146.447 86.3668 146.447 86.3668 146.062V135.149C86.3668 134.825 86.3668 134.744 86.7736 134.744H102.03C103.129 134.785 104.247 134.906 105.326 135.109C107.563 135.514 109.72 136.323 111.693 137.457C112.995 138.227 114.195 139.138 115.273 140.211C116.066 141.041 116.799 141.952 117.45 142.904C118.101 143.875 118.629 144.908 119.036 146.001C119.097 146.285 119.362 146.467 119.646 146.427C120.847 146.427 122.067 146.427 123.288 146.427C123.756 146.427 123.756 146.427 123.776 146.872V150.193C123.776 150.517 123.654 150.598 123.328 150.598H120.521C120.237 150.598 120.155 150.598 120.176 150.962C120.277 152.197 120.277 153.432 120.176 154.667C120.176 155.011 120.176 155.052 120.562 155.052H123.776C123.776 155.052 123.776 157.947 123.776 158.757C123.776 159.101 123.674 159.202 123.369 159.202C122.088 159.202 120.806 159.202 119.525 159.202C119.26 159.162 118.996 159.324 118.935 159.587C118.019 161.956 116.555 164.082 114.663 165.783C113.971 166.41 113.279 167.018 112.486 167.524C111.693 168.03 110.879 168.476 110.045 168.86C108.499 169.549 106.892 170.055 105.244 170.379C103.678 170.662 102.071 170.784 100.484 170.764H86.3668V170.743ZM114.459 159.263H113.422H90.8623C90.5573 159.263 90.4556 159.263 90.4556 159.668C90.4556 162.017 90.4556 164.345 90.4556 166.694C90.4556 167.018 90.4556 167.099 90.8623 167.099H101.278C101.827 167.099 102.539 167.058 103.047 166.998C104.593 166.775 105.773 166.552 107.177 166.026C107.685 165.844 108.723 165.378 108.804 165.337C111.245 164.082 113.219 162.078 114.48 159.648C114.48 159.648 114.622 159.344 114.459 159.263ZM114.459 146.103C114.256 145.657 114.012 145.232 113.727 144.827C113.3 144.139 112.791 143.511 112.222 142.944C111.957 142.6 111.632 142.296 111.286 142.033C109.516 140.535 107.441 139.482 105.183 138.956C104.044 138.692 102.885 138.571 101.725 138.591C98.0839 138.591 94.4426 138.591 90.8013 138.591C90.4963 138.591 90.4556 138.713 90.4556 138.976C90.4556 141.365 90.4556 143.774 90.4556 146.163C90.4556 146.467 90.4556 146.548 90.842 146.548H114.317C114.317 146.548 114.581 146.548 114.561 146.386C114.561 146.386 114.5 146.184 114.459 146.103ZM103.068 155.052H115.436C115.7 155.052 115.822 155.052 115.843 154.708C115.944 153.452 115.944 152.197 115.843 150.942C115.843 150.699 115.721 150.598 115.456 150.598H90.842C90.537 150.598 90.4556 150.699 90.4556 150.982V154.586C90.4556 155.052 90.4556 155.052 90.9437 155.052H103.068Z" fill="#FEFEFD"/>
<path d="M179.065 206V195.5H182.74C183.56 195.5 184.24 195.64 184.78 195.92C185.32 196.19 185.72 196.565 185.98 197.045C186.25 197.515 186.385 198.05 186.385 198.65C186.385 199.22 186.255 199.745 185.995 200.225C185.745 200.695 185.35 201.07 184.81 201.35C184.27 201.63 183.58 201.77 182.74 201.77H180.655V206H179.065ZM180.655 200.465H182.665C183.415 200.465 183.95 200.305 184.27 199.985C184.6 199.655 184.765 199.21 184.765 198.65C184.765 198.07 184.6 197.62 184.27 197.3C183.95 196.97 183.415 196.805 182.665 196.805H180.655V200.465ZM190.966 206.18C190.256 206.18 189.616 206.02 189.046 205.7C188.486 205.37 188.041 204.915 187.711 204.335C187.381 203.745 187.216 203.06 187.216 202.28C187.216 201.5 187.381 200.82 187.711 200.24C188.051 199.65 188.506 199.195 189.076 198.875C189.646 198.545 190.281 198.38 190.981 198.38C191.691 198.38 192.326 198.545 192.886 198.875C193.456 199.195 193.906 199.65 194.236 200.24C194.576 200.82 194.746 201.5 194.746 202.28C194.746 203.06 194.576 203.745 194.236 204.335C193.906 204.915 193.456 205.37 192.886 205.7C192.316 206.02 191.676 206.18 190.966 206.18ZM190.966 204.815C191.346 204.815 191.696 204.72 192.016 204.53C192.346 204.34 192.611 204.06 192.811 203.69C193.011 203.31 193.111 202.84 193.111 202.28C193.111 201.72 193.011 201.255 192.811 200.885C192.621 200.505 192.361 200.22 192.031 200.03C191.711 199.84 191.361 199.745 190.981 199.745C190.601 199.745 190.246 199.84 189.916 200.03C189.596 200.22 189.336 200.505 189.136 200.885C188.936 201.255 188.836 201.72 188.836 202.28C188.836 202.84 188.936 203.31 189.136 203.69C189.336 204.06 189.596 204.34 189.916 204.53C190.236 204.72 190.586 204.815 190.966 204.815ZM196.466 206V195.2H198.056V206H196.466ZM200.069 206V195.2H201.659V201.635L204.509 198.56H206.414L203.249 201.935L206.879 206H204.869L201.659 202.19V206H200.069ZM210.47 206.18C209.84 206.18 209.32 206.075 208.91 205.865C208.5 205.655 208.195 205.38 207.995 205.04C207.795 204.69 207.695 204.31 207.695 203.9C207.695 203.18 207.975 202.61 208.535 202.19C209.095 201.77 209.895 201.56 210.935 201.56H212.885V201.425C212.885 200.845 212.725 200.41 212.405 200.12C212.095 199.83 211.69 199.685 211.19 199.685C210.75 199.685 210.365 199.795 210.035 200.015C209.715 200.225 209.52 200.54 209.45 200.96H207.86C207.91 200.42 208.09 199.96 208.4 199.58C208.72 199.19 209.12 198.895 209.6 198.695C210.09 198.485 210.625 198.38 211.205 198.38C212.245 198.38 213.05 198.655 213.62 199.205C214.19 199.745 214.475 200.485 214.475 201.425V206H213.095L212.96 204.725C212.75 205.135 212.445 205.48 212.045 205.76C211.645 206.04 211.12 206.18 210.47 206.18ZM210.785 204.89C211.215 204.89 211.575 204.79 211.865 204.59C212.165 204.38 212.395 204.105 212.555 203.765C212.725 203.425 212.83 203.05 212.87 202.64H211.1C210.47 202.64 210.02 202.75 209.75 202.97C209.49 203.19 209.36 203.465 209.36 203.795C209.36 204.135 209.485 204.405 209.735 204.605C209.995 204.795 210.345 204.89 210.785 204.89ZM219.719 206.18C218.999 206.18 218.364 206.01 217.814 205.67C217.264 205.33 216.834 204.865 216.524 204.275C216.214 203.685 216.059 203.015 216.059 202.265C216.059 201.515 216.214 200.85 216.524 200.27C216.834 199.68 217.264 199.22 217.814 198.89C218.374 198.55 219.014 198.38 219.734 198.38C220.324 198.38 220.839 198.495 221.279 198.725C221.729 198.955 222.079 199.28 222.329 199.7V195.2H223.919V206H222.494L222.329 204.845C222.089 205.195 221.759 205.505 221.339 205.775C220.919 206.045 220.379 206.18 219.719 206.18ZM220.004 204.8C220.684 204.8 221.239 204.565 221.669 204.095C222.109 203.625 222.329 203.02 222.329 202.28C222.329 201.53 222.109 200.925 221.669 200.465C221.239 199.995 220.684 199.76 220.004 199.76C219.324 199.76 218.764 199.995 218.324 200.465C217.884 200.925 217.664 201.53 217.664 202.28C217.664 202.77 217.764 203.205 217.964 203.585C218.164 203.965 218.439 204.265 218.789 204.485C219.149 204.695 219.554 204.8 220.004 204.8ZM229.404 206.18C228.694 206.18 228.054 206.02 227.484 205.7C226.924 205.37 226.479 204.915 226.149 204.335C225.819 203.745 225.654 203.06 225.654 202.28C225.654 201.5 225.819 200.82 226.149 200.24C226.489 199.65 226.944 199.195 227.514 198.875C228.084 198.545 228.719 198.38 229.419 198.38C230.129 198.38 230.764 198.545 231.324 198.875C231.894 199.195 232.344 199.65 232.674 200.24C233.014 200.82 233.184 201.5 233.184 202.28C233.184 203.06 233.014 203.745 232.674 204.335C232.344 204.915 231.894 205.37 231.324 205.7C230.754 206.02 230.114 206.18 229.404 206.18ZM229.404 204.815C229.784 204.815 230.134 204.72 230.454 204.53C230.784 204.34 231.049 204.06 231.249 203.69C231.449 203.31 231.549 202.84 231.549 202.28C231.549 201.72 231.449 201.255 231.249 200.885C231.059 200.505 230.799 200.22 230.469 200.03C230.149 199.84 229.799 199.745 229.419 199.745C229.039 199.745 228.684 199.84 228.354 200.03C228.034 200.22 227.774 200.505 227.574 200.885C227.374 201.255 227.274 201.72 227.274 202.28C227.274 202.84 227.374 203.31 227.574 203.69C227.774 204.06 228.034 204.34 228.354 204.53C228.674 204.72 229.024 204.815 229.404 204.815ZM237.73 206C237 206 236.42 205.825 235.99 205.475C235.56 205.115 235.345 204.48 235.345 203.57V199.895H234.07V198.56H235.345L235.54 196.67H236.935V198.56H239.035V199.895H236.935V203.57C236.935 203.98 237.02 204.265 237.19 204.425C237.37 204.575 237.675 204.65 238.105 204.65H238.96V206H237.73Z" fill="white"/>
<path opacity="0.5" d="M179.953 228.156C179.06 228.156 178.289 227.961 177.639 227.571C176.998 227.172 176.499 226.622 176.144 225.92C175.789 225.209 175.611 224.386 175.611 223.45C175.611 222.523 175.789 221.708 176.144 221.006C176.499 220.295 176.998 219.741 177.639 219.342C178.289 218.943 179.06 218.744 179.953 218.744C180.993 218.744 181.838 218.995 182.488 219.498C183.147 219.992 183.567 220.685 183.749 221.578H182.54C182.401 221.015 182.115 220.564 181.682 220.226C181.257 219.879 180.681 219.706 179.953 219.706C179.303 219.706 178.735 219.858 178.25 220.161C177.765 220.456 177.388 220.885 177.119 221.448C176.859 222.003 176.729 222.67 176.729 223.45C176.729 224.23 176.859 224.902 177.119 225.465C177.388 226.02 177.765 226.449 178.25 226.752C178.735 227.047 179.303 227.194 179.953 227.194C180.681 227.194 181.257 227.029 181.682 226.7C182.115 226.362 182.401 225.916 182.54 225.361H183.749C183.567 226.236 183.147 226.921 182.488 227.415C181.838 227.909 180.993 228.156 179.953 228.156ZM185.253 228V221.552H186.241L186.332 222.787C186.532 222.362 186.835 222.024 187.242 221.773C187.65 221.522 188.152 221.396 188.75 221.396V222.54H188.451C188.07 222.54 187.719 222.609 187.398 222.748C187.078 222.878 186.822 223.103 186.631 223.424C186.441 223.745 186.345 224.187 186.345 224.75V228H185.253ZM192.634 228.156C192.019 228.156 191.473 228.017 190.996 227.74C190.519 227.454 190.142 227.06 189.865 226.557C189.596 226.054 189.462 225.461 189.462 224.776C189.462 224.1 189.596 223.511 189.865 223.008C190.134 222.497 190.506 222.102 190.983 221.825C191.468 221.539 192.027 221.396 192.66 221.396C193.284 221.396 193.821 221.539 194.272 221.825C194.731 222.102 195.082 222.471 195.325 222.93C195.568 223.389 195.689 223.883 195.689 224.412C195.689 224.507 195.685 224.603 195.676 224.698C195.676 224.793 195.676 224.902 195.676 225.023H190.541C190.567 225.517 190.68 225.929 190.879 226.258C191.087 226.579 191.343 226.821 191.646 226.986C191.958 227.151 192.287 227.233 192.634 227.233C193.085 227.233 193.462 227.129 193.765 226.921C194.068 226.713 194.289 226.431 194.428 226.076H195.507C195.334 226.674 195 227.172 194.506 227.571C194.021 227.961 193.397 228.156 192.634 228.156ZM192.634 222.319C192.114 222.319 191.65 222.479 191.243 222.8C190.844 223.112 190.615 223.571 190.554 224.178H194.61C194.584 223.597 194.385 223.142 194.012 222.813C193.639 222.484 193.18 222.319 192.634 222.319ZM200.061 228.156C199.42 228.156 198.857 228.009 198.371 227.714C197.895 227.419 197.522 227.016 197.253 226.505C196.993 225.994 196.863 225.413 196.863 224.763C196.863 224.113 196.998 223.537 197.266 223.034C197.535 222.523 197.908 222.124 198.384 221.838C198.861 221.543 199.424 221.396 200.074 221.396C200.603 221.396 201.071 221.504 201.478 221.721C201.886 221.938 202.202 222.241 202.427 222.631V218.64H203.519V228H202.531L202.427 226.934C202.219 227.246 201.92 227.528 201.53 227.779C201.14 228.03 200.651 228.156 200.061 228.156ZM200.178 227.207C200.612 227.207 200.993 227.107 201.322 226.908C201.66 226.7 201.92 226.414 202.102 226.05C202.293 225.686 202.388 225.261 202.388 224.776C202.388 224.291 202.293 223.866 202.102 223.502C201.92 223.138 201.66 222.856 201.322 222.657C200.993 222.449 200.612 222.345 200.178 222.345C199.754 222.345 199.372 222.449 199.034 222.657C198.705 222.856 198.445 223.138 198.254 223.502C198.072 223.866 197.981 224.291 197.981 224.776C197.981 225.261 198.072 225.686 198.254 226.05C198.445 226.414 198.705 226.7 199.034 226.908C199.372 227.107 199.754 227.207 200.178 227.207ZM205.962 220.122C205.746 220.122 205.564 220.053 205.416 219.914C205.278 219.767 205.208 219.585 205.208 219.368C205.208 219.16 205.278 218.987 205.416 218.848C205.564 218.709 205.746 218.64 205.962 218.64C206.17 218.64 206.348 218.709 206.495 218.848C206.643 218.987 206.716 219.16 206.716 219.368C206.716 219.585 206.643 219.767 206.495 219.914C206.348 220.053 206.17 220.122 205.962 220.122ZM205.416 228V221.552H206.508V228H205.416ZM210.958 228C210.368 228 209.905 227.857 209.567 227.571C209.229 227.285 209.06 226.769 209.06 226.024V222.475H207.942V221.552H209.06L209.203 220.005H210.152V221.552H212.05V222.475H210.152V226.024C210.152 226.431 210.234 226.709 210.399 226.856C210.563 226.995 210.854 227.064 211.27 227.064H211.946V228H210.958ZM216.942 228V218.9H218.034V227.129H222.272V228H216.942ZM224.371 220.122C224.154 220.122 223.972 220.053 223.825 219.914C223.686 219.767 223.617 219.585 223.617 219.368C223.617 219.16 223.686 218.987 223.825 218.848C223.972 218.709 224.154 218.64 224.371 218.64C224.579 218.64 224.756 218.709 224.904 218.848C225.051 218.987 225.125 219.16 225.125 219.368C225.125 219.585 225.051 219.767 224.904 219.914C224.756 220.053 224.579 220.122 224.371 220.122ZM223.825 228V221.552H224.917V228H223.825ZM226.818 228V221.552H227.806L227.871 222.709C228.079 222.302 228.378 221.981 228.768 221.747C229.158 221.513 229.6 221.396 230.094 221.396C230.857 221.396 231.463 221.63 231.914 222.098C232.373 222.557 232.603 223.268 232.603 224.23V228H231.511V224.347C231.511 223.004 230.956 222.332 229.847 222.332C229.292 222.332 228.829 222.536 228.456 222.943C228.092 223.342 227.91 223.914 227.91 224.659V228H226.818ZM237.156 228.156C236.541 228.156 235.995 228.017 235.518 227.74C235.042 227.454 234.665 227.06 234.387 226.557C234.119 226.054 233.984 225.461 233.984 224.776C233.984 224.1 234.119 223.511 234.387 223.008C234.656 222.497 235.029 222.102 235.505 221.825C235.991 221.539 236.55 221.396 237.182 221.396C237.806 221.396 238.344 221.539 238.794 221.825C239.254 222.102 239.605 222.471 239.847 222.93C240.09 223.389 240.211 223.883 240.211 224.412C240.211 224.507 240.207 224.603 240.198 224.698C240.198 224.793 240.198 224.902 240.198 225.023H235.063C235.089 225.517 235.202 225.929 235.401 226.258C235.609 226.579 235.865 226.821 236.168 226.986C236.48 227.151 236.81 227.233 237.156 227.233C237.607 227.233 237.984 227.129 238.287 226.921C238.591 226.713 238.812 226.431 238.95 226.076H240.029C239.856 226.674 239.522 227.172 239.028 227.571C238.543 227.961 237.919 228.156 237.156 228.156ZM237.156 222.319C236.636 222.319 236.173 222.479 235.765 222.8C235.367 223.112 235.137 223.571 235.076 224.178H239.132C239.106 223.597 238.907 223.142 238.534 222.813C238.162 222.484 237.702 222.319 237.156 222.319Z" fill="white"/>
<path d="M211.136 131C206.596 131.017 202.248 132.856 199.038 136.115C195.828 139.374 194.017 143.789 194 148.398C194 150.32 194.305 152.229 194.903 154.052C195.118 154.649 195.549 155.14 196.109 155.424C196.669 155.708 197.314 155.764 197.913 155.58C198.494 155.356 198.969 154.915 199.241 154.347C199.513 153.779 199.561 153.127 199.375 152.524C198.866 151.106 198.64 149.6 198.709 148.093C198.78 145.659 199.546 143.299 200.915 141.301C202.283 139.302 204.195 137.75 206.416 136.834C208.638 135.919 211.074 135.679 213.427 136.144C215.781 136.609 217.95 137.759 219.672 139.454C221.393 141.148 222.592 143.314 223.122 145.689C223.652 148.063 223.491 150.542 222.658 152.825C221.826 155.108 220.357 157.096 218.431 158.546C216.506 159.996 214.206 160.847 211.813 160.994C211.813 160.994 209.416 161.147 208.212 161.3C207.77 161.363 207.332 161.45 206.9 161.562C206.869 161.585 206.831 161.597 206.792 161.594C206.753 161.591 206.717 161.574 206.689 161.546C206.662 161.519 206.645 161.482 206.642 161.442C206.64 161.403 206.651 161.364 206.674 161.332L207.051 159.27L209.308 148.889C209.438 148.271 209.32 147.626 208.982 147.096C208.643 146.566 208.111 146.194 207.502 146.063C206.893 145.931 206.258 146.05 205.736 146.394C205.214 146.738 204.848 147.278 204.718 147.896C204.718 147.896 199.343 173.241 199.343 173.47C199.269 173.776 199.257 174.093 199.308 174.404C199.359 174.715 199.473 175.011 199.641 175.276C199.809 175.541 200.028 175.768 200.286 175.943C200.543 176.119 200.833 176.239 201.138 176.297C201.44 176.37 201.753 176.38 202.059 176.327C202.365 176.274 202.657 176.158 202.918 175.986C203.178 175.815 203.401 175.591 203.574 175.329C203.747 175.068 203.865 174.773 203.922 174.463C203.998 174.157 204.675 170.796 204.675 170.796C204.924 169.558 205.541 168.428 206.443 167.558C207.344 166.687 208.487 166.118 209.717 165.928C210.233 165.851 212.415 165.698 212.415 165.698C216.776 165.289 220.817 163.199 223.706 159.858C226.596 156.516 228.115 152.178 227.952 147.734C227.788 143.291 225.953 139.08 222.826 135.967C219.698 132.855 215.515 131.077 211.136 131Z" fill="white"/>
<path d="M216.645 171.068C216.274 170.992 215.892 170.99 215.521 171.064C215.15 171.138 214.797 171.286 214.482 171.499C214.168 171.712 213.898 171.986 213.688 172.306C213.478 172.625 213.332 172.983 213.259 173.36C213.179 173.737 213.174 174.126 213.245 174.504C213.316 174.883 213.461 175.243 213.672 175.563C213.882 175.884 214.154 176.158 214.471 176.37C214.788 176.582 215.143 176.728 215.516 176.798C215.887 176.884 216.271 176.892 216.644 176.822C217.018 176.751 217.374 176.604 217.69 176.39C218.006 176.175 218.275 175.898 218.482 175.574C218.689 175.25 218.828 174.887 218.892 174.506C219.018 173.75 218.856 172.974 218.439 172.335C218.021 171.696 217.38 171.243 216.645 171.068Z" fill="white"/>
</svg>
