<svg width="35" height="47" viewBox="0 0 35 47" fill="none" xmlns="http://www.w3.org/2000/svg">
<path d="M17.1356 0C12.5962 0.0172516 8.24754 1.85582 5.03767 5.1149C1.8278 8.37398 0.0169912 12.7893 1.17459e-07 17.3983C-0.000218485 19.32 0.304695 21.2291 0.903005 23.0522C1.11783 23.6489 1.54926 24.1395 2.1089 24.4236C2.66854 24.7077 3.314 24.7638 3.91302 24.5803C4.4944 24.356 4.96948 23.9147 5.24121 23.3467C5.51294 22.7787 5.5608 22.1268 5.37503 21.5241C4.86606 20.1063 4.63951 18.6001 4.70853 17.0927C4.77963 14.6593 5.5461 12.2995 6.91461 10.3006C8.28311 8.30165 10.1946 6.74991 12.4162 5.83435C14.6378 4.91879 17.0737 4.67892 19.4272 5.14395C21.7807 5.60899 23.9503 6.75886 25.6716 8.45352C27.3929 10.1482 28.5917 12.3145 29.122 14.6886C29.6523 17.0627 29.4913 19.5422 28.6584 21.825C27.8256 24.1078 26.3569 26.0955 24.4312 27.5459C22.5056 28.9963 20.2061 29.8469 17.8128 29.9941C17.8128 29.9941 15.4156 30.1469 14.2116 30.2997C13.7701 30.3629 13.3323 30.4504 12.9001 30.5616C12.869 30.5853 12.8306 30.5968 12.7919 30.594C12.7532 30.5912 12.7167 30.5743 12.6893 30.5464C12.6619 30.5186 12.6452 30.4816 12.6425 30.4423C12.6397 30.4029 12.651 30.3639 12.6743 30.3324L13.0506 28.2695L15.3081 17.8895C15.4378 17.2714 15.3204 16.6264 14.9817 16.0962C14.643 15.5661 14.1108 15.1942 13.5021 15.0625C12.8934 14.9308 12.2581 15.05 11.7359 15.3939C11.2138 15.7378 10.8475 16.2782 10.7178 16.8962C10.7178 16.8962 5.34278 42.2405 5.34278 42.4697C5.26876 42.7755 5.257 43.0934 5.3082 43.404C5.35941 43.7146 5.4725 44.0113 5.64057 44.2759C5.80863 44.5406 6.02812 44.7676 6.28561 44.9431C6.5431 45.1186 6.83316 45.239 7.13804 45.2967C7.4399 45.3701 7.75331 45.3805 8.05922 45.3271C8.36514 45.2738 8.65718 45.1578 8.91759 44.9863C9.17801 44.8148 9.40136 44.5913 9.57408 44.3294C9.74679 44.0676 9.86527 43.7728 9.9223 43.463C9.99755 43.1574 10.6748 39.7956 10.6748 39.7956C10.9243 38.5582 11.5413 37.4281 12.4428 36.5577C13.3443 35.6873 14.4869 35.1184 15.7166 34.9276C16.2326 34.8512 18.4148 34.6984 18.4148 34.6984C22.7758 34.2891 26.8167 32.199 29.7065 28.8577C32.5963 25.5164 34.1155 21.178 33.9517 16.7344C33.7878 12.2908 31.9534 8.07976 28.8257 4.96719C25.6979 1.85463 21.5145 0.0770662 17.1356 0Z" fill="white"/>
<path d="M22.6429 40.0679C22.2722 39.9916 21.8904 39.9904 21.5193 40.0644C21.1482 40.1385 20.7951 40.2862 20.4805 40.4992C20.1658 40.7122 19.8957 40.9863 19.6856 41.3056C19.4756 41.6249 19.3298 41.9833 19.2566 42.36C19.1769 42.7367 19.1725 43.1257 19.2435 43.5042C19.3145 43.8826 19.4595 44.2428 19.67 44.5633C19.8805 44.8838 20.1521 45.1583 20.4689 45.3704C20.7856 45.5825 21.141 45.728 21.5141 45.7982C21.8847 45.8838 22.2687 45.8917 22.6424 45.8215C23.0162 45.7513 23.3719 45.6045 23.6879 45.3899C24.0038 45.1754 24.2733 44.8977 24.48 44.5737C24.6866 44.2498 24.826 43.8865 24.8896 43.5061C25.0163 42.7503 24.8544 41.9739 24.437 41.3351C24.0195 40.6963 23.3779 40.2431 22.6429 40.0679Z" fill="white"/>
</svg>
