<svg width="40" height="60" viewBox="0 0 40 60" fill="none" xmlns="http://www.w3.org/2000/svg">
<path d="M26.1859 25.4527C25.5244 26.2969 24.6837 26.9837 23.7245 27.4633C22.7652 27.9429 21.7114 28.2034 20.6392 28.226H19.3059C16.7809 28.1994 14.362 27.207 12.5459 25.4527V25.4527C5.33253 15.9993 19.9992 2.66602 19.9992 2.66602L26.6659 12.5993C27.9369 14.524 28.574 16.7981 28.488 19.103C28.4019 21.4079 27.5969 23.6282 26.1859 25.4527V25.4527Z" stroke="white" stroke-width="1.83" stroke-miterlimit="10"/>
<path d="M19.9609 12.4004V30.6671" stroke="white" stroke-width="1.83" stroke-miterlimit="10"/>
<path d="M15.0938 19.707L19.9604 24.5737" stroke="white" stroke-width="1.83" stroke-miterlimit="10"/>
<path d="M23.6143 16.0527L19.9609 19.7061" stroke="white" stroke-width="1.83" stroke-miterlimit="10"/>
<path d="M4.158 53.168C3.43933 53.168 2.814 53.0373 2.282 52.776C1.75 52.5147 1.33933 52.1507 1.05 51.684C0.760667 51.2173 0.616 50.676 0.616 50.06L1.848 50.06C1.848 50.4427 1.93667 50.7973 2.114 51.124C2.29133 51.4413 2.548 51.698 2.884 51.894C3.22933 52.0807 3.654 52.174 4.158 52.174C4.82067 52.174 5.334 52.0153 5.698 51.698C6.062 51.3807 6.244 50.984 6.244 50.508C6.244 50.116 6.16 49.8033 5.992 49.57C5.824 49.3273 5.59533 49.1313 5.306 48.982C5.026 48.8327 4.69933 48.702 4.326 48.59C3.962 48.478 3.57933 48.352 3.178 48.212C2.422 47.9507 1.862 47.6287 1.498 47.246C1.134 46.854 0.952 46.3453 0.952 45.72C0.942667 45.1973 1.064 44.7353 1.316 44.334C1.568 43.9233 1.92267 43.606 2.38 43.382C2.84667 43.1487 3.39733 43.032 4.032 43.032C4.65733 43.032 5.19867 43.1487 5.656 43.382C6.12267 43.6153 6.482 43.9373 6.734 44.348C6.99533 44.7587 7.13067 45.2253 7.14 45.748L5.908 45.748C5.908 45.4773 5.838 45.2113 5.698 44.95C5.558 44.6793 5.34333 44.46 5.054 44.292C4.774 44.124 4.41933 44.04 3.99 44.04C3.458 44.0307 3.01933 44.166 2.674 44.446C2.338 44.726 2.17 45.1133 2.17 45.608C2.17 46.028 2.28667 46.35 2.52 46.574C2.76267 46.798 3.09867 46.9847 3.528 47.134C3.95733 47.274 4.452 47.4373 5.012 47.624C5.47867 47.792 5.89867 47.988 6.272 48.212C6.64533 48.436 6.93467 48.7253 7.14 49.08C7.35467 49.4347 7.462 49.8873 7.462 50.438C7.462 50.9047 7.34067 51.348 7.098 51.768C6.85533 52.1787 6.48667 52.5147 5.992 52.776C5.50667 53.0373 4.89533 53.168 4.158 53.168ZM11.1933 53L11.1933 44.166L8.26733 44.166L8.26733 43.2L15.2953 43.2L15.2953 44.166L12.3693 44.166L12.3693 53L11.1933 53ZM15.0079 53L18.6199 43.2L19.8659 43.2L23.4639 53L22.2179 53L21.3219 50.48L17.1499 50.48L16.2399 53L15.0079 53ZM17.4999 49.528L20.9719 49.528L19.2359 44.684L17.4999 49.528ZM24.9208 53L24.9208 43.2L26.0968 43.2L26.0968 47.638L30.1848 43.2L31.6688 43.2L28.0288 47.106L31.7248 53L30.2968 53L27.1888 48.016L26.0968 49.178L26.0968 53L24.9208 53ZM33.0692 53L33.0692 43.2L39.1312 43.2L39.1312 44.166L34.2452 44.166L34.2452 47.582L38.7112 47.582L38.7112 48.534L34.2452 48.534L34.2452 52.034L39.1312 52.034L39.1312 53L33.0692 53Z" fill="white"/>
</svg>
