<svg width="44" height="60" viewBox="0 0 44 60" fill="none" xmlns="http://www.w3.org/2000/svg">
<g opacity="0.5">
<path d="M22 4V28" stroke="white" stroke-width="2" stroke-linecap="round" stroke-linejoin="round"/>
<path d="M18 28H26" stroke="white" stroke-width="2" stroke-linecap="round" stroke-linejoin="round"/>
<path d="M10 6.66602H22H34" stroke="white" stroke-width="2" stroke-linecap="round" stroke-linejoin="round"/>
<path d="M14 6.66602L10 18.666C11.154 19.5315 12.5575 19.9994 14 19.9994C15.4425 19.9994 16.846 19.5315 18 18.666L14 6.66602Z" stroke="white" stroke-width="2" stroke-linecap="round" stroke-linejoin="round"/>
<path d="M30 6.66602L26 18.666C27.154 19.5315 28.5575 19.9994 30 19.9994C31.4425 19.9994 32.846 19.5315 34 18.666L30 6.66602Z" stroke="white" stroke-width="2" stroke-linecap="round" stroke-linejoin="round"/>
<path d="M3.332 53L3.332 44.166L0.406 44.166L0.406 43.2L7.434 43.2L7.434 44.166L4.508 44.166L4.508 53L3.332 53ZM8.86998 53L8.86998 43.2L12.034 43.2C12.7993 43.2 13.4247 43.326 13.91 43.578C14.3953 43.83 14.7547 44.1753 14.988 44.614C15.2213 45.0527 15.338 45.538 15.338 46.07C15.338 46.686 15.17 47.2413 14.834 47.736C14.5073 48.2307 13.994 48.5807 13.294 48.786L15.436 53L14.05 53L12.062 48.954L11.978 48.954L10.046 48.954L10.046 53L8.86998 53ZM10.046 48.03L11.95 48.03C12.706 48.03 13.2567 47.848 13.602 47.484C13.9473 47.12 14.12 46.6533 14.12 46.084C14.12 45.5053 13.9473 45.048 13.602 44.712C13.266 44.3667 12.7107 44.194 11.936 44.194L10.046 44.194L10.046 48.03ZM16.5528 53L20.1648 43.2L21.4108 43.2L25.0088 53L23.7628 53L22.8668 50.48L18.6948 50.48L17.7848 53L16.5528 53ZM19.0448 49.528L22.5168 49.528L20.7808 44.684L19.0448 49.528ZM26.4657 53L26.4657 43.2L29.4757 43.2C31.2024 43.2 32.4717 43.6387 33.2837 44.516C34.105 45.3933 34.5157 46.5973 34.5157 48.128C34.5157 49.6307 34.105 50.8207 33.2837 51.698C32.4717 52.566 31.2024 53 29.4757 53L26.4657 53ZM27.6417 52.02L29.4477 52.02C30.3997 52.02 31.1557 51.866 31.7157 51.558C32.285 51.2407 32.691 50.7927 32.9337 50.214C33.1764 49.626 33.2977 48.9307 33.2977 48.128C33.2977 47.3067 33.1764 46.602 32.9337 46.014C32.691 45.426 32.285 44.9733 31.7157 44.656C31.1557 44.3387 30.3997 44.18 29.4477 44.18L27.6417 44.18L27.6417 52.02ZM36.2137 53L36.2137 43.2L42.2757 43.2L42.2757 44.166L37.3897 44.166L37.3897 47.582L41.8557 47.582L41.8557 48.534L37.3897 48.534L37.3897 52.034L42.2757 52.034L42.2757 53L36.2137 53Z" fill="white"/>
</g>
</svg>
