<svg width="57" height="58" viewBox="0 0 57 58" fill="none" xmlns="http://www.w3.org/2000/svg">
<g opacity="0.5">
<path d="M22.2889 18.5383H18.8904C18.7066 18.5383 18.5576 18.6873 18.5576 18.8711V24.979C18.5576 25.1628 18.7066 25.3118 18.8904 25.3118H22.2889C22.4727 25.3118 22.6217 25.1628 22.6217 24.979V18.8711C22.6217 18.6873 22.4727 18.5383 22.2889 18.5383Z" fill="white"/>
<path d="M27.5623 13.6123H24.1639C23.9801 13.6123 23.8311 13.7613 23.8311 13.9451V24.9795C23.8311 25.1633 23.9801 25.3123 24.1639 25.3123H27.5623C27.7461 25.3123 27.8951 25.1633 27.8951 24.9795V13.9451C27.8951 13.7613 27.7461 13.6123 27.5623 13.6123Z" fill="white"/>
<path d="M32.8357 8.68115H29.4373C29.2535 8.68115 29.1045 8.83016 29.1045 9.01396V24.9796C29.1045 25.1634 29.2535 25.3124 29.4373 25.3124H32.8357C33.0195 25.3124 33.1686 25.1634 33.1686 24.9796V9.01396C33.1686 8.83016 33.0195 8.68115 32.8357 8.68115Z" fill="white"/>
<path d="M38.1092 3.75H34.7107C34.5269 3.75 34.3779 3.89901 34.3779 4.08281V24.9797C34.3779 25.1635 34.5269 25.3125 34.7107 25.3125H38.1092C38.293 25.3125 38.442 25.1635 38.442 24.9797V4.08281C38.442 3.89901 38.293 3.75 38.1092 3.75Z" fill="white"/>
<path d="M39.3281 24.375H17.6719C17.4389 24.375 17.25 24.5639 17.25 24.7969V25.8281C17.25 26.0611 17.4389 26.25 17.6719 26.25H39.3281C39.5611 26.25 39.75 26.0611 39.75 25.8281V24.7969C39.75 24.5639 39.5611 24.375 39.3281 24.375Z" fill="white"/>
<path d="M19.3736 14.9369L18.6411 14.2044C18.6219 14.1853 18.6067 14.1625 18.5963 14.1375C18.586 14.1125 18.5806 14.0856 18.5806 14.0586C18.5806 14.0315 18.586 14.0047 18.5963 13.9796C18.6067 13.9546 18.6219 13.9319 18.6411 13.9127L26.9275 5.62632L27.9517 6.65052L19.6653 14.9369C19.6461 14.9561 19.6234 14.9713 19.5983 14.9816C19.5733 14.992 19.5465 14.9973 19.5194 14.9973C19.4923 14.9973 19.4655 14.992 19.4405 14.9816C19.4155 14.9713 19.3927 14.9561 19.3736 14.9369Z" fill="white"/>
<path d="M28.6688 5.08584L28.2516 7.28428C28.2469 7.31078 28.235 7.33547 28.2172 7.35559C28.1993 7.37572 28.1762 7.39049 28.1505 7.39827C28.1247 7.40604 28.0973 7.40652 28.0713 7.39963C28.0453 7.39275 28.0217 7.37878 28.0031 7.35928L26.2266 5.58272C26.2071 5.56418 26.1931 5.54059 26.1862 5.51458C26.1793 5.48857 26.1798 5.46116 26.1876 5.43541C26.1954 5.40965 26.2101 5.38656 26.2303 5.3687C26.2504 5.35085 26.2751 5.33893 26.3016 5.33428L28.5 4.91709C28.5231 4.91294 28.5468 4.91443 28.5692 4.92144C28.5916 4.92846 28.6119 4.94078 28.6285 4.95736C28.6451 4.97394 28.6574 4.99428 28.6644 5.01665C28.6714 5.03903 28.6729 5.06277 28.6688 5.08584Z" fill="white"/>
<path d="M1.684 51L1.684 39.8L8.5 39.8L8.5 40.904L3.028 40.904L3.028 44.84L7.684 44.84L7.684 45.928L3.028 45.928L3.028 51L1.684 51ZM13.0469 51.192C12.1082 51.192 11.3615 50.9093 10.8069 50.344C10.2522 49.768 9.97487 48.888 9.97487 47.704L9.97487 43.064L11.3189 43.064L11.3189 47.56C11.3189 49.2133 11.9962 50.04 13.3509 50.04C14.0442 50.04 14.6149 49.7947 15.0629 49.304C15.5215 48.8027 15.7509 48.0933 15.7509 47.176L15.7509 43.064L17.0949 43.064L17.0949 51L15.8789 51L15.7829 49.576C15.5375 50.0773 15.1695 50.472 14.6789 50.76C14.1989 51.048 13.6549 51.192 13.0469 51.192ZM22.4431 51C21.7178 51 21.1471 50.824 20.7311 50.472C20.3151 50.12 20.1071 49.4853 20.1071 48.568L20.1071 44.2L18.7311 44.2L18.7311 43.064L20.1071 43.064L20.2831 41.16L21.4511 41.16L21.4511 43.064L23.7871 43.064L23.7871 44.2L21.4511 44.2L21.4511 48.568C21.4511 49.0693 21.5525 49.4107 21.7551 49.592C21.9578 49.7627 22.3151 49.848 22.8271 49.848L23.6591 49.848L23.6591 51L22.4431 51ZM28.3906 51.192C27.452 51.192 26.7053 50.9093 26.1506 50.344C25.596 49.768 25.3186 48.888 25.3186 47.704L25.3186 43.064L26.6626 43.064L26.6626 47.56C26.6626 49.2133 27.34 50.04 28.6946 50.04C29.388 50.04 29.9586 49.7947 30.4066 49.304C30.8653 48.8027 31.0946 48.0933 31.0946 47.176L31.0946 43.064L32.4386 43.064L32.4386 51L31.2226 51L31.1266 49.576C30.8813 50.0773 30.5133 50.472 30.0226 50.76C29.5426 51.048 28.9986 51.192 28.3906 51.192ZM34.6509 51L34.6509 43.064L35.8669 43.064L35.9789 44.584C36.2242 44.0613 36.5975 43.6453 37.0989 43.336C37.6002 43.0267 38.2189 42.872 38.9549 42.872L38.9549 44.28L38.5869 44.28C38.1175 44.28 37.6855 44.3653 37.2909 44.536C36.8962 44.696 36.5815 44.9733 36.3469 45.368C36.1122 45.7627 35.9949 46.3067 35.9949 47L35.9949 51L34.6509 51ZM43.7345 51.192C42.9772 51.192 42.3052 51.0213 41.7185 50.68C41.1318 50.328 40.6678 49.8427 40.3265 49.224C39.9958 48.6053 39.8305 47.8747 39.8305 47.032C39.8305 46.2 39.9958 45.4747 40.3265 44.856C40.6572 44.2267 41.1158 43.7413 41.7025 43.4C42.2998 43.048 42.9878 42.872 43.7665 42.872C44.5345 42.872 45.1958 43.048 45.7505 43.4C46.3158 43.7413 46.7478 44.1947 47.0465 44.76C47.3452 45.3253 47.4945 45.9333 47.4945 46.584C47.4945 46.7013 47.4892 46.8187 47.4785 46.936C47.4785 47.0533 47.4785 47.1867 47.4785 47.336L41.1585 47.336C41.1905 47.944 41.3292 48.4507 41.5745 48.856C41.8305 49.2507 42.1452 49.5493 42.5185 49.752C42.9025 49.9547 43.3078 50.056 43.7345 50.056C44.2892 50.056 44.7532 49.928 45.1265 49.672C45.4998 49.416 45.7718 49.0693 45.9425 48.632L47.2705 48.632C47.0572 49.368 46.6465 49.9813 46.0385 50.472C45.4412 50.952 44.6732 51.192 43.7345 51.192ZM43.7345 44.008C43.0945 44.008 42.5238 44.2053 42.0225 44.6C41.5318 44.984 41.2492 45.5493 41.1745 46.296L46.1665 46.296C46.1345 45.5813 45.8892 45.0213 45.4305 44.616C44.9718 44.2107 44.4065 44.008 43.7345 44.008ZM52.3159 51.192C51.3665 51.192 50.5772 50.952 49.9479 50.472C49.3185 49.992 48.9505 49.3413 48.8439 48.52L50.2199 48.52C50.3052 48.936 50.5239 49.2987 50.8759 49.608C51.2385 49.9067 51.7239 50.056 52.3319 50.056C52.8972 50.056 53.3132 49.9387 53.5799 49.704C53.8465 49.4587 53.9799 49.1707 53.9799 48.84C53.9799 48.36 53.8039 48.04 53.4519 47.88C53.1105 47.72 52.6252 47.576 51.9959 47.448C51.5692 47.3627 51.1425 47.24 50.7159 47.08C50.2892 46.92 49.9319 46.696 49.6439 46.408C49.3559 46.1093 49.2119 45.72 49.2119 45.24C49.2119 44.5467 49.4679 43.9813 49.9799 43.544C50.5025 43.096 51.2065 42.872 52.0919 42.872C52.9345 42.872 53.6225 43.0853 54.1559 43.512C54.6999 43.928 55.0145 44.5253 55.0999 45.304L53.7719 45.304C53.7185 44.8987 53.5425 44.584 53.2439 44.36C52.9559 44.1253 52.5665 44.008 52.0759 44.008C51.5959 44.008 51.2225 44.1093 50.9559 44.312C50.6999 44.5147 50.5719 44.7813 50.5719 45.112C50.5719 45.432 50.7372 45.6827 51.0679 45.864C51.4092 46.0453 51.8679 46.2 52.4439 46.328C52.9345 46.4347 53.3985 46.568 53.8359 46.728C54.2839 46.8773 54.6465 47.1067 54.9239 47.416C55.2119 47.7147 55.3559 48.152 55.3559 48.728C55.3665 49.4427 55.0945 50.0347 54.5399 50.504C53.9959 50.9627 53.2545 51.192 52.3159 51.192Z" fill="white"/>
</g>
</svg>
