<svg width="25" height="24" viewBox="0 0 25 24" fill="none" xmlns="http://www.w3.org/2000/svg">
<path fill-rule="evenodd" clip-rule="evenodd" d="M12.5 23C6.42487 23 1.5 18.0751 1.5 12C1.5 5.92487 6.42487 1 12.5 1C18.5751 1 23.5 5.92487 23.5 12C23.5 18.0751 18.5751 23 12.5 23ZM12.5 21C17.4706 21 21.5 16.9706 21.5 12C21.5 7.02944 17.4706 3 12.5 3C7.52944 3 3.5 7.02944 3.5 12C3.5 16.9706 7.52944 21 12.5 21ZM13.5036 13.9983H14.503V15.9983H10.503V13.9983H11.503V11.9983H10.503V9.99835H13.5036V13.9983ZM12.5003 8.99835C11.9479 8.99835 11.5 8.55063 11.5 7.99835C11.5 7.44606 11.9479 6.99835 12.5003 6.99835C13.0528 6.99835 13.5007 7.44606 13.5007 7.99835C13.5007 8.55063 13.0528 8.99835 12.5003 8.99835Z" fill="white"/>
</svg>
