<svg width="24" height="46" viewBox="0 0 24 46" fill="none" xmlns="http://www.w3.org/2000/svg">
<g opacity="0.8">
<path d="M4.62545 4.05857C6.02241 4.05857 7.34845 3.48255 8.31282 2.50059C9.27733 3.48268 10.6032 4.05857 12.0002 4.05857C13.3974 4.05857 14.7232 3.4828 15.6871 2.50097C16.6515 3.4828 17.9772 4.05857 19.3745 4.05857C21.2232 4.05857 22.9471 3.05 23.8737 1.42661C24.133 0.972134 23.9797 0.390663 23.5311 0.127936C23.0825 -0.134537 22.5085 0.0205896 22.2492 0.47507C21.6571 1.5128 20.5555 2.15751 19.3746 2.15751C18.1934 2.15751 17.0916 1.5128 16.4995 0.47507C16.3317 0.181293 16.0221 0.000184829 15.6871 0.000311567C15.3519 0.000311567 15.0425 0.181419 14.8748 0.475324C14.2831 1.51305 13.1817 2.15751 12.0005 2.15751C10.8197 2.15751 9.7178 1.51267 9.12483 0.47469C8.95708 0.181039 8.64759 0.000184899 8.31282 0.000184899H8.31257C7.97769 0.000184899 7.6682 0.181166 7.50057 0.474943C6.90848 1.51267 5.80687 2.15738 4.62582 2.15738C3.44465 2.15738 2.34279 1.51267 1.7507 0.474943C1.49137 0.0205894 0.917426 -0.135044 0.468826 0.12781C0.0202254 0.390536 -0.133269 0.972008 0.126183 1.42649C1.05228 3.05 2.77638 4.05857 4.62545 4.05857Z" fill="white"/>
<path d="M23.5311 7.09867C23.0825 6.83619 22.5085 6.99119 22.2492 7.4458C21.6571 8.48353 20.5555 9.12824 19.3746 9.12824C18.1934 9.12824 17.0916 8.48353 16.4995 7.4458C16.3317 7.15202 16.0221 6.97092 15.6871 6.97104C15.3519 6.97104 15.0425 7.15215 14.8748 7.44605C14.2831 8.48378 13.1818 9.12824 12.0005 9.12824C10.8197 9.12824 9.7178 8.4834 9.12483 7.44542C8.95708 7.15177 8.64759 6.97092 8.31283 6.97092H8.31257C7.97769 6.97092 7.6682 7.1519 7.50057 7.44567C6.90848 8.4834 5.80687 9.12811 4.62582 9.12811C3.44465 9.12811 2.34279 8.4834 1.7507 7.44567C1.49137 6.99119 0.917426 6.83569 0.468826 7.09854C0.0202254 7.36127 -0.133269 7.94274 0.126183 8.39722C1.05266 10.0207 2.77675 11.0293 4.62595 11.0293C6.02291 11.0293 7.34895 10.4533 8.31333 9.47132C9.27783 10.4534 10.6037 11.0293 12.0007 11.0293C13.3979 11.0293 14.7237 10.4535 15.6876 9.4717C16.652 10.4535 17.9777 11.0293 19.375 11.0293C21.2237 11.0293 22.9476 10.0209 23.8742 8.39722C24.133 7.94287 23.9797 7.36139 23.5311 7.09867Z" fill="white"/>
<path d="M23.5311 14.0693C23.0825 13.8067 22.5085 13.9618 22.2492 14.4164C21.6571 15.4542 20.5555 16.0989 19.3746 16.0989C18.1934 16.0989 17.0916 15.4542 16.4995 14.4164C16.3317 14.1227 16.0221 13.9416 15.6871 13.9417C15.3519 13.9417 15.0425 14.1228 14.8748 14.4167C14.2831 15.4544 13.1818 16.0989 12.0005 16.0989C10.8197 16.0989 9.7178 15.454 9.12483 14.4161C8.95708 14.1224 8.64759 13.9416 8.31283 13.9416H8.31257C7.97769 13.9416 7.6682 14.1225 7.50057 14.4163C6.90848 15.454 5.80687 16.0988 4.62582 16.0988C3.44465 16.0988 2.34279 15.454 1.7507 14.4163C1.49137 13.9618 0.917426 13.8065 0.468826 14.0692C0.0202254 14.3319 -0.133269 14.9134 0.126183 15.3679C1.05266 16.9914 2.77675 17.9999 4.62595 17.9999C6.02291 17.9999 7.34895 17.4239 8.31333 16.442C9.27783 17.4241 10.6037 17.9999 12.0007 17.9999C13.3979 17.9999 14.7237 17.4242 15.6876 16.4423C16.652 17.4242 17.9777 17.9999 19.375 17.9999C21.2237 17.9999 22.9476 16.9914 23.8742 15.3679C24.133 14.9135 23.9797 14.332 23.5311 14.0693Z" fill="white"/>
</g>
<path d="M5.036 39L5.036 29.2L6.212 29.2L6.212 38.062L10.776 38.062L10.776 39L5.036 39ZM12.5315 39L12.5315 29.2L15.7515 29.2C16.5168 29.2 17.1468 29.326 17.6415 29.578C18.1361 29.83 18.5001 30.1707 18.7335 30.6C18.9761 31.0293 19.0975 31.5147 19.0975 32.056C19.0975 32.588 18.9808 33.0687 18.7475 33.498C18.5141 33.9273 18.1501 34.2727 17.6555 34.534C17.1608 34.786 16.5261 34.912 15.7515 34.912L13.7075 34.912L13.7075 39L12.5315 39ZM13.7075 33.918L15.7235 33.918C16.5075 33.918 17.0628 33.7547 17.3895 33.428C17.7255 33.092 17.8935 32.6347 17.8935 32.056C17.8935 31.468 17.7255 31.0107 17.3895 30.684C17.0628 30.348 16.5075 30.18 15.7235 30.18L13.7075 30.18L13.7075 33.918Z" fill="white"/>
</svg>
