<svg width="59" height="52" viewBox="0 0 59 52" fill="none" xmlns="http://www.w3.org/2000/svg">
<g opacity="0.5">
<path fill-rule="evenodd" clip-rule="evenodd" d="M27.1589 12.1875V12.0523C27.1589 11.7494 26.9775 11.462 26.6746 11.2823C24.8616 10.2128 23.7365 8.23894 23.7365 6.13076V3.32961H23.1664C22.564 3.32961 22.0757 2.84128 22.0757 2.2389C22.0757 1.63652 22.564 1.1482 23.1664 1.1482H23.7365H35.7148H36.285C36.8874 1.1482 37.3757 1.63652 37.3757 2.2389C37.3757 2.84128 36.8874 3.32961 36.285 3.32961H35.7148V6.13076C35.7148 8.23894 34.5897 10.2128 32.7776 11.2814C32.4738 11.4611 32.2925 11.7494 32.2925 12.0523V12.1875H27.1589ZM34.0036 3.32961V6.13076C34.0036 7.63661 33.2011 9.04491 31.9083 9.8081C31.3256 10.152 30.9201 10.6731 30.7233 11.2643H28.7281C28.5304 10.6731 28.1266 10.152 27.5439 9.80895C26.2503 9.04491 25.4477 7.63661 25.4477 6.13076V3.32961H34.0036Z" fill="#FAFAFA"/>
<path fill-rule="evenodd" clip-rule="evenodd" d="M27.1589 12.1875V12.0523C27.1589 11.7494 26.9775 11.462 26.6746 11.2823C24.8616 10.2128 23.7365 8.23894 23.7365 6.13076V3.32961H23.1664C22.564 3.32961 22.0757 2.84128 22.0757 2.2389C22.0757 1.63652 22.564 1.1482 23.1664 1.1482H23.7365H35.7148H36.285C36.8874 1.1482 37.3757 1.63652 37.3757 2.2389C37.3757 2.84128 36.8874 3.32961 36.285 3.32961H35.7148V6.13076C35.7148 8.23894 34.5897 10.2128 32.7776 11.2814C32.4738 11.4611 32.2925 11.7494 32.2925 12.0523V12.1875H27.1589ZM34.0036 3.32961V6.13076C34.0036 7.63661 33.2011 9.04491 31.9083 9.8081C31.3256 10.152 30.9201 10.6731 30.7233 11.2643H28.7281C28.5304 10.6731 28.1266 10.152 27.5439 9.80895C26.2503 9.04491 25.4477 7.63661 25.4477 6.13076V3.32961H34.0036Z" fill="#FAFAFA"/>
<path fill-rule="evenodd" clip-rule="evenodd" d="M27.1589 12.1875V12.0523C27.1589 11.7494 26.9775 11.462 26.6746 11.2823C24.8616 10.2128 23.7365 8.23894 23.7365 6.13076V3.32961H23.1664C22.564 3.32961 22.0757 2.84128 22.0757 2.2389C22.0757 1.63652 22.564 1.1482 23.1664 1.1482H23.7365H35.7148H36.285C36.8874 1.1482 37.3757 1.63652 37.3757 2.2389C37.3757 2.84128 36.8874 3.32961 36.285 3.32961H35.7148V6.13076C35.7148 8.23894 34.5897 10.2128 32.7776 11.2814C32.4738 11.4611 32.2925 11.7494 32.2925 12.0523V12.1875H27.1589ZM34.0036 3.32961V6.13076C34.0036 7.63661 33.2011 9.04491 31.9083 9.8081C31.3256 10.152 30.9201 10.6731 30.7233 11.2643H28.7281C28.5304 10.6731 28.1266 10.152 27.5439 9.80895C26.2503 9.04491 25.4477 7.63661 25.4477 6.13076V3.32961H34.0036Z" fill="#FAFAFA"/>
<path fill-rule="evenodd" clip-rule="evenodd" d="M27.1589 12.1875V12.3227C27.1589 12.6256 26.9775 12.913 26.6746 13.0927C24.8616 14.1622 23.7365 16.1361 23.7365 18.2442V21.0454H23.1664C22.564 21.0454 22.0757 21.5337 22.0757 22.1361C22.0757 22.7385 22.564 23.2268 23.1664 23.2268H23.7365H35.7148H36.285C36.8874 23.2268 37.3757 22.7385 37.3757 22.1361C37.3757 21.5337 36.8874 21.0454 36.285 21.0454H35.7148V18.2442C35.7148 16.1361 34.5897 14.1622 32.7776 13.0936C32.4738 12.9139 32.2925 12.6256 32.2925 12.3227V12.1875H27.1589ZM34.0036 21.0454V18.2442C34.0036 16.7384 33.2011 15.3301 31.9083 14.5669C31.3256 14.223 30.9201 13.7019 30.7233 13.1107H28.7281C28.5304 13.7019 28.1266 14.223 27.5439 14.566C26.2503 15.3301 25.4477 16.7384 25.4477 18.2442V21.0454H34.0036Z" fill="#FAFAFA"/>
<path fill-rule="evenodd" clip-rule="evenodd" d="M27.1589 12.1875V12.3227C27.1589 12.6256 26.9775 12.913 26.6746 13.0927C24.8616 14.1622 23.7365 16.1361 23.7365 18.2442V21.0454H23.1664C22.564 21.0454 22.0757 21.5337 22.0757 22.1361C22.0757 22.7385 22.564 23.2268 23.1664 23.2268H23.7365H35.7148H36.285C36.8874 23.2268 37.3757 22.7385 37.3757 22.1361C37.3757 21.5337 36.8874 21.0454 36.285 21.0454H35.7148V18.2442C35.7148 16.1361 34.5897 14.1622 32.7776 13.0936C32.4738 12.9139 32.2925 12.6256 32.2925 12.3227V12.1875H27.1589ZM34.0036 21.0454V18.2442C34.0036 16.7384 33.2011 15.3301 31.9083 14.5669C31.3256 14.223 30.9201 13.7019 30.7233 13.1107H28.7281C28.5304 13.7019 28.1266 14.223 27.5439 14.566C26.2503 15.3301 25.4477 16.7384 25.4477 18.2442V21.0454H34.0036Z" fill="#FAFAFA"/>
<path fill-rule="evenodd" clip-rule="evenodd" d="M27.1589 12.1875V12.3227C27.1589 12.6256 26.9775 12.913 26.6746 13.0927C24.8616 14.1622 23.7365 16.1361 23.7365 18.2442V21.0454H23.1664C22.564 21.0454 22.0757 21.5337 22.0757 22.1361C22.0757 22.7385 22.564 23.2268 23.1664 23.2268H23.7365H35.7148H36.285C36.8874 23.2268 37.3757 22.7385 37.3757 22.1361C37.3757 21.5337 36.8874 21.0454 36.285 21.0454H35.7148V18.2442C35.7148 16.1361 34.5897 14.1622 32.7776 13.0936C32.4738 12.9139 32.2925 12.6256 32.2925 12.3227V12.1875H27.1589ZM34.0036 21.0454V18.2442C34.0036 16.7384 33.2011 15.3301 31.9083 14.5669C31.3256 14.223 30.9201 13.7019 30.7233 13.1107H28.7281C28.5304 13.7019 28.1266 14.223 27.5439 14.566C26.2503 15.3301 25.4477 16.7384 25.4477 18.2442V21.0454H34.0036Z" fill="#FAFAFA"/>
<path fill-rule="evenodd" clip-rule="evenodd" d="M31.5386 20.3051C32.2057 20.3051 32.7465 19.7643 32.7465 19.0972V18.3214C32.7465 17.255 32.18 16.2577 31.2674 15.7173C31.0739 15.6026 30.908 15.4602 30.7721 15.2979C30.5021 14.9753 30.147 14.686 29.7263 14.686C29.306 14.686 28.9515 14.9747 28.682 15.2972C28.5463 15.4597 28.3805 15.6022 28.1867 15.7167C27.2735 16.2577 26.707 17.255 26.707 18.3214V19.0972C26.707 19.7643 27.2478 20.3051 27.9149 20.3051H31.5386Z" fill="#FAFAFA"/>
<path d="M28.1869 9.36146C28.3807 9.47595 28.5465 9.61844 28.6823 9.78093C28.9517 10.1034 29.3063 10.3921 29.7265 10.3921C30.1472 10.3921 30.5023 10.1028 30.7723 9.78023C30.9082 9.61792 31.0741 9.47549 31.2677 9.36085C31.6755 9.11929 32.0143 8.78648 32.2642 8.39702H27.1898C27.4398 8.7866 27.7787 9.11961 28.1869 9.36146Z" fill="#FAFAFA"/>
<path d="M6.272 45.192C5.17333 45.192 4.208 44.952 3.376 44.472C2.55467 43.9813 1.90933 43.2987 1.44 42.424C0.981333 41.5493 0.752 40.5413 0.752 39.4C0.752 38.2587 0.981333 37.256 1.44 36.392C1.90933 35.5173 2.55467 34.8347 3.376 34.344C4.208 33.8533 5.17333 33.608 6.272 33.608C7.38133 33.608 8.34667 33.8533 9.168 34.344C10 34.8347 10.6453 35.5173 11.104 36.392C11.5627 37.256 11.792 38.2587 11.792 39.4C11.792 40.5413 11.5627 41.5493 11.104 42.424C10.6453 43.2987 10 43.9813 9.168 44.472C8.34667 44.952 7.38133 45.192 6.272 45.192ZM6.272 44.008C7.09333 44.008 7.81333 43.8267 8.432 43.464C9.06133 43.0907 9.54667 42.5627 9.888 41.88C10.24 41.1867 10.416 40.36 10.416 39.4C10.416 38.44 10.24 37.6187 9.888 36.936C9.54667 36.2533 9.06133 35.7307 8.432 35.368C7.81333 34.9947 7.09333 34.808 6.272 34.808C5.45067 34.808 4.72533 34.9947 4.096 35.368C3.47733 35.7307 2.992 36.2533 2.64 36.936C2.29867 37.6187 2.128 38.44 2.128 39.4C2.128 40.36 2.29867 41.1867 2.64 41.88C2.992 42.5627 3.47733 43.0907 4.096 43.464C4.72533 43.8267 5.45067 44.008 6.272 44.008ZM13.6509 48.52L13.6509 37.064L14.8669 37.064L14.9949 38.376C15.2509 37.992 15.6135 37.6453 16.0829 37.336C16.5629 37.0267 17.1709 36.872 17.9069 36.872C18.6962 36.872 19.3842 37.0533 19.9709 37.416C20.5575 37.7787 21.0109 38.2747 21.3309 38.904C21.6615 39.5333 21.8269 40.248 21.8269 41.048C21.8269 41.848 21.6615 42.5627 21.3309 43.192C21.0109 43.8107 20.5522 44.3013 19.9549 44.664C19.3682 45.016 18.6802 45.192 17.8909 45.192C17.2402 45.192 16.6589 45.0587 16.1469 44.792C15.6455 44.5253 15.2615 44.152 14.9949 43.672L14.9949 48.52L13.6509 48.52ZM17.7469 44.024C18.2802 44.024 18.7495 43.9013 19.1549 43.656C19.5602 43.4 19.8802 43.048 20.1149 42.6C20.3495 42.152 20.4669 41.6293 20.4669 41.032C20.4669 40.4347 20.3495 39.912 20.1149 39.464C19.8802 39.016 19.5602 38.6693 19.1549 38.424C18.7495 38.168 18.2802 38.04 17.7469 38.04C17.2135 38.04 16.7442 38.168 16.3389 38.424C15.9335 38.6693 15.6135 39.016 15.3789 39.464C15.1442 39.912 15.0269 40.4347 15.0269 41.032C15.0269 41.6293 15.1442 42.152 15.3789 42.6C15.6135 43.048 15.9335 43.4 16.3389 43.656C16.7442 43.9013 17.2135 44.024 17.7469 44.024ZM26.5213 45C25.7959 45 25.2252 44.824 24.8092 44.472C24.3932 44.12 24.1852 43.4853 24.1852 42.568L24.1852 38.2L22.8092 38.2L22.8092 37.064L24.1852 37.064L24.3613 35.16L25.5293 35.16L25.5293 37.064L27.8653 37.064L27.8653 38.2L25.5293 38.2L25.5292 42.568C25.5292 43.0693 25.6306 43.4107 25.8333 43.592C26.0359 43.7627 26.3932 43.848 26.9052 43.848L27.7373 43.848L27.7373 45L26.5213 45ZM30.3888 35.304C30.1221 35.304 29.8981 35.2187 29.7167 35.048C29.5461 34.8667 29.4607 34.6427 29.4607 34.376C29.4607 34.12 29.5461 33.9067 29.7167 33.736C29.8981 33.5653 30.1221 33.48 30.3888 33.48C30.6448 33.48 30.8634 33.5653 31.0448 33.736C31.2261 33.9067 31.3167 34.12 31.3167 34.376C31.3167 34.6427 31.2261 34.8667 31.0448 35.048C30.8634 35.2187 30.6448 35.304 30.3888 35.304ZM29.7167 45L29.7167 37.064L31.0607 37.064L31.0607 45L29.7167 45ZM37.0169 45.192C36.2702 45.192 35.5982 45.0213 35.0009 44.68C34.4035 44.3387 33.9289 43.8587 33.5769 43.24C33.2355 42.6107 33.0649 41.8747 33.0649 41.032C33.0649 40.1893 33.2409 39.4587 33.5929 38.84C33.9449 38.2107 34.4195 37.7253 35.0169 37.384C35.6249 37.0427 36.3022 36.872 37.0489 36.872C37.7955 36.872 38.4675 37.0427 39.0649 37.384C39.6622 37.7253 40.1315 38.2107 40.4729 38.84C40.8249 39.4587 41.0009 40.1893 41.0009 41.032C41.0009 41.8747 40.8249 42.6107 40.4729 43.24C40.1209 43.8587 39.6409 44.3387 39.0329 44.68C38.4355 45.0213 37.7635 45.192 37.0169 45.192ZM37.0169 44.04C37.4755 44.04 37.9022 43.928 38.2969 43.704C38.6915 43.48 39.0115 43.144 39.2569 42.696C39.5022 42.248 39.6249 41.6933 39.6249 41.032C39.6249 40.3707 39.5022 39.816 39.2569 39.368C39.0222 38.92 38.7075 38.584 38.3129 38.36C37.9182 38.136 37.4969 38.024 37.0489 38.024C36.5902 38.024 36.1635 38.136 35.7689 38.36C35.3742 38.584 35.0542 38.92 34.8089 39.368C34.5635 39.816 34.4409 40.3707 34.4409 41.032C34.4409 41.6933 34.5635 42.248 34.8089 42.696C35.0542 43.144 35.3689 43.48 35.7529 43.704C36.1475 43.928 36.5689 44.04 37.0169 44.04ZM42.8696 45L42.8696 37.064L44.0856 37.064L44.1656 38.488C44.4216 37.9867 44.7896 37.592 45.2696 37.304C45.7496 37.016 46.2936 36.872 46.9016 36.872C47.8403 36.872 48.587 37.16 49.1416 37.736C49.707 38.3013 49.9896 39.176 49.9896 40.36L49.9896 45L48.6456 45L48.6456 40.504C48.6456 38.8507 47.963 38.024 46.5976 38.024C45.915 38.024 45.3443 38.2747 44.8856 38.776C44.4376 39.2667 44.2136 39.9707 44.2136 40.888L44.2136 45L42.8696 45ZM55.0659 45.192C54.1165 45.192 53.3272 44.952 52.6979 44.472C52.0685 43.992 51.7005 43.3413 51.5939 42.52L52.9699 42.52C53.0552 42.936 53.2739 43.2987 53.6259 43.608C53.9885 43.9067 54.4739 44.056 55.0819 44.056C55.6472 44.056 56.0632 43.9387 56.3299 43.704C56.5965 43.4587 56.7299 43.1707 56.7299 42.84C56.7299 42.36 56.5539 42.04 56.2019 41.88C55.8605 41.72 55.3752 41.576 54.7459 41.448C54.3192 41.3627 53.8925 41.24 53.4659 41.08C53.0392 40.92 52.6819 40.696 52.3939 40.408C52.1059 40.1093 51.9619 39.72 51.9619 39.24C51.9619 38.5467 52.2179 37.9813 52.7299 37.544C53.2525 37.096 53.9565 36.872 54.8419 36.872C55.6845 36.872 56.3725 37.0853 56.9059 37.512C57.4499 37.928 57.7645 38.5253 57.8499 39.304L56.5219 39.304C56.4685 38.8987 56.2925 38.584 55.9939 38.36C55.7059 38.1253 55.3165 38.008 54.8259 38.008C54.3459 38.008 53.9725 38.1093 53.7059 38.312C53.4499 38.5147 53.3219 38.7813 53.3219 39.112C53.3219 39.432 53.4872 39.6827 53.8179 39.864C54.1592 40.0453 54.6179 40.2 55.1939 40.328C55.6845 40.4347 56.1485 40.568 56.5859 40.728C57.0339 40.8773 57.3965 41.1067 57.6739 41.416C57.9619 41.7147 58.1059 42.152 58.1059 42.728C58.1165 43.4427 57.8445 44.0347 57.2899 44.504C56.7459 44.9627 56.0045 45.192 55.0659 45.192Z" fill="white"/>
</g>
</svg>
