<svg width="44" height="60" viewBox="0 0 44 60" fill="none" xmlns="http://www.w3.org/2000/svg">
<path d="M22 4V28" stroke="white" stroke-width="2" stroke-linecap="round" stroke-linejoin="round"/>
<path d="M18 28H26" stroke="white" stroke-width="2" stroke-linecap="round" stroke-linejoin="round"/>
<path d="M10 6.66602H22H34" stroke="white" stroke-width="2" stroke-linecap="round" stroke-linejoin="round"/>
<path d="M14 6.66602L10 18.666C11.154 19.5315 12.5575 19.9994 14 19.9994C15.4425 19.9994 16.846 19.5315 18 18.666L14 6.66602Z" stroke="white" stroke-width="2" stroke-linecap="round" stroke-linejoin="round"/>
<path d="M30 6.66602L26 18.666C27.154 19.5315 28.5575 19.9994 30 19.9994C31.4425 19.9994 32.846 19.5315 34 18.666L30 6.66602Z" stroke="white" stroke-width="2" stroke-linecap="round" stroke-linejoin="round"/>
<path d="M3.332 53L3.332 44.166L0.406 44.166L0.406 43.2L7.434 43.2L7.434 44.166L4.508 44.166L4.508 53L3.332 53ZM9.00998 53L9.00998 43.2L12.174 43.2C12.9393 43.2 13.5647 43.326 14.05 43.578C14.5353 43.83 14.8947 44.1753 15.128 44.614C15.3613 45.0527 15.478 45.538 15.478 46.07C15.478 46.686 15.31 47.2413 14.974 47.736C14.6473 48.2307 14.134 48.5807 13.434 48.786L15.576 53L14.19 53L12.202 48.954L12.118 48.954L10.186 48.954L10.186 53L9.00998 53ZM10.186 48.03L12.09 48.03C12.846 48.03 13.3967 47.848 13.742 47.484C14.0873 47.12 14.26 46.6533 14.26 46.084C14.26 45.5053 14.0873 45.048 13.742 44.712C13.406 44.3667 12.8507 44.194 12.076 44.194L10.186 44.194L10.186 48.03ZM16.8328 53L20.4448 43.2L21.6908 43.2L25.2888 53L24.0428 53L23.1468 50.48L18.9748 50.48L18.0648 53L16.8328 53ZM19.3248 49.528L22.7968 49.528L21.0608 44.684L19.3248 49.528ZM26.8857 53L26.8857 43.2L29.8957 43.2C31.6224 43.2 32.8917 43.6387 33.7037 44.516C34.525 45.3933 34.9357 46.5973 34.9357 48.128C34.9357 49.6307 34.525 50.8207 33.7037 51.698C32.8917 52.566 31.6224 53 29.8957 53L26.8857 53ZM28.0617 52.02L29.8677 52.02C30.8197 52.02 31.5757 51.866 32.1357 51.558C32.705 51.2407 33.111 50.7927 33.3537 50.214C33.5964 49.626 33.7177 48.9307 33.7177 48.128C33.7177 47.3067 33.5964 46.602 33.3537 46.014C33.111 45.426 32.705 44.9733 32.1357 44.656C31.5757 44.3387 30.8197 44.18 29.8677 44.18L28.0617 44.18L28.0617 52.02ZM36.7737 53L36.7737 43.2L42.8357 43.2L42.8357 44.166L37.9497 44.166L37.9497 47.582L42.4157 47.582L42.4157 48.534L37.9497 48.534L37.9497 52.034L42.8357 52.034L42.8357 53L36.7737 53Z" fill="white"/>
</svg>
