<svg width="287" height="507" viewBox="0 0 287 507" fill="none" xmlns="http://www.w3.org/2000/svg">
<path d="M9.83766 96.288C8.14166 96.288 6.68566 95.928 5.46966 95.208C4.25366 94.472 3.31766 93.456 2.66166 92.16C2.00566 90.848 1.67766 89.336 1.67766 87.624C1.67766 85.912 2.00566 84.4 2.66166 83.088C3.31766 81.776 4.25366 80.752 5.46966 80.016C6.68566 79.28 8.14166 78.912 9.83766 78.912C11.8537 78.912 13.5017 79.416 14.7817 80.424C16.0777 81.416 16.8857 82.816 17.2057 84.624L13.8217 84.624C13.6137 83.712 13.1657 83 12.4777 82.488C11.8057 81.96 10.9097 81.696 9.78966 81.696C8.23766 81.696 7.02166 82.224 6.14166 83.28C5.26166 84.336 4.82166 85.784 4.82166 87.624C4.82166 89.464 5.26166 90.912 6.14166 91.968C7.02166 93.008 8.23766 93.528 9.78966 93.528C10.9097 93.528 11.8057 93.288 12.4777 92.808C13.1657 92.312 13.6137 91.632 13.8217 90.768L17.2057 90.768C16.8857 92.496 16.0777 93.848 14.7817 94.824C13.5017 95.8 11.8537 96.288 9.83766 96.288ZM24.317 96.288C22.829 96.288 21.677 95.824 20.861 94.896C20.061 93.968 19.661 92.608 19.661 90.816L19.661 84.096L22.709 84.096L22.709 90.528C22.709 91.552 22.917 92.336 23.333 92.88C23.749 93.424 24.405 93.696 25.301 93.696C26.149 93.696 26.845 93.392 27.389 92.784C27.949 92.176 28.229 91.328 28.229 90.24L28.229 84.096L31.301 84.096L31.301 96L28.589 96L28.349 93.984C27.981 94.688 27.445 95.248 26.741 95.664C26.053 96.08 25.245 96.288 24.317 96.288ZM34.4545 96L34.4545 84.096L37.1905 84.096L37.4785 86.328C37.9105 85.56 38.4945 84.952 39.2305 84.504C39.9825 84.04 40.8625 83.808 41.8705 83.808L41.8705 87.048L41.0065 87.048C40.3345 87.048 39.7345 87.152 39.2065 87.36C38.6785 87.568 38.2625 87.928 37.9585 88.44C37.6705 88.952 37.5265 89.664 37.5265 90.576L37.5265 96L34.4545 96ZM43.9702 96L43.9702 84.096L46.7062 84.096L46.9942 86.328C47.4262 85.56 48.0102 84.952 48.7462 84.504C49.4982 84.04 50.3782 83.808 51.3862 83.808L51.3862 87.048L50.5222 87.048C49.8502 87.048 49.2502 87.152 48.7222 87.36C48.1942 87.568 47.7782 87.928 47.4742 88.44C47.1862 88.952 47.0422 89.664 47.0422 90.576L47.0422 96L43.9702 96ZM59.0588 96.288C57.8588 96.288 56.7948 96.032 55.8668 95.52C54.9388 95.008 54.2108 94.288 53.6828 93.36C53.1548 92.432 52.8908 91.36 52.8908 90.144C52.8908 88.912 53.1468 87.816 53.6588 86.856C54.1868 85.896 54.9068 85.152 55.8188 84.624C56.7468 84.08 57.8348 83.808 59.0828 83.808C60.2508 83.808 61.2828 84.064 62.1788 84.576C63.0748 85.088 63.7708 85.792 64.2668 86.688C64.7788 87.568 65.0348 88.552 65.0348 89.64C65.0348 89.816 65.0268 90 65.0108 90.192C65.0108 90.384 65.0028 90.584 64.9868 90.792L55.9388 90.792C56.0028 91.72 56.3228 92.448 56.8988 92.976C57.4908 93.504 58.2028 93.768 59.0348 93.768C59.6588 93.768 60.1788 93.632 60.5948 93.36C61.0268 93.072 61.3468 92.704 61.5548 92.256L64.6748 92.256C64.4508 93.008 64.0748 93.696 63.5468 94.32C63.0348 94.928 62.3948 95.408 61.6268 95.76C60.8748 96.112 60.0188 96.288 59.0588 96.288ZM59.0828 86.304C58.3308 86.304 57.6668 86.52 57.0908 86.952C56.5148 87.368 56.1468 88.008 55.9868 88.872L61.9148 88.872C61.8668 88.088 61.5788 87.464 61.0508 87C60.5228 86.536 59.8668 86.304 59.0828 86.304ZM67.6186 96L67.6186 84.096L70.3306 84.096L70.5706 86.112C70.9386 85.408 71.4666 84.848 72.1546 84.432C72.8586 84.016 73.6826 83.808 74.6266 83.808C76.0986 83.808 77.2426 84.272 78.0586 85.2C78.8746 86.128 79.2826 87.488 79.2826 89.28L79.2826 96L76.2106 96L76.2106 89.568C76.2106 88.544 76.0026 87.76 75.5866 87.216C75.1706 86.672 74.5226 86.4 73.6426 86.4C72.7786 86.4 72.0666 86.704 71.5066 87.312C70.9626 87.92 70.6906 88.768 70.6906 89.856L70.6906 96L67.6186 96ZM88.0522 96.288C86.8362 96.288 85.7642 96.024 84.8362 95.496C83.9082 94.968 83.1722 94.232 82.6282 93.288C82.1002 92.344 81.8362 91.264 81.8362 90.048C81.8362 88.832 82.1002 87.752 82.6282 86.808C83.1722 85.864 83.9082 85.128 84.8362 84.6C85.7642 84.072 86.8362 83.808 88.0522 83.808C89.5722 83.808 90.8522 84.208 91.8922 85.008C92.9322 85.792 93.5962 86.88 93.8842 88.272L90.6442 88.272C90.4842 87.696 90.1642 87.248 89.6842 86.928C89.2202 86.592 88.6682 86.424 88.0282 86.424C87.1802 86.424 86.4602 86.744 85.8682 87.384C85.2762 88.024 84.9802 88.912 84.9802 90.048C84.9802 91.184 85.2762 92.072 85.8682 92.712C86.4602 93.352 87.1802 93.672 88.0282 93.672C88.6682 93.672 89.2202 93.512 89.6842 93.192C90.1642 92.872 90.4842 92.416 90.6442 91.824L93.8842 91.824C93.5962 93.168 92.9322 94.248 91.8922 95.064C90.8522 95.88 89.5722 96.288 88.0522 96.288ZM98.2668 82.248C97.7068 82.248 97.2428 82.08 96.8748 81.744C96.5228 81.408 96.3468 80.984 96.3468 80.472C96.3468 79.96 96.5228 79.544 96.8748 79.224C97.2428 78.888 97.7068 78.72 98.2668 78.72C98.8268 78.72 99.2828 78.888 99.6348 79.224C100.003 79.544 100.187 79.96 100.187 80.472C100.187 80.984 100.003 81.408 99.6348 81.744C99.2828 82.08 98.8268 82.248 98.2668 82.248ZM96.7308 96L96.7308 84.096L99.8028 84.096L99.8028 96L96.7308 96ZM108.793 96.288C107.593 96.288 106.529 96.032 105.601 95.52C104.673 95.008 103.945 94.288 103.417 93.36C102.889 92.432 102.625 91.36 102.625 90.144C102.625 88.912 102.881 87.816 103.393 86.856C103.921 85.896 104.641 85.152 105.553 84.624C106.481 84.08 107.569 83.808 108.817 83.808C109.985 83.808 111.017 84.064 111.913 84.576C112.809 85.088 113.505 85.792 114.001 86.688C114.513 87.568 114.769 88.552 114.769 89.64C114.769 89.816 114.761 90 114.745 90.192C114.745 90.384 114.737 90.584 114.721 90.792L105.673 90.792C105.737 91.72 106.057 92.448 106.633 92.976C107.225 93.504 107.937 93.768 108.769 93.768C109.393 93.768 109.913 93.632 110.329 93.36C110.761 93.072 111.081 92.704 111.289 92.256L114.409 92.256C114.185 93.008 113.809 93.696 113.281 94.32C112.769 94.928 112.129 95.408 111.361 95.76C110.609 96.112 109.753 96.288 108.793 96.288ZM108.817 86.304C108.065 86.304 107.401 86.52 106.825 86.952C106.249 87.368 105.881 88.008 105.721 88.872L111.649 88.872C111.601 88.088 111.313 87.464 110.785 87C110.257 86.536 109.601 86.304 108.817 86.304ZM122.273 96.288C121.217 96.288 120.289 96.12 119.489 95.784C118.689 95.432 118.049 94.952 117.569 94.344C117.089 93.736 116.801 93.032 116.705 92.232L119.801 92.232C119.897 92.696 120.153 93.096 120.569 93.432C121.001 93.752 121.553 93.912 122.225 93.912C122.897 93.912 123.385 93.776 123.689 93.504C124.009 93.232 124.169 92.92 124.169 92.568C124.169 92.056 123.945 91.712 123.497 91.536C123.049 91.344 122.425 91.16 121.625 90.984C121.113 90.872 120.593 90.736 120.065 90.576C119.537 90.416 119.049 90.216 118.601 89.976C118.169 89.72 117.817 89.4 117.545 89.016C117.273 88.616 117.137 88.128 117.137 87.552C117.137 86.496 117.553 85.608 118.385 84.888C119.233 84.168 120.417 83.808 121.937 83.808C123.345 83.808 124.465 84.136 125.297 84.792C126.145 85.448 126.649 86.352 126.809 87.504L123.905 87.504C123.729 86.624 123.065 86.184 121.913 86.184C121.337 86.184 120.889 86.296 120.569 86.52C120.265 86.744 120.113 87.024 120.113 87.36C120.113 87.712 120.345 87.992 120.809 88.2C121.273 88.408 121.889 88.6 122.657 88.776C123.489 88.968 124.249 89.184 124.937 89.424C125.641 89.648 126.201 89.992 126.617 90.456C127.033 90.904 127.241 91.552 127.241 92.4C127.257 93.136 127.065 93.8 126.665 94.392C126.265 94.984 125.689 95.448 124.937 95.784C124.185 96.12 123.297 96.288 122.273 96.288Z" fill="black"/>
<path d="M65.44 55.88C73.1388 55.88 79.38 49.6388 79.38 41.94C79.38 34.2412 73.1388 28 65.44 28C57.7412 28 51.5 34.2412 51.5 41.94C51.5 49.6388 57.7412 55.88 65.44 55.88Z" fill="#787878"/>
<path d="M60 43.2169C59.7239 43.2169 59.5 42.993 59.5 42.7169V42.5622C59.5 42.286 59.7239 42.0622 60 42.0622H60.4632C60.5824 42.0622 60.6748 41.9585 60.667 41.8396C60.6599 41.7314 60.6563 41.6233 60.6563 41.5152C60.6563 41.4002 60.6599 41.287 60.6672 41.1756C60.6749 41.0567 60.5824 40.953 60.4632 40.953H60C59.7239 40.953 59.5 40.7292 59.5 40.453V40.2831C59.5 40.007 59.7239 39.7831 60 39.7831H60.7129C60.8048 39.7831 60.8845 39.7203 60.9089 39.6317C61.2044 38.5574 61.7592 37.6913 62.5733 37.0331C63.4355 36.3444 64.5207 36 65.8292 36C67.1072 36 68.1519 36.3191 68.9633 36.9572C69.4879 37.3582 69.8864 37.8644 70.1587 38.476C70.4118 39.0443 69.9293 39.616 69.3072 39.616H69.1521C68.6856 39.616 68.3047 39.2766 68.063 38.8776C67.9181 38.6382 67.7313 38.4336 67.5028 38.2638C67.0768 37.9296 66.5138 37.7624 65.814 37.7624C65.0938 37.7624 64.4852 37.9397 63.9882 38.2942C63.571 38.598 63.2468 39.006 63.0158 39.5182C62.9587 39.6448 63.0551 39.7831 63.1941 39.7831H65.5726C65.8488 39.7831 66.0726 40.007 66.0726 40.2831V40.453C66.0726 40.7292 65.8488 40.953 65.5726 40.953H62.8538C62.7476 40.953 62.6598 41.0359 62.656 41.142C62.6516 41.2642 62.6494 41.3886 62.6494 41.5152C62.6494 41.6389 62.6515 41.7585 62.6557 41.8738C62.6595 41.9796 62.7473 42.0622 62.8532 42.0622H65.5726C65.8488 42.0622 66.0726 42.286 66.0726 42.5622V42.7169C66.0726 42.993 65.8488 43.2169 65.5726 43.2169H63.1884C63.051 43.2169 62.9547 43.3523 63.0089 43.4784C63.2338 44.0015 63.5603 44.4157 63.9882 44.721C64.4852 45.0755 65.0938 45.2528 65.814 45.2528C66.5138 45.2528 67.0768 45.1008 67.5028 44.797C67.7245 44.6373 67.907 44.4475 68.0501 44.2276C68.3021 43.8404 68.6803 43.5055 69.1423 43.5055H69.2975C69.9228 43.5055 70.4057 44.0839 70.1355 44.6478C69.8639 45.2146 69.4732 45.6898 68.9633 46.0732C68.1519 46.6911 67.1072 47 65.8292 47C64.5207 47 63.4355 46.6607 62.5733 45.982C61.7493 45.3237 61.1893 44.4526 60.8935 43.3687C60.8692 43.2799 60.7894 43.2169 60.6973 43.2169H60Z" fill="white"/>
<path d="M60.8388 31.6499C62.082 26.3823 58.8196 21.1041 53.552 19.8608C48.2843 18.6175 43.0062 21.88 41.7629 27.1476C40.5196 32.4153 43.782 37.6934 49.0497 38.9367C54.3173 40.18 59.5955 36.9176 60.8388 31.6499Z" fill="#565656"/>
<path d="M46.9195 30.9047C46.6878 30.9047 46.5 30.7215 46.5 30.4956V30.369C46.5 30.1431 46.6878 29.9599 46.9195 29.9599H47.3081C47.4081 29.9599 47.4857 29.8751 47.4791 29.7778C47.4731 29.6894 47.4701 29.6009 47.4701 29.5124C47.4701 29.4183 47.4731 29.3257 47.4792 29.2346C47.4857 29.1373 47.4081 29.0525 47.3081 29.0525H46.9195C46.6878 29.0525 46.5 28.8693 46.5 28.6434V28.5044C46.5 28.2785 46.6878 28.0953 46.9195 28.0953H47.5176C47.5947 28.0953 47.6616 28.0439 47.682 27.9714C47.93 27.0925 48.3954 26.3838 49.0784 25.8453C49.8017 25.2818 50.7123 25 51.81 25C52.8822 25 53.7587 25.261 54.4395 25.7831C54.8796 26.1112 55.2139 26.5255 55.4424 27.0258C55.6547 27.4908 55.2499 27.9586 54.7279 27.9586H54.5979C54.2065 27.9586 53.8869 27.6809 53.6841 27.3544C53.5625 27.1586 53.4058 26.9912 53.2141 26.8522C52.8567 26.5787 52.3844 26.442 51.7972 26.442C51.1931 26.442 50.6825 26.587 50.2655 26.8771C49.9154 27.1257 49.6435 27.4595 49.4497 27.8785C49.4018 27.9821 49.4827 28.0953 49.5992 28.0953H51.5947C51.8264 28.0953 52.0142 28.2785 52.0142 28.5044V28.6434C52.0142 28.8693 51.8264 29.0525 51.5947 29.0525H49.3137C49.2247 29.0525 49.151 29.1203 49.1478 29.2071C49.1441 29.3071 49.1422 29.4089 49.1422 29.5124C49.1422 29.6137 49.144 29.7115 49.1475 29.8058C49.1507 29.8924 49.2244 29.9599 49.3132 29.9599H51.5947C51.8264 29.9599 52.0142 30.1431 52.0142 30.369V30.4956C52.0142 30.7215 51.8264 30.9047 51.5947 30.9047H49.5944C49.4792 30.9047 49.3984 31.0155 49.4439 31.1187C49.6326 31.5467 49.9064 31.8856 50.2655 32.1354C50.6825 32.4254 51.1931 32.5704 51.7972 32.5704C52.3844 32.5704 52.8567 32.4461 53.2141 32.1975C53.4001 32.0669 53.5532 31.9116 53.6733 31.7317C53.8847 31.4149 54.202 31.1409 54.5896 31.1409H54.7198C55.2445 31.1409 55.6496 31.6141 55.4229 32.0755C55.195 32.5392 54.8672 32.928 54.4395 33.2417C53.7587 33.7472 52.8822 34 51.81 34C50.7123 34 49.8017 33.7224 49.0784 33.1671C48.3871 32.6285 47.9173 31.9158 47.6691 31.0289C47.6487 30.9563 47.5817 30.9047 47.5045 30.9047H46.9195Z" fill="white"/>
<path d="M51.0205 8.13009L47.4005 12.5401C47.3572 12.5946 47.3302 12.6602 47.3226 12.7294C47.3149 12.7985 47.3269 12.8684 47.3572 12.9311C47.3875 12.9938 47.4348 13.0466 47.4938 13.0836C47.5527 13.1205 47.6209 13.1401 47.6905 13.1401H48.5005C48.596 13.1401 48.6875 13.178 48.755 13.2455C48.8226 13.313 48.8605 13.4046 48.8605 13.5001V16.0601C48.8605 16.2696 48.9437 16.4705 49.0919 16.6187C49.24 16.7669 49.441 16.8501 49.6505 16.8501H52.8705C53.0792 16.8475 53.2786 16.7634 53.4262 16.6158C53.5738 16.4682 53.6579 16.2688 53.6605 16.0601V13.5001C53.6605 13.4046 53.6984 13.313 53.7659 13.2455C53.8334 13.178 53.925 13.1401 54.0205 13.1401H54.8705C54.9401 13.1401 55.0083 13.1205 55.0672 13.0836C55.1262 13.0466 55.1735 12.9938 55.2038 12.9311C55.2341 12.8684 55.2461 12.7985 55.2384 12.7294C55.2308 12.6602 55.2037 12.5946 55.1605 12.5401L51.5805 8.13009C51.5458 8.08988 51.5028 8.05762 51.4544 8.03551C51.4061 8.0134 51.3536 8.00195 51.3005 8.00195C51.2473 8.00195 51.1948 8.0134 51.1465 8.03551C51.0982 8.05762 51.0552 8.08988 51.0205 8.13009Z" fill="#565656"/>
<path d="M69.9297 28.8594V33.8594C69.9297 36.0315 70.7926 38.1147 72.3285 39.6506C73.8644 41.1865 75.9476 42.0494 78.1197 42.0494H79.4397C79.4355 39.1318 78.5153 36.2893 76.809 33.9227C75.1027 31.5562 72.6965 29.7851 69.9297 28.8594Z" fill="#787878"/>
<path d="M65.1019 11.8206L59.9619 18.0906C59.8995 18.1666 59.8599 18.2587 59.8477 18.3563C59.8356 18.4539 59.8514 18.553 59.8932 18.642C59.9351 18.731 60.0014 18.8063 60.0843 18.8591C60.1673 18.912 60.2635 18.9402 60.3619 18.9406H61.5819C61.7171 18.9406 61.8469 18.9943 61.9425 19.0899C62.0382 19.1856 62.0919 19.3153 62.0919 19.4506V23.0806C62.0919 23.3785 62.2095 23.6645 62.4193 23.8761C62.6291 24.0877 62.9139 24.2079 63.2119 24.2106H67.7919C68.0898 24.2079 68.3747 24.0877 68.5845 23.8761C68.7942 23.6645 68.9119 23.3785 68.9119 23.0806V19.4506C68.9119 19.3153 68.9656 19.1856 69.0613 19.0899C69.1569 18.9943 69.2866 18.9406 69.4219 18.9406H70.6419C70.7402 18.9402 70.8365 18.912 70.9194 18.8591C71.0024 18.8063 71.0686 18.731 71.1105 18.642C71.1524 18.553 71.1682 18.4539 71.156 18.3563C71.1439 18.2587 71.1043 18.1666 71.0419 18.0906L65.9019 11.8206C65.8541 11.7602 65.7934 11.7114 65.7241 11.6779C65.6548 11.6444 65.5788 11.627 65.5019 11.627C65.4249 11.627 65.349 11.6444 65.2797 11.6779C65.2104 11.7114 65.1496 11.7602 65.1019 11.8206Z" fill="#787878"/>
<path d="M86.6288 36.33C90.4559 32.5029 90.4559 26.2979 86.6288 22.4707C82.8016 18.6436 76.5966 18.6436 72.7695 22.4707C68.9424 26.2979 68.9424 32.5029 72.7695 36.33C76.5966 40.1572 82.8016 40.1572 86.6288 36.33Z" fill="#565656"/>
<path d="M75.4195 30.9047C75.1878 30.9047 75 30.7215 75 30.4956V30.369C75 30.1431 75.1878 29.9599 75.4195 29.9599H75.8081C75.9081 29.9599 75.9857 29.8751 75.9791 29.7778C75.9731 29.6894 75.9701 29.6009 75.9701 29.5124C75.9701 29.4183 75.9731 29.3257 75.9792 29.2346C75.9857 29.1373 75.9081 29.0525 75.8081 29.0525H75.4195C75.1878 29.0525 75 28.8693 75 28.6434V28.5044C75 28.2785 75.1878 28.0953 75.4195 28.0953H76.0176C76.0947 28.0953 76.1616 28.0439 76.182 27.9714C76.43 27.0925 76.8954 26.3838 77.5784 25.8453C78.3017 25.2818 79.2123 25 80.31 25C81.3822 25 82.2587 25.261 82.9395 25.7831C83.3796 26.1112 83.7139 26.5255 83.9424 27.0258C84.1547 27.4908 83.7499 27.9586 83.2279 27.9586H83.0979C82.7065 27.9586 82.3869 27.6809 82.1841 27.3544C82.0625 27.1586 81.9058 26.9912 81.7141 26.8522C81.3567 26.5787 80.8844 26.442 80.2972 26.442C79.6931 26.442 79.1825 26.587 78.7655 26.8771C78.4154 27.1257 78.1435 27.4595 77.9497 27.8785C77.9018 27.9821 77.9827 28.0953 78.0992 28.0953H80.0947C80.3264 28.0953 80.5142 28.2785 80.5142 28.5044V28.6434C80.5142 28.8693 80.3264 29.0525 80.0947 29.0525H77.8137C77.7247 29.0525 77.651 29.1203 77.6478 29.2071C77.6441 29.3071 77.6422 29.4089 77.6422 29.5124C77.6422 29.6137 77.644 29.7115 77.6475 29.8058C77.6507 29.8924 77.7244 29.9599 77.8132 29.9599H80.0947C80.3264 29.9599 80.5142 30.1431 80.5142 30.369V30.4956C80.5142 30.7215 80.3264 30.9047 80.0947 30.9047H78.0944C77.9792 30.9047 77.8984 31.0155 77.9439 31.1187C78.1326 31.5467 78.4064 31.8856 78.7655 32.1354C79.1825 32.4254 79.6931 32.5704 80.2972 32.5704C80.8844 32.5704 81.3567 32.4461 81.7141 32.1975C81.9001 32.0669 82.0532 31.9116 82.1733 31.7317C82.3847 31.4149 82.702 31.1409 83.0896 31.1409H83.2198C83.7445 31.1409 84.1496 31.6141 83.9229 32.0755C83.695 32.5392 83.3672 32.928 82.9395 33.2417C82.2587 33.7472 81.3822 34 80.31 34C79.2123 34 78.3017 33.7224 77.5784 33.1671C76.8871 32.6285 76.4173 31.9158 76.1691 31.0289C76.1487 30.9563 76.0817 30.9047 76.0045 30.9047H75.4195Z" fill="white"/>
<path d="M79.4189 8.13009L75.7989 12.5401C75.7557 12.5946 75.7287 12.6602 75.721 12.7294C75.7133 12.7985 75.7253 12.8684 75.7556 12.9311C75.7859 12.9938 75.8332 13.0466 75.8922 13.0836C75.9512 13.1205 76.0193 13.1401 76.0889 13.1401H76.9389C77.0344 13.1401 77.126 13.178 77.1935 13.2455C77.261 13.313 77.2989 13.4046 77.2989 13.5001V16.0601C77.3015 16.2688 77.3856 16.4682 77.5332 16.6158C77.6808 16.7634 77.8802 16.8475 78.0889 16.8501H81.3089C81.5184 16.8501 81.7194 16.7669 81.8675 16.6187C82.0157 16.4705 82.0989 16.2696 82.0989 16.0601V13.5001C82.0989 13.4046 82.1368 13.313 82.2044 13.2455C82.2719 13.178 82.3634 13.1401 82.4589 13.1401H83.3089C83.3785 13.1401 83.4467 13.1205 83.5057 13.0836C83.5646 13.0466 83.6119 12.9938 83.6422 12.9311C83.6725 12.8684 83.6845 12.7985 83.6768 12.7294C83.6692 12.6602 83.6422 12.5946 83.5989 12.5401L79.9789 8.13009C79.9442 8.08988 79.9012 8.05762 79.8529 8.03551C79.8046 8.0134 79.7521 8.00195 79.6989 8.00195C79.6458 8.00195 79.5933 8.0134 79.545 8.03551C79.4966 8.05762 79.4537 8.08988 79.4189 8.13009Z" fill="#787878"/>
<path d="M69.9297 28.8594C69.9297 29.0394 69.9297 29.2194 69.9297 29.3994C69.9307 31.8982 70.8872 34.3021 72.6032 36.1185C74.3193 37.935 76.6649 39.0264 79.1597 39.1694C78.6528 36.7957 77.5344 34.5956 75.9154 32.7872C74.2965 30.9788 72.2331 29.6248 69.9297 28.8594Z" fill="#787878"/>
<path d="M197.741 96L197.741 79.2L208.589 79.2L208.589 81.672L200.813 81.672L200.813 86.376L207.101 86.376L207.101 88.8L200.813 88.8L200.813 96L197.741 96ZM215.352 96.288C213.864 96.288 212.712 95.824 211.896 94.896C211.096 93.968 210.696 92.608 210.696 90.816L210.696 84.096L213.744 84.096L213.744 90.528C213.744 91.552 213.952 92.336 214.368 92.88C214.784 93.424 215.44 93.696 216.336 93.696C217.184 93.696 217.88 93.392 218.424 92.784C218.984 92.176 219.264 91.328 219.264 90.24L219.264 84.096L222.336 84.096L222.336 96L219.624 96L219.384 93.984C219.016 94.688 218.48 95.248 217.776 95.664C217.088 96.08 216.28 96.288 215.352 96.288ZM230.794 96C229.546 96 228.546 95.696 227.794 95.088C227.042 94.48 226.666 93.4 226.666 91.848L226.666 86.664L224.626 86.664L224.626 84.096L226.666 84.096L227.026 80.904L229.738 80.904L229.738 84.096L232.954 84.096L232.954 86.664L229.738 86.664L229.738 91.872C229.738 92.448 229.858 92.848 230.098 93.072C230.354 93.28 230.786 93.384 231.394 93.384L232.882 93.384L232.882 96L230.794 96ZM240.055 96.288C238.567 96.288 237.415 95.824 236.599 94.896C235.799 93.968 235.399 92.608 235.399 90.816L235.399 84.096L238.447 84.096L238.447 90.528C238.447 91.552 238.655 92.336 239.071 92.88C239.487 93.424 240.143 93.696 241.039 93.696C241.887 93.696 242.583 93.392 243.127 92.784C243.687 92.176 243.967 91.328 243.967 90.24L243.967 84.096L247.039 84.096L247.039 96L244.327 96L244.087 93.984C243.719 94.688 243.183 95.248 242.479 95.664C241.791 96.08 240.983 96.288 240.055 96.288ZM250.193 96L250.193 84.096L252.929 84.096L253.217 86.328C253.649 85.56 254.233 84.952 254.969 84.504C255.721 84.04 256.601 83.808 257.609 83.808L257.609 87.048L256.745 87.048C256.073 87.048 255.473 87.152 254.945 87.36C254.417 87.568 254.001 87.928 253.697 88.44C253.409 88.952 253.265 89.664 253.265 90.576L253.265 96L250.193 96ZM265.282 96.288C264.082 96.288 263.017 96.032 262.089 95.52C261.161 95.008 260.433 94.288 259.905 93.36C259.377 92.432 259.113 91.36 259.113 90.144C259.113 88.912 259.369 87.816 259.881 86.856C260.409 85.896 261.13 85.152 262.041 84.624C262.97 84.08 264.058 83.808 265.306 83.808C266.474 83.808 267.506 84.064 268.402 84.576C269.298 85.088 269.994 85.792 270.489 86.688C271.001 87.568 271.258 88.552 271.257 89.64C271.257 89.816 271.25 90 271.234 90.192C271.234 90.384 271.226 90.584 271.21 90.792L262.162 90.792C262.226 91.72 262.545 92.448 263.121 92.976C263.714 93.504 264.426 93.768 265.257 93.768C265.882 93.768 266.402 93.632 266.817 93.36C267.25 93.072 267.57 92.704 267.778 92.256L270.898 92.256C270.674 93.008 270.298 93.696 269.77 94.32C269.258 94.928 268.618 95.408 267.85 95.76C267.098 96.112 266.242 96.288 265.282 96.288ZM265.306 86.304C264.554 86.304 263.89 86.52 263.314 86.952C262.738 87.368 262.369 88.008 262.209 88.872L268.138 88.872C268.09 88.088 267.802 87.464 267.274 87C266.746 86.536 266.09 86.304 265.306 86.304ZM278.761 96.288C277.705 96.288 276.777 96.12 275.977 95.784C275.177 95.432 274.537 94.952 274.057 94.344C273.577 93.736 273.289 93.032 273.193 92.232L276.289 92.232C276.385 92.696 276.641 93.096 277.057 93.432C277.489 93.752 278.041 93.912 278.713 93.912C279.385 93.912 279.873 93.776 280.177 93.504C280.497 93.232 280.657 92.92 280.657 92.568C280.657 92.056 280.433 91.712 279.985 91.536C279.537 91.344 278.913 91.16 278.113 90.984C277.601 90.872 277.081 90.736 276.553 90.576C276.025 90.416 275.537 90.216 275.089 89.976C274.657 89.72 274.305 89.4 274.033 89.016C273.761 88.616 273.625 88.128 273.625 87.552C273.625 86.496 274.041 85.608 274.873 84.888C275.721 84.168 276.905 83.808 278.425 83.808C279.833 83.808 280.953 84.136 281.785 84.792C282.633 85.448 283.137 86.352 283.297 87.504L280.393 87.504C280.217 86.624 279.553 86.184 278.401 86.184C277.825 86.184 277.377 86.296 277.057 86.52C276.753 86.744 276.601 87.024 276.601 87.36C276.601 87.712 276.833 87.992 277.297 88.2C277.761 88.408 278.377 88.6 279.145 88.776C279.977 88.968 280.737 89.184 281.425 89.424C282.129 89.648 282.689 89.992 283.105 90.456C283.521 90.904 283.729 91.552 283.729 92.4C283.745 93.136 283.553 93.8 283.153 94.392C282.753 94.984 282.177 95.448 281.425 95.784C280.673 96.12 279.785 96.288 278.761 96.288Z" fill="black"/>
<path d="M227.749 39.5508H220.499C220.107 39.5508 219.789 39.8687 219.789 40.2608V53.2908C219.789 53.6829 220.107 54.0008 220.499 54.0008H227.749C228.141 54.0008 228.459 53.6829 228.459 53.2908V40.2608C228.459 39.8687 228.141 39.5508 227.749 39.5508Z" fill="#565656"/>
<path d="M238.999 29.0391H231.749C231.357 29.0391 231.039 29.3569 231.039 29.7491V53.2891C231.039 53.6812 231.357 53.9991 231.749 53.9991H238.999C239.391 53.9991 239.709 53.6812 239.709 53.2891V29.7491C239.709 29.3569 239.391 29.0391 238.999 29.0391Z" fill="#787878"/>
<path d="M250.249 18.5195H242.999C242.607 18.5195 242.289 18.8374 242.289 19.2295V53.2895C242.289 53.6817 242.607 53.9995 242.999 53.9995H250.249C250.641 53.9995 250.959 53.6817 250.959 53.2895V19.2295C250.959 18.8374 250.641 18.5195 250.249 18.5195Z" fill="#565656"/>
<path d="M261.499 8H254.249C253.857 8 253.539 8.31788 253.539 8.71V53.29C253.539 53.6821 253.857 54 254.249 54H261.499C261.891 54 262.209 53.6821 262.209 53.29V8.71C262.209 8.31788 261.891 8 261.499 8Z" fill="#787878"/>
<path d="M264.1 52H217.9C217.403 52 217 52.4029 217 52.9V55.1C217 55.5971 217.403 56 217.9 56H264.1C264.597 56 265 55.5971 265 55.1V52.9C265 52.4029 264.597 52 264.1 52Z" fill="#565656"/>
<path d="M221.529 31.8647L219.966 30.3019C219.925 30.2611 219.893 30.2126 219.871 30.1592C219.849 30.1058 219.837 30.0486 219.837 29.9908C219.837 29.933 219.849 29.8758 219.871 29.8224C219.893 29.7691 219.925 29.7206 219.966 29.6797L237.644 12.002L239.829 14.187L222.151 31.8647C222.11 31.9055 222.062 31.9379 222.008 31.96C221.955 31.9821 221.898 31.9935 221.84 31.9935C221.782 31.9935 221.725 31.9821 221.671 31.96C221.618 31.9379 221.57 31.9055 221.529 31.8647Z" fill="#565656"/>
<path d="M241.361 10.8493L240.471 15.5393C240.461 15.5958 240.436 15.6485 240.398 15.6914C240.36 15.7343 240.31 15.7659 240.255 15.7824C240.2 15.799 240.142 15.8 240.086 15.7854C240.031 15.7707 239.981 15.7409 239.941 15.6993L236.151 11.9093C236.109 11.8697 236.08 11.8194 236.065 11.7639C236.05 11.7084 236.051 11.65 236.068 11.595C236.085 11.5401 236.116 11.4908 236.159 11.4527C236.202 11.4146 236.255 11.3892 236.311 11.3793L241.001 10.4893C241.05 10.4804 241.101 10.4836 241.149 10.4986C241.196 10.5135 241.24 10.5398 241.275 10.5752C241.311 10.6105 241.337 10.6539 241.352 10.7017C241.367 10.7494 241.37 10.8 241.361 10.8493Z" fill="#565656"/>
<path d="M52 118V147H83M236 118V147H205" stroke="#787878" stroke-opacity="0.2"/>
<g filter="url(#filter0_b)">
<rect x="95" y="131" width="98" height="32" rx="4" fill="#45454E" fill-opacity="0.75"/>
<path d="M124.544 152.168C123.564 152.168 122.705 151.953 121.968 151.524C121.24 151.095 120.666 150.502 120.246 149.746C119.835 148.981 119.63 148.099 119.63 147.1C119.63 146.101 119.835 145.224 120.246 144.468C120.666 143.703 121.24 143.105 121.968 142.676C122.705 142.247 123.564 142.032 124.544 142.032C125.515 142.032 126.369 142.247 127.106 142.676C127.843 143.105 128.417 143.703 128.828 144.468C129.239 145.224 129.444 146.101 129.444 147.1C129.444 148.033 129.262 148.869 128.898 149.606C128.534 150.334 128.03 150.913 127.386 151.342L129.654 153.778H127.428L125.888 152.014C125.459 152.117 125.011 152.168 124.544 152.168ZM124.544 150.558C125.477 150.558 126.219 150.25 126.77 149.634C127.33 149.018 127.61 148.173 127.61 147.1C127.61 146.027 127.33 145.182 126.77 144.566C126.219 143.95 125.477 143.642 124.544 143.642C123.611 143.642 122.864 143.95 122.304 144.566C121.744 145.182 121.464 146.027 121.464 147.1C121.464 148.173 121.744 149.018 122.304 149.634C122.864 150.25 123.611 150.558 124.544 150.558ZM132.049 152V144.244L130.439 144.622V143.25L132.805 142.2H133.911V152H132.049ZM138.909 152V150.698C139.507 150.203 140.085 149.713 140.645 149.228C141.215 148.743 141.719 148.262 142.157 147.786C142.605 147.31 142.96 146.848 143.221 146.4C143.492 145.943 143.627 145.499 143.627 145.07C143.627 144.669 143.515 144.314 143.291 144.006C143.077 143.698 142.717 143.544 142.213 143.544C141.7 143.544 141.313 143.712 141.051 144.048C140.79 144.384 140.659 144.79 140.659 145.266H138.923C138.942 144.547 139.101 143.95 139.399 143.474C139.698 142.989 140.095 142.629 140.589 142.396C141.084 142.153 141.639 142.032 142.255 142.032C143.254 142.032 144.029 142.307 144.579 142.858C145.139 143.399 145.419 144.104 145.419 144.972C145.419 145.513 145.293 146.041 145.041 146.554C144.799 147.067 144.477 147.562 144.075 148.038C143.674 148.514 143.24 148.962 142.773 149.382C142.307 149.793 141.854 150.175 141.415 150.53H145.657V152H138.909ZM151.095 152.168C150.19 152.168 149.415 151.958 148.771 151.538C148.127 151.109 147.628 150.516 147.273 149.76C146.928 148.995 146.755 148.108 146.755 147.1C146.755 146.101 146.928 145.219 147.273 144.454C147.628 143.689 148.127 143.096 148.771 142.676C149.415 142.247 150.19 142.032 151.095 142.032C152 142.032 152.775 142.247 153.419 142.676C154.063 143.096 154.558 143.689 154.903 144.454C155.258 145.219 155.435 146.101 155.435 147.1C155.435 148.108 155.258 148.995 154.903 149.76C154.558 150.516 154.063 151.109 153.419 151.538C152.775 151.958 152 152.168 151.095 152.168ZM151.095 150.558C151.832 150.558 152.434 150.25 152.901 149.634C153.368 149.018 153.601 148.173 153.601 147.1C153.601 146.027 153.368 145.182 152.901 144.566C152.434 143.95 151.832 143.642 151.095 143.642C150.348 143.642 149.742 143.95 149.275 144.566C148.818 145.182 148.589 146.027 148.589 147.1C148.589 148.173 148.818 149.018 149.275 149.634C149.742 150.25 150.348 150.558 151.095 150.558ZM156.71 152V150.698C157.307 150.203 157.886 149.713 158.446 149.228C159.015 148.743 159.519 148.262 159.958 147.786C160.406 147.31 160.761 146.848 161.022 146.4C161.293 145.943 161.428 145.499 161.428 145.07C161.428 144.669 161.316 144.314 161.092 144.006C160.877 143.698 160.518 143.544 160.014 143.544C159.501 143.544 159.113 143.712 158.852 144.048C158.591 144.384 158.46 144.79 158.46 145.266H156.724C156.743 144.547 156.901 143.95 157.2 143.474C157.499 142.989 157.895 142.629 158.39 142.396C158.885 142.153 159.44 142.032 160.056 142.032C161.055 142.032 161.829 142.307 162.38 142.858C162.94 143.399 163.22 144.104 163.22 144.972C163.22 145.513 163.094 146.041 162.842 146.554C162.599 147.067 162.277 147.562 161.876 148.038C161.475 148.514 161.041 148.962 160.574 149.382C160.107 149.793 159.655 150.175 159.216 150.53H163.458V152H156.71ZM166.01 152V144.244L164.4 144.622V143.25L166.766 142.2H167.872V152H166.01Z" fill="white"/>
</g>
<path d="M52 321V350H83M236 321V350H205" stroke="#787878" stroke-opacity="0.2"/>
<g filter="url(#filter1_b)">
<rect x="93.5" y="334" width="101" height="32" rx="4" fill="#45454E" fill-opacity="0.75"/>
<path d="M123.044 355.168C122.064 355.168 121.205 354.953 120.468 354.524C119.74 354.095 119.166 353.502 118.746 352.746C118.335 351.981 118.13 351.099 118.13 350.1C118.13 349.101 118.335 348.224 118.746 347.468C119.166 346.703 119.74 346.105 120.468 345.676C121.205 345.247 122.064 345.032 123.044 345.032C124.015 345.032 124.869 345.247 125.606 345.676C126.343 346.105 126.917 346.703 127.328 347.468C127.739 348.224 127.944 349.101 127.944 350.1C127.944 351.033 127.762 351.869 127.398 352.606C127.034 353.334 126.53 353.913 125.886 354.342L128.154 356.778H125.928L124.388 355.014C123.959 355.117 123.511 355.168 123.044 355.168ZM123.044 353.558C123.977 353.558 124.719 353.25 125.27 352.634C125.83 352.018 126.11 351.173 126.11 350.1C126.11 349.027 125.83 348.182 125.27 347.566C124.719 346.95 123.977 346.642 123.044 346.642C122.111 346.642 121.364 346.95 120.804 347.566C120.244 348.182 119.964 349.027 119.964 350.1C119.964 351.173 120.244 352.018 120.804 352.634C121.364 353.25 122.111 353.558 123.044 353.558ZM130.549 355V347.244L128.939 347.622V346.25L131.305 345.2H132.411V355H130.549ZM137.409 355V353.698C138.007 353.203 138.585 352.713 139.145 352.228C139.715 351.743 140.219 351.262 140.657 350.786C141.105 350.31 141.46 349.848 141.721 349.4C141.992 348.943 142.127 348.499 142.127 348.07C142.127 347.669 142.015 347.314 141.791 347.006C141.577 346.698 141.217 346.544 140.713 346.544C140.2 346.544 139.813 346.712 139.551 347.048C139.29 347.384 139.159 347.79 139.159 348.266H137.423C137.442 347.547 137.601 346.95 137.899 346.474C138.198 345.989 138.595 345.629 139.089 345.396C139.584 345.153 140.139 345.032 140.755 345.032C141.754 345.032 142.529 345.307 143.079 345.858C143.639 346.399 143.919 347.104 143.919 347.972C143.919 348.513 143.793 349.041 143.541 349.554C143.299 350.067 142.977 350.562 142.575 351.038C142.174 351.514 141.74 351.962 141.273 352.382C140.807 352.793 140.354 353.175 139.915 353.53H144.157V355H137.409ZM149.595 355.168C148.69 355.168 147.915 354.958 147.271 354.538C146.627 354.109 146.128 353.516 145.773 352.76C145.428 351.995 145.255 351.108 145.255 350.1C145.255 349.101 145.428 348.219 145.773 347.454C146.128 346.689 146.627 346.096 147.271 345.676C147.915 345.247 148.69 345.032 149.595 345.032C150.5 345.032 151.275 345.247 151.919 345.676C152.563 346.096 153.058 346.689 153.403 347.454C153.758 348.219 153.935 349.101 153.935 350.1C153.935 351.108 153.758 351.995 153.403 352.76C153.058 353.516 152.563 354.109 151.919 354.538C151.275 354.958 150.5 355.168 149.595 355.168ZM149.595 353.558C150.332 353.558 150.934 353.25 151.401 352.634C151.868 352.018 152.101 351.173 152.101 350.1C152.101 349.027 151.868 348.182 151.401 347.566C150.934 346.95 150.332 346.642 149.595 346.642C148.848 346.642 148.242 346.95 147.775 347.566C147.318 348.182 147.089 349.027 147.089 350.1C147.089 351.173 147.318 352.018 147.775 352.634C148.242 353.25 148.848 353.558 149.595 353.558ZM155.21 355V353.698C155.807 353.203 156.386 352.713 156.946 352.228C157.515 351.743 158.019 351.262 158.458 350.786C158.906 350.31 159.261 349.848 159.522 349.4C159.793 348.943 159.928 348.499 159.928 348.07C159.928 347.669 159.816 347.314 159.592 347.006C159.377 346.698 159.018 346.544 158.514 346.544C158.001 346.544 157.613 346.712 157.352 347.048C157.091 347.384 156.96 347.79 156.96 348.266H155.224C155.243 347.547 155.401 346.95 155.7 346.474C155.999 345.989 156.395 345.629 156.89 345.396C157.385 345.153 157.94 345.032 158.556 345.032C159.555 345.032 160.329 345.307 160.88 345.858C161.44 346.399 161.72 347.104 161.72 347.972C161.72 348.513 161.594 349.041 161.342 349.554C161.099 350.067 160.777 350.562 160.376 351.038C159.975 351.514 159.541 351.962 159.074 352.382C158.607 352.793 158.155 353.175 157.716 353.53H161.958V355H155.21ZM163.208 355V353.698C163.805 353.203 164.384 352.713 164.944 352.228C165.513 351.743 166.017 351.262 166.456 350.786C166.904 350.31 167.259 349.848 167.52 349.4C167.791 348.943 167.926 348.499 167.926 348.07C167.926 347.669 167.814 347.314 167.59 347.006C167.375 346.698 167.016 346.544 166.512 346.544C165.999 346.544 165.611 346.712 165.35 347.048C165.089 347.384 164.958 347.79 164.958 348.266H163.222C163.241 347.547 163.399 346.95 163.698 346.474C163.997 345.989 164.393 345.629 164.888 345.396C165.383 345.153 165.938 345.032 166.554 345.032C167.553 345.032 168.327 345.307 168.878 345.858C169.438 346.399 169.718 347.104 169.718 347.972C169.718 348.513 169.592 349.041 169.34 349.554C169.097 350.067 168.775 350.562 168.374 351.038C167.973 351.514 167.539 351.962 167.072 352.382C166.605 352.793 166.153 353.175 165.714 353.53H169.956V355H163.208Z" fill="white"/>
</g>
<path d="M74.6072 499.288C72.9112 499.288 71.4552 498.928 70.2392 498.208C69.0232 497.472 68.0872 496.456 67.4312 495.16C66.7752 493.848 66.4472 492.336 66.4472 490.624C66.4472 488.912 66.7752 487.4 67.4312 486.088C68.0872 484.776 69.0232 483.752 70.2392 483.016C71.4552 482.28 72.9112 481.912 74.6072 481.912C76.6232 481.912 78.2712 482.416 79.5512 483.424C80.8472 484.416 81.6552 485.816 81.9752 487.624L78.5912 487.624C78.3832 486.712 77.9352 486 77.2472 485.488C76.5752 484.96 75.6792 484.696 74.5592 484.696C73.0072 484.696 71.7912 485.224 70.9112 486.28C70.0312 487.336 69.5912 488.784 69.5912 490.624C69.5912 492.464 70.0312 493.912 70.9112 494.968C71.7912 496.008 73.0072 496.528 74.5592 496.528C75.6792 496.528 76.5752 496.288 77.2472 495.808C77.9352 495.312 78.3832 494.632 78.5912 493.768L81.9752 493.768C81.6552 495.496 80.8472 496.848 79.5512 497.824C78.2712 498.8 76.6232 499.288 74.6072 499.288ZM90.3345 499.288C89.1825 499.288 88.1425 499.024 87.2145 498.496C86.3025 497.968 85.5745 497.24 85.0305 496.312C84.5025 495.368 84.2385 494.28 84.2385 493.048C84.2385 491.816 84.5105 490.736 85.0545 489.808C85.5985 488.864 86.3265 488.128 87.2385 487.6C88.1665 487.072 89.2065 486.808 90.3585 486.808C91.4945 486.808 92.5185 487.072 93.4305 487.6C94.3585 488.128 95.0865 488.864 95.6145 489.808C96.1585 490.736 96.4305 491.816 96.4305 493.048C96.4305 494.28 96.1585 495.368 95.6145 496.312C95.0865 497.24 94.3585 497.968 93.4305 498.496C92.5025 499.024 91.4705 499.288 90.3345 499.288ZM90.3345 496.624C91.1345 496.624 91.8305 496.328 92.4225 495.736C93.0145 495.128 93.3105 494.232 93.3105 493.048C93.3105 491.864 93.0145 490.976 92.4225 490.384C91.8305 489.776 91.1425 489.472 90.3585 489.472C89.5425 489.472 88.8385 489.776 88.2465 490.384C87.6705 490.976 87.3825 491.864 87.3825 493.048C87.3825 494.232 87.6705 495.128 88.2465 495.736C88.8385 496.328 89.5345 496.624 90.3345 496.624ZM99.1772 499L99.1772 487.096L101.889 487.096L102.153 488.704C102.537 488.128 103.041 487.672 103.665 487.336C104.305 486.984 105.041 486.808 105.873 486.808C107.713 486.808 109.017 487.52 109.785 488.944C110.217 488.288 110.793 487.768 111.513 487.384C112.249 487 113.049 486.808 113.913 486.808C115.465 486.808 116.657 487.272 117.489 488.2C118.321 489.128 118.737 490.488 118.737 492.28L118.737 499L115.665 499L115.665 492.568C115.665 491.544 115.465 490.76 115.065 490.216C114.681 489.672 114.081 489.4 113.265 489.4C112.433 489.4 111.761 489.704 111.249 490.312C110.753 490.92 110.505 491.768 110.505 492.856L110.505 499L107.433 499L107.433 492.568C107.433 491.544 107.233 490.76 106.833 490.216C106.433 489.672 105.817 489.4 104.985 489.4C104.169 489.4 103.505 489.704 102.993 490.312C102.497 490.92 102.249 491.768 102.249 492.856L102.249 499L99.1772 499ZM121.654 499L121.654 487.096L124.366 487.096L124.63 488.704C125.014 488.128 125.518 487.672 126.142 487.336C126.782 486.984 127.518 486.808 128.35 486.808C130.19 486.808 131.494 487.52 132.262 488.944C132.694 488.288 133.27 487.768 133.99 487.384C134.726 487 135.526 486.808 136.39 486.808C137.942 486.808 139.134 487.272 139.966 488.2C140.798 489.128 141.214 490.488 141.214 492.28L141.214 499L138.142 499L138.142 492.568C138.142 491.544 137.942 490.76 137.542 490.216C137.158 489.672 136.558 489.4 135.742 489.4C134.91 489.4 134.238 489.704 133.726 490.312C133.23 490.92 132.982 491.768 132.982 492.856L132.982 499L129.91 499L129.91 492.568C129.91 491.544 129.71 490.76 129.31 490.216C128.91 489.672 128.294 489.4 127.462 489.4C126.646 489.4 125.982 489.704 125.47 490.312C124.974 490.92 124.726 491.768 124.726 492.856L124.726 499L121.654 499ZM149.842 499.288C148.69 499.288 147.65 499.024 146.722 498.496C145.81 497.968 145.082 497.24 144.538 496.312C144.01 495.368 143.746 494.28 143.746 493.048C143.746 491.816 144.018 490.736 144.562 489.808C145.106 488.864 145.834 488.128 146.746 487.6C147.674 487.072 148.714 486.808 149.866 486.808C151.002 486.808 152.026 487.072 152.938 487.6C153.866 488.128 154.594 488.864 155.122 489.808C155.666 490.736 155.938 491.816 155.938 493.048C155.938 494.28 155.666 495.368 155.122 496.312C154.594 497.24 153.866 497.968 152.938 498.496C152.01 499.024 150.978 499.288 149.842 499.288ZM149.842 496.624C150.642 496.624 151.338 496.328 151.93 495.736C152.522 495.128 152.818 494.232 152.818 493.048C152.818 491.864 152.522 490.976 151.93 490.384C151.338 489.776 150.65 489.472 149.866 489.472C149.05 489.472 148.346 489.776 147.754 490.384C147.178 490.976 146.89 491.864 146.89 493.048C146.89 494.232 147.178 495.128 147.754 495.736C148.346 496.328 149.042 496.624 149.842 496.624ZM164.157 499.288C163.037 499.288 162.037 499.016 161.157 498.472C160.277 497.928 159.581 497.184 159.069 496.24C158.557 495.296 158.301 494.224 158.301 493.024C158.301 491.824 158.557 490.76 159.069 489.832C159.581 488.888 160.277 488.152 161.157 487.624C162.037 487.08 163.037 486.808 164.157 486.808C165.053 486.808 165.837 486.976 166.509 487.312C167.181 487.648 167.725 488.12 168.141 488.728L168.141 481.72L171.213 481.72L171.213 499L168.477 499L168.141 497.296C167.757 497.824 167.245 498.288 166.605 498.688C165.981 499.088 165.165 499.288 164.157 499.288ZM164.805 496.6C165.797 496.6 166.605 496.272 167.229 495.616C167.869 494.944 168.189 494.088 168.189 493.048C168.189 492.008 167.869 491.16 167.229 490.504C166.605 489.832 165.797 489.496 164.805 489.496C163.829 489.496 163.021 489.824 162.381 490.48C161.741 491.136 161.421 491.984 161.421 493.024C161.421 494.064 161.741 494.92 162.381 495.592C163.021 496.264 163.829 496.6 164.805 496.6ZM175.997 485.248C175.437 485.248 174.973 485.08 174.605 484.744C174.253 484.408 174.077 483.984 174.077 483.472C174.077 482.96 174.253 482.544 174.605 482.224C174.973 481.888 175.437 481.72 175.997 481.72C176.557 481.72 177.013 481.888 177.365 482.224C177.733 482.544 177.917 482.96 177.917 483.472C177.917 483.984 177.733 484.408 177.365 484.744C177.013 485.08 176.557 485.248 175.997 485.248ZM174.461 499L174.461 487.096L177.533 487.096L177.533 499L174.461 499ZM186.044 499C184.796 499 183.796 498.696 183.044 498.088C182.292 497.48 181.916 496.4 181.916 494.848L181.916 489.664L179.876 489.664L179.876 487.096L181.916 487.096L182.276 483.904L184.988 483.904L184.988 487.096L188.204 487.096L188.204 489.664L184.988 489.664L184.988 494.872C184.988 495.448 185.108 495.848 185.348 496.072C185.604 496.28 186.036 496.384 186.644 496.384L188.132 496.384L188.132 499L186.044 499ZM192.497 485.248C191.937 485.248 191.473 485.08 191.105 484.744C190.753 484.408 190.577 483.984 190.577 483.472C190.577 482.96 190.753 482.544 191.105 482.224C191.473 481.888 191.937 481.72 192.497 481.72C193.057 481.72 193.513 481.888 193.865 482.224C194.233 482.544 194.417 482.96 194.417 483.472C194.417 483.984 194.233 484.408 193.865 484.744C193.513 485.08 193.057 485.248 192.497 485.248ZM190.961 499L190.961 487.096L194.033 487.096L194.033 499L190.961 499ZM203.024 499.288C201.824 499.288 200.76 499.032 199.832 498.52C198.904 498.008 198.176 497.288 197.648 496.36C197.12 495.432 196.856 494.36 196.856 493.144C196.856 491.912 197.112 490.816 197.624 489.856C198.152 488.896 198.872 488.152 199.784 487.624C200.712 487.08 201.8 486.808 203.048 486.808C204.216 486.808 205.248 487.064 206.144 487.576C207.04 488.088 207.736 488.792 208.232 489.688C208.744 490.568 209 491.552 209 492.64C209 492.816 208.992 493 208.976 493.192C208.976 493.384 208.968 493.584 208.952 493.792L199.904 493.792C199.968 494.72 200.288 495.448 200.864 495.976C201.456 496.504 202.168 496.768 203 496.768C203.624 496.768 204.144 496.632 204.56 496.36C204.992 496.072 205.312 495.704 205.52 495.256L208.64 495.256C208.416 496.008 208.04 496.696 207.512 497.32C207 497.928 206.36 498.408 205.592 498.76C204.84 499.112 203.984 499.288 203.024 499.288ZM203.048 489.304C202.296 489.304 201.632 489.52 201.056 489.952C200.48 490.368 200.112 491.008 199.952 491.872L205.88 491.872C205.832 491.088 205.544 490.464 205.016 490C204.488 489.536 203.832 489.304 203.048 489.304ZM216.503 499.288C215.447 499.288 214.519 499.12 213.719 498.784C212.919 498.432 212.279 497.952 211.799 497.344C211.319 496.736 211.031 496.032 210.935 495.232L214.031 495.232C214.127 495.696 214.383 496.096 214.799 496.432C215.231 496.752 215.783 496.912 216.455 496.912C217.127 496.912 217.615 496.776 217.919 496.504C218.239 496.232 218.399 495.92 218.399 495.568C218.399 495.056 218.175 494.712 217.727 494.536C217.279 494.344 216.655 494.16 215.855 493.984C215.343 493.872 214.823 493.736 214.295 493.576C213.767 493.416 213.279 493.216 212.831 492.976C212.399 492.72 212.047 492.4 211.775 492.016C211.503 491.616 211.367 491.128 211.367 490.552C211.367 489.496 211.783 488.608 212.615 487.888C213.463 487.168 214.647 486.808 216.167 486.808C217.575 486.808 218.695 487.136 219.527 487.792C220.375 488.448 220.879 489.352 221.039 490.504L218.135 490.504C217.959 489.624 217.295 489.184 216.143 489.184C215.567 489.184 215.119 489.296 214.799 489.52C214.495 489.744 214.343 490.024 214.343 490.36C214.343 490.712 214.575 490.992 215.039 491.2C215.503 491.408 216.119 491.6 216.887 491.776C217.719 491.968 218.479 492.184 219.167 492.424C219.871 492.648 220.431 492.992 220.847 493.456C221.263 493.904 221.471 494.552 221.471 495.4C221.487 496.136 221.295 496.8 220.895 497.392C220.495 497.984 219.919 498.448 219.167 498.784C218.415 499.12 217.527 499.288 216.503 499.288Z" fill="black"/>
<path d="M154.418 437.48C154.418 449.08 149.758 453 143.998 453C138.238 453 133.578 449.08 133.578 437.48C133.578 425.88 138.238 411 143.998 411C149.758 411 154.418 425.88 154.418 437.48Z" fill="#565656"/>
<path d="M139.55 432.869C139.55 433.449 139.2 433.919 138.77 433.919C138.34 433.919 138 433.449 138 432.869C138 432.289 138.35 431.869 138.77 431.869C139.19 431.869 139.55 432.299 139.55 432.869Z" fill="#787878"/>
<path d="M142.999 432.869C142.999 433.449 142.659 433.919 142.229 433.919C141.799 433.919 141.449 433.449 141.449 432.869C141.449 432.289 141.799 431.869 142.229 431.869C142.659 431.869 142.999 432.299 142.999 432.869Z" fill="#787878"/>
<path d="M146.52 432.869C146.52 433.449 146.17 433.919 145.74 433.919C145.31 433.919 145 433.449 145 432.869C145 432.289 145.34 431.869 145.77 431.869C146.2 431.869 146.52 432.299 146.52 432.869Z" fill="#787878"/>
<path d="M149.999 432.869C149.999 433.449 149.649 433.919 149.229 433.919C148.809 433.919 148.449 433.449 148.449 432.869C148.449 432.289 148.799 431.869 149.229 431.869C149.659 431.869 149.999 432.299 149.999 432.869Z" fill="#787878"/>
<path d="M139.55 429.51C139.55 430.09 139.2 430.51 138.77 430.51C138.34 430.51 138 430.05 138 429.51C138 428.97 138.35 428.51 138.77 428.51C139.19 428.51 139.55 428.93 139.55 429.51Z" fill="#787878"/>
<path d="M142.999 429.51C142.999 430.09 142.659 430.51 142.229 430.51C141.799 430.51 141.449 430.05 141.449 429.51C141.449 428.97 141.799 428.51 142.229 428.51C142.659 428.51 142.999 428.93 142.999 429.51Z" fill="#787878"/>
<path d="M146.519 429.51C146.519 430.09 146.169 430.51 145.739 430.51C145.309 430.51 144.969 430.05 144.969 429.51C144.969 428.97 145.309 428.51 145.739 428.51C146.169 428.51 146.519 428.93 146.519 429.51Z" fill="#787878"/>
<path d="M149.999 429.51C149.999 430.09 149.649 430.51 149.229 430.51C148.809 430.51 148.449 430.05 148.449 429.51C148.449 428.97 148.799 428.51 149.229 428.51C149.659 428.51 149.999 428.93 149.999 429.51Z" fill="#787878"/>
<path d="M141.288 426.15C141.288 426.72 140.938 427.15 140.518 427.15C140.098 427.15 139.738 426.68 139.738 426.15C139.738 425.62 140.088 425.15 140.518 425.15C140.948 425.15 141.288 425.57 141.288 426.15Z" fill="#787878"/>
<path d="M144 427.189C144.426 427.189 144.77 426.724 144.77 426.149C144.77 425.575 144.426 425.109 144 425.109C143.575 425.109 143.23 425.575 143.23 426.149C143.23 426.724 143.575 427.189 144 427.189Z" fill="#787878"/>
<path d="M148.261 426.15C148.261 426.72 147.911 427.15 147.481 427.15C147.051 427.15 146.711 426.68 146.711 426.15C146.711 425.62 147.061 425.15 147.481 425.15C147.901 425.15 148.261 425.57 148.261 426.15Z" fill="#787878"/>
<path d="M142.999 422.779C142.999 423.359 142.659 423.779 142.229 423.779C141.799 423.779 141.449 423.309 141.449 422.779C141.449 422.249 141.799 421.779 142.229 421.779C142.659 421.779 142.999 422.209 142.999 422.779Z" fill="#787878"/>
<path d="M146.519 422.779C146.519 423.359 146.169 423.779 145.739 423.779C145.309 423.779 144.969 423.309 144.969 422.779C144.969 422.249 145.309 421.779 145.739 421.779C146.169 421.779 146.519 422.209 146.519 422.779Z" fill="#787878"/>
<path d="M144 420.461C144.426 420.461 144.77 419.995 144.77 419.421C144.77 418.846 144.426 418.381 144 418.381C143.575 418.381 143.23 418.846 143.23 419.421C143.23 419.995 143.575 420.461 144 420.461Z" fill="#787878"/>
<path d="M139.001 443.999C141.238 439.02 144.737 434.711 149.151 431.499C153.751 428.349 157.661 428.279 159.731 428.569C159.899 428.599 160.057 428.671 160.189 428.778C160.321 428.886 160.424 429.025 160.487 429.184C160.55 429.342 160.571 429.514 160.55 429.683C160.528 429.852 160.463 430.012 160.361 430.149L156.651 434.999C155.712 436.246 155.209 437.768 155.221 439.329C155.221 451.759 150.221 455.959 144.051 455.959C142.549 456.021 141.054 455.726 139.688 455.098C138.322 454.471 137.123 453.529 136.191 452.349C136.769 449.458 137.714 446.652 139.001 443.999Z" fill="#787878"/>
<path d="M159.721 428.569C157.661 428.279 153.721 428.349 149.151 431.499C147.237 432.818 145.505 434.385 144.001 436.159C142.511 434.391 140.796 432.825 138.901 431.499C134.301 428.349 130.391 428.279 128.331 428.569C128.163 428.597 128.004 428.668 127.871 428.775C127.737 428.882 127.633 429.022 127.569 429.18C127.505 429.339 127.483 429.511 127.504 429.681C127.525 429.85 127.59 430.012 127.691 430.149L131.341 434.939C132.309 436.206 132.832 437.755 132.831 439.349C132.831 447.569 135.021 452.179 138.281 454.349C139.071 454.852 139.724 455.542 140.181 456.359C140.638 457.176 140.886 458.093 140.901 459.029V459.109H147.101C147.119 458.169 147.369 457.247 147.829 456.427C148.29 455.606 148.947 454.913 149.741 454.409C153.021 452.239 155.221 447.619 155.221 439.409C155.221 437.815 155.744 436.266 156.711 434.999L160.361 430.209C160.478 430.072 160.556 429.905 160.586 429.727C160.615 429.549 160.596 429.366 160.531 429.198C160.465 429.03 160.355 428.883 160.213 428.772C160.07 428.661 159.901 428.591 159.721 428.569Z" fill="#787878"/>
<path d="M149.081 443.999C146.836 439.016 143.327 434.707 138.901 431.499C134.301 428.349 130.391 428.279 128.331 428.569C128.163 428.597 128.004 428.668 127.871 428.775C127.737 428.882 127.633 429.022 127.569 429.18C127.505 429.339 127.483 429.511 127.504 429.681C127.525 429.85 127.59 430.012 127.691 430.149L131.341 434.939C132.309 436.206 132.832 437.755 132.831 439.349C132.831 451.799 137.831 455.999 144.001 455.999H144.091C145.17 455.982 146.228 455.707 147.178 455.197C148.128 454.687 148.943 453.957 149.554 453.069C150.164 452.18 150.554 451.158 150.689 450.088C150.824 449.019 150.702 447.932 150.331 446.919C150.001 445.929 149.551 444.999 149.081 443.999Z" fill="#787878"/>
<path d="M28.7853 299.288C27.1053 299.288 25.6332 298.92 24.3693 298.184C23.1212 297.448 22.1372 296.432 21.4172 295.136C20.7132 293.824 20.3612 292.312 20.3612 290.6C20.3612 288.888 20.7132 287.384 21.4172 286.088C22.1372 284.776 23.1213 283.752 24.3693 283.016C25.6333 282.28 27.1053 281.912 28.7853 281.912C30.4493 281.912 31.9133 282.28 33.1773 283.016C34.4413 283.752 35.4253 284.776 36.1293 286.088C36.8333 287.384 37.1853 288.888 37.1853 290.6C37.1853 292.312 36.8333 293.824 36.1293 295.136C35.4253 296.432 34.4413 297.448 33.1773 298.184C31.9133 298.92 30.4492 299.288 28.7853 299.288ZM28.7853 296.528C30.3853 296.528 31.6573 296 32.6012 294.944C33.5613 293.888 34.0413 292.44 34.0413 290.6C34.0413 288.76 33.5613 287.312 32.6013 286.256C31.6573 285.2 30.3853 284.672 28.7853 284.672C27.1853 284.672 25.9053 285.2 24.9453 286.256C23.9853 287.312 23.5053 288.76 23.5053 290.6C23.5053 292.44 23.9853 293.888 24.9453 294.944C25.9052 296 27.1853 296.528 28.7853 296.528ZM39.8256 304.28L39.8256 287.096L42.5616 287.096L42.8976 288.8C43.2816 288.272 43.7856 287.808 44.4096 287.408C45.0496 287.008 45.8736 286.808 46.8816 286.808C48.0016 286.808 49.0016 287.08 49.8816 287.624C50.7616 288.168 51.4576 288.912 51.9696 289.856C52.4816 290.8 52.7376 291.872 52.7376 293.072C52.7376 294.272 52.4816 295.344 51.9696 296.288C51.4576 297.216 50.7616 297.952 49.8816 298.496C49.0016 299.024 48.0016 299.288 46.8816 299.288C45.9856 299.288 45.2016 299.12 44.5296 298.784C43.8576 298.448 43.3136 297.976 42.8976 297.368L42.8976 304.28L39.8256 304.28ZM46.2336 296.6C47.2096 296.6 48.0176 296.272 48.6576 295.616C49.2976 294.96 49.6176 294.112 49.6176 293.072C49.6176 292.032 49.2976 291.176 48.6576 290.504C48.0176 289.832 47.2096 289.496 46.2336 289.496C45.2416 289.496 44.4256 289.832 43.7856 290.504C43.1616 291.16 42.8496 292.008 42.8496 293.048C42.8496 294.088 43.1616 294.944 43.7856 295.616C44.4256 296.272 45.2416 296.6 46.2336 296.6ZM60.3171 299C59.0691 299 58.0691 298.696 57.3171 298.088C56.5651 297.48 56.1891 296.4 56.1891 294.848L56.1891 289.664L54.1491 289.664L54.1491 287.096L56.1891 287.096L56.5491 283.904L59.2611 283.904L59.2611 287.096L62.4771 287.096L62.4771 289.664L59.2611 289.664L59.2611 294.872C59.2611 295.448 59.3811 295.848 59.6211 296.072C59.8771 296.28 60.3091 296.384 60.9171 296.384L62.4051 296.384L62.4051 299L60.3171 299ZM66.7707 285.248C66.2107 285.248 65.7467 285.08 65.3787 284.744C65.0267 284.408 64.8507 283.984 64.8507 283.472C64.8507 282.96 65.0267 282.544 65.3787 282.224C65.7467 281.888 66.2107 281.72 66.7707 281.72C67.3307 281.72 67.7867 281.888 68.1387 282.224C68.5067 282.544 68.6907 282.96 68.6907 283.472C68.6907 283.984 68.5067 284.408 68.1387 284.744C67.7867 285.08 67.3307 285.248 66.7707 285.248ZM65.2347 299L65.2347 287.096L68.3067 287.096L68.3067 299L65.2347 299ZM77.2251 299.288C76.0731 299.288 75.0331 299.024 74.1051 298.496C73.1931 297.968 72.4651 297.24 71.9211 296.312C71.3931 295.368 71.1291 294.28 71.1291 293.048C71.1291 291.816 71.4011 290.736 71.9451 289.808C72.4891 288.864 73.2171 288.128 74.1291 287.6C75.0571 287.072 76.0971 286.808 77.2491 286.808C78.3851 286.808 79.4091 287.072 80.3211 287.6C81.2491 288.128 81.9771 288.864 82.5051 289.808C83.0491 290.736 83.3211 291.816 83.3211 293.048C83.3211 294.28 83.0491 295.368 82.5051 296.312C81.9771 297.24 81.2491 297.968 80.3211 298.496C79.3931 299.024 78.3611 299.288 77.2251 299.288ZM77.2251 296.624C78.0251 296.624 78.7211 296.328 79.3131 295.736C79.9051 295.128 80.2011 294.232 80.2011 293.048C80.2011 291.864 79.9051 290.976 79.3131 290.384C78.7211 289.776 78.0331 289.472 77.2491 289.472C76.4331 289.472 75.7291 289.776 75.1371 290.384C74.5611 290.976 74.2731 291.864 74.2731 293.048C74.2731 294.232 74.5611 295.128 75.1371 295.736C75.7291 296.328 76.4251 296.624 77.2251 296.624ZM86.0678 299L86.0678 287.096L88.7798 287.096L89.0198 289.112C89.3878 288.408 89.9158 287.848 90.6038 287.432C91.3078 287.016 92.1318 286.808 93.0758 286.808C94.5478 286.808 95.6918 287.272 96.5078 288.2C97.3238 289.128 97.7318 290.488 97.7318 292.28L97.7318 299L94.6598 299L94.6598 292.568C94.6598 291.544 94.4518 290.76 94.0358 290.216C93.6198 289.672 92.9718 289.4 92.0918 289.4C91.2278 289.4 90.5158 289.704 89.9558 290.312C89.4118 290.92 89.1398 291.768 89.1398 292.856L89.1398 299L86.0678 299ZM105.589 299.288C104.533 299.288 103.605 299.12 102.805 298.784C102.005 298.432 101.365 297.952 100.885 297.344C100.405 296.736 100.117 296.032 100.021 295.232L103.117 295.232C103.213 295.696 103.469 296.096 103.885 296.432C104.317 296.752 104.869 296.912 105.541 296.912C106.213 296.912 106.701 296.776 107.005 296.504C107.325 296.232 107.485 295.92 107.485 295.568C107.485 295.056 107.261 294.712 106.813 294.536C106.365 294.344 105.741 294.16 104.941 293.984C104.429 293.872 103.909 293.736 103.381 293.576C102.853 293.416 102.365 293.216 101.917 292.976C101.485 292.72 101.133 292.4 100.861 292.016C100.589 291.616 100.453 291.128 100.453 290.552C100.453 289.496 100.869 288.608 101.701 287.888C102.549 287.168 103.733 286.808 105.253 286.808C106.661 286.808 107.781 287.136 108.613 287.792C109.461 288.448 109.965 289.352 110.125 290.504L107.221 290.504C107.045 289.624 106.381 289.184 105.229 289.184C104.653 289.184 104.205 289.296 103.885 289.52C103.581 289.744 103.429 290.024 103.429 290.36C103.429 290.712 103.661 290.992 104.125 291.2C104.589 291.408 105.205 291.6 105.973 291.776C106.805 291.968 107.565 292.184 108.253 292.424C108.957 292.648 109.517 292.992 109.933 293.456C110.349 293.904 110.557 294.552 110.557 295.4C110.573 296.136 110.381 296.8 109.981 297.392C109.581 297.984 109.005 298.448 108.253 298.784C107.501 299.12 106.613 299.288 105.589 299.288Z" fill="black"/>
<path fill-rule="evenodd" clip-rule="evenodd" d="M59.2961 241.531V241.231C59.2961 240.558 58.893 239.919 58.2199 239.52C54.191 237.143 51.6908 232.757 51.6908 228.072V221.847H50.4238C49.0852 221.847 48 220.762 48 219.423V219.423C48 218.085 49.0852 216.999 50.4238 216.999H51.6908H78.3092H79.5762C80.9148 216.999 82 218.085 82 219.423V219.423C82 220.762 80.9148 221.847 79.5762 221.847H78.3092V228.072C78.3092 232.757 75.809 237.143 71.782 239.518C71.107 239.917 70.7039 240.558 70.7039 241.231V241.531H59.2961ZM74.5066 221.847V228.072C74.5066 231.418 72.7231 234.548 69.8503 236.244C68.5555 237.008 67.6542 238.166 67.2169 239.48H62.7831C62.3439 238.166 61.4464 237.008 60.1516 236.246C57.2769 234.548 55.4934 231.418 55.4934 228.072V221.847H74.5066Z" fill="#565656"/>
<path fill-rule="evenodd" clip-rule="evenodd" d="M59.2961 241.531V241.231C59.2961 240.558 58.893 239.919 58.2199 239.52C54.191 237.143 51.6908 232.757 51.6908 228.072V221.847H50.4238C49.0852 221.847 48 220.762 48 219.423V219.423C48 218.085 49.0852 216.999 50.4238 216.999H51.6908H78.3092H79.5762C80.9148 216.999 82 218.085 82 219.423V219.423C82 220.762 80.9148 221.847 79.5762 221.847H78.3092V228.072C78.3092 232.757 75.809 237.143 71.782 239.518C71.107 239.917 70.7039 240.558 70.7039 241.231V241.531H59.2961ZM74.5066 221.847V228.072C74.5066 231.418 72.7231 234.548 69.8503 236.244C68.5555 237.008 67.6542 238.166 67.2169 239.48H62.7831C62.3439 238.166 61.4464 237.008 60.1516 236.246C57.2769 234.548 55.4934 231.418 55.4934 228.072V221.847H74.5066Z" fill="#565656"/>
<path fill-rule="evenodd" clip-rule="evenodd" d="M59.2961 241.531V241.231C59.2961 240.558 58.893 239.919 58.2199 239.52C54.191 237.143 51.6908 232.757 51.6908 228.072V221.847H50.4238C49.0852 221.847 48 220.762 48 219.423V219.423C48 218.085 49.0852 216.999 50.4238 216.999H51.6908H78.3092H79.5762C80.9148 216.999 82 218.085 82 219.423V219.423C82 220.762 80.9148 221.847 79.5762 221.847H78.3092V228.072C78.3092 232.757 75.809 237.143 71.782 239.518C71.107 239.917 70.7039 240.558 70.7039 241.231V241.531H59.2961ZM74.5066 221.847V228.072C74.5066 231.418 72.7231 234.548 69.8503 236.244C68.5555 237.008 67.6542 238.166 67.2169 239.48H62.7831C62.3439 238.166 61.4464 237.008 60.1516 236.246C57.2769 234.548 55.4934 231.418 55.4934 228.072V221.847H74.5066Z" fill="#565656"/>
<path fill-rule="evenodd" clip-rule="evenodd" d="M59.2961 241.531V241.832C59.2961 242.505 58.893 243.144 58.2199 243.543C54.191 245.919 51.6908 250.306 51.6908 254.991V261.215H50.4238C49.0852 261.215 48 262.301 48 263.639V263.639C48 264.978 49.0852 266.063 50.4238 266.063H51.6908H78.3092H79.5762C80.9148 266.063 82 264.978 82 263.639V263.639C82 262.301 80.9148 261.215 79.5762 261.215H78.3092V254.991C78.3092 250.306 75.809 245.919 71.782 243.545C71.107 243.145 70.7039 242.505 70.7039 241.832V241.531H59.2961ZM74.5066 261.215V254.991C74.5066 251.644 72.7231 248.515 69.8503 246.819C68.5555 246.054 67.6542 244.897 67.2169 243.583H62.7831C62.3439 244.897 61.4464 246.054 60.1516 246.817C57.2769 248.515 55.4934 251.644 55.4934 254.991V261.215H74.5066Z" fill="#565656"/>
<path fill-rule="evenodd" clip-rule="evenodd" d="M59.2961 241.531V241.832C59.2961 242.505 58.893 243.144 58.2199 243.543C54.191 245.919 51.6908 250.306 51.6908 254.991V261.215H50.4238C49.0852 261.215 48 262.301 48 263.639V263.639C48 264.978 49.0852 266.063 50.4238 266.063H51.6908H78.3092H79.5762C80.9148 266.063 82 264.978 82 263.639V263.639C82 262.301 80.9148 261.215 79.5762 261.215H78.3092V254.991C78.3092 250.306 75.809 245.919 71.782 243.545C71.107 243.145 70.7039 242.505 70.7039 241.832V241.531H59.2961ZM74.5066 261.215V254.991C74.5066 251.644 72.7231 248.515 69.8503 246.819C68.5555 246.054 67.6542 244.897 67.2169 243.583H62.7831C62.3439 244.897 61.4464 246.054 60.1516 246.817C57.2769 248.515 55.4934 251.644 55.4934 254.991V261.215H74.5066Z" fill="#565656"/>
<path fill-rule="evenodd" clip-rule="evenodd" d="M59.2961 241.531V241.832C59.2961 242.505 58.893 243.144 58.2199 243.543C54.191 245.919 51.6908 250.306 51.6908 254.991V261.215H50.4238C49.0852 261.215 48 262.301 48 263.639V263.639C48 264.978 49.0852 266.063 50.4238 266.063H51.6908H78.3092H79.5762C80.9148 266.063 82 264.978 82 263.639V263.639C82 262.301 80.9148 261.215 79.5762 261.215H78.3092V254.991C78.3092 250.306 75.809 245.919 71.782 243.545C71.107 243.145 70.7039 242.505 70.7039 241.832V241.531H59.2961ZM74.5066 261.215V254.991C74.5066 251.644 72.7231 248.515 69.8503 246.819C68.5555 246.054 67.6542 244.897 67.2169 243.583H62.7831C62.3439 244.897 61.4464 246.054 60.1516 246.817C57.2769 248.515 55.4934 251.644 55.4934 254.991V261.215H74.5066Z" fill="#565656"/>
<path fill-rule="evenodd" clip-rule="evenodd" d="M69.0259 259.571C70.5084 259.571 71.7101 258.369 71.7101 256.887V255.163C71.7101 252.793 70.4512 250.577 68.4233 249.376C67.9931 249.121 67.6245 248.804 67.3226 248.444C66.7225 247.727 65.9334 247.084 64.9985 247.084V247.084C64.0646 247.084 63.2767 247.725 62.678 248.442C62.3764 248.803 62.0079 249.12 61.5772 249.374C59.548 250.577 58.2891 252.793 58.2891 255.163V256.887C58.2891 258.369 59.4908 259.571 60.9733 259.571H69.0259Z" fill="#787878"/>
<path d="M61.5791 235.249C62.0098 235.503 62.3782 235.82 62.6798 236.181C63.2785 236.898 64.0665 237.539 65.0004 237.539V237.539C65.9353 237.539 66.7243 236.896 67.3244 236.179C67.6263 235.819 67.995 235.502 68.4251 235.247C69.3315 234.711 70.0843 233.971 70.6397 233.106H59.3633C59.9189 233.971 60.672 234.711 61.5791 235.249Z" fill="#787878"/>
<path d="M177.64 299L177.64 282.2L188.608 282.2L188.608 284.672L180.712 284.672L180.712 289.28L187.888 289.28L187.888 291.68L180.712 291.68L180.712 296.528L188.608 296.528L188.608 299L177.64 299ZM200.899 304.28L200.899 297.296C200.515 297.824 200.003 298.288 199.363 298.688C198.739 299.088 197.923 299.288 196.915 299.288C195.795 299.288 194.795 299.016 193.915 298.472C193.035 297.928 192.339 297.184 191.827 296.24C191.315 295.296 191.059 294.224 191.059 293.024C191.059 291.824 191.315 290.76 191.827 289.832C192.339 288.888 193.035 288.152 193.915 287.624C194.795 287.08 195.795 286.808 196.915 286.808C197.811 286.808 198.595 286.976 199.267 287.312C199.939 287.648 200.483 288.12 200.899 288.728L201.235 287.096L203.971 287.096L203.971 304.28L200.899 304.28ZM197.563 296.6C198.555 296.6 199.363 296.272 199.987 295.616C200.627 294.944 200.947 294.088 200.947 293.048C200.947 292.008 200.627 291.16 199.987 290.504C199.363 289.832 198.555 289.496 197.563 289.496C196.587 289.496 195.779 289.824 195.139 290.48C194.499 291.136 194.179 291.984 194.179 293.024C194.179 294.064 194.499 294.92 195.139 295.592C195.779 296.264 196.587 296.6 197.563 296.6ZM211.563 299.288C210.075 299.288 208.923 298.824 208.107 297.896C207.307 296.968 206.907 295.608 206.907 293.816L206.907 287.096L209.955 287.096L209.955 293.528C209.955 294.552 210.163 295.336 210.579 295.88C210.995 296.424 211.651 296.696 212.547 296.696C213.395 296.696 214.091 296.392 214.635 295.784C215.195 295.176 215.475 294.328 215.475 293.24L215.475 287.096L218.547 287.096L218.547 299L215.835 299L215.595 296.984C215.227 297.688 214.691 298.248 213.987 298.664C213.299 299.08 212.491 299.288 211.563 299.288ZM223.357 285.248C222.797 285.248 222.333 285.08 221.965 284.744C221.613 284.408 221.437 283.984 221.437 283.472C221.437 282.96 221.613 282.544 221.965 282.224C222.333 281.888 222.797 281.72 223.357 281.72C223.917 281.72 224.373 281.888 224.725 282.224C225.093 282.544 225.277 282.96 225.277 283.472C225.277 283.984 225.093 284.408 224.725 284.744C224.373 285.08 223.917 285.248 223.357 285.248ZM221.821 299L221.821 287.096L224.893 287.096L224.893 299L221.821 299ZM233.403 299C232.155 299 231.155 298.696 230.403 298.088C229.651 297.48 229.275 296.4 229.275 294.848L229.275 289.664L227.235 289.664L227.235 287.096L229.275 287.096L229.635 283.904L232.347 283.904L232.347 287.096L235.563 287.096L235.563 289.664L232.347 289.664L232.347 294.872C232.347 295.448 232.467 295.848 232.707 296.072C232.963 296.28 233.395 296.384 234.003 296.384L235.491 296.384L235.491 299L233.403 299ZM239.857 285.248C239.297 285.248 238.833 285.08 238.465 284.744C238.113 284.408 237.937 283.984 237.937 283.472C237.937 282.96 238.113 282.544 238.465 282.224C238.833 281.888 239.297 281.72 239.857 281.72C240.417 281.72 240.873 281.888 241.225 282.224C241.593 282.544 241.777 282.96 241.777 283.472C241.777 283.984 241.593 284.408 241.225 284.744C240.873 285.08 240.417 285.248 239.857 285.248ZM238.321 299L238.321 287.096L241.393 287.096L241.393 299L238.321 299ZM250.383 299.288C249.183 299.288 248.119 299.032 247.191 298.52C246.263 298.008 245.535 297.288 245.007 296.36C244.479 295.432 244.215 294.36 244.215 293.144C244.215 291.912 244.471 290.816 244.983 289.856C245.511 288.896 246.231 288.152 247.143 287.624C248.071 287.08 249.159 286.808 250.407 286.808C251.575 286.808 252.607 287.064 253.503 287.576C254.399 288.088 255.095 288.792 255.591 289.688C256.103 290.568 256.359 291.552 256.359 292.64C256.359 292.816 256.351 293 256.335 293.192C256.335 293.384 256.327 293.584 256.311 293.792L247.263 293.792C247.327 294.72 247.647 295.448 248.223 295.976C248.815 296.504 249.527 296.768 250.359 296.768C250.983 296.768 251.503 296.632 251.919 296.36C252.351 296.072 252.671 295.704 252.879 295.256L255.999 295.256C255.775 296.008 255.399 296.696 254.871 297.32C254.359 297.928 253.719 298.408 252.951 298.76C252.199 299.112 251.343 299.288 250.383 299.288ZM250.407 289.304C249.655 289.304 248.991 289.52 248.415 289.952C247.839 290.368 247.471 291.008 247.311 291.872L253.239 291.872C253.191 291.088 252.903 290.464 252.375 290C251.847 289.536 251.191 289.304 250.407 289.304ZM263.863 299.288C262.807 299.288 261.879 299.12 261.079 298.784C260.279 298.432 259.639 297.952 259.159 297.344C258.679 296.736 258.391 296.032 258.295 295.232L261.391 295.232C261.487 295.696 261.743 296.096 262.159 296.432C262.591 296.752 263.143 296.912 263.815 296.912C264.487 296.912 264.975 296.776 265.279 296.504C265.599 296.232 265.759 295.92 265.759 295.568C265.759 295.056 265.535 294.712 265.087 294.536C264.639 294.344 264.015 294.16 263.215 293.984C262.703 293.872 262.183 293.736 261.655 293.576C261.127 293.416 260.639 293.216 260.191 292.976C259.759 292.72 259.407 292.4 259.135 292.016C258.863 291.616 258.727 291.128 258.727 290.552C258.727 289.496 259.143 288.608 259.975 287.888C260.823 287.168 262.007 286.808 263.527 286.808C264.935 286.808 266.055 287.136 266.887 287.792C267.735 288.448 268.239 289.352 268.399 290.504L265.495 290.504C265.319 289.624 264.655 289.184 263.503 289.184C262.927 289.184 262.479 289.296 262.159 289.52C261.855 289.744 261.703 290.024 261.703 290.36C261.703 290.712 261.935 290.992 262.399 291.2C262.863 291.408 263.479 291.6 264.247 291.776C265.079 291.968 265.839 292.184 266.527 292.424C267.231 292.648 267.791 292.992 268.207 293.456C268.623 293.904 268.831 294.552 268.831 295.4C268.847 296.136 268.655 296.8 268.255 297.392C267.855 297.984 267.279 298.448 266.527 298.784C265.775 299.12 264.887 299.288 263.863 299.288Z" fill="black"/>
<path d="M223.95 231.36C229.572 231.36 234.13 226.802 234.13 221.18C234.13 215.558 229.572 211 223.95 211C218.327 211 213.77 215.558 213.77 221.18C213.77 226.802 218.327 231.36 223.95 231.36Z" fill="#565656"/>
<path d="M227.69 220.11V218.43C227.691 217.772 227.518 217.125 227.19 216.555C226.862 215.984 226.389 215.51 225.82 215.18C225.25 214.851 224.603 214.678 223.945 214.678C223.287 214.678 222.64 214.851 222.07 215.18C221.5 215.51 221.028 215.984 220.699 216.555C220.371 217.125 220.199 217.772 220.2 218.43V220.11C220.189 220.695 220.335 221.271 220.624 221.78C220.912 222.288 221.332 222.71 221.84 223C222.48 223.369 223.206 223.563 223.945 223.563C224.684 223.563 225.409 223.369 226.05 223C226.557 222.71 226.977 222.288 227.266 221.78C227.554 221.271 227.701 220.695 227.69 220.11Z" fill="white"/>
<path d="M224 231.36C226.608 231.361 229.117 230.354 231 228.55C230.27 227.347 229.242 226.353 228.016 225.664C226.79 224.974 225.407 224.611 224 224.611C222.593 224.611 221.21 224.974 219.984 225.664C218.758 226.353 217.73 227.347 217 228.55C218.883 230.354 221.392 231.361 224 231.36Z" fill="#787878"/>
<path d="M210.129 259.001C215.751 259.001 220.309 254.443 220.309 248.821C220.309 243.198 215.751 238.641 210.129 238.641C204.507 238.641 199.949 243.198 199.949 248.821C199.949 254.443 204.507 259.001 210.129 259.001Z" fill="#565656"/>
<path d="M213.869 247.751V246.071C213.87 245.413 213.698 244.766 213.369 244.195C213.041 243.625 212.568 243.151 211.999 242.821C211.429 242.492 210.782 242.318 210.124 242.318C209.466 242.318 208.819 242.492 208.249 242.821C207.679 243.151 207.207 243.625 206.879 244.195C206.55 244.766 206.378 245.413 206.379 246.071V247.751C206.375 248.325 206.523 248.89 206.807 249.389C207.092 249.887 207.503 250.302 207.999 250.591C208.639 250.959 209.365 251.153 210.104 251.153C210.843 251.153 211.569 250.959 212.209 250.591C212.713 250.307 213.132 249.895 213.423 249.395C213.715 248.896 213.869 248.329 213.869 247.751Z" fill="white"/>
<path d="M210.129 259C212.737 259.002 215.245 257.995 217.129 256.19C216.399 254.988 215.371 253.994 214.145 253.304C212.919 252.614 211.536 252.252 210.129 252.252C208.722 252.252 207.339 252.614 206.113 253.304C204.887 253.994 203.859 254.988 203.129 256.19C205.012 257.995 207.52 259.002 210.129 259Z" fill="#787878"/>
<path d="M237.871 259.001C243.494 259.001 248.051 254.443 248.051 248.821C248.051 243.198 243.494 238.641 237.871 238.641C232.249 238.641 227.691 243.198 227.691 248.821C227.691 254.443 232.249 259.001 237.871 259.001Z" fill="#565656"/>
<path d="M241.619 247.751V246.071C241.62 245.413 241.448 244.766 241.119 244.195C240.791 243.625 240.318 243.151 239.749 242.821C239.179 242.492 238.532 242.318 237.874 242.318C237.216 242.318 236.569 242.492 235.999 242.821C235.429 243.151 234.957 243.625 234.629 244.195C234.3 244.766 234.128 245.413 234.129 246.071V247.751C234.127 248.327 234.278 248.893 234.566 249.392C234.854 249.891 235.269 250.304 235.769 250.591C236.409 250.959 237.135 251.153 237.874 251.153C238.613 251.153 239.339 250.959 239.979 250.591C240.479 250.304 240.894 249.891 241.182 249.392C241.47 248.893 241.621 248.327 241.619 247.751Z" fill="white"/>
<path d="M237.871 259C240.48 259.002 242.988 257.995 244.871 256.19C244.141 254.988 243.113 253.994 241.887 253.304C240.661 252.614 239.278 252.252 237.871 252.252C236.464 252.252 235.081 252.614 233.855 253.304C232.629 253.994 231.601 254.988 230.871 256.19C232.755 257.995 235.263 259.002 237.871 259Z" fill="#787878"/>
<path d="M224 238.711C223.735 238.711 223.48 238.606 223.293 238.418C223.105 238.231 223 237.976 223 237.711V234.461C223 234.196 223.105 233.941 223.293 233.754C223.48 233.566 223.735 233.461 224 233.461C224.265 233.461 224.52 233.566 224.707 233.754C224.895 233.941 225 234.196 225 234.461V237.711C225 237.976 224.895 238.231 224.707 238.418C224.52 238.606 224.265 238.711 224 238.711Z" fill="#565656"/>
<path d="M220.891 240.999C220.683 240.999 220.48 240.933 220.311 240.812C220.142 240.69 220.015 240.519 219.948 240.322C219.881 240.125 219.877 239.912 219.937 239.712C219.996 239.513 220.117 239.337 220.281 239.209L224.001 236.449L227.661 239.249C227.859 239.414 227.986 239.649 228.015 239.905C228.044 240.161 227.973 240.418 227.817 240.623C227.661 240.828 227.432 240.965 227.178 241.005C226.923 241.045 226.663 240.986 226.451 240.839L224.001 238.999L221.541 240.879C221.345 240.992 221.115 241.034 220.891 240.999Z" fill="#565656"/>
<path d="M144 376V392.5" stroke="#787878" stroke-opacity="0.2"/>
<defs>
<filter id="filter0_b" x="92" y="128" width="104" height="38" filterUnits="userSpaceOnUse" color-interpolation-filters="sRGB">
<feFlood flood-opacity="0" result="BackgroundImageFix"/>
<feGaussianBlur in="BackgroundImage" stdDeviation="1.5"/>
<feComposite in2="SourceAlpha" operator="in" result="effect1_backgroundBlur"/>
<feBlend mode="normal" in="SourceGraphic" in2="effect1_backgroundBlur" result="shape"/>
</filter>
<filter id="filter1_b" x="90.5" y="331" width="107" height="38" filterUnits="userSpaceOnUse" color-interpolation-filters="sRGB">
<feFlood flood-opacity="0" result="BackgroundImageFix"/>
<feGaussianBlur in="BackgroundImage" stdDeviation="1.5"/>
<feComposite in2="SourceAlpha" operator="in" result="effect1_backgroundBlur"/>
<feBlend mode="normal" in="SourceGraphic" in2="effect1_backgroundBlur" result="shape"/>
</filter>
</defs>
</svg>
