<svg width="1049" height="169" viewBox="0 0 1049 169" fill="none" xmlns="http://www.w3.org/2000/svg">
<path d="M67 124V153H128M311 124V153H250" stroke="#787878" stroke-opacity="0.2"/>
<path d="M536 124V153H698.333M987 124V153H822.044M760.447 124V130.5" stroke="#787878" stroke-opacity="0.2"/>
<path d="M28.7853 96.288C27.1053 96.288 25.6332 95.92 24.3693 95.184C23.1212 94.448 22.1372 93.432 21.4172 92.136C20.7132 90.824 20.3612 89.312 20.3612 87.6C20.3612 85.888 20.7132 84.384 21.4172 83.088C22.1372 81.776 23.1213 80.752 24.3693 80.016C25.6333 79.28 27.1053 78.912 28.7853 78.912C30.4493 78.912 31.9133 79.28 33.1773 80.016C34.4413 80.752 35.4253 81.776 36.1293 83.088C36.8333 84.384 37.1853 85.888 37.1853 87.6C37.1853 89.312 36.8333 90.824 36.1293 92.136C35.4253 93.432 34.4413 94.448 33.1773 95.184C31.9133 95.92 30.4492 96.288 28.7853 96.288ZM28.7853 93.528C30.3853 93.528 31.6573 93 32.6012 91.944C33.5613 90.888 34.0413 89.44 34.0413 87.6C34.0413 85.76 33.5613 84.312 32.6013 83.256C31.6573 82.2 30.3853 81.672 28.7853 81.672C27.1853 81.672 25.9053 82.2 24.9453 83.256C23.9853 84.312 23.5053 85.76 23.5053 87.6C23.5053 89.44 23.9853 90.888 24.9453 91.944C25.9052 93 27.1853 93.528 28.7853 93.528ZM39.8256 101.28L39.8256 84.096L42.5616 84.096L42.8976 85.8C43.2816 85.272 43.7856 84.808 44.4096 84.408C45.0496 84.008 45.8736 83.808 46.8816 83.808C48.0016 83.808 49.0016 84.08 49.8816 84.624C50.7616 85.168 51.4576 85.912 51.9696 86.856C52.4816 87.8 52.7376 88.872 52.7376 90.072C52.7376 91.272 52.4816 92.344 51.9696 93.288C51.4576 94.216 50.7616 94.952 49.8816 95.496C49.0016 96.024 48.0016 96.288 46.8816 96.288C45.9856 96.288 45.2016 96.12 44.5296 95.784C43.8576 95.448 43.3136 94.976 42.8976 94.368L42.8976 101.28L39.8256 101.28ZM46.2336 93.6C47.2096 93.6 48.0176 93.272 48.6576 92.616C49.2976 91.96 49.6176 91.112 49.6176 90.072C49.6176 89.032 49.2976 88.176 48.6576 87.504C48.0176 86.832 47.2096 86.496 46.2336 86.496C45.2416 86.496 44.4256 86.832 43.7856 87.504C43.1616 88.16 42.8496 89.008 42.8496 90.048C42.8496 91.088 43.1616 91.944 43.7856 92.616C44.4256 93.272 45.2416 93.6 46.2336 93.6ZM60.3171 96C59.0691 96 58.0691 95.696 57.3171 95.088C56.5651 94.48 56.1891 93.4 56.1891 91.848L56.1891 86.664L54.1491 86.664L54.1491 84.096L56.1891 84.096L56.5491 80.904L59.2611 80.904L59.2611 84.096L62.4771 84.096L62.4771 86.664L59.2611 86.664L59.2611 91.872C59.2611 92.448 59.3811 92.848 59.6211 93.072C59.8771 93.28 60.3091 93.384 60.9171 93.384L62.4051 93.384L62.4051 96L60.3171 96ZM66.7707 82.248C66.2107 82.248 65.7467 82.08 65.3787 81.744C65.0267 81.408 64.8507 80.984 64.8507 80.472C64.8507 79.96 65.0267 79.544 65.3787 79.224C65.7467 78.888 66.2107 78.72 66.7707 78.72C67.3307 78.72 67.7867 78.888 68.1387 79.224C68.5067 79.544 68.6907 79.96 68.6907 80.472C68.6907 80.984 68.5067 81.408 68.1387 81.744C67.7867 82.08 67.3307 82.248 66.7707 82.248ZM65.2347 96L65.2347 84.096L68.3067 84.096L68.3067 96L65.2347 96ZM77.2251 96.288C76.0731 96.288 75.0331 96.024 74.1051 95.496C73.1931 94.968 72.4651 94.24 71.9211 93.312C71.3931 92.368 71.1291 91.28 71.1291 90.048C71.1291 88.816 71.4011 87.736 71.9451 86.808C72.4891 85.864 73.2171 85.128 74.1291 84.6C75.0571 84.072 76.0971 83.808 77.2491 83.808C78.3851 83.808 79.4091 84.072 80.3211 84.6C81.2491 85.128 81.9771 85.864 82.5051 86.808C83.0491 87.736 83.3211 88.816 83.3211 90.048C83.3211 91.28 83.0491 92.368 82.5051 93.312C81.9771 94.24 81.2491 94.968 80.3211 95.496C79.3931 96.024 78.3611 96.288 77.2251 96.288ZM77.2251 93.624C78.0251 93.624 78.7211 93.328 79.3131 92.736C79.9051 92.128 80.2011 91.232 80.2011 90.048C80.2011 88.864 79.9051 87.976 79.3131 87.384C78.7211 86.776 78.0331 86.472 77.2491 86.472C76.4331 86.472 75.7291 86.776 75.1371 87.384C74.5611 87.976 74.2731 88.864 74.2731 90.048C74.2731 91.232 74.5611 92.128 75.1371 92.736C75.7291 93.328 76.4251 93.624 77.2251 93.624ZM86.0678 96L86.0678 84.096L88.7798 84.096L89.0198 86.112C89.3878 85.408 89.9158 84.848 90.6038 84.432C91.3078 84.016 92.1318 83.808 93.0758 83.808C94.5478 83.808 95.6918 84.272 96.5078 85.2C97.3238 86.128 97.7318 87.488 97.7318 89.28L97.7318 96L94.6598 96L94.6598 89.568C94.6598 88.544 94.4518 87.76 94.0358 87.216C93.6198 86.672 92.9718 86.4 92.0918 86.4C91.2278 86.4 90.5158 86.704 89.9558 87.312C89.4118 87.92 89.1398 88.768 89.1398 89.856L89.1398 96L86.0678 96ZM105.589 96.288C104.533 96.288 103.605 96.12 102.805 95.784C102.005 95.432 101.365 94.952 100.885 94.344C100.405 93.736 100.117 93.032 100.021 92.232L103.117 92.232C103.213 92.696 103.469 93.096 103.885 93.432C104.317 93.752 104.869 93.912 105.541 93.912C106.213 93.912 106.701 93.776 107.005 93.504C107.325 93.232 107.485 92.92 107.485 92.568C107.485 92.056 107.261 91.712 106.813 91.536C106.365 91.344 105.741 91.16 104.941 90.984C104.429 90.872 103.909 90.736 103.381 90.576C102.853 90.416 102.365 90.216 101.917 89.976C101.485 89.72 101.133 89.4 100.861 89.016C100.589 88.616 100.453 88.128 100.453 87.552C100.453 86.496 100.869 85.608 101.701 84.888C102.549 84.168 103.733 83.808 105.253 83.808C106.661 83.808 107.781 84.136 108.613 84.792C109.461 85.448 109.965 86.352 110.125 87.504L107.221 87.504C107.045 86.624 106.381 86.184 105.229 86.184C104.653 86.184 104.205 86.296 103.885 86.52C103.581 86.744 103.429 87.024 103.429 87.36C103.429 87.712 103.661 87.992 104.125 88.2C104.589 88.408 105.205 88.6 105.973 88.776C106.805 88.968 107.565 89.184 108.253 89.424C108.957 89.648 109.517 89.992 109.933 90.456C110.349 90.904 110.557 91.552 110.557 92.4C110.573 93.136 110.381 93.8 109.981 94.392C109.581 94.984 109.005 95.448 108.253 95.784C107.501 96.12 106.613 96.288 105.589 96.288Z" fill="black"/>
<path fill-rule="evenodd" clip-rule="evenodd" d="M59.7961 32.4174V32.1169C59.7961 31.4439 59.393 30.805 58.7199 30.4058C54.691 28.0291 52.1908 23.6428 52.1908 18.9579V12.7331H50.9238C49.5852 12.7331 48.5 11.648 48.5 10.3094V10.3094C48.5 8.97074 49.5852 7.88557 50.9238 7.88557H52.1908H78.8092H80.0762C81.4148 7.88557 82.5 8.97074 82.5 10.3094V10.3094C82.5 11.648 81.4148 12.7331 80.0762 12.7331H78.8092V18.9579C78.8092 23.6428 76.309 28.0291 72.282 30.4039C71.607 30.8031 71.2039 31.4439 71.2039 32.1169V32.4174H59.7961ZM75.0066 12.7331V18.9579C75.0066 22.3043 73.2231 25.4338 70.3503 27.1298C69.0555 27.8941 68.1542 29.052 67.7169 30.3658H63.2831C62.8439 29.052 61.9464 27.8941 60.6516 27.1317C57.7769 25.4338 55.9934 22.3043 55.9934 18.9579V12.7331H75.0066Z" fill="#565656"/>
<path fill-rule="evenodd" clip-rule="evenodd" d="M59.7961 32.4174V32.1169C59.7961 31.4439 59.393 30.805 58.7199 30.4058C54.691 28.0291 52.1908 23.6428 52.1908 18.9579V12.7331H50.9238C49.5852 12.7331 48.5 11.648 48.5 10.3094V10.3094C48.5 8.97074 49.5852 7.88557 50.9238 7.88557H52.1908H78.8092H80.0762C81.4148 7.88557 82.5 8.97074 82.5 10.3094V10.3094C82.5 11.648 81.4148 12.7331 80.0762 12.7331H78.8092V18.9579C78.8092 23.6428 76.309 28.0291 72.282 30.4039C71.607 30.8031 71.2039 31.4439 71.2039 32.1169V32.4174H59.7961ZM75.0066 12.7331V18.9579C75.0066 22.3043 73.2231 25.4338 70.3503 27.1298C69.0555 27.8941 68.1542 29.052 67.7169 30.3658H63.2831C62.8439 29.052 61.9464 27.8941 60.6516 27.1317C57.7769 25.4338 55.9934 22.3043 55.9934 18.9579V12.7331H75.0066Z" fill="#565656"/>
<path fill-rule="evenodd" clip-rule="evenodd" d="M59.7961 32.4174V32.1169C59.7961 31.4439 59.393 30.805 58.7199 30.4058C54.691 28.0291 52.1908 23.6428 52.1908 18.9579V12.7331H50.9238C49.5852 12.7331 48.5 11.648 48.5 10.3094V10.3094C48.5 8.97074 49.5852 7.88557 50.9238 7.88557H52.1908H78.8092H80.0762C81.4148 7.88557 82.5 8.97074 82.5 10.3094V10.3094C82.5 11.648 81.4148 12.7331 80.0762 12.7331H78.8092V18.9579C78.8092 23.6428 76.309 28.0291 72.282 30.4039C71.607 30.8031 71.2039 31.4439 71.2039 32.1169V32.4174H59.7961ZM75.0066 12.7331V18.9579C75.0066 22.3043 73.2231 25.4338 70.3503 27.1298C69.0555 27.8941 68.1542 29.052 67.7169 30.3658H63.2831C62.8439 29.052 61.9464 27.8941 60.6516 27.1317C57.7769 25.4338 55.9934 22.3043 55.9934 18.9579V12.7331H75.0066Z" fill="#565656"/>
<path fill-rule="evenodd" clip-rule="evenodd" d="M59.7961 32.4174V32.7178C59.7961 33.3908 59.393 34.0297 58.7199 34.429C54.691 36.8056 52.1908 41.1919 52.1908 45.8768V52.1016H50.9238C49.5852 52.1016 48.5 53.1867 48.5 54.5254V54.5254C48.5 55.864 49.5852 56.9491 50.9238 56.9491H52.1908H78.8092H80.0762C81.4148 56.9491 82.5 55.864 82.5 54.5254V54.5254C82.5 53.1867 81.4148 52.1016 80.0762 52.1016H78.8092V45.8768C78.8092 41.1919 76.309 36.8056 72.282 34.4309C71.607 34.0316 71.2039 33.3908 71.2039 32.7178V32.4174H59.7961ZM75.0066 52.1016V45.8768C75.0066 42.5305 73.2231 39.4009 70.3503 37.7049C69.0555 36.9406 68.1542 35.7827 67.7169 34.4689H63.2831C62.8439 35.7827 61.9464 36.9406 60.6516 37.703C57.7769 39.4009 55.9934 42.5305 55.9934 45.8768V52.1016H75.0066Z" fill="#565656"/>
<path fill-rule="evenodd" clip-rule="evenodd" d="M59.7961 32.4174V32.7178C59.7961 33.3908 59.393 34.0297 58.7199 34.429C54.691 36.8056 52.1908 41.1919 52.1908 45.8768V52.1016H50.9238C49.5852 52.1016 48.5 53.1867 48.5 54.5254V54.5254C48.5 55.864 49.5852 56.9491 50.9238 56.9491H52.1908H78.8092H80.0762C81.4148 56.9491 82.5 55.864 82.5 54.5254V54.5254C82.5 53.1867 81.4148 52.1016 80.0762 52.1016H78.8092V45.8768C78.8092 41.1919 76.309 36.8056 72.282 34.4309C71.607 34.0316 71.2039 33.3908 71.2039 32.7178V32.4174H59.7961ZM75.0066 52.1016V45.8768C75.0066 42.5305 73.2231 39.4009 70.3503 37.7049C69.0555 36.9406 68.1542 35.7827 67.7169 34.4689H63.2831C62.8439 35.7827 61.9464 36.9406 60.6516 37.703C57.7769 39.4009 55.9934 42.5305 55.9934 45.8768V52.1016H75.0066Z" fill="#565656"/>
<path fill-rule="evenodd" clip-rule="evenodd" d="M59.7961 32.4174V32.7178C59.7961 33.3908 59.393 34.0297 58.7199 34.429C54.691 36.8056 52.1908 41.1919 52.1908 45.8768V52.1016H50.9238C49.5852 52.1016 48.5 53.1867 48.5 54.5254V54.5254C48.5 55.864 49.5852 56.9491 50.9238 56.9491H52.1908H78.8092H80.0762C81.4148 56.9491 82.5 55.864 82.5 54.5254V54.5254C82.5 53.1867 81.4148 52.1016 80.0762 52.1016H78.8092V45.8768C78.8092 41.1919 76.309 36.8056 72.282 34.4309C71.607 34.0316 71.2039 33.3908 71.2039 32.7178V32.4174H59.7961ZM75.0066 52.1016V45.8768C75.0066 42.5305 73.2231 39.4009 70.3503 37.7049C69.0555 36.9406 68.1542 35.7827 67.7169 34.4689H63.2831C62.8439 35.7827 61.9464 36.9406 60.6516 37.703C57.7769 39.4009 55.9934 42.5305 55.9934 45.8768V52.1016H75.0066Z" fill="#565656"/>
<path fill-rule="evenodd" clip-rule="evenodd" d="M69.5263 50.4561C71.0087 50.4561 72.2105 49.2543 72.2105 47.7718V46.0479C72.2105 43.6782 70.9516 41.4619 68.9237 40.2609C68.4935 40.0061 68.1249 39.6896 67.8229 39.3289C67.2229 38.612 66.4338 37.9692 65.4989 37.9692V37.9692C64.565 37.9692 63.7771 38.6107 63.1784 39.3274C62.8767 39.6885 62.5083 40.0051 62.0776 40.2595C60.0483 41.4619 58.7894 43.6782 58.7894 46.0479V47.7718C58.7894 49.2543 59.9912 50.4561 61.4736 50.4561H69.5263Z" fill="#787878"/>
<path d="M62.0782 26.1339C62.5089 26.3883 62.8773 26.705 63.179 27.066C63.7777 27.7828 64.5656 28.4242 65.4995 28.4242V28.4242C66.4344 28.4242 67.2235 27.7814 67.8236 27.0645C68.1255 26.7038 68.4941 26.3873 68.9243 26.1326C69.8307 25.5958 70.5834 24.8562 71.1388 23.9907H59.8624C60.418 24.8564 61.1712 25.5965 62.0782 26.1339Z" fill="#787878"/>
<path d="M266.241 96L266.241 79.2L277.089 79.2L277.089 81.672L269.313 81.672L269.313 86.376L275.601 86.376L275.601 88.8L269.313 88.8L269.313 96L266.241 96ZM283.852 96.288C282.364 96.288 281.212 95.824 280.396 94.896C279.596 93.968 279.196 92.608 279.196 90.816L279.196 84.096L282.244 84.096L282.244 90.528C282.244 91.552 282.452 92.336 282.868 92.88C283.284 93.424 283.94 93.696 284.836 93.696C285.684 93.696 286.38 93.392 286.924 92.784C287.484 92.176 287.764 91.328 287.764 90.24L287.764 84.096L290.836 84.096L290.836 96L288.124 96L287.884 93.984C287.516 94.688 286.98 95.248 286.276 95.664C285.588 96.08 284.78 96.288 283.852 96.288ZM299.294 96C298.046 96 297.046 95.696 296.294 95.088C295.542 94.48 295.166 93.4 295.166 91.848L295.166 86.664L293.126 86.664L293.126 84.096L295.166 84.096L295.526 80.904L298.238 80.904L298.238 84.096L301.454 84.096L301.454 86.664L298.238 86.664L298.238 91.872C298.238 92.448 298.358 92.848 298.598 93.072C298.854 93.28 299.286 93.384 299.894 93.384L301.382 93.384L301.382 96L299.294 96ZM308.555 96.288C307.067 96.288 305.915 95.824 305.099 94.896C304.299 93.968 303.899 92.608 303.899 90.816L303.899 84.096L306.947 84.096L306.947 90.528C306.947 91.552 307.155 92.336 307.571 92.88C307.987 93.424 308.643 93.696 309.539 93.696C310.387 93.696 311.083 93.392 311.627 92.784C312.187 92.176 312.467 91.328 312.467 90.24L312.467 84.096L315.539 84.096L315.539 96L312.827 96L312.587 93.984C312.219 94.688 311.683 95.248 310.979 95.664C310.291 96.08 309.483 96.288 308.555 96.288ZM318.693 96L318.693 84.096L321.429 84.096L321.717 86.328C322.149 85.56 322.733 84.952 323.469 84.504C324.221 84.04 325.101 83.808 326.109 83.808L326.109 87.048L325.245 87.048C324.573 87.048 323.973 87.152 323.445 87.36C322.917 87.568 322.501 87.928 322.197 88.44C321.909 88.952 321.765 89.664 321.765 90.576L321.765 96L318.693 96ZM333.782 96.288C332.582 96.288 331.517 96.032 330.589 95.52C329.661 95.008 328.933 94.288 328.405 93.36C327.877 92.432 327.613 91.36 327.613 90.144C327.613 88.912 327.869 87.816 328.381 86.856C328.909 85.896 329.63 85.152 330.541 84.624C331.47 84.08 332.558 83.808 333.806 83.808C334.974 83.808 336.006 84.064 336.902 84.576C337.798 85.088 338.494 85.792 338.989 86.688C339.501 87.568 339.758 88.552 339.757 89.64C339.757 89.816 339.75 90 339.734 90.192C339.734 90.384 339.726 90.584 339.71 90.792L330.662 90.792C330.726 91.72 331.045 92.448 331.621 92.976C332.214 93.504 332.926 93.768 333.757 93.768C334.382 93.768 334.902 93.632 335.317 93.36C335.75 93.072 336.07 92.704 336.278 92.256L339.398 92.256C339.174 93.008 338.798 93.696 338.27 94.32C337.758 94.928 337.118 95.408 336.35 95.76C335.598 96.112 334.742 96.288 333.782 96.288ZM333.806 86.304C333.054 86.304 332.39 86.52 331.814 86.952C331.238 87.368 330.869 88.008 330.709 88.872L336.638 88.872C336.59 88.088 336.302 87.464 335.774 87C335.246 86.536 334.59 86.304 333.806 86.304ZM347.261 96.288C346.205 96.288 345.277 96.12 344.477 95.784C343.677 95.432 343.037 94.952 342.557 94.344C342.077 93.736 341.789 93.032 341.693 92.232L344.789 92.232C344.885 92.696 345.141 93.096 345.557 93.432C345.989 93.752 346.541 93.912 347.213 93.912C347.885 93.912 348.373 93.776 348.677 93.504C348.997 93.232 349.157 92.92 349.157 92.568C349.157 92.056 348.933 91.712 348.485 91.536C348.037 91.344 347.413 91.16 346.613 90.984C346.101 90.872 345.581 90.736 345.053 90.576C344.525 90.416 344.037 90.216 343.589 89.976C343.157 89.72 342.805 89.4 342.533 89.016C342.261 88.616 342.125 88.128 342.125 87.552C342.125 86.496 342.541 85.608 343.373 84.888C344.221 84.168 345.405 83.808 346.925 83.808C348.333 83.808 349.453 84.136 350.285 84.792C351.133 85.448 351.637 86.352 351.797 87.504L348.893 87.504C348.717 86.624 348.053 86.184 346.901 86.184C346.325 86.184 345.877 86.296 345.557 86.52C345.253 86.744 345.101 87.024 345.101 87.36C345.101 87.712 345.333 87.992 345.797 88.2C346.261 88.408 346.877 88.6 347.645 88.776C348.477 88.968 349.237 89.184 349.925 89.424C350.629 89.648 351.189 89.992 351.605 90.456C352.021 90.904 352.229 91.552 352.229 92.4C352.245 93.136 352.053 93.8 351.653 94.392C351.253 94.984 350.677 95.448 349.925 95.784C349.173 96.12 348.285 96.288 347.261 96.288Z" fill="black"/>
<path d="M296.249 39.5498H288.999C288.607 39.5498 288.289 39.8677 288.289 40.2598V53.2898C288.289 53.6819 288.607 53.9998 288.999 53.9998H296.249C296.641 53.9998 296.959 53.6819 296.959 53.2898V40.2598C296.959 39.8677 296.641 39.5498 296.249 39.5498Z" fill="#565656"/>
<path d="M307.499 29.04H300.249C299.857 29.04 299.539 29.3579 299.539 29.75V53.29C299.539 53.6822 299.857 54 300.249 54H307.499C307.891 54 308.209 53.6822 308.209 53.29V29.75C308.209 29.3579 307.891 29.04 307.499 29.04Z" fill="#787878"/>
<path d="M318.749 18.5195H311.499C311.107 18.5195 310.789 18.8374 310.789 19.2295V53.2895C310.789 53.6817 311.107 53.9995 311.499 53.9995H318.749C319.141 53.9995 319.459 53.6817 319.459 53.2895V19.2295C319.459 18.8374 319.141 18.5195 318.749 18.5195Z" fill="#565656"/>
<path d="M329.999 8H322.749C322.357 8 322.039 8.31788 322.039 8.71V53.29C322.039 53.6821 322.357 54 322.749 54H329.999C330.391 54 330.709 53.6821 330.709 53.29V8.71C330.709 8.31788 330.391 8 329.999 8Z" fill="#787878"/>
<path d="M332.6 52H286.4C285.903 52 285.5 52.4029 285.5 52.9V55.1C285.5 55.5971 285.903 56 286.4 56H332.6C333.097 56 333.5 55.5971 333.5 55.1V52.9C333.5 52.4029 333.097 52 332.6 52Z" fill="#565656"/>
<path d="M290.029 31.8656L288.466 30.3029C288.425 30.2621 288.393 30.2136 288.371 30.1602C288.349 30.1068 288.337 30.0496 288.337 29.9918C288.337 29.934 288.349 29.8768 288.371 29.8234C288.393 29.77 288.425 29.7215 288.466 29.6807L306.144 12.003L308.329 14.188L290.651 31.8656C290.61 31.9065 290.562 31.9389 290.508 31.961C290.455 31.9831 290.398 31.9945 290.34 31.9945C290.282 31.9945 290.225 31.9831 290.171 31.961C290.118 31.9389 290.07 31.9065 290.029 31.8656V31.8656Z" fill="#565656"/>
<path d="M309.861 10.8493L308.971 15.5393C308.961 15.5958 308.936 15.6485 308.898 15.6914C308.86 15.7343 308.81 15.7659 308.755 15.7824C308.7 15.799 308.642 15.8 308.586 15.7854C308.531 15.7707 308.481 15.7409 308.441 15.6993L304.651 11.9093C304.609 11.8697 304.58 11.8194 304.565 11.7639C304.55 11.7084 304.551 11.65 304.568 11.595C304.585 11.5401 304.616 11.4908 304.659 11.4527C304.702 11.4146 304.755 11.3892 304.811 11.3793L309.501 10.4893C309.55 10.4804 309.601 10.4836 309.649 10.4986C309.696 10.5135 309.74 10.5398 309.775 10.5752C309.811 10.6105 309.837 10.6539 309.852 10.7017C309.867 10.7494 309.87 10.8 309.861 10.8493Z" fill="#565656"/>
<path d="M465.107 96.288C463.411 96.288 461.955 95.928 460.739 95.208C459.523 94.472 458.587 93.456 457.931 92.16C457.275 90.848 456.947 89.336 456.947 87.624C456.947 85.912 457.275 84.4 457.931 83.088C458.587 81.776 459.523 80.752 460.739 80.016C461.955 79.28 463.411 78.912 465.107 78.912C467.123 78.912 468.771 79.416 470.051 80.424C471.347 81.416 472.155 82.816 472.475 84.624L469.091 84.624C468.883 83.712 468.435 83 467.747 82.488C467.075 81.96 466.179 81.696 465.059 81.696C463.507 81.696 462.291 82.224 461.411 83.28C460.531 84.336 460.091 85.784 460.091 87.624C460.091 89.464 460.531 90.912 461.411 91.968C462.291 93.008 463.507 93.528 465.059 93.528C466.179 93.528 467.075 93.288 467.747 92.808C468.435 92.312 468.883 91.632 469.091 90.768L472.475 90.768C472.155 92.496 471.347 93.848 470.051 94.824C468.771 95.8 467.123 96.288 465.107 96.288ZM480.834 96.288C479.682 96.288 478.642 96.024 477.714 95.496C476.802 94.968 476.074 94.24 475.53 93.312C475.002 92.368 474.738 91.28 474.738 90.048C474.738 88.816 475.01 87.736 475.554 86.808C476.098 85.864 476.827 85.128 477.739 84.6C478.667 84.072 479.707 83.808 480.859 83.808C481.995 83.808 483.019 84.072 483.931 84.6C484.859 85.128 485.587 85.864 486.114 86.808C486.659 87.736 486.931 88.816 486.931 90.048C486.931 91.28 486.659 92.368 486.114 93.312C485.586 94.24 484.859 94.968 483.931 95.496C483.003 96.024 481.97 96.288 480.834 96.288ZM480.834 93.624C481.635 93.624 482.331 93.328 482.923 92.736C483.515 92.128 483.811 91.232 483.811 90.048C483.811 88.864 483.515 87.976 482.923 87.384C482.331 86.776 481.643 86.472 480.859 86.472C480.043 86.472 479.339 86.776 478.746 87.384C478.17 87.976 477.882 88.864 477.882 90.048C477.882 91.232 478.17 92.128 478.746 92.736C479.339 93.328 480.035 93.624 480.834 93.624ZM489.677 96L489.677 84.096L492.389 84.096L492.653 85.704C493.037 85.128 493.541 84.672 494.165 84.336C494.805 83.984 495.541 83.808 496.373 83.808C498.213 83.808 499.517 84.52 500.285 85.944C500.717 85.288 501.293 84.768 502.013 84.384C502.749 84 503.549 83.808 504.413 83.808C505.965 83.808 507.157 84.272 507.989 85.2C508.821 86.128 509.237 87.488 509.237 89.28L509.237 96L506.165 96L506.165 89.568C506.165 88.544 505.965 87.76 505.565 87.216C505.181 86.672 504.581 86.4 503.765 86.4C502.933 86.4 502.261 86.704 501.749 87.312C501.253 87.92 501.005 88.768 501.005 89.856L501.005 96L497.933 96L497.933 89.568C497.933 88.544 497.733 87.76 497.333 87.216C496.933 86.672 496.317 86.4 495.485 86.4C494.669 86.4 494.005 86.704 493.493 87.312C492.997 87.92 492.749 88.768 492.749 89.856L492.749 96L489.677 96ZM512.154 96L512.154 84.096L514.866 84.096L515.13 85.704C515.514 85.128 516.018 84.672 516.642 84.336C517.282 83.984 518.018 83.808 518.85 83.808C520.69 83.808 521.994 84.52 522.762 85.944C523.194 85.288 523.77 84.768 524.49 84.384C525.226 84 526.026 83.808 526.89 83.808C528.442 83.808 529.634 84.272 530.466 85.2C531.298 86.128 531.714 87.488 531.714 89.28L531.714 96L528.642 96L528.642 89.568C528.642 88.544 528.442 87.76 528.042 87.216C527.658 86.672 527.058 86.4 526.242 86.4C525.41 86.4 524.738 86.704 524.226 87.312C523.73 87.92 523.482 88.768 523.482 89.856L523.482 96L520.41 96L520.41 89.568C520.41 88.544 520.21 87.76 519.81 87.216C519.41 86.672 518.794 86.4 517.962 86.4C517.146 86.4 516.482 86.704 515.97 87.312C515.474 87.92 515.226 88.768 515.226 89.856L515.226 96L512.154 96ZM540.342 96.288C539.19 96.288 538.15 96.024 537.222 95.496C536.31 94.968 535.582 94.24 535.038 93.312C534.51 92.368 534.246 91.28 534.246 90.048C534.246 88.816 534.518 87.736 535.062 86.808C535.606 85.864 536.334 85.128 537.246 84.6C538.174 84.072 539.214 83.808 540.366 83.808C541.502 83.808 542.526 84.072 543.438 84.6C544.366 85.128 545.094 85.864 545.622 86.808C546.166 87.736 546.438 88.816 546.438 90.048C546.438 91.28 546.166 92.368 545.622 93.312C545.094 94.24 544.366 94.968 543.438 95.496C542.51 96.024 541.478 96.288 540.342 96.288ZM540.342 93.624C541.142 93.624 541.838 93.328 542.43 92.736C543.022 92.128 543.318 91.232 543.318 90.048C543.318 88.864 543.022 87.976 542.43 87.384C541.838 86.776 541.15 86.472 540.366 86.472C539.55 86.472 538.846 86.776 538.254 87.384C537.678 87.976 537.39 88.864 537.39 90.048C537.39 91.232 537.678 92.128 538.254 92.736C538.846 93.328 539.542 93.624 540.342 93.624ZM554.657 96.288C553.537 96.288 552.537 96.016 551.657 95.472C550.777 94.928 550.081 94.184 549.569 93.24C549.057 92.296 548.801 91.224 548.801 90.024C548.801 88.824 549.057 87.76 549.569 86.832C550.081 85.888 550.777 85.152 551.657 84.624C552.537 84.08 553.537 83.808 554.657 83.808C555.553 83.808 556.337 83.976 557.009 84.312C557.681 84.648 558.225 85.12 558.641 85.728L558.641 78.72L561.713 78.72L561.713 96L558.977 96L558.641 94.296C558.257 94.824 557.745 95.288 557.105 95.688C556.481 96.088 555.665 96.288 554.657 96.288ZM555.305 93.6C556.297 93.6 557.105 93.272 557.729 92.616C558.369 91.944 558.689 91.088 558.689 90.048C558.689 89.008 558.369 88.16 557.729 87.504C557.105 86.832 556.297 86.496 555.305 86.496C554.329 86.496 553.521 86.824 552.881 87.48C552.241 88.136 551.921 88.984 551.921 90.024C551.921 91.064 552.241 91.92 552.881 92.592C553.521 93.264 554.329 93.6 555.305 93.6ZM566.497 82.248C565.937 82.248 565.473 82.08 565.105 81.744C564.753 81.408 564.577 80.984 564.577 80.472C564.577 79.96 564.753 79.544 565.105 79.224C565.473 78.888 565.937 78.72 566.497 78.72C567.057 78.72 567.513 78.888 567.865 79.224C568.233 79.544 568.417 79.96 568.417 80.472C568.417 80.984 568.233 81.408 567.865 81.744C567.513 82.08 567.057 82.248 566.497 82.248ZM564.961 96L564.961 84.096L568.033 84.096L568.033 96L564.961 96ZM576.544 96C575.296 96 574.296 95.696 573.544 95.088C572.792 94.48 572.416 93.4 572.416 91.848L572.416 86.664L570.376 86.664L570.376 84.096L572.416 84.096L572.776 80.904L575.488 80.904L575.488 84.096L578.704 84.096L578.704 86.664L575.488 86.664L575.488 91.872C575.488 92.448 575.608 92.848 575.848 93.072C576.104 93.28 576.536 93.384 577.144 93.384L578.632 93.384L578.632 96L576.544 96ZM582.997 82.248C582.437 82.248 581.973 82.08 581.605 81.744C581.253 81.408 581.077 80.984 581.077 80.472C581.077 79.96 581.253 79.544 581.605 79.224C581.973 78.888 582.437 78.72 582.997 78.72C583.557 78.72 584.013 78.888 584.365 79.224C584.733 79.544 584.917 79.96 584.917 80.472C584.917 80.984 584.733 81.408 584.365 81.744C584.013 82.08 583.557 82.248 582.997 82.248ZM581.461 96L581.461 84.096L584.533 84.096L584.533 96L581.461 96ZM593.524 96.288C592.324 96.288 591.26 96.032 590.332 95.52C589.404 95.008 588.676 94.288 588.148 93.36C587.62 92.432 587.356 91.36 587.356 90.144C587.356 88.912 587.612 87.816 588.124 86.856C588.652 85.896 589.372 85.152 590.284 84.624C591.212 84.08 592.3 83.808 593.548 83.808C594.716 83.808 595.748 84.064 596.644 84.576C597.54 85.088 598.236 85.792 598.732 86.688C599.244 87.568 599.5 88.552 599.5 89.64C599.5 89.816 599.492 90 599.476 90.192C599.476 90.384 599.468 90.584 599.452 90.792L590.404 90.792C590.468 91.72 590.788 92.448 591.364 92.976C591.956 93.504 592.668 93.768 593.5 93.768C594.124 93.768 594.644 93.632 595.06 93.36C595.492 93.072 595.812 92.704 596.02 92.256L599.14 92.256C598.916 93.008 598.54 93.696 598.012 94.32C597.5 94.928 596.86 95.408 596.092 95.76C595.34 96.112 594.484 96.288 593.524 96.288ZM593.548 86.304C592.796 86.304 592.132 86.52 591.556 86.952C590.98 87.368 590.612 88.008 590.452 88.872L596.38 88.872C596.332 88.088 596.044 87.464 595.516 87C594.988 86.536 594.332 86.304 593.548 86.304ZM607.003 96.288C605.947 96.288 605.019 96.12 604.219 95.784C603.419 95.432 602.779 94.952 602.299 94.344C601.819 93.736 601.531 93.032 601.435 92.232L604.531 92.232C604.627 92.696 604.883 93.096 605.299 93.432C605.731 93.752 606.283 93.912 606.955 93.912C607.627 93.912 608.115 93.776 608.419 93.504C608.739 93.232 608.899 92.92 608.899 92.568C608.899 92.056 608.675 91.712 608.227 91.536C607.779 91.344 607.155 91.16 606.355 90.984C605.843 90.872 605.323 90.736 604.795 90.576C604.267 90.416 603.779 90.216 603.331 89.976C602.899 89.72 602.547 89.4 602.275 89.016C602.003 88.616 601.867 88.128 601.867 87.552C601.867 86.496 602.283 85.608 603.115 84.888C603.963 84.168 605.147 83.808 606.667 83.808C608.075 83.808 609.195 84.136 610.027 84.792C610.875 85.448 611.379 86.352 611.539 87.504L608.635 87.504C608.459 86.624 607.795 86.184 606.643 86.184C606.067 86.184 605.619 86.296 605.299 86.52C604.995 86.744 604.843 87.024 604.843 87.36C604.843 87.712 605.075 87.992 605.539 88.2C606.003 88.408 606.619 88.6 607.387 88.776C608.219 88.968 608.979 89.184 609.667 89.424C610.371 89.648 610.931 89.992 611.347 90.456C611.763 90.904 611.971 91.552 611.971 92.4C611.987 93.136 611.795 93.8 611.395 94.392C610.995 94.984 610.419 95.448 609.667 95.784C608.915 96.12 608.027 96.288 607.003 96.288Z" fill="black"/>
<path d="M545.918 34.48C545.918 46.08 541.258 50 535.498 50C529.738 50 525.078 46.08 525.078 34.48C525.078 22.88 529.738 8 535.498 8C541.258 8 545.918 22.88 545.918 34.48Z" fill="#565656"/>
<path d="M531.05 29.87C531.05 30.45 530.7 30.92 530.27 30.92C529.84 30.92 529.5 30.45 529.5 29.87C529.5 29.29 529.85 28.87 530.27 28.87C530.69 28.87 531.05 29.3 531.05 29.87Z" fill="#787878"/>
<path d="M534.5 29.87C534.5 30.45 534.16 30.92 533.73 30.92C533.3 30.92 532.95 30.45 532.95 29.87C532.95 29.29 533.3 28.87 533.73 28.87C534.16 28.87 534.5 29.3 534.5 29.87Z" fill="#787878"/>
<path d="M538.02 29.87C538.02 30.45 537.67 30.92 537.24 30.92C536.81 30.92 536.5 30.45 536.5 29.87C536.5 29.29 536.84 28.87 537.27 28.87C537.7 28.87 538.02 29.3 538.02 29.87Z" fill="#787878"/>
<path d="M541.5 29.87C541.5 30.45 541.15 30.92 540.73 30.92C540.31 30.92 539.95 30.45 539.95 29.87C539.95 29.29 540.3 28.87 540.73 28.87C541.16 28.87 541.5 29.3 541.5 29.87Z" fill="#787878"/>
<path d="M531.05 26.51C531.05 27.09 530.7 27.51 530.27 27.51C529.84 27.51 529.5 27.05 529.5 26.51C529.5 25.97 529.85 25.51 530.27 25.51C530.69 25.51 531.05 25.93 531.05 26.51Z" fill="#787878"/>
<path d="M534.5 26.51C534.5 27.09 534.16 27.51 533.73 27.51C533.3 27.51 532.95 27.05 532.95 26.51C532.95 25.97 533.3 25.51 533.73 25.51C534.16 25.51 534.5 25.93 534.5 26.51Z" fill="#787878"/>
<path d="M538.019 26.5098C538.019 27.0898 537.669 27.5098 537.239 27.5098C536.809 27.5098 536.469 27.0498 536.469 26.5098C536.469 25.9698 536.809 25.5098 537.239 25.5098C537.669 25.5098 538.019 25.9298 538.019 26.5098Z" fill="#787878"/>
<path d="M541.5 26.51C541.5 27.09 541.15 27.51 540.73 27.51C540.31 27.51 539.95 27.05 539.95 26.51C539.95 25.97 540.3 25.51 540.73 25.51C541.16 25.51 541.5 25.93 541.5 26.51Z" fill="#787878"/>
<path d="M532.788 23.1504C532.788 23.7204 532.438 24.1504 532.018 24.1504C531.598 24.1504 531.238 23.6804 531.238 23.1504C531.238 22.6204 531.588 22.1504 532.018 22.1504C532.448 22.1504 532.788 22.5704 532.788 23.1504Z" fill="#787878"/>
<path d="M535.5 24.19C535.925 24.19 536.27 23.7244 536.27 23.15C536.27 22.5756 535.925 22.11 535.5 22.11C535.075 22.11 534.73 22.5756 534.73 23.15C534.73 23.7244 535.075 24.19 535.5 24.19Z" fill="#787878"/>
<path d="M539.76 23.15C539.76 23.72 539.41 24.15 538.98 24.15C538.55 24.15 538.21 23.68 538.21 23.15C538.21 22.62 538.56 22.15 538.98 22.15C539.4 22.15 539.76 22.57 539.76 23.15Z" fill="#787878"/>
<path d="M534.5 19.78C534.5 20.36 534.16 20.78 533.73 20.78C533.3 20.78 532.95 20.31 532.95 19.78C532.95 19.25 533.3 18.78 533.73 18.78C534.16 18.78 534.5 19.21 534.5 19.78Z" fill="#787878"/>
<path d="M538.019 19.7793C538.019 20.3593 537.669 20.7793 537.239 20.7793C536.809 20.7793 536.469 20.3093 536.469 19.7793C536.469 19.2493 536.809 18.7793 537.239 18.7793C537.669 18.7793 538.019 19.2093 538.019 19.7793Z" fill="#787878"/>
<path d="M535.5 17.46C535.925 17.46 536.27 16.9944 536.27 16.42C536.27 15.8456 535.925 15.38 535.5 15.38C535.075 15.38 534.73 15.8456 534.73 16.42C534.73 16.9944 535.075 17.46 535.5 17.46Z" fill="#787878"/>
<path d="M530.501 40.9992C532.738 36.0196 536.237 31.7107 540.651 28.4992C545.251 25.3491 549.161 25.2791 551.231 25.5691C551.399 25.5987 551.557 25.6707 551.689 25.7782C551.821 25.8858 551.924 26.0253 551.987 26.1836C552.05 26.3419 552.071 26.5137 552.05 26.6826C552.028 26.8516 551.963 27.0122 551.861 27.1491L548.151 31.9992C547.212 33.246 546.709 34.7678 546.721 36.3292V36.3292C546.721 48.7592 541.721 52.9591 535.551 52.9591C534.049 53.0208 532.554 52.7258 531.188 52.0983C529.822 51.4709 528.623 50.5288 527.691 49.3491C528.269 46.4577 529.214 43.6517 530.501 40.9992V40.9992Z" fill="#787878"/>
<path d="M551.221 25.5691C549.161 25.2791 545.221 25.3491 540.651 28.4992C538.737 29.8184 537.005 31.3853 535.501 33.1592C534.011 31.3913 532.296 29.8248 530.401 28.4992C525.801 25.3491 521.891 25.2791 519.831 25.5691C519.663 25.5973 519.504 25.6683 519.371 25.7752C519.237 25.8822 519.133 26.0216 519.069 26.1801C519.005 26.3386 518.983 26.5109 519.004 26.6805C519.025 26.8502 519.09 27.0115 519.191 27.1491L522.841 31.9392C523.809 33.2058 524.332 34.7555 524.331 36.3491V36.3491C524.331 44.5691 526.521 49.1791 529.781 51.3491C530.571 51.8518 531.224 52.5424 531.681 53.3591C532.138 54.1759 532.386 55.0933 532.401 56.0291V56.1091H538.601C538.619 55.1686 538.869 54.2469 539.329 53.4267C539.79 52.6065 540.447 51.9133 541.241 51.4091C544.521 49.2391 546.721 44.6192 546.721 36.4092C546.721 34.8155 547.244 33.2658 548.211 31.9992L551.861 27.2091C551.978 27.0716 552.056 26.905 552.086 26.727C552.115 26.549 552.096 26.3663 552.031 26.1981C551.965 26.03 551.855 25.8828 551.713 25.772C551.57 25.6613 551.401 25.5912 551.221 25.5691V25.5691Z" fill="#787878"/>
<path d="M540.581 40.9992C538.336 36.0161 534.827 31.7069 530.401 28.4992C525.801 25.3491 521.891 25.2791 519.831 25.5691C519.663 25.5973 519.504 25.6683 519.371 25.7752C519.237 25.8822 519.133 26.0216 519.069 26.1801C519.005 26.3386 518.983 26.5109 519.004 26.6805C519.025 26.8502 519.09 27.0115 519.191 27.1491L522.841 31.9392C523.809 33.2058 524.332 34.7555 524.331 36.3491V36.3491C524.331 48.7991 529.331 52.9991 535.501 52.9991H535.591C536.67 52.9817 537.728 52.7067 538.678 52.1969C539.628 51.6871 540.443 50.9574 541.054 50.0687C541.664 49.18 542.054 48.1581 542.189 47.0883C542.324 46.0186 542.202 44.9319 541.831 43.9191C541.501 42.9291 541.051 41.9992 540.581 40.9992Z" fill="#787878"/>
<path d="M717.191 96L717.191 79.2L720.263 79.2L720.263 96L717.191 96ZM723.447 96L723.447 84.096L726.159 84.096L726.399 86.112C726.767 85.408 727.295 84.848 727.983 84.432C728.687 84.016 729.511 83.808 730.455 83.808C731.927 83.808 733.071 84.272 733.887 85.2C734.703 86.128 735.111 87.488 735.111 89.28L735.111 96L732.039 96L732.039 89.568C732.039 88.544 731.831 87.76 731.415 87.216C730.999 86.672 730.351 86.4 729.471 86.4C728.607 86.4 727.895 86.704 727.335 87.312C726.791 87.92 726.519 88.768 726.519 89.856L726.519 96L723.447 96ZM743.52 96.288C742.4 96.288 741.4 96.016 740.52 95.472C739.64 94.928 738.944 94.184 738.432 93.24C737.92 92.296 737.664 91.224 737.664 90.024C737.664 88.824 737.92 87.76 738.432 86.832C738.944 85.888 739.64 85.152 740.52 84.624C741.4 84.08 742.4 83.808 743.52 83.808C744.416 83.808 745.2 83.976 745.872 84.312C746.544 84.648 747.088 85.12 747.504 85.728L747.504 78.72L750.576 78.72L750.576 96L747.84 96L747.504 94.296C747.12 94.824 746.608 95.288 745.968 95.688C745.344 96.088 744.528 96.288 743.52 96.288ZM744.168 93.6C745.16 93.6 745.968 93.272 746.592 92.616C747.232 91.944 747.552 91.088 747.552 90.048C747.552 89.008 747.232 88.16 746.592 87.504C745.968 86.832 745.16 86.496 744.168 86.496C743.192 86.496 742.384 86.824 741.744 87.48C741.104 88.136 740.784 88.984 740.784 90.024C740.784 91.064 741.104 91.92 741.744 92.592C742.384 93.264 743.192 93.6 744.168 93.6ZM759.489 96.288C758.289 96.288 757.225 96.032 756.297 95.52C755.369 95.008 754.641 94.288 754.113 93.36C753.585 92.432 753.321 91.36 753.321 90.144C753.321 88.912 753.577 87.816 754.089 86.856C754.617 85.896 755.337 85.152 756.249 84.624C757.177 84.08 758.265 83.808 759.513 83.808C760.681 83.808 761.713 84.064 762.609 84.576C763.505 85.088 764.201 85.792 764.697 86.688C765.209 87.568 765.465 88.552 765.465 89.64C765.465 89.816 765.457 90 765.441 90.192C765.441 90.384 765.433 90.584 765.417 90.792L756.369 90.792C756.433 91.72 756.753 92.448 757.329 92.976C757.921 93.504 758.633 93.768 759.465 93.768C760.089 93.768 760.609 93.632 761.025 93.36C761.457 93.072 761.777 92.704 761.985 92.256L765.105 92.256C764.881 93.008 764.505 93.696 763.977 94.32C763.465 94.928 762.825 95.408 762.057 95.76C761.305 96.112 760.449 96.288 759.489 96.288ZM759.513 86.304C758.761 86.304 758.097 86.52 757.521 86.952C756.945 87.368 756.577 88.008 756.417 88.872L762.345 88.872C762.297 88.088 762.009 87.464 761.481 87C760.953 86.536 760.297 86.304 759.513 86.304ZM766.1 96L770.42 90.048L766.1 84.096L769.388 84.096L772.412 88.32L775.412 84.096L778.724 84.096L774.38 90.048L778.724 96L775.412 96L772.412 91.776L769.388 96L766.1 96ZM785.832 96.288C784.632 96.288 783.568 96.032 782.64 95.52C781.712 95.008 780.984 94.288 780.456 93.36C779.928 92.432 779.664 91.36 779.664 90.144C779.664 88.912 779.92 87.816 780.432 86.856C780.96 85.896 781.68 85.152 782.592 84.624C783.52 84.08 784.608 83.808 785.856 83.808C787.024 83.808 788.056 84.064 788.952 84.576C789.848 85.088 790.544 85.792 791.04 86.688C791.552 87.568 791.808 88.552 791.808 89.64C791.808 89.816 791.8 90 791.784 90.192C791.784 90.384 791.776 90.584 791.76 90.792L782.712 90.792C782.776 91.72 783.096 92.448 783.672 92.976C784.264 93.504 784.976 93.768 785.808 93.768C786.432 93.768 786.952 93.632 787.368 93.36C787.8 93.072 788.12 92.704 788.328 92.256L791.448 92.256C791.224 93.008 790.848 93.696 790.32 94.32C789.808 94.928 789.168 95.408 788.4 95.76C787.648 96.112 786.792 96.288 785.832 96.288ZM785.856 86.304C785.104 86.304 784.44 86.52 783.864 86.952C783.288 87.368 782.92 88.008 782.76 88.872L788.688 88.872C788.64 88.088 788.352 87.464 787.824 87C787.296 86.536 786.64 86.304 785.856 86.304ZM799.312 96.288C798.256 96.288 797.328 96.12 796.528 95.784C795.728 95.432 795.088 94.952 794.608 94.344C794.128 93.736 793.84 93.032 793.744 92.232L796.84 92.232C796.936 92.696 797.192 93.096 797.608 93.432C798.04 93.752 798.592 93.912 799.264 93.912C799.936 93.912 800.424 93.776 800.728 93.504C801.048 93.232 801.208 92.92 801.208 92.568C801.208 92.056 800.984 91.712 800.536 91.536C800.088 91.344 799.464 91.16 798.664 90.984C798.152 90.872 797.632 90.736 797.104 90.576C796.576 90.416 796.088 90.216 795.64 89.976C795.208 89.72 794.856 89.4 794.584 89.016C794.312 88.616 794.176 88.128 794.176 87.552C794.176 86.496 794.592 85.608 795.424 84.888C796.272 84.168 797.456 83.808 798.976 83.808C800.384 83.808 801.504 84.136 802.336 84.792C803.184 85.448 803.688 86.352 803.848 87.504L800.944 87.504C800.768 86.624 800.104 86.184 798.952 86.184C798.376 86.184 797.928 86.296 797.608 86.52C797.304 86.744 797.152 87.024 797.152 87.36C797.152 87.712 797.384 87.992 797.848 88.2C798.312 88.408 798.928 88.6 799.696 88.776C800.528 88.968 801.288 89.184 801.976 89.424C802.68 89.648 803.24 89.992 803.656 90.456C804.072 90.904 804.28 91.552 804.28 92.4C804.296 93.136 804.104 93.8 803.704 94.392C803.304 94.984 802.728 95.448 801.976 95.784C801.224 96.12 800.336 96.288 799.312 96.288Z" fill="black"/>
<path d="M783.5 32C783.5 44.1503 773.65 54 761.5 54C749.35 54 739.5 44.1503 739.5 32C739.5 19.8497 749.35 10 761.5 10C773.65 10 783.5 19.8497 783.5 32Z" stroke="#565656" stroke-width="4"/>
<mask id="mask0" mask-type="alpha" maskUnits="userSpaceOnUse" x="737" y="8" width="49" height="48">
<path fill-rule="evenodd" clip-rule="evenodd" d="M785.5 32C785.5 45.2548 774.755 56 761.5 56C748.245 56 737.5 45.2548 737.5 32C737.5 18.7452 748.245 8 761.5 8C774.755 8 785.5 18.7452 785.5 32Z" fill="#565656"/>
</mask>
<g mask="url(#mask0)">
<path d="M779.25 45.8237L776.571 43.4777C776.407 43.3077 776.316 43.0769 776.316 42.8363V40.6105C776.317 40.4982 776.293 40.3872 776.246 40.2862L773.619 34.827C773.558 34.701 773.527 34.562 773.527 34.421V31.9046C773.527 31.6621 773.41 31.4356 773.216 31.301L771.125 29.8501C770.961 29.7362 770.758 29.6998 770.567 29.7499L768.29 30.3418C768.105 30.3899 767.91 30.3736 767.735 30.2954L764.152 28.6957C763.873 28.571 763.676 28.3037 763.633 27.9905L763.172 24.6286C763.133 24.346 763.225 24.0609 763.419 23.859L764.496 22.7388C764.659 22.5688 764.881 22.4733 765.112 22.4733H767.806C768.098 22.4733 768.37 22.6251 768.532 22.8778L769.458 24.3269C769.565 24.4936 769.734 24.6069 769.924 24.6396L774.107 25.3651C774.219 25.3847 774.334 25.3752 774.442 25.3375L782.576 22.9717C785.807 29.4245 783.041 39.7096 779.25 45.8237ZM776.571 17.2404L773.681 19.318C773.488 19.4514 773.253 19.4998 773.026 19.4526L770.22 18.8683L768.169 18.1581C768.044 18.1137 767.908 18.1081 767.78 18.1421L765.422 18.7552C765.269 18.795 765.108 18.7886 764.959 18.7367C764.48 18.5707 764.253 18.0018 764.479 17.532L764.652 17.1707C764.8 16.8635 765.102 16.6694 765.432 16.6694H767.251C767.36 16.6695 767.466 16.6434 767.563 16.5932L770.567 13C772.228 13.9023 775.222 15.8865 776.571 17.2404ZM752.225 13.4155L755.013 15.8227C755.095 15.8797 755.188 15.9178 755.285 15.9345L757.945 16.3958C758.322 16.4614 758.554 16.8626 758.433 17.2404C758.371 17.4336 758.225 17.5852 758.04 17.6497L756.574 18.1588C756.416 18.2134 756.282 18.3248 756.197 18.4729L754.306 21.7508C754.233 21.8784 754.13 21.9852 754.007 22.0618L751.129 23.859C751.029 23.9212 750.919 23.9621 750.804 23.9792L746.237 24.6577C745.893 24.7082 745.637 25.0141 745.637 25.3752V27.5517C745.637 27.7441 745.711 27.9286 745.841 28.0646L746.878 29.1431C746.976 29.2455 747.031 29.3844 747.031 29.5292C747.031 29.9652 746.564 30.2253 746.216 29.9834L744.38 28.7095C744.218 28.5977 744.098 28.4331 744.036 28.2418L741 24.6577C743.002 19.8985 747.636 15.4599 752.225 13.4155ZM751.354 38.4485L748.62 37.8789C748.357 37.824 748.132 37.6459 748.012 37.3961L747.124 35.5527C747.063 35.4266 747.031 35.2874 747.031 35.1463V34.0316C747.031 33.7911 747.123 33.5604 747.287 33.3904L748.774 31.8426C749.195 31.4049 749.904 31.5247 750.17 32.0784L750.591 32.9544C750.709 33.2004 750.951 33.3557 751.215 33.3556H755.207C755.514 33.3556 755.797 33.5227 755.955 33.7959L757.59 36.6312C757.716 36.8495 757.943 36.983 758.187 36.9831H759.063C759.613 36.9831 760.025 37.5064 759.918 38.0674L759.689 39.2579C759.656 39.4336 759.573 39.5949 759.451 39.7216L756.998 42.274C756.867 42.41 756.793 42.5944 756.793 42.787V44.1473C756.793 44.4327 756.664 44.7015 756.444 44.8727L754.462 45.5201C754.286 45.6572 754.183 45.8722 754.183 46.1005L754.004 47.4856C754.004 47.836 753.674 48.0837 753.355 47.9735C753.216 47.9259 753.105 47.8172 753.051 47.6764L751.974 46.4372C751.933 46.3301 751.912 46.2159 751.912 46.1005V39.1595C751.912 38.8147 751.679 38.5175 751.354 38.4485Z" fill="#565656"/>
</g>
<path d="M931.079 96.288C929.847 96.288 928.759 96.08 927.815 95.664C926.871 95.232 926.127 94.624 925.583 93.84C925.039 93.04 924.759 92.072 924.743 90.936L927.983 90.936C928.015 91.72 928.295 92.384 928.823 92.928C929.367 93.456 930.111 93.72 931.055 93.72C931.871 93.72 932.519 93.528 932.999 93.144C933.479 92.744 933.719 92.216 933.719 91.56C933.719 90.872 933.503 90.336 933.071 89.952C932.655 89.568 932.095 89.256 931.391 89.016C930.687 88.776 929.935 88.52 929.135 88.248C927.839 87.8 926.847 87.224 926.159 86.52C925.487 85.816 925.151 84.88 925.151 83.712C925.135 82.72 925.367 81.872 925.847 81.168C926.343 80.448 927.015 79.896 927.863 79.512C928.711 79.112 929.687 78.912 930.791 78.912C931.911 78.912 932.895 79.112 933.743 79.512C934.607 79.912 935.279 80.472 935.759 81.192C936.255 81.912 936.519 82.768 936.551 83.76L933.263 83.76C933.247 83.168 933.015 82.648 932.567 82.2C932.135 81.736 931.527 81.504 930.743 81.504C930.071 81.488 929.503 81.656 929.039 82.008C928.591 82.344 928.367 82.84 928.367 83.496C928.367 84.056 928.543 84.504 928.895 84.84C929.247 85.16 929.727 85.432 930.335 85.656C930.943 85.88 931.639 86.12 932.423 86.376C933.255 86.664 934.015 87 934.703 87.384C935.391 87.768 935.943 88.28 936.359 88.92C936.775 89.544 936.983 90.352 936.983 91.344C936.983 92.224 936.759 93.04 936.311 93.792C935.863 94.544 935.199 95.152 934.319 95.616C933.439 96.064 932.359 96.288 931.079 96.288ZM941.079 101.28L943.839 95.208L943.119 95.208L938.487 84.096L941.823 84.096L945.159 92.472L948.639 84.096L951.903 84.096L944.343 101.28L941.079 101.28ZM953.912 96L953.912 84.096L956.624 84.096L956.864 86.112C957.232 85.408 957.76 84.848 958.448 84.432C959.152 84.016 959.976 83.808 960.92 83.808C962.392 83.808 963.536 84.272 964.352 85.2C965.168 86.128 965.576 87.488 965.576 89.28L965.576 96L962.504 96L962.504 89.568C962.504 88.544 962.296 87.76 961.88 87.216C961.464 86.672 960.816 86.4 959.936 86.4C959.072 86.4 958.36 86.704 957.8 87.312C957.256 87.92 956.984 88.768 956.984 89.856L956.984 96L953.912 96ZM973.817 96C972.569 96 971.569 95.696 970.817 95.088C970.065 94.48 969.689 93.4 969.689 91.848L969.689 86.664L967.649 86.664L967.649 84.096L969.689 84.096L970.049 80.904L972.761 80.904L972.761 84.096L975.977 84.096L975.977 86.664L972.761 86.664L972.761 91.872C972.761 92.448 972.881 92.848 973.121 93.072C973.377 93.28 973.809 93.384 974.417 93.384L975.905 93.384L975.905 96L973.817 96ZM978.615 96L978.615 78.72L981.687 78.72L981.687 85.92C982.087 85.264 982.623 84.752 983.295 84.384C983.983 84 984.767 83.808 985.647 83.808C987.119 83.808 988.255 84.272 989.055 85.2C989.871 86.128 990.279 87.488 990.279 89.28L990.279 96L987.231 96L987.231 89.568C987.231 88.544 987.023 87.76 986.607 87.216C986.207 86.672 985.567 86.4 984.687 86.4C983.823 86.4 983.103 86.704 982.527 87.312C981.967 87.92 981.687 88.768 981.687 89.856L981.687 96L978.615 96ZM999 96.288C997.8 96.288 996.736 96.032 995.808 95.52C994.88 95.008 994.152 94.288 993.624 93.36C993.096 92.432 992.832 91.36 992.832 90.144C992.832 88.912 993.088 87.816 993.6 86.856C994.128 85.896 994.848 85.152 995.76 84.624C996.688 84.08 997.776 83.808 999.024 83.808C1000.19 83.808 1001.22 84.064 1002.12 84.576C1003.02 85.088 1003.71 85.792 1004.21 86.688C1004.72 87.568 1004.98 88.552 1004.98 89.64C1004.98 89.816 1004.97 90 1004.95 90.192C1004.95 90.384 1004.94 90.584 1004.93 90.792L995.88 90.792C995.944 91.72 996.264 92.448 996.84 92.976C997.432 93.504 998.144 93.768 998.976 93.768C999.6 93.768 1000.12 93.632 1000.54 93.36C1000.97 93.072 1001.29 92.704 1001.5 92.256L1004.62 92.256C1004.39 93.008 1004.02 93.696 1003.49 94.32C1002.98 94.928 1002.34 95.408 1001.57 95.76C1000.82 96.112 999.96 96.288 999 96.288ZM999.024 86.304C998.272 86.304 997.608 86.52 997.032 86.952C996.456 87.368 996.088 88.008 995.928 88.872L1001.86 88.872C1001.81 88.088 1001.52 87.464 1000.99 87C1000.46 86.536 999.808 86.304 999.024 86.304ZM1012.65 96C1011.41 96 1010.41 95.696 1009.65 95.088C1008.9 94.48 1008.53 93.4 1008.53 91.848L1008.53 86.664L1006.49 86.664L1006.49 84.096L1008.53 84.096L1008.89 80.904L1011.6 80.904L1011.6 84.096L1014.81 84.096L1014.81 86.664L1011.6 86.664L1011.6 91.872C1011.6 92.448 1011.72 92.848 1011.96 93.072C1012.21 93.28 1012.65 93.384 1013.25 93.384L1014.74 93.384L1014.74 96L1012.65 96ZM1019.11 82.248C1018.55 82.248 1018.08 82.08 1017.71 81.744C1017.36 81.408 1017.19 80.984 1017.19 80.472C1017.19 79.96 1017.36 79.544 1017.71 79.224C1018.08 78.888 1018.55 78.72 1019.11 78.72C1019.67 78.72 1020.12 78.888 1020.47 79.224C1020.84 79.544 1021.03 79.96 1021.03 80.472C1021.03 80.984 1020.84 81.408 1020.47 81.744C1020.12 82.08 1019.67 82.248 1019.11 82.248ZM1017.57 96L1017.57 84.096L1020.64 84.096L1020.64 96L1017.57 96ZM1029.68 96.288C1028.47 96.288 1027.39 96.024 1026.47 95.496C1025.54 94.968 1024.8 94.232 1024.26 93.288C1023.73 92.344 1023.47 91.264 1023.47 90.048C1023.47 88.832 1023.73 87.752 1024.26 86.808C1024.8 85.864 1025.54 85.128 1026.47 84.6C1027.39 84.072 1028.47 83.808 1029.68 83.808C1031.2 83.808 1032.48 84.208 1033.52 85.008C1034.56 85.792 1035.23 86.88 1035.51 88.272L1032.27 88.272C1032.11 87.696 1031.79 87.248 1031.31 86.928C1030.85 86.592 1030.3 86.424 1029.66 86.424C1028.81 86.424 1028.09 86.744 1027.5 87.384C1026.91 88.024 1026.61 88.912 1026.61 90.048C1026.61 91.184 1026.91 92.072 1027.5 92.712C1028.09 93.352 1028.81 93.672 1029.66 93.672C1030.3 93.672 1030.85 93.512 1031.31 93.192C1031.79 92.872 1032.11 92.416 1032.27 91.824L1035.51 91.824C1035.23 93.168 1034.56 94.248 1033.52 95.064C1032.48 95.88 1031.2 96.288 1029.68 96.288ZM1043.16 96.288C1042.1 96.288 1041.18 96.12 1040.38 95.784C1039.58 95.432 1038.94 94.952 1038.46 94.344C1037.98 93.736 1037.69 93.032 1037.59 92.232L1040.69 92.232C1040.78 92.696 1041.04 93.096 1041.46 93.432C1041.89 93.752 1042.44 93.912 1043.11 93.912C1043.78 93.912 1044.27 93.776 1044.58 93.504C1044.9 93.232 1045.06 92.92 1045.06 92.568C1045.06 92.056 1044.83 91.712 1044.38 91.536C1043.94 91.344 1043.31 91.16 1042.51 90.984C1042 90.872 1041.48 90.736 1040.95 90.576C1040.42 90.416 1039.94 90.216 1039.49 89.976C1039.06 89.72 1038.7 89.4 1038.43 89.016C1038.16 88.616 1038.02 88.128 1038.02 87.552C1038.02 86.496 1038.44 85.608 1039.27 84.888C1040.12 84.168 1041.3 83.808 1042.82 83.808C1044.23 83.808 1045.35 84.136 1046.18 84.792C1047.03 85.448 1047.54 86.352 1047.7 87.504L1044.79 87.504C1044.62 86.624 1043.95 86.184 1042.8 86.184C1042.22 86.184 1041.78 86.296 1041.46 86.52C1041.15 86.744 1041 87.024 1041 87.36C1041 87.712 1041.23 87.992 1041.7 88.2C1042.16 88.408 1042.78 88.6 1043.54 88.776C1044.38 88.968 1045.14 89.184 1045.82 89.424C1046.53 89.648 1047.09 89.992 1047.5 90.456C1047.92 90.904 1048.13 91.552 1048.13 92.4C1048.14 93.136 1047.95 93.8 1047.55 94.392C1047.15 94.984 1046.58 95.448 1045.82 95.784C1045.07 96.12 1044.18 96.288 1043.16 96.288Z" fill="black"/>
<path d="M987.45 28.36C993.072 28.36 997.63 23.8023 997.63 18.18C997.63 12.5577 993.072 8 987.45 8C981.828 8 977.27 12.5577 977.27 18.18C977.27 23.8023 981.828 28.36 987.45 28.36Z" fill="#565656"/>
<path d="M991.19 17.11V15.43C991.191 14.7718 991.019 14.125 990.69 13.5545C990.362 12.984 989.889 12.51 989.32 12.18V12.18C988.75 11.8509 988.103 11.6776 987.445 11.6776C986.787 11.6776 986.14 11.8509 985.57 12.18C985.001 12.51 984.528 12.984 984.2 13.5545C983.871 14.125 983.699 14.7718 983.7 15.43V17.11C983.689 17.6945 983.836 18.2712 984.124 18.7797C984.413 19.2881 984.833 19.7096 985.34 20V20C985.98 20.3685 986.706 20.5625 987.445 20.5625C988.184 20.5625 988.91 20.3685 989.55 20V20C990.057 19.7096 990.477 19.2881 990.766 18.7797C991.054 18.2712 991.201 17.6945 991.19 17.11V17.11Z" fill="white"/>
<path d="M987.5 28.36C990.108 28.3614 992.617 27.3546 994.5 25.55C993.77 24.3476 992.742 23.3536 991.516 22.6638C990.29 21.9739 988.907 21.6116 987.5 21.6116C986.093 21.6116 984.71 21.9739 983.484 22.6638C982.258 23.3536 981.23 24.3476 980.5 25.55C982.383 27.3546 984.892 28.3614 987.5 28.36V28.36Z" fill="#787878"/>
<path d="M973.63 56C979.252 56 983.81 51.4423 983.81 45.82C983.81 40.1978 979.252 35.64 973.63 35.64C968.008 35.64 963.45 40.1978 963.45 45.82C963.45 51.4423 968.008 56 973.63 56Z" fill="#565656"/>
<path d="M977.37 44.75V43.07C977.371 42.4118 977.199 41.765 976.87 41.1945C976.542 40.624 976.07 40.15 975.5 39.82V39.82C974.93 39.4909 974.283 39.3176 973.625 39.3176C972.967 39.3176 972.32 39.4909 971.75 39.82C971.181 40.15 970.708 40.624 970.38 41.1945C970.051 41.765 969.879 42.4118 969.88 43.07V44.75C969.876 45.3241 970.024 45.8891 970.308 46.3878C970.593 46.8865 971.004 47.3012 971.5 47.59V47.59C972.14 47.9586 972.866 48.1525 973.605 48.1525C974.344 48.1525 975.07 47.9586 975.71 47.59V47.59C976.214 47.3063 976.633 46.8938 976.924 46.3948C977.216 45.8957 977.37 45.3281 977.37 44.75V44.75Z" fill="white"/>
<path d="M973.63 56C976.238 56.0014 978.747 54.9946 980.63 53.19C979.9 51.9876 978.872 50.9936 977.646 50.3038C976.42 49.614 975.037 49.2516 973.63 49.2516C972.223 49.2516 970.84 49.614 969.614 50.3038C968.388 50.9936 967.36 51.9876 966.63 53.19C968.513 54.9946 971.022 56.0014 973.63 56V56Z" fill="#787878"/>
<path d="M1001.37 56C1006.99 56 1011.55 51.4423 1011.55 45.82C1011.55 40.1978 1006.99 35.64 1001.37 35.64C995.748 35.64 991.19 40.1978 991.19 45.82C991.19 51.4423 995.748 56 1001.37 56Z" fill="#565656"/>
<path d="M1005.12 44.75V43.07C1005.12 42.4118 1004.95 41.765 1004.62 41.1945C1004.29 40.624 1003.82 40.15 1003.25 39.82V39.82C1002.68 39.4909 1002.03 39.3176 1001.37 39.3176C1000.72 39.3176 1000.07 39.4909 999.5 39.82C998.93 40.15 998.458 40.624 998.13 41.1945C997.801 41.765 997.629 42.4118 997.63 43.07V44.75C997.628 45.3261 997.779 45.8924 998.067 46.3913C998.355 46.8901 998.77 47.3038 999.27 47.59V47.59C999.91 47.9586 1000.64 48.1525 1001.37 48.1525C1002.11 48.1525 1002.84 47.9586 1003.48 47.59V47.59C1003.98 47.3038 1004.4 46.8901 1004.68 46.3913C1004.97 45.8924 1005.12 45.3261 1005.12 44.75V44.75Z" fill="white"/>
<path d="M1001.37 56C1003.98 56.0014 1006.49 54.9946 1008.37 53.19C1007.64 51.9876 1006.61 50.9936 1005.39 50.3038C1004.16 49.614 1002.78 49.2516 1001.37 49.2516C999.963 49.2516 998.58 49.614 997.354 50.3038C996.128 50.9936 995.1 51.9876 994.37 53.19C996.253 54.9946 998.762 56.0014 1001.37 56V56Z" fill="#787878"/>
<path d="M987.5 35.71C987.235 35.71 986.98 35.6046 986.793 35.4171C986.605 35.2295 986.5 34.9752 986.5 34.71V31.46C986.5 31.1947 986.605 30.9404 986.793 30.7529C986.98 30.5653 987.235 30.46 987.5 30.46C987.765 30.46 988.02 30.5653 988.207 30.7529C988.395 30.9404 988.5 31.1947 988.5 31.46V34.71C988.5 34.9752 988.395 35.2295 988.207 35.4171C988.02 35.6046 987.765 35.71 987.5 35.71Z" fill="#565656"/>
<path d="M984.39 38C984.182 37.9993 983.979 37.9337 983.81 37.8122C983.641 37.6908 983.514 37.5196 983.447 37.3225C983.379 37.1254 983.375 36.9123 983.435 36.7129C983.495 36.5134 983.616 36.3376 983.78 36.2099L987.5 33.45L991.16 36.25C991.358 36.4148 991.485 36.6497 991.514 36.9056C991.542 37.1616 991.472 37.4188 991.316 37.6238C991.16 37.8288 990.931 37.9656 990.676 38.0059C990.422 38.0462 990.162 37.9867 989.95 37.84L987.5 36L985.04 37.88C984.843 37.9925 984.614 38.0348 984.39 38V38Z" fill="#565656"/>
<g filter="url(#filter0_b)">
<rect x="138.5" y="137" width="101" height="32" rx="4" fill="#45454E" fill-opacity="0.75"/>
<path d="M163.214 158V156.698C163.811 156.203 164.39 155.713 164.95 155.228C165.519 154.743 166.023 154.262 166.462 153.786C166.91 153.31 167.265 152.848 167.526 152.4C167.797 151.943 167.932 151.499 167.932 151.07C167.932 150.669 167.82 150.314 167.596 150.006C167.381 149.698 167.022 149.544 166.518 149.544C166.005 149.544 165.617 149.712 165.356 150.048C165.095 150.384 164.964 150.79 164.964 151.266H163.228C163.247 150.547 163.405 149.95 163.704 149.474C164.003 148.989 164.399 148.629 164.894 148.396C165.389 148.153 165.944 148.032 166.56 148.032C167.559 148.032 168.333 148.307 168.884 148.858C169.444 149.399 169.724 150.104 169.724 150.972C169.724 151.513 169.598 152.041 169.346 152.554C169.103 153.067 168.781 153.562 168.38 154.038C167.979 154.514 167.545 154.962 167.078 155.382C166.611 155.793 166.159 156.175 165.72 156.53H169.962V158H163.214ZM175.4 158.168C174.494 158.168 173.72 157.958 173.076 157.538C172.432 157.109 171.932 156.516 171.578 155.76C171.232 154.995 171.06 154.108 171.06 153.1C171.06 152.101 171.232 151.219 171.578 150.454C171.932 149.689 172.432 149.096 173.076 148.676C173.72 148.247 174.494 148.032 175.4 148.032C176.305 148.032 177.08 148.247 177.724 148.676C178.368 149.096 178.862 149.689 179.208 150.454C179.562 151.219 179.74 152.101 179.74 153.1C179.74 154.108 179.562 154.995 179.208 155.76C178.862 156.516 178.368 157.109 177.724 157.538C177.08 157.958 176.305 158.168 175.4 158.168ZM175.4 156.558C176.137 156.558 176.739 156.25 177.206 155.634C177.672 155.018 177.906 154.173 177.906 153.1C177.906 152.027 177.672 151.182 177.206 150.566C176.739 149.95 176.137 149.642 175.4 149.642C174.653 149.642 174.046 149.95 173.58 150.566C173.122 151.182 172.894 152.027 172.894 153.1C172.894 154.173 173.122 155.018 173.58 155.634C174.046 156.25 174.653 156.558 175.4 156.558ZM181.015 158V156.698C181.612 156.203 182.191 155.713 182.751 155.228C183.32 154.743 183.824 154.262 184.263 153.786C184.711 153.31 185.065 152.848 185.327 152.4C185.597 151.943 185.733 151.499 185.733 151.07C185.733 150.669 185.621 150.314 185.397 150.006C185.182 149.698 184.823 149.544 184.319 149.544C183.805 149.544 183.418 149.712 183.157 150.048C182.895 150.384 182.765 150.79 182.765 151.266H181.029C181.047 150.547 181.206 149.95 181.505 149.474C181.803 148.989 182.2 148.629 182.695 148.396C183.189 148.153 183.745 148.032 184.361 148.032C185.359 148.032 186.134 148.307 186.685 148.858C187.245 149.399 187.525 150.104 187.525 150.972C187.525 151.513 187.399 152.041 187.147 152.554C186.904 153.067 186.582 153.562 186.181 154.038C185.779 154.514 185.345 154.962 184.879 155.382C184.412 155.793 183.959 156.175 183.521 156.53H187.763V158H181.015ZM190.315 158V150.244L188.705 150.622V149.25L191.071 148.2H192.177V158H190.315ZM202.005 158.168C201.025 158.168 200.166 157.953 199.429 157.524C198.701 157.095 198.127 156.502 197.707 155.746C197.296 154.981 197.091 154.099 197.091 153.1C197.091 152.101 197.296 151.224 197.707 150.468C198.127 149.703 198.701 149.105 199.429 148.676C200.166 148.247 201.025 148.032 202.005 148.032C202.976 148.032 203.83 148.247 204.567 148.676C205.304 149.105 205.878 149.703 206.289 150.468C206.7 151.224 206.905 152.101 206.905 153.1C206.905 154.033 206.723 154.869 206.359 155.606C205.995 156.334 205.491 156.913 204.847 157.342L207.115 159.778H204.889L203.349 158.014C202.92 158.117 202.472 158.168 202.005 158.168ZM202.005 156.558C202.938 156.558 203.68 156.25 204.231 155.634C204.791 155.018 205.071 154.173 205.071 153.1C205.071 152.027 204.791 151.182 204.231 150.566C203.68 149.95 202.938 149.642 202.005 149.642C201.072 149.642 200.325 149.95 199.765 150.566C199.205 151.182 198.925 152.027 198.925 153.1C198.925 154.173 199.205 155.018 199.765 155.634C200.325 156.25 201.072 156.558 202.005 156.558ZM208.208 158V156.698C208.805 156.203 209.384 155.713 209.944 155.228C210.513 154.743 211.017 154.262 211.456 153.786C211.904 153.31 212.259 152.848 212.52 152.4C212.791 151.943 212.926 151.499 212.926 151.07C212.926 150.669 212.814 150.314 212.59 150.006C212.375 149.698 212.016 149.544 211.512 149.544C210.999 149.544 210.611 149.712 210.35 150.048C210.089 150.384 209.958 150.79 209.958 151.266H208.222C208.241 150.547 208.399 149.95 208.698 149.474C208.997 148.989 209.393 148.629 209.888 148.396C210.383 148.153 210.938 148.032 211.554 148.032C212.553 148.032 213.327 148.307 213.878 148.858C214.438 149.399 214.718 150.104 214.718 150.972C214.718 151.513 214.592 152.041 214.34 152.554C214.097 153.067 213.775 153.562 213.374 154.038C212.973 154.514 212.539 154.962 212.072 155.382C211.605 155.793 211.153 156.175 210.714 156.53H214.956V158H208.208Z" fill="white"/>
</g>
<g filter="url(#filter1_b)">
<rect x="709" y="137" width="101" height="32" rx="4" fill="#45454E" fill-opacity="0.75"/>
<path d="M733.714 158V156.698C734.311 156.203 734.89 155.713 735.45 155.228C736.019 154.743 736.523 154.262 736.962 153.786C737.41 153.31 737.765 152.848 738.026 152.4C738.297 151.943 738.432 151.499 738.432 151.07C738.432 150.669 738.32 150.314 738.096 150.006C737.881 149.698 737.522 149.544 737.018 149.544C736.505 149.544 736.117 149.712 735.856 150.048C735.595 150.384 735.464 150.79 735.464 151.266H733.728C733.747 150.547 733.905 149.95 734.204 149.474C734.503 148.989 734.899 148.629 735.394 148.396C735.889 148.153 736.444 148.032 737.06 148.032C738.059 148.032 738.833 148.307 739.384 148.858C739.944 149.399 740.224 150.104 740.224 150.972C740.224 151.513 740.098 152.041 739.846 152.554C739.603 153.067 739.281 153.562 738.88 154.038C738.479 154.514 738.045 154.962 737.578 155.382C737.111 155.793 736.659 156.175 736.22 156.53H740.462V158H733.714ZM745.9 158.168C744.994 158.168 744.22 157.958 743.576 157.538C742.932 157.109 742.432 156.516 742.078 155.76C741.732 154.995 741.56 154.108 741.56 153.1C741.56 152.101 741.732 151.219 742.078 150.454C742.432 149.689 742.932 149.096 743.576 148.676C744.22 148.247 744.994 148.032 745.9 148.032C746.805 148.032 747.58 148.247 748.224 148.676C748.868 149.096 749.362 149.689 749.708 150.454C750.062 151.219 750.24 152.101 750.24 153.1C750.24 154.108 750.062 154.995 749.708 155.76C749.362 156.516 748.868 157.109 748.224 157.538C747.58 157.958 746.805 158.168 745.9 158.168ZM745.9 156.558C746.637 156.558 747.239 156.25 747.706 155.634C748.172 155.018 748.406 154.173 748.406 153.1C748.406 152.027 748.172 151.182 747.706 150.566C747.239 149.95 746.637 149.642 745.9 149.642C745.153 149.642 744.546 149.95 744.08 150.566C743.622 151.182 743.394 152.027 743.394 153.1C743.394 154.173 743.622 155.018 744.08 155.634C744.546 156.25 745.153 156.558 745.9 156.558ZM751.515 158V156.698C752.112 156.203 752.691 155.713 753.251 155.228C753.82 154.743 754.324 154.262 754.763 153.786C755.211 153.31 755.565 152.848 755.827 152.4C756.097 151.943 756.233 151.499 756.233 151.07C756.233 150.669 756.121 150.314 755.897 150.006C755.682 149.698 755.323 149.544 754.819 149.544C754.305 149.544 753.918 149.712 753.657 150.048C753.395 150.384 753.265 150.79 753.265 151.266H751.529C751.547 150.547 751.706 149.95 752.005 149.474C752.303 148.989 752.7 148.629 753.195 148.396C753.689 148.153 754.245 148.032 754.861 148.032C755.859 148.032 756.634 148.307 757.185 148.858C757.745 149.399 758.025 150.104 758.025 150.972C758.025 151.513 757.899 152.041 757.647 152.554C757.404 153.067 757.082 153.562 756.681 154.038C756.279 154.514 755.845 154.962 755.379 155.382C754.912 155.793 754.459 156.175 754.021 156.53H758.263V158H751.515ZM759.513 158V156.698C760.11 156.203 760.689 155.713 761.249 155.228C761.818 154.743 762.322 154.262 762.761 153.786C763.209 153.31 763.563 152.848 763.825 152.4C764.095 151.943 764.231 151.499 764.231 151.07C764.231 150.669 764.119 150.314 763.895 150.006C763.68 149.698 763.321 149.544 762.817 149.544C762.303 149.544 761.916 149.712 761.655 150.048C761.393 150.384 761.263 150.79 761.263 151.266H759.527C759.545 150.547 759.704 149.95 760.003 149.474C760.301 148.989 760.698 148.629 761.193 148.396C761.687 148.153 762.243 148.032 762.859 148.032C763.857 148.032 764.632 148.307 765.183 148.858C765.743 149.399 766.023 150.104 766.023 150.972C766.023 151.513 765.897 152.041 765.645 152.554C765.402 153.067 765.08 153.562 764.679 154.038C764.277 154.514 763.843 154.962 763.377 155.382C762.91 155.793 762.457 156.175 762.019 156.53H766.261V158H759.513ZM775.677 158.168C774.697 158.168 773.838 157.953 773.101 157.524C772.373 157.095 771.799 156.502 771.379 155.746C770.968 154.981 770.763 154.099 770.763 153.1C770.763 152.101 770.968 151.224 771.379 150.468C771.799 149.703 772.373 149.105 773.101 148.676C773.838 148.247 774.697 148.032 775.677 148.032C776.647 148.032 777.501 148.247 778.239 148.676C778.976 149.105 779.55 149.703 779.961 150.468C780.371 151.224 780.577 152.101 780.577 153.1C780.577 154.033 780.395 154.869 780.031 155.606C779.667 156.334 779.163 156.913 778.519 157.342L780.787 159.778H778.561L777.021 158.014C776.591 158.117 776.143 158.168 775.677 158.168ZM775.677 156.558C776.61 156.558 777.352 156.25 777.903 155.634C778.463 155.018 778.743 154.173 778.743 153.1C778.743 152.027 778.463 151.182 777.903 150.566C777.352 149.95 776.61 149.642 775.677 149.642C774.743 149.642 773.997 149.95 773.437 150.566C772.877 151.182 772.597 152.027 772.597 153.1C772.597 154.173 772.877 155.018 773.437 155.634C773.997 156.25 774.743 156.558 775.677 156.558ZM783.182 158V150.244L781.572 150.622V149.25L783.938 148.2H785.044V158H783.182Z" fill="white"/>
</g>
<defs>
<filter id="filter0_b" x="135.5" y="134" width="107" height="38" filterUnits="userSpaceOnUse" color-interpolation-filters="sRGB">
<feFlood flood-opacity="0" result="BackgroundImageFix"/>
<feGaussianBlur in="BackgroundImage" stdDeviation="1.5"/>
<feComposite in2="SourceAlpha" operator="in" result="effect1_backgroundBlur"/>
<feBlend mode="normal" in="SourceGraphic" in2="effect1_backgroundBlur" result="shape"/>
</filter>
<filter id="filter1_b" x="706" y="134" width="107" height="38" filterUnits="userSpaceOnUse" color-interpolation-filters="sRGB">
<feFlood flood-opacity="0" result="BackgroundImageFix"/>
<feGaussianBlur in="BackgroundImage" stdDeviation="1.5"/>
<feComposite in2="SourceAlpha" operator="in" result="effect1_backgroundBlur"/>
<feBlend mode="normal" in="SourceGraphic" in2="effect1_backgroundBlur" result="shape"/>
</filter>
</defs>
</svg>
