<svg width="300" height="507" viewBox="0 0 300 507" fill="none" xmlns="http://www.w3.org/2000/svg">
<path d="M41.2853 96.288C39.6053 96.288 38.1332 95.92 36.8693 95.184C35.6212 94.448 34.6372 93.432 33.9172 92.136C33.2132 90.824 32.8612 89.312 32.8612 87.6C32.8612 85.888 33.2132 84.384 33.9172 83.088C34.6372 81.776 35.6213 80.752 36.8693 80.016C38.1333 79.28 39.6053 78.912 41.2853 78.912C42.9493 78.912 44.4133 79.28 45.6773 80.016C46.9413 80.752 47.9253 81.776 48.6293 83.088C49.3333 84.384 49.6853 85.888 49.6853 87.6C49.6853 89.312 49.3333 90.824 48.6293 92.136C47.9253 93.432 46.9413 94.448 45.6773 95.184C44.4133 95.92 42.9492 96.288 41.2853 96.288ZM41.2853 93.528C42.8853 93.528 44.1573 93 45.1012 91.944C46.0613 90.888 46.5413 89.44 46.5413 87.6C46.5413 85.76 46.0613 84.312 45.1013 83.256C44.1573 82.2 42.8853 81.672 41.2853 81.672C39.6853 81.672 38.4053 82.2 37.4453 83.256C36.4853 84.312 36.0053 85.76 36.0053 87.6C36.0053 89.44 36.4853 90.888 37.4453 91.944C38.4052 93 39.6853 93.528 41.2853 93.528ZM52.3256 101.28L52.3256 84.096L55.0616 84.096L55.3976 85.8C55.7816 85.272 56.2856 84.808 56.9096 84.408C57.5496 84.008 58.3736 83.808 59.3816 83.808C60.5016 83.808 61.5016 84.08 62.3816 84.624C63.2616 85.168 63.9576 85.912 64.4696 86.856C64.9816 87.8 65.2376 88.872 65.2376 90.072C65.2376 91.272 64.9816 92.344 64.4696 93.288C63.9576 94.216 63.2616 94.952 62.3816 95.496C61.5016 96.024 60.5016 96.288 59.3816 96.288C58.4856 96.288 57.7016 96.12 57.0296 95.784C56.3576 95.448 55.8136 94.976 55.3976 94.368L55.3976 101.28L52.3256 101.28ZM58.7336 93.6C59.7096 93.6 60.5176 93.272 61.1576 92.616C61.7976 91.96 62.1176 91.112 62.1176 90.072C62.1176 89.032 61.7976 88.176 61.1576 87.504C60.5176 86.832 59.7096 86.496 58.7336 86.496C57.7416 86.496 56.9256 86.832 56.2856 87.504C55.6616 88.16 55.3496 89.008 55.3496 90.048C55.3496 91.088 55.6616 91.944 56.2856 92.616C56.9256 93.272 57.7416 93.6 58.7336 93.6ZM72.8171 96C71.5691 96 70.5691 95.696 69.8171 95.088C69.0651 94.48 68.6891 93.4 68.6891 91.848L68.6891 86.664L66.6491 86.664L66.6491 84.096L68.6891 84.096L69.0491 80.904L71.7611 80.904L71.7611 84.096L74.9771 84.096L74.9771 86.664L71.7611 86.664L71.7611 91.872C71.7611 92.448 71.8811 92.848 72.1211 93.072C72.3771 93.28 72.8091 93.384 73.4171 93.384L74.9051 93.384L74.9051 96L72.8171 96ZM79.2707 82.248C78.7107 82.248 78.2467 82.08 77.8787 81.744C77.5267 81.408 77.3507 80.984 77.3507 80.472C77.3507 79.96 77.5267 79.544 77.8787 79.224C78.2467 78.888 78.7107 78.72 79.2707 78.72C79.8307 78.72 80.2867 78.888 80.6387 79.224C81.0067 79.544 81.1907 79.96 81.1907 80.472C81.1907 80.984 81.0067 81.408 80.6387 81.744C80.2867 82.08 79.8307 82.248 79.2707 82.248ZM77.7347 96L77.7347 84.096L80.8067 84.096L80.8067 96L77.7347 96ZM89.7251 96.288C88.5731 96.288 87.5331 96.024 86.6051 95.496C85.6931 94.968 84.9651 94.24 84.4211 93.312C83.8931 92.368 83.6291 91.28 83.6291 90.048C83.6291 88.816 83.9011 87.736 84.4451 86.808C84.9891 85.864 85.7171 85.128 86.6291 84.6C87.5571 84.072 88.5971 83.808 89.7491 83.808C90.8851 83.808 91.9091 84.072 92.8211 84.6C93.7491 85.128 94.4771 85.864 95.0051 86.808C95.5491 87.736 95.8211 88.816 95.8211 90.048C95.8211 91.28 95.5491 92.368 95.0051 93.312C94.4771 94.24 93.7491 94.968 92.8211 95.496C91.8931 96.024 90.8611 96.288 89.7251 96.288ZM89.7251 93.624C90.5251 93.624 91.2211 93.328 91.8131 92.736C92.4051 92.128 92.7011 91.232 92.7011 90.048C92.7011 88.864 92.4051 87.976 91.8131 87.384C91.2211 86.776 90.5331 86.472 89.7491 86.472C88.9331 86.472 88.2291 86.776 87.6371 87.384C87.0611 87.976 86.7731 88.864 86.7731 90.048C86.7731 91.232 87.0611 92.128 87.6371 92.736C88.2291 93.328 88.9251 93.624 89.7251 93.624ZM98.5678 96L98.5678 84.096L101.28 84.096L101.52 86.112C101.888 85.408 102.416 84.848 103.104 84.432C103.808 84.016 104.632 83.808 105.576 83.808C107.048 83.808 108.192 84.272 109.008 85.2C109.824 86.128 110.232 87.488 110.232 89.28L110.232 96L107.16 96L107.16 89.568C107.16 88.544 106.952 87.76 106.536 87.216C106.12 86.672 105.472 86.4 104.592 86.4C103.728 86.4 103.016 86.704 102.456 87.312C101.912 87.92 101.64 88.768 101.64 89.856L101.64 96L98.5678 96ZM118.089 96.288C117.033 96.288 116.105 96.12 115.305 95.784C114.505 95.432 113.865 94.952 113.385 94.344C112.905 93.736 112.617 93.032 112.521 92.232L115.617 92.232C115.713 92.696 115.969 93.096 116.385 93.432C116.817 93.752 117.369 93.912 118.041 93.912C118.713 93.912 119.201 93.776 119.505 93.504C119.825 93.232 119.985 92.92 119.985 92.568C119.985 92.056 119.761 91.712 119.313 91.536C118.865 91.344 118.241 91.16 117.441 90.984C116.929 90.872 116.409 90.736 115.881 90.576C115.353 90.416 114.865 90.216 114.417 89.976C113.985 89.72 113.633 89.4 113.361 89.016C113.089 88.616 112.953 88.128 112.953 87.552C112.953 86.496 113.369 85.608 114.201 84.888C115.049 84.168 116.233 83.808 117.753 83.808C119.161 83.808 120.281 84.136 121.113 84.792C121.961 85.448 122.465 86.352 122.625 87.504L119.721 87.504C119.545 86.624 118.881 86.184 117.729 86.184C117.153 86.184 116.705 86.296 116.385 86.52C116.081 86.744 115.929 87.024 115.929 87.36C115.929 87.712 116.161 87.992 116.625 88.2C117.089 88.408 117.705 88.6 118.473 88.776C119.305 88.968 120.065 89.184 120.753 89.424C121.457 89.648 122.017 89.992 122.433 90.456C122.849 90.904 123.057 91.552 123.057 92.4C123.073 93.136 122.881 93.8 122.481 94.392C122.081 94.984 121.505 95.448 120.753 95.784C120.001 96.12 119.113 96.288 118.089 96.288Z" fill="black"/>
<path fill-rule="evenodd" clip-rule="evenodd" d="M73.7961 32.4172V32.1168C73.7961 31.4438 73.393 30.8049 72.7199 30.4056C68.691 28.029 66.1908 23.6427 66.1908 18.9578V12.733H64.9238C63.5852 12.733 62.5 11.6479 62.5 10.3092V10.3092C62.5 8.97062 63.5852 7.88545 64.9238 7.88545H66.1908H92.8092H94.0762C95.4148 7.88545 96.5 8.97062 96.5 10.3092V10.3092C96.5 11.6479 95.4148 12.733 94.0762 12.733H92.8092V18.9578C92.8092 23.6427 90.309 28.029 86.282 30.4037C85.607 30.803 85.2039 31.4438 85.2039 32.1168V32.4172H73.7961ZM89.0066 12.733V18.9578C89.0066 22.3041 87.2231 25.4337 84.3503 27.1297C83.0555 27.894 82.1542 29.0519 81.7169 30.3657H77.2831C76.8439 29.0519 75.9464 27.894 74.6516 27.1316C71.7769 25.4337 69.9934 22.3041 69.9934 18.9578V12.733H89.0066Z" fill="#565656"/>
<path fill-rule="evenodd" clip-rule="evenodd" d="M73.7961 32.4172V32.1168C73.7961 31.4438 73.393 30.8049 72.7199 30.4056C68.691 28.029 66.1908 23.6427 66.1908 18.9578V12.733H64.9238C63.5852 12.733 62.5 11.6479 62.5 10.3092V10.3092C62.5 8.97062 63.5852 7.88545 64.9238 7.88545H66.1908H92.8092H94.0762C95.4148 7.88545 96.5 8.97062 96.5 10.3092V10.3092C96.5 11.6479 95.4148 12.733 94.0762 12.733H92.8092V18.9578C92.8092 23.6427 90.309 28.029 86.282 30.4037C85.607 30.803 85.2039 31.4438 85.2039 32.1168V32.4172H73.7961ZM89.0066 12.733V18.9578C89.0066 22.3041 87.2231 25.4337 84.3503 27.1297C83.0555 27.894 82.1542 29.0519 81.7169 30.3657H77.2831C76.8439 29.0519 75.9464 27.894 74.6516 27.1316C71.7769 25.4337 69.9934 22.3041 69.9934 18.9578V12.733H89.0066Z" fill="#565656"/>
<path fill-rule="evenodd" clip-rule="evenodd" d="M73.7961 32.4172V32.1168C73.7961 31.4438 73.393 30.8049 72.7199 30.4056C68.691 28.029 66.1908 23.6427 66.1908 18.9578V12.733H64.9238C63.5852 12.733 62.5 11.6479 62.5 10.3092V10.3092C62.5 8.97062 63.5852 7.88545 64.9238 7.88545H66.1908H92.8092H94.0762C95.4148 7.88545 96.5 8.97062 96.5 10.3092V10.3092C96.5 11.6479 95.4148 12.733 94.0762 12.733H92.8092V18.9578C92.8092 23.6427 90.309 28.029 86.282 30.4037C85.607 30.803 85.2039 31.4438 85.2039 32.1168V32.4172H73.7961ZM89.0066 12.733V18.9578C89.0066 22.3041 87.2231 25.4337 84.3503 27.1297C83.0555 27.894 82.1542 29.0519 81.7169 30.3657H77.2831C76.8439 29.0519 75.9464 27.894 74.6516 27.1316C71.7769 25.4337 69.9934 22.3041 69.9934 18.9578V12.733H89.0066Z" fill="#565656"/>
<path fill-rule="evenodd" clip-rule="evenodd" d="M73.7961 32.4172V32.7176C73.7961 33.3907 73.393 34.0296 72.7199 34.4288C68.691 36.8055 66.1908 41.1918 66.1908 45.8767V52.1014H64.9238C63.5852 52.1014 62.5 53.1866 62.5 54.5252V54.5252C62.5 55.8639 63.5852 56.949 64.9238 56.949H66.1908H92.8092H94.0762C95.4148 56.949 96.5 55.8639 96.5 54.5252V54.5252C96.5 53.1866 95.4148 52.1014 94.0762 52.1014H92.8092V45.8767C92.8092 41.1918 90.309 36.8055 86.282 34.4307C85.607 34.0315 85.2039 33.3907 85.2039 32.7176V32.4172H73.7961ZM89.0066 52.1014V45.8767C89.0066 42.5303 87.2231 39.4008 84.3503 37.7048C83.0555 36.9405 82.1542 35.7826 81.7169 34.4688H77.2831C76.8439 35.7826 75.9464 36.9405 74.6516 37.7029C71.7769 39.4008 69.9934 42.5303 69.9934 45.8767V52.1014H89.0066Z" fill="#565656"/>
<path fill-rule="evenodd" clip-rule="evenodd" d="M73.7961 32.4172V32.7176C73.7961 33.3907 73.393 34.0296 72.7199 34.4288C68.691 36.8055 66.1908 41.1918 66.1908 45.8767V52.1014H64.9238C63.5852 52.1014 62.5 53.1866 62.5 54.5252V54.5252C62.5 55.8639 63.5852 56.949 64.9238 56.949H66.1908H92.8092H94.0762C95.4148 56.949 96.5 55.8639 96.5 54.5252V54.5252C96.5 53.1866 95.4148 52.1014 94.0762 52.1014H92.8092V45.8767C92.8092 41.1918 90.309 36.8055 86.282 34.4307C85.607 34.0315 85.2039 33.3907 85.2039 32.7176V32.4172H73.7961ZM89.0066 52.1014V45.8767C89.0066 42.5303 87.2231 39.4008 84.3503 37.7048C83.0555 36.9405 82.1542 35.7826 81.7169 34.4688H77.2831C76.8439 35.7826 75.9464 36.9405 74.6516 37.7029C71.7769 39.4008 69.9934 42.5303 69.9934 45.8767V52.1014H89.0066Z" fill="#565656"/>
<path fill-rule="evenodd" clip-rule="evenodd" d="M73.7961 32.4172V32.7176C73.7961 33.3907 73.393 34.0296 72.7199 34.4288C68.691 36.8055 66.1908 41.1918 66.1908 45.8767V52.1014H64.9238C63.5852 52.1014 62.5 53.1866 62.5 54.5252V54.5252C62.5 55.8639 63.5852 56.949 64.9238 56.949H66.1908H92.8092H94.0762C95.4148 56.949 96.5 55.8639 96.5 54.5252V54.5252C96.5 53.1866 95.4148 52.1014 94.0762 52.1014H92.8092V45.8767C92.8092 41.1918 90.309 36.8055 86.282 34.4307C85.607 34.0315 85.2039 33.3907 85.2039 32.7176V32.4172H73.7961ZM89.0066 52.1014V45.8767C89.0066 42.5303 87.2231 39.4008 84.3503 37.7048C83.0555 36.9405 82.1542 35.7826 81.7169 34.4688H77.2831C76.8439 35.7826 75.9464 36.9405 74.6516 37.7029C71.7769 39.4008 69.9934 42.5303 69.9934 45.8767V52.1014H89.0066Z" fill="#565656"/>
<path fill-rule="evenodd" clip-rule="evenodd" d="M83.5263 50.4561C85.0088 50.4561 86.2105 49.2543 86.2105 47.7718V46.0479C86.2105 43.6782 84.9516 41.4619 82.9237 40.2609C82.4935 40.0061 82.1249 39.6896 81.823 39.3289C81.2229 38.612 80.4338 37.9692 79.4989 37.9692V37.9692C78.565 37.9692 77.7771 38.6107 77.1784 39.3274C76.8768 39.6885 76.5083 40.0051 76.0776 40.2595C74.0484 41.4619 72.7895 43.6782 72.7895 46.0479V47.7718C72.7895 49.2543 73.9912 50.4561 75.4737 50.4561H83.5263Z" fill="#787878"/>
<path d="M76.0782 26.1338C76.5089 26.3882 76.8774 26.7049 77.179 27.0659C77.7777 27.7826 78.5656 28.4241 79.4995 28.4241V28.4241C80.4344 28.4241 81.2235 27.7813 81.8236 27.0644C82.1255 26.7037 82.4941 26.3872 82.9243 26.1324C83.8307 25.5956 84.5834 24.856 85.1388 23.9906H73.8625C74.418 24.8563 75.1712 25.5963 76.0782 26.1338Z" fill="#787878"/>
<path d="M210.741 96L210.741 79.2L221.589 79.2L221.589 81.672L213.813 81.672L213.813 86.376L220.101 86.376L220.101 88.8L213.813 88.8L213.813 96L210.741 96ZM228.352 96.288C226.864 96.288 225.712 95.824 224.896 94.896C224.096 93.968 223.696 92.608 223.696 90.816L223.696 84.096L226.744 84.096L226.744 90.528C226.744 91.552 226.952 92.336 227.368 92.88C227.784 93.424 228.44 93.696 229.336 93.696C230.184 93.696 230.88 93.392 231.424 92.784C231.984 92.176 232.264 91.328 232.264 90.24L232.264 84.096L235.336 84.096L235.336 96L232.624 96L232.384 93.984C232.016 94.688 231.48 95.248 230.776 95.664C230.088 96.08 229.28 96.288 228.352 96.288ZM243.794 96C242.546 96 241.546 95.696 240.794 95.088C240.042 94.48 239.666 93.4 239.666 91.848L239.666 86.664L237.626 86.664L237.626 84.096L239.666 84.096L240.026 80.904L242.738 80.904L242.738 84.096L245.954 84.096L245.954 86.664L242.738 86.664L242.738 91.872C242.738 92.448 242.858 92.848 243.098 93.072C243.354 93.28 243.786 93.384 244.394 93.384L245.882 93.384L245.882 96L243.794 96ZM253.055 96.288C251.567 96.288 250.415 95.824 249.599 94.896C248.799 93.968 248.399 92.608 248.399 90.816L248.399 84.096L251.447 84.096L251.447 90.528C251.447 91.552 251.655 92.336 252.071 92.88C252.487 93.424 253.143 93.696 254.039 93.696C254.887 93.696 255.583 93.392 256.127 92.784C256.687 92.176 256.967 91.328 256.967 90.24L256.967 84.096L260.039 84.096L260.039 96L257.327 96L257.087 93.984C256.719 94.688 256.183 95.248 255.479 95.664C254.791 96.08 253.983 96.288 253.055 96.288ZM263.193 96L263.193 84.096L265.929 84.096L266.217 86.328C266.649 85.56 267.233 84.952 267.969 84.504C268.721 84.04 269.601 83.808 270.609 83.808L270.609 87.048L269.745 87.048C269.073 87.048 268.473 87.152 267.945 87.36C267.417 87.568 267.001 87.928 266.697 88.44C266.409 88.952 266.265 89.664 266.265 90.576L266.265 96L263.193 96ZM278.282 96.288C277.082 96.288 276.017 96.032 275.089 95.52C274.161 95.008 273.433 94.288 272.905 93.36C272.377 92.432 272.113 91.36 272.113 90.144C272.113 88.912 272.369 87.816 272.881 86.856C273.409 85.896 274.13 85.152 275.041 84.624C275.97 84.08 277.058 83.808 278.306 83.808C279.474 83.808 280.506 84.064 281.402 84.576C282.298 85.088 282.994 85.792 283.489 86.688C284.001 87.568 284.258 88.552 284.257 89.64C284.257 89.816 284.25 90 284.234 90.192C284.234 90.384 284.226 90.584 284.21 90.792L275.162 90.792C275.226 91.72 275.545 92.448 276.121 92.976C276.714 93.504 277.426 93.768 278.257 93.768C278.882 93.768 279.402 93.632 279.817 93.36C280.25 93.072 280.57 92.704 280.778 92.256L283.898 92.256C283.674 93.008 283.298 93.696 282.77 94.32C282.258 94.928 281.618 95.408 280.85 95.76C280.098 96.112 279.242 96.288 278.282 96.288ZM278.306 86.304C277.554 86.304 276.89 86.52 276.314 86.952C275.738 87.368 275.369 88.008 275.209 88.872L281.138 88.872C281.09 88.088 280.802 87.464 280.274 87C279.746 86.536 279.09 86.304 278.306 86.304ZM291.761 96.288C290.705 96.288 289.777 96.12 288.977 95.784C288.177 95.432 287.537 94.952 287.057 94.344C286.577 93.736 286.289 93.032 286.193 92.232L289.289 92.232C289.385 92.696 289.641 93.096 290.057 93.432C290.489 93.752 291.041 93.912 291.713 93.912C292.385 93.912 292.873 93.776 293.177 93.504C293.497 93.232 293.657 92.92 293.657 92.568C293.657 92.056 293.433 91.712 292.985 91.536C292.537 91.344 291.913 91.16 291.113 90.984C290.601 90.872 290.081 90.736 289.553 90.576C289.025 90.416 288.537 90.216 288.089 89.976C287.657 89.72 287.305 89.4 287.033 89.016C286.761 88.616 286.625 88.128 286.625 87.552C286.625 86.496 287.041 85.608 287.873 84.888C288.721 84.168 289.905 83.808 291.425 83.808C292.833 83.808 293.953 84.136 294.785 84.792C295.633 85.448 296.137 86.352 296.297 87.504L293.393 87.504C293.217 86.624 292.553 86.184 291.401 86.184C290.825 86.184 290.377 86.296 290.057 86.52C289.753 86.744 289.601 87.024 289.601 87.36C289.601 87.712 289.833 87.992 290.297 88.2C290.761 88.408 291.377 88.6 292.145 88.776C292.977 88.968 293.737 89.184 294.425 89.424C295.129 89.648 295.689 89.992 296.105 90.456C296.521 90.904 296.729 91.552 296.729 92.4C296.745 93.136 296.553 93.8 296.153 94.392C295.753 94.984 295.177 95.448 294.425 95.784C293.673 96.12 292.785 96.288 291.761 96.288Z" fill="black"/>
<path d="M240.749 39.5498H233.499C233.107 39.5498 232.789 39.8677 232.789 40.2598V53.2898C232.789 53.6819 233.107 53.9998 233.499 53.9998H240.749C241.141 53.9998 241.459 53.6819 241.459 53.2898V40.2598C241.459 39.8677 241.141 39.5498 240.749 39.5498Z" fill="#565656"/>
<path d="M251.999 29.04H244.749C244.357 29.04 244.039 29.3579 244.039 29.75V53.29C244.039 53.6822 244.357 54 244.749 54H251.999C252.391 54 252.709 53.6822 252.709 53.29V29.75C252.709 29.3579 252.391 29.04 251.999 29.04Z" fill="#787878"/>
<path d="M263.249 18.5195H255.999C255.607 18.5195 255.289 18.8374 255.289 19.2295V53.2895C255.289 53.6817 255.607 53.9995 255.999 53.9995H263.249C263.641 53.9995 263.959 53.6817 263.959 53.2895V19.2295C263.959 18.8374 263.641 18.5195 263.249 18.5195Z" fill="#565656"/>
<path d="M274.499 8H267.249C266.857 8 266.539 8.31788 266.539 8.71V53.29C266.539 53.6821 266.857 54 267.249 54H274.499C274.891 54 275.209 53.6821 275.209 53.29V8.71C275.209 8.31788 274.891 8 274.499 8Z" fill="#787878"/>
<path d="M277.1 52H230.9C230.403 52 230 52.4029 230 52.9V55.1C230 55.5971 230.403 56 230.9 56H277.1C277.597 56 278 55.5971 278 55.1V52.9C278 52.4029 277.597 52 277.1 52Z" fill="#565656"/>
<path d="M234.529 31.8656L232.966 30.3029C232.925 30.2621 232.893 30.2136 232.871 30.1602C232.849 30.1068 232.837 30.0496 232.837 29.9918C232.837 29.934 232.849 29.8768 232.871 29.8234C232.893 29.77 232.925 29.7215 232.966 29.6807L250.644 12.003L252.829 14.188L235.151 31.8656C235.11 31.9065 235.062 31.9389 235.008 31.961C234.955 31.9831 234.898 31.9945 234.84 31.9945C234.782 31.9945 234.725 31.9831 234.671 31.961C234.618 31.9389 234.57 31.9065 234.529 31.8656V31.8656Z" fill="#565656"/>
<path d="M254.361 10.8493L253.471 15.5393C253.461 15.5958 253.436 15.6485 253.398 15.6914C253.36 15.7343 253.31 15.7659 253.255 15.7824C253.2 15.799 253.142 15.8 253.086 15.7854C253.031 15.7707 252.981 15.7409 252.941 15.6993L249.151 11.9093C249.109 11.8697 249.08 11.8194 249.065 11.7639C249.05 11.7084 249.051 11.65 249.068 11.595C249.085 11.5401 249.116 11.4908 249.159 11.4527C249.202 11.4146 249.255 11.3892 249.311 11.3793L254.001 10.4893C254.05 10.4804 254.101 10.4836 254.149 10.4986C254.196 10.5135 254.24 10.5398 254.275 10.5752C254.311 10.6105 254.337 10.6539 254.352 10.7017C254.367 10.7494 254.37 10.8 254.361 10.8493Z" fill="#565656"/>
<path d="M65 118V147H96M249 118V147H218" stroke="#787878" stroke-opacity="0.2"/>
<g filter="url(#filter0_b)">
<rect x="108" y="131" width="98" height="32" rx="4" fill="#45454E" fill-opacity="0.75"/>
<path d="M132.714 152V150.698C133.311 150.203 133.89 149.713 134.45 149.228C135.019 148.743 135.523 148.262 135.962 147.786C136.41 147.31 136.765 146.848 137.026 146.4C137.297 145.943 137.432 145.499 137.432 145.07C137.432 144.669 137.32 144.314 137.096 144.006C136.881 143.698 136.522 143.544 136.018 143.544C135.505 143.544 135.117 143.712 134.856 144.048C134.595 144.384 134.464 144.79 134.464 145.266H132.728C132.747 144.547 132.905 143.95 133.204 143.474C133.503 142.989 133.899 142.629 134.394 142.396C134.889 142.153 135.444 142.032 136.06 142.032C137.059 142.032 137.833 142.307 138.384 142.858C138.944 143.399 139.224 144.104 139.224 144.972C139.224 145.513 139.098 146.041 138.846 146.554C138.603 147.067 138.281 147.562 137.88 148.038C137.479 148.514 137.045 148.962 136.578 149.382C136.111 149.793 135.659 150.175 135.22 150.53H139.462V152H132.714ZM144.9 152.168C143.994 152.168 143.22 151.958 142.576 151.538C141.932 151.109 141.432 150.516 141.078 149.76C140.732 148.995 140.56 148.108 140.56 147.1C140.56 146.101 140.732 145.219 141.078 144.454C141.432 143.689 141.932 143.096 142.576 142.676C143.22 142.247 143.994 142.032 144.9 142.032C145.805 142.032 146.58 142.247 147.224 142.676C147.868 143.096 148.362 143.689 148.708 144.454C149.062 145.219 149.24 146.101 149.24 147.1C149.24 148.108 149.062 148.995 148.708 149.76C148.362 150.516 147.868 151.109 147.224 151.538C146.58 151.958 145.805 152.168 144.9 152.168ZM144.9 150.558C145.637 150.558 146.239 150.25 146.706 149.634C147.172 149.018 147.406 148.173 147.406 147.1C147.406 146.027 147.172 145.182 146.706 144.566C146.239 143.95 145.637 143.642 144.9 143.642C144.153 143.642 143.546 143.95 143.08 144.566C142.622 145.182 142.394 146.027 142.394 147.1C142.394 148.173 142.622 149.018 143.08 149.634C143.546 150.25 144.153 150.558 144.9 150.558ZM150.515 152V150.698C151.112 150.203 151.691 149.713 152.251 149.228C152.82 148.743 153.324 148.262 153.763 147.786C154.211 147.31 154.565 146.848 154.827 146.4C155.097 145.943 155.233 145.499 155.233 145.07C155.233 144.669 155.121 144.314 154.897 144.006C154.682 143.698 154.323 143.544 153.819 143.544C153.305 143.544 152.918 143.712 152.657 144.048C152.395 144.384 152.265 144.79 152.265 145.266H150.529C150.547 144.547 150.706 143.95 151.005 143.474C151.303 142.989 151.7 142.629 152.195 142.396C152.689 142.153 153.245 142.032 153.861 142.032C154.859 142.032 155.634 142.307 156.185 142.858C156.745 143.399 157.025 144.104 157.025 144.972C157.025 145.513 156.899 146.041 156.647 146.554C156.404 147.067 156.082 147.562 155.681 148.038C155.279 148.514 154.845 148.962 154.379 149.382C153.912 149.793 153.459 150.175 153.021 150.53H157.263V152H150.515ZM159.815 152V144.244L158.205 144.622V143.25L160.571 142.2H161.677V152H159.815ZM171.505 152.168C170.525 152.168 169.666 151.953 168.929 151.524C168.201 151.095 167.627 150.502 167.207 149.746C166.796 148.981 166.591 148.099 166.591 147.1C166.591 146.101 166.796 145.224 167.207 144.468C167.627 143.703 168.201 143.105 168.929 142.676C169.666 142.247 170.525 142.032 171.505 142.032C172.476 142.032 173.33 142.247 174.067 142.676C174.804 143.105 175.378 143.703 175.789 144.468C176.2 145.224 176.405 146.101 176.405 147.1C176.405 148.033 176.223 148.869 175.859 149.606C175.495 150.334 174.991 150.913 174.347 151.342L176.615 153.778H174.389L172.849 152.014C172.42 152.117 171.972 152.168 171.505 152.168ZM171.505 150.558C172.438 150.558 173.18 150.25 173.731 149.634C174.291 149.018 174.571 148.173 174.571 147.1C174.571 146.027 174.291 145.182 173.731 144.566C173.18 143.95 172.438 143.642 171.505 143.642C170.572 143.642 169.825 143.95 169.265 144.566C168.705 145.182 168.425 146.027 168.425 147.1C168.425 148.173 168.705 149.018 169.265 149.634C169.825 150.25 170.572 150.558 171.505 150.558ZM179.01 152V144.244L177.4 144.622V143.25L179.766 142.2H180.872V152H179.01Z" fill="white"/>
</g>
<path d="M65 321V350H96M249 321V350H218" stroke="#787878" stroke-opacity="0.2"/>
<g filter="url(#filter1_b)">
<rect x="106.5" y="334" width="101" height="32" rx="4" fill="#45454E" fill-opacity="0.75"/>
<path d="M131.214 355V353.698C131.811 353.203 132.39 352.713 132.95 352.228C133.519 351.743 134.023 351.262 134.462 350.786C134.91 350.31 135.265 349.848 135.526 349.4C135.797 348.943 135.932 348.499 135.932 348.07C135.932 347.669 135.82 347.314 135.596 347.006C135.381 346.698 135.022 346.544 134.518 346.544C134.005 346.544 133.617 346.712 133.356 347.048C133.095 347.384 132.964 347.79 132.964 348.266H131.228C131.247 347.547 131.405 346.95 131.704 346.474C132.003 345.989 132.399 345.629 132.894 345.396C133.389 345.153 133.944 345.032 134.56 345.032C135.559 345.032 136.333 345.307 136.884 345.858C137.444 346.399 137.724 347.104 137.724 347.972C137.724 348.513 137.598 349.041 137.346 349.554C137.103 350.067 136.781 350.562 136.38 351.038C135.979 351.514 135.545 351.962 135.078 352.382C134.611 352.793 134.159 353.175 133.72 353.53H137.962V355H131.214ZM143.4 355.168C142.494 355.168 141.72 354.958 141.076 354.538C140.432 354.109 139.932 353.516 139.578 352.76C139.232 351.995 139.06 351.108 139.06 350.1C139.06 349.101 139.232 348.219 139.578 347.454C139.932 346.689 140.432 346.096 141.076 345.676C141.72 345.247 142.494 345.032 143.4 345.032C144.305 345.032 145.08 345.247 145.724 345.676C146.368 346.096 146.862 346.689 147.208 347.454C147.562 348.219 147.74 349.101 147.74 350.1C147.74 351.108 147.562 351.995 147.208 352.76C146.862 353.516 146.368 354.109 145.724 354.538C145.08 354.958 144.305 355.168 143.4 355.168ZM143.4 353.558C144.137 353.558 144.739 353.25 145.206 352.634C145.672 352.018 145.906 351.173 145.906 350.1C145.906 349.027 145.672 348.182 145.206 347.566C144.739 346.95 144.137 346.642 143.4 346.642C142.653 346.642 142.046 346.95 141.58 347.566C141.122 348.182 140.894 349.027 140.894 350.1C140.894 351.173 141.122 352.018 141.58 352.634C142.046 353.25 142.653 353.558 143.4 353.558ZM149.015 355V353.698C149.612 353.203 150.191 352.713 150.751 352.228C151.32 351.743 151.824 351.262 152.263 350.786C152.711 350.31 153.065 349.848 153.327 349.4C153.597 348.943 153.733 348.499 153.733 348.07C153.733 347.669 153.621 347.314 153.397 347.006C153.182 346.698 152.823 346.544 152.319 346.544C151.805 346.544 151.418 346.712 151.157 347.048C150.895 347.384 150.765 347.79 150.765 348.266H149.029C149.047 347.547 149.206 346.95 149.505 346.474C149.803 345.989 150.2 345.629 150.695 345.396C151.189 345.153 151.745 345.032 152.361 345.032C153.359 345.032 154.134 345.307 154.685 345.858C155.245 346.399 155.525 347.104 155.525 347.972C155.525 348.513 155.399 349.041 155.147 349.554C154.904 350.067 154.582 350.562 154.181 351.038C153.779 351.514 153.345 351.962 152.879 352.382C152.412 352.793 151.959 353.175 151.521 353.53H155.763V355H149.015ZM157.013 355V353.698C157.61 353.203 158.189 352.713 158.749 352.228C159.318 351.743 159.822 351.262 160.261 350.786C160.709 350.31 161.063 349.848 161.325 349.4C161.595 348.943 161.731 348.499 161.731 348.07C161.731 347.669 161.619 347.314 161.395 347.006C161.18 346.698 160.821 346.544 160.317 346.544C159.803 346.544 159.416 346.712 159.155 347.048C158.893 347.384 158.763 347.79 158.763 348.266H157.027C157.045 347.547 157.204 346.95 157.503 346.474C157.801 345.989 158.198 345.629 158.693 345.396C159.187 345.153 159.743 345.032 160.359 345.032C161.357 345.032 162.132 345.307 162.683 345.858C163.243 346.399 163.523 347.104 163.523 347.972C163.523 348.513 163.397 349.041 163.145 349.554C162.902 350.067 162.58 350.562 162.179 351.038C161.777 351.514 161.343 351.962 160.877 352.382C160.41 352.793 159.957 353.175 159.519 353.53H163.761V355H157.013ZM173.177 355.168C172.197 355.168 171.338 354.953 170.601 354.524C169.873 354.095 169.299 353.502 168.879 352.746C168.468 351.981 168.263 351.099 168.263 350.1C168.263 349.101 168.468 348.224 168.879 347.468C169.299 346.703 169.873 346.105 170.601 345.676C171.338 345.247 172.197 345.032 173.177 345.032C174.147 345.032 175.001 345.247 175.739 345.676C176.476 346.105 177.05 346.703 177.461 347.468C177.871 348.224 178.077 349.101 178.077 350.1C178.077 351.033 177.895 351.869 177.531 352.606C177.167 353.334 176.663 353.913 176.019 354.342L178.287 356.778H176.061L174.521 355.014C174.091 355.117 173.643 355.168 173.177 355.168ZM173.177 353.558C174.11 353.558 174.852 353.25 175.403 352.634C175.963 352.018 176.243 351.173 176.243 350.1C176.243 349.027 175.963 348.182 175.403 347.566C174.852 346.95 174.11 346.642 173.177 346.642C172.243 346.642 171.497 346.95 170.937 347.566C170.377 348.182 170.097 349.027 170.097 350.1C170.097 351.173 170.377 352.018 170.937 352.634C171.497 353.25 172.243 353.558 173.177 353.558ZM180.682 355V347.244L179.072 347.622V346.25L181.438 345.2H182.544V355H180.682Z" fill="white"/>
</g>
<path d="M101.579 499.288C100.347 499.288 99.2589 499.08 98.3149 498.664C97.3709 498.232 96.6269 497.624 96.0829 496.84C95.5389 496.04 95.2589 495.072 95.2429 493.936L98.4829 493.936C98.5149 494.72 98.7949 495.384 99.3229 495.928C99.8669 496.456 100.611 496.72 101.555 496.72C102.371 496.72 103.019 496.528 103.499 496.144C103.979 495.744 104.219 495.216 104.219 494.56C104.219 493.872 104.003 493.336 103.571 492.952C103.155 492.568 102.595 492.256 101.891 492.016C101.187 491.776 100.435 491.52 99.6349 491.248C98.3389 490.8 97.3469 490.224 96.6589 489.52C95.9869 488.816 95.6509 487.88 95.6509 486.712C95.6349 485.72 95.8669 484.872 96.3469 484.168C96.8429 483.448 97.5149 482.896 98.3629 482.512C99.2109 482.112 100.187 481.912 101.291 481.912C102.411 481.912 103.395 482.112 104.243 482.512C105.107 482.912 105.779 483.472 106.259 484.192C106.755 484.912 107.019 485.768 107.051 486.76L103.763 486.76C103.747 486.168 103.515 485.648 103.067 485.2C102.635 484.736 102.027 484.504 101.243 484.504C100.571 484.488 100.003 484.656 99.5389 485.008C99.0909 485.344 98.8669 485.84 98.8669 486.496C98.8669 487.056 99.0429 487.504 99.3949 487.84C99.7469 488.16 100.227 488.432 100.835 488.656C101.443 488.88 102.139 489.12 102.923 489.376C103.755 489.664 104.515 490 105.203 490.384C105.891 490.768 106.443 491.28 106.859 491.92C107.275 492.544 107.483 493.352 107.483 494.344C107.483 495.224 107.259 496.04 106.811 496.792C106.363 497.544 105.699 498.152 104.819 498.616C103.939 499.064 102.859 499.288 101.579 499.288ZM111.579 504.28L114.339 498.208L113.619 498.208L108.987 487.096L112.323 487.096L115.659 495.472L119.139 487.096L122.403 487.096L114.843 504.28L111.579 504.28ZM124.412 499L124.412 487.096L127.124 487.096L127.364 489.112C127.732 488.408 128.26 487.848 128.948 487.432C129.652 487.016 130.476 486.808 131.42 486.808C132.892 486.808 134.036 487.272 134.852 488.2C135.668 489.128 136.076 490.488 136.076 492.28L136.076 499L133.004 499L133.004 492.568C133.004 491.544 132.796 490.76 132.38 490.216C131.964 489.672 131.316 489.4 130.436 489.4C129.572 489.4 128.86 489.704 128.3 490.312C127.756 490.92 127.484 491.768 127.484 492.856L127.484 499L124.412 499ZM144.317 499C143.069 499 142.069 498.696 141.317 498.088C140.565 497.48 140.189 496.4 140.189 494.848L140.189 489.664L138.149 489.664L138.149 487.096L140.189 487.096L140.549 483.904L143.261 483.904L143.261 487.096L146.477 487.096L146.477 489.664L143.261 489.664L143.261 494.872C143.261 495.448 143.381 495.848 143.621 496.072C143.877 496.28 144.309 496.384 144.917 496.384L146.405 496.384L146.405 499L144.317 499ZM149.115 499L149.115 481.72L152.187 481.72L152.187 488.92C152.587 488.264 153.123 487.752 153.795 487.384C154.483 487 155.267 486.808 156.147 486.808C157.619 486.808 158.755 487.272 159.555 488.2C160.371 489.128 160.779 490.488 160.779 492.28L160.779 499L157.731 499L157.731 492.568C157.731 491.544 157.523 490.76 157.107 490.216C156.707 489.672 156.067 489.4 155.187 489.4C154.323 489.4 153.603 489.704 153.027 490.312C152.467 490.92 152.187 491.768 152.187 492.856L152.187 499L149.115 499ZM169.5 499.288C168.3 499.288 167.236 499.032 166.308 498.52C165.38 498.008 164.652 497.288 164.124 496.36C163.596 495.432 163.332 494.36 163.332 493.144C163.332 491.912 163.588 490.816 164.1 489.856C164.628 488.896 165.348 488.152 166.26 487.624C167.188 487.08 168.276 486.808 169.524 486.808C170.692 486.808 171.724 487.064 172.62 487.576C173.516 488.088 174.212 488.792 174.708 489.688C175.22 490.568 175.476 491.552 175.476 492.64C175.476 492.816 175.468 493 175.452 493.192C175.452 493.384 175.444 493.584 175.428 493.792L166.38 493.792C166.444 494.72 166.764 495.448 167.34 495.976C167.932 496.504 168.644 496.768 169.476 496.768C170.1 496.768 170.62 496.632 171.036 496.36C171.468 496.072 171.788 495.704 171.996 495.256L175.116 495.256C174.892 496.008 174.516 496.696 173.988 497.32C173.476 497.928 172.836 498.408 172.068 498.76C171.316 499.112 170.46 499.288 169.5 499.288ZM169.524 489.304C168.772 489.304 168.108 489.52 167.532 489.952C166.956 490.368 166.588 491.008 166.428 491.872L172.356 491.872C172.308 491.088 172.02 490.464 171.492 490C170.964 489.536 170.308 489.304 169.524 489.304ZM183.153 499C181.905 499 180.905 498.696 180.153 498.088C179.401 497.48 179.025 496.4 179.025 494.848L179.025 489.664L176.985 489.664L176.985 487.096L179.025 487.096L179.385 483.904L182.097 483.904L182.097 487.096L185.313 487.096L185.313 489.664L182.097 489.664L182.097 494.872C182.097 495.448 182.217 495.848 182.457 496.072C182.713 496.28 183.145 496.384 183.753 496.384L185.241 496.384L185.241 499L183.153 499ZM189.607 485.248C189.047 485.248 188.583 485.08 188.215 484.744C187.863 484.408 187.687 483.984 187.687 483.472C187.687 482.96 187.863 482.544 188.215 482.224C188.583 481.888 189.047 481.72 189.607 481.72C190.167 481.72 190.623 481.888 190.975 482.224C191.343 482.544 191.527 482.96 191.527 483.472C191.527 483.984 191.343 484.408 190.975 484.744C190.623 485.08 190.167 485.248 189.607 485.248ZM188.071 499L188.071 487.096L191.143 487.096L191.143 499L188.071 499ZM200.181 499.288C198.965 499.288 197.893 499.024 196.965 498.496C196.037 497.968 195.301 497.232 194.757 496.288C194.229 495.344 193.965 494.264 193.965 493.048C193.965 491.832 194.229 490.752 194.757 489.808C195.301 488.864 196.037 488.128 196.965 487.6C197.893 487.072 198.965 486.808 200.181 486.808C201.701 486.808 202.981 487.208 204.021 488.008C205.061 488.792 205.725 489.88 206.013 491.272L202.773 491.272C202.613 490.696 202.293 490.248 201.813 489.928C201.349 489.592 200.797 489.424 200.157 489.424C199.309 489.424 198.589 489.744 197.997 490.384C197.405 491.024 197.109 491.912 197.109 493.048C197.109 494.184 197.405 495.072 197.997 495.712C198.589 496.352 199.309 496.672 200.157 496.672C200.797 496.672 201.349 496.512 201.813 496.192C202.293 495.872 202.613 495.416 202.773 494.824L206.013 494.824C205.725 496.168 205.061 497.248 204.021 498.064C202.981 498.88 201.701 499.288 200.181 499.288ZM213.66 499.288C212.604 499.288 211.676 499.12 210.876 498.784C210.076 498.432 209.436 497.952 208.956 497.344C208.476 496.736 208.188 496.032 208.092 495.232L211.188 495.232C211.284 495.696 211.54 496.096 211.956 496.432C212.388 496.752 212.94 496.912 213.612 496.912C214.284 496.912 214.772 496.776 215.076 496.504C215.396 496.232 215.556 495.92 215.556 495.568C215.556 495.056 215.332 494.712 214.884 494.536C214.436 494.344 213.812 494.16 213.012 493.984C212.5 493.872 211.98 493.736 211.452 493.576C210.924 493.416 210.436 493.216 209.988 492.976C209.556 492.72 209.204 492.4 208.932 492.016C208.66 491.616 208.524 491.128 208.524 490.552C208.524 489.496 208.94 488.608 209.772 487.888C210.62 487.168 211.804 486.808 213.324 486.808C214.732 486.808 215.852 487.136 216.684 487.792C217.532 488.448 218.036 489.352 218.196 490.504L215.292 490.504C215.116 489.624 214.452 489.184 213.3 489.184C212.724 489.184 212.276 489.296 211.956 489.52C211.652 489.744 211.5 490.024 211.5 490.36C211.5 490.712 211.732 490.992 212.196 491.2C212.66 491.408 213.276 491.6 214.044 491.776C214.876 491.968 215.636 492.184 216.324 492.424C217.028 492.648 217.588 492.992 218.004 493.456C218.42 493.904 218.628 494.552 218.628 495.4C218.644 496.136 218.452 496.8 218.052 497.392C217.652 497.984 217.076 498.448 216.324 498.784C215.572 499.12 214.684 499.288 213.66 499.288Z" fill="black"/>
<path d="M156.95 431.36C162.572 431.36 167.13 426.802 167.13 421.18C167.13 415.558 162.572 411 156.95 411C151.328 411 146.77 415.558 146.77 421.18C146.77 426.802 151.328 431.36 156.95 431.36Z" fill="#565656"/>
<path d="M160.69 420.11V418.43C160.691 417.772 160.519 417.125 160.19 416.555C159.862 415.984 159.389 415.51 158.82 415.18V415.18C158.25 414.851 157.603 414.678 156.945 414.678C156.287 414.678 155.64 414.851 155.07 415.18C154.501 415.51 154.028 415.984 153.7 416.555C153.371 417.125 153.199 417.772 153.2 418.43V420.11C153.189 420.695 153.336 421.271 153.624 421.78C153.913 422.288 154.333 422.71 154.84 423V423C155.48 423.369 156.206 423.563 156.945 423.563C157.684 423.563 158.41 423.369 159.05 423V423C159.557 422.71 159.977 422.288 160.266 421.78C160.554 421.271 160.701 420.695 160.69 420.11V420.11Z" fill="white"/>
<path d="M157 431.36C159.608 431.361 162.117 430.355 164 428.55C163.27 427.348 162.242 426.354 161.016 425.664C159.79 424.974 158.407 424.612 157 424.612C155.593 424.612 154.21 424.974 152.984 425.664C151.758 426.354 150.73 427.348 150 428.55C151.883 430.355 154.392 431.361 157 431.36V431.36Z" fill="#787878"/>
<path d="M143.13 459C148.752 459 153.31 454.442 153.31 448.82C153.31 443.198 148.752 438.64 143.13 438.64C137.508 438.64 132.95 443.198 132.95 448.82C132.95 454.442 137.508 459 143.13 459Z" fill="#565656"/>
<path d="M146.87 447.75V446.07C146.871 445.412 146.699 444.765 146.37 444.195C146.042 443.624 145.569 443.15 145 442.82V442.82C144.43 442.491 143.783 442.318 143.125 442.318C142.467 442.318 141.82 442.491 141.25 442.82C140.681 443.15 140.208 443.624 139.88 444.195C139.551 444.765 139.379 445.412 139.38 446.07V447.75C139.376 448.324 139.524 448.889 139.808 449.388C140.093 449.886 140.504 450.301 141 450.59V450.59C141.64 450.959 142.366 451.153 143.105 451.153C143.844 451.153 144.57 450.959 145.21 450.59V450.59C145.714 450.306 146.133 449.894 146.424 449.395C146.716 448.896 146.87 448.328 146.87 447.75V447.75Z" fill="white"/>
<path d="M143.13 459C145.738 459.001 148.247 457.995 150.13 456.19C149.4 454.988 148.372 453.994 147.146 453.304C145.92 452.614 144.537 452.252 143.13 452.252C141.723 452.252 140.34 452.614 139.114 453.304C137.888 453.994 136.86 454.988 136.13 456.19C138.013 457.995 140.522 459.001 143.13 459V459Z" fill="#787878"/>
<path d="M170.87 459C176.492 459 181.05 454.442 181.05 448.82C181.05 443.198 176.492 438.64 170.87 438.64C165.248 438.64 160.69 443.198 160.69 448.82C160.69 454.442 165.248 459 170.87 459Z" fill="#565656"/>
<path d="M174.62 447.75V446.07C174.621 445.412 174.449 444.765 174.12 444.195C173.792 443.624 173.319 443.15 172.75 442.82V442.82C172.18 442.491 171.533 442.318 170.875 442.318C170.217 442.318 169.57 442.491 169 442.82C168.431 443.15 167.958 443.624 167.63 444.195C167.301 444.765 167.129 445.412 167.13 446.07V447.75C167.128 448.326 167.279 448.892 167.567 449.391C167.855 449.89 168.27 450.304 168.77 450.59V450.59C169.41 450.959 170.136 451.153 170.875 451.153C171.614 451.153 172.34 450.959 172.98 450.59V450.59C173.48 450.304 173.895 449.89 174.183 449.391C174.471 448.892 174.622 448.326 174.62 447.75V447.75Z" fill="white"/>
<path d="M170.87 459C173.478 459.001 175.987 457.995 177.87 456.19C177.14 454.988 176.112 453.994 174.886 453.304C173.66 452.614 172.277 452.252 170.87 452.252C169.463 452.252 168.08 452.614 166.854 453.304C165.628 453.994 164.6 454.988 163.87 456.19C165.753 457.995 168.262 459.001 170.87 459V459Z" fill="#787878"/>
<path d="M157 438.71C156.735 438.71 156.48 438.605 156.293 438.417C156.105 438.23 156 437.975 156 437.71V434.46C156 434.195 156.105 433.94 156.293 433.753C156.48 433.565 156.735 433.46 157 433.46C157.265 433.46 157.52 433.565 157.707 433.753C157.895 433.94 158 434.195 158 434.46V437.71C158 437.975 157.895 438.23 157.707 438.417C157.52 438.605 157.265 438.71 157 438.71Z" fill="#565656"/>
<path d="M153.89 441C153.682 440.999 153.479 440.934 153.31 440.812C153.141 440.691 153.014 440.52 152.947 440.323C152.879 440.125 152.875 439.912 152.935 439.713C152.995 439.513 153.116 439.338 153.28 439.21L157 436.45L160.66 439.25C160.858 439.415 160.985 439.65 161.014 439.906C161.042 440.162 160.972 440.419 160.816 440.624C160.66 440.829 160.431 440.966 160.176 441.006C159.922 441.046 159.662 440.987 159.45 440.84L157 439L154.54 440.88C154.343 440.992 154.114 441.035 153.89 441V441Z" fill="#565656"/>
<path d="M8.60719 299.288C6.91119 299.288 5.45519 298.928 4.23919 298.208C3.02319 297.472 2.08719 296.456 1.43119 295.16C0.775187 293.848 0.447187 292.336 0.447187 290.624C0.447187 288.912 0.775187 287.4 1.43119 286.088C2.08719 284.776 3.02319 283.752 4.23919 283.016C5.45519 282.28 6.91119 281.912 8.60719 281.912C10.6232 281.912 12.2712 282.416 13.5512 283.424C14.8472 284.416 15.6552 285.816 15.9752 287.624L12.5912 287.624C12.3832 286.712 11.9352 286 11.2472 285.488C10.5752 284.96 9.67919 284.696 8.55919 284.696C7.00719 284.696 5.79119 285.224 4.91119 286.28C4.03119 287.336 3.59119 288.784 3.59119 290.624C3.59119 292.464 4.03119 293.912 4.91119 294.968C5.79119 296.008 7.00719 296.528 8.55919 296.528C9.67919 296.528 10.5752 296.288 11.2472 295.808C11.9352 295.312 12.3832 294.632 12.5912 293.768L15.9752 293.768C15.6552 295.496 14.8472 296.848 13.5512 297.824C12.2712 298.8 10.6232 299.288 8.60719 299.288ZM24.3345 299.288C23.1825 299.288 22.1425 299.024 21.2145 298.496C20.3025 297.968 19.5745 297.24 19.0305 296.312C18.5025 295.368 18.2385 294.28 18.2385 293.048C18.2385 291.816 18.5105 290.736 19.0545 289.808C19.5985 288.864 20.3265 288.128 21.2385 287.6C22.1665 287.072 23.2065 286.808 24.3585 286.808C25.4945 286.808 26.5185 287.072 27.4305 287.6C28.3585 288.128 29.0865 288.864 29.6145 289.808C30.1585 290.736 30.4305 291.816 30.4305 293.048C30.4305 294.28 30.1585 295.368 29.6145 296.312C29.0865 297.24 28.3585 297.968 27.4305 298.496C26.5025 299.024 25.4705 299.288 24.3345 299.288ZM24.3345 296.624C25.1345 296.624 25.8305 296.328 26.4225 295.736C27.0145 295.128 27.3105 294.232 27.3105 293.048C27.3105 291.864 27.0145 290.976 26.4225 290.384C25.8305 289.776 25.1425 289.472 24.3585 289.472C23.5425 289.472 22.8385 289.776 22.2465 290.384C21.6705 290.976 21.3825 291.864 21.3825 293.048C21.3825 294.232 21.6705 295.128 22.2465 295.736C22.8385 296.328 23.5345 296.624 24.3345 296.624ZM33.1772 299L33.1772 287.096L35.8892 287.096L36.1532 288.704C36.5372 288.128 37.0412 287.672 37.6652 287.336C38.3052 286.984 39.0412 286.808 39.8732 286.808C41.7132 286.808 43.0172 287.52 43.7852 288.944C44.2172 288.288 44.7932 287.768 45.5132 287.384C46.2492 287 47.0492 286.808 47.9132 286.808C49.4652 286.808 50.6572 287.272 51.4892 288.2C52.3212 289.128 52.7372 290.488 52.7372 292.28L52.7372 299L49.6652 299L49.6652 292.568C49.6652 291.544 49.4652 290.76 49.0652 290.216C48.6812 289.672 48.0812 289.4 47.2652 289.4C46.4332 289.4 45.7612 289.704 45.2492 290.312C44.7532 290.92 44.5052 291.768 44.5052 292.856L44.5052 299L41.4332 299L41.4332 292.568C41.4332 291.544 41.2332 290.76 40.8332 290.216C40.4332 289.672 39.8172 289.4 38.9852 289.4C38.1692 289.4 37.5052 289.704 36.9932 290.312C36.4972 290.92 36.2492 291.768 36.2492 292.856L36.2492 299L33.1772 299ZM55.6537 299L55.6537 287.096L58.3657 287.096L58.6298 288.704C59.0138 288.128 59.5178 287.672 60.1417 287.336C60.7818 286.984 61.5178 286.808 62.3498 286.808C64.1898 286.808 65.4938 287.52 66.2618 288.944C66.6938 288.288 67.2698 287.768 67.9898 287.384C68.7258 287 69.5258 286.808 70.3898 286.808C71.9418 286.808 73.1338 287.272 73.9658 288.2C74.7978 289.128 75.2138 290.488 75.2138 292.28L75.2138 299L72.1418 299L72.1418 292.568C72.1418 291.544 71.9418 290.76 71.5418 290.216C71.1578 289.672 70.5578 289.4 69.7418 289.4C68.9098 289.4 68.2378 289.704 67.7258 290.312C67.2297 290.92 66.9817 291.768 66.9817 292.856L66.9817 299L63.9097 299L63.9098 292.568C63.9098 291.544 63.7098 290.76 63.3097 290.216C62.9098 289.672 62.2938 289.4 61.4618 289.4C60.6458 289.4 59.9818 289.704 59.4698 290.312C58.9737 290.92 58.7257 291.768 58.7257 292.856L58.7257 299L55.6537 299ZM83.8423 299.288C82.6903 299.288 81.6503 299.024 80.7223 298.496C79.8103 297.968 79.0823 297.24 78.5383 296.312C78.0103 295.368 77.7463 294.28 77.7463 293.048C77.7463 291.816 78.0183 290.736 78.5623 289.808C79.1063 288.864 79.8343 288.128 80.7463 287.6C81.6743 287.072 82.7143 286.808 83.8663 286.808C85.0023 286.808 86.0263 287.072 86.9383 287.6C87.8663 288.128 88.5943 288.864 89.1223 289.808C89.6663 290.736 89.9383 291.816 89.9383 293.048C89.9383 294.28 89.6663 295.368 89.1223 296.312C88.5943 297.24 87.8663 297.968 86.9383 298.496C86.0103 299.024 84.9783 299.288 83.8423 299.288ZM83.8423 296.624C84.6423 296.624 85.3383 296.328 85.9303 295.736C86.5223 295.128 86.8183 294.232 86.8183 293.048C86.8183 291.864 86.5223 290.976 85.9303 290.384C85.3383 289.776 84.6503 289.472 83.8663 289.472C83.0503 289.472 82.3463 289.776 81.7543 290.384C81.1783 290.976 80.8903 291.864 80.8903 293.048C80.8903 294.232 81.1783 295.128 81.7543 295.736C82.3463 296.328 83.0423 296.624 83.8423 296.624ZM98.157 299.288C97.037 299.288 96.037 299.016 95.157 298.472C94.277 297.928 93.581 297.184 93.069 296.24C92.557 295.296 92.301 294.224 92.301 293.024C92.301 291.824 92.557 290.76 93.069 289.832C93.581 288.888 94.277 288.152 95.157 287.624C96.037 287.08 97.037 286.808 98.157 286.808C99.053 286.808 99.837 286.976 100.509 287.312C101.181 287.648 101.725 288.12 102.141 288.728L102.141 281.72L105.213 281.72L105.213 299L102.477 299L102.141 297.296C101.757 297.824 101.245 298.288 100.605 298.688C99.981 299.088 99.165 299.288 98.157 299.288ZM98.805 296.6C99.797 296.6 100.605 296.272 101.229 295.616C101.869 294.944 102.189 294.088 102.189 293.048C102.189 292.008 101.869 291.16 101.229 290.504C100.605 289.832 99.797 289.496 98.805 289.496C97.829 289.496 97.021 289.824 96.381 290.48C95.741 291.136 95.421 291.984 95.421 293.024C95.421 294.064 95.741 294.92 96.381 295.592C97.021 296.264 97.829 296.6 98.805 296.6ZM109.997 285.248C109.437 285.248 108.973 285.08 108.605 284.744C108.253 284.408 108.077 283.984 108.077 283.472C108.077 282.96 108.253 282.544 108.605 282.224C108.973 281.888 109.437 281.72 109.997 281.72C110.557 281.72 111.013 281.888 111.365 282.224C111.733 282.544 111.917 282.96 111.917 283.472C111.917 283.984 111.733 284.408 111.365 284.744C111.013 285.08 110.557 285.248 109.997 285.248ZM108.461 299L108.461 287.096L111.533 287.096L111.533 299L108.461 299ZM120.044 299C118.796 299 117.796 298.696 117.044 298.088C116.292 297.48 115.916 296.4 115.916 294.848L115.916 289.664L113.876 289.664L113.876 287.096L115.916 287.096L116.276 283.904L118.988 283.904L118.988 287.096L122.204 287.096L122.204 289.664L118.988 289.664L118.988 294.872C118.988 295.448 119.108 295.848 119.348 296.072C119.604 296.28 120.036 296.384 120.644 296.384L122.132 296.384L122.132 299L120.044 299ZM126.497 285.248C125.937 285.248 125.473 285.08 125.105 284.744C124.753 284.408 124.577 283.984 124.577 283.472C124.577 282.96 124.753 282.544 125.105 282.224C125.473 281.888 125.937 281.72 126.497 281.72C127.057 281.72 127.513 281.888 127.865 282.224C128.233 282.544 128.417 282.96 128.417 283.472C128.417 283.984 128.233 284.408 127.865 284.744C127.513 285.08 127.057 285.248 126.497 285.248ZM124.961 299L124.961 287.096L128.033 287.096L128.033 299L124.961 299ZM137.024 299.288C135.824 299.288 134.76 299.032 133.832 298.52C132.904 298.008 132.176 297.288 131.648 296.36C131.12 295.432 130.856 294.36 130.856 293.144C130.856 291.912 131.112 290.816 131.624 289.856C132.152 288.896 132.872 288.152 133.784 287.624C134.712 287.08 135.8 286.808 137.048 286.808C138.216 286.808 139.248 287.064 140.144 287.576C141.04 288.088 141.736 288.792 142.232 289.688C142.744 290.568 143 291.552 143 292.64C143 292.816 142.992 293 142.976 293.192C142.976 293.384 142.968 293.584 142.952 293.792L133.904 293.792C133.968 294.72 134.288 295.448 134.864 295.976C135.456 296.504 136.168 296.768 137 296.768C137.624 296.768 138.144 296.632 138.56 296.36C138.992 296.072 139.312 295.704 139.52 295.256L142.64 295.256C142.416 296.008 142.04 296.696 141.512 297.32C141 297.928 140.36 298.408 139.592 298.76C138.84 299.112 137.984 299.288 137.024 299.288ZM137.048 289.304C136.296 289.304 135.632 289.52 135.056 289.952C134.48 290.368 134.112 291.008 133.952 291.872L139.88 291.872C139.832 291.088 139.544 290.464 139.016 290C138.488 289.536 137.832 289.304 137.048 289.304ZM150.503 299.288C149.447 299.288 148.519 299.12 147.719 298.784C146.919 298.432 146.279 297.952 145.799 297.344C145.319 296.736 145.031 296.032 144.935 295.232L148.031 295.232C148.127 295.696 148.383 296.096 148.799 296.432C149.231 296.752 149.783 296.912 150.455 296.912C151.127 296.912 151.615 296.776 151.919 296.504C152.239 296.232 152.399 295.92 152.399 295.568C152.399 295.056 152.175 294.712 151.727 294.536C151.279 294.344 150.655 294.16 149.855 293.984C149.343 293.872 148.823 293.736 148.295 293.576C147.767 293.416 147.279 293.216 146.831 292.976C146.399 292.72 146.047 292.4 145.775 292.016C145.503 291.616 145.367 291.128 145.367 290.552C145.367 289.496 145.783 288.608 146.615 287.888C147.463 287.168 148.647 286.808 150.167 286.808C151.575 286.808 152.695 287.136 153.527 287.792C154.375 288.448 154.879 289.352 155.039 290.504L152.135 290.504C151.959 289.624 151.295 289.184 150.143 289.184C149.567 289.184 149.119 289.296 148.799 289.52C148.495 289.744 148.343 290.024 148.343 290.36C148.343 290.712 148.575 290.992 149.039 291.2C149.503 291.408 150.119 291.6 150.887 291.776C151.719 291.968 152.479 292.184 153.167 292.424C153.871 292.648 154.431 292.992 154.847 293.456C155.263 293.904 155.471 294.552 155.471 295.4C155.487 296.136 155.295 296.8 154.895 297.392C154.495 297.984 153.919 298.448 153.167 298.784C152.415 299.12 151.527 299.288 150.503 299.288Z" fill="black"/>
<path d="M89.4181 237.48C89.4181 249.08 84.7581 253 78.9981 253C73.2381 253 68.5781 249.08 68.5781 237.48C68.5781 225.88 73.2381 211 78.9981 211C84.7581 211 89.4181 225.88 89.4181 237.48Z" fill="#565656"/>
<path d="M74.55 232.87C74.55 233.45 74.2 233.92 73.77 233.92C73.34 233.92 73 233.45 73 232.87C73 232.29 73.35 231.87 73.77 231.87C74.19 231.87 74.55 232.3 74.55 232.87Z" fill="#787878"/>
<path d="M78 232.87C78 233.45 77.66 233.92 77.23 233.92C76.8 233.92 76.45 233.45 76.45 232.87C76.45 232.29 76.8 231.87 77.23 231.87C77.66 231.87 78 232.3 78 232.87Z" fill="#787878"/>
<path d="M81.52 232.87C81.52 233.45 81.17 233.92 80.74 233.92C80.31 233.92 80 233.45 80 232.87C80 232.29 80.34 231.87 80.77 231.87C81.2 231.87 81.52 232.3 81.52 232.87Z" fill="#787878"/>
<path d="M85 232.87C85 233.45 84.65 233.92 84.23 233.92C83.81 233.92 83.45 233.45 83.45 232.87C83.45 232.29 83.8 231.87 84.23 231.87C84.66 231.87 85 232.3 85 232.87Z" fill="#787878"/>
<path d="M74.55 229.51C74.55 230.09 74.2 230.51 73.77 230.51C73.34 230.51 73 230.05 73 229.51C73 228.97 73.35 228.51 73.77 228.51C74.19 228.51 74.55 228.93 74.55 229.51Z" fill="#787878"/>
<path d="M78 229.51C78 230.09 77.66 230.51 77.23 230.51C76.8 230.51 76.45 230.05 76.45 229.51C76.45 228.97 76.8 228.51 77.23 228.51C77.66 228.51 78 228.93 78 229.51Z" fill="#787878"/>
<path d="M81.5187 229.51C81.5187 230.09 81.1688 230.51 80.7388 230.51C80.3088 230.51 79.9688 230.05 79.9688 229.51C79.9688 228.97 80.3088 228.51 80.7388 228.51C81.1688 228.51 81.5187 228.93 81.5187 229.51Z" fill="#787878"/>
<path d="M85 229.51C85 230.09 84.65 230.51 84.23 230.51C83.81 230.51 83.45 230.05 83.45 229.51C83.45 228.97 83.8 228.51 84.23 228.51C84.66 228.51 85 228.93 85 229.51Z" fill="#787878"/>
<path d="M76.2883 226.15C76.2883 226.72 75.9383 227.15 75.5183 227.15C75.0983 227.15 74.7383 226.68 74.7383 226.15C74.7383 225.62 75.0883 225.15 75.5183 225.15C75.9483 225.15 76.2883 225.57 76.2883 226.15Z" fill="#787878"/>
<path d="M79 227.19C79.4253 227.19 79.77 226.724 79.77 226.15C79.77 225.576 79.4253 225.11 79 225.11C78.5747 225.11 78.23 225.576 78.23 226.15C78.23 226.724 78.5747 227.19 79 227.19Z" fill="#787878"/>
<path d="M83.26 226.15C83.26 226.72 82.91 227.15 82.48 227.15C82.05 227.15 81.71 226.68 81.71 226.15C81.71 225.62 82.06 225.15 82.48 225.15C82.9 225.15 83.26 225.57 83.26 226.15Z" fill="#787878"/>
<path d="M78 222.78C78 223.36 77.66 223.78 77.23 223.78C76.8 223.78 76.45 223.31 76.45 222.78C76.45 222.25 76.8 221.78 77.23 221.78C77.66 221.78 78 222.21 78 222.78Z" fill="#787878"/>
<path d="M81.5187 222.779C81.5187 223.359 81.1688 223.779 80.7388 223.779C80.3088 223.779 79.9688 223.309 79.9688 222.779C79.9688 222.249 80.3088 221.779 80.7388 221.779C81.1688 221.779 81.5187 222.209 81.5187 222.779Z" fill="#787878"/>
<path d="M79 220.46C79.4253 220.46 79.77 219.994 79.77 219.42C79.77 218.846 79.4253 218.38 79 218.38C78.5747 218.38 78.23 218.846 78.23 219.42C78.23 219.994 78.5747 220.46 79 220.46Z" fill="#787878"/>
<path d="M74.0014 243.999C76.2384 239.02 79.7372 234.711 84.1514 231.499C88.7514 228.349 92.6614 228.279 94.7314 228.569C94.8992 228.599 95.0567 228.671 95.1889 228.778C95.3211 228.886 95.4236 229.025 95.4867 229.184C95.5498 229.342 95.5714 229.514 95.5495 229.683C95.5276 229.852 95.4628 230.012 95.3614 230.149L91.6514 234.999C90.7116 236.246 90.209 237.768 90.2214 239.329V239.329C90.2214 251.759 85.2214 255.959 79.0514 255.959C77.5493 256.021 76.0539 255.726 74.6878 255.098C73.3216 254.471 72.1234 253.529 71.1914 252.349C71.7693 249.458 72.7136 246.652 74.0014 243.999V243.999Z" fill="#787878"/>
<path d="M94.7214 228.569C92.6614 228.279 88.7214 228.349 84.1514 231.499C82.2365 232.818 80.5048 234.385 79.0014 236.159C77.5106 234.391 75.7962 232.825 73.9014 231.499C69.3014 228.349 65.3914 228.279 63.3314 228.569C63.1627 228.597 63.0041 228.668 62.8706 228.775C62.7372 228.882 62.6334 229.022 62.5692 229.18C62.505 229.339 62.4826 229.511 62.5039 229.681C62.5253 229.85 62.5899 230.012 62.6914 230.149L66.3414 234.939C67.3086 236.206 67.8322 237.755 67.8314 239.349V239.349C67.8314 247.569 70.0214 252.179 73.2814 254.349C74.071 254.852 74.7237 255.542 75.1809 256.359C75.6382 257.176 75.8857 258.093 75.9014 259.029V259.109H82.1014C82.1186 258.169 82.3687 257.247 82.8295 256.427C83.2902 255.606 83.9471 254.913 84.7414 254.409C88.0214 252.239 90.2214 247.619 90.2214 239.409C90.2205 237.815 90.7441 236.266 91.7114 234.999L95.3614 230.209C95.4782 230.072 95.5557 229.905 95.5855 229.727C95.6154 229.549 95.5965 229.366 95.5309 229.198C95.4653 229.03 95.3554 228.883 95.2129 228.772C95.0703 228.661 94.9005 228.591 94.7214 228.569V228.569Z" fill="#787878"/>
<path d="M84.0814 243.999C81.8361 239.016 78.3266 234.707 73.9014 231.499C69.3014 228.349 65.3914 228.279 63.3314 228.569C63.1627 228.597 63.0041 228.668 62.8706 228.775C62.7372 228.882 62.6334 229.022 62.5692 229.18C62.505 229.339 62.4826 229.511 62.5039 229.681C62.5253 229.85 62.5899 230.012 62.6914 230.149L66.3414 234.939C67.3086 236.206 67.8322 237.755 67.8314 239.349V239.349C67.8314 251.799 72.8314 255.999 79.0014 255.999H79.0914C80.1696 255.982 81.2279 255.707 82.1781 255.197C83.1283 254.687 83.9428 253.957 84.5535 253.069C85.1642 252.18 85.5535 251.158 85.6888 250.088C85.8242 249.019 85.7016 247.932 85.3314 246.919C85.0014 245.929 84.5514 244.999 84.0814 243.999Z" fill="#787878"/>
<path d="M192.691 299L192.691 282.2L195.763 282.2L195.763 299L192.691 299ZM198.947 299L198.947 287.096L201.659 287.096L201.899 289.112C202.267 288.408 202.795 287.848 203.483 287.432C204.187 287.016 205.011 286.808 205.955 286.808C207.427 286.808 208.571 287.272 209.387 288.2C210.203 289.128 210.611 290.488 210.611 292.28L210.611 299L207.539 299L207.539 292.568C207.539 291.544 207.331 290.76 206.915 290.216C206.499 289.672 205.851 289.4 204.971 289.4C204.107 289.4 203.395 289.704 202.835 290.312C202.291 290.92 202.019 291.768 202.019 292.856L202.019 299L198.947 299ZM219.02 299.288C217.9 299.288 216.9 299.016 216.02 298.472C215.14 297.928 214.444 297.184 213.932 296.24C213.42 295.296 213.164 294.224 213.164 293.024C213.164 291.824 213.42 290.76 213.932 289.832C214.444 288.888 215.14 288.152 216.02 287.624C216.9 287.08 217.9 286.808 219.02 286.808C219.916 286.808 220.7 286.976 221.372 287.312C222.044 287.648 222.588 288.12 223.004 288.728L223.004 281.72L226.076 281.72L226.076 299L223.34 299L223.004 297.296C222.62 297.824 222.108 298.288 221.468 298.688C220.844 299.088 220.028 299.288 219.02 299.288ZM219.668 296.6C220.66 296.6 221.468 296.272 222.092 295.616C222.732 294.944 223.052 294.088 223.052 293.048C223.052 292.008 222.732 291.16 222.092 290.504C221.468 289.832 220.66 289.496 219.668 289.496C218.692 289.496 217.884 289.824 217.244 290.48C216.604 291.136 216.284 291.984 216.284 293.024C216.284 294.064 216.604 294.92 217.244 295.592C217.884 296.264 218.692 296.6 219.668 296.6ZM234.989 299.288C233.789 299.288 232.725 299.032 231.797 298.52C230.869 298.008 230.141 297.288 229.613 296.36C229.085 295.432 228.821 294.36 228.821 293.144C228.821 291.912 229.077 290.816 229.589 289.856C230.117 288.896 230.837 288.152 231.749 287.624C232.677 287.08 233.765 286.808 235.013 286.808C236.181 286.808 237.213 287.064 238.109 287.576C239.005 288.088 239.701 288.792 240.197 289.688C240.709 290.568 240.965 291.552 240.965 292.64C240.965 292.816 240.957 293 240.941 293.192C240.941 293.384 240.933 293.584 240.917 293.792L231.869 293.792C231.933 294.72 232.253 295.448 232.829 295.976C233.421 296.504 234.133 296.768 234.965 296.768C235.589 296.768 236.109 296.632 236.525 296.36C236.957 296.072 237.277 295.704 237.485 295.256L240.605 295.256C240.381 296.008 240.005 296.696 239.477 297.32C238.965 297.928 238.325 298.408 237.557 298.76C236.805 299.112 235.949 299.288 234.989 299.288ZM235.013 289.304C234.261 289.304 233.597 289.52 233.021 289.952C232.445 290.368 232.077 291.008 231.917 291.872L237.845 291.872C237.797 291.088 237.509 290.464 236.981 290C236.453 289.536 235.797 289.304 235.013 289.304ZM241.6 299L245.92 293.048L241.6 287.096L244.888 287.096L247.912 291.32L250.912 287.096L254.224 287.096L249.88 293.048L254.224 299L250.912 299L247.912 294.776L244.888 299L241.6 299ZM261.332 299.288C260.132 299.288 259.068 299.032 258.14 298.52C257.212 298.008 256.484 297.288 255.956 296.36C255.428 295.432 255.164 294.36 255.164 293.144C255.164 291.912 255.42 290.816 255.932 289.856C256.46 288.896 257.18 288.152 258.092 287.624C259.02 287.08 260.108 286.808 261.356 286.808C262.524 286.808 263.556 287.064 264.452 287.576C265.348 288.088 266.044 288.792 266.54 289.688C267.052 290.568 267.308 291.552 267.308 292.64C267.308 292.816 267.3 293 267.284 293.192C267.284 293.384 267.276 293.584 267.26 293.792L258.212 293.792C258.276 294.72 258.596 295.448 259.172 295.976C259.764 296.504 260.476 296.768 261.308 296.768C261.932 296.768 262.452 296.632 262.868 296.36C263.3 296.072 263.62 295.704 263.828 295.256L266.948 295.256C266.724 296.008 266.348 296.696 265.82 297.32C265.308 297.928 264.668 298.408 263.9 298.76C263.148 299.112 262.292 299.288 261.332 299.288ZM261.356 289.304C260.604 289.304 259.94 289.52 259.364 289.952C258.788 290.368 258.42 291.008 258.26 291.872L264.188 291.872C264.14 291.088 263.852 290.464 263.324 290C262.796 289.536 262.14 289.304 261.356 289.304ZM274.812 299.288C273.756 299.288 272.828 299.12 272.028 298.784C271.228 298.432 270.588 297.952 270.108 297.344C269.628 296.736 269.34 296.032 269.244 295.232L272.34 295.232C272.436 295.696 272.692 296.096 273.108 296.432C273.54 296.752 274.092 296.912 274.764 296.912C275.436 296.912 275.924 296.776 276.228 296.504C276.548 296.232 276.708 295.92 276.708 295.568C276.708 295.056 276.484 294.712 276.036 294.536C275.588 294.344 274.964 294.16 274.164 293.984C273.652 293.872 273.132 293.736 272.604 293.576C272.076 293.416 271.588 293.216 271.14 292.976C270.708 292.72 270.356 292.4 270.084 292.016C269.812 291.616 269.676 291.128 269.676 290.552C269.676 289.496 270.092 288.608 270.924 287.888C271.772 287.168 272.956 286.808 274.476 286.808C275.884 286.808 277.004 287.136 277.836 287.792C278.684 288.448 279.188 289.352 279.348 290.504L276.444 290.504C276.268 289.624 275.604 289.184 274.452 289.184C273.876 289.184 273.428 289.296 273.108 289.52C272.804 289.744 272.652 290.024 272.652 290.36C272.652 290.712 272.884 290.992 273.348 291.2C273.812 291.408 274.428 291.6 275.196 291.776C276.028 291.968 276.788 292.184 277.476 292.424C278.18 292.648 278.74 292.992 279.156 293.456C279.572 293.904 279.78 294.552 279.78 295.4C279.796 296.136 279.604 296.8 279.204 297.392C278.804 297.984 278.228 298.448 277.476 298.784C276.724 299.12 275.836 299.288 274.812 299.288Z" fill="black"/>
<path d="M259 235C259 247.15 249.15 257 237 257C224.85 257 215 247.15 215 235C215 222.85 224.85 213 237 213C249.15 213 259 222.85 259 235Z" stroke="#565656" stroke-width="4"/>
<mask id="mask0" mask-type="alpha" maskUnits="userSpaceOnUse" x="213" y="211" width="48" height="48">
<path fill-rule="evenodd" clip-rule="evenodd" d="M261 235C261 248.255 250.255 259 237 259C223.745 259 213 248.255 213 235C213 221.745 223.745 211 237 211C250.255 211 261 221.745 261 235Z" fill="#565656"/>
</mask>
<g mask="url(#mask0)">
<path d="M254.75 248.824L252.071 246.478C251.907 246.308 251.816 246.077 251.816 245.836V243.61C251.817 243.498 251.793 243.387 251.746 243.286L249.119 237.827C249.058 237.701 249.027 237.562 249.027 237.421V234.905C249.027 234.662 248.91 234.436 248.716 234.301L246.625 232.85C246.461 232.736 246.258 232.7 246.067 232.75L243.79 233.342C243.605 233.39 243.41 233.374 243.235 233.295L239.652 231.696C239.373 231.571 239.176 231.304 239.133 230.991L238.672 227.629C238.633 227.346 238.725 227.061 238.919 226.859L239.996 225.739C240.159 225.569 240.381 225.473 240.612 225.473H243.306C243.598 225.473 243.87 225.625 244.032 225.878L244.958 227.327C245.065 227.494 245.234 227.607 245.424 227.64L249.607 228.365C249.719 228.385 249.834 228.375 249.942 228.338L258.076 225.972C261.307 232.425 258.541 242.71 254.75 248.824ZM252.071 220.24L249.181 222.318C248.988 222.451 248.753 222.5 248.526 222.453L245.72 221.868L243.669 221.158C243.544 221.114 243.408 221.108 243.28 221.142L240.922 221.755C240.769 221.795 240.608 221.789 240.459 221.737C239.98 221.571 239.753 221.002 239.979 220.532L240.152 220.171C240.3 219.863 240.602 219.669 240.932 219.669H242.751C242.86 219.669 242.966 219.643 243.063 219.593L246.067 216C247.728 216.902 250.722 218.887 252.071 220.24ZM227.725 216.415L230.513 218.823C230.595 218.88 230.688 218.918 230.785 218.934L233.445 219.396C233.822 219.461 234.054 219.863 233.933 220.24C233.871 220.434 233.725 220.585 233.54 220.65L232.074 221.159C231.916 221.213 231.782 221.325 231.697 221.473L229.806 224.751C229.733 224.878 229.63 224.985 229.507 225.062L226.629 226.859C226.529 226.921 226.419 226.962 226.304 226.979L221.737 227.658C221.393 227.708 221.137 228.014 221.137 228.375V230.552C221.137 230.744 221.211 230.929 221.341 231.065L222.378 232.143C222.476 232.246 222.531 232.384 222.531 232.529C222.531 232.965 222.064 233.225 221.716 232.983L219.88 231.71C219.718 231.598 219.598 231.433 219.536 231.242L216.5 227.658C218.502 222.899 223.136 218.46 227.725 216.415ZM226.854 241.449L224.12 240.879C223.857 240.824 223.632 240.646 223.512 240.396L222.624 238.553C222.563 238.427 222.531 238.287 222.531 238.146V237.032C222.531 236.791 222.623 236.56 222.787 236.39L224.274 234.843C224.695 234.405 225.404 234.525 225.67 235.078L226.091 235.954C226.209 236.2 226.451 236.356 226.715 236.356H230.707C231.014 236.356 231.297 236.523 231.455 236.796L233.09 239.631C233.216 239.849 233.443 239.983 233.687 239.983H234.563C235.113 239.983 235.525 240.506 235.418 241.067L235.189 242.258C235.156 242.434 235.073 242.595 234.951 242.722L232.498 245.274C232.367 245.41 232.293 245.594 232.293 245.787V247.147C232.293 247.433 232.164 247.701 231.944 247.873L229.962 248.52C229.786 248.657 229.683 248.872 229.683 249.101L229.504 250.486C229.504 250.836 229.174 251.084 228.855 250.974C228.716 250.926 228.605 250.817 228.551 250.676L227.474 249.437C227.433 249.33 227.412 249.216 227.412 249.101V242.16C227.412 241.815 227.179 241.517 226.854 241.449Z" fill="#565656"/>
</g>
<path d="M157 376V392.5" stroke="#787878" stroke-opacity="0.2"/>
<defs>
<filter id="filter0_b" x="105" y="128" width="104" height="38" filterUnits="userSpaceOnUse" color-interpolation-filters="sRGB">
<feFlood flood-opacity="0" result="BackgroundImageFix"/>
<feGaussianBlur in="BackgroundImage" stdDeviation="1.5"/>
<feComposite in2="SourceAlpha" operator="in" result="effect1_backgroundBlur"/>
<feBlend mode="normal" in="SourceGraphic" in2="effect1_backgroundBlur" result="shape"/>
</filter>
<filter id="filter1_b" x="103.5" y="331" width="107" height="38" filterUnits="userSpaceOnUse" color-interpolation-filters="sRGB">
<feFlood flood-opacity="0" result="BackgroundImageFix"/>
<feGaussianBlur in="BackgroundImage" stdDeviation="1.5"/>
<feComposite in2="SourceAlpha" operator="in" result="effect1_backgroundBlur"/>
<feBlend mode="normal" in="SourceGraphic" in2="effect1_backgroundBlur" result="shape"/>
</filter>
</defs>
</svg>
