<svg width="1034" height="169" viewBox="0 0 1034 169" fill="none" xmlns="http://www.w3.org/2000/svg">
<g clip-path="url(#clip0)">
<path d="M10.3377 96.288C8.64166 96.288 7.18566 95.928 5.96966 95.208C4.75366 94.472 3.81766 93.456 3.16166 92.16C2.50566 90.848 2.17766 89.336 2.17766 87.624C2.17766 85.912 2.50566 84.4 3.16166 83.088C3.81766 81.776 4.75366 80.752 5.96966 80.016C7.18566 79.28 8.64166 78.912 10.3377 78.912C12.3537 78.912 14.0017 79.416 15.2817 80.424C16.5777 81.416 17.3857 82.816 17.7057 84.624L14.3217 84.624C14.1137 83.712 13.6657 83 12.9777 82.488C12.3057 81.96 11.4097 81.696 10.2897 81.696C8.73766 81.696 7.52166 82.224 6.64166 83.28C5.76166 84.336 5.32166 85.784 5.32166 87.624C5.32166 89.464 5.76166 90.912 6.64166 91.968C7.52166 93.008 8.73766 93.528 10.2897 93.528C11.4097 93.528 12.3057 93.288 12.9777 92.808C13.6657 92.312 14.1137 91.632 14.3217 90.768L17.7057 90.768C17.3857 92.496 16.5777 93.848 15.2817 94.824C14.0017 95.8 12.3537 96.288 10.3377 96.288ZM24.817 96.288C23.329 96.288 22.177 95.824 21.361 94.896C20.561 93.968 20.161 92.608 20.161 90.816L20.161 84.096L23.209 84.096L23.209 90.528C23.209 91.552 23.417 92.336 23.833 92.88C24.249 93.424 24.905 93.696 25.801 93.696C26.649 93.696 27.345 93.392 27.889 92.784C28.449 92.176 28.729 91.328 28.729 90.24L28.729 84.096L31.801 84.096L31.801 96L29.089 96L28.849 93.984C28.481 94.688 27.945 95.248 27.241 95.664C26.553 96.08 25.745 96.288 24.817 96.288ZM34.9545 96L34.9545 84.096L37.6905 84.096L37.9785 86.328C38.4105 85.56 38.9945 84.952 39.7305 84.504C40.4825 84.04 41.3625 83.808 42.3705 83.808L42.3705 87.048L41.5065 87.048C40.8345 87.048 40.2345 87.152 39.7065 87.36C39.1785 87.568 38.7625 87.928 38.4585 88.44C38.1705 88.952 38.0265 89.664 38.0265 90.576L38.0265 96L34.9545 96ZM44.4702 96L44.4702 84.096L47.2062 84.096L47.4942 86.328C47.9262 85.56 48.5102 84.952 49.2462 84.504C49.9982 84.04 50.8782 83.808 51.8862 83.808L51.8862 87.048L51.0222 87.048C50.3502 87.048 49.7502 87.152 49.2222 87.36C48.6942 87.568 48.2782 87.928 47.9742 88.44C47.6862 88.952 47.5422 89.664 47.5422 90.576L47.5422 96L44.4702 96ZM59.5588 96.288C58.3588 96.288 57.2948 96.032 56.3668 95.52C55.4388 95.008 54.7108 94.288 54.1828 93.36C53.6548 92.432 53.3908 91.36 53.3908 90.144C53.3908 88.912 53.6468 87.816 54.1588 86.856C54.6868 85.896 55.4068 85.152 56.3188 84.624C57.2468 84.08 58.3348 83.808 59.5828 83.808C60.7508 83.808 61.7828 84.064 62.6788 84.576C63.5748 85.088 64.2708 85.792 64.7668 86.688C65.2788 87.568 65.5348 88.552 65.5348 89.64C65.5348 89.816 65.5268 90 65.5108 90.192C65.5108 90.384 65.5028 90.584 65.4868 90.792L56.4388 90.792C56.5028 91.72 56.8228 92.448 57.3988 92.976C57.9908 93.504 58.7028 93.768 59.5348 93.768C60.1588 93.768 60.6788 93.632 61.0948 93.36C61.5268 93.072 61.8468 92.704 62.0548 92.256L65.1748 92.256C64.9508 93.008 64.5748 93.696 64.0468 94.32C63.5348 94.928 62.8948 95.408 62.1268 95.76C61.3748 96.112 60.5188 96.288 59.5588 96.288ZM59.5828 86.304C58.8308 86.304 58.1668 86.52 57.5908 86.952C57.0148 87.368 56.6468 88.008 56.4868 88.872L62.4148 88.872C62.3668 88.088 62.0788 87.464 61.5508 87C61.0228 86.536 60.3668 86.304 59.5828 86.304ZM68.1186 96L68.1186 84.096L70.8306 84.096L71.0706 86.112C71.4386 85.408 71.9666 84.848 72.6546 84.432C73.3586 84.016 74.1826 83.808 75.1266 83.808C76.5986 83.808 77.7426 84.272 78.5586 85.2C79.3746 86.128 79.7826 87.488 79.7826 89.28L79.7826 96L76.7106 96L76.7106 89.568C76.7106 88.544 76.5026 87.76 76.0866 87.216C75.6706 86.672 75.0226 86.4 74.1426 86.4C73.2786 86.4 72.5666 86.704 72.0066 87.312C71.4626 87.92 71.1906 88.768 71.1906 89.856L71.1906 96L68.1186 96ZM88.5522 96.288C87.3362 96.288 86.2642 96.024 85.3362 95.496C84.4082 94.968 83.6722 94.232 83.1282 93.288C82.6002 92.344 82.3362 91.264 82.3362 90.048C82.3362 88.832 82.6002 87.752 83.1282 86.808C83.6722 85.864 84.4082 85.128 85.3362 84.6C86.2642 84.072 87.3362 83.808 88.5522 83.808C90.0722 83.808 91.3522 84.208 92.3922 85.008C93.4322 85.792 94.0962 86.88 94.3842 88.272L91.1442 88.272C90.9842 87.696 90.6642 87.248 90.1842 86.928C89.7202 86.592 89.1682 86.424 88.5282 86.424C87.6802 86.424 86.9602 86.744 86.3682 87.384C85.7762 88.024 85.4802 88.912 85.4802 90.048C85.4802 91.184 85.7762 92.072 86.3682 92.712C86.9602 93.352 87.6802 93.672 88.5282 93.672C89.1682 93.672 89.7202 93.512 90.1842 93.192C90.6642 92.872 90.9842 92.416 91.1442 91.824L94.3842 91.824C94.0962 93.168 93.4322 94.248 92.3922 95.064C91.3522 95.88 90.0722 96.288 88.5522 96.288ZM98.7668 82.248C98.2068 82.248 97.7428 82.08 97.3748 81.744C97.0228 81.408 96.8468 80.984 96.8468 80.472C96.8468 79.96 97.0228 79.544 97.3748 79.224C97.7428 78.888 98.2068 78.72 98.7668 78.72C99.3268 78.72 99.7828 78.888 100.135 79.224C100.503 79.544 100.687 79.96 100.687 80.472C100.687 80.984 100.503 81.408 100.135 81.744C99.7828 82.08 99.3268 82.248 98.7668 82.248ZM97.2308 96L97.2308 84.096L100.303 84.096L100.303 96L97.2308 96ZM109.293 96.288C108.093 96.288 107.029 96.032 106.101 95.52C105.173 95.008 104.445 94.288 103.917 93.36C103.389 92.432 103.125 91.36 103.125 90.144C103.125 88.912 103.381 87.816 103.893 86.856C104.421 85.896 105.141 85.152 106.053 84.624C106.981 84.08 108.069 83.808 109.317 83.808C110.485 83.808 111.517 84.064 112.413 84.576C113.309 85.088 114.005 85.792 114.501 86.688C115.013 87.568 115.269 88.552 115.269 89.64C115.269 89.816 115.261 90 115.245 90.192C115.245 90.384 115.237 90.584 115.221 90.792L106.173 90.792C106.237 91.72 106.557 92.448 107.133 92.976C107.725 93.504 108.437 93.768 109.269 93.768C109.893 93.768 110.413 93.632 110.829 93.36C111.261 93.072 111.581 92.704 111.789 92.256L114.909 92.256C114.685 93.008 114.309 93.696 113.781 94.32C113.269 94.928 112.629 95.408 111.861 95.76C111.109 96.112 110.253 96.288 109.293 96.288ZM109.317 86.304C108.565 86.304 107.901 86.52 107.325 86.952C106.749 87.368 106.381 88.008 106.221 88.872L112.149 88.872C112.101 88.088 111.813 87.464 111.285 87C110.757 86.536 110.101 86.304 109.317 86.304ZM122.773 96.288C121.717 96.288 120.789 96.12 119.989 95.784C119.189 95.432 118.549 94.952 118.069 94.344C117.589 93.736 117.301 93.032 117.205 92.232L120.301 92.232C120.397 92.696 120.653 93.096 121.069 93.432C121.501 93.752 122.053 93.912 122.725 93.912C123.397 93.912 123.885 93.776 124.189 93.504C124.509 93.232 124.669 92.92 124.669 92.568C124.669 92.056 124.445 91.712 123.997 91.536C123.549 91.344 122.925 91.16 122.125 90.984C121.613 90.872 121.093 90.736 120.565 90.576C120.037 90.416 119.549 90.216 119.101 89.976C118.669 89.72 118.317 89.4 118.045 89.016C117.773 88.616 117.637 88.128 117.637 87.552C117.637 86.496 118.053 85.608 118.885 84.888C119.733 84.168 120.917 83.808 122.437 83.808C123.845 83.808 124.965 84.136 125.797 84.792C126.645 85.448 127.149 86.352 127.309 87.504L124.405 87.504C124.229 86.624 123.565 86.184 122.413 86.184C121.837 86.184 121.389 86.296 121.069 86.52C120.765 86.744 120.613 87.024 120.613 87.36C120.613 87.712 120.845 87.992 121.309 88.2C121.773 88.408 122.389 88.6 123.157 88.776C123.989 88.968 124.749 89.184 125.437 89.424C126.141 89.648 126.701 89.992 127.117 90.456C127.533 90.904 127.741 91.552 127.741 92.4C127.757 93.136 127.565 93.8 127.165 94.392C126.765 94.984 126.189 95.448 125.437 95.784C124.685 96.12 123.797 96.288 122.773 96.288Z" fill="black"/>
<path d="M65.94 55.88C73.6388 55.88 79.88 49.6388 79.88 41.94C79.88 34.2412 73.6388 28 65.94 28C58.2412 28 52 34.2412 52 41.94C52 49.6388 58.2412 55.88 65.94 55.88Z" fill="#787878"/>
<path d="M60.5 43.2169C60.2239 43.2169 60 42.993 60 42.7169V42.5622C60 42.286 60.2239 42.0622 60.5 42.0622H60.9632C61.0824 42.0622 61.1748 41.9585 61.167 41.8396C61.1599 41.7314 61.1563 41.6233 61.1563 41.5152C61.1563 41.4002 61.1599 41.287 61.1672 41.1756C61.1749 41.0567 61.0824 40.953 60.9632 40.953H60.5C60.2239 40.953 60 40.7292 60 40.453V40.2831C60 40.007 60.2239 39.7831 60.5 39.7831H61.2129C61.3048 39.7831 61.3845 39.7203 61.4089 39.6317C61.7044 38.5574 62.2592 37.6913 63.0733 37.0331C63.9355 36.3444 65.0207 36 66.3292 36C67.6072 36 68.6519 36.3191 69.4633 36.9572C69.9879 37.3582 70.3864 37.8644 70.6587 38.476C70.9118 39.0443 70.4293 39.616 69.8072 39.616H69.6521C69.1856 39.616 68.8047 39.2766 68.563 38.8776C68.4181 38.6382 68.2313 38.4336 68.0028 38.2638C67.5768 37.9296 67.0138 37.7624 66.314 37.7624C65.5938 37.7624 64.9852 37.9397 64.4882 38.2942C64.071 38.598 63.7468 39.006 63.5158 39.5182C63.4587 39.6448 63.5551 39.7831 63.6941 39.7831H66.0726C66.3488 39.7831 66.5726 40.007 66.5726 40.2831V40.453C66.5726 40.7292 66.3488 40.953 66.0726 40.953H63.3538C63.2476 40.953 63.1598 41.0359 63.156 41.142C63.1516 41.2642 63.1494 41.3886 63.1494 41.5152C63.1494 41.6389 63.1515 41.7585 63.1557 41.8738C63.1595 41.9796 63.2473 42.0622 63.3532 42.0622H66.0726C66.3488 42.0622 66.5726 42.286 66.5726 42.5622V42.7169C66.5726 42.993 66.3488 43.2169 66.0726 43.2169H63.6884C63.551 43.2169 63.4547 43.3523 63.5089 43.4784C63.7338 44.0015 64.0603 44.4157 64.4882 44.721C64.9852 45.0755 65.5938 45.2528 66.314 45.2528C67.0138 45.2528 67.5768 45.1008 68.0028 44.797C68.2245 44.6373 68.407 44.4475 68.5501 44.2276C68.8021 43.8404 69.1803 43.5055 69.6423 43.5055H69.7975C70.4228 43.5055 70.9057 44.0839 70.6355 44.6478C70.3639 45.2146 69.9732 45.6898 69.4633 46.0732C68.6519 46.6911 67.6072 47 66.3292 47C65.0207 47 63.9355 46.6607 63.0733 45.982C62.2493 45.3237 61.6893 44.4526 61.3935 43.3687C61.3692 43.2799 61.2894 43.2169 61.1973 43.2169H60.5Z" fill="white"/>
<path d="M61.3388 31.6499C62.582 26.3823 59.3196 21.1041 54.052 19.8608C48.7843 18.6175 43.5062 21.88 42.2629 27.1476C41.0196 32.4153 44.282 37.6934 49.5497 38.9367C54.8173 40.18 60.0955 36.9176 61.3388 31.6499Z" fill="#565656"/>
<path d="M47.4195 30.9047C47.1878 30.9047 47 30.7215 47 30.4956V30.369C47 30.1431 47.1878 29.9599 47.4195 29.9599H47.8081C47.9081 29.9599 47.9857 29.8751 47.9791 29.7778C47.9731 29.6894 47.9701 29.6009 47.9701 29.5124C47.9701 29.4183 47.9731 29.3257 47.9792 29.2346C47.9857 29.1373 47.9081 29.0525 47.8081 29.0525H47.4195C47.1878 29.0525 47 28.8693 47 28.6434V28.5044C47 28.2785 47.1878 28.0953 47.4195 28.0953H48.0176C48.0947 28.0953 48.1616 28.0439 48.182 27.9714C48.43 27.0925 48.8954 26.3838 49.5784 25.8453C50.3017 25.2818 51.2123 25 52.31 25C53.3822 25 54.2587 25.261 54.9395 25.7831C55.3796 26.1112 55.7139 26.5255 55.9424 27.0258C56.1547 27.4908 55.7499 27.9586 55.2279 27.9586H55.0979C54.7065 27.9586 54.3869 27.6809 54.1841 27.3544C54.0625 27.1586 53.9058 26.9912 53.7141 26.8522C53.3567 26.5787 52.8844 26.442 52.2972 26.442C51.6931 26.442 51.1825 26.587 50.7655 26.8771C50.4154 27.1257 50.1435 27.4595 49.9497 27.8785C49.9018 27.9821 49.9827 28.0953 50.0992 28.0953H52.0947C52.3264 28.0953 52.5142 28.2785 52.5142 28.5044V28.6434C52.5142 28.8693 52.3264 29.0525 52.0947 29.0525H49.8137C49.7247 29.0525 49.651 29.1203 49.6478 29.2071C49.6441 29.3071 49.6422 29.4089 49.6422 29.5124C49.6422 29.6137 49.644 29.7115 49.6475 29.8058C49.6507 29.8924 49.7244 29.9599 49.8132 29.9599H52.0947C52.3264 29.9599 52.5142 30.1431 52.5142 30.369V30.4956C52.5142 30.7215 52.3264 30.9047 52.0947 30.9047H50.0944C49.9792 30.9047 49.8984 31.0155 49.9439 31.1187C50.1326 31.5467 50.4064 31.8856 50.7655 32.1354C51.1825 32.4254 51.6931 32.5704 52.2972 32.5704C52.8844 32.5704 53.3567 32.4461 53.7141 32.1975C53.9001 32.0669 54.0532 31.9116 54.1733 31.7317C54.3847 31.4149 54.702 31.1409 55.0896 31.1409H55.2198C55.7445 31.1409 56.1496 31.6141 55.9229 32.0755C55.695 32.5392 55.3672 32.928 54.9395 33.2417C54.2587 33.7472 53.3822 34 52.31 34C51.2123 34 50.3017 33.7224 49.5784 33.1671C48.8871 32.6285 48.4173 31.9158 48.1691 31.0289C48.1487 30.9563 48.0817 30.9047 48.0045 30.9047H47.4195Z" fill="white"/>
<path d="M51.5205 8.13009L47.9005 12.5401C47.8572 12.5946 47.8302 12.6602 47.8226 12.7294C47.8149 12.7985 47.8269 12.8684 47.8572 12.9311C47.8875 12.9938 47.9348 13.0466 47.9938 13.0836C48.0527 13.1205 48.1209 13.1401 48.1905 13.1401H49.0005C49.096 13.1401 49.1875 13.178 49.255 13.2455C49.3226 13.313 49.3605 13.4046 49.3605 13.5001V16.0601C49.3605 16.2696 49.4437 16.4705 49.5919 16.6187C49.74 16.7669 49.941 16.8501 50.1505 16.8501H53.3705C53.5792 16.8475 53.7786 16.7634 53.9262 16.6158C54.0738 16.4682 54.1579 16.2688 54.1605 16.0601V13.5001C54.1605 13.4046 54.1984 13.313 54.2659 13.2455C54.3334 13.178 54.425 13.1401 54.5205 13.1401H55.3705C55.4401 13.1401 55.5083 13.1205 55.5672 13.0836C55.6262 13.0466 55.6735 12.9938 55.7038 12.9311C55.7341 12.8684 55.7461 12.7985 55.7384 12.7294C55.7308 12.6602 55.7037 12.5946 55.6605 12.5401L52.0805 8.13009C52.0458 8.08988 52.0028 8.05762 51.9544 8.03551C51.9061 8.0134 51.8536 8.00195 51.8005 8.00195C51.7473 8.00195 51.6948 8.0134 51.6465 8.03551C51.5982 8.05762 51.5552 8.08988 51.5205 8.13009Z" fill="#565656"/>
<path d="M70.4297 28.8594V33.8594C70.4297 36.0315 71.2926 38.1147 72.8285 39.6506C74.3644 41.1865 76.4476 42.0494 78.6197 42.0494H79.9397C79.9355 39.1318 79.0153 36.2893 77.309 33.9227C75.6027 31.5562 73.1965 29.7851 70.4297 28.8594Z" fill="#787878"/>
<path d="M65.6019 11.8206L60.4619 18.0906C60.3995 18.1666 60.3599 18.2587 60.3477 18.3563C60.3356 18.4539 60.3514 18.553 60.3932 18.642C60.4351 18.731 60.5014 18.8063 60.5843 18.8591C60.6673 18.912 60.7635 18.9402 60.8619 18.9406H62.0819C62.2171 18.9406 62.3469 18.9943 62.4425 19.0899C62.5382 19.1856 62.5919 19.3153 62.5919 19.4506V23.0806C62.5919 23.3785 62.7095 23.6645 62.9193 23.8761C63.1291 24.0877 63.4139 24.2079 63.7119 24.2106H68.2919C68.5898 24.2079 68.8747 24.0877 69.0845 23.8761C69.2942 23.6645 69.4119 23.3785 69.4119 23.0806V19.4506C69.4119 19.3153 69.4656 19.1856 69.5613 19.0899C69.6569 18.9943 69.7866 18.9406 69.9219 18.9406H71.1419C71.2402 18.9402 71.3365 18.912 71.4194 18.8591C71.5024 18.8063 71.5686 18.731 71.6105 18.642C71.6524 18.553 71.6682 18.4539 71.656 18.3563C71.6439 18.2587 71.6043 18.1666 71.5419 18.0906L66.4019 11.8206C66.3541 11.7602 66.2934 11.7114 66.2241 11.6779C66.1548 11.6444 66.0788 11.627 66.0019 11.627C65.9249 11.627 65.849 11.6444 65.7797 11.6779C65.7104 11.7114 65.6496 11.7602 65.6019 11.8206Z" fill="#787878"/>
<path d="M87.1288 36.33C90.9559 32.5029 90.9559 26.2979 87.1288 22.4707C83.3016 18.6436 77.0966 18.6436 73.2695 22.4707C69.4424 26.2979 69.4424 32.5029 73.2695 36.33C77.0966 40.1572 83.3016 40.1572 87.1288 36.33Z" fill="#565656"/>
<path d="M75.9195 30.9047C75.6878 30.9047 75.5 30.7215 75.5 30.4956V30.369C75.5 30.1431 75.6878 29.9599 75.9195 29.9599H76.3081C76.4081 29.9599 76.4857 29.8751 76.4791 29.7778C76.4731 29.6894 76.4701 29.6009 76.4701 29.5124C76.4701 29.4183 76.4731 29.3257 76.4792 29.2346C76.4857 29.1373 76.4081 29.0525 76.3081 29.0525H75.9195C75.6878 29.0525 75.5 28.8693 75.5 28.6434V28.5044C75.5 28.2785 75.6878 28.0953 75.9195 28.0953H76.5176C76.5947 28.0953 76.6616 28.0439 76.682 27.9714C76.93 27.0925 77.3954 26.3838 78.0784 25.8453C78.8017 25.2818 79.7123 25 80.81 25C81.8822 25 82.7587 25.261 83.4395 25.7831C83.8796 26.1112 84.2139 26.5255 84.4424 27.0258C84.6547 27.4908 84.2499 27.9586 83.7279 27.9586H83.5979C83.2065 27.9586 82.8869 27.6809 82.6841 27.3544C82.5625 27.1586 82.4058 26.9912 82.2141 26.8522C81.8567 26.5787 81.3844 26.442 80.7972 26.442C80.1931 26.442 79.6825 26.587 79.2655 26.8771C78.9154 27.1257 78.6435 27.4595 78.4497 27.8785C78.4018 27.9821 78.4827 28.0953 78.5992 28.0953H80.5947C80.8264 28.0953 81.0142 28.2785 81.0142 28.5044V28.6434C81.0142 28.8693 80.8264 29.0525 80.5947 29.0525H78.3137C78.2247 29.0525 78.151 29.1203 78.1478 29.2071C78.1441 29.3071 78.1422 29.4089 78.1422 29.5124C78.1422 29.6137 78.144 29.7115 78.1475 29.8058C78.1507 29.8924 78.2244 29.9599 78.3132 29.9599H80.5947C80.8264 29.9599 81.0142 30.1431 81.0142 30.369V30.4956C81.0142 30.7215 80.8264 30.9047 80.5947 30.9047H78.5944C78.4792 30.9047 78.3984 31.0155 78.4439 31.1187C78.6326 31.5467 78.9064 31.8856 79.2655 32.1354C79.6825 32.4254 80.1931 32.5704 80.7972 32.5704C81.3844 32.5704 81.8567 32.4461 82.2141 32.1975C82.4001 32.0669 82.5532 31.9116 82.6733 31.7317C82.8847 31.4149 83.202 31.1409 83.5896 31.1409H83.7198C84.2445 31.1409 84.6496 31.6141 84.4229 32.0755C84.195 32.5392 83.8672 32.928 83.4395 33.2417C82.7587 33.7472 81.8822 34 80.81 34C79.7123 34 78.8017 33.7224 78.0784 33.1671C77.3871 32.6285 76.9173 31.9158 76.6691 31.0289C76.6487 30.9563 76.5817 30.9047 76.5045 30.9047H75.9195Z" fill="white"/>
<path d="M79.9189 8.13009L76.2989 12.5401C76.2557 12.5946 76.2287 12.6602 76.221 12.7294C76.2133 12.7985 76.2253 12.8684 76.2556 12.9311C76.2859 12.9938 76.3332 13.0466 76.3922 13.0836C76.4512 13.1205 76.5193 13.1401 76.5889 13.1401H77.4389C77.5344 13.1401 77.626 13.178 77.6935 13.2455C77.761 13.313 77.7989 13.4046 77.7989 13.5001V16.0601C77.8015 16.2688 77.8856 16.4682 78.0332 16.6158C78.1808 16.7634 78.3802 16.8475 78.5889 16.8501H81.8089C82.0184 16.8501 82.2194 16.7669 82.3675 16.6187C82.5157 16.4705 82.5989 16.2696 82.5989 16.0601V13.5001C82.5989 13.4046 82.6368 13.313 82.7044 13.2455C82.7719 13.178 82.8634 13.1401 82.9589 13.1401H83.8089C83.8785 13.1401 83.9467 13.1205 84.0057 13.0836C84.0646 13.0466 84.1119 12.9938 84.1422 12.9311C84.1725 12.8684 84.1845 12.7985 84.1768 12.7294C84.1692 12.6602 84.1422 12.5946 84.0989 12.5401L80.4789 8.13009C80.4442 8.08988 80.4012 8.05762 80.3529 8.03551C80.3046 8.0134 80.2521 8.00195 80.1989 8.00195C80.1458 8.00195 80.0933 8.0134 80.045 8.03551C79.9966 8.05762 79.9537 8.08988 79.9189 8.13009Z" fill="#787878"/>
<path d="M70.4297 28.8594C70.4297 29.0394 70.4297 29.2194 70.4297 29.3994C70.4307 31.8982 71.3872 34.3021 73.1032 36.1185C74.8193 37.935 77.1649 39.0264 79.6597 39.1694C79.1528 36.7957 78.0344 34.5956 76.4154 32.7872C74.7965 30.9788 72.7331 29.6248 70.4297 28.8594Z" fill="#787878"/>
<path d="M266.241 96L266.241 79.2L277.089 79.2L277.089 81.672L269.313 81.672L269.313 86.376L275.601 86.376L275.601 88.8L269.313 88.8L269.313 96L266.241 96ZM283.852 96.288C282.364 96.288 281.212 95.824 280.396 94.896C279.596 93.968 279.196 92.608 279.196 90.816L279.196 84.096L282.244 84.096L282.244 90.528C282.244 91.552 282.452 92.336 282.868 92.88C283.284 93.424 283.94 93.696 284.836 93.696C285.684 93.696 286.38 93.392 286.924 92.784C287.484 92.176 287.764 91.328 287.764 90.24L287.764 84.096L290.836 84.096L290.836 96L288.124 96L287.884 93.984C287.516 94.688 286.98 95.248 286.276 95.664C285.588 96.08 284.78 96.288 283.852 96.288ZM299.294 96C298.046 96 297.046 95.696 296.294 95.088C295.542 94.48 295.166 93.4 295.166 91.848L295.166 86.664L293.126 86.664L293.126 84.096L295.166 84.096L295.526 80.904L298.238 80.904L298.238 84.096L301.454 84.096L301.454 86.664L298.238 86.664L298.238 91.872C298.238 92.448 298.358 92.848 298.598 93.072C298.854 93.28 299.286 93.384 299.894 93.384L301.382 93.384L301.382 96L299.294 96ZM308.555 96.288C307.067 96.288 305.915 95.824 305.099 94.896C304.299 93.968 303.899 92.608 303.899 90.816L303.899 84.096L306.947 84.096L306.947 90.528C306.947 91.552 307.155 92.336 307.571 92.88C307.987 93.424 308.643 93.696 309.539 93.696C310.387 93.696 311.083 93.392 311.627 92.784C312.187 92.176 312.467 91.328 312.467 90.24L312.467 84.096L315.539 84.096L315.539 96L312.827 96L312.587 93.984C312.219 94.688 311.683 95.248 310.979 95.664C310.291 96.08 309.483 96.288 308.555 96.288ZM318.693 96L318.693 84.096L321.429 84.096L321.717 86.328C322.149 85.56 322.733 84.952 323.469 84.504C324.221 84.04 325.101 83.808 326.109 83.808L326.109 87.048L325.245 87.048C324.573 87.048 323.973 87.152 323.445 87.36C322.917 87.568 322.501 87.928 322.197 88.44C321.909 88.952 321.765 89.664 321.765 90.576L321.765 96L318.693 96ZM333.782 96.288C332.582 96.288 331.517 96.032 330.589 95.52C329.661 95.008 328.933 94.288 328.405 93.36C327.877 92.432 327.613 91.36 327.613 90.144C327.613 88.912 327.869 87.816 328.381 86.856C328.909 85.896 329.63 85.152 330.541 84.624C331.47 84.08 332.558 83.808 333.806 83.808C334.974 83.808 336.006 84.064 336.902 84.576C337.798 85.088 338.494 85.792 338.989 86.688C339.501 87.568 339.758 88.552 339.757 89.64C339.757 89.816 339.75 90 339.734 90.192C339.734 90.384 339.726 90.584 339.71 90.792L330.662 90.792C330.726 91.72 331.045 92.448 331.621 92.976C332.214 93.504 332.926 93.768 333.757 93.768C334.382 93.768 334.902 93.632 335.317 93.36C335.75 93.072 336.07 92.704 336.278 92.256L339.398 92.256C339.174 93.008 338.798 93.696 338.27 94.32C337.758 94.928 337.118 95.408 336.35 95.76C335.598 96.112 334.742 96.288 333.782 96.288ZM333.806 86.304C333.054 86.304 332.39 86.52 331.814 86.952C331.238 87.368 330.869 88.008 330.709 88.872L336.638 88.872C336.59 88.088 336.302 87.464 335.774 87C335.246 86.536 334.59 86.304 333.806 86.304ZM347.261 96.288C346.205 96.288 345.277 96.12 344.477 95.784C343.677 95.432 343.037 94.952 342.557 94.344C342.077 93.736 341.789 93.032 341.693 92.232L344.789 92.232C344.885 92.696 345.141 93.096 345.557 93.432C345.989 93.752 346.541 93.912 347.213 93.912C347.885 93.912 348.373 93.776 348.677 93.504C348.997 93.232 349.157 92.92 349.157 92.568C349.157 92.056 348.933 91.712 348.485 91.536C348.037 91.344 347.413 91.16 346.613 90.984C346.101 90.872 345.581 90.736 345.053 90.576C344.525 90.416 344.037 90.216 343.589 89.976C343.157 89.72 342.805 89.4 342.533 89.016C342.261 88.616 342.125 88.128 342.125 87.552C342.125 86.496 342.541 85.608 343.373 84.888C344.221 84.168 345.405 83.808 346.925 83.808C348.333 83.808 349.453 84.136 350.285 84.792C351.133 85.448 351.637 86.352 351.797 87.504L348.893 87.504C348.717 86.624 348.053 86.184 346.901 86.184C346.325 86.184 345.877 86.296 345.557 86.52C345.253 86.744 345.101 87.024 345.101 87.36C345.101 87.712 345.333 87.992 345.797 88.2C346.261 88.408 346.877 88.6 347.645 88.776C348.477 88.968 349.237 89.184 349.925 89.424C350.629 89.648 351.189 89.992 351.605 90.456C352.021 90.904 352.229 91.552 352.229 92.4C352.245 93.136 352.053 93.8 351.653 94.392C351.253 94.984 350.677 95.448 349.925 95.784C349.173 96.12 348.285 96.288 347.261 96.288Z" fill="black"/>
<path d="M296.249 39.5508H288.999C288.607 39.5508 288.289 39.8687 288.289 40.2608V53.2908C288.289 53.6829 288.607 54.0008 288.999 54.0008H296.249C296.641 54.0008 296.959 53.6829 296.959 53.2908V40.2608C296.959 39.8687 296.641 39.5508 296.249 39.5508Z" fill="#565656"/>
<path d="M307.499 29.0391H300.249C299.857 29.0391 299.539 29.3569 299.539 29.7491V53.2891C299.539 53.6812 299.857 53.9991 300.249 53.9991H307.499C307.891 53.9991 308.209 53.6812 308.209 53.2891V29.7491C308.209 29.3569 307.891 29.0391 307.499 29.0391Z" fill="#787878"/>
<path d="M318.749 18.5195H311.499C311.107 18.5195 310.789 18.8374 310.789 19.2295V53.2895C310.789 53.6817 311.107 53.9995 311.499 53.9995H318.749C319.141 53.9995 319.459 53.6817 319.459 53.2895V19.2295C319.459 18.8374 319.141 18.5195 318.749 18.5195Z" fill="#565656"/>
<path d="M329.999 8H322.749C322.357 8 322.039 8.31788 322.039 8.71V53.29C322.039 53.6821 322.357 54 322.749 54H329.999C330.391 54 330.709 53.6821 330.709 53.29V8.71C330.709 8.31788 330.391 8 329.999 8Z" fill="#787878"/>
<path d="M332.6 52H286.4C285.903 52 285.5 52.4029 285.5 52.9V55.1C285.5 55.5971 285.903 56 286.4 56H332.6C333.097 56 333.5 55.5971 333.5 55.1V52.9C333.5 52.4029 333.097 52 332.6 52Z" fill="#565656"/>
<path d="M290.029 31.8647L288.466 30.3019C288.425 30.2611 288.393 30.2126 288.371 30.1592C288.349 30.1058 288.337 30.0486 288.337 29.9908C288.337 29.933 288.349 29.8758 288.371 29.8224C288.393 29.7691 288.425 29.7206 288.466 29.6797L306.144 12.002L308.329 14.187L290.651 31.8647C290.61 31.9055 290.562 31.9379 290.508 31.96C290.455 31.9821 290.398 31.9935 290.34 31.9935C290.282 31.9935 290.225 31.9821 290.171 31.96C290.118 31.9379 290.07 31.9055 290.029 31.8647Z" fill="#565656"/>
<path d="M309.861 10.8493L308.971 15.5393C308.961 15.5958 308.936 15.6485 308.898 15.6914C308.86 15.7343 308.81 15.7659 308.755 15.7824C308.7 15.799 308.642 15.8 308.586 15.7854C308.531 15.7707 308.481 15.7409 308.441 15.6993L304.651 11.9093C304.609 11.8697 304.58 11.8194 304.565 11.7639C304.55 11.7084 304.551 11.65 304.568 11.595C304.585 11.5401 304.616 11.4908 304.659 11.4527C304.702 11.4146 304.755 11.3892 304.811 11.3793L309.501 10.4893C309.55 10.4804 309.601 10.4836 309.649 10.4986C309.696 10.5135 309.74 10.5398 309.775 10.5752C309.811 10.6105 309.837 10.6539 309.852 10.7017C309.867 10.7494 309.87 10.8 309.861 10.8493Z" fill="#565656"/>
<path d="M465.107 96.288C463.411 96.288 461.955 95.928 460.739 95.208C459.523 94.472 458.587 93.456 457.931 92.16C457.275 90.848 456.947 89.336 456.947 87.624C456.947 85.912 457.275 84.4 457.931 83.088C458.587 81.776 459.523 80.752 460.739 80.016C461.955 79.28 463.411 78.912 465.107 78.912C467.123 78.912 468.771 79.416 470.051 80.424C471.347 81.416 472.155 82.816 472.475 84.624L469.091 84.624C468.883 83.712 468.435 83 467.747 82.488C467.075 81.96 466.179 81.696 465.059 81.696C463.507 81.696 462.291 82.224 461.411 83.28C460.531 84.336 460.091 85.784 460.091 87.624C460.091 89.464 460.531 90.912 461.411 91.968C462.291 93.008 463.507 93.528 465.059 93.528C466.179 93.528 467.075 93.288 467.747 92.808C468.435 92.312 468.883 91.632 469.091 90.768L472.475 90.768C472.155 92.496 471.347 93.848 470.051 94.824C468.771 95.8 467.123 96.288 465.107 96.288ZM480.834 96.288C479.682 96.288 478.642 96.024 477.714 95.496C476.802 94.968 476.074 94.24 475.53 93.312C475.002 92.368 474.738 91.28 474.738 90.048C474.738 88.816 475.01 87.736 475.554 86.808C476.098 85.864 476.827 85.128 477.739 84.6C478.667 84.072 479.707 83.808 480.859 83.808C481.995 83.808 483.019 84.072 483.931 84.6C484.859 85.128 485.587 85.864 486.114 86.808C486.659 87.736 486.931 88.816 486.931 90.048C486.931 91.28 486.659 92.368 486.114 93.312C485.586 94.24 484.859 94.968 483.931 95.496C483.003 96.024 481.97 96.288 480.834 96.288ZM480.834 93.624C481.635 93.624 482.331 93.328 482.923 92.736C483.515 92.128 483.811 91.232 483.811 90.048C483.811 88.864 483.515 87.976 482.923 87.384C482.331 86.776 481.643 86.472 480.859 86.472C480.043 86.472 479.339 86.776 478.746 87.384C478.17 87.976 477.882 88.864 477.882 90.048C477.882 91.232 478.17 92.128 478.746 92.736C479.339 93.328 480.035 93.624 480.834 93.624ZM489.677 96L489.677 84.096L492.389 84.096L492.653 85.704C493.037 85.128 493.541 84.672 494.165 84.336C494.805 83.984 495.541 83.808 496.373 83.808C498.213 83.808 499.517 84.52 500.285 85.944C500.717 85.288 501.293 84.768 502.013 84.384C502.749 84 503.549 83.808 504.413 83.808C505.965 83.808 507.157 84.272 507.989 85.2C508.821 86.128 509.237 87.488 509.237 89.28L509.237 96L506.165 96L506.165 89.568C506.165 88.544 505.965 87.76 505.565 87.216C505.181 86.672 504.581 86.4 503.765 86.4C502.933 86.4 502.261 86.704 501.749 87.312C501.253 87.92 501.005 88.768 501.005 89.856L501.005 96L497.933 96L497.933 89.568C497.933 88.544 497.733 87.76 497.333 87.216C496.933 86.672 496.317 86.4 495.485 86.4C494.669 86.4 494.005 86.704 493.493 87.312C492.997 87.92 492.749 88.768 492.749 89.856L492.749 96L489.677 96ZM512.154 96L512.154 84.096L514.866 84.096L515.13 85.704C515.514 85.128 516.018 84.672 516.642 84.336C517.282 83.984 518.018 83.808 518.85 83.808C520.69 83.808 521.994 84.52 522.762 85.944C523.194 85.288 523.77 84.768 524.49 84.384C525.226 84 526.026 83.808 526.89 83.808C528.442 83.808 529.634 84.272 530.466 85.2C531.298 86.128 531.714 87.488 531.714 89.28L531.714 96L528.642 96L528.642 89.568C528.642 88.544 528.442 87.76 528.042 87.216C527.658 86.672 527.058 86.4 526.242 86.4C525.41 86.4 524.738 86.704 524.226 87.312C523.73 87.92 523.482 88.768 523.482 89.856L523.482 96L520.41 96L520.41 89.568C520.41 88.544 520.21 87.76 519.81 87.216C519.41 86.672 518.794 86.4 517.962 86.4C517.146 86.4 516.482 86.704 515.97 87.312C515.474 87.92 515.226 88.768 515.226 89.856L515.226 96L512.154 96ZM540.342 96.288C539.19 96.288 538.15 96.024 537.222 95.496C536.31 94.968 535.582 94.24 535.038 93.312C534.51 92.368 534.246 91.28 534.246 90.048C534.246 88.816 534.518 87.736 535.062 86.808C535.606 85.864 536.334 85.128 537.246 84.6C538.174 84.072 539.214 83.808 540.366 83.808C541.502 83.808 542.526 84.072 543.438 84.6C544.366 85.128 545.094 85.864 545.622 86.808C546.166 87.736 546.438 88.816 546.438 90.048C546.438 91.28 546.166 92.368 545.622 93.312C545.094 94.24 544.366 94.968 543.438 95.496C542.51 96.024 541.478 96.288 540.342 96.288ZM540.342 93.624C541.142 93.624 541.838 93.328 542.43 92.736C543.022 92.128 543.318 91.232 543.318 90.048C543.318 88.864 543.022 87.976 542.43 87.384C541.838 86.776 541.15 86.472 540.366 86.472C539.55 86.472 538.846 86.776 538.254 87.384C537.678 87.976 537.39 88.864 537.39 90.048C537.39 91.232 537.678 92.128 538.254 92.736C538.846 93.328 539.542 93.624 540.342 93.624ZM554.657 96.288C553.537 96.288 552.537 96.016 551.657 95.472C550.777 94.928 550.081 94.184 549.569 93.24C549.057 92.296 548.801 91.224 548.801 90.024C548.801 88.824 549.057 87.76 549.569 86.832C550.081 85.888 550.777 85.152 551.657 84.624C552.537 84.08 553.537 83.808 554.657 83.808C555.553 83.808 556.337 83.976 557.009 84.312C557.681 84.648 558.225 85.12 558.641 85.728L558.641 78.72L561.713 78.72L561.713 96L558.977 96L558.641 94.296C558.257 94.824 557.745 95.288 557.105 95.688C556.481 96.088 555.665 96.288 554.657 96.288ZM555.305 93.6C556.297 93.6 557.105 93.272 557.729 92.616C558.369 91.944 558.689 91.088 558.689 90.048C558.689 89.008 558.369 88.16 557.729 87.504C557.105 86.832 556.297 86.496 555.305 86.496C554.329 86.496 553.521 86.824 552.881 87.48C552.241 88.136 551.921 88.984 551.921 90.024C551.921 91.064 552.241 91.92 552.881 92.592C553.521 93.264 554.329 93.6 555.305 93.6ZM566.497 82.248C565.937 82.248 565.473 82.08 565.105 81.744C564.753 81.408 564.577 80.984 564.577 80.472C564.577 79.96 564.753 79.544 565.105 79.224C565.473 78.888 565.937 78.72 566.497 78.72C567.057 78.72 567.513 78.888 567.865 79.224C568.233 79.544 568.417 79.96 568.417 80.472C568.417 80.984 568.233 81.408 567.865 81.744C567.513 82.08 567.057 82.248 566.497 82.248ZM564.961 96L564.961 84.096L568.033 84.096L568.033 96L564.961 96ZM576.544 96C575.296 96 574.296 95.696 573.544 95.088C572.792 94.48 572.416 93.4 572.416 91.848L572.416 86.664L570.376 86.664L570.376 84.096L572.416 84.096L572.776 80.904L575.488 80.904L575.488 84.096L578.704 84.096L578.704 86.664L575.488 86.664L575.488 91.872C575.488 92.448 575.608 92.848 575.848 93.072C576.104 93.28 576.536 93.384 577.144 93.384L578.632 93.384L578.632 96L576.544 96ZM582.997 82.248C582.437 82.248 581.973 82.08 581.605 81.744C581.253 81.408 581.077 80.984 581.077 80.472C581.077 79.96 581.253 79.544 581.605 79.224C581.973 78.888 582.437 78.72 582.997 78.72C583.557 78.72 584.013 78.888 584.365 79.224C584.733 79.544 584.917 79.96 584.917 80.472C584.917 80.984 584.733 81.408 584.365 81.744C584.013 82.08 583.557 82.248 582.997 82.248ZM581.461 96L581.461 84.096L584.533 84.096L584.533 96L581.461 96ZM593.524 96.288C592.324 96.288 591.26 96.032 590.332 95.52C589.404 95.008 588.676 94.288 588.148 93.36C587.62 92.432 587.356 91.36 587.356 90.144C587.356 88.912 587.612 87.816 588.124 86.856C588.652 85.896 589.372 85.152 590.284 84.624C591.212 84.08 592.3 83.808 593.548 83.808C594.716 83.808 595.748 84.064 596.644 84.576C597.54 85.088 598.236 85.792 598.732 86.688C599.244 87.568 599.5 88.552 599.5 89.64C599.5 89.816 599.492 90 599.476 90.192C599.476 90.384 599.468 90.584 599.452 90.792L590.404 90.792C590.468 91.72 590.788 92.448 591.364 92.976C591.956 93.504 592.668 93.768 593.5 93.768C594.124 93.768 594.644 93.632 595.06 93.36C595.492 93.072 595.812 92.704 596.02 92.256L599.14 92.256C598.916 93.008 598.54 93.696 598.012 94.32C597.5 94.928 596.86 95.408 596.092 95.76C595.34 96.112 594.484 96.288 593.524 96.288ZM593.548 86.304C592.796 86.304 592.132 86.52 591.556 86.952C590.98 87.368 590.612 88.008 590.452 88.872L596.38 88.872C596.332 88.088 596.044 87.464 595.516 87C594.988 86.536 594.332 86.304 593.548 86.304ZM607.003 96.288C605.947 96.288 605.019 96.12 604.219 95.784C603.419 95.432 602.779 94.952 602.299 94.344C601.819 93.736 601.531 93.032 601.435 92.232L604.531 92.232C604.627 92.696 604.883 93.096 605.299 93.432C605.731 93.752 606.283 93.912 606.955 93.912C607.627 93.912 608.115 93.776 608.419 93.504C608.739 93.232 608.899 92.92 608.899 92.568C608.899 92.056 608.675 91.712 608.227 91.536C607.779 91.344 607.155 91.16 606.355 90.984C605.843 90.872 605.323 90.736 604.795 90.576C604.267 90.416 603.779 90.216 603.331 89.976C602.899 89.72 602.547 89.4 602.275 89.016C602.003 88.616 601.867 88.128 601.867 87.552C601.867 86.496 602.283 85.608 603.115 84.888C603.963 84.168 605.147 83.808 606.667 83.808C608.075 83.808 609.195 84.136 610.027 84.792C610.875 85.448 611.379 86.352 611.539 87.504L608.635 87.504C608.459 86.624 607.795 86.184 606.643 86.184C606.067 86.184 605.619 86.296 605.299 86.52C604.995 86.744 604.843 87.024 604.843 87.36C604.843 87.712 605.075 87.992 605.539 88.2C606.003 88.408 606.619 88.6 607.387 88.776C608.219 88.968 608.979 89.184 609.667 89.424C610.371 89.648 610.931 89.992 611.347 90.456C611.763 90.904 611.971 91.552 611.971 92.4C611.987 93.136 611.795 93.8 611.395 94.392C610.995 94.984 610.419 95.448 609.667 95.784C608.915 96.12 608.027 96.288 607.003 96.288Z" fill="black"/>
<path d="M545.918 34.48C545.918 46.08 541.258 50 535.498 50C529.738 50 525.078 46.08 525.078 34.48C525.078 22.88 529.738 8 535.498 8C541.258 8 545.918 22.88 545.918 34.48Z" fill="#565656"/>
<path d="M531.05 29.8691C531.05 30.4491 530.7 30.9191 530.27 30.9191C529.84 30.9191 529.5 30.4491 529.5 29.8691C529.5 29.2891 529.85 28.8691 530.27 28.8691C530.69 28.8691 531.05 29.2991 531.05 29.8691Z" fill="#787878"/>
<path d="M534.499 29.8691C534.499 30.4491 534.159 30.9191 533.729 30.9191C533.299 30.9191 532.949 30.4491 532.949 29.8691C532.949 29.2891 533.299 28.8691 533.729 28.8691C534.159 28.8691 534.499 29.2991 534.499 29.8691Z" fill="#787878"/>
<path d="M538.02 29.8691C538.02 30.4491 537.67 30.9191 537.24 30.9191C536.81 30.9191 536.5 30.4491 536.5 29.8691C536.5 29.2891 536.84 28.8691 537.27 28.8691C537.7 28.8691 538.02 29.2991 538.02 29.8691Z" fill="#787878"/>
<path d="M541.499 29.8691C541.499 30.4491 541.149 30.9191 540.729 30.9191C540.309 30.9191 539.949 30.4491 539.949 29.8691C539.949 29.2891 540.299 28.8691 540.729 28.8691C541.159 28.8691 541.499 29.2991 541.499 29.8691Z" fill="#787878"/>
<path d="M531.05 26.5098C531.05 27.0898 530.7 27.5098 530.27 27.5098C529.84 27.5098 529.5 27.0498 529.5 26.5098C529.5 25.9698 529.85 25.5098 530.27 25.5098C530.69 25.5098 531.05 25.9298 531.05 26.5098Z" fill="#787878"/>
<path d="M534.499 26.5098C534.499 27.0898 534.159 27.5098 533.729 27.5098C533.299 27.5098 532.949 27.0498 532.949 26.5098C532.949 25.9698 533.299 25.5098 533.729 25.5098C534.159 25.5098 534.499 25.9298 534.499 26.5098Z" fill="#787878"/>
<path d="M538.019 26.5098C538.019 27.0898 537.669 27.5098 537.239 27.5098C536.809 27.5098 536.469 27.0498 536.469 26.5098C536.469 25.9698 536.809 25.5098 537.239 25.5098C537.669 25.5098 538.019 25.9298 538.019 26.5098Z" fill="#787878"/>
<path d="M541.499 26.5098C541.499 27.0898 541.149 27.5098 540.729 27.5098C540.309 27.5098 539.949 27.0498 539.949 26.5098C539.949 25.9698 540.299 25.5098 540.729 25.5098C541.159 25.5098 541.499 25.9298 541.499 26.5098Z" fill="#787878"/>
<path d="M532.788 23.1504C532.788 23.7204 532.438 24.1504 532.018 24.1504C531.598 24.1504 531.238 23.6804 531.238 23.1504C531.238 22.6204 531.588 22.1504 532.018 22.1504C532.448 22.1504 532.788 22.5704 532.788 23.1504Z" fill="#787878"/>
<path d="M535.5 24.1894C535.926 24.1894 536.27 23.7238 536.27 23.1494C536.27 22.575 535.926 22.1094 535.5 22.1094C535.075 22.1094 534.73 22.575 534.73 23.1494C534.73 23.7238 535.075 24.1894 535.5 24.1894Z" fill="#787878"/>
<path d="M539.761 23.1504C539.761 23.7204 539.411 24.1504 538.981 24.1504C538.551 24.1504 538.211 23.6804 538.211 23.1504C538.211 22.6204 538.561 22.1504 538.981 22.1504C539.401 22.1504 539.761 22.5704 539.761 23.1504Z" fill="#787878"/>
<path d="M534.499 19.7793C534.499 20.3593 534.159 20.7793 533.729 20.7793C533.299 20.7793 532.949 20.3093 532.949 19.7793C532.949 19.2493 533.299 18.7793 533.729 18.7793C534.159 18.7793 534.499 19.2093 534.499 19.7793Z" fill="#787878"/>
<path d="M538.019 19.7793C538.019 20.3593 537.669 20.7793 537.239 20.7793C536.809 20.7793 536.469 20.3093 536.469 19.7793C536.469 19.2493 536.809 18.7793 537.239 18.7793C537.669 18.7793 538.019 19.2093 538.019 19.7793Z" fill="#787878"/>
<path d="M535.5 17.4609C535.926 17.4609 536.27 16.9952 536.27 16.4209C536.27 15.8465 535.926 15.3809 535.5 15.3809C535.075 15.3809 534.73 15.8465 534.73 16.4209C534.73 16.9952 535.075 17.4609 535.5 17.4609Z" fill="#787878"/>
<path d="M530.501 40.9992C532.738 36.0196 536.237 31.7107 540.651 28.4992C545.251 25.3491 549.161 25.2791 551.231 25.5691C551.399 25.5987 551.557 25.6707 551.689 25.7782C551.821 25.8858 551.924 26.0253 551.987 26.1836C552.05 26.3419 552.071 26.5137 552.05 26.6826C552.028 26.8516 551.963 27.0122 551.861 27.1491L548.151 31.9992C547.212 33.246 546.709 34.7678 546.721 36.3292C546.721 48.7592 541.721 52.9591 535.551 52.9591C534.049 53.0208 532.554 52.7258 531.188 52.0983C529.822 51.4709 528.623 50.5288 527.691 49.3491C528.269 46.4577 529.214 43.6517 530.501 40.9992Z" fill="#787878"/>
<path d="M551.221 25.5691C549.161 25.2791 545.221 25.3491 540.651 28.4992C538.737 29.8184 537.005 31.3853 535.501 33.1592C534.011 31.3913 532.296 29.8248 530.401 28.4992C525.801 25.3491 521.891 25.2791 519.831 25.5691C519.663 25.5973 519.504 25.6683 519.371 25.7752C519.237 25.8822 519.133 26.0216 519.069 26.1801C519.005 26.3386 518.983 26.5109 519.004 26.6805C519.025 26.8502 519.09 27.0115 519.191 27.1491L522.841 31.9392C523.809 33.2058 524.332 34.7555 524.331 36.3491C524.331 44.5691 526.521 49.1791 529.781 51.3491C530.571 51.8518 531.224 52.5424 531.681 53.3591C532.138 54.1759 532.386 55.0933 532.401 56.0291V56.1091H538.601C538.619 55.1686 538.869 54.2469 539.329 53.4267C539.79 52.6065 540.447 51.9133 541.241 51.4091C544.521 49.2391 546.721 44.6192 546.721 36.4092C546.721 34.8155 547.244 33.2658 548.211 31.9992L551.861 27.2091C551.978 27.0716 552.056 26.905 552.086 26.727C552.115 26.549 552.096 26.3663 552.031 26.1981C551.965 26.03 551.855 25.8828 551.713 25.772C551.57 25.6613 551.401 25.5912 551.221 25.5691Z" fill="#787878"/>
<path d="M540.581 40.9992C538.336 36.0161 534.827 31.7069 530.401 28.4992C525.801 25.3491 521.891 25.2791 519.831 25.5691C519.663 25.5973 519.504 25.6683 519.371 25.7752C519.237 25.8822 519.133 26.0216 519.069 26.1801C519.005 26.3386 518.983 26.5109 519.004 26.6805C519.025 26.8502 519.09 27.0115 519.191 27.1491L522.841 31.9392C523.809 33.2058 524.332 34.7555 524.331 36.3491C524.331 48.7991 529.331 52.9991 535.501 52.9991H535.591C536.67 52.9817 537.728 52.7067 538.678 52.1969C539.628 51.6871 540.443 50.9574 541.054 50.0687C541.664 49.18 542.054 48.1581 542.189 47.0883C542.324 46.0186 542.202 44.9319 541.831 43.9191C541.501 42.9291 541.051 41.9991 540.581 40.9992Z" fill="#787878"/>
<path d="M724.285 96.288C722.605 96.288 721.133 95.92 719.869 95.184C718.621 94.448 717.637 93.432 716.917 92.136C716.213 90.824 715.861 89.312 715.861 87.6C715.861 85.888 716.213 84.384 716.917 83.088C717.637 81.776 718.621 80.752 719.869 80.016C721.133 79.28 722.605 78.912 724.285 78.912C725.949 78.912 727.413 79.28 728.677 80.016C729.941 80.752 730.925 81.776 731.629 83.088C732.333 84.384 732.685 85.888 732.685 87.6C732.685 89.312 732.333 90.824 731.629 92.136C730.925 93.432 729.941 94.448 728.677 95.184C727.413 95.92 725.949 96.288 724.285 96.288ZM724.285 93.528C725.885 93.528 727.157 93 728.101 91.944C729.061 90.888 729.541 89.44 729.541 87.6C729.541 85.76 729.061 84.312 728.101 83.256C727.157 82.2 725.885 81.672 724.285 81.672C722.685 81.672 721.405 82.2 720.445 83.256C719.485 84.312 719.005 85.76 719.005 87.6C719.005 89.44 719.485 90.888 720.445 91.944C721.405 93 722.685 93.528 724.285 93.528ZM735.326 101.28L735.326 84.096L738.062 84.096L738.398 85.8C738.782 85.272 739.286 84.808 739.91 84.408C740.55 84.008 741.374 83.808 742.382 83.808C743.502 83.808 744.502 84.08 745.382 84.624C746.262 85.168 746.958 85.912 747.47 86.856C747.982 87.8 748.238 88.872 748.238 90.072C748.238 91.272 747.982 92.344 747.47 93.288C746.958 94.216 746.262 94.952 745.382 95.496C744.502 96.024 743.502 96.288 742.382 96.288C741.486 96.288 740.702 96.12 740.03 95.784C739.358 95.448 738.814 94.976 738.398 94.368L738.398 101.28L735.326 101.28ZM741.734 93.6C742.71 93.6 743.518 93.272 744.158 92.616C744.798 91.96 745.118 91.112 745.118 90.072C745.118 89.032 744.798 88.176 744.158 87.504C743.518 86.832 742.71 86.496 741.734 86.496C740.742 86.496 739.926 86.832 739.286 87.504C738.662 88.16 738.35 89.008 738.35 90.048C738.35 91.088 738.662 91.944 739.286 92.616C739.926 93.272 740.742 93.6 741.734 93.6ZM755.817 96C754.569 96 753.569 95.696 752.817 95.088C752.065 94.48 751.689 93.4 751.689 91.848L751.689 86.664L749.649 86.664L749.649 84.096L751.689 84.096L752.049 80.904L754.761 80.904L754.761 84.096L757.977 84.096L757.977 86.664L754.761 86.664L754.761 91.872C754.761 92.448 754.881 92.848 755.121 93.072C755.377 93.28 755.809 93.384 756.417 93.384L757.905 93.384L757.905 96L755.817 96ZM762.271 82.248C761.711 82.248 761.247 82.08 760.879 81.744C760.527 81.408 760.351 80.984 760.351 80.472C760.351 79.96 760.527 79.544 760.879 79.224C761.247 78.888 761.711 78.72 762.271 78.72C762.831 78.72 763.287 78.888 763.639 79.224C764.007 79.544 764.191 79.96 764.191 80.472C764.191 80.984 764.007 81.408 763.639 81.744C763.287 82.08 762.831 82.248 762.271 82.248ZM760.735 96L760.735 84.096L763.807 84.096L763.807 96L760.735 96ZM772.725 96.288C771.573 96.288 770.533 96.024 769.605 95.496C768.693 94.968 767.965 94.24 767.421 93.312C766.893 92.368 766.629 91.28 766.629 90.048C766.629 88.816 766.901 87.736 767.445 86.808C767.989 85.864 768.717 85.128 769.629 84.6C770.557 84.072 771.597 83.808 772.749 83.808C773.885 83.808 774.909 84.072 775.821 84.6C776.749 85.128 777.477 85.864 778.005 86.808C778.549 87.736 778.821 88.816 778.821 90.048C778.821 91.28 778.549 92.368 778.005 93.312C777.477 94.24 776.749 94.968 775.821 95.496C774.893 96.024 773.861 96.288 772.725 96.288ZM772.725 93.624C773.525 93.624 774.221 93.328 774.813 92.736C775.405 92.128 775.701 91.232 775.701 90.048C775.701 88.864 775.405 87.976 774.813 87.384C774.221 86.776 773.533 86.472 772.749 86.472C771.933 86.472 771.229 86.776 770.637 87.384C770.061 87.976 769.773 88.864 769.773 90.048C769.773 91.232 770.061 92.128 770.637 92.736C771.229 93.328 771.925 93.624 772.725 93.624ZM781.568 96L781.568 84.096L784.28 84.096L784.52 86.112C784.888 85.408 785.416 84.848 786.104 84.432C786.808 84.016 787.632 83.808 788.576 83.808C790.048 83.808 791.192 84.272 792.008 85.2C792.824 86.128 793.232 87.488 793.232 89.28L793.232 96L790.16 96L790.16 89.568C790.16 88.544 789.952 87.76 789.536 87.216C789.12 86.672 788.472 86.4 787.592 86.4C786.728 86.4 786.016 86.704 785.456 87.312C784.912 87.92 784.64 88.768 784.64 89.856L784.64 96L781.568 96ZM801.089 96.288C800.033 96.288 799.105 96.12 798.305 95.784C797.505 95.432 796.865 94.952 796.385 94.344C795.905 93.736 795.617 93.032 795.521 92.232L798.617 92.232C798.713 92.696 798.969 93.096 799.385 93.432C799.817 93.752 800.369 93.912 801.041 93.912C801.713 93.912 802.201 93.776 802.505 93.504C802.825 93.232 802.985 92.92 802.985 92.568C802.985 92.056 802.761 91.712 802.313 91.536C801.865 91.344 801.241 91.16 800.441 90.984C799.929 90.872 799.409 90.736 798.881 90.576C798.353 90.416 797.865 90.216 797.417 89.976C796.985 89.72 796.633 89.4 796.361 89.016C796.089 88.616 795.953 88.128 795.953 87.552C795.953 86.496 796.369 85.608 797.201 84.888C798.049 84.168 799.233 83.808 800.753 83.808C802.161 83.808 803.281 84.136 804.113 84.792C804.961 85.448 805.465 86.352 805.625 87.504L802.721 87.504C802.545 86.624 801.881 86.184 800.729 86.184C800.153 86.184 799.705 86.296 799.385 86.52C799.081 86.744 798.929 87.024 798.929 87.36C798.929 87.712 799.161 87.992 799.625 88.2C800.089 88.408 800.705 88.6 801.473 88.776C802.305 88.968 803.065 89.184 803.753 89.424C804.457 89.648 805.017 89.992 805.433 90.456C805.849 90.904 806.057 91.552 806.057 92.4C806.073 93.136 805.881 93.8 805.481 94.392C805.081 94.984 804.505 95.448 803.753 95.784C803.001 96.12 802.113 96.288 801.089 96.288Z" fill="black"/>
<path fill-rule="evenodd" clip-rule="evenodd" d="M756.296 32.418V32.1176C756.296 31.4445 755.893 30.8057 755.22 30.4064C751.191 28.0297 748.691 23.6434 748.691 18.9586V12.7338H747.424C746.085 12.7338 745 11.6486 745 10.31C745 8.97135 746.085 7.88618 747.424 7.88618H748.691H775.309H776.576C777.915 7.88618 779 8.97135 779 10.31C779 11.6486 777.915 12.7338 776.576 12.7338H775.309V18.9586C775.309 23.6434 772.809 28.0297 768.782 30.4045C768.107 30.8038 767.704 31.4445 767.704 32.1176V32.418H756.296ZM771.507 12.7338V18.9586C771.507 22.3049 769.723 25.4344 766.85 27.1304C765.555 27.8947 764.654 29.0526 764.217 30.3664H759.783C759.344 29.0526 758.446 27.8947 757.152 27.1323C754.277 25.4344 752.493 22.3049 752.493 18.9586V12.7338H771.507Z" fill="#565656"/>
<path fill-rule="evenodd" clip-rule="evenodd" d="M756.296 32.418V32.1176C756.296 31.4445 755.893 30.8057 755.22 30.4064C751.191 28.0297 748.691 23.6434 748.691 18.9586V12.7338H747.424C746.085 12.7338 745 11.6486 745 10.31C745 8.97135 746.085 7.88618 747.424 7.88618H748.691H775.309H776.576C777.915 7.88618 779 8.97135 779 10.31C779 11.6486 777.915 12.7338 776.576 12.7338H775.309V18.9586C775.309 23.6434 772.809 28.0297 768.782 30.4045C768.107 30.8038 767.704 31.4445 767.704 32.1176V32.418H756.296ZM771.507 12.7338V18.9586C771.507 22.3049 769.723 25.4344 766.85 27.1304C765.555 27.8947 764.654 29.0526 764.217 30.3664H759.783C759.344 29.0526 758.446 27.8947 757.152 27.1323C754.277 25.4344 752.493 22.3049 752.493 18.9586V12.7338H771.507Z" fill="#565656"/>
<path fill-rule="evenodd" clip-rule="evenodd" d="M756.296 32.418V32.1176C756.296 31.4445 755.893 30.8057 755.22 30.4064C751.191 28.0297 748.691 23.6434 748.691 18.9586V12.7338H747.424C746.085 12.7338 745 11.6486 745 10.31C745 8.97135 746.085 7.88618 747.424 7.88618H748.691H775.309H776.576C777.915 7.88618 779 8.97135 779 10.31C779 11.6486 777.915 12.7338 776.576 12.7338H775.309V18.9586C775.309 23.6434 772.809 28.0297 768.782 30.4045C768.107 30.8038 767.704 31.4445 767.704 32.1176V32.418H756.296ZM771.507 12.7338V18.9586C771.507 22.3049 769.723 25.4344 766.85 27.1304C765.555 27.8947 764.654 29.0526 764.217 30.3664H759.783C759.344 29.0526 758.446 27.8947 757.152 27.1323C754.277 25.4344 752.493 22.3049 752.493 18.9586V12.7338H771.507Z" fill="#565656"/>
<path fill-rule="evenodd" clip-rule="evenodd" d="M756.296 32.418V32.7184C756.296 33.3914 755.893 34.0303 755.22 34.4296C751.191 36.8062 748.691 41.1925 748.691 45.8774V52.1022H747.424C746.085 52.1022 745 53.1873 745 54.526C745 55.8646 746.085 56.9498 747.424 56.9498H748.691H775.309H776.576C777.915 56.9498 779 55.8646 779 54.526C779 53.1873 777.915 52.1022 776.576 52.1022H775.309V45.8774C775.309 41.1925 772.809 36.8062 768.782 34.4315C768.107 34.0322 767.704 33.3914 767.704 32.7184V32.418H756.296ZM771.507 52.1022V45.8774C771.507 42.5311 769.723 39.4015 766.85 37.7055C765.555 36.9412 764.654 35.7833 764.217 34.4695H759.783C759.344 35.7833 758.446 36.9412 757.152 37.7036C754.277 39.4015 752.493 42.5311 752.493 45.8774V52.1022H771.507Z" fill="#565656"/>
<path fill-rule="evenodd" clip-rule="evenodd" d="M756.296 32.418V32.7184C756.296 33.3914 755.893 34.0303 755.22 34.4296C751.191 36.8062 748.691 41.1925 748.691 45.8774V52.1022H747.424C746.085 52.1022 745 53.1873 745 54.526C745 55.8646 746.085 56.9498 747.424 56.9498H748.691H775.309H776.576C777.915 56.9498 779 55.8646 779 54.526C779 53.1873 777.915 52.1022 776.576 52.1022H775.309V45.8774C775.309 41.1925 772.809 36.8062 768.782 34.4315C768.107 34.0322 767.704 33.3914 767.704 32.7184V32.418H756.296ZM771.507 52.1022V45.8774C771.507 42.5311 769.723 39.4015 766.85 37.7055C765.555 36.9412 764.654 35.7833 764.217 34.4695H759.783C759.344 35.7833 758.446 36.9412 757.152 37.7036C754.277 39.4015 752.493 42.5311 752.493 45.8774V52.1022H771.507Z" fill="#565656"/>
<path fill-rule="evenodd" clip-rule="evenodd" d="M756.296 32.418V32.7184C756.296 33.3914 755.893 34.0303 755.22 34.4296C751.191 36.8062 748.691 41.1925 748.691 45.8774V52.1022H747.424C746.085 52.1022 745 53.1873 745 54.526C745 55.8646 746.085 56.9498 747.424 56.9498H748.691H775.309H776.576C777.915 56.9498 779 55.8646 779 54.526C779 53.1873 777.915 52.1022 776.576 52.1022H775.309V45.8774C775.309 41.1925 772.809 36.8062 768.782 34.4315C768.107 34.0322 767.704 33.3914 767.704 32.7184V32.418H756.296ZM771.507 52.1022V45.8774C771.507 42.5311 769.723 39.4015 766.85 37.7055C765.555 36.9412 764.654 35.7833 764.217 34.4695H759.783C759.344 35.7833 758.446 36.9412 757.152 37.7036C754.277 39.4015 752.493 42.5311 752.493 45.8774V52.1022H771.507Z" fill="#565656"/>
<path fill-rule="evenodd" clip-rule="evenodd" d="M766.026 50.4575C767.508 50.4575 768.71 49.2558 768.71 47.7733V46.0494C768.71 43.6796 767.451 41.4634 765.423 40.2623C764.993 40.0076 764.624 39.6911 764.323 39.3304C763.722 38.6135 762.933 37.9707 761.999 37.9707C761.065 37.9707 760.277 38.6121 759.678 39.3288C759.376 39.6899 759.008 40.0066 758.577 40.261C756.548 41.4634 755.289 43.6796 755.289 46.0494V47.7733C755.289 49.2558 756.491 50.4575 757.973 50.4575H766.026Z" fill="#787878"/>
<path d="M758.579 26.1355C759.01 26.3899 759.378 26.7066 759.68 27.0676C760.279 27.7843 761.066 28.4258 762 28.4258C762.935 28.4258 763.724 27.783 764.324 27.0661C764.626 26.7054 764.995 26.3889 765.425 26.1341C766.332 25.5973 767.084 24.8577 767.64 23.9923H756.363C756.919 24.858 757.672 25.598 758.579 26.1355Z" fill="#787878"/>
<path d="M941.14 96L941.14 79.2L952.108 79.2L952.108 81.672L944.212 81.672L944.212 86.28L951.388 86.28L951.388 88.68L944.212 88.68L944.212 93.528L952.108 93.528L952.108 96L941.14 96ZM964.399 101.28L964.399 94.296C964.015 94.824 963.503 95.288 962.863 95.688C962.239 96.088 961.423 96.288 960.415 96.288C959.295 96.288 958.295 96.016 957.415 95.472C956.535 94.928 955.839 94.184 955.327 93.24C954.815 92.296 954.559 91.224 954.559 90.024C954.559 88.824 954.815 87.76 955.327 86.832C955.839 85.888 956.535 85.152 957.415 84.624C958.295 84.08 959.295 83.808 960.415 83.808C961.311 83.808 962.095 83.976 962.767 84.312C963.439 84.648 963.983 85.12 964.399 85.728L964.735 84.096L967.471 84.096L967.471 101.28L964.399 101.28ZM961.063 93.6C962.055 93.6 962.863 93.272 963.487 92.616C964.127 91.944 964.447 91.088 964.447 90.048C964.447 89.008 964.127 88.16 963.487 87.504C962.863 86.832 962.055 86.496 961.063 86.496C960.087 86.496 959.279 86.824 958.639 87.48C957.999 88.136 957.679 88.984 957.679 90.024C957.679 91.064 957.999 91.92 958.639 92.592C959.279 93.264 960.087 93.6 961.063 93.6ZM975.063 96.288C973.575 96.288 972.423 95.824 971.607 94.896C970.807 93.968 970.407 92.608 970.407 90.816L970.407 84.096L973.455 84.096L973.455 90.528C973.455 91.552 973.663 92.336 974.079 92.88C974.495 93.424 975.151 93.696 976.047 93.696C976.895 93.696 977.591 93.392 978.135 92.784C978.695 92.176 978.975 91.328 978.975 90.24L978.975 84.096L982.047 84.096L982.047 96L979.335 96L979.095 93.984C978.727 94.688 978.191 95.248 977.487 95.664C976.799 96.08 975.991 96.288 975.063 96.288ZM986.857 82.248C986.297 82.248 985.833 82.08 985.465 81.744C985.113 81.408 984.937 80.984 984.937 80.472C984.937 79.96 985.113 79.544 985.465 79.224C985.833 78.888 986.297 78.72 986.857 78.72C987.417 78.72 987.873 78.888 988.225 79.224C988.593 79.544 988.777 79.96 988.777 80.472C988.777 80.984 988.593 81.408 988.225 81.744C987.873 82.08 987.417 82.248 986.857 82.248ZM985.321 96L985.321 84.096L988.393 84.096L988.393 96L985.321 96ZM996.903 96C995.655 96 994.655 95.696 993.903 95.088C993.151 94.48 992.775 93.4 992.775 91.848L992.775 86.664L990.735 86.664L990.735 84.096L992.775 84.096L993.135 80.904L995.847 80.904L995.847 84.096L999.063 84.096L999.063 86.664L995.847 86.664L995.847 91.872C995.847 92.448 995.967 92.848 996.207 93.072C996.463 93.28 996.895 93.384 997.503 93.384L998.991 93.384L998.991 96L996.903 96ZM1003.36 82.248C1002.8 82.248 1002.33 82.08 1001.96 81.744C1001.61 81.408 1001.44 80.984 1001.44 80.472C1001.44 79.96 1001.61 79.544 1001.96 79.224C1002.33 78.888 1002.8 78.72 1003.36 78.72C1003.92 78.72 1004.37 78.888 1004.72 79.224C1005.09 79.544 1005.28 79.96 1005.28 80.472C1005.28 80.984 1005.09 81.408 1004.72 81.744C1004.37 82.08 1003.92 82.248 1003.36 82.248ZM1001.82 96L1001.82 84.096L1004.89 84.096L1004.89 96L1001.82 96ZM1013.88 96.288C1012.68 96.288 1011.62 96.032 1010.69 95.52C1009.76 95.008 1009.04 94.288 1008.51 93.36C1007.98 92.432 1007.72 91.36 1007.72 90.144C1007.72 88.912 1007.97 87.816 1008.48 86.856C1009.01 85.896 1009.73 85.152 1010.64 84.624C1011.57 84.08 1012.66 83.808 1013.91 83.808C1015.08 83.808 1016.11 84.064 1017 84.576C1017.9 85.088 1018.6 85.792 1019.09 86.688C1019.6 87.568 1019.86 88.552 1019.86 89.64C1019.86 89.816 1019.85 90 1019.84 90.192C1019.84 90.384 1019.83 90.584 1019.81 90.792L1010.76 90.792C1010.83 91.72 1011.15 92.448 1011.72 92.976C1012.32 93.504 1013.03 93.768 1013.86 93.768C1014.48 93.768 1015 93.632 1015.42 93.36C1015.85 93.072 1016.17 92.704 1016.38 92.256L1019.5 92.256C1019.28 93.008 1018.9 93.696 1018.37 94.32C1017.86 94.928 1017.22 95.408 1016.45 95.76C1015.7 96.112 1014.84 96.288 1013.88 96.288ZM1013.91 86.304C1013.16 86.304 1012.49 86.52 1011.92 86.952C1011.34 87.368 1010.97 88.008 1010.81 88.872L1016.74 88.872C1016.69 88.088 1016.4 87.464 1015.88 87C1015.35 86.536 1014.69 86.304 1013.91 86.304ZM1027.36 96.288C1026.31 96.288 1025.38 96.12 1024.58 95.784C1023.78 95.432 1023.14 94.952 1022.66 94.344C1022.18 93.736 1021.89 93.032 1021.79 92.232L1024.89 92.232C1024.99 92.696 1025.24 93.096 1025.66 93.432C1026.09 93.752 1026.64 93.912 1027.31 93.912C1027.99 93.912 1028.47 93.776 1028.78 93.504C1029.1 93.232 1029.26 92.92 1029.26 92.568C1029.26 92.056 1029.03 91.712 1028.59 91.536C1028.14 91.344 1027.51 91.16 1026.71 90.984C1026.2 90.872 1025.68 90.736 1025.15 90.576C1024.63 90.416 1024.14 90.216 1023.69 89.976C1023.26 89.72 1022.91 89.4 1022.63 89.016C1022.36 88.616 1022.23 88.128 1022.23 87.552C1022.23 86.496 1022.64 85.608 1023.47 84.888C1024.32 84.168 1025.51 83.808 1027.03 83.808C1028.43 83.808 1029.55 84.136 1030.39 84.792C1031.23 85.448 1031.74 86.352 1031.9 87.504L1028.99 87.504C1028.82 86.624 1028.15 86.184 1027 86.184C1026.43 86.184 1025.98 86.296 1025.66 86.52C1025.35 86.744 1025.2 87.024 1025.2 87.36C1025.2 87.712 1025.43 87.992 1025.9 88.2C1026.36 88.408 1026.98 88.6 1027.75 88.776C1028.58 88.968 1029.34 89.184 1030.03 89.424C1030.73 89.648 1031.29 89.992 1031.71 90.456C1032.12 90.904 1032.33 91.552 1032.33 92.4C1032.35 93.136 1032.15 93.8 1031.75 94.392C1031.35 94.984 1030.78 95.448 1030.03 95.784C1029.27 96.12 1028.39 96.288 1027.36 96.288Z" fill="black"/>
<path d="M987.45 28.36C993.072 28.36 997.63 23.8023 997.63 18.18C997.63 12.5577 993.072 8 987.45 8C981.827 8 977.27 12.5577 977.27 18.18C977.27 23.8023 981.827 28.36 987.45 28.36Z" fill="#565656"/>
<path d="M991.19 17.1101V15.4301C991.191 14.772 991.018 14.1251 990.69 13.5546C990.362 12.9842 989.889 12.5101 989.32 12.1801C988.75 11.851 988.103 11.6777 987.445 11.6777C986.787 11.6777 986.14 11.851 985.57 12.1801C985 12.5101 984.528 12.9842 984.199 13.5546C983.871 14.1251 983.699 14.772 983.7 15.4301V17.1101C983.689 17.6946 983.835 18.2713 984.124 18.7798C984.412 19.2882 984.832 19.7097 985.34 20.0001C985.98 20.3687 986.706 20.5626 987.445 20.5626C988.184 20.5626 988.909 20.3687 989.55 20.0001C990.057 19.7097 990.477 19.2882 990.766 18.7798C991.054 18.2713 991.201 17.6946 991.19 17.1101Z" fill="white"/>
<path d="M987.5 28.3597C990.108 28.3612 992.617 27.3544 994.5 25.5497C993.77 24.3473 992.742 23.3533 991.516 22.6635C990.29 21.9737 988.907 21.6113 987.5 21.6113C986.093 21.6113 984.71 21.9737 983.484 22.6635C982.258 23.3533 981.23 24.3473 980.5 25.5497C982.383 27.3544 984.892 28.3612 987.5 28.3597Z" fill="#787878"/>
<path d="M973.629 56.0006C979.251 56.0006 983.809 51.4429 983.809 45.8206C983.809 40.1984 979.251 35.6406 973.629 35.6406C968.007 35.6406 963.449 40.1984 963.449 45.8206C963.449 51.4429 968.007 56.0006 973.629 56.0006Z" fill="#565656"/>
<path d="M977.369 44.7508V43.0708C977.37 42.4126 977.198 41.7657 976.869 41.1953C976.541 40.6248 976.068 40.1507 975.499 39.8208C974.929 39.4916 974.282 39.3184 973.624 39.3184C972.966 39.3184 972.319 39.4916 971.749 39.8208C971.179 40.1507 970.707 40.6248 970.379 41.1953C970.05 41.7657 969.878 42.4126 969.879 43.0708V44.7508C969.875 45.3249 970.023 45.8898 970.307 46.3885C970.592 46.8872 971.003 47.302 971.499 47.5908C972.139 47.9593 972.865 48.1533 973.604 48.1533C974.343 48.1533 975.069 47.9593 975.709 47.5908C976.213 47.3071 976.632 46.8945 976.923 46.3955C977.215 45.8964 977.369 45.3288 977.369 44.7508Z" fill="white"/>
<path d="M973.629 56.0004C976.237 56.0018 978.745 54.995 980.629 53.1904C979.899 51.988 978.871 50.994 977.645 50.3041C976.419 49.6143 975.036 49.252 973.629 49.252C972.222 49.252 970.839 49.6143 969.613 50.3041C968.387 50.994 967.359 51.988 966.629 53.1904C968.512 54.995 971.02 56.0018 973.629 56.0004Z" fill="#787878"/>
<path d="M1001.37 56.0006C1006.99 56.0006 1011.55 51.4429 1011.55 45.8206C1011.55 40.1984 1006.99 35.6406 1001.37 35.6406C995.749 35.6406 991.191 40.1984 991.191 45.8206C991.191 51.4429 995.749 56.0006 1001.37 56.0006Z" fill="#565656"/>
<path d="M1005.12 44.7508V43.0708C1005.12 42.4126 1004.95 41.7657 1004.62 41.1953C1004.29 40.6248 1003.82 40.1507 1003.25 39.8208C1002.68 39.4916 1002.03 39.3184 1001.37 39.3184C1000.72 39.3184 1000.07 39.4916 999.499 39.8208C998.929 40.1507 998.457 40.6248 998.129 41.1953C997.8 41.7657 997.628 42.4126 997.629 43.0708V44.7508C997.627 45.3268 997.778 45.8931 998.066 46.392C998.354 46.8909 998.769 47.3045 999.269 47.5908C999.909 47.9593 1000.64 48.1533 1001.37 48.1533C1002.11 48.1533 1002.84 47.9593 1003.48 47.5908C1003.98 47.3045 1004.39 46.8909 1004.68 46.392C1004.97 45.8931 1005.12 45.3268 1005.12 44.7508Z" fill="white"/>
<path d="M1001.37 56.0004C1003.98 56.0018 1006.49 54.995 1008.37 53.1904C1007.64 51.988 1006.61 50.994 1005.39 50.3041C1004.16 49.6143 1002.78 49.252 1001.37 49.252C999.964 49.252 998.581 49.6143 997.355 50.3041C996.129 50.994 995.101 51.988 994.371 53.1904C996.255 54.995 998.763 56.0018 1001.37 56.0004Z" fill="#787878"/>
<path d="M987.5 35.7109C987.235 35.7109 986.98 35.6056 986.793 35.418C986.605 35.2305 986.5 34.9762 986.5 34.7109V31.4609C986.5 31.1957 986.605 30.9414 986.793 30.7538C986.98 30.5663 987.235 30.4609 987.5 30.4609C987.765 30.4609 988.02 30.5663 988.207 30.7538C988.395 30.9414 988.5 31.1957 988.5 31.4609V34.7109C988.5 34.9762 988.395 35.2305 988.207 35.418C988.02 35.6056 987.765 35.7109 987.5 35.7109Z" fill="#565656"/>
<path d="M984.391 37.9992C984.183 37.9986 983.98 37.933 983.811 37.8115C983.642 37.6901 983.515 37.5189 983.448 37.3218C983.381 37.1247 983.377 36.9116 983.437 36.7121C983.496 36.5127 983.617 36.3369 983.781 36.2092L987.501 33.4492L991.161 36.2492C991.359 36.4141 991.486 36.649 991.515 36.9049C991.544 37.1608 991.473 37.4181 991.317 37.6231C991.161 37.828 990.932 37.9649 990.678 38.0052C990.423 38.0454 990.163 37.986 989.951 37.8392L987.501 35.9992L985.041 37.8792C984.845 37.9917 984.615 38.0341 984.391 37.9992Z" fill="#565656"/>
</g>
<path d="M67 124V153H128M311 124V153H250" stroke="#787878" stroke-opacity="0.2"/>
<path d="M536 124V153H698.333M987 124V153H822.044M760.447 124V130.5" stroke="#787878" stroke-opacity="0.2"/>
<g filter="url(#filter0_b)">
<rect x="140" y="137" width="98" height="32" rx="4" fill="#45454E" fill-opacity="0.75"/>
<path d="M169.544 158.168C168.564 158.168 167.705 157.953 166.968 157.524C166.24 157.095 165.666 156.502 165.246 155.746C164.835 154.981 164.63 154.099 164.63 153.1C164.63 152.101 164.835 151.224 165.246 150.468C165.666 149.703 166.24 149.105 166.968 148.676C167.705 148.247 168.564 148.032 169.544 148.032C170.515 148.032 171.369 148.247 172.106 148.676C172.843 149.105 173.417 149.703 173.828 150.468C174.239 151.224 174.444 152.101 174.444 153.1C174.444 154.033 174.262 154.869 173.898 155.606C173.534 156.334 173.03 156.913 172.386 157.342L174.654 159.778H172.428L170.888 158.014C170.459 158.117 170.011 158.168 169.544 158.168ZM169.544 156.558C170.477 156.558 171.219 156.25 171.77 155.634C172.33 155.018 172.61 154.173 172.61 153.1C172.61 152.027 172.33 151.182 171.77 150.566C171.219 149.95 170.477 149.642 169.544 149.642C168.611 149.642 167.864 149.95 167.304 150.566C166.744 151.182 166.464 152.027 166.464 153.1C166.464 154.173 166.744 155.018 167.304 155.634C167.864 156.25 168.611 156.558 169.544 156.558ZM177.049 158V150.244L175.439 150.622V149.25L177.805 148.2H178.911V158H177.049ZM183.909 158V156.698C184.507 156.203 185.085 155.713 185.645 155.228C186.215 154.743 186.719 154.262 187.157 153.786C187.605 153.31 187.96 152.848 188.221 152.4C188.492 151.943 188.627 151.499 188.627 151.07C188.627 150.669 188.515 150.314 188.291 150.006C188.077 149.698 187.717 149.544 187.213 149.544C186.7 149.544 186.313 149.712 186.051 150.048C185.79 150.384 185.659 150.79 185.659 151.266H183.923C183.942 150.547 184.101 149.95 184.399 149.474C184.698 148.989 185.095 148.629 185.589 148.396C186.084 148.153 186.639 148.032 187.255 148.032C188.254 148.032 189.029 148.307 189.579 148.858C190.139 149.399 190.419 150.104 190.419 150.972C190.419 151.513 190.293 152.041 190.041 152.554C189.799 153.067 189.477 153.562 189.075 154.038C188.674 154.514 188.24 154.962 187.773 155.382C187.307 155.793 186.854 156.175 186.415 156.53H190.657V158H183.909ZM196.095 158.168C195.19 158.168 194.415 157.958 193.771 157.538C193.127 157.109 192.628 156.516 192.273 155.76C191.928 154.995 191.755 154.108 191.755 153.1C191.755 152.101 191.928 151.219 192.273 150.454C192.628 149.689 193.127 149.096 193.771 148.676C194.415 148.247 195.19 148.032 196.095 148.032C197 148.032 197.775 148.247 198.419 148.676C199.063 149.096 199.558 149.689 199.903 150.454C200.258 151.219 200.435 152.101 200.435 153.1C200.435 154.108 200.258 154.995 199.903 155.76C199.558 156.516 199.063 157.109 198.419 157.538C197.775 157.958 197 158.168 196.095 158.168ZM196.095 156.558C196.832 156.558 197.434 156.25 197.901 155.634C198.368 155.018 198.601 154.173 198.601 153.1C198.601 152.027 198.368 151.182 197.901 150.566C197.434 149.95 196.832 149.642 196.095 149.642C195.348 149.642 194.742 149.95 194.275 150.566C193.818 151.182 193.589 152.027 193.589 153.1C193.589 154.173 193.818 155.018 194.275 155.634C194.742 156.25 195.348 156.558 196.095 156.558ZM201.71 158V156.698C202.307 156.203 202.886 155.713 203.446 155.228C204.015 154.743 204.519 154.262 204.958 153.786C205.406 153.31 205.761 152.848 206.022 152.4C206.293 151.943 206.428 151.499 206.428 151.07C206.428 150.669 206.316 150.314 206.092 150.006C205.877 149.698 205.518 149.544 205.014 149.544C204.501 149.544 204.113 149.712 203.852 150.048C203.591 150.384 203.46 150.79 203.46 151.266H201.724C201.743 150.547 201.901 149.95 202.2 149.474C202.499 148.989 202.895 148.629 203.39 148.396C203.885 148.153 204.44 148.032 205.056 148.032C206.055 148.032 206.829 148.307 207.38 148.858C207.94 149.399 208.22 150.104 208.22 150.972C208.22 151.513 208.094 152.041 207.842 152.554C207.599 153.067 207.277 153.562 206.876 154.038C206.475 154.514 206.041 154.962 205.574 155.382C205.107 155.793 204.655 156.175 204.216 156.53H208.458V158H201.71ZM211.01 158V150.244L209.4 150.622V149.25L211.766 148.2H212.872V158H211.01Z" fill="white"/>
</g>
<g filter="url(#filter1_b)">
<rect x="709" y="137" width="101" height="32" rx="4" fill="#45454E" fill-opacity="0.75"/>
<path d="M738.544 158.168C737.564 158.168 736.705 157.953 735.968 157.524C735.24 157.095 734.666 156.502 734.246 155.746C733.835 154.981 733.63 154.099 733.63 153.1C733.63 152.101 733.835 151.224 734.246 150.468C734.666 149.703 735.24 149.105 735.968 148.676C736.705 148.247 737.564 148.032 738.544 148.032C739.515 148.032 740.369 148.247 741.106 148.676C741.843 149.105 742.417 149.703 742.828 150.468C743.239 151.224 743.444 152.101 743.444 153.1C743.444 154.033 743.262 154.869 742.898 155.606C742.534 156.334 742.03 156.913 741.386 157.342L743.654 159.778H741.428L739.888 158.014C739.459 158.117 739.011 158.168 738.544 158.168ZM738.544 156.558C739.477 156.558 740.219 156.25 740.77 155.634C741.33 155.018 741.61 154.173 741.61 153.1C741.61 152.027 741.33 151.182 740.77 150.566C740.219 149.95 739.477 149.642 738.544 149.642C737.611 149.642 736.864 149.95 736.304 150.566C735.744 151.182 735.464 152.027 735.464 153.1C735.464 154.173 735.744 155.018 736.304 155.634C736.864 156.25 737.611 156.558 738.544 156.558ZM746.049 158V150.244L744.439 150.622V149.25L746.805 148.2H747.911V158H746.049ZM752.909 158V156.698C753.507 156.203 754.085 155.713 754.645 155.228C755.215 154.743 755.719 154.262 756.157 153.786C756.605 153.31 756.96 152.848 757.221 152.4C757.492 151.943 757.627 151.499 757.627 151.07C757.627 150.669 757.515 150.314 757.291 150.006C757.077 149.698 756.717 149.544 756.213 149.544C755.7 149.544 755.313 149.712 755.051 150.048C754.79 150.384 754.659 150.79 754.659 151.266H752.923C752.942 150.547 753.101 149.95 753.399 149.474C753.698 148.989 754.095 148.629 754.589 148.396C755.084 148.153 755.639 148.032 756.255 148.032C757.254 148.032 758.029 148.307 758.579 148.858C759.139 149.399 759.419 150.104 759.419 150.972C759.419 151.513 759.293 152.041 759.041 152.554C758.799 153.067 758.477 153.562 758.075 154.038C757.674 154.514 757.24 154.962 756.773 155.382C756.307 155.793 755.854 156.175 755.415 156.53H759.657V158H752.909ZM765.095 158.168C764.19 158.168 763.415 157.958 762.771 157.538C762.127 157.109 761.628 156.516 761.273 155.76C760.928 154.995 760.755 154.108 760.755 153.1C760.755 152.101 760.928 151.219 761.273 150.454C761.628 149.689 762.127 149.096 762.771 148.676C763.415 148.247 764.19 148.032 765.095 148.032C766 148.032 766.775 148.247 767.419 148.676C768.063 149.096 768.558 149.689 768.903 150.454C769.258 151.219 769.435 152.101 769.435 153.1C769.435 154.108 769.258 154.995 768.903 155.76C768.558 156.516 768.063 157.109 767.419 157.538C766.775 157.958 766 158.168 765.095 158.168ZM765.095 156.558C765.832 156.558 766.434 156.25 766.901 155.634C767.368 155.018 767.601 154.173 767.601 153.1C767.601 152.027 767.368 151.182 766.901 150.566C766.434 149.95 765.832 149.642 765.095 149.642C764.348 149.642 763.742 149.95 763.275 150.566C762.818 151.182 762.589 152.027 762.589 153.1C762.589 154.173 762.818 155.018 763.275 155.634C763.742 156.25 764.348 156.558 765.095 156.558ZM770.71 158V156.698C771.307 156.203 771.886 155.713 772.446 155.228C773.015 154.743 773.519 154.262 773.958 153.786C774.406 153.31 774.761 152.848 775.022 152.4C775.293 151.943 775.428 151.499 775.428 151.07C775.428 150.669 775.316 150.314 775.092 150.006C774.877 149.698 774.518 149.544 774.014 149.544C773.501 149.544 773.113 149.712 772.852 150.048C772.591 150.384 772.46 150.79 772.46 151.266H770.724C770.743 150.547 770.901 149.95 771.2 149.474C771.499 148.989 771.895 148.629 772.39 148.396C772.885 148.153 773.44 148.032 774.056 148.032C775.055 148.032 775.829 148.307 776.38 148.858C776.94 149.399 777.22 150.104 777.22 150.972C777.22 151.513 777.094 152.041 776.842 152.554C776.599 153.067 776.277 153.562 775.876 154.038C775.475 154.514 775.041 154.962 774.574 155.382C774.107 155.793 773.655 156.175 773.216 156.53H777.458V158H770.71ZM778.708 158V156.698C779.305 156.203 779.884 155.713 780.444 155.228C781.013 154.743 781.517 154.262 781.956 153.786C782.404 153.31 782.759 152.848 783.02 152.4C783.291 151.943 783.426 151.499 783.426 151.07C783.426 150.669 783.314 150.314 783.09 150.006C782.875 149.698 782.516 149.544 782.012 149.544C781.499 149.544 781.111 149.712 780.85 150.048C780.589 150.384 780.458 150.79 780.458 151.266H778.722C778.741 150.547 778.899 149.95 779.198 149.474C779.497 148.989 779.893 148.629 780.388 148.396C780.883 148.153 781.438 148.032 782.054 148.032C783.053 148.032 783.827 148.307 784.378 148.858C784.938 149.399 785.218 150.104 785.218 150.972C785.218 151.513 785.092 152.041 784.84 152.554C784.597 153.067 784.275 153.562 783.874 154.038C783.473 154.514 783.039 154.962 782.572 155.382C782.105 155.793 781.653 156.175 781.214 156.53H785.456V158H778.708Z" fill="white"/>
</g>
<defs>
<filter id="filter0_b" x="137" y="134" width="104" height="38" filterUnits="userSpaceOnUse" color-interpolation-filters="sRGB">
<feFlood flood-opacity="0" result="BackgroundImageFix"/>
<feGaussianBlur in="BackgroundImage" stdDeviation="1.5"/>
<feComposite in2="SourceAlpha" operator="in" result="effect1_backgroundBlur"/>
<feBlend mode="normal" in="SourceGraphic" in2="effect1_backgroundBlur" result="shape"/>
</filter>
<filter id="filter1_b" x="706" y="134" width="107" height="38" filterUnits="userSpaceOnUse" color-interpolation-filters="sRGB">
<feFlood flood-opacity="0" result="BackgroundImageFix"/>
<feGaussianBlur in="BackgroundImage" stdDeviation="1.5"/>
<feComposite in2="SourceAlpha" operator="in" result="effect1_backgroundBlur"/>
<feBlend mode="normal" in="SourceGraphic" in2="effect1_backgroundBlur" result="shape"/>
</filter>
<clipPath id="clip0">
<rect width="1033" height="104" fill="white" transform="translate(0.5)"/>
</clipPath>
</defs>
</svg>
