<svg width="287" height="507" viewBox="0 0 287 507" fill="none" xmlns="http://www.w3.org/2000/svg">
<path d="M9.83766 96.288C8.14166 96.288 6.68566 95.928 5.46966 95.208C4.25366 94.472 3.31766 93.456 2.66166 92.16C2.00566 90.848 1.67766 89.336 1.67766 87.624C1.67766 85.912 2.00566 84.4 2.66166 83.088C3.31766 81.776 4.25366 80.752 5.46966 80.016C6.68566 79.28 8.14166 78.912 9.83766 78.912C11.8537 78.912 13.5017 79.416 14.7817 80.424C16.0777 81.416 16.8857 82.816 17.2057 84.624L13.8217 84.624C13.6137 83.712 13.1657 83 12.4777 82.488C11.8057 81.96 10.9097 81.696 9.78966 81.696C8.23766 81.696 7.02166 82.224 6.14166 83.28C5.26166 84.336 4.82166 85.784 4.82166 87.624C4.82166 89.464 5.26166 90.912 6.14166 91.968C7.02166 93.008 8.23766 93.528 9.78966 93.528C10.9097 93.528 11.8057 93.288 12.4777 92.808C13.1657 92.312 13.6137 91.632 13.8217 90.768L17.2057 90.768C16.8857 92.496 16.0777 93.848 14.7817 94.824C13.5017 95.8 11.8537 96.288 9.83766 96.288ZM24.317 96.288C22.829 96.288 21.677 95.824 20.861 94.896C20.061 93.968 19.661 92.608 19.661 90.816L19.661 84.096L22.709 84.096L22.709 90.528C22.709 91.552 22.917 92.336 23.333 92.88C23.749 93.424 24.405 93.696 25.301 93.696C26.149 93.696 26.845 93.392 27.389 92.784C27.949 92.176 28.229 91.328 28.229 90.24L28.229 84.096L31.301 84.096L31.301 96L28.589 96L28.349 93.984C27.981 94.688 27.445 95.248 26.741 95.664C26.053 96.08 25.245 96.288 24.317 96.288ZM34.4545 96L34.4545 84.096L37.1905 84.096L37.4785 86.328C37.9105 85.56 38.4945 84.952 39.2305 84.504C39.9825 84.04 40.8625 83.808 41.8705 83.808L41.8705 87.048L41.0065 87.048C40.3345 87.048 39.7345 87.152 39.2065 87.36C38.6785 87.568 38.2625 87.928 37.9585 88.44C37.6705 88.952 37.5265 89.664 37.5265 90.576L37.5265 96L34.4545 96ZM43.9702 96L43.9702 84.096L46.7062 84.096L46.9942 86.328C47.4262 85.56 48.0102 84.952 48.7462 84.504C49.4982 84.04 50.3782 83.808 51.3862 83.808L51.3862 87.048L50.5222 87.048C49.8502 87.048 49.2502 87.152 48.7222 87.36C48.1942 87.568 47.7782 87.928 47.4742 88.44C47.1862 88.952 47.0422 89.664 47.0422 90.576L47.0422 96L43.9702 96ZM59.0588 96.288C57.8588 96.288 56.7948 96.032 55.8668 95.52C54.9388 95.008 54.2108 94.288 53.6828 93.36C53.1548 92.432 52.8908 91.36 52.8908 90.144C52.8908 88.912 53.1468 87.816 53.6588 86.856C54.1868 85.896 54.9068 85.152 55.8188 84.624C56.7468 84.08 57.8348 83.808 59.0828 83.808C60.2508 83.808 61.2828 84.064 62.1788 84.576C63.0748 85.088 63.7708 85.792 64.2668 86.688C64.7788 87.568 65.0348 88.552 65.0348 89.64C65.0348 89.816 65.0268 90 65.0108 90.192C65.0108 90.384 65.0028 90.584 64.9868 90.792L55.9388 90.792C56.0028 91.72 56.3228 92.448 56.8988 92.976C57.4908 93.504 58.2028 93.768 59.0348 93.768C59.6588 93.768 60.1788 93.632 60.5948 93.36C61.0268 93.072 61.3468 92.704 61.5548 92.256L64.6748 92.256C64.4508 93.008 64.0748 93.696 63.5468 94.32C63.0348 94.928 62.3948 95.408 61.6268 95.76C60.8748 96.112 60.0188 96.288 59.0588 96.288ZM59.0828 86.304C58.3308 86.304 57.6668 86.52 57.0908 86.952C56.5148 87.368 56.1468 88.008 55.9868 88.872L61.9148 88.872C61.8668 88.088 61.5788 87.464 61.0508 87C60.5228 86.536 59.8668 86.304 59.0828 86.304ZM67.6186 96L67.6186 84.096L70.3306 84.096L70.5706 86.112C70.9386 85.408 71.4666 84.848 72.1546 84.432C72.8586 84.016 73.6826 83.808 74.6266 83.808C76.0986 83.808 77.2426 84.272 78.0586 85.2C78.8746 86.128 79.2826 87.488 79.2826 89.28L79.2826 96L76.2106 96L76.2106 89.568C76.2106 88.544 76.0026 87.76 75.5866 87.216C75.1706 86.672 74.5226 86.4 73.6426 86.4C72.7786 86.4 72.0666 86.704 71.5066 87.312C70.9626 87.92 70.6906 88.768 70.6906 89.856L70.6906 96L67.6186 96ZM88.0522 96.288C86.8362 96.288 85.7642 96.024 84.8362 95.496C83.9082 94.968 83.1722 94.232 82.6282 93.288C82.1002 92.344 81.8362 91.264 81.8362 90.048C81.8362 88.832 82.1002 87.752 82.6282 86.808C83.1722 85.864 83.9082 85.128 84.8362 84.6C85.7642 84.072 86.8362 83.808 88.0522 83.808C89.5722 83.808 90.8522 84.208 91.8922 85.008C92.9322 85.792 93.5962 86.88 93.8842 88.272L90.6442 88.272C90.4842 87.696 90.1642 87.248 89.6842 86.928C89.2202 86.592 88.6682 86.424 88.0282 86.424C87.1802 86.424 86.4602 86.744 85.8682 87.384C85.2762 88.024 84.9802 88.912 84.9802 90.048C84.9802 91.184 85.2762 92.072 85.8682 92.712C86.4602 93.352 87.1802 93.672 88.0282 93.672C88.6682 93.672 89.2202 93.512 89.6842 93.192C90.1642 92.872 90.4842 92.416 90.6442 91.824L93.8842 91.824C93.5962 93.168 92.9322 94.248 91.8922 95.064C90.8522 95.88 89.5722 96.288 88.0522 96.288ZM98.2668 82.248C97.7068 82.248 97.2428 82.08 96.8748 81.744C96.5228 81.408 96.3468 80.984 96.3468 80.472C96.3468 79.96 96.5228 79.544 96.8748 79.224C97.2428 78.888 97.7068 78.72 98.2668 78.72C98.8268 78.72 99.2828 78.888 99.6348 79.224C100.003 79.544 100.187 79.96 100.187 80.472C100.187 80.984 100.003 81.408 99.6348 81.744C99.2828 82.08 98.8268 82.248 98.2668 82.248ZM96.7308 96L96.7308 84.096L99.8028 84.096L99.8028 96L96.7308 96ZM108.793 96.288C107.593 96.288 106.529 96.032 105.601 95.52C104.673 95.008 103.945 94.288 103.417 93.36C102.889 92.432 102.625 91.36 102.625 90.144C102.625 88.912 102.881 87.816 103.393 86.856C103.921 85.896 104.641 85.152 105.553 84.624C106.481 84.08 107.569 83.808 108.817 83.808C109.985 83.808 111.017 84.064 111.913 84.576C112.809 85.088 113.505 85.792 114.001 86.688C114.513 87.568 114.769 88.552 114.769 89.64C114.769 89.816 114.761 90 114.745 90.192C114.745 90.384 114.737 90.584 114.721 90.792L105.673 90.792C105.737 91.72 106.057 92.448 106.633 92.976C107.225 93.504 107.937 93.768 108.769 93.768C109.393 93.768 109.913 93.632 110.329 93.36C110.761 93.072 111.081 92.704 111.289 92.256L114.409 92.256C114.185 93.008 113.809 93.696 113.281 94.32C112.769 94.928 112.129 95.408 111.361 95.76C110.609 96.112 109.753 96.288 108.793 96.288ZM108.817 86.304C108.065 86.304 107.401 86.52 106.825 86.952C106.249 87.368 105.881 88.008 105.721 88.872L111.649 88.872C111.601 88.088 111.313 87.464 110.785 87C110.257 86.536 109.601 86.304 108.817 86.304ZM122.273 96.288C121.217 96.288 120.289 96.12 119.489 95.784C118.689 95.432 118.049 94.952 117.569 94.344C117.089 93.736 116.801 93.032 116.705 92.232L119.801 92.232C119.897 92.696 120.153 93.096 120.569 93.432C121.001 93.752 121.553 93.912 122.225 93.912C122.897 93.912 123.385 93.776 123.689 93.504C124.009 93.232 124.169 92.92 124.169 92.568C124.169 92.056 123.945 91.712 123.497 91.536C123.049 91.344 122.425 91.16 121.625 90.984C121.113 90.872 120.593 90.736 120.065 90.576C119.537 90.416 119.049 90.216 118.601 89.976C118.169 89.72 117.817 89.4 117.545 89.016C117.273 88.616 117.137 88.128 117.137 87.552C117.137 86.496 117.553 85.608 118.385 84.888C119.233 84.168 120.417 83.808 121.937 83.808C123.345 83.808 124.465 84.136 125.297 84.792C126.145 85.448 126.649 86.352 126.809 87.504L123.905 87.504C123.729 86.624 123.065 86.184 121.913 86.184C121.337 86.184 120.889 86.296 120.569 86.52C120.265 86.744 120.113 87.024 120.113 87.36C120.113 87.712 120.345 87.992 120.809 88.2C121.273 88.408 121.889 88.6 122.657 88.776C123.489 88.968 124.249 89.184 124.937 89.424C125.641 89.648 126.201 89.992 126.617 90.456C127.033 90.904 127.241 91.552 127.241 92.4C127.257 93.136 127.065 93.8 126.665 94.392C126.265 94.984 125.689 95.448 124.937 95.784C124.185 96.12 123.297 96.288 122.273 96.288Z" fill="black"/>
<path d="M65.44 55.88C73.1388 55.88 79.38 49.6388 79.38 41.94C79.38 34.2412 73.1388 28 65.44 28C57.7412 28 51.5 34.2412 51.5 41.94C51.5 49.6388 57.7412 55.88 65.44 55.88Z" fill="#787878"/>
<path d="M60 43.2169C59.7239 43.2169 59.5 42.993 59.5 42.7169V42.5622C59.5 42.286 59.7239 42.0622 60 42.0622H60.4632C60.5824 42.0622 60.6748 41.9585 60.667 41.8396C60.6599 41.7314 60.6563 41.6233 60.6563 41.5152C60.6563 41.4002 60.6599 41.287 60.6672 41.1756C60.6749 41.0567 60.5824 40.953 60.4632 40.953H60C59.7239 40.953 59.5 40.7292 59.5 40.453V40.2831C59.5 40.007 59.7239 39.7831 60 39.7831H60.7129C60.8048 39.7831 60.8845 39.7203 60.9089 39.6317C61.2044 38.5574 61.7592 37.6913 62.5733 37.0331C63.4355 36.3444 64.5207 36 65.8292 36C67.1072 36 68.1519 36.3191 68.9633 36.9572C69.4879 37.3582 69.8864 37.8644 70.1587 38.476C70.4118 39.0443 69.9293 39.616 69.3072 39.616H69.1521C68.6856 39.616 68.3047 39.2766 68.063 38.8776C67.9181 38.6382 67.7313 38.4336 67.5028 38.2638C67.0768 37.9296 66.5138 37.7624 65.814 37.7624C65.0938 37.7624 64.4852 37.9397 63.9882 38.2942C63.571 38.598 63.2468 39.006 63.0158 39.5182C62.9587 39.6448 63.0551 39.7831 63.1941 39.7831H65.5726C65.8488 39.7831 66.0726 40.007 66.0726 40.2831V40.453C66.0726 40.7292 65.8488 40.953 65.5726 40.953H62.8538C62.7476 40.953 62.6598 41.0359 62.656 41.142C62.6516 41.2642 62.6494 41.3886 62.6494 41.5152C62.6494 41.6389 62.6515 41.7585 62.6557 41.8738C62.6595 41.9796 62.7473 42.0622 62.8532 42.0622H65.5726C65.8488 42.0622 66.0726 42.286 66.0726 42.5622V42.7169C66.0726 42.993 65.8488 43.2169 65.5726 43.2169H63.1884C63.051 43.2169 62.9547 43.3523 63.0089 43.4784C63.2338 44.0015 63.5603 44.4157 63.9882 44.721C64.4852 45.0755 65.0938 45.2528 65.814 45.2528C66.5138 45.2528 67.0768 45.1008 67.5028 44.797C67.7245 44.6373 67.907 44.4475 68.0501 44.2276C68.3021 43.8404 68.6803 43.5055 69.1423 43.5055H69.2975C69.9228 43.5055 70.4057 44.0839 70.1355 44.6478C69.8639 45.2146 69.4732 45.6898 68.9633 46.0732C68.1519 46.6911 67.1072 47 65.8292 47C64.5207 47 63.4355 46.6607 62.5733 45.982C61.7493 45.3237 61.1893 44.4526 60.8935 43.3687C60.8692 43.2799 60.7894 43.2169 60.6973 43.2169H60Z" fill="white"/>
<path d="M60.8388 31.6499C62.082 26.3823 58.8196 21.1041 53.552 19.8608C48.2843 18.6175 43.0062 21.88 41.7629 27.1476C40.5196 32.4153 43.782 37.6934 49.0497 38.9367C54.3173 40.18 59.5955 36.9176 60.8388 31.6499Z" fill="#565656"/>
<path d="M46.9195 30.9047C46.6878 30.9047 46.5 30.7215 46.5 30.4956V30.369C46.5 30.1431 46.6878 29.9599 46.9195 29.9599H47.3081C47.4081 29.9599 47.4857 29.8751 47.4791 29.7778C47.4731 29.6894 47.4701 29.6009 47.4701 29.5124C47.4701 29.4183 47.4731 29.3257 47.4792 29.2346C47.4857 29.1373 47.4081 29.0525 47.3081 29.0525H46.9195C46.6878 29.0525 46.5 28.8693 46.5 28.6434V28.5044C46.5 28.2785 46.6878 28.0953 46.9195 28.0953H47.5176C47.5947 28.0953 47.6616 28.0439 47.682 27.9714C47.93 27.0925 48.3954 26.3838 49.0784 25.8453C49.8017 25.2818 50.7123 25 51.81 25C52.8822 25 53.7587 25.261 54.4395 25.7831C54.8796 26.1112 55.2139 26.5255 55.4424 27.0258C55.6547 27.4908 55.2499 27.9586 54.7279 27.9586H54.5979C54.2065 27.9586 53.8869 27.6809 53.6841 27.3544C53.5625 27.1586 53.4058 26.9912 53.2141 26.8522C52.8567 26.5787 52.3844 26.442 51.7972 26.442C51.1931 26.442 50.6825 26.587 50.2655 26.8771C49.9154 27.1257 49.6435 27.4595 49.4497 27.8785C49.4018 27.9821 49.4827 28.0953 49.5992 28.0953H51.5947C51.8264 28.0953 52.0142 28.2785 52.0142 28.5044V28.6434C52.0142 28.8693 51.8264 29.0525 51.5947 29.0525H49.3137C49.2247 29.0525 49.151 29.1203 49.1478 29.2071C49.1441 29.3071 49.1422 29.4089 49.1422 29.5124C49.1422 29.6137 49.144 29.7115 49.1475 29.8058C49.1507 29.8924 49.2244 29.9599 49.3132 29.9599H51.5947C51.8264 29.9599 52.0142 30.1431 52.0142 30.369V30.4956C52.0142 30.7215 51.8264 30.9047 51.5947 30.9047H49.5944C49.4792 30.9047 49.3984 31.0155 49.4439 31.1187C49.6326 31.5467 49.9064 31.8856 50.2655 32.1354C50.6825 32.4254 51.1931 32.5704 51.7972 32.5704C52.3844 32.5704 52.8567 32.4461 53.2141 32.1975C53.4001 32.0669 53.5532 31.9116 53.6733 31.7317C53.8847 31.4149 54.202 31.1409 54.5896 31.1409H54.7198C55.2445 31.1409 55.6496 31.6141 55.4229 32.0755C55.195 32.5392 54.8672 32.928 54.4395 33.2417C53.7587 33.7472 52.8822 34 51.81 34C50.7123 34 49.8017 33.7224 49.0784 33.1671C48.3871 32.6285 47.9173 31.9158 47.6691 31.0289C47.6487 30.9563 47.5817 30.9047 47.5045 30.9047H46.9195Z" fill="white"/>
<path d="M51.0205 8.13009L47.4005 12.5401C47.3572 12.5946 47.3302 12.6602 47.3226 12.7294C47.3149 12.7985 47.3269 12.8684 47.3572 12.9311C47.3875 12.9938 47.4348 13.0466 47.4938 13.0836C47.5527 13.1205 47.6209 13.1401 47.6905 13.1401H48.5005C48.596 13.1401 48.6875 13.178 48.755 13.2455C48.8226 13.313 48.8605 13.4046 48.8605 13.5001V16.0601C48.8605 16.2696 48.9437 16.4705 49.0919 16.6187C49.24 16.7669 49.441 16.8501 49.6505 16.8501H52.8705C53.0792 16.8475 53.2786 16.7634 53.4262 16.6158C53.5738 16.4682 53.6579 16.2688 53.6605 16.0601V13.5001C53.6605 13.4046 53.6984 13.313 53.7659 13.2455C53.8334 13.178 53.925 13.1401 54.0205 13.1401H54.8705C54.9401 13.1401 55.0083 13.1205 55.0672 13.0836C55.1262 13.0466 55.1735 12.9938 55.2038 12.9311C55.2341 12.8684 55.2461 12.7985 55.2384 12.7294C55.2308 12.6602 55.2037 12.5946 55.1605 12.5401L51.5805 8.13009C51.5458 8.08988 51.5028 8.05762 51.4544 8.03551C51.4061 8.0134 51.3536 8.00195 51.3005 8.00195C51.2473 8.00195 51.1948 8.0134 51.1465 8.03551C51.0982 8.05762 51.0552 8.08988 51.0205 8.13009Z" fill="#565656"/>
<path d="M69.9297 28.8594V33.8594C69.9297 36.0315 70.7926 38.1147 72.3285 39.6506C73.8644 41.1865 75.9476 42.0494 78.1197 42.0494H79.4397C79.4355 39.1318 78.5153 36.2893 76.809 33.9227C75.1027 31.5562 72.6965 29.7851 69.9297 28.8594Z" fill="#787878"/>
<path d="M65.1019 11.8206L59.9619 18.0906C59.8995 18.1666 59.8599 18.2587 59.8477 18.3563C59.8356 18.4539 59.8514 18.553 59.8932 18.642C59.9351 18.731 60.0014 18.8063 60.0843 18.8591C60.1673 18.912 60.2635 18.9402 60.3619 18.9406H61.5819C61.7171 18.9406 61.8469 18.9943 61.9425 19.0899C62.0382 19.1856 62.0919 19.3153 62.0919 19.4506V23.0806C62.0919 23.3785 62.2095 23.6645 62.4193 23.8761C62.6291 24.0877 62.9139 24.2079 63.2119 24.2106H67.7919C68.0898 24.2079 68.3747 24.0877 68.5845 23.8761C68.7942 23.6645 68.9119 23.3785 68.9119 23.0806V19.4506C68.9119 19.3153 68.9656 19.1856 69.0613 19.0899C69.1569 18.9943 69.2866 18.9406 69.4219 18.9406H70.6419C70.7402 18.9402 70.8365 18.912 70.9194 18.8591C71.0024 18.8063 71.0686 18.731 71.1105 18.642C71.1524 18.553 71.1682 18.4539 71.156 18.3563C71.1439 18.2587 71.1043 18.1666 71.0419 18.0906L65.9019 11.8206C65.8541 11.7602 65.7934 11.7114 65.7241 11.6779C65.6548 11.6444 65.5788 11.627 65.5019 11.627C65.4249 11.627 65.349 11.6444 65.2797 11.6779C65.2104 11.7114 65.1496 11.7602 65.1019 11.8206Z" fill="#787878"/>
<path d="M86.6288 36.33C90.4559 32.5029 90.4559 26.2979 86.6288 22.4707C82.8016 18.6436 76.5966 18.6436 72.7695 22.4707C68.9424 26.2979 68.9424 32.5029 72.7695 36.33C76.5966 40.1572 82.8016 40.1572 86.6288 36.33Z" fill="#565656"/>
<path d="M75.4195 30.9047C75.1878 30.9047 75 30.7215 75 30.4956V30.369C75 30.1431 75.1878 29.9599 75.4195 29.9599H75.8081C75.9081 29.9599 75.9857 29.8751 75.9791 29.7778C75.9731 29.6894 75.9701 29.6009 75.9701 29.5124C75.9701 29.4183 75.9731 29.3257 75.9792 29.2346C75.9857 29.1373 75.9081 29.0525 75.8081 29.0525H75.4195C75.1878 29.0525 75 28.8693 75 28.6434V28.5044C75 28.2785 75.1878 28.0953 75.4195 28.0953H76.0176C76.0947 28.0953 76.1616 28.0439 76.182 27.9714C76.43 27.0925 76.8954 26.3838 77.5784 25.8453C78.3017 25.2818 79.2123 25 80.31 25C81.3822 25 82.2587 25.261 82.9395 25.7831C83.3796 26.1112 83.7139 26.5255 83.9424 27.0258C84.1547 27.4908 83.7499 27.9586 83.2279 27.9586H83.0979C82.7065 27.9586 82.3869 27.6809 82.1841 27.3544C82.0625 27.1586 81.9058 26.9912 81.7141 26.8522C81.3567 26.5787 80.8844 26.442 80.2972 26.442C79.6931 26.442 79.1825 26.587 78.7655 26.8771C78.4154 27.1257 78.1435 27.4595 77.9497 27.8785C77.9018 27.9821 77.9827 28.0953 78.0992 28.0953H80.0947C80.3264 28.0953 80.5142 28.2785 80.5142 28.5044V28.6434C80.5142 28.8693 80.3264 29.0525 80.0947 29.0525H77.8137C77.7247 29.0525 77.651 29.1203 77.6478 29.2071C77.6441 29.3071 77.6422 29.4089 77.6422 29.5124C77.6422 29.6137 77.644 29.7115 77.6475 29.8058C77.6507 29.8924 77.7244 29.9599 77.8132 29.9599H80.0947C80.3264 29.9599 80.5142 30.1431 80.5142 30.369V30.4956C80.5142 30.7215 80.3264 30.9047 80.0947 30.9047H78.0944C77.9792 30.9047 77.8984 31.0155 77.9439 31.1187C78.1326 31.5467 78.4064 31.8856 78.7655 32.1354C79.1825 32.4254 79.6931 32.5704 80.2972 32.5704C80.8844 32.5704 81.3567 32.4461 81.7141 32.1975C81.9001 32.0669 82.0532 31.9116 82.1733 31.7317C82.3847 31.4149 82.702 31.1409 83.0896 31.1409H83.2198C83.7445 31.1409 84.1496 31.6141 83.9229 32.0755C83.695 32.5392 83.3672 32.928 82.9395 33.2417C82.2587 33.7472 81.3822 34 80.31 34C79.2123 34 78.3017 33.7224 77.5784 33.1671C76.8871 32.6285 76.4173 31.9158 76.1691 31.0289C76.1487 30.9563 76.0817 30.9047 76.0045 30.9047H75.4195Z" fill="white"/>
<path d="M79.4189 8.13009L75.7989 12.5401C75.7557 12.5946 75.7287 12.6602 75.721 12.7294C75.7133 12.7985 75.7253 12.8684 75.7556 12.9311C75.7859 12.9938 75.8332 13.0466 75.8922 13.0836C75.9512 13.1205 76.0193 13.1401 76.0889 13.1401H76.9389C77.0344 13.1401 77.126 13.178 77.1935 13.2455C77.261 13.313 77.2989 13.4046 77.2989 13.5001V16.0601C77.3015 16.2688 77.3856 16.4682 77.5332 16.6158C77.6808 16.7634 77.8802 16.8475 78.0889 16.8501H81.3089C81.5184 16.8501 81.7194 16.7669 81.8675 16.6187C82.0157 16.4705 82.0989 16.2696 82.0989 16.0601V13.5001C82.0989 13.4046 82.1368 13.313 82.2044 13.2455C82.2719 13.178 82.3634 13.1401 82.4589 13.1401H83.3089C83.3785 13.1401 83.4467 13.1205 83.5057 13.0836C83.5646 13.0466 83.6119 12.9938 83.6422 12.9311C83.6725 12.8684 83.6845 12.7985 83.6768 12.7294C83.6692 12.6602 83.6422 12.5946 83.5989 12.5401L79.9789 8.13009C79.9442 8.08988 79.9012 8.05762 79.8529 8.03551C79.8046 8.0134 79.7521 8.00195 79.6989 8.00195C79.6458 8.00195 79.5933 8.0134 79.545 8.03551C79.4966 8.05762 79.4537 8.08988 79.4189 8.13009Z" fill="#787878"/>
<path d="M69.9297 28.8594C69.9297 29.0394 69.9297 29.2194 69.9297 29.3994C69.9307 31.8982 70.8872 34.3021 72.6032 36.1185C74.3193 37.935 76.6649 39.0264 79.1597 39.1694C78.6528 36.7957 77.5344 34.5956 75.9154 32.7872C74.2965 30.9788 72.2331 29.6248 69.9297 28.8594Z" fill="#787878"/>
<path d="M203.785 96.288C202.105 96.288 200.633 95.92 199.369 95.184C198.121 94.448 197.137 93.432 196.417 92.136C195.713 90.824 195.361 89.312 195.361 87.6C195.361 85.888 195.713 84.384 196.417 83.088C197.137 81.776 198.121 80.752 199.369 80.016C200.633 79.28 202.105 78.912 203.785 78.912C205.449 78.912 206.913 79.28 208.177 80.016C209.441 80.752 210.425 81.776 211.129 83.088C211.833 84.384 212.185 85.888 212.185 87.6C212.185 89.312 211.833 90.824 211.129 92.136C210.425 93.432 209.441 94.448 208.177 95.184C206.913 95.92 205.449 96.288 203.785 96.288ZM203.785 93.528C205.385 93.528 206.657 93 207.601 91.944C208.561 90.888 209.041 89.44 209.041 87.6C209.041 85.76 208.561 84.312 207.601 83.256C206.657 82.2 205.385 81.672 203.785 81.672C202.185 81.672 200.905 82.2 199.945 83.256C198.985 84.312 198.505 85.76 198.505 87.6C198.505 89.44 198.985 90.888 199.945 91.944C200.905 93 202.185 93.528 203.785 93.528ZM214.826 101.28L214.826 84.096L217.562 84.096L217.898 85.8C218.282 85.272 218.786 84.808 219.41 84.408C220.05 84.008 220.874 83.808 221.882 83.808C223.002 83.808 224.002 84.08 224.882 84.624C225.762 85.168 226.458 85.912 226.97 86.856C227.482 87.8 227.738 88.872 227.738 90.072C227.738 91.272 227.482 92.344 226.97 93.288C226.458 94.216 225.762 94.952 224.882 95.496C224.002 96.024 223.002 96.288 221.882 96.288C220.986 96.288 220.202 96.12 219.53 95.784C218.858 95.448 218.314 94.976 217.898 94.368L217.898 101.28L214.826 101.28ZM221.234 93.6C222.21 93.6 223.018 93.272 223.658 92.616C224.298 91.96 224.618 91.112 224.618 90.072C224.618 89.032 224.298 88.176 223.658 87.504C223.018 86.832 222.21 86.496 221.234 86.496C220.242 86.496 219.426 86.832 218.786 87.504C218.162 88.16 217.85 89.008 217.85 90.048C217.85 91.088 218.162 91.944 218.786 92.616C219.426 93.272 220.242 93.6 221.234 93.6ZM235.317 96C234.069 96 233.069 95.696 232.317 95.088C231.565 94.48 231.189 93.4 231.189 91.848L231.189 86.664L229.149 86.664L229.149 84.096L231.189 84.096L231.549 80.904L234.261 80.904L234.261 84.096L237.477 84.096L237.477 86.664L234.261 86.664L234.261 91.872C234.261 92.448 234.381 92.848 234.621 93.072C234.877 93.28 235.309 93.384 235.917 93.384L237.405 93.384L237.405 96L235.317 96ZM241.771 82.248C241.211 82.248 240.747 82.08 240.379 81.744C240.027 81.408 239.851 80.984 239.851 80.472C239.851 79.96 240.027 79.544 240.379 79.224C240.747 78.888 241.211 78.72 241.771 78.72C242.331 78.72 242.787 78.888 243.139 79.224C243.507 79.544 243.691 79.96 243.691 80.472C243.691 80.984 243.507 81.408 243.139 81.744C242.787 82.08 242.331 82.248 241.771 82.248ZM240.235 96L240.235 84.096L243.307 84.096L243.307 96L240.235 96ZM252.225 96.288C251.073 96.288 250.033 96.024 249.105 95.496C248.193 94.968 247.465 94.24 246.921 93.312C246.393 92.368 246.129 91.28 246.129 90.048C246.129 88.816 246.401 87.736 246.945 86.808C247.489 85.864 248.217 85.128 249.129 84.6C250.057 84.072 251.097 83.808 252.249 83.808C253.385 83.808 254.409 84.072 255.321 84.6C256.249 85.128 256.977 85.864 257.505 86.808C258.049 87.736 258.321 88.816 258.321 90.048C258.321 91.28 258.049 92.368 257.505 93.312C256.977 94.24 256.249 94.968 255.321 95.496C254.393 96.024 253.361 96.288 252.225 96.288ZM252.225 93.624C253.025 93.624 253.721 93.328 254.313 92.736C254.905 92.128 255.201 91.232 255.201 90.048C255.201 88.864 254.905 87.976 254.313 87.384C253.721 86.776 253.033 86.472 252.249 86.472C251.433 86.472 250.729 86.776 250.137 87.384C249.561 87.976 249.273 88.864 249.273 90.048C249.273 91.232 249.561 92.128 250.137 92.736C250.729 93.328 251.425 93.624 252.225 93.624ZM261.068 96L261.068 84.096L263.78 84.096L264.02 86.112C264.388 85.408 264.916 84.848 265.604 84.432C266.308 84.016 267.132 83.808 268.076 83.808C269.548 83.808 270.692 84.272 271.508 85.2C272.324 86.128 272.732 87.488 272.732 89.28L272.732 96L269.66 96L269.66 89.568C269.66 88.544 269.452 87.76 269.036 87.216C268.62 86.672 267.972 86.4 267.092 86.4C266.228 86.4 265.516 86.704 264.956 87.312C264.412 87.92 264.14 88.768 264.14 89.856L264.14 96L261.068 96ZM280.589 96.288C279.533 96.288 278.605 96.12 277.805 95.784C277.005 95.432 276.365 94.952 275.885 94.344C275.405 93.736 275.117 93.032 275.021 92.232L278.117 92.232C278.213 92.696 278.469 93.096 278.885 93.432C279.317 93.752 279.869 93.912 280.541 93.912C281.213 93.912 281.701 93.776 282.005 93.504C282.325 93.232 282.485 92.92 282.485 92.568C282.485 92.056 282.261 91.712 281.813 91.536C281.365 91.344 280.741 91.16 279.941 90.984C279.429 90.872 278.909 90.736 278.381 90.576C277.853 90.416 277.365 90.216 276.917 89.976C276.485 89.72 276.133 89.4 275.861 89.016C275.589 88.616 275.453 88.128 275.453 87.552C275.453 86.496 275.869 85.608 276.701 84.888C277.549 84.168 278.733 83.808 280.253 83.808C281.661 83.808 282.781 84.136 283.613 84.792C284.461 85.448 284.965 86.352 285.125 87.504L282.221 87.504C282.045 86.624 281.381 86.184 280.229 86.184C279.653 86.184 279.205 86.296 278.885 86.52C278.581 86.744 278.429 87.024 278.429 87.36C278.429 87.712 278.661 87.992 279.125 88.2C279.589 88.408 280.205 88.6 280.973 88.776C281.805 88.968 282.565 89.184 283.253 89.424C283.957 89.648 284.517 89.992 284.933 90.456C285.349 90.904 285.557 91.552 285.557 92.4C285.573 93.136 285.381 93.8 284.981 94.392C284.581 94.984 284.005 95.448 283.253 95.784C282.501 96.12 281.613 96.288 280.589 96.288Z" fill="black"/>
<path d="M227.749 39.5508H220.499C220.107 39.5508 219.789 39.8687 219.789 40.2608V53.2908C219.789 53.6829 220.107 54.0008 220.499 54.0008H227.749C228.141 54.0008 228.459 53.6829 228.459 53.2908V40.2608C228.459 39.8687 228.141 39.5508 227.749 39.5508Z" fill="#565656"/>
<path d="M238.999 29.0391H231.749C231.357 29.0391 231.039 29.3569 231.039 29.7491V53.2891C231.039 53.6812 231.357 53.9991 231.749 53.9991H238.999C239.391 53.9991 239.709 53.6812 239.709 53.2891V29.7491C239.709 29.3569 239.391 29.0391 238.999 29.0391Z" fill="#787878"/>
<path d="M250.249 18.5195H242.999C242.607 18.5195 242.289 18.8374 242.289 19.2295V53.2895C242.289 53.6817 242.607 53.9995 242.999 53.9995H250.249C250.641 53.9995 250.959 53.6817 250.959 53.2895V19.2295C250.959 18.8374 250.641 18.5195 250.249 18.5195Z" fill="#565656"/>
<path d="M261.499 8H254.249C253.857 8 253.539 8.31788 253.539 8.71V53.29C253.539 53.6821 253.857 54 254.249 54H261.499C261.891 54 262.209 53.6821 262.209 53.29V8.71C262.209 8.31788 261.891 8 261.499 8Z" fill="#787878"/>
<path d="M264.1 52H217.9C217.403 52 217 52.4029 217 52.9V55.1C217 55.5971 217.403 56 217.9 56H264.1C264.597 56 265 55.5971 265 55.1V52.9C265 52.4029 264.597 52 264.1 52Z" fill="#565656"/>
<path d="M221.529 31.8647L219.966 30.3019C219.925 30.2611 219.893 30.2126 219.871 30.1592C219.849 30.1058 219.837 30.0486 219.837 29.9908C219.837 29.933 219.849 29.8758 219.871 29.8224C219.893 29.7691 219.925 29.7206 219.966 29.6797L237.644 12.002L239.829 14.187L222.151 31.8647C222.11 31.9055 222.062 31.9379 222.008 31.96C221.955 31.9821 221.898 31.9935 221.84 31.9935C221.782 31.9935 221.725 31.9821 221.671 31.96C221.618 31.9379 221.57 31.9055 221.529 31.8647Z" fill="#565656"/>
<path d="M241.361 10.8493L240.471 15.5393C240.461 15.5958 240.436 15.6485 240.398 15.6914C240.36 15.7343 240.31 15.7659 240.255 15.7824C240.2 15.799 240.142 15.8 240.086 15.7854C240.031 15.7707 239.981 15.7409 239.941 15.6993L236.151 11.9093C236.109 11.8697 236.08 11.8194 236.065 11.7639C236.05 11.7084 236.051 11.65 236.068 11.595C236.085 11.5401 236.116 11.4908 236.159 11.4527C236.202 11.4146 236.255 11.3892 236.311 11.3793L241.001 10.4893C241.05 10.4804 241.101 10.4836 241.149 10.4986C241.196 10.5135 241.24 10.5398 241.275 10.5752C241.311 10.6105 241.337 10.6539 241.352 10.7017C241.367 10.7494 241.37 10.8 241.361 10.8493Z" fill="#565656"/>
<path d="M52 118V147H83M236 118V147H205" stroke="#787878" stroke-opacity="0.2"/>
<g filter="url(#filter0_b)">
<rect x="95" y="131" width="98" height="32" rx="4" fill="#45454E" fill-opacity="0.75"/>
<path d="M124.544 152.168C123.564 152.168 122.705 151.953 121.968 151.524C121.24 151.095 120.666 150.502 120.246 149.746C119.835 148.981 119.63 148.099 119.63 147.1C119.63 146.101 119.835 145.224 120.246 144.468C120.666 143.703 121.24 143.105 121.968 142.676C122.705 142.247 123.564 142.032 124.544 142.032C125.515 142.032 126.369 142.247 127.106 142.676C127.843 143.105 128.417 143.703 128.828 144.468C129.239 145.224 129.444 146.101 129.444 147.1C129.444 148.033 129.262 148.869 128.898 149.606C128.534 150.334 128.03 150.913 127.386 151.342L129.654 153.778H127.428L125.888 152.014C125.459 152.117 125.011 152.168 124.544 152.168ZM124.544 150.558C125.477 150.558 126.219 150.25 126.77 149.634C127.33 149.018 127.61 148.173 127.61 147.1C127.61 146.027 127.33 145.182 126.77 144.566C126.219 143.95 125.477 143.642 124.544 143.642C123.611 143.642 122.864 143.95 122.304 144.566C121.744 145.182 121.464 146.027 121.464 147.1C121.464 148.173 121.744 149.018 122.304 149.634C122.864 150.25 123.611 150.558 124.544 150.558ZM132.049 152V144.244L130.439 144.622V143.25L132.805 142.2H133.911V152H132.049ZM138.909 152V150.698C139.507 150.203 140.085 149.713 140.645 149.228C141.215 148.743 141.719 148.262 142.157 147.786C142.605 147.31 142.96 146.848 143.221 146.4C143.492 145.943 143.627 145.499 143.627 145.07C143.627 144.669 143.515 144.314 143.291 144.006C143.077 143.698 142.717 143.544 142.213 143.544C141.7 143.544 141.313 143.712 141.051 144.048C140.79 144.384 140.659 144.79 140.659 145.266H138.923C138.942 144.547 139.101 143.95 139.399 143.474C139.698 142.989 140.095 142.629 140.589 142.396C141.084 142.153 141.639 142.032 142.255 142.032C143.254 142.032 144.029 142.307 144.579 142.858C145.139 143.399 145.419 144.104 145.419 144.972C145.419 145.513 145.293 146.041 145.041 146.554C144.799 147.067 144.477 147.562 144.075 148.038C143.674 148.514 143.24 148.962 142.773 149.382C142.307 149.793 141.854 150.175 141.415 150.53H145.657V152H138.909ZM151.095 152.168C150.19 152.168 149.415 151.958 148.771 151.538C148.127 151.109 147.628 150.516 147.273 149.76C146.928 148.995 146.755 148.108 146.755 147.1C146.755 146.101 146.928 145.219 147.273 144.454C147.628 143.689 148.127 143.096 148.771 142.676C149.415 142.247 150.19 142.032 151.095 142.032C152 142.032 152.775 142.247 153.419 142.676C154.063 143.096 154.558 143.689 154.903 144.454C155.258 145.219 155.435 146.101 155.435 147.1C155.435 148.108 155.258 148.995 154.903 149.76C154.558 150.516 154.063 151.109 153.419 151.538C152.775 151.958 152 152.168 151.095 152.168ZM151.095 150.558C151.832 150.558 152.434 150.25 152.901 149.634C153.368 149.018 153.601 148.173 153.601 147.1C153.601 146.027 153.368 145.182 152.901 144.566C152.434 143.95 151.832 143.642 151.095 143.642C150.348 143.642 149.742 143.95 149.275 144.566C148.818 145.182 148.589 146.027 148.589 147.1C148.589 148.173 148.818 149.018 149.275 149.634C149.742 150.25 150.348 150.558 151.095 150.558ZM156.71 152V150.698C157.307 150.203 157.886 149.713 158.446 149.228C159.015 148.743 159.519 148.262 159.958 147.786C160.406 147.31 160.761 146.848 161.022 146.4C161.293 145.943 161.428 145.499 161.428 145.07C161.428 144.669 161.316 144.314 161.092 144.006C160.877 143.698 160.518 143.544 160.014 143.544C159.501 143.544 159.113 143.712 158.852 144.048C158.591 144.384 158.46 144.79 158.46 145.266H156.724C156.743 144.547 156.901 143.95 157.2 143.474C157.499 142.989 157.895 142.629 158.39 142.396C158.885 142.153 159.44 142.032 160.056 142.032C161.055 142.032 161.829 142.307 162.38 142.858C162.94 143.399 163.22 144.104 163.22 144.972C163.22 145.513 163.094 146.041 162.842 146.554C162.599 147.067 162.277 147.562 161.876 148.038C161.475 148.514 161.041 148.962 160.574 149.382C160.107 149.793 159.655 150.175 159.216 150.53H163.458V152H156.71ZM166.01 152V144.244L164.4 144.622V143.25L166.766 142.2H167.872V152H166.01Z" fill="white"/>
</g>
<path d="M52 321V350H83M236 321V350H205" stroke="#787878" stroke-opacity="0.2"/>
<g filter="url(#filter1_b)">
<rect x="93.5" y="334" width="101" height="32" rx="4" fill="#45454E" fill-opacity="0.75"/>
<path d="M123.044 355.168C122.064 355.168 121.205 354.953 120.468 354.524C119.74 354.095 119.166 353.502 118.746 352.746C118.335 351.981 118.13 351.099 118.13 350.1C118.13 349.101 118.335 348.224 118.746 347.468C119.166 346.703 119.74 346.105 120.468 345.676C121.205 345.247 122.064 345.032 123.044 345.032C124.015 345.032 124.869 345.247 125.606 345.676C126.343 346.105 126.917 346.703 127.328 347.468C127.739 348.224 127.944 349.101 127.944 350.1C127.944 351.033 127.762 351.869 127.398 352.606C127.034 353.334 126.53 353.913 125.886 354.342L128.154 356.778H125.928L124.388 355.014C123.959 355.117 123.511 355.168 123.044 355.168ZM123.044 353.558C123.977 353.558 124.719 353.25 125.27 352.634C125.83 352.018 126.11 351.173 126.11 350.1C126.11 349.027 125.83 348.182 125.27 347.566C124.719 346.95 123.977 346.642 123.044 346.642C122.111 346.642 121.364 346.95 120.804 347.566C120.244 348.182 119.964 349.027 119.964 350.1C119.964 351.173 120.244 352.018 120.804 352.634C121.364 353.25 122.111 353.558 123.044 353.558ZM130.549 355V347.244L128.939 347.622V346.25L131.305 345.2H132.411V355H130.549ZM137.409 355V353.698C138.007 353.203 138.585 352.713 139.145 352.228C139.715 351.743 140.219 351.262 140.657 350.786C141.105 350.31 141.46 349.848 141.721 349.4C141.992 348.943 142.127 348.499 142.127 348.07C142.127 347.669 142.015 347.314 141.791 347.006C141.577 346.698 141.217 346.544 140.713 346.544C140.2 346.544 139.813 346.712 139.551 347.048C139.29 347.384 139.159 347.79 139.159 348.266H137.423C137.442 347.547 137.601 346.95 137.899 346.474C138.198 345.989 138.595 345.629 139.089 345.396C139.584 345.153 140.139 345.032 140.755 345.032C141.754 345.032 142.529 345.307 143.079 345.858C143.639 346.399 143.919 347.104 143.919 347.972C143.919 348.513 143.793 349.041 143.541 349.554C143.299 350.067 142.977 350.562 142.575 351.038C142.174 351.514 141.74 351.962 141.273 352.382C140.807 352.793 140.354 353.175 139.915 353.53H144.157V355H137.409ZM149.595 355.168C148.69 355.168 147.915 354.958 147.271 354.538C146.627 354.109 146.128 353.516 145.773 352.76C145.428 351.995 145.255 351.108 145.255 350.1C145.255 349.101 145.428 348.219 145.773 347.454C146.128 346.689 146.627 346.096 147.271 345.676C147.915 345.247 148.69 345.032 149.595 345.032C150.5 345.032 151.275 345.247 151.919 345.676C152.563 346.096 153.058 346.689 153.403 347.454C153.758 348.219 153.935 349.101 153.935 350.1C153.935 351.108 153.758 351.995 153.403 352.76C153.058 353.516 152.563 354.109 151.919 354.538C151.275 354.958 150.5 355.168 149.595 355.168ZM149.595 353.558C150.332 353.558 150.934 353.25 151.401 352.634C151.868 352.018 152.101 351.173 152.101 350.1C152.101 349.027 151.868 348.182 151.401 347.566C150.934 346.95 150.332 346.642 149.595 346.642C148.848 346.642 148.242 346.95 147.775 347.566C147.318 348.182 147.089 349.027 147.089 350.1C147.089 351.173 147.318 352.018 147.775 352.634C148.242 353.25 148.848 353.558 149.595 353.558ZM155.21 355V353.698C155.807 353.203 156.386 352.713 156.946 352.228C157.515 351.743 158.019 351.262 158.458 350.786C158.906 350.31 159.261 349.848 159.522 349.4C159.793 348.943 159.928 348.499 159.928 348.07C159.928 347.669 159.816 347.314 159.592 347.006C159.377 346.698 159.018 346.544 158.514 346.544C158.001 346.544 157.613 346.712 157.352 347.048C157.091 347.384 156.96 347.79 156.96 348.266H155.224C155.243 347.547 155.401 346.95 155.7 346.474C155.999 345.989 156.395 345.629 156.89 345.396C157.385 345.153 157.94 345.032 158.556 345.032C159.555 345.032 160.329 345.307 160.88 345.858C161.44 346.399 161.72 347.104 161.72 347.972C161.72 348.513 161.594 349.041 161.342 349.554C161.099 350.067 160.777 350.562 160.376 351.038C159.975 351.514 159.541 351.962 159.074 352.382C158.607 352.793 158.155 353.175 157.716 353.53H161.958V355H155.21ZM163.208 355V353.698C163.805 353.203 164.384 352.713 164.944 352.228C165.513 351.743 166.017 351.262 166.456 350.786C166.904 350.31 167.259 349.848 167.52 349.4C167.791 348.943 167.926 348.499 167.926 348.07C167.926 347.669 167.814 347.314 167.59 347.006C167.375 346.698 167.016 346.544 166.512 346.544C165.999 346.544 165.611 346.712 165.35 347.048C165.089 347.384 164.958 347.79 164.958 348.266H163.222C163.241 347.547 163.399 346.95 163.698 346.474C163.997 345.989 164.393 345.629 164.888 345.396C165.383 345.153 165.938 345.032 166.554 345.032C167.553 345.032 168.327 345.307 168.878 345.858C169.438 346.399 169.718 347.104 169.718 347.972C169.718 348.513 169.592 349.041 169.34 349.554C169.097 350.067 168.775 350.562 168.374 351.038C167.973 351.514 167.539 351.962 167.072 352.382C166.605 352.793 166.153 353.175 165.714 353.53H169.956V355H163.208Z" fill="white"/>
</g>
<path d="M74.6072 499.288C72.9112 499.288 71.4552 498.928 70.2392 498.208C69.0232 497.472 68.0872 496.456 67.4312 495.16C66.7752 493.848 66.4472 492.336 66.4472 490.624C66.4472 488.912 66.7752 487.4 67.4312 486.088C68.0872 484.776 69.0232 483.752 70.2392 483.016C71.4552 482.28 72.9112 481.912 74.6072 481.912C76.6232 481.912 78.2712 482.416 79.5512 483.424C80.8472 484.416 81.6552 485.816 81.9752 487.624L78.5912 487.624C78.3832 486.712 77.9352 486 77.2472 485.488C76.5752 484.96 75.6792 484.696 74.5592 484.696C73.0072 484.696 71.7912 485.224 70.9112 486.28C70.0312 487.336 69.5912 488.784 69.5912 490.624C69.5912 492.464 70.0312 493.912 70.9112 494.968C71.7912 496.008 73.0072 496.528 74.5592 496.528C75.6792 496.528 76.5752 496.288 77.2472 495.808C77.9352 495.312 78.3832 494.632 78.5912 493.768L81.9752 493.768C81.6552 495.496 80.8472 496.848 79.5512 497.824C78.2712 498.8 76.6232 499.288 74.6072 499.288ZM90.3345 499.288C89.1825 499.288 88.1425 499.024 87.2145 498.496C86.3025 497.968 85.5745 497.24 85.0305 496.312C84.5025 495.368 84.2385 494.28 84.2385 493.048C84.2385 491.816 84.5105 490.736 85.0545 489.808C85.5985 488.864 86.3265 488.128 87.2385 487.6C88.1665 487.072 89.2065 486.808 90.3585 486.808C91.4945 486.808 92.5185 487.072 93.4305 487.6C94.3585 488.128 95.0865 488.864 95.6145 489.808C96.1585 490.736 96.4305 491.816 96.4305 493.048C96.4305 494.28 96.1585 495.368 95.6145 496.312C95.0865 497.24 94.3585 497.968 93.4305 498.496C92.5025 499.024 91.4705 499.288 90.3345 499.288ZM90.3345 496.624C91.1345 496.624 91.8305 496.328 92.4225 495.736C93.0145 495.128 93.3105 494.232 93.3105 493.048C93.3105 491.864 93.0145 490.976 92.4225 490.384C91.8305 489.776 91.1425 489.472 90.3585 489.472C89.5425 489.472 88.8385 489.776 88.2465 490.384C87.6705 490.976 87.3825 491.864 87.3825 493.048C87.3825 494.232 87.6705 495.128 88.2465 495.736C88.8385 496.328 89.5345 496.624 90.3345 496.624ZM99.1772 499L99.1772 487.096L101.889 487.096L102.153 488.704C102.537 488.128 103.041 487.672 103.665 487.336C104.305 486.984 105.041 486.808 105.873 486.808C107.713 486.808 109.017 487.52 109.785 488.944C110.217 488.288 110.793 487.768 111.513 487.384C112.249 487 113.049 486.808 113.913 486.808C115.465 486.808 116.657 487.272 117.489 488.2C118.321 489.128 118.737 490.488 118.737 492.28L118.737 499L115.665 499L115.665 492.568C115.665 491.544 115.465 490.76 115.065 490.216C114.681 489.672 114.081 489.4 113.265 489.4C112.433 489.4 111.761 489.704 111.249 490.312C110.753 490.92 110.505 491.768 110.505 492.856L110.505 499L107.433 499L107.433 492.568C107.433 491.544 107.233 490.76 106.833 490.216C106.433 489.672 105.817 489.4 104.985 489.4C104.169 489.4 103.505 489.704 102.993 490.312C102.497 490.92 102.249 491.768 102.249 492.856L102.249 499L99.1772 499ZM121.654 499L121.654 487.096L124.366 487.096L124.63 488.704C125.014 488.128 125.518 487.672 126.142 487.336C126.782 486.984 127.518 486.808 128.35 486.808C130.19 486.808 131.494 487.52 132.262 488.944C132.694 488.288 133.27 487.768 133.99 487.384C134.726 487 135.526 486.808 136.39 486.808C137.942 486.808 139.134 487.272 139.966 488.2C140.798 489.128 141.214 490.488 141.214 492.28L141.214 499L138.142 499L138.142 492.568C138.142 491.544 137.942 490.76 137.542 490.216C137.158 489.672 136.558 489.4 135.742 489.4C134.91 489.4 134.238 489.704 133.726 490.312C133.23 490.92 132.982 491.768 132.982 492.856L132.982 499L129.91 499L129.91 492.568C129.91 491.544 129.71 490.76 129.31 490.216C128.91 489.672 128.294 489.4 127.462 489.4C126.646 489.4 125.982 489.704 125.47 490.312C124.974 490.92 124.726 491.768 124.726 492.856L124.726 499L121.654 499ZM149.842 499.288C148.69 499.288 147.65 499.024 146.722 498.496C145.81 497.968 145.082 497.24 144.538 496.312C144.01 495.368 143.746 494.28 143.746 493.048C143.746 491.816 144.018 490.736 144.562 489.808C145.106 488.864 145.834 488.128 146.746 487.6C147.674 487.072 148.714 486.808 149.866 486.808C151.002 486.808 152.026 487.072 152.938 487.6C153.866 488.128 154.594 488.864 155.122 489.808C155.666 490.736 155.938 491.816 155.938 493.048C155.938 494.28 155.666 495.368 155.122 496.312C154.594 497.24 153.866 497.968 152.938 498.496C152.01 499.024 150.978 499.288 149.842 499.288ZM149.842 496.624C150.642 496.624 151.338 496.328 151.93 495.736C152.522 495.128 152.818 494.232 152.818 493.048C152.818 491.864 152.522 490.976 151.93 490.384C151.338 489.776 150.65 489.472 149.866 489.472C149.05 489.472 148.346 489.776 147.754 490.384C147.178 490.976 146.89 491.864 146.89 493.048C146.89 494.232 147.178 495.128 147.754 495.736C148.346 496.328 149.042 496.624 149.842 496.624ZM164.157 499.288C163.037 499.288 162.037 499.016 161.157 498.472C160.277 497.928 159.581 497.184 159.069 496.24C158.557 495.296 158.301 494.224 158.301 493.024C158.301 491.824 158.557 490.76 159.069 489.832C159.581 488.888 160.277 488.152 161.157 487.624C162.037 487.08 163.037 486.808 164.157 486.808C165.053 486.808 165.837 486.976 166.509 487.312C167.181 487.648 167.725 488.12 168.141 488.728L168.141 481.72L171.213 481.72L171.213 499L168.477 499L168.141 497.296C167.757 497.824 167.245 498.288 166.605 498.688C165.981 499.088 165.165 499.288 164.157 499.288ZM164.805 496.6C165.797 496.6 166.605 496.272 167.229 495.616C167.869 494.944 168.189 494.088 168.189 493.048C168.189 492.008 167.869 491.16 167.229 490.504C166.605 489.832 165.797 489.496 164.805 489.496C163.829 489.496 163.021 489.824 162.381 490.48C161.741 491.136 161.421 491.984 161.421 493.024C161.421 494.064 161.741 494.92 162.381 495.592C163.021 496.264 163.829 496.6 164.805 496.6ZM175.997 485.248C175.437 485.248 174.973 485.08 174.605 484.744C174.253 484.408 174.077 483.984 174.077 483.472C174.077 482.96 174.253 482.544 174.605 482.224C174.973 481.888 175.437 481.72 175.997 481.72C176.557 481.72 177.013 481.888 177.365 482.224C177.733 482.544 177.917 482.96 177.917 483.472C177.917 483.984 177.733 484.408 177.365 484.744C177.013 485.08 176.557 485.248 175.997 485.248ZM174.461 499L174.461 487.096L177.533 487.096L177.533 499L174.461 499ZM186.044 499C184.796 499 183.796 498.696 183.044 498.088C182.292 497.48 181.916 496.4 181.916 494.848L181.916 489.664L179.876 489.664L179.876 487.096L181.916 487.096L182.276 483.904L184.988 483.904L184.988 487.096L188.204 487.096L188.204 489.664L184.988 489.664L184.988 494.872C184.988 495.448 185.108 495.848 185.348 496.072C185.604 496.28 186.036 496.384 186.644 496.384L188.132 496.384L188.132 499L186.044 499ZM192.497 485.248C191.937 485.248 191.473 485.08 191.105 484.744C190.753 484.408 190.577 483.984 190.577 483.472C190.577 482.96 190.753 482.544 191.105 482.224C191.473 481.888 191.937 481.72 192.497 481.72C193.057 481.72 193.513 481.888 193.865 482.224C194.233 482.544 194.417 482.96 194.417 483.472C194.417 483.984 194.233 484.408 193.865 484.744C193.513 485.08 193.057 485.248 192.497 485.248ZM190.961 499L190.961 487.096L194.033 487.096L194.033 499L190.961 499ZM203.024 499.288C201.824 499.288 200.76 499.032 199.832 498.52C198.904 498.008 198.176 497.288 197.648 496.36C197.12 495.432 196.856 494.36 196.856 493.144C196.856 491.912 197.112 490.816 197.624 489.856C198.152 488.896 198.872 488.152 199.784 487.624C200.712 487.08 201.8 486.808 203.048 486.808C204.216 486.808 205.248 487.064 206.144 487.576C207.04 488.088 207.736 488.792 208.232 489.688C208.744 490.568 209 491.552 209 492.64C209 492.816 208.992 493 208.976 493.192C208.976 493.384 208.968 493.584 208.952 493.792L199.904 493.792C199.968 494.72 200.288 495.448 200.864 495.976C201.456 496.504 202.168 496.768 203 496.768C203.624 496.768 204.144 496.632 204.56 496.36C204.992 496.072 205.312 495.704 205.52 495.256L208.64 495.256C208.416 496.008 208.04 496.696 207.512 497.32C207 497.928 206.36 498.408 205.592 498.76C204.84 499.112 203.984 499.288 203.024 499.288ZM203.048 489.304C202.296 489.304 201.632 489.52 201.056 489.952C200.48 490.368 200.112 491.008 199.952 491.872L205.88 491.872C205.832 491.088 205.544 490.464 205.016 490C204.488 489.536 203.832 489.304 203.048 489.304ZM216.503 499.288C215.447 499.288 214.519 499.12 213.719 498.784C212.919 498.432 212.279 497.952 211.799 497.344C211.319 496.736 211.031 496.032 210.935 495.232L214.031 495.232C214.127 495.696 214.383 496.096 214.799 496.432C215.231 496.752 215.783 496.912 216.455 496.912C217.127 496.912 217.615 496.776 217.919 496.504C218.239 496.232 218.399 495.92 218.399 495.568C218.399 495.056 218.175 494.712 217.727 494.536C217.279 494.344 216.655 494.16 215.855 493.984C215.343 493.872 214.823 493.736 214.295 493.576C213.767 493.416 213.279 493.216 212.831 492.976C212.399 492.72 212.047 492.4 211.775 492.016C211.503 491.616 211.367 491.128 211.367 490.552C211.367 489.496 211.783 488.608 212.615 487.888C213.463 487.168 214.647 486.808 216.167 486.808C217.575 486.808 218.695 487.136 219.527 487.792C220.375 488.448 220.879 489.352 221.039 490.504L218.135 490.504C217.959 489.624 217.295 489.184 216.143 489.184C215.567 489.184 215.119 489.296 214.799 489.52C214.495 489.744 214.343 490.024 214.343 490.36C214.343 490.712 214.575 490.992 215.039 491.2C215.503 491.408 216.119 491.6 216.887 491.776C217.719 491.968 218.479 492.184 219.167 492.424C219.871 492.648 220.431 492.992 220.847 493.456C221.263 493.904 221.471 494.552 221.471 495.4C221.487 496.136 221.295 496.8 220.895 497.392C220.495 497.984 219.919 498.448 219.167 498.784C218.415 499.12 217.527 499.288 216.503 499.288Z" fill="black"/>
<path d="M154.418 437.48C154.418 449.08 149.758 453 143.998 453C138.238 453 133.578 449.08 133.578 437.48C133.578 425.88 138.238 411 143.998 411C149.758 411 154.418 425.88 154.418 437.48Z" fill="#565656"/>
<path d="M139.55 432.869C139.55 433.449 139.2 433.919 138.77 433.919C138.34 433.919 138 433.449 138 432.869C138 432.289 138.35 431.869 138.77 431.869C139.19 431.869 139.55 432.299 139.55 432.869Z" fill="#787878"/>
<path d="M142.999 432.869C142.999 433.449 142.659 433.919 142.229 433.919C141.799 433.919 141.449 433.449 141.449 432.869C141.449 432.289 141.799 431.869 142.229 431.869C142.659 431.869 142.999 432.299 142.999 432.869Z" fill="#787878"/>
<path d="M146.52 432.869C146.52 433.449 146.17 433.919 145.74 433.919C145.31 433.919 145 433.449 145 432.869C145 432.289 145.34 431.869 145.77 431.869C146.2 431.869 146.52 432.299 146.52 432.869Z" fill="#787878"/>
<path d="M149.999 432.869C149.999 433.449 149.649 433.919 149.229 433.919C148.809 433.919 148.449 433.449 148.449 432.869C148.449 432.289 148.799 431.869 149.229 431.869C149.659 431.869 149.999 432.299 149.999 432.869Z" fill="#787878"/>
<path d="M139.55 429.51C139.55 430.09 139.2 430.51 138.77 430.51C138.34 430.51 138 430.05 138 429.51C138 428.97 138.35 428.51 138.77 428.51C139.19 428.51 139.55 428.93 139.55 429.51Z" fill="#787878"/>
<path d="M142.999 429.51C142.999 430.09 142.659 430.51 142.229 430.51C141.799 430.51 141.449 430.05 141.449 429.51C141.449 428.97 141.799 428.51 142.229 428.51C142.659 428.51 142.999 428.93 142.999 429.51Z" fill="#787878"/>
<path d="M146.519 429.51C146.519 430.09 146.169 430.51 145.739 430.51C145.309 430.51 144.969 430.05 144.969 429.51C144.969 428.97 145.309 428.51 145.739 428.51C146.169 428.51 146.519 428.93 146.519 429.51Z" fill="#787878"/>
<path d="M149.999 429.51C149.999 430.09 149.649 430.51 149.229 430.51C148.809 430.51 148.449 430.05 148.449 429.51C148.449 428.97 148.799 428.51 149.229 428.51C149.659 428.51 149.999 428.93 149.999 429.51Z" fill="#787878"/>
<path d="M141.288 426.15C141.288 426.72 140.938 427.15 140.518 427.15C140.098 427.15 139.738 426.68 139.738 426.15C139.738 425.62 140.088 425.15 140.518 425.15C140.948 425.15 141.288 425.57 141.288 426.15Z" fill="#787878"/>
<path d="M144 427.189C144.426 427.189 144.77 426.724 144.77 426.149C144.77 425.575 144.426 425.109 144 425.109C143.575 425.109 143.23 425.575 143.23 426.149C143.23 426.724 143.575 427.189 144 427.189Z" fill="#787878"/>
<path d="M148.261 426.15C148.261 426.72 147.911 427.15 147.481 427.15C147.051 427.15 146.711 426.68 146.711 426.15C146.711 425.62 147.061 425.15 147.481 425.15C147.901 425.15 148.261 425.57 148.261 426.15Z" fill="#787878"/>
<path d="M142.999 422.779C142.999 423.359 142.659 423.779 142.229 423.779C141.799 423.779 141.449 423.309 141.449 422.779C141.449 422.249 141.799 421.779 142.229 421.779C142.659 421.779 142.999 422.209 142.999 422.779Z" fill="#787878"/>
<path d="M146.519 422.779C146.519 423.359 146.169 423.779 145.739 423.779C145.309 423.779 144.969 423.309 144.969 422.779C144.969 422.249 145.309 421.779 145.739 421.779C146.169 421.779 146.519 422.209 146.519 422.779Z" fill="#787878"/>
<path d="M144 420.461C144.426 420.461 144.77 419.995 144.77 419.421C144.77 418.846 144.426 418.381 144 418.381C143.575 418.381 143.23 418.846 143.23 419.421C143.23 419.995 143.575 420.461 144 420.461Z" fill="#787878"/>
<path d="M139.001 443.999C141.238 439.02 144.737 434.711 149.151 431.499C153.751 428.349 157.661 428.279 159.731 428.569C159.899 428.599 160.057 428.671 160.189 428.778C160.321 428.886 160.424 429.025 160.487 429.184C160.55 429.342 160.571 429.514 160.55 429.683C160.528 429.852 160.463 430.012 160.361 430.149L156.651 434.999C155.712 436.246 155.209 437.768 155.221 439.329C155.221 451.759 150.221 455.959 144.051 455.959C142.549 456.021 141.054 455.726 139.688 455.098C138.322 454.471 137.123 453.529 136.191 452.349C136.769 449.458 137.714 446.652 139.001 443.999Z" fill="#787878"/>
<path d="M159.721 428.569C157.661 428.279 153.721 428.349 149.151 431.499C147.237 432.818 145.505 434.385 144.001 436.159C142.511 434.391 140.796 432.825 138.901 431.499C134.301 428.349 130.391 428.279 128.331 428.569C128.163 428.597 128.004 428.668 127.871 428.775C127.737 428.882 127.633 429.022 127.569 429.18C127.505 429.339 127.483 429.511 127.504 429.681C127.525 429.85 127.59 430.012 127.691 430.149L131.341 434.939C132.309 436.206 132.832 437.755 132.831 439.349C132.831 447.569 135.021 452.179 138.281 454.349C139.071 454.852 139.724 455.542 140.181 456.359C140.638 457.176 140.886 458.093 140.901 459.029V459.109H147.101C147.119 458.169 147.369 457.247 147.829 456.427C148.29 455.606 148.947 454.913 149.741 454.409C153.021 452.239 155.221 447.619 155.221 439.409C155.221 437.815 155.744 436.266 156.711 434.999L160.361 430.209C160.478 430.072 160.556 429.905 160.586 429.727C160.615 429.549 160.596 429.366 160.531 429.198C160.465 429.03 160.355 428.883 160.213 428.772C160.07 428.661 159.901 428.591 159.721 428.569Z" fill="#787878"/>
<path d="M149.081 443.999C146.836 439.016 143.327 434.707 138.901 431.499C134.301 428.349 130.391 428.279 128.331 428.569C128.163 428.597 128.004 428.668 127.871 428.775C127.737 428.882 127.633 429.022 127.569 429.18C127.505 429.339 127.483 429.511 127.504 429.681C127.525 429.85 127.59 430.012 127.691 430.149L131.341 434.939C132.309 436.206 132.832 437.755 132.831 439.349C132.831 451.799 137.831 455.999 144.001 455.999H144.091C145.17 455.982 146.228 455.707 147.178 455.197C148.128 454.687 148.943 453.957 149.554 453.069C150.164 452.18 150.554 451.158 150.689 450.088C150.824 449.019 150.702 447.932 150.331 446.919C150.001 445.929 149.551 444.999 149.081 443.999Z" fill="#787878"/>
<path d="M36.9328 299L36.9328 282.2L43.1008 282.2C44.4448 282.2 45.5488 282.432 46.4128 282.896C47.2928 283.344 47.9488 283.96 48.3808 284.744C48.8128 285.512 49.0288 286.368 49.0288 287.312C49.0288 288.336 48.7568 289.272 48.2128 290.12C47.6848 290.968 46.8528 291.584 45.7168 291.968L49.1968 299L45.6688 299L42.5488 292.376L40.0048 292.376L40.0048 299L36.9328 299ZM40.0048 290.12L42.9088 290.12C43.9328 290.12 44.6848 289.872 45.1648 289.376C45.6448 288.88 45.8848 288.224 45.8848 287.408C45.8848 286.608 45.6448 285.968 45.1648 285.488C44.7008 285.008 43.9408 284.768 42.8848 284.768L40.0048 284.768L40.0048 290.12ZM51.8859 299L51.8859 282.2L62.8539 282.2L62.8539 284.672L54.9579 284.672L54.9579 289.28L62.1339 289.28L62.1339 291.68L54.9579 291.68L54.9579 296.528L62.8539 296.528L62.8539 299L51.8859 299ZM65.7609 299L65.7609 282.2L68.8329 282.2L68.8329 299L65.7609 299ZM76.001 299L76.001 284.672L71.105 284.672L71.105 282.2L83.993 282.2L83.993 284.672L79.073 284.672L79.073 299L76.001 299ZM89.5698 299.288C88.5138 299.288 87.5858 299.12 86.7858 298.784C85.9858 298.432 85.3458 297.952 84.8658 297.344C84.3858 296.736 84.0978 296.032 84.0018 295.232L87.0978 295.232C87.1938 295.696 87.4498 296.096 87.8658 296.432C88.2978 296.752 88.8498 296.912 89.5218 296.912C90.1938 296.912 90.6818 296.776 90.9858 296.504C91.3058 296.232 91.4658 295.92 91.4658 295.568C91.4658 295.056 91.2418 294.712 90.7938 294.536C90.3458 294.344 89.7218 294.16 88.9218 293.984C88.4098 293.872 87.8898 293.736 87.3618 293.576C86.8338 293.416 86.3458 293.216 85.8978 292.976C85.4658 292.72 85.1138 292.4 84.8418 292.016C84.5698 291.616 84.4338 291.128 84.4338 290.552C84.4338 289.496 84.8498 288.608 85.6818 287.888C86.5298 287.168 87.7138 286.808 89.2338 286.808C90.6418 286.808 91.7618 287.136 92.5938 287.792C93.4418 288.448 93.9458 289.352 94.1058 290.504L91.2018 290.504C91.0258 289.624 90.3618 289.184 89.2098 289.184C88.6338 289.184 88.1858 289.296 87.8658 289.52C87.5618 289.744 87.4098 290.024 87.4098 290.36C87.4098 290.712 87.6418 290.992 88.1058 291.2C88.5698 291.408 89.1858 291.6 89.9538 291.776C90.7858 291.968 91.5458 292.184 92.2338 292.424C92.9378 292.648 93.4978 292.992 93.9138 293.456C94.3298 293.904 94.5378 294.552 94.5378 295.4C94.5538 296.136 94.3618 296.8 93.9618 297.392C93.5618 297.984 92.9858 298.448 92.2338 298.784C91.4818 299.12 90.5938 299.288 89.5698 299.288Z" fill="black"/>
<path d="M81.35 235.689H87.68C87.8391 235.689 87.9917 235.753 88.1043 235.865C88.2168 235.978 88.28 236.13 88.28 236.289V249.939H80.75V236.289C80.75 236.13 80.8132 235.978 80.9257 235.865C81.0383 235.753 81.1909 235.689 81.35 235.689Z" fill="#565656"/>
<path d="M42.42 225.061H44.58C44.6352 225.061 44.6898 225.071 44.7407 225.093C44.7917 225.114 44.838 225.145 44.877 225.184C44.916 225.223 44.9469 225.269 44.968 225.32C44.9891 225.371 45 225.425 45 225.481V232.691H42V225.481C42 225.425 42.0109 225.371 42.032 225.32C42.0531 225.269 42.084 225.223 42.123 225.184C42.162 225.145 42.2083 225.114 42.2593 225.093C42.3102 225.071 42.3648 225.061 42.42 225.061Z" fill="#565656"/>
<path d="M42 229.289H46.78C47.0452 229.289 47.2996 229.394 47.4871 229.582C47.6746 229.769 47.78 230.024 47.78 230.289V256.629H42V229.289Z" fill="#565656"/>
<path d="M52.97 231.65H42V258.98H52.97V231.65Z" fill="#565656"/>
<path d="M65.5092 213.279L56.4392 218.519C56.2928 218.606 56.171 218.729 56.0852 218.876C55.9995 219.023 55.9527 219.189 55.9492 219.359V242.779C55.9492 243.045 56.0546 243.299 56.2421 243.487C56.4296 243.674 56.684 243.779 56.9492 243.779H75.0792C75.3444 243.779 75.5988 243.674 75.7863 243.487C75.9739 243.299 76.0792 243.045 76.0792 242.779V219.359C76.0758 219.189 76.0289 219.023 75.9432 218.876C75.8575 218.729 75.7356 218.606 75.5892 218.519L66.5192 213.279C66.366 213.19 66.1917 213.143 66.0142 213.143C65.8367 213.143 65.6624 213.19 65.5092 213.279Z" fill="#565656"/>
<path d="M65.5088 219.411L53.4488 226.411C53.3042 226.499 53.1844 226.622 53.1004 226.769C53.0165 226.916 52.9712 227.081 52.9688 227.251V259.001H78.9988V227.211C78.9963 227.041 78.951 226.876 78.8671 226.729C78.7831 226.582 78.6633 226.459 78.5188 226.371L66.4587 219.371C66.3095 219.298 66.1445 219.263 65.9787 219.27C65.8128 219.277 65.6513 219.326 65.5088 219.411Z" fill="#787878"/>
<path d="M64.92 211H67.08C67.1914 211 67.2982 211.044 67.377 211.123C67.4557 211.202 67.5 211.309 67.5 211.42V218.63H64.5V211.42C64.5 211.309 64.5442 211.202 64.623 211.123C64.7018 211.044 64.8086 211 64.92 211Z" fill="#565656"/>
<path d="M83.43 232.69H85.6C85.7114 232.69 85.8182 232.734 85.897 232.813C85.9757 232.891 86.02 232.998 86.02 233.11V240.32H83V233.11C83 233.054 83.0112 232.998 83.0329 232.947C83.0546 232.895 83.0865 232.848 83.1265 232.809C83.1666 232.77 83.2141 232.739 83.2662 232.719C83.3183 232.698 83.374 232.688 83.43 232.69Z" fill="#565656"/>
<path d="M57.6183 228.881H58.7183C58.8217 228.881 58.9209 228.922 58.9941 228.995C59.0672 229.068 59.1083 229.167 59.1083 229.271V231.621C59.1083 231.724 59.0672 231.823 58.9941 231.897C58.9209 231.97 58.8217 232.011 58.7183 232.011H57.6183C57.5175 232.011 57.4208 231.971 57.3496 231.9C57.2783 231.828 57.2383 231.732 57.2383 231.631V229.261C57.2383 229.16 57.2783 229.063 57.3496 228.992C57.4208 228.921 57.5175 228.881 57.6183 228.881Z" fill="#565656"/>
<path d="M61.5406 228.879H62.6406C62.7414 228.879 62.8381 228.919 62.9093 228.99C62.9806 229.062 63.0206 229.158 63.0206 229.259V231.609C63.0206 231.66 63.0105 231.711 62.9909 231.758C62.9713 231.806 62.9426 231.849 62.9064 231.885C62.8702 231.921 62.8272 231.95 62.7799 231.969C62.7326 231.989 62.6818 231.999 62.6306 231.999H61.5306C61.4272 231.999 61.328 231.958 61.2549 231.885C61.1817 231.812 61.1406 231.712 61.1406 231.609V229.259C61.1419 229.208 61.1533 229.157 61.1741 229.111C61.1949 229.064 61.2247 229.021 61.2619 228.986C61.299 228.951 61.3428 228.923 61.3906 228.905C61.4384 228.886 61.4894 228.878 61.5406 228.879Z" fill="#565656"/>
<path d="M66.5503 228.881H65.4603C65.2449 228.881 65.0703 229.055 65.0703 229.271V231.621C65.0703 231.836 65.2449 232.011 65.4603 232.011H66.5503C66.7657 232.011 66.9403 231.836 66.9403 231.621V229.271C66.9403 229.055 66.7657 228.881 66.5503 228.881Z" fill="#565656"/>
<path d="M69.3683 228.881H70.4683C70.5717 228.881 70.6709 228.922 70.7441 228.995C70.8172 229.068 70.8583 229.167 70.8583 229.271V231.621C70.8583 231.724 70.8172 231.823 70.7441 231.897C70.6709 231.97 70.5717 232.011 70.4683 232.011H69.3683C69.3184 232.011 69.269 232.001 69.2229 231.982C69.1768 231.963 69.1349 231.935 69.0996 231.9C69.0643 231.864 69.0363 231.822 69.0172 231.776C68.9981 231.73 68.9883 231.681 68.9883 231.631V229.261C68.9908 229.161 69.0317 229.066 69.1024 228.995C69.1731 228.924 69.2683 228.883 69.3683 228.881Z" fill="#565656"/>
<path d="M74.3784 228.881H73.2884C73.073 228.881 72.8984 229.055 72.8984 229.271V231.621C72.8984 231.836 73.073 232.011 73.2884 232.011H74.3784C74.5938 232.011 74.7684 231.836 74.7684 231.621V229.271C74.7684 229.055 74.5938 228.881 74.3784 228.881Z" fill="#787878"/>
<path d="M57.6184 234.35H58.7184C58.8218 234.35 58.921 234.391 58.9942 234.464C59.0673 234.537 59.1084 234.636 59.1084 234.74V237.09C59.1084 237.193 59.0673 237.292 58.9942 237.365C58.921 237.439 58.8218 237.48 58.7184 237.48H57.6184C57.5685 237.48 57.5191 237.47 57.473 237.451C57.4269 237.432 57.385 237.404 57.3497 237.368C57.3144 237.333 57.2864 237.291 57.2673 237.245C57.2482 237.199 57.2384 237.15 57.2384 237.1V234.74C57.2371 234.689 57.2459 234.638 57.2644 234.591C57.2829 234.544 57.3107 234.501 57.3461 234.464C57.3815 234.428 57.4239 234.399 57.4706 234.379C57.5174 234.36 57.5677 234.35 57.6184 234.35Z" fill="#787878"/>
<path d="M61.5402 234.35H62.6402C62.7436 234.35 62.8428 234.391 62.9159 234.464C62.9891 234.537 63.0302 234.636 63.0302 234.74V237.09C63.0302 237.19 62.9901 237.287 62.9189 237.358C62.8476 237.43 62.7509 237.47 62.6502 237.47H61.5502C61.4467 237.47 61.3475 237.429 61.2744 237.355C61.2012 237.282 61.1602 237.183 61.1602 237.08V234.74C61.1601 234.638 61.1998 234.54 61.2708 234.467C61.3418 234.394 61.4385 234.352 61.5402 234.35Z" fill="#565656"/>
<path d="M66.5503 234.35H65.4603C65.2449 234.35 65.0703 234.524 65.0703 234.74V237.09C65.0703 237.305 65.2449 237.48 65.4603 237.48H66.5503C66.7657 237.48 66.9403 237.305 66.9403 237.09V234.74C66.9403 234.524 66.7657 234.35 66.5503 234.35Z" fill="#565656"/>
<path d="M69.3683 234.35H70.4683C70.5717 234.35 70.6709 234.391 70.7441 234.464C70.8172 234.537 70.8583 234.636 70.8583 234.74V237.09C70.8583 237.193 70.8172 237.292 70.7441 237.365C70.6709 237.439 70.5717 237.48 70.4683 237.48H69.3683C69.3184 237.48 69.269 237.47 69.2229 237.451C69.1768 237.432 69.1349 237.404 69.0996 237.368C69.0643 237.333 69.0363 237.291 69.0172 237.245C68.9981 237.199 68.9883 237.15 68.9883 237.1V234.74C68.9882 234.638 69.028 234.54 69.0989 234.467C69.1699 234.394 69.2666 234.352 69.3683 234.35Z" fill="#565656"/>
<path d="M73.2806 234.35H74.3806C74.4814 234.35 74.5781 234.39 74.6493 234.461C74.7206 234.532 74.7606 234.629 74.7606 234.73V237.09C74.7606 237.19 74.7206 237.287 74.6493 237.358C74.5781 237.43 74.4814 237.47 74.3806 237.47H73.2806C73.1772 237.47 73.078 237.429 73.0049 237.355C72.9317 237.282 72.8906 237.183 72.8906 237.08V234.74C72.8906 234.636 72.9317 234.537 73.0049 234.464C73.078 234.391 73.1772 234.35 73.2806 234.35Z" fill="#565656"/>
<path d="M57.6184 239.83H58.7184C58.8218 239.83 58.921 239.871 58.9942 239.944C59.0673 240.017 59.1084 240.117 59.1084 240.22V242.57C59.1084 242.674 59.0673 242.773 58.9942 242.846C58.921 242.919 58.8218 242.96 58.7184 242.96H57.6184C57.5176 242.96 57.421 242.92 57.3497 242.849C57.2784 242.778 57.2384 242.681 57.2384 242.58V240.22C57.2371 240.169 57.2459 240.119 57.2644 240.072C57.2829 240.024 57.3107 239.981 57.3461 239.945C57.3815 239.909 57.4239 239.88 57.4706 239.86C57.5174 239.84 57.5677 239.83 57.6184 239.83Z" fill="#565656"/>
<path d="M61.5406 239.83H62.6406C62.7414 239.83 62.8381 239.87 62.9093 239.942C62.9806 240.013 63.0206 240.109 63.0206 240.21V242.56C63.0206 242.611 63.0105 242.662 62.9909 242.709C62.9713 242.757 62.9426 242.8 62.9064 242.836C62.8702 242.872 62.8272 242.901 62.7799 242.921C62.7326 242.94 62.6818 242.95 62.6306 242.95H61.5306C61.4272 242.95 61.328 242.909 61.2549 242.836C61.1817 242.763 61.1406 242.664 61.1406 242.56V240.22C61.1406 240.168 61.151 240.117 61.1712 240.069C61.1915 240.021 61.2211 239.977 61.2584 239.941C61.2956 239.904 61.3398 239.876 61.3883 239.857C61.4368 239.838 61.4886 239.829 61.5406 239.83Z" fill="#565656"/>
<path d="M66.5503 239.83H65.4603C65.2449 239.83 65.0703 240.005 65.0703 240.22V242.57C65.0703 242.785 65.2449 242.96 65.4603 242.96H66.5503C66.7657 242.96 66.9403 242.785 66.9403 242.57V240.22C66.9403 240.005 66.7657 239.83 66.5503 239.83Z" fill="#565656"/>
<path d="M69.3684 239.83H70.4684C70.5718 239.83 70.671 239.871 70.7442 239.944C70.8173 240.017 70.8584 240.117 70.8584 240.22V242.57C70.8584 242.674 70.8173 242.773 70.7442 242.846C70.671 242.919 70.5718 242.96 70.4684 242.96H69.3684C69.3185 242.96 69.2691 242.95 69.223 242.931C69.1769 242.912 69.135 242.884 69.0997 242.849C69.0644 242.813 69.0364 242.772 69.0173 242.725C68.9982 242.679 68.9884 242.63 68.9884 242.58V240.22C68.9871 240.169 68.9959 240.119 69.0144 240.072C69.0329 240.024 69.0607 239.981 69.0961 239.945C69.1315 239.909 69.1739 239.88 69.2206 239.86C69.2674 239.84 69.3177 239.83 69.3684 239.83Z" fill="#787878"/>
<path d="M73.2789 239.83H74.3789C74.4797 239.83 74.5763 239.87 74.6476 239.942C74.7189 240.013 74.7589 240.109 74.7589 240.21V242.56C74.7589 242.664 74.7178 242.763 74.6447 242.836C74.5715 242.909 74.4723 242.95 74.3689 242.95H73.2689C73.1655 242.95 73.0663 242.909 72.9931 242.836C72.92 242.763 72.8789 242.664 72.8789 242.56V240.22C72.8789 240.168 72.8893 240.117 72.9095 240.069C72.9297 240.021 72.9594 239.977 72.9966 239.941C73.0339 239.904 73.0781 239.876 73.1266 239.857C73.1751 239.838 73.2269 239.829 73.2789 239.83Z" fill="#565656"/>
<path d="M57.6184 245.311H58.7184C58.8218 245.311 58.921 245.352 58.9942 245.425C59.0673 245.498 59.1084 245.597 59.1084 245.701V248.051C59.1084 248.154 59.0673 248.253 58.9942 248.326C58.921 248.399 58.8218 248.441 58.7184 248.441H57.6184C57.5176 248.441 57.421 248.401 57.3497 248.329C57.2784 248.258 57.2384 248.161 57.2384 248.061V245.701C57.2371 245.65 57.2459 245.599 57.2644 245.552C57.2829 245.505 57.3107 245.462 57.3461 245.425C57.3815 245.389 57.4239 245.36 57.4706 245.34C57.5174 245.321 57.5677 245.311 57.6184 245.311Z" fill="#565656"/>
<path d="M61.5406 245.311H62.6406C62.7414 245.311 62.8381 245.351 62.9093 245.422C62.9806 245.493 63.0206 245.59 63.0206 245.691V248.041C63.0206 248.092 63.0105 248.143 62.9909 248.19C62.9713 248.237 62.9426 248.28 62.9064 248.316C62.8702 248.353 62.8272 248.381 62.7799 248.401C62.7326 248.421 62.6818 248.431 62.6306 248.431H61.5306C61.4272 248.431 61.328 248.39 61.2549 248.316C61.1817 248.243 61.1406 248.144 61.1406 248.041V245.701C61.1406 245.649 61.151 245.597 61.1712 245.549C61.1915 245.501 61.2211 245.458 61.2584 245.421C61.2956 245.385 61.3398 245.356 61.3883 245.337C61.4368 245.318 61.4886 245.309 61.5406 245.311Z" fill="#787878"/>
<path d="M66.5503 245.311H65.4603C65.2449 245.311 65.0703 245.485 65.0703 245.701V248.051C65.0703 248.266 65.2449 248.441 65.4603 248.441H66.5503C66.7657 248.441 66.9403 248.266 66.9403 248.051V245.701C66.9403 245.485 66.7657 245.311 66.5503 245.311Z" fill="#565656"/>
<path d="M69.3683 245.311H70.4683C70.5717 245.311 70.6709 245.352 70.7441 245.425C70.8172 245.498 70.8583 245.597 70.8583 245.701V248.051C70.8583 248.154 70.8172 248.253 70.7441 248.326C70.6709 248.399 70.5717 248.441 70.4683 248.441H69.3683C69.3184 248.441 69.269 248.431 69.2229 248.412C69.1768 248.393 69.1349 248.365 69.0996 248.329C69.0643 248.294 69.0363 248.252 69.0172 248.206C68.9981 248.16 68.9883 248.11 68.9883 248.061V245.701C68.9882 245.599 69.028 245.501 69.0989 245.428C69.1699 245.355 69.2666 245.313 69.3683 245.311Z" fill="#565656"/>
<path d="M74.3784 245.311H73.2884C73.073 245.311 72.8984 245.485 72.8984 245.701V248.051C72.8984 248.266 73.073 248.441 73.2884 248.441H74.3784C74.5938 248.441 74.7684 248.266 74.7684 248.051V245.701C74.7684 245.485 74.5938 245.311 74.3784 245.311Z" fill="#565656"/>
<path d="M57.6184 250.789H58.7184C58.7696 250.789 58.8203 250.799 58.8677 250.819C58.915 250.838 58.958 250.867 58.9942 250.903C59.0304 250.94 59.0591 250.982 59.0787 251.03C59.0983 251.077 59.1084 251.128 59.1084 251.179V253.529C59.1084 253.632 59.0673 253.732 58.9942 253.805C58.921 253.878 58.8218 253.919 58.7184 253.919H57.6184C57.5176 253.919 57.421 253.879 57.3497 253.808C57.2784 253.736 57.2384 253.64 57.2384 253.539V251.179C57.2371 251.128 57.2459 251.078 57.2644 251.031C57.2829 250.983 57.3107 250.94 57.3461 250.904C57.3815 250.868 57.4239 250.839 57.4706 250.819C57.5174 250.799 57.5677 250.789 57.6184 250.789Z" fill="#565656"/>
<path d="M61.5402 250.789H62.6402C62.6914 250.789 62.7421 250.799 62.7894 250.819C62.8367 250.838 62.8797 250.867 62.9159 250.903C62.9521 250.94 62.9809 250.982 63.0005 251.03C63.0201 251.077 63.0302 251.128 63.0302 251.179V253.529C63.0302 253.63 62.9901 253.727 62.9189 253.798C62.8476 253.869 62.7509 253.909 62.6502 253.909H61.5502C61.4467 253.909 61.3475 253.868 61.2744 253.795C61.2012 253.722 61.1602 253.622 61.1602 253.519V251.179C61.1601 251.077 61.1998 250.98 61.2708 250.907C61.3418 250.834 61.4385 250.792 61.5402 250.789Z" fill="#565656"/>
<path d="M66.5503 250.789H65.4603C65.2449 250.789 65.0703 250.964 65.0703 251.179V253.529C65.0703 253.744 65.2449 253.919 65.4603 253.919H66.5503C66.7657 253.919 66.9403 253.744 66.9403 253.529V251.179C66.9403 250.964 66.7657 250.789 66.5503 250.789Z" fill="#565656"/>
<path d="M69.3683 250.789H70.4683C70.5195 250.789 70.5702 250.799 70.6175 250.819C70.6648 250.838 70.7078 250.867 70.7441 250.903C70.7803 250.94 70.809 250.982 70.8286 251.03C70.8482 251.077 70.8583 251.128 70.8583 251.179V253.529C70.8583 253.632 70.8172 253.732 70.7441 253.805C70.6709 253.878 70.5717 253.919 70.4683 253.919H69.3683C69.3184 253.919 69.269 253.909 69.2229 253.89C69.1768 253.871 69.1349 253.843 69.0996 253.808C69.0643 253.772 69.0363 253.731 69.0172 253.684C68.9981 253.638 68.9883 253.589 68.9883 253.539V251.179C68.9882 251.077 69.028 250.98 69.0989 250.907C69.1699 250.834 69.2666 250.792 69.3683 250.789Z" fill="#787878"/>
<path d="M73.2806 250.789H74.3806C74.4814 250.789 74.5781 250.829 74.6493 250.9C74.7206 250.972 74.7606 251.068 74.7606 251.169V253.529C74.7606 253.63 74.7206 253.727 74.6493 253.798C74.5781 253.869 74.4814 253.909 74.3806 253.909H73.2806C73.1772 253.909 73.078 253.868 73.0049 253.795C72.9317 253.722 72.8906 253.622 72.8906 253.519V251.179C72.8906 251.128 72.9007 251.077 72.9203 251.03C72.9399 250.982 72.9686 250.94 73.0049 250.903C73.0411 250.867 73.0841 250.838 73.1314 250.819C73.1787 250.799 73.2294 250.789 73.2806 250.789Z" fill="#565656"/>
<path d="M59.0984 259V256.66C59.0997 256.609 59.0909 256.558 59.0724 256.511C59.0539 256.464 59.0261 256.421 58.9907 256.384C58.9553 256.348 58.9129 256.319 58.8662 256.299C58.8194 256.28 58.7692 256.27 58.7184 256.27H57.6184C57.5677 256.27 57.5174 256.28 57.4706 256.299C57.4239 256.319 57.3815 256.348 57.3461 256.384C57.3107 256.421 57.2829 256.464 57.2644 256.511C57.2459 256.558 57.2371 256.609 57.2384 256.66V259H59.0984Z" fill="#565656"/>
<path d="M62.9986 259V256.66C62.9999 256.608 62.9908 256.557 62.9717 256.509C62.9526 256.461 62.9239 256.417 62.8874 256.381C62.8509 256.344 62.8074 256.316 62.7594 256.297C62.7115 256.277 62.6602 256.268 62.6086 256.27H61.5386C61.487 256.268 61.4357 256.277 61.3877 256.297C61.3398 256.316 61.2962 256.344 61.2597 256.381C61.2232 256.417 61.1946 256.461 61.1755 256.509C61.1563 256.557 61.1472 256.608 61.1486 256.66V259H62.9986Z" fill="#565656"/>
<path d="M66.9304 259V256.66C66.9318 256.609 66.9229 256.558 66.9044 256.511C66.8859 256.464 66.8582 256.421 66.8227 256.384C66.7873 256.348 66.745 256.319 66.6982 256.299C66.6514 256.28 66.6012 256.27 66.5504 256.27H65.4504C65.3997 256.27 65.3494 256.28 65.3027 256.299C65.2559 256.319 65.2136 256.348 65.1781 256.384C65.1427 256.421 65.1149 256.464 65.0964 256.511C65.078 256.558 65.0691 256.609 65.0704 256.66V259H66.9304Z" fill="#787878"/>
<path d="M70.8506 259V256.66C70.852 256.608 70.8428 256.557 70.8237 256.509C70.8046 256.461 70.7759 256.417 70.7394 256.381C70.7029 256.344 70.6594 256.316 70.6115 256.297C70.5635 256.277 70.5122 256.268 70.4606 256.27H69.3706C69.319 256.268 69.2677 256.277 69.2197 256.297C69.1718 256.316 69.1283 256.344 69.0918 256.381C69.0553 256.417 69.0266 256.461 69.0075 256.509C68.9884 256.557 68.9792 256.608 68.9806 256.66V259H70.8506Z" fill="#565656"/>
<path d="M74.7586 259V256.66C74.7599 256.609 74.7511 256.558 74.7326 256.511C74.7141 256.464 74.6863 256.421 74.6509 256.384C74.6154 256.348 74.5731 256.319 74.5263 256.299C74.4796 256.28 74.4293 256.27 74.3786 256.27H73.2786C73.2278 256.27 73.1776 256.28 73.1308 256.299C73.084 256.319 73.0417 256.348 73.0063 256.384C72.9708 256.421 72.9431 256.464 72.9246 256.511C72.9061 256.558 72.8972 256.609 72.8986 256.66V259H74.7586Z" fill="#565656"/>
<path d="M50.5381 235H44.4281C44.2348 235 44.0781 235.157 44.0781 235.35V235.96C44.0781 236.153 44.2348 236.31 44.4281 236.31H50.5381C50.7314 236.31 50.8881 236.153 50.8881 235.96V235.35C50.8881 235.157 50.7314 235 50.5381 235Z" fill="#565656"/>
<path d="M50.5381 238.25H44.4281C44.2348 238.25 44.0781 238.407 44.0781 238.6V239.21C44.0781 239.403 44.2348 239.56 44.4281 239.56H50.5381C50.7314 239.56 50.8881 239.403 50.8881 239.21V238.6C50.8881 238.407 50.7314 238.25 50.5381 238.25Z" fill="#565656"/>
<path d="M50.5381 241.5H44.4281C44.2348 241.5 44.0781 241.657 44.0781 241.85V242.46C44.0781 242.653 44.2348 242.81 44.4281 242.81H50.5381C50.7314 242.81 50.8881 242.653 50.8881 242.46V241.85C50.8881 241.657 50.7314 241.5 50.5381 241.5Z" fill="#565656"/>
<path d="M50.5381 244.75H44.4281C44.2348 244.75 44.0781 244.907 44.0781 245.1V245.71C44.0781 245.903 44.2348 246.06 44.4281 246.06H50.5381C50.7314 246.06 50.8881 245.903 50.8881 245.71V245.1C50.8881 244.907 50.7314 244.75 50.5381 244.75Z" fill="#565656"/>
<path d="M50.5381 248H44.4281C44.2348 248 44.0781 248.157 44.0781 248.35V248.96C44.0781 249.153 44.2348 249.31 44.4281 249.31H50.5381C50.7314 249.31 50.8881 249.153 50.8881 248.96V248.35C50.8881 248.157 50.7314 248 50.5381 248Z" fill="#565656"/>
<path d="M50.5381 251.25H44.4281C44.2348 251.25 44.0781 251.407 44.0781 251.6V252.21C44.0781 252.403 44.2348 252.56 44.4281 252.56H50.5381C50.7314 252.56 50.8881 252.403 50.8881 252.21V251.6C50.8881 251.407 50.7314 251.25 50.5381 251.25Z" fill="#565656"/>
<path d="M50.5381 254.5H44.4281C44.2348 254.5 44.0781 254.657 44.0781 254.85V255.46C44.0781 255.653 44.2348 255.81 44.4281 255.81H50.5381C50.7314 255.81 50.8881 255.653 50.8881 255.46V254.85C50.8881 254.657 50.7314 254.5 50.5381 254.5Z" fill="#565656"/>
<path d="M90.0013 238.25H79.0312V259H90.0013V238.25Z" fill="#565656"/>
<path d="M82.16 240.75H81.11C80.9112 240.75 80.75 240.911 80.75 241.11V242.16C80.75 242.359 80.9112 242.52 81.11 242.52H82.16C82.3588 242.52 82.52 242.359 82.52 242.16V241.11C82.52 240.911 82.3588 240.75 82.16 240.75Z" fill="#565656"/>
<path d="M85.0389 240.75H83.9889C83.7901 240.75 83.6289 240.911 83.6289 241.11V242.16C83.6289 242.359 83.7901 242.52 83.9889 242.52H85.0389C85.2377 242.52 85.3989 242.359 85.3989 242.16V241.11C85.3989 240.911 85.2377 240.75 85.0389 240.75Z" fill="#565656"/>
<path d="M87.9217 240.75H86.8717C86.6729 240.75 86.5117 240.911 86.5117 241.11V242.16C86.5117 242.359 86.6729 242.52 86.8717 242.52H87.9217C88.1205 242.52 88.2817 242.359 88.2817 242.16V241.11C88.2817 240.911 88.1205 240.75 87.9217 240.75Z" fill="#565656"/>
<path d="M82.16 243.75H81.11C80.9112 243.75 80.75 243.911 80.75 244.11V245.16C80.75 245.359 80.9112 245.52 81.11 245.52H82.16C82.3588 245.52 82.52 245.359 82.52 245.16V244.11C82.52 243.911 82.3588 243.75 82.16 243.75Z" fill="#565656"/>
<path d="M85.0389 243.75H83.9889C83.7901 243.75 83.6289 243.911 83.6289 244.11V245.16C83.6289 245.359 83.7901 245.52 83.9889 245.52H85.0389C85.2377 245.52 85.3989 245.359 85.3989 245.16V244.11C85.3989 243.911 85.2377 243.75 85.0389 243.75Z" fill="#565656"/>
<path d="M87.9217 243.75H86.8717C86.6729 243.75 86.5117 243.911 86.5117 244.11V245.16C86.5117 245.359 86.6729 245.52 86.8717 245.52H87.9217C88.1205 245.52 88.2817 245.359 88.2817 245.16V244.11C88.2817 243.911 88.1205 243.75 87.9217 243.75Z" fill="#565656"/>
<path d="M82.16 246.75H81.11C80.9112 246.75 80.75 246.911 80.75 247.11V248.16C80.75 248.359 80.9112 248.52 81.11 248.52H82.16C82.3588 248.52 82.52 248.359 82.52 248.16V247.11C82.52 246.911 82.3588 246.75 82.16 246.75Z" fill="#565656"/>
<path d="M85.0389 246.75H83.9889C83.7901 246.75 83.6289 246.911 83.6289 247.11V248.16C83.6289 248.359 83.7901 248.52 83.9889 248.52H85.0389C85.2377 248.52 85.3989 248.359 85.3989 248.16V247.11C85.3989 246.911 85.2377 246.75 85.0389 246.75Z" fill="#565656"/>
<path d="M87.9217 246.75H86.8717C86.6729 246.75 86.5117 246.911 86.5117 247.11V248.16C86.5117 248.359 86.6729 248.52 86.8717 248.52H87.9217C88.1205 248.52 88.2817 248.359 88.2817 248.16V247.11C88.2817 246.911 88.1205 246.75 87.9217 246.75Z" fill="#565656"/>
<path d="M82.16 249.75H81.11C80.9112 249.75 80.75 249.911 80.75 250.11V251.16C80.75 251.359 80.9112 251.52 81.11 251.52H82.16C82.3588 251.52 82.52 251.359 82.52 251.16V250.11C82.52 249.911 82.3588 249.75 82.16 249.75Z" fill="#565656"/>
<path d="M85.0389 249.75H83.9889C83.7901 249.75 83.6289 249.911 83.6289 250.11V251.16C83.6289 251.359 83.7901 251.52 83.9889 251.52H85.0389C85.2377 251.52 85.3989 251.359 85.3989 251.16V250.11C85.3989 249.911 85.2377 249.75 85.0389 249.75Z" fill="#565656"/>
<path d="M87.9217 249.75H86.8717C86.6729 249.75 86.5117 249.911 86.5117 250.11V251.16C86.5117 251.359 86.6729 251.52 86.8717 251.52H87.9217C88.1205 251.52 88.2817 251.359 88.2817 251.16V250.11C88.2817 249.911 88.1205 249.75 87.9217 249.75Z" fill="#565656"/>
<path d="M82.16 252.75H81.11C80.9112 252.75 80.75 252.911 80.75 253.11V254.16C80.75 254.359 80.9112 254.52 81.11 254.52H82.16C82.3588 254.52 82.52 254.359 82.52 254.16V253.11C82.52 252.911 82.3588 252.75 82.16 252.75Z" fill="#565656"/>
<path d="M85.0389 252.75H83.9889C83.7901 252.75 83.6289 252.911 83.6289 253.11V254.16C83.6289 254.359 83.7901 254.52 83.9889 254.52H85.0389C85.2377 254.52 85.3989 254.359 85.3989 254.16V253.11C85.3989 252.911 85.2377 252.75 85.0389 252.75Z" fill="#565656"/>
<path d="M87.9217 252.75H86.8717C86.6729 252.75 86.5117 252.911 86.5117 253.11V254.16C86.5117 254.359 86.6729 254.52 86.8717 254.52H87.9217C88.1205 254.52 88.2817 254.359 88.2817 254.16V253.11C88.2817 252.911 88.1205 252.75 87.9217 252.75Z" fill="#565656"/>
<path d="M82.16 255.75H81.11C80.9112 255.75 80.75 255.911 80.75 256.11V257.16C80.75 257.359 80.9112 257.52 81.11 257.52H82.16C82.3588 257.52 82.52 257.359 82.52 257.16V256.11C82.52 255.911 82.3588 255.75 82.16 255.75Z" fill="#565656"/>
<path d="M85.0389 255.75H83.9889C83.7901 255.75 83.6289 255.911 83.6289 256.11V257.16C83.6289 257.359 83.7901 257.52 83.9889 257.52H85.0389C85.2377 257.52 85.3989 257.359 85.3989 257.16V256.11C85.3989 255.911 85.2377 255.75 85.0389 255.75Z" fill="#565656"/>
<path d="M87.9217 255.75H86.8717C86.6729 255.75 86.5117 255.911 86.5117 256.11V257.16C86.5117 257.359 86.6729 257.52 86.8717 257.52H87.9217C88.1205 257.52 88.2817 257.359 88.2817 257.16V256.11C88.2817 255.911 88.1205 255.75 87.9217 255.75Z" fill="#565656"/>
<path d="M177.64 299L177.64 282.2L188.608 282.2L188.608 284.672L180.712 284.672L180.712 289.28L187.888 289.28L187.888 291.68L180.712 291.68L180.712 296.528L188.608 296.528L188.608 299L177.64 299ZM200.899 304.28L200.899 297.296C200.515 297.824 200.003 298.288 199.363 298.688C198.739 299.088 197.923 299.288 196.915 299.288C195.795 299.288 194.795 299.016 193.915 298.472C193.035 297.928 192.339 297.184 191.827 296.24C191.315 295.296 191.059 294.224 191.059 293.024C191.059 291.824 191.315 290.76 191.827 289.832C192.339 288.888 193.035 288.152 193.915 287.624C194.795 287.08 195.795 286.808 196.915 286.808C197.811 286.808 198.595 286.976 199.267 287.312C199.939 287.648 200.483 288.12 200.899 288.728L201.235 287.096L203.971 287.096L203.971 304.28L200.899 304.28ZM197.563 296.6C198.555 296.6 199.363 296.272 199.987 295.616C200.627 294.944 200.947 294.088 200.947 293.048C200.947 292.008 200.627 291.16 199.987 290.504C199.363 289.832 198.555 289.496 197.563 289.496C196.587 289.496 195.779 289.824 195.139 290.48C194.499 291.136 194.179 291.984 194.179 293.024C194.179 294.064 194.499 294.92 195.139 295.592C195.779 296.264 196.587 296.6 197.563 296.6ZM211.563 299.288C210.075 299.288 208.923 298.824 208.107 297.896C207.307 296.968 206.907 295.608 206.907 293.816L206.907 287.096L209.955 287.096L209.955 293.528C209.955 294.552 210.163 295.336 210.579 295.88C210.995 296.424 211.651 296.696 212.547 296.696C213.395 296.696 214.091 296.392 214.635 295.784C215.195 295.176 215.475 294.328 215.475 293.24L215.475 287.096L218.547 287.096L218.547 299L215.835 299L215.595 296.984C215.227 297.688 214.691 298.248 213.987 298.664C213.299 299.08 212.491 299.288 211.563 299.288ZM223.357 285.248C222.797 285.248 222.333 285.08 221.965 284.744C221.613 284.408 221.437 283.984 221.437 283.472C221.437 282.96 221.613 282.544 221.965 282.224C222.333 281.888 222.797 281.72 223.357 281.72C223.917 281.72 224.373 281.888 224.725 282.224C225.093 282.544 225.277 282.96 225.277 283.472C225.277 283.984 225.093 284.408 224.725 284.744C224.373 285.08 223.917 285.248 223.357 285.248ZM221.821 299L221.821 287.096L224.893 287.096L224.893 299L221.821 299ZM233.403 299C232.155 299 231.155 298.696 230.403 298.088C229.651 297.48 229.275 296.4 229.275 294.848L229.275 289.664L227.235 289.664L227.235 287.096L229.275 287.096L229.635 283.904L232.347 283.904L232.347 287.096L235.563 287.096L235.563 289.664L232.347 289.664L232.347 294.872C232.347 295.448 232.467 295.848 232.707 296.072C232.963 296.28 233.395 296.384 234.003 296.384L235.491 296.384L235.491 299L233.403 299ZM239.857 285.248C239.297 285.248 238.833 285.08 238.465 284.744C238.113 284.408 237.937 283.984 237.937 283.472C237.937 282.96 238.113 282.544 238.465 282.224C238.833 281.888 239.297 281.72 239.857 281.72C240.417 281.72 240.873 281.888 241.225 282.224C241.593 282.544 241.777 282.96 241.777 283.472C241.777 283.984 241.593 284.408 241.225 284.744C240.873 285.08 240.417 285.248 239.857 285.248ZM238.321 299L238.321 287.096L241.393 287.096L241.393 299L238.321 299ZM250.383 299.288C249.183 299.288 248.119 299.032 247.191 298.52C246.263 298.008 245.535 297.288 245.007 296.36C244.479 295.432 244.215 294.36 244.215 293.144C244.215 291.912 244.471 290.816 244.983 289.856C245.511 288.896 246.231 288.152 247.143 287.624C248.071 287.08 249.159 286.808 250.407 286.808C251.575 286.808 252.607 287.064 253.503 287.576C254.399 288.088 255.095 288.792 255.591 289.688C256.103 290.568 256.359 291.552 256.359 292.64C256.359 292.816 256.351 293 256.335 293.192C256.335 293.384 256.327 293.584 256.311 293.792L247.263 293.792C247.327 294.72 247.647 295.448 248.223 295.976C248.815 296.504 249.527 296.768 250.359 296.768C250.983 296.768 251.503 296.632 251.919 296.36C252.351 296.072 252.671 295.704 252.879 295.256L255.999 295.256C255.775 296.008 255.399 296.696 254.871 297.32C254.359 297.928 253.719 298.408 252.951 298.76C252.199 299.112 251.343 299.288 250.383 299.288ZM250.407 289.304C249.655 289.304 248.991 289.52 248.415 289.952C247.839 290.368 247.471 291.008 247.311 291.872L253.239 291.872C253.191 291.088 252.903 290.464 252.375 290C251.847 289.536 251.191 289.304 250.407 289.304ZM263.863 299.288C262.807 299.288 261.879 299.12 261.079 298.784C260.279 298.432 259.639 297.952 259.159 297.344C258.679 296.736 258.391 296.032 258.295 295.232L261.391 295.232C261.487 295.696 261.743 296.096 262.159 296.432C262.591 296.752 263.143 296.912 263.815 296.912C264.487 296.912 264.975 296.776 265.279 296.504C265.599 296.232 265.759 295.92 265.759 295.568C265.759 295.056 265.535 294.712 265.087 294.536C264.639 294.344 264.015 294.16 263.215 293.984C262.703 293.872 262.183 293.736 261.655 293.576C261.127 293.416 260.639 293.216 260.191 292.976C259.759 292.72 259.407 292.4 259.135 292.016C258.863 291.616 258.727 291.128 258.727 290.552C258.727 289.496 259.143 288.608 259.975 287.888C260.823 287.168 262.007 286.808 263.527 286.808C264.935 286.808 266.055 287.136 266.887 287.792C267.735 288.448 268.239 289.352 268.399 290.504L265.495 290.504C265.319 289.624 264.655 289.184 263.503 289.184C262.927 289.184 262.479 289.296 262.159 289.52C261.855 289.744 261.703 290.024 261.703 290.36C261.703 290.712 261.935 290.992 262.399 291.2C262.863 291.408 263.479 291.6 264.247 291.776C265.079 291.968 265.839 292.184 266.527 292.424C267.231 292.648 267.791 292.992 268.207 293.456C268.623 293.904 268.831 294.552 268.831 295.4C268.847 296.136 268.655 296.8 268.255 297.392C267.855 297.984 267.279 298.448 266.527 298.784C265.775 299.12 264.887 299.288 263.863 299.288Z" fill="black"/>
<path d="M223.95 231.36C229.572 231.36 234.13 226.802 234.13 221.18C234.13 215.558 229.572 211 223.95 211C218.327 211 213.77 215.558 213.77 221.18C213.77 226.802 218.327 231.36 223.95 231.36Z" fill="#565656"/>
<path d="M227.69 220.11V218.43C227.691 217.772 227.518 217.125 227.19 216.555C226.862 215.984 226.389 215.51 225.82 215.18C225.25 214.851 224.603 214.678 223.945 214.678C223.287 214.678 222.64 214.851 222.07 215.18C221.5 215.51 221.028 215.984 220.699 216.555C220.371 217.125 220.199 217.772 220.2 218.43V220.11C220.189 220.695 220.335 221.271 220.624 221.78C220.912 222.288 221.332 222.71 221.84 223C222.48 223.369 223.206 223.563 223.945 223.563C224.684 223.563 225.409 223.369 226.05 223C226.557 222.71 226.977 222.288 227.266 221.78C227.554 221.271 227.701 220.695 227.69 220.11Z" fill="white"/>
<path d="M224 231.36C226.608 231.361 229.117 230.354 231 228.55C230.27 227.347 229.242 226.353 228.016 225.664C226.79 224.974 225.407 224.611 224 224.611C222.593 224.611 221.21 224.974 219.984 225.664C218.758 226.353 217.73 227.347 217 228.55C218.883 230.354 221.392 231.361 224 231.36Z" fill="#787878"/>
<path d="M210.129 259.001C215.751 259.001 220.309 254.443 220.309 248.821C220.309 243.198 215.751 238.641 210.129 238.641C204.507 238.641 199.949 243.198 199.949 248.821C199.949 254.443 204.507 259.001 210.129 259.001Z" fill="#565656"/>
<path d="M213.869 247.751V246.071C213.87 245.413 213.698 244.766 213.369 244.195C213.041 243.625 212.568 243.151 211.999 242.821C211.429 242.492 210.782 242.318 210.124 242.318C209.466 242.318 208.819 242.492 208.249 242.821C207.679 243.151 207.207 243.625 206.879 244.195C206.55 244.766 206.378 245.413 206.379 246.071V247.751C206.375 248.325 206.523 248.89 206.807 249.389C207.092 249.887 207.503 250.302 207.999 250.591C208.639 250.959 209.365 251.153 210.104 251.153C210.843 251.153 211.569 250.959 212.209 250.591C212.713 250.307 213.132 249.895 213.423 249.395C213.715 248.896 213.869 248.329 213.869 247.751Z" fill="white"/>
<path d="M210.129 259C212.737 259.002 215.245 257.995 217.129 256.19C216.399 254.988 215.371 253.994 214.145 253.304C212.919 252.614 211.536 252.252 210.129 252.252C208.722 252.252 207.339 252.614 206.113 253.304C204.887 253.994 203.859 254.988 203.129 256.19C205.012 257.995 207.52 259.002 210.129 259Z" fill="#787878"/>
<path d="M237.871 259.001C243.494 259.001 248.051 254.443 248.051 248.821C248.051 243.198 243.494 238.641 237.871 238.641C232.249 238.641 227.691 243.198 227.691 248.821C227.691 254.443 232.249 259.001 237.871 259.001Z" fill="#565656"/>
<path d="M241.619 247.751V246.071C241.62 245.413 241.448 244.766 241.119 244.195C240.791 243.625 240.318 243.151 239.749 242.821C239.179 242.492 238.532 242.318 237.874 242.318C237.216 242.318 236.569 242.492 235.999 242.821C235.429 243.151 234.957 243.625 234.629 244.195C234.3 244.766 234.128 245.413 234.129 246.071V247.751C234.127 248.327 234.278 248.893 234.566 249.392C234.854 249.891 235.269 250.304 235.769 250.591C236.409 250.959 237.135 251.153 237.874 251.153C238.613 251.153 239.339 250.959 239.979 250.591C240.479 250.304 240.894 249.891 241.182 249.392C241.47 248.893 241.621 248.327 241.619 247.751Z" fill="white"/>
<path d="M237.871 259C240.48 259.002 242.988 257.995 244.871 256.19C244.141 254.988 243.113 253.994 241.887 253.304C240.661 252.614 239.278 252.252 237.871 252.252C236.464 252.252 235.081 252.614 233.855 253.304C232.629 253.994 231.601 254.988 230.871 256.19C232.755 257.995 235.263 259.002 237.871 259Z" fill="#787878"/>
<path d="M224 238.711C223.735 238.711 223.48 238.606 223.293 238.418C223.105 238.231 223 237.976 223 237.711V234.461C223 234.196 223.105 233.941 223.293 233.754C223.48 233.566 223.735 233.461 224 233.461C224.265 233.461 224.52 233.566 224.707 233.754C224.895 233.941 225 234.196 225 234.461V237.711C225 237.976 224.895 238.231 224.707 238.418C224.52 238.606 224.265 238.711 224 238.711Z" fill="#565656"/>
<path d="M220.891 240.999C220.683 240.999 220.48 240.933 220.311 240.812C220.142 240.69 220.015 240.519 219.948 240.322C219.881 240.125 219.877 239.912 219.937 239.712C219.996 239.513 220.117 239.337 220.281 239.209L224.001 236.449L227.661 239.249C227.859 239.414 227.986 239.649 228.015 239.905C228.044 240.161 227.973 240.418 227.817 240.623C227.661 240.828 227.432 240.965 227.178 241.005C226.923 241.045 226.663 240.986 226.451 240.839L224.001 238.999L221.541 240.879C221.345 240.992 221.115 241.034 220.891 240.999Z" fill="#565656"/>
<path d="M144 376V392.5" stroke="#787878" stroke-opacity="0.2"/>
<defs>
<filter id="filter0_b" x="92" y="128" width="104" height="38" filterUnits="userSpaceOnUse" color-interpolation-filters="sRGB">
<feFlood flood-opacity="0" result="BackgroundImageFix"/>
<feGaussianBlur in="BackgroundImage" stdDeviation="1.5"/>
<feComposite in2="SourceAlpha" operator="in" result="effect1_backgroundBlur"/>
<feBlend mode="normal" in="SourceGraphic" in2="effect1_backgroundBlur" result="shape"/>
</filter>
<filter id="filter1_b" x="90.5" y="331" width="107" height="38" filterUnits="userSpaceOnUse" color-interpolation-filters="sRGB">
<feFlood flood-opacity="0" result="BackgroundImageFix"/>
<feGaussianBlur in="BackgroundImage" stdDeviation="1.5"/>
<feComposite in2="SourceAlpha" operator="in" result="effect1_backgroundBlur"/>
<feBlend mode="normal" in="SourceGraphic" in2="effect1_backgroundBlur" result="shape"/>
</filter>
</defs>
</svg>
