<svg width="20" height="20" viewBox="0 0 20 20" fill="none" xmlns="http://www.w3.org/2000/svg">
<path d="M13.9639 0.909119C12.5947 0.909119 11.3071 1.44253 10.3386 2.41106L2.40978 10.3392C0.411299 12.3383 0.411299 15.5908 2.40978 17.5899C3.37804 18.5578 4.66535 19.0909 6.03473 19.0909C7.40411 19.0909 8.69157 18.5578 9.6598 17.5899L9.99087 17.2589C10.0833 17.1664 10.0135 17.0086 9.88292 17.0149V17.0149C9.88106 17.015 9.86108 17.0159 9.82624 17.0159C9.65494 17.0159 9.05281 16.9935 8.49671 16.7064V16.7064C8.44559 16.68 8.38351 16.6868 8.33933 16.7236V16.7236C7.69645 17.2612 6.87786 17.5572 6.0347 17.5572C5.07349 17.5572 4.17079 17.1841 3.49278 16.5067C2.81489 15.8288 2.44147 14.926 2.44147 13.9645C2.44147 13.003 2.81489 12.1003 3.49278 11.4222L11.4216 3.49409C12.0995 2.81623 13.0024 2.44278 13.9639 2.44278C14.9253 2.44278 15.8281 2.81623 16.5061 3.49409C17.9064 4.89546 17.9064 7.17569 16.5063 8.57706L11.5544 13.5173C11.3056 13.7665 10.9612 13.9038 10.5843 13.9038C10.175 13.9038 9.77874 13.7419 9.49684 13.4595C9.22624 13.1892 9.07132 12.8124 9.07147 12.4254C9.07147 12.0472 9.21478 11.6961 9.47448 11.437L13.3435 7.58274C13.6436 7.28378 13.644 6.79801 13.3445 6.4985V6.4985C13.0458 6.19986 12.5617 6.19939 12.2624 6.49745L8.39085 10.3535C7.83637 10.9079 7.53451 11.6522 7.54066 12.4491C7.54684 13.2426 7.85686 13.986 8.41353 14.5426C8.97977 15.1088 9.77058 15.4334 10.5836 15.4334C11.3711 15.4334 12.1009 15.1375 12.6386 14.6003L17.5891 9.66051C19.5872 7.66119 19.5872 4.40894 17.5891 2.41106C16.6208 1.44253 15.3332 0.909119 13.9639 0.909119Z" fill="#60CA9C" stroke="#60CA9C" stroke-width="0.5"/>
</svg>
