<svg width="103" height="24" viewBox="0 0 103 24" fill="none" xmlns="http://www.w3.org/2000/svg">
<path d="M31.102 17.168C30.4487 17.168 29.8653 17.0093 29.352 16.692C28.8387 16.3747 28.4327 15.9407 28.134 15.39C27.8353 14.8393 27.686 14.214 27.686 13.514C27.686 12.814 27.8353 12.1933 28.134 11.652C28.4327 11.1013 28.8387 10.672 29.352 10.364C29.8653 10.0467 30.4487 9.888 31.102 9.888C31.6247 9.888 32.082 9.986 32.474 10.182C32.866 10.378 33.1833 10.6533 33.426 11.008V6.92H35.218V17H33.622L33.426 16.006C33.202 16.314 32.9033 16.5847 32.53 16.818C32.166 17.0513 31.69 17.168 31.102 17.168ZM31.48 15.6C32.0587 15.6 32.53 15.4087 32.894 15.026C33.2673 14.634 33.454 14.1347 33.454 13.528C33.454 12.9213 33.2673 12.4267 32.894 12.044C32.53 11.652 32.0587 11.456 31.48 11.456C30.9107 11.456 30.4393 11.6473 30.066 12.03C29.6927 12.4127 29.506 12.9073 29.506 13.514C29.506 14.1207 29.6927 14.62 30.066 15.012C30.4393 15.404 30.9107 15.6 31.48 15.6ZM40.1368 17C39.4088 17 38.8255 16.8227 38.3868 16.468C37.9481 16.1133 37.7288 15.4833 37.7288 14.578V11.554H36.5388V10.056H37.7288L37.9388 8.194H39.5208V10.056H41.3968V11.554H39.5208V14.592C39.5208 14.928 39.5908 15.1613 39.7308 15.292C39.8801 15.4133 40.1321 15.474 40.4868 15.474H41.3548V17H40.1368ZM42.9354 17V10.056H44.5314L44.6994 11.358C44.9514 10.91 45.2921 10.5553 45.7214 10.294C46.1601 10.0233 46.6734 9.888 47.2614 9.888V11.778H46.7574C46.3654 11.778 46.0154 11.8387 45.7074 11.96C45.3994 12.0813 45.1567 12.2913 44.9794 12.59C44.8114 12.8887 44.7274 13.304 44.7274 13.836V17H42.9354ZM50.8802 17.168C50.2828 17.168 49.7928 17.0747 49.4102 16.888C49.0275 16.692 48.7428 16.4353 48.5562 16.118C48.3695 15.8007 48.2762 15.4507 48.2762 15.068C48.2762 14.424 48.5282 13.9013 49.0322 13.5C49.5362 13.0987 50.2922 12.898 51.3002 12.898H53.0642V12.73C53.0642 12.254 52.9288 11.904 52.6582 11.68C52.3875 11.456 52.0515 11.344 51.6502 11.344C51.2862 11.344 50.9688 11.4327 50.6982 11.61C50.4275 11.778 50.2595 12.03 50.1942 12.366H48.4442C48.4908 11.862 48.6588 11.4233 48.9482 11.05C49.2468 10.6767 49.6295 10.392 50.0962 10.196C50.5628 9.99067 51.0855 9.888 51.6642 9.888C52.6535 9.888 53.4328 10.1353 54.0022 10.63C54.5715 11.1247 54.8562 11.8247 54.8562 12.73V17H53.3302L53.1622 15.88C52.9568 16.2533 52.6675 16.5613 52.2942 16.804C51.9302 17.0467 51.4588 17.168 50.8802 17.168ZM51.2862 15.768C51.7995 15.768 52.1962 15.6 52.4762 15.264C52.7655 14.928 52.9475 14.5127 53.0222 14.018H51.4962C51.0202 14.018 50.6795 14.1067 50.4742 14.284C50.2688 14.452 50.1662 14.662 50.1662 14.914C50.1662 15.1847 50.2688 15.3947 50.4742 15.544C50.6795 15.6933 50.9502 15.768 51.2862 15.768ZM59.7583 17.168C59.1049 17.168 58.5216 17.0093 58.0083 16.692C57.4949 16.3747 57.0889 15.9407 56.7903 15.39C56.4916 14.8393 56.3423 14.214 56.3423 13.514C56.3423 12.814 56.4916 12.1933 56.7903 11.652C57.0889 11.1013 57.4949 10.672 58.0083 10.364C58.5216 10.0467 59.1049 9.888 59.7583 9.888C60.2809 9.888 60.7383 9.986 61.1303 10.182C61.5223 10.378 61.8396 10.6533 62.0823 11.008V6.92H63.8743V17H62.2783L62.0823 16.006C61.8583 16.314 61.5596 16.5847 61.1863 16.818C60.8223 17.0513 60.3463 17.168 59.7583 17.168ZM60.1363 15.6C60.7149 15.6 61.1863 15.4087 61.5503 15.026C61.9236 14.634 62.1103 14.1347 62.1103 13.528C62.1103 12.9213 61.9236 12.4267 61.5503 12.044C61.1863 11.652 60.7149 11.456 60.1363 11.456C59.5669 11.456 59.0956 11.6473 58.7223 12.03C58.3489 12.4127 58.1623 12.9073 58.1623 13.514C58.1623 14.1207 58.3489 14.62 58.7223 15.012C59.0956 15.404 59.5669 15.6 60.1363 15.6ZM69.0731 17.168C68.3731 17.168 67.7524 17.0187 67.2111 16.72C66.6697 16.4213 66.2451 16.0013 65.9371 15.46C65.6291 14.9187 65.4751 14.2933 65.4751 13.584C65.4751 12.8653 65.6244 12.226 65.9231 11.666C66.2311 11.106 66.6511 10.672 67.1831 10.364C67.7244 10.0467 68.3591 9.888 69.0871 9.888C69.7684 9.888 70.3704 10.0373 70.8931 10.336C71.4157 10.6347 71.8217 11.0453 72.1111 11.568C72.4097 12.0813 72.5591 12.6553 72.5591 13.29C72.5591 13.3927 72.5544 13.5 72.5451 13.612C72.5451 13.724 72.5404 13.8407 72.5311 13.962H67.2531C67.2904 14.5033 67.4771 14.928 67.8131 15.236C68.1584 15.544 68.5737 15.698 69.0591 15.698C69.4231 15.698 69.7264 15.6187 69.9691 15.46C70.2211 15.292 70.4077 15.0773 70.5291 14.816H72.3491C72.2184 15.2547 71.9991 15.656 71.6911 16.02C71.3924 16.3747 71.0191 16.6547 70.5711 16.86C70.1324 17.0653 69.6331 17.168 69.0731 17.168ZM69.0871 11.344C68.6484 11.344 68.2611 11.47 67.9251 11.722C67.5891 11.9647 67.3744 12.338 67.2811 12.842H70.7391C70.7111 12.3847 70.5431 12.0207 70.2351 11.75C69.9271 11.4793 69.5444 11.344 69.0871 11.344ZM74.8363 17.098C74.5096 17.098 74.2389 16.9953 74.0243 16.79C73.8189 16.5847 73.7163 16.3373 73.7163 16.048C73.7163 15.7493 73.8189 15.4973 74.0243 15.292C74.2389 15.0867 74.5096 14.984 74.8363 14.984C75.1629 14.984 75.4289 15.0867 75.6343 15.292C75.8489 15.4973 75.9563 15.7493 75.9563 16.048C75.9563 16.3373 75.8489 16.5847 75.6343 16.79C75.4289 16.9953 75.1629 17.098 74.8363 17.098ZM80.7615 17.168C80.0895 17.168 79.4829 17.014 78.9415 16.706C78.4095 16.398 77.9849 15.9733 77.6675 15.432C77.3595 14.8813 77.2055 14.2467 77.2055 13.528C77.2055 12.8093 77.3642 12.1793 77.6815 11.638C77.9989 11.0873 78.4235 10.658 78.9555 10.35C79.4969 10.042 80.1035 9.888 80.7755 9.888C81.4382 9.888 82.0355 10.042 82.5675 10.35C83.1089 10.658 83.5335 11.0873 83.8415 11.638C84.1589 12.1793 84.3175 12.8093 84.3175 13.528C84.3175 14.2467 84.1589 14.8813 83.8415 15.432C83.5335 15.9733 83.1089 16.398 82.5675 16.706C82.0262 17.014 81.4242 17.168 80.7615 17.168ZM80.7615 15.614C81.2282 15.614 81.6342 15.4413 81.9795 15.096C82.3249 14.7413 82.4975 14.2187 82.4975 13.528C82.4975 12.8373 82.3249 12.3193 81.9795 11.974C81.6342 11.6193 81.2329 11.442 80.7755 11.442C80.2995 11.442 79.8889 11.6193 79.5435 11.974C79.2075 12.3193 79.0395 12.8373 79.0395 13.528C79.0395 14.2187 79.2075 14.7413 79.5435 15.096C79.8889 15.4413 80.2949 15.614 80.7615 15.614ZM85.9198 17V10.056H87.5158L87.6838 11.358C87.9358 10.91 88.2764 10.5553 88.7058 10.294C89.1444 10.0233 89.6578 9.888 90.2458 9.888V11.778H89.7418C89.3498 11.778 88.9998 11.8387 88.6918 11.96C88.3838 12.0813 88.1411 12.2913 87.9638 12.59C87.7958 12.8887 87.7118 13.304 87.7118 13.836V17H85.9198ZM94.2465 14.928C93.9105 14.928 93.5978 14.8907 93.3085 14.816L92.7905 15.334C92.9492 15.418 93.1638 15.488 93.4345 15.544C93.7052 15.6 94.1438 15.656 94.7505 15.712C95.6745 15.796 96.3465 16.0153 96.7665 16.37C97.1865 16.7247 97.3965 17.2147 97.3965 17.84C97.3965 18.2507 97.2845 18.638 97.0605 19.002C96.8365 19.3753 96.4912 19.674 96.0245 19.898C95.5578 20.1313 94.9605 20.248 94.2325 20.248C93.2432 20.248 92.4452 20.0613 91.8385 19.688C91.2318 19.324 90.9285 18.7733 90.9285 18.036C90.9285 17.4107 91.2318 16.8693 91.8385 16.412C91.6518 16.328 91.4885 16.2393 91.3485 16.146C91.2178 16.0527 91.1012 15.9547 90.9985 15.852V15.53L92.2165 14.242C91.6752 13.766 91.4045 13.1547 91.4045 12.408C91.4045 11.9413 91.5165 11.5167 91.7405 11.134C91.9738 10.7513 92.3005 10.448 92.7205 10.224C93.1405 10 93.6492 9.888 94.2465 9.888C94.6385 9.888 95.0025 9.944 95.3385 10.056H97.9705V11.148L96.7805 11.232C96.9672 11.5867 97.0605 11.9787 97.0605 12.408C97.0605 12.8747 96.9485 13.2993 96.7245 13.682C96.5005 14.0647 96.1738 14.368 95.7445 14.592C95.3245 14.816 94.8252 14.928 94.2465 14.928ZM94.2465 13.556C94.6105 13.556 94.9092 13.458 95.1425 13.262C95.3852 13.066 95.5065 12.786 95.5065 12.422C95.5065 12.058 95.3852 11.778 95.1425 11.582C94.9092 11.386 94.6105 11.288 94.2465 11.288C93.8638 11.288 93.5558 11.386 93.3225 11.582C93.0892 11.778 92.9725 12.058 92.9725 12.422C92.9725 12.786 93.0892 13.066 93.3225 13.262C93.5558 13.458 93.8638 13.556 94.2465 13.556ZM92.5665 17.854C92.5665 18.1993 92.7252 18.456 93.0425 18.624C93.3692 18.8013 93.7658 18.89 94.2325 18.89C94.6805 18.89 95.0445 18.7967 95.3245 18.61C95.6045 18.4327 95.7445 18.19 95.7445 17.882C95.7445 17.63 95.6512 17.42 95.4645 17.252C95.2872 17.084 94.9278 16.9813 94.3865 16.944C94.0038 16.916 93.6492 16.874 93.3225 16.818C93.0518 16.9673 92.8558 17.1307 92.7345 17.308C92.6225 17.4853 92.5665 17.6673 92.5665 17.854Z" fill="#69ABE4"/>
<path d="M3 4.89453L-3.08185e-08 4.89453C-9.03847e-08 10.693 4.70156 15.3945 10.5 15.3945L10.5 22.1445C10.5 22.557 10.8375 22.8945 11.25 22.8945L12.75 22.8945C13.1625 22.8945 13.5 22.557 13.5 22.1445L13.5 15.3945C13.5 9.59609 8.79844 4.89453 3 4.89453ZM21 1.89453C17.0531 1.89453 13.6219 4.07422 11.8266 7.29453C13.125 8.71016 14.0859 10.4305 14.5922 12.3383C19.875 11.7898 24 7.32734 24 1.89453L21 1.89453Z" fill="#69ABE4"/>
</svg>
