<svg width="89" height="24" viewBox="0 0 89 24" fill="none" xmlns="http://www.w3.org/2000/svg">
<path d="M31.102 17.418C30.4487 17.418 29.8653 17.2593 29.352 16.942C28.8387 16.6247 28.4327 16.1907 28.134 15.64C27.8353 15.0893 27.686 14.464 27.686 13.764C27.686 13.064 27.8353 12.4433 28.134 11.902C28.4327 11.3513 28.8387 10.922 29.352 10.614C29.8653 10.2967 30.4487 10.138 31.102 10.138C31.6247 10.138 32.082 10.236 32.474 10.432C32.866 10.628 33.1833 10.9033 33.426 11.258V7.17H35.218V17.25H33.622L33.426 16.256C33.202 16.564 32.9033 16.8347 32.53 17.068C32.166 17.3013 31.69 17.418 31.102 17.418ZM31.48 15.85C32.0587 15.85 32.53 15.6587 32.894 15.276C33.2673 14.884 33.454 14.3847 33.454 13.778C33.454 13.1713 33.2673 12.6767 32.894 12.294C32.53 11.902 32.0587 11.706 31.48 11.706C30.9107 11.706 30.4393 11.8973 30.066 12.28C29.6927 12.6627 29.506 13.1573 29.506 13.764C29.506 14.3707 29.6927 14.87 30.066 15.262C30.4393 15.654 30.9107 15.85 31.48 15.85ZM40.1368 17.25C39.4088 17.25 38.8255 17.0727 38.3868 16.718C37.9481 16.3633 37.7288 15.7333 37.7288 14.828V11.804H36.5388V10.306H37.7288L37.9388 8.444H39.5208V10.306H41.3968V11.804H39.5208V14.842C39.5208 15.178 39.5908 15.4113 39.7308 15.542C39.8801 15.6633 40.1321 15.724 40.4868 15.724H41.3548V17.25H40.1368ZM42.9354 17.25V10.306H44.5314L44.6994 11.608C44.9514 11.16 45.2921 10.8053 45.7214 10.544C46.1601 10.2733 46.6734 10.138 47.2614 10.138V12.028H46.7574C46.3654 12.028 46.0154 12.0887 45.7074 12.21C45.3994 12.3313 45.1567 12.5413 44.9794 12.84C44.8114 13.1387 44.7274 13.554 44.7274 14.086V17.25H42.9354ZM50.8802 17.418C50.2828 17.418 49.7928 17.3247 49.4102 17.138C49.0275 16.942 48.7428 16.6853 48.5562 16.368C48.3695 16.0507 48.2762 15.7007 48.2762 15.318C48.2762 14.674 48.5282 14.1513 49.0322 13.75C49.5362 13.3487 50.2922 13.148 51.3002 13.148H53.0642V12.98C53.0642 12.504 52.9288 12.154 52.6582 11.93C52.3875 11.706 52.0515 11.594 51.6502 11.594C51.2862 11.594 50.9688 11.6827 50.6982 11.86C50.4275 12.028 50.2595 12.28 50.1942 12.616H48.4442C48.4908 12.112 48.6588 11.6733 48.9482 11.3C49.2468 10.9267 49.6295 10.642 50.0962 10.446C50.5628 10.2407 51.0855 10.138 51.6642 10.138C52.6535 10.138 53.4328 10.3853 54.0022 10.88C54.5715 11.3747 54.8562 12.0747 54.8562 12.98V17.25H53.3302L53.1622 16.13C52.9568 16.5033 52.6675 16.8113 52.2942 17.054C51.9302 17.2967 51.4588 17.418 50.8802 17.418ZM51.2862 16.018C51.7995 16.018 52.1962 15.85 52.4762 15.514C52.7655 15.178 52.9475 14.7627 53.0222 14.268H51.4962C51.0202 14.268 50.6795 14.3567 50.4742 14.534C50.2688 14.702 50.1662 14.912 50.1662 15.164C50.1662 15.4347 50.2688 15.6447 50.4742 15.794C50.6795 15.9433 50.9502 16.018 51.2862 16.018ZM59.7583 17.418C59.1049 17.418 58.5216 17.2593 58.0083 16.942C57.4949 16.6247 57.0889 16.1907 56.7903 15.64C56.4916 15.0893 56.3423 14.464 56.3423 13.764C56.3423 13.064 56.4916 12.4433 56.7903 11.902C57.0889 11.3513 57.4949 10.922 58.0083 10.614C58.5216 10.2967 59.1049 10.138 59.7583 10.138C60.2809 10.138 60.7383 10.236 61.1303 10.432C61.5223 10.628 61.8396 10.9033 62.0823 11.258V7.17H63.8743V17.25H62.2783L62.0823 16.256C61.8583 16.564 61.5596 16.8347 61.1863 17.068C60.8223 17.3013 60.3463 17.418 59.7583 17.418ZM60.1363 15.85C60.7149 15.85 61.1863 15.6587 61.5503 15.276C61.9236 14.884 62.1103 14.3847 62.1103 13.778C62.1103 13.1713 61.9236 12.6767 61.5503 12.294C61.1863 11.902 60.7149 11.706 60.1363 11.706C59.5669 11.706 59.0956 11.8973 58.7223 12.28C58.3489 12.6627 58.1623 13.1573 58.1623 13.764C58.1623 14.3707 58.3489 14.87 58.7223 15.262C59.0956 15.654 59.5669 15.85 60.1363 15.85ZM69.0731 17.418C68.3731 17.418 67.7524 17.2687 67.2111 16.97C66.6697 16.6713 66.2451 16.2513 65.9371 15.71C65.6291 15.1687 65.4751 14.5433 65.4751 13.834C65.4751 13.1153 65.6244 12.476 65.9231 11.916C66.2311 11.356 66.6511 10.922 67.1831 10.614C67.7244 10.2967 68.3591 10.138 69.0871 10.138C69.7684 10.138 70.3704 10.2873 70.8931 10.586C71.4157 10.8847 71.8217 11.2953 72.1111 11.818C72.4097 12.3313 72.5591 12.9053 72.5591 13.54C72.5591 13.6427 72.5544 13.75 72.5451 13.862C72.5451 13.974 72.5404 14.0907 72.5311 14.212H67.2531C67.2904 14.7533 67.4771 15.178 67.8131 15.486C68.1584 15.794 68.5737 15.948 69.0591 15.948C69.4231 15.948 69.7264 15.8687 69.9691 15.71C70.2211 15.542 70.4077 15.3273 70.5291 15.066H72.3491C72.2184 15.5047 71.9991 15.906 71.6911 16.27C71.3924 16.6247 71.0191 16.9047 70.5711 17.11C70.1324 17.3153 69.6331 17.418 69.0731 17.418ZM69.0871 11.594C68.6484 11.594 68.2611 11.72 67.9251 11.972C67.5891 12.2147 67.3744 12.588 67.2811 13.092H70.7391C70.7111 12.6347 70.5431 12.2707 70.2351 12C69.9271 11.7293 69.5444 11.594 69.0871 11.594ZM74.8363 17.348C74.5096 17.348 74.2389 17.2453 74.0243 17.04C73.8189 16.8347 73.7163 16.5873 73.7163 16.298C73.7163 15.9993 73.8189 15.7473 74.0243 15.542C74.2389 15.3367 74.5096 15.234 74.8363 15.234C75.1629 15.234 75.4289 15.3367 75.6343 15.542C75.8489 15.7473 75.9563 15.9993 75.9563 16.298C75.9563 16.5873 75.8489 16.8347 75.6343 17.04C75.4289 17.2453 75.1629 17.348 74.8363 17.348ZM78.3955 9.228C78.0689 9.228 77.7982 9.13 77.5835 8.934C77.3782 8.738 77.2755 8.49067 77.2755 8.192C77.2755 7.89333 77.3782 7.65067 77.5835 7.464C77.7982 7.268 78.0689 7.17 78.3955 7.17C78.7222 7.17 78.9882 7.268 79.1935 7.464C79.4082 7.65067 79.5155 7.89333 79.5155 8.192C79.5155 8.49067 79.4082 8.738 79.1935 8.934C78.9882 9.13 78.7222 9.228 78.3955 9.228ZM77.4995 17.25V10.306H79.2915V17.25H77.4995ZM84.494 17.418C83.822 17.418 83.2153 17.264 82.674 16.956C82.142 16.648 81.7173 16.2233 81.4 15.682C81.092 15.1313 80.938 14.4967 80.938 13.778C80.938 13.0593 81.0966 12.4293 81.414 11.888C81.7313 11.3373 82.156 10.908 82.688 10.6C83.2293 10.292 83.836 10.138 84.508 10.138C85.1706 10.138 85.768 10.292 86.3 10.6C86.8413 10.908 87.266 11.3373 87.574 11.888C87.8913 12.4293 88.05 13.0593 88.05 13.778C88.05 14.4967 87.8913 15.1313 87.574 15.682C87.266 16.2233 86.8413 16.648 86.3 16.956C85.7586 17.264 85.1566 17.418 84.494 17.418ZM84.494 15.864C84.9606 15.864 85.3666 15.6913 85.712 15.346C86.0573 14.9913 86.23 14.4687 86.23 13.778C86.23 13.0873 86.0573 12.5693 85.712 12.224C85.3666 11.8693 84.9653 11.692 84.508 11.692C84.032 11.692 83.6213 11.8693 83.276 12.224C82.94 12.5693 82.772 13.0873 82.772 13.778C82.772 14.4687 82.94 14.9913 83.276 15.346C83.6213 15.6913 84.0273 15.864 84.494 15.864Z" fill="#69ABE8"/>
<path d="M3 4.89453L-3.08185e-08 4.89453C-9.03847e-08 10.693 4.70156 15.3945 10.5 15.3945L10.5 22.1445C10.5 22.557 10.8375 22.8945 11.25 22.8945L12.75 22.8945C13.1625 22.8945 13.5 22.557 13.5 22.1445L13.5 15.3945C13.5 9.59609 8.79844 4.89453 3 4.89453ZM21 1.89453C17.0531 1.89453 13.6219 4.07422 11.8266 7.29453C13.125 8.71016 14.0859 10.4305 14.5922 12.3383C19.875 11.7898 24 7.32734 24 1.89453L21 1.89453Z" fill="#69ABE8"/>
</svg>
