<svg width="384" height="270" viewBox="0 0 384 270" fill="none" xmlns="http://www.w3.org/2000/svg">
<mask id="mask0" mask-type="alpha" maskUnits="userSpaceOnUse" x="0" y="0" width="384" height="270">
<path d="M0 16C0 7.16344 7.16344 0 16 0H368C376.837 0 384 7.16344 384 16V270H0V16Z" fill="#C4C4C4"/>
</mask>
<g mask="url(#mask0)">
<mask id="mask1" mask-type="alpha" maskUnits="userSpaceOnUse" x="0" y="0" width="500" height="270">
<path d="M0 16C0 7.16344 7.16344 0 16 0H484C492.837 0 500 7.16344 500 16V270H0V16Z" fill="#C4C4C4"/>
</mask>
<g mask="url(#mask1)">
<g clip-path="url(#clip0)">
<rect x="-130" y="-2" width="759" height="274" rx="5.82292" fill="#F8F8F6"/>
<path d="M39.793 189.395V89.6992" stroke="#C3C5C4" stroke-width="1.10472" stroke-dasharray="2.21 1.1"/>
<path d="M116.793 189.395V89.6992" stroke="#C3C5C4" stroke-width="1.10472" stroke-dasharray="2.21 1.1"/>
<path d="M149.484 138.854V39.1582" stroke="#C3C5C4" stroke-width="1.10472" stroke-dasharray="2.21 1.1"/>
<path d="M213.816 224.777V127.084" stroke="#C3C5C4" stroke-width="1.10472" stroke-dasharray="2.21 1.1"/>
<path d="M319.602 144.644V46.9512" stroke="#C3C5C4" stroke-width="1.10472" stroke-dasharray="2.21 1.1"/>
<path d="M50.3821 64.3848V56.1089H53.7043C54.5634 56.1089 55.2176 56.3099 55.6668 56.7118C56.124 57.1059 56.3525 57.6143 56.3525 58.237C56.3525 58.7572 56.2107 59.1749 55.9269 59.4902C55.6511 59.7976 55.3121 60.0064 54.9102 60.1168C55.3831 60.2113 55.7732 60.4478 56.0806 60.8261C56.388 61.1966 56.5417 61.6301 56.5417 62.1266C56.5417 62.7808 56.3052 63.3207 55.8323 63.7463C55.3594 64.172 54.6895 64.3848 53.8225 64.3848H50.3821ZM51.8954 59.5847H53.4796C53.9052 59.5847 54.2323 59.4862 54.4609 59.2892C54.6895 59.0921 54.8038 58.8123 54.8038 58.4498C54.8038 58.103 54.6895 57.831 54.4609 57.634C54.2402 57.4291 53.9052 57.3266 53.456 57.3266H51.8954V59.5847ZM51.8954 63.1552H53.586C54.0353 63.1552 54.3821 63.0527 54.6264 62.8478C54.8786 62.635 55.0047 62.3394 55.0047 61.9611C55.0047 61.5749 54.8747 61.2715 54.6146 61.0508C54.3545 60.8301 54.0038 60.7197 53.5624 60.7197H51.8954V63.1552ZM57.9233 64.3848V58.5207H59.2711L59.413 59.6202C59.6258 59.2419 59.9135 58.9424 60.276 58.7217C60.6465 58.4931 61.08 58.3788 61.5765 58.3788V59.9749H61.1509C60.8199 59.9749 60.5243 60.0261 60.2642 60.1286C60.0041 60.2311 59.7992 60.4084 59.6494 60.6606C59.5075 60.9128 59.4366 61.2636 59.4366 61.7128V64.3848H57.9233ZM65.4744 64.5266C64.8833 64.5266 64.3591 64.4005 63.902 64.1483C63.4448 63.8961 63.0862 63.5414 62.8261 63.0843C62.566 62.6271 62.436 62.099 62.436 61.5C62.436 60.8931 62.5621 60.3532 62.8143 59.8803C63.0744 59.4074 63.4291 59.0409 63.8783 58.7808C64.3355 58.5128 64.8714 58.3788 65.4862 58.3788C66.0616 58.3788 66.57 58.5049 67.0114 58.7572C67.4527 59.0094 67.7956 59.3562 68.0399 59.7976C68.2922 60.2311 68.4183 60.7158 68.4183 61.2517C68.4183 61.3384 68.4143 61.4291 68.4064 61.5237C68.4064 61.6183 68.4025 61.7168 68.3946 61.8192H63.9375C63.969 62.2764 64.1266 62.635 64.4104 62.8951C64.702 63.1552 65.0527 63.2853 65.4626 63.2853C65.77 63.2853 66.0261 63.2183 66.2311 63.0843C66.4439 62.9424 66.6015 62.7611 66.704 62.5404H68.2409C68.1306 62.9109 67.9454 63.2498 67.6853 63.5572C67.433 63.8567 67.1178 64.0931 66.7394 64.2665C66.369 64.4399 65.9473 64.5266 65.4744 64.5266ZM65.4862 59.6084C65.1158 59.6084 64.7887 59.7148 64.5049 59.9276C64.2212 60.1325 64.0399 60.4478 63.9611 60.8734H66.8813C66.8577 60.4872 66.7158 60.1798 66.4557 59.9512C66.1956 59.7227 65.8724 59.6084 65.4862 59.6084ZM71.831 64.5266C71.3265 64.5266 70.9127 64.4478 70.5896 64.2902C70.2664 64.1247 70.026 63.9079 69.8684 63.6399C69.7108 63.372 69.6319 63.0764 69.6319 62.7532C69.6319 62.2094 69.8447 61.768 70.2704 61.4291C70.696 61.0902 71.3344 60.9207 72.1856 60.9207H73.6753V60.7788C73.6753 60.3769 73.561 60.0813 73.3324 59.8921C73.1039 59.703 72.8201 59.6084 72.4812 59.6084C72.1738 59.6084 71.9058 59.6833 71.6773 59.833C71.4487 59.9749 71.3068 60.1877 71.2516 60.4714H69.7738C69.8132 60.0458 69.9551 59.6754 70.1994 59.3601C70.4516 59.0448 70.7748 58.8044 71.1689 58.6389C71.563 58.4655 72.0044 58.3788 72.493 58.3788C73.3285 58.3788 73.9866 58.5877 74.4674 59.0054C74.9482 59.4232 75.1886 60.0143 75.1886 60.7788V64.3848H73.8999L73.7581 63.4389C73.5847 63.7542 73.3403 64.0143 73.0251 64.2192C72.7177 64.4242 72.3196 64.5266 71.831 64.5266ZM72.1738 63.3444C72.6073 63.3444 72.9423 63.2025 73.1787 62.9187C73.4231 62.635 73.5768 62.2843 73.6398 61.8665H72.3512C71.9492 61.8665 71.6615 61.9414 71.4881 62.0912C71.3147 62.233 71.228 62.4104 71.228 62.6232C71.228 62.8518 71.3147 63.0291 71.4881 63.1552C71.6615 63.2813 71.8901 63.3444 72.1738 63.3444ZM76.751 64.3848V55.8724H78.2643V60.8971L80.3451 58.5207H82.1421L79.7421 61.1926L82.5323 64.3848H80.6406L78.2643 61.4409V64.3848H76.751ZM83.4587 61.5946V60.3296H88.4124V61.5946H83.4587ZM92.7909 64.5266C92.1997 64.5266 91.6756 64.4005 91.2185 64.1483C90.7613 63.8961 90.4027 63.5414 90.1426 63.0843C89.8825 62.6271 89.7524 62.099 89.7524 61.5C89.7524 60.8931 89.8785 60.3532 90.1308 59.8803C90.3909 59.4074 90.7455 59.0409 91.1948 58.7808C91.652 58.5128 92.1879 58.3788 92.8027 58.3788C93.3781 58.3788 93.8864 58.5049 94.3278 58.7572C94.7692 59.0094 95.1121 59.3562 95.3564 59.7976C95.6086 60.2311 95.7347 60.7158 95.7347 61.2517C95.7347 61.3384 95.7308 61.4291 95.7229 61.5237C95.7229 61.6183 95.719 61.7168 95.7111 61.8192H91.2539C91.2854 62.2764 91.4431 62.635 91.7268 62.8951C92.0185 63.1552 92.3692 63.2853 92.779 63.2853C93.0864 63.2853 93.3426 63.2183 93.5475 63.0843C93.7603 62.9424 93.918 62.7611 94.0204 62.5404H95.5574C95.447 62.9109 95.2618 63.2498 95.0017 63.5572C94.7495 63.8567 94.4342 64.0931 94.0559 64.2665C93.6855 64.4399 93.2638 64.5266 92.7909 64.5266ZM92.8027 59.6084C92.4322 59.6084 92.1052 59.7148 91.8214 59.9276C91.5377 60.1325 91.3564 60.4478 91.2776 60.8734H94.1978C94.1741 60.4872 94.0323 60.1798 93.7722 59.9512C93.5121 59.7227 93.1889 59.6084 92.8027 59.6084ZM98.4791 64.3848L96.3273 58.5207H97.9116L99.4012 62.9542L100.891 58.5207H102.475L100.312 64.3848H98.4791ZM106.109 64.5266C105.517 64.5266 104.993 64.4005 104.536 64.1483C104.079 63.8961 103.72 63.5414 103.46 63.0843C103.2 62.6271 103.07 62.099 103.07 61.5C103.07 60.8931 103.196 60.3532 103.448 59.8803C103.709 59.4074 104.063 59.0409 104.512 58.7808C104.97 58.5128 105.506 58.3788 106.12 58.3788C106.696 58.3788 107.204 58.5049 107.645 58.7572C108.087 59.0094 108.43 59.3562 108.674 59.7976C108.926 60.2311 109.052 60.7158 109.052 61.2517C109.052 61.3384 109.048 61.4291 109.041 61.5237C109.041 61.6183 109.037 61.7168 109.029 61.8192H104.572C104.603 62.2764 104.761 62.635 105.044 62.8951C105.336 63.1552 105.687 63.2853 106.097 63.2853C106.404 63.2853 106.66 63.2183 106.865 63.0843C107.078 62.9424 107.236 62.7611 107.338 62.5404H108.875C108.765 62.9109 108.579 63.2498 108.319 63.5572C108.067 63.8567 107.752 64.0931 107.374 64.2665C107.003 64.4399 106.581 64.5266 106.109 64.5266ZM106.12 59.6084C105.75 59.6084 105.423 59.7148 105.139 59.9276C104.855 60.1325 104.674 60.4478 104.595 60.8734H107.515C107.492 60.4872 107.35 60.1798 107.09 59.9512C106.83 59.7227 106.507 59.6084 106.12 59.6084ZM110.443 64.3848V58.5207H111.779L111.898 59.5138C112.079 59.167 112.339 58.8911 112.678 58.6862C113.025 58.4813 113.431 58.3788 113.896 58.3788C114.621 58.3788 115.184 58.6074 115.586 59.0645C115.988 59.5217 116.189 60.1916 116.189 61.0744V64.3848H114.676V61.2163C114.676 60.7118 114.573 60.3256 114.369 60.0577C114.164 59.7897 113.844 59.6557 113.411 59.6557C112.985 59.6557 112.635 59.8054 112.359 60.1049C112.091 60.4045 111.957 60.8222 111.957 61.3582V64.3848H110.443ZM50.3821 78.3848V70.1089H53.4442C54.1062 70.1089 54.654 70.2192 55.0875 70.4399C55.521 70.6606 55.8442 70.964 56.057 71.3503C56.2698 71.7365 56.3762 72.17 56.3762 72.6508C56.3762 73.1079 56.2737 73.5296 56.0688 73.9158C55.8639 74.2941 55.5447 74.6015 55.1112 74.838C54.6777 75.0665 54.122 75.1808 53.4442 75.1808H51.8954V78.3848H50.3821ZM51.8954 73.9512H53.3496C53.8777 73.9512 54.256 73.837 54.4846 73.6084C54.721 73.3719 54.8392 73.0527 54.8392 72.6508C54.8392 72.2409 54.721 71.9217 54.4846 71.6931C54.256 71.4567 53.8777 71.3384 53.3496 71.3384H51.8954V73.9512ZM57.6462 78.3848V72.5207H58.994L59.1359 73.6202C59.3487 73.2419 59.6364 72.9424 59.9989 72.7217C60.3694 72.4931 60.8029 72.3788 61.2994 72.3788V73.9749H60.8738C60.5428 73.9749 60.2472 74.0261 59.9871 74.1286C59.727 74.2311 59.5221 74.4084 59.3723 74.6606C59.2304 74.9128 59.1595 75.2636 59.1595 75.7128V78.3848H57.6462ZM63.2677 71.6104C62.9919 71.6104 62.7633 71.5276 62.582 71.3621C62.4086 71.1966 62.3219 70.9877 62.3219 70.7355C62.3219 70.4833 62.4086 70.2783 62.582 70.1207C62.7633 69.9552 62.9919 69.8724 63.2677 69.8724C63.5436 69.8724 63.7682 69.9552 63.9416 70.1207C64.1229 70.2783 64.2135 70.4833 64.2135 70.7355C64.2135 70.9877 64.1229 71.1966 63.9416 71.3621C63.7682 71.5276 63.5436 71.6104 63.2677 71.6104ZM62.5111 78.3848V72.5207H64.0244V78.3848H62.5111ZM68.595 78.5266C67.996 78.5266 67.4679 78.3966 67.0108 78.1365C66.5537 77.8764 66.1911 77.5138 65.9231 77.0488C65.663 76.5838 65.533 76.0518 65.533 75.4527C65.533 74.8537 65.663 74.3217 65.9231 73.8567C66.1911 73.3916 66.5537 73.0291 67.0108 72.769C67.4679 72.5089 67.996 72.3788 68.595 72.3788C69.3438 72.3788 69.9744 72.5759 70.4867 72.97C70.999 73.3562 71.3261 73.8921 71.468 74.5779H69.8719C69.7931 74.2941 69.6354 74.0734 69.399 73.9158C69.1704 73.7503 68.8985 73.6675 68.5832 73.6675C68.1655 73.6675 67.8108 73.8251 67.5192 74.1404C67.2276 74.4557 67.0817 74.8931 67.0817 75.4527C67.0817 76.0123 67.2276 76.4498 67.5192 76.7651C67.8108 77.0803 68.1655 77.238 68.5832 77.238C68.8985 77.238 69.1704 77.1591 69.399 77.0015C69.6354 76.8439 69.7931 76.6192 69.8719 76.3276H71.468C71.3261 76.9897 70.999 77.5217 70.4867 77.9237C69.9744 78.3257 69.3438 78.5266 68.595 78.5266ZM75.7786 78.5266C75.1875 78.5266 74.6634 78.4005 74.2062 78.1483C73.7491 77.8961 73.3905 77.5414 73.1304 77.0843C72.8703 76.6271 72.7402 76.099 72.7402 75.5C72.7402 74.8931 72.8663 74.3532 73.1185 73.8803C73.3786 73.4074 73.7333 73.0409 74.1826 72.7808C74.6397 72.5128 75.1757 72.3788 75.7905 72.3788C76.3658 72.3788 76.8742 72.5049 77.3156 72.7572C77.757 73.0094 78.0998 73.3562 78.3442 73.7976C78.5964 74.2311 78.7225 74.7158 78.7225 75.2517C78.7225 75.3384 78.7186 75.4291 78.7107 75.5237C78.7107 75.6183 78.7067 75.7168 78.6988 75.8192H74.2417C74.2732 76.2764 74.4308 76.635 74.7146 76.8951C75.0062 77.1552 75.357 77.2853 75.7668 77.2853C76.0742 77.2853 76.3304 77.2183 76.5353 77.0843C76.7481 76.9424 76.9057 76.7611 77.0082 76.5404H78.5452C78.4348 76.9109 78.2496 77.2498 77.9895 77.5572C77.7373 77.8567 77.422 78.0931 77.0437 78.2665C76.6732 78.4399 76.2515 78.5266 75.7786 78.5266ZM75.7905 73.6084C75.42 73.6084 75.0929 73.7148 74.8092 73.9276C74.5254 74.1325 74.3441 74.4478 74.2653 74.8734H77.1855C77.1619 74.4872 77.02 74.1798 76.7599 73.9512C76.4998 73.7227 76.1767 73.6084 75.7905 73.6084Z" fill="#6FB05C"/>
<path d="M53.2077 209.503C52.6008 209.503 52.0648 209.401 51.5998 209.196C51.1348 208.983 50.7683 208.683 50.5003 208.297C50.2323 207.903 50.0944 207.426 50.0865 206.867H51.6826C51.6983 207.253 51.8363 207.58 52.0964 207.848C52.3643 208.108 52.7308 208.238 53.1959 208.238C53.5978 208.238 53.9171 208.144 54.1535 207.954C54.39 207.757 54.5082 207.497 54.5082 207.174C54.5082 206.835 54.4018 206.571 54.189 206.382C53.9841 206.193 53.7082 206.039 53.3614 205.921C53.0146 205.803 52.6441 205.677 52.2501 205.543C51.6116 205.322 51.123 205.038 50.784 204.691C50.453 204.345 50.2875 203.883 50.2875 203.308C50.2796 202.819 50.3939 202.402 50.6303 202.055C50.8747 201.7 51.2057 201.428 51.6235 201.239C52.0412 201.042 52.522 200.944 53.0658 200.944C53.6176 200.944 54.1023 201.042 54.52 201.239C54.9456 201.436 55.2767 201.712 55.5131 202.067C55.7575 202.421 55.8875 202.843 55.9033 203.332H54.2836C54.2757 203.04 54.1614 202.784 53.9407 202.563C53.7279 202.335 53.4284 202.22 53.0422 202.22C52.7111 202.213 52.4313 202.295 52.2028 202.469C51.9821 202.634 51.8717 202.879 51.8717 203.202C51.8717 203.478 51.9584 203.698 52.1318 203.864C52.3052 204.021 52.5417 204.155 52.8412 204.266C53.1407 204.376 53.4836 204.494 53.8698 204.62C54.2796 204.762 54.654 204.928 54.9929 205.117C55.3318 205.306 55.6038 205.558 55.8087 205.874C56.0136 206.181 56.1161 206.579 56.1161 207.068C56.1161 207.501 56.0057 207.903 55.785 208.274C55.5644 208.644 55.2373 208.944 54.8038 209.172C54.3703 209.393 53.8382 209.503 53.2077 209.503ZM60.132 209.361C59.5172 209.361 59.0246 209.212 58.6542 208.912C58.2837 208.613 58.0985 208.081 58.0985 207.316V204.762H57.0936V203.497H58.0985L58.2759 201.925H59.6118V203.497H61.1961V204.762H59.6118V207.328C59.6118 207.612 59.6709 207.809 59.7892 207.919C59.9153 208.021 60.1281 208.073 60.4276 208.073H61.1606V209.361H60.132ZM62.6136 209.361V203.497H63.9614L64.1032 204.597C64.3161 204.218 64.6037 203.919 64.9663 203.698C65.3368 203.47 65.7703 203.355 66.2668 203.355V204.951H65.8412C65.5102 204.951 65.2146 205.003 64.9545 205.105C64.6944 205.208 64.4895 205.385 64.3397 205.637C64.1978 205.889 64.1269 206.24 64.1269 206.689V209.361H62.6136ZM68.2351 202.587C67.9592 202.587 67.7307 202.504 67.5494 202.339C67.376 202.173 67.2893 201.964 67.2893 201.712C67.2893 201.46 67.376 201.255 67.5494 201.097C67.7307 200.932 67.9592 200.849 68.2351 200.849C68.511 200.849 68.7356 200.932 68.909 201.097C69.0903 201.255 69.1809 201.46 69.1809 201.712C69.1809 201.964 69.0903 202.173 68.909 202.339C68.7356 202.504 68.511 202.587 68.2351 202.587ZM67.4784 209.361V203.497H68.9918V209.361H67.4784ZM70.6895 209.361V200.849H72.2028V205.874L74.2836 203.497H76.0807L73.6807 206.169L76.4708 209.361H74.5792L72.2028 206.417V209.361H70.6895ZM79.8916 209.503C79.3005 209.503 78.7764 209.377 78.3192 209.125C77.8621 208.873 77.5035 208.518 77.2434 208.061C76.9833 207.604 76.8532 207.076 76.8532 206.477C76.8532 205.87 76.9793 205.33 77.2315 204.857C77.4916 204.384 77.8463 204.017 78.2956 203.757C78.7527 203.489 79.2887 203.355 79.9035 203.355C80.4788 203.355 80.9872 203.481 81.4286 203.734C81.87 203.986 82.2128 204.333 82.4572 204.774C82.7094 205.208 82.8355 205.692 82.8355 206.228C82.8355 206.315 82.8316 206.406 82.8237 206.5C82.8237 206.595 82.8197 206.693 82.8119 206.796H78.3547C78.3862 207.253 78.5439 207.612 78.8276 207.872C79.1192 208.132 79.47 208.262 79.8798 208.262C80.1872 208.262 80.4434 208.195 80.6483 208.061C80.8611 207.919 81.0187 207.738 81.1212 207.517H82.6582C82.5478 207.887 82.3626 208.226 82.1025 208.534C81.8503 208.833 81.535 209.07 81.1567 209.243C80.7862 209.417 80.3646 209.503 79.8916 209.503ZM79.9035 204.585C79.533 204.585 79.2059 204.691 78.9222 204.904C78.6384 205.109 78.4572 205.424 78.3783 205.85H81.2986C81.2749 205.464 81.133 205.156 80.8729 204.928C80.6128 204.699 80.2897 204.585 79.9035 204.585ZM50.3821 223.361V215.085H53.4442C54.1062 215.085 54.654 215.196 55.0875 215.416C55.521 215.637 55.8442 215.941 56.057 216.327C56.2698 216.713 56.3762 217.147 56.3762 217.627C56.3762 218.084 56.2737 218.506 56.0688 218.892C55.8639 219.271 55.5447 219.578 55.1112 219.815C54.6777 220.043 54.122 220.157 53.4442 220.157H51.8954V223.361H50.3821ZM51.8954 218.928H53.3496C53.8777 218.928 54.256 218.814 54.4846 218.585C54.721 218.348 54.8392 218.029 54.8392 217.627C54.8392 217.217 54.721 216.898 54.4846 216.67C54.256 216.433 53.8777 216.315 53.3496 216.315H51.8954V218.928ZM57.6462 223.361V217.497H58.994L59.1359 218.597C59.3487 218.218 59.6364 217.919 59.9989 217.698C60.3694 217.47 60.8029 217.355 61.2994 217.355V218.951H60.8738C60.5428 218.951 60.2472 219.003 59.9871 219.105C59.727 219.208 59.5221 219.385 59.3723 219.637C59.2304 219.889 59.1595 220.24 59.1595 220.689V223.361H57.6462ZM63.2677 216.587C62.9919 216.587 62.7633 216.504 62.582 216.339C62.4086 216.173 62.3219 215.964 62.3219 215.712C62.3219 215.46 62.4086 215.255 62.582 215.097C62.7633 214.932 62.9919 214.849 63.2677 214.849C63.5436 214.849 63.7682 214.932 63.9416 215.097C64.1229 215.255 64.2135 215.46 64.2135 215.712C64.2135 215.964 64.1229 216.173 63.9416 216.339C63.7682 216.504 63.5436 216.587 63.2677 216.587ZM62.5111 223.361V217.497H64.0244V223.361H62.5111ZM68.595 223.503C67.996 223.503 67.4679 223.373 67.0108 223.113C66.5537 222.853 66.1911 222.49 65.9231 222.025C65.663 221.56 65.533 221.028 65.533 220.429C65.533 219.83 65.663 219.298 65.9231 218.833C66.1911 218.368 66.5537 218.006 67.0108 217.746C67.4679 217.485 67.996 217.355 68.595 217.355C69.3438 217.355 69.9744 217.552 70.4867 217.947C70.999 218.333 71.3261 218.869 71.468 219.554H69.8719C69.7931 219.271 69.6354 219.05 69.399 218.892C69.1704 218.727 68.8985 218.644 68.5832 218.644C68.1655 218.644 67.8108 218.802 67.5192 219.117C67.2276 219.432 67.0817 219.87 67.0817 220.429C67.0817 220.989 67.2276 221.426 67.5192 221.742C67.8108 222.057 68.1655 222.215 68.5832 222.215C68.8985 222.215 69.1704 222.136 69.399 221.978C69.6354 221.82 69.7931 221.596 69.8719 221.304H71.468C71.3261 221.966 70.999 222.498 70.4867 222.9C69.9744 223.302 69.3438 223.503 68.595 223.503ZM75.7786 223.503C75.1875 223.503 74.6634 223.377 74.2062 223.125C73.7491 222.873 73.3905 222.518 73.1304 222.061C72.8703 221.604 72.7402 221.076 72.7402 220.477C72.7402 219.87 72.8663 219.33 73.1185 218.857C73.3786 218.384 73.7333 218.017 74.1826 217.757C74.6397 217.489 75.1757 217.355 75.7905 217.355C76.3658 217.355 76.8742 217.481 77.3156 217.734C77.757 217.986 78.0998 218.333 78.3442 218.774C78.5964 219.208 78.7225 219.692 78.7225 220.228C78.7225 220.315 78.7186 220.406 78.7107 220.5C78.7107 220.595 78.7067 220.693 78.6988 220.796H74.2417C74.2732 221.253 74.4308 221.612 74.7146 221.872C75.0062 222.132 75.357 222.262 75.7668 222.262C76.0742 222.262 76.3304 222.195 76.5353 222.061C76.7481 221.919 76.9057 221.738 77.0082 221.517H78.5452C78.4348 221.887 78.2496 222.226 77.9895 222.534C77.7373 222.833 77.422 223.07 77.0437 223.243C76.6732 223.417 76.2515 223.503 75.7786 223.503ZM75.7905 218.585C75.42 218.585 75.0929 218.691 74.8092 218.904C74.5254 219.109 74.3441 219.424 74.2653 219.85H77.1855C77.1619 219.464 77.02 219.156 76.7599 218.928C76.4998 218.699 76.1767 218.585 75.7905 218.585Z" fill="#565656"/>
<path d="M38.9297 89.4526H117.051L149.344 38.582L213.628 125.798L319.806 44.3236L423.562 89.4526" stroke="#6FB35E" stroke-width="1.10472"/>
<path d="M38.9297 189.621H117.051L149.344 138.75L213.628 225.966L319.806 144.492L423.562 189.621" stroke="#C3C5C4" stroke-width="1.10472"/>
<circle cx="39.7977" cy="89.4247" r="1.65708" fill="#6FB35E"/>
<circle cx="116.802" cy="89.4247" r="1.65708" fill="#6FB35E"/>
<circle cx="213.985" cy="125.737" r="1.65708" fill="#6FB35E"/>
<circle cx="149.352" cy="38.4911" r="1.65708" fill="#6FB35E"/>
<circle cx="39.7977" cy="189.393" r="1.65708" fill="#0C0E1A"/>
<circle cx="116.802" cy="189.393" r="1.65708" fill="#0C0E1A"/>
<circle cx="213.985" cy="225.905" r="1.65708" fill="#0C0E1A"/>
<circle cx="149.352" cy="138.761" r="1.65708" fill="#0C0E1A"/>
<circle cx="319.598" cy="44.6004" r="1.65708" fill="#6FB35E"/>
<circle cx="319.598" cy="144.768" r="1.65708" fill="#0C0E1A"/>
</g>
</g>
</g>
<defs>
<clipPath id="clip0">
<rect width="559" height="273.677" fill="white" transform="translate(-30 -2)"/>
</clipPath>
</defs>
</svg>
