<svg width="384" height="270" viewBox="0 0 384 270" fill="none" xmlns="http://www.w3.org/2000/svg">
<mask id="mask0" mask-type="alpha" maskUnits="userSpaceOnUse" x="0" y="0" width="384" height="270">
<path d="M0 16C0 7.16344 7.16344 0 16 0H368C376.837 0 384 7.16344 384 16V270H0V16Z" fill="#C4C4C4"/>
</mask>
<g mask="url(#mask0)">
<rect x="-130" y="-2" width="643" height="274" rx="5.82292" fill="#FAFAFA"/>
</g>
<rect width="142" height="2" rx="1" transform="matrix(1 0 0 -1 35 51)" fill="#4B6A82" fill-opacity="0.1"/>
<rect width="84" height="2" rx="1" transform="matrix(1 0 0 -1 35 51)" fill="#6FB35E"/>
<g filter="url(#filter0_dd)">
<circle cx="118.5" cy="49.5" r="6.5" fill="#6FB35E"/>
<circle cx="118.5" cy="49.5" r="7" stroke="white"/>
</g>
<path d="M45.324 182.259L40.8074 185.139C40.3045 185.46 40 186.015 40 186.612V202.254C40 203.218 40.7819 204 41.7464 204H336.254C337.218 204 338 203.218 338 202.254V43.5713C338 42.7841 337.473 42.0943 336.714 41.8867L325.701 38.8768C325.497 38.821 325.304 38.7284 325.133 38.6036L320.092 34.9298C319.368 34.4018 318.361 34.5081 317.763 35.1757L312.75 40.7705C312.179 41.4074 311.231 41.5374 310.51 41.0776L307.887 39.4046C307.053 38.8727 305.944 39.1391 305.442 39.9918L300.648 48.1444L297.196 54.747C296.608 55.8709 295.056 56.0134 294.274 55.0154L292.39 52.613C292.269 52.4577 292.121 52.3242 291.955 52.2181L285.681 48.2172C285.035 47.805 284.195 47.8626 283.611 48.3592L278.993 52.2862C278.851 52.4065 278.73 52.5487 278.633 52.7074L273.911 60.4508C273.401 61.286 272.305 61.54 271.481 61.014L270.357 60.2972C270.076 60.1183 269.75 60.0233 269.418 60.0233H263.705C263.208 60.0233 262.735 59.8116 262.403 59.4411L257.91 54.4175C257.139 53.5552 255.758 53.6675 255.136 54.6432L251.536 60.2912C251.487 60.3681 251.444 60.4488 251.408 60.5324L247.693 69.0601C247.416 69.6972 246.787 70.1091 246.092 70.1091H243.317C242.933 70.1091 242.56 69.9828 242.255 69.7496L239.568 67.6932C238.646 66.9875 237.305 67.3616 236.881 68.4427L225.551 97.3442C225.313 97.9498 224.759 98.3733 224.112 98.4431L217.669 99.1381C216.891 99.222 216.264 99.8132 216.134 100.585L214.909 107.875C214.768 108.716 214.04 109.332 213.187 109.332H207.962C207.67 109.332 207.382 109.258 207.125 109.118L202.064 106.352C201.891 106.257 201.735 106.133 201.602 105.986L195.236 98.8918C194.719 98.3155 193.885 98.1485 193.186 98.4815L187.111 101.375C186.769 101.538 186.489 101.807 186.314 102.143L180.118 113.998C179.816 114.574 179.22 114.935 178.57 114.935H175.202C174.787 114.935 174.386 115.082 174.071 115.351L167.492 120.944C167.033 121.335 166.405 121.461 165.831 121.278L160.696 119.64C159.975 119.411 159.189 119.671 158.747 120.285L152.92 128.394C152.702 128.697 152.393 128.922 152.038 129.036L145.008 131.305C144.216 131.561 143.354 131.223 142.948 130.497L140.23 125.644C139.604 124.526 138.028 124.44 137.284 125.483L130.149 135.495C129.821 135.954 129.291 136.227 128.726 136.227H125.703C124.821 136.227 124.077 136.886 123.97 137.762L121.515 157.85C121.423 158.606 120.851 159.215 120.102 159.355L100.084 163.093C99.9787 163.113 99.8714 163.123 99.7638 163.123H89.8992C89.5665 163.123 89.2407 163.218 88.9602 163.397L82.5132 167.508C82.3267 167.627 82.1645 167.78 82.0352 167.96L78.2138 173.265C77.7294 173.937 76.8389 174.177 76.0825 173.838L71.4562 171.764C70.5074 171.339 69.3994 171.832 69.08 172.821L64.9058 185.751C64.4588 187.135 62.6138 187.398 61.7979 186.193L60.8158 184.743C60.1179 183.713 58.5971 183.722 57.912 184.761L56.392 187.066C55.6363 188.212 53.9149 188.078 53.3452 186.829L50.3692 180.305C49.84 179.145 48.2864 178.925 47.4556 179.892L45.7097 181.924C45.5982 182.054 45.4682 182.167 45.324 182.259Z" fill="url(#paint0_radial)"/>
<path d="M40 184.972L45.3238 181.592C45.4682 181.501 45.5983 181.388 45.71 181.259L47.4586 179.233C48.2897 178.27 49.8386 178.49 50.3685 179.646L53.3462 186.144C53.9168 187.389 55.6333 187.523 56.3897 186.381L57.9139 184.081C58.5995 183.046 60.1155 183.036 60.8137 184.063L61.8004 185.513C62.6173 186.714 64.4575 186.451 64.9055 185.069L69.0794 172.199C69.3995 171.212 70.5046 170.72 71.4522 171.143L76.0866 173.211C76.8413 173.548 77.7286 173.309 78.2131 172.64L82.0347 167.358C82.1643 167.179 82.3268 167.026 82.5135 166.908L88.9613 162.814C89.2411 162.637 89.5658 162.542 89.8973 162.542H99.7645C99.8716 162.542 99.9785 162.532 100.084 162.513L120.102 158.791C120.851 158.652 121.423 158.043 121.516 157.287L123.969 137.301C124.077 136.426 124.82 135.768 125.702 135.768H128.729C129.292 135.768 129.821 135.496 130.149 135.038L137.287 125.069C138.031 124.03 139.602 124.115 140.229 125.229L142.948 130.063C143.355 130.786 144.214 131.123 145.004 130.869L152.039 128.609C152.394 128.495 152.703 128.271 152.921 127.969L158.748 119.897C159.189 119.285 159.973 119.026 160.692 119.254L165.834 120.886C166.407 121.068 167.032 120.943 167.491 120.555L174.071 114.985C174.387 114.718 174.787 114.571 175.2 114.571H178.572C179.221 114.571 179.817 114.211 180.118 113.637L186.313 101.838C186.489 101.503 186.769 101.234 187.111 101.072L193.19 98.1897C193.887 97.8591 194.718 98.0253 195.235 98.5984L201.602 105.662C201.734 105.809 201.891 105.932 202.064 106.027L207.126 108.781C207.382 108.92 207.669 108.993 207.961 108.993H213.188C214.04 108.993 214.768 108.378 214.91 107.537L216.133 100.291C216.264 99.5195 216.891 98.9288 217.669 98.8453L224.113 98.1533C224.759 98.0839 225.314 97.6614 225.552 97.0568L236.881 68.2879C237.305 67.21 238.642 66.8366 239.564 67.5386L242.256 69.5896C242.56 69.8213 242.932 69.9468 243.314 69.9468H246.094C246.788 69.9468 247.416 69.5361 247.694 68.9005L251.408 60.4139C251.444 60.3301 251.488 60.2494 251.537 60.1724L255.137 54.548C255.759 53.5762 257.136 53.4641 257.907 54.3224L262.403 59.3271C262.735 59.6957 263.207 59.9063 263.703 59.9063H269.42C269.751 59.9063 270.076 60.0007 270.356 60.1783L271.485 60.8952C272.308 61.418 273.4 61.1648 273.91 60.333L278.632 52.6242C278.729 52.4657 278.851 52.3236 278.993 52.2035L283.613 48.2925C284.197 47.799 285.033 47.7417 285.678 48.1511L291.955 52.1361C292.121 52.2418 292.269 52.375 292.391 52.5299L294.277 54.9244C295.059 55.9183 296.606 55.776 297.195 54.6559L300.648 48.0809L305.443 39.9639C305.944 39.1145 307.05 38.849 307.882 39.3777L310.514 41.0482C311.233 41.505 312.178 41.3756 312.748 40.7421L317.765 35.1682C318.363 34.5041 319.365 34.3983 320.089 34.923L325.133 38.5831C325.304 38.7072 325.496 38.7992 325.7 38.8547L338 42.2012" stroke="#6FB35E" stroke-width="1.7464" stroke-linecap="round" stroke-linejoin="round"/>
<path d="M41.5089 218.182V212.377L40.3039 212.66V211.633L42.0747 210.847H42.9025V218.182H41.5089ZM44.2933 218.182V210.637H45.6345V213.781C45.8091 213.494 46.0432 213.271 46.3366 213.11C46.6369 212.942 46.9792 212.859 47.3634 212.859C48.0061 212.859 48.5021 213.061 48.8514 213.466C49.2076 213.872 49.3858 214.465 49.3858 215.248V218.182H48.055V215.373C48.055 214.926 47.9642 214.584 47.7826 214.347C47.6079 214.109 47.3285 213.99 46.9443 213.99C46.5671 213.99 46.2527 214.123 46.0012 214.388C45.7568 214.654 45.6345 215.024 45.6345 215.499V218.182H44.2933Z" fill="#737373"/>
<path d="M93.0284 218.182V212.377L91.8234 212.66V211.633L93.5943 210.847H94.422V218.182H93.0284ZM98.2019 218.307C97.7129 218.307 97.2763 218.189 96.8921 217.951C96.5079 217.714 96.204 217.389 95.9805 216.977C95.7569 216.564 95.6452 216.096 95.6452 215.573C95.6452 215.049 95.7569 214.584 95.9805 214.179C96.204 213.767 96.5079 213.445 96.8921 213.215C97.2763 212.977 97.7129 212.859 98.2019 212.859C98.5931 212.859 98.9354 212.932 99.2288 213.079C99.5222 213.225 99.7597 213.431 99.9413 213.697V210.637H101.283V218.182H100.088L99.9413 217.438C99.7736 217.668 99.5501 217.871 99.2707 218.045C98.9982 218.22 98.642 218.307 98.2019 218.307ZM98.4848 217.134C98.9179 217.134 99.2707 216.991 99.5431 216.704C99.8225 216.411 99.9622 216.037 99.9622 215.583C99.9622 215.129 99.8225 214.759 99.5431 214.472C99.2707 214.179 98.9179 214.032 98.4848 214.032C98.0587 214.032 97.7059 214.175 97.4265 214.462C97.1471 214.748 97.0073 215.118 97.0073 215.573C97.0073 216.027 97.1471 216.4 97.4265 216.694C97.7059 216.987 98.0587 217.134 98.4848 217.134Z" fill="#737373"/>
<path d="M144.548 218.182V212.377L143.343 212.66V211.633L145.114 210.847H145.942V218.182H144.548ZM148.349 218.182L146.829 212.984H148.16L149.061 216.725L150.109 212.984H151.597L152.645 216.725L153.556 212.984H154.887L153.357 218.182H151.964L150.853 214.294L149.742 218.182H148.349Z" fill="#737373"/>
<rect x="196.301" y="204.301" width="41.9424" height="19.9856" rx="9.99279" fill="#A2B2BE"/>
<path d="M211.782 217.793V211.988L210.577 212.271V211.244L212.348 210.458H213.176V217.793H211.782ZM214.567 217.793V212.596H215.751L215.866 213.298C216.034 213.046 216.254 212.847 216.526 212.7C216.806 212.547 217.127 212.47 217.49 212.47C218.294 212.47 218.863 212.781 219.198 213.403C219.387 213.116 219.638 212.889 219.953 212.721C220.274 212.554 220.623 212.47 221 212.47C221.678 212.47 222.198 212.673 222.562 213.078C222.925 213.483 223.107 214.077 223.107 214.859V217.793H221.765V214.985C221.765 214.538 221.678 214.195 221.503 213.958C221.336 213.72 221.074 213.602 220.718 213.602C220.354 213.602 220.061 213.734 219.837 214C219.621 214.265 219.513 214.635 219.513 215.111V217.793H218.171V214.985C218.171 214.538 218.084 214.195 217.909 213.958C217.735 213.72 217.466 213.602 217.102 213.602C216.746 213.602 216.456 213.734 216.233 214C216.016 214.265 215.908 214.635 215.908 215.111V217.793H214.567Z" fill="white"/>
<path d="M280.794 218.182V212.377L279.589 212.66V211.633L281.36 210.847H282.188V218.182H280.794ZM284.228 220.487L285.433 217.836H285.119L283.096 212.984H284.553L286.009 216.641L287.529 212.984H288.954L285.653 220.487H284.228Z" fill="#737373"/>
<path d="M333.278 218.307C332.831 218.307 332.464 218.238 332.177 218.098C331.891 217.951 331.678 217.759 331.538 217.522C331.398 217.284 331.329 217.022 331.329 216.736C331.329 216.254 331.517 215.862 331.894 215.562C332.272 215.262 332.837 215.111 333.592 215.111H334.912V214.986C334.912 214.629 334.811 214.368 334.608 214.2C334.406 214.032 334.154 213.948 333.854 213.948C333.581 213.948 333.344 214.015 333.141 214.147C332.939 214.273 332.813 214.462 332.764 214.713H331.454C331.489 214.336 331.615 214.008 331.832 213.728C332.055 213.449 332.342 213.236 332.691 213.089C333.04 212.935 333.431 212.859 333.864 212.859C334.605 212.859 335.188 213.044 335.614 213.414C336.04 213.784 336.253 214.308 336.253 214.986V218.182H335.111L334.986 217.343C334.832 217.623 334.615 217.853 334.336 218.035C334.063 218.217 333.711 218.307 333.278 218.307ZM333.581 217.26C333.966 217.26 334.263 217.134 334.472 216.882C334.689 216.631 334.825 216.32 334.881 215.95H333.739C333.382 215.95 333.127 216.016 332.974 216.149C332.82 216.275 332.743 216.432 332.743 216.62C332.743 216.823 332.82 216.98 332.974 217.092C333.127 217.204 333.33 217.26 333.581 217.26ZM337.533 218.182V210.637H338.875V218.182H337.533ZM340.245 218.182V210.637H341.586V218.182H340.245Z" fill="#737373"/>
<defs>
<filter id="filter0_dd" x="103.718" y="39.2691" width="29.5646" height="29.5646" filterUnits="userSpaceOnUse" color-interpolation-filters="sRGB">
<feFlood flood-opacity="0" result="BackgroundImageFix"/>
<feColorMatrix in="SourceAlpha" type="matrix" values="0 0 0 0 0 0 0 0 0 0 0 0 0 0 0 0 0 0 127 0"/>
<feOffset dy="4.55142"/>
<feGaussianBlur stdDeviation="3.64114"/>
<feColorMatrix type="matrix" values="0 0 0 0 0.215686 0 0 0 0 0.254902 0 0 0 0 0.317647 0 0 0 0.01 0"/>
<feBlend mode="normal" in2="BackgroundImageFix" result="effect1_dropShadow"/>
<feColorMatrix in="SourceAlpha" type="matrix" values="0 0 0 0 0 0 0 0 0 0 0 0 0 0 0 0 0 0 127 0"/>
<feOffset dy="1.82057"/>
<feGaussianBlur stdDeviation="1.36543"/>
<feColorMatrix type="matrix" values="0 0 0 0 0.215686 0 0 0 0 0.254902 0 0 0 0 0.317647 0 0 0 0.05 0"/>
<feBlend mode="normal" in2="effect1_dropShadow" result="effect2_dropShadow"/>
<feBlend mode="normal" in="SourceGraphic" in2="effect2_dropShadow" result="shape"/>
</filter>
<radialGradient id="paint0_radial" cx="0" cy="0" r="1" gradientUnits="userSpaceOnUse" gradientTransform="translate(182.49 85.68) rotate(46.0498) scale(100.119 203.302)">
<stop stop-color="#6FB35E" stop-opacity="0.12"/>
<stop offset="1" stop-color="white" stop-opacity="0"/>
</radialGradient>
</defs>
</svg>
