<svg width="98" height="24" viewBox="0 0 98 24" fill="none" xmlns="http://www.w3.org/2000/svg">
<path d="M31.102 17.418C30.4487 17.418 29.8653 17.2593 29.352 16.942C28.8387 16.6247 28.4327 16.1907 28.134 15.64C27.8353 15.0893 27.686 14.464 27.686 13.764C27.686 13.064 27.8353 12.4433 28.134 11.902C28.4327 11.3513 28.8387 10.922 29.352 10.614C29.8653 10.2967 30.4487 10.138 31.102 10.138C31.6247 10.138 32.082 10.236 32.474 10.432C32.866 10.628 33.1833 10.9033 33.426 11.258V7.17H35.218V17.25H33.622L33.426 16.256C33.202 16.564 32.9033 16.8347 32.53 17.068C32.166 17.3013 31.69 17.418 31.102 17.418ZM31.48 15.85C32.0587 15.85 32.53 15.6587 32.894 15.276C33.2673 14.884 33.454 14.3847 33.454 13.778C33.454 13.1713 33.2673 12.6767 32.894 12.294C32.53 11.902 32.0587 11.706 31.48 11.706C30.9107 11.706 30.4393 11.8973 30.066 12.28C29.6927 12.6627 29.506 13.1573 29.506 13.764C29.506 14.3707 29.6927 14.87 30.066 15.262C30.4393 15.654 30.9107 15.85 31.48 15.85ZM40.1368 17.25C39.4088 17.25 38.8255 17.0727 38.3868 16.718C37.9481 16.3633 37.7288 15.7333 37.7288 14.828V11.804H36.5388V10.306H37.7288L37.9388 8.444H39.5208V10.306H41.3968V11.804H39.5208V14.842C39.5208 15.178 39.5908 15.4113 39.7308 15.542C39.8801 15.6633 40.1321 15.724 40.4868 15.724H41.3548V17.25H40.1368ZM42.9354 17.25V10.306H44.5314L44.6994 11.608C44.9514 11.16 45.2921 10.8053 45.7214 10.544C46.1601 10.2733 46.6734 10.138 47.2614 10.138V12.028H46.7574C46.3654 12.028 46.0154 12.0887 45.7074 12.21C45.3994 12.3313 45.1567 12.5413 44.9794 12.84C44.8114 13.1387 44.7274 13.554 44.7274 14.086V17.25H42.9354ZM50.8802 17.418C50.2828 17.418 49.7928 17.3247 49.4102 17.138C49.0275 16.942 48.7428 16.6853 48.5562 16.368C48.3695 16.0507 48.2762 15.7007 48.2762 15.318C48.2762 14.674 48.5282 14.1513 49.0322 13.75C49.5362 13.3487 50.2922 13.148 51.3002 13.148H53.0642V12.98C53.0642 12.504 52.9288 12.154 52.6582 11.93C52.3875 11.706 52.0515 11.594 51.6502 11.594C51.2862 11.594 50.9688 11.6827 50.6982 11.86C50.4275 12.028 50.2595 12.28 50.1942 12.616H48.4442C48.4908 12.112 48.6588 11.6733 48.9482 11.3C49.2468 10.9267 49.6295 10.642 50.0962 10.446C50.5628 10.2407 51.0855 10.138 51.6642 10.138C52.6535 10.138 53.4328 10.3853 54.0022 10.88C54.5715 11.3747 54.8562 12.0747 54.8562 12.98V17.25H53.3302L53.1622 16.13C52.9568 16.5033 52.6675 16.8113 52.2942 17.054C51.9302 17.2967 51.4588 17.418 50.8802 17.418ZM51.2862 16.018C51.7995 16.018 52.1962 15.85 52.4762 15.514C52.7655 15.178 52.9475 14.7627 53.0222 14.268H51.4962C51.0202 14.268 50.6795 14.3567 50.4742 14.534C50.2688 14.702 50.1662 14.912 50.1662 15.164C50.1662 15.4347 50.2688 15.6447 50.4742 15.794C50.6795 15.9433 50.9502 16.018 51.2862 16.018ZM59.7583 17.418C59.1049 17.418 58.5216 17.2593 58.0083 16.942C57.4949 16.6247 57.0889 16.1907 56.7903 15.64C56.4916 15.0893 56.3423 14.464 56.3423 13.764C56.3423 13.064 56.4916 12.4433 56.7903 11.902C57.0889 11.3513 57.4949 10.922 58.0083 10.614C58.5216 10.2967 59.1049 10.138 59.7583 10.138C60.2809 10.138 60.7383 10.236 61.1303 10.432C61.5223 10.628 61.8396 10.9033 62.0823 11.258V7.17H63.8743V17.25H62.2783L62.0823 16.256C61.8583 16.564 61.5596 16.8347 61.1863 17.068C60.8223 17.3013 60.3463 17.418 59.7583 17.418ZM60.1363 15.85C60.7149 15.85 61.1863 15.6587 61.5503 15.276C61.9236 14.884 62.1103 14.3847 62.1103 13.778C62.1103 13.1713 61.9236 12.6767 61.5503 12.294C61.1863 11.902 60.7149 11.706 60.1363 11.706C59.5669 11.706 59.0956 11.8973 58.7223 12.28C58.3489 12.6627 58.1623 13.1573 58.1623 13.764C58.1623 14.3707 58.3489 14.87 58.7223 15.262C59.0956 15.654 59.5669 15.85 60.1363 15.85ZM69.0731 17.418C68.3731 17.418 67.7524 17.2687 67.2111 16.97C66.6697 16.6713 66.2451 16.2513 65.9371 15.71C65.6291 15.1687 65.4751 14.5433 65.4751 13.834C65.4751 13.1153 65.6244 12.476 65.9231 11.916C66.2311 11.356 66.6511 10.922 67.1831 10.614C67.7244 10.2967 68.3591 10.138 69.0871 10.138C69.7684 10.138 70.3704 10.2873 70.8931 10.586C71.4157 10.8847 71.8217 11.2953 72.1111 11.818C72.4097 12.3313 72.5591 12.9053 72.5591 13.54C72.5591 13.6427 72.5544 13.75 72.5451 13.862C72.5451 13.974 72.5404 14.0907 72.5311 14.212H67.2531C67.2904 14.7533 67.4771 15.178 67.8131 15.486C68.1584 15.794 68.5737 15.948 69.0591 15.948C69.4231 15.948 69.7264 15.8687 69.9691 15.71C70.2211 15.542 70.4077 15.3273 70.5291 15.066H72.3491C72.2184 15.5047 71.9991 15.906 71.6911 16.27C71.3924 16.6247 71.0191 16.9047 70.5711 17.11C70.1324 17.3153 69.6331 17.418 69.0731 17.418ZM69.0871 11.594C68.6484 11.594 68.2611 11.72 67.9251 11.972C67.5891 12.2147 67.3744 12.588 67.2811 13.092H70.7391C70.7111 12.6347 70.5431 12.2707 70.2351 12C69.9271 11.7293 69.5444 11.594 69.0871 11.594ZM74.8363 17.348C74.5096 17.348 74.2389 17.2453 74.0243 17.04C73.8189 16.8347 73.7163 16.5873 73.7163 16.298C73.7163 15.9993 73.8189 15.7473 74.0243 15.542C74.2389 15.3367 74.5096 15.234 74.8363 15.234C75.1629 15.234 75.4289 15.3367 75.6343 15.542C75.8489 15.7473 75.9563 15.9993 75.9563 16.298C75.9563 16.5873 75.8489 16.8347 75.6343 17.04C75.4289 17.2453 75.1629 17.348 74.8363 17.348ZM80.7615 17.418C80.0895 17.418 79.4829 17.264 78.9415 16.956C78.4095 16.648 77.9849 16.2233 77.6675 15.682C77.3595 15.1313 77.2055 14.4967 77.2055 13.778C77.2055 13.0593 77.3642 12.4293 77.6815 11.888C77.9989 11.3373 78.4235 10.908 78.9555 10.6C79.4969 10.292 80.1035 10.138 80.7755 10.138C81.4382 10.138 82.0355 10.292 82.5675 10.6C83.1089 10.908 83.5335 11.3373 83.8415 11.888C84.1589 12.4293 84.3175 13.0593 84.3175 13.778C84.3175 14.4967 84.1589 15.1313 83.8415 15.682C83.5335 16.2233 83.1089 16.648 82.5675 16.956C82.0262 17.264 81.4242 17.418 80.7615 17.418ZM80.7615 15.864C81.2282 15.864 81.6342 15.6913 81.9795 15.346C82.3249 14.9913 82.4975 14.4687 82.4975 13.778C82.4975 13.0873 82.3249 12.5693 81.9795 12.224C81.6342 11.8693 81.2329 11.692 80.7755 11.692C80.2995 11.692 79.8889 11.8693 79.5435 12.224C79.2075 12.5693 79.0395 13.0873 79.0395 13.778C79.0395 14.4687 79.2075 14.9913 79.5435 15.346C79.8889 15.6913 80.2949 15.864 80.7615 15.864ZM85.9198 17.25V10.306H87.5158L87.6838 11.608C87.9358 11.16 88.2764 10.8053 88.7058 10.544C89.1444 10.2733 89.6578 10.138 90.2458 10.138V12.028H89.7418C89.3498 12.028 88.9998 12.0887 88.6918 12.21C88.3838 12.3313 88.1411 12.5413 87.9638 12.84C87.7958 13.1387 87.7118 13.554 87.7118 14.086V17.25H85.9198ZM94.2465 15.178C93.9105 15.178 93.5978 15.1407 93.3085 15.066L92.7905 15.584C92.9492 15.668 93.1638 15.738 93.4345 15.794C93.7052 15.85 94.1438 15.906 94.7505 15.962C95.6745 16.046 96.3465 16.2653 96.7665 16.62C97.1865 16.9747 97.3965 17.4647 97.3965 18.09C97.3965 18.5007 97.2845 18.888 97.0605 19.252C96.8365 19.6253 96.4912 19.924 96.0245 20.148C95.5578 20.3813 94.9605 20.498 94.2325 20.498C93.2432 20.498 92.4452 20.3113 91.8385 19.938C91.2318 19.574 90.9285 19.0233 90.9285 18.286C90.9285 17.6607 91.2318 17.1193 91.8385 16.662C91.6518 16.578 91.4885 16.4893 91.3485 16.396C91.2178 16.3027 91.1012 16.2047 90.9985 16.102V15.78L92.2165 14.492C91.6752 14.016 91.4045 13.4047 91.4045 12.658C91.4045 12.1913 91.5165 11.7667 91.7405 11.384C91.9738 11.0013 92.3005 10.698 92.7205 10.474C93.1405 10.25 93.6492 10.138 94.2465 10.138C94.6385 10.138 95.0025 10.194 95.3385 10.306H97.9705V11.398L96.7805 11.482C96.9672 11.8367 97.0605 12.2287 97.0605 12.658C97.0605 13.1247 96.9485 13.5493 96.7245 13.932C96.5005 14.3147 96.1738 14.618 95.7445 14.842C95.3245 15.066 94.8252 15.178 94.2465 15.178ZM94.2465 13.806C94.6105 13.806 94.9092 13.708 95.1425 13.512C95.3852 13.316 95.5065 13.036 95.5065 12.672C95.5065 12.308 95.3852 12.028 95.1425 11.832C94.9092 11.636 94.6105 11.538 94.2465 11.538C93.8638 11.538 93.5558 11.636 93.3225 11.832C93.0892 12.028 92.9725 12.308 92.9725 12.672C92.9725 13.036 93.0892 13.316 93.3225 13.512C93.5558 13.708 93.8638 13.806 94.2465 13.806ZM92.5665 18.104C92.5665 18.4493 92.7252 18.706 93.0425 18.874C93.3692 19.0513 93.7658 19.14 94.2325 19.14C94.6805 19.14 95.0445 19.0467 95.3245 18.86C95.6045 18.6827 95.7445 18.44 95.7445 18.132C95.7445 17.88 95.6512 17.67 95.4645 17.502C95.2872 17.334 94.9278 17.2313 94.3865 17.194C94.0038 17.166 93.6492 17.124 93.3225 17.068C93.0518 17.2173 92.8558 17.3807 92.7345 17.558C92.6225 17.7353 92.5665 17.9173 92.5665 18.104Z" fill="#69ABE8"/>
<path d="M3 4.89453L-3.08185e-08 4.89453C-9.03847e-08 10.693 4.70156 15.3945 10.5 15.3945L10.5 22.1445C10.5 22.557 10.8375 22.8945 11.25 22.8945L12.75 22.8945C13.1625 22.8945 13.5 22.557 13.5 22.1445L13.5 15.3945C13.5 9.59609 8.79844 4.89453 3 4.89453ZM21 1.89453C17.0531 1.89453 13.6219 4.07422 11.8266 7.29453C13.125 8.71016 14.0859 10.4305 14.5922 12.3383C19.875 11.7898 24 7.32734 24 1.89453L21 1.89453Z" fill="#69ABE8"/>
</svg>
