<svg width="79" height="19" viewBox="0 0 79 19" fill="none" xmlns="http://www.w3.org/2000/svg">
<path d="M6.62744 18.2909C5.49597 18.2909 4.48573 18.0162 3.59672 17.4666C2.70771 16.917 2.00458 16.1654 1.48734 15.2117C0.9701 14.2581 0.711478 13.1751 0.711478 11.9628C0.711478 10.7505 0.9701 9.67563 1.48734 8.73813C2.00458 7.78446 2.70771 7.04093 3.59672 6.50752C4.48573 5.95795 5.49597 5.68317 6.62744 5.68317C7.53261 5.68317 8.32464 5.85289 9.00352 6.19233C9.6824 6.53177 10.232 7.0086 10.6522 7.62283V0.543073H13.7557V18H10.9917L10.6522 16.2786C10.2643 16.812 9.74705 17.2807 9.1005 17.6848C8.47011 18.0889 7.64576 18.2909 6.62744 18.2909ZM7.28207 15.5754C8.28423 15.5754 9.1005 15.2441 9.73089 14.5814C10.3774 13.9025 10.7007 13.0377 10.7007 11.9871C10.7007 10.9364 10.3774 10.0797 9.73089 9.41701C9.1005 8.73813 8.28423 8.39869 7.28207 8.39869C6.29608 8.39869 5.47981 8.73005 4.83325 9.39276C4.1867 10.0555 3.86342 10.9122 3.86342 11.9628C3.86342 13.0135 4.1867 13.8782 4.83325 14.5571C5.47981 15.236 6.29608 15.5754 7.28207 15.5754ZM22.2743 18C21.0135 18 20.0033 17.6929 19.2436 17.0787C18.4839 16.4644 18.104 15.3734 18.104 13.8055V8.56841H16.0431V5.97412H18.104L18.4677 2.74943H21.2075V5.97412H24.4564V8.56841H21.2075V13.8297C21.2075 14.4116 21.3287 14.8157 21.5711 15.042C21.8298 15.2522 22.2662 15.3572 22.8804 15.3572H24.3836V18H22.2743ZM27.121 18V5.97412H29.885L30.1759 8.22897C30.6123 7.45311 31.2023 6.83888 31.9459 6.38629C32.7056 5.91754 33.5946 5.68317 34.6129 5.68317V8.95634H33.74C33.0612 8.95634 32.455 9.06141 31.9216 9.27154C31.3882 9.48167 30.9679 9.84535 30.6608 10.3626C30.3699 10.8798 30.2244 11.5991 30.2244 12.5205V18H27.121ZM40.88 18.2909C39.8455 18.2909 38.9969 18.1293 38.3342 17.806C37.6715 17.4666 37.1785 17.0221 36.8552 16.4725C36.532 15.9229 36.3703 15.3168 36.3703 14.6541C36.3703 13.5388 36.8067 12.6336 37.6796 11.9386C38.5524 11.2435 39.8617 10.896 41.6074 10.896H44.6624V10.6051C44.6624 9.7807 44.428 9.17455 43.9592 8.78662C43.4905 8.39869 42.9086 8.20472 42.2135 8.20472C41.5832 8.20472 41.0336 8.35828 40.5648 8.66539C40.0961 8.95634 39.8051 9.39276 39.692 9.97466H36.6613C36.7421 9.10182 37.033 8.34212 37.5341 7.69556C38.0514 7.04901 38.7141 6.55601 39.5223 6.21657C40.3305 5.86097 41.2356 5.68317 42.2378 5.68317C43.9512 5.68317 45.3008 6.11151 46.2868 6.96819C47.2728 7.82487 47.7658 9.03716 47.7658 10.6051V18H45.123L44.8321 16.0603C44.4765 16.7069 43.9754 17.2403 43.3288 17.6606C42.6985 18.0808 41.8822 18.2909 40.88 18.2909ZM41.5832 15.8664C42.4722 15.8664 43.1591 15.5754 43.644 14.9935C44.1451 14.4116 44.4603 13.6923 44.5896 12.8357H41.9468C41.1225 12.8357 40.5325 12.9892 40.1769 13.2963C39.8213 13.5873 39.6435 13.951 39.6435 14.3874C39.6435 14.8561 39.8213 15.2198 40.1769 15.4784C40.5325 15.7371 41.0013 15.8664 41.5832 15.8664ZM56.2554 18.2909C55.124 18.2909 54.1137 18.0162 53.2247 17.4666C52.3357 16.917 51.6326 16.1654 51.1153 15.2117C50.5981 14.2581 50.3395 13.1751 50.3395 11.9628C50.3395 10.7505 50.5981 9.67563 51.1153 8.73813C51.6326 7.78446 52.3357 7.04093 53.2247 6.50752C54.1137 5.95795 55.124 5.68317 56.2554 5.68317C57.1606 5.68317 57.9526 5.85289 58.6315 6.19233C59.3104 6.53177 59.86 7.0086 60.2802 7.62283V0.543073H63.3837V18H60.6197L60.2802 16.2786C59.8923 16.812 59.375 17.2807 58.7285 17.6848C58.0981 18.0889 57.2737 18.2909 56.2554 18.2909ZM56.9101 15.5754C57.9122 15.5754 58.7285 15.2441 59.3589 14.5814C60.0054 13.9025 60.3287 13.0377 60.3287 11.9871C60.3287 10.9364 60.0054 10.0797 59.3589 9.41701C58.7285 8.73813 57.9122 8.39869 56.9101 8.39869C55.9241 8.39869 55.1078 8.73005 54.4612 9.39276C53.8147 10.0555 53.4914 10.9122 53.4914 11.9628C53.4914 13.0135 53.8147 13.8782 54.4612 14.5571C55.1078 15.236 55.9241 15.5754 56.9101 15.5754ZM72.3872 18.2909C71.1749 18.2909 70.1 18.0323 69.1625 17.5151C68.225 16.9978 67.4895 16.2705 66.9561 15.333C66.4227 14.3955 66.156 13.3125 66.156 12.084C66.156 10.8394 66.4146 9.73221 66.9319 8.76238C67.4653 7.79255 68.1927 7.04093 69.114 6.50752C70.0515 5.95795 71.1506 5.68317 72.4114 5.68317C73.5914 5.68317 74.6339 5.94179 75.5391 6.45903C76.4443 6.97627 77.1474 7.68748 77.6485 8.59266C78.1657 9.48167 78.4244 10.4757 78.4244 11.5749C78.4244 11.7527 78.4163 11.9386 78.4001 12.1325C78.4001 12.3265 78.392 12.5285 78.3759 12.7387H69.2352C69.2999 13.6762 69.6232 14.4116 70.205 14.945C70.8031 15.4784 71.5224 15.7451 72.3629 15.7451C72.9933 15.7451 73.5186 15.6078 73.9389 15.333C74.3753 15.042 74.6986 14.6703 74.9087 14.2177H78.0607C77.8344 14.9774 77.4545 15.6724 76.9211 16.3028C76.4039 16.917 75.7573 17.4019 74.9815 17.7575C74.2218 18.1131 73.357 18.2909 72.3872 18.2909ZM72.4114 8.20472C71.6517 8.20472 70.9809 8.42294 70.399 8.85936C69.8171 9.27962 69.4454 9.92617 69.2837 10.799H75.2724C75.2239 10.007 74.933 9.3766 74.3996 8.90785C73.8662 8.4391 73.2034 8.20472 72.4114 8.20472Z" fill="#737373"/>
</svg>
