<svg width="32" height="32" viewBox="0 0 32 32" fill="none" xmlns="http://www.w3.org/2000/svg">
<path fill-rule="evenodd" clip-rule="evenodd" d="M16.0018 1.84405C8.18485 1.84405 1.84796 8.18094 1.84796 15.9979C1.84796 23.8148 8.18485 30.1517 16.0018 30.1517C23.8188 30.1517 30.1556 23.8148 30.1556 15.9979C30.1556 8.18094 23.8188 1.84405 16.0018 1.84405ZM0.617188 15.9979C0.617188 7.50121 7.50511 0.613281 16.0018 0.613281C24.4985 0.613281 31.3864 7.50121 31.3864 15.9979C31.3864 24.4946 24.4985 31.3825 16.0018 31.3825C7.50511 31.3825 0.617188 24.4946 0.617188 15.9979Z" fill="#EAEAEA"/>
<path d="M22.75 12.6217C22.282 12.8293 21.7856 12.9654 21.2772 13.0257C21.8127 12.7053 22.2134 12.2011 22.4047 11.6071C21.9013 11.906 21.3504 12.1165 20.776 12.2294C20.424 11.8545 19.9676 11.5941 19.4658 11.4818C18.964 11.3696 18.4401 11.4107 17.962 11.5998C17.4839 11.789 17.0736 12.1174 16.7845 12.5426C16.4953 12.9677 16.3406 13.47 16.3403 13.9842C16.3401 14.1809 16.3623 14.377 16.4064 14.5687C15.3868 14.5176 14.3894 14.2526 13.4788 13.7911C12.5683 13.3295 11.765 12.6816 11.121 11.8895C10.7931 12.454 10.6927 13.1223 10.8401 13.7583C10.9875 14.3943 11.3717 14.9502 11.9145 15.3129C11.5072 15.3003 11.1089 15.1904 10.7528 14.9923V15.0247C10.7529 15.6168 10.9578 16.1906 11.3327 16.6488C11.7076 17.1071 12.2294 17.4216 12.8098 17.5389C12.5896 17.599 12.3623 17.6292 12.1341 17.6288C11.9722 17.6288 11.8106 17.6137 11.6514 17.5837C11.8153 18.0931 12.1342 18.5385 12.5637 18.8578C12.9931 19.177 13.5115 19.3542 14.0465 19.3644C12.9712 20.2064 11.6061 20.5881 10.25 20.4259C11.4224 21.1796 12.787 21.5797 14.1808 21.5785C15.1407 21.5851 16.0924 21.4009 16.9806 21.0366C17.8687 20.6722 18.6756 20.1351 19.3545 19.4563C20.0333 18.7775 20.5704 17.9706 20.9347 17.0824C21.299 16.1942 21.4833 15.2426 21.4767 14.2826C21.4767 14.1714 21.4741 14.0608 21.4688 13.9509C21.9714 13.5874 22.4052 13.1373 22.75 12.6217V12.6217Z" fill="#565656"/>
</svg>
