<svg width="32" height="32" viewBox="0 0 32 32" fill="none" xmlns="http://www.w3.org/2000/svg">
<path fill-rule="evenodd" clip-rule="evenodd" d="M16.0018 1.84405C8.18485 1.84405 1.84796 8.18094 1.84796 15.9979C1.84796 23.8148 8.18485 30.1517 16.0018 30.1517C23.8188 30.1517 30.1556 23.8148 30.1556 15.9979C30.1556 8.18094 23.8188 1.84405 16.0018 1.84405ZM0.617188 15.9979C0.617188 7.50121 7.50511 0.613281 16.0018 0.613281C24.4985 0.613281 31.3864 7.50121 31.3864 15.9979C31.3864 24.4946 24.4985 31.3825 16.0018 31.3825C7.50511 31.3825 0.617188 24.4946 0.617188 15.9979Z" fill="#EAEAEA"/>
<path d="M21.3346 11.9993C21.3346 11.9993 19.806 10.8027 18.0013 10.666L17.8386 10.9917C19.47 11.3913 20.2186 11.9627 21.0013 12.666C19.6523 11.9773 18.3213 11.3327 16.0013 11.3327C13.6813 11.3327 12.3503 11.9773 11.0013 12.666C11.784 11.9627 12.6746 11.3273 14.164 10.9917L14.0013 10.666C12.108 10.8443 10.668 11.9993 10.668 11.9993C10.668 11.9993 8.96097 14.4747 8.66797 19.3327C10.388 21.317 13.0013 21.3327 13.0013 21.3327L13.548 20.6047C12.62 20.282 11.5733 19.7063 10.668 18.666C11.7473 19.4827 13.3763 20.3327 16.0013 20.3327C18.6263 20.3327 20.2553 19.4827 21.3346 18.666C20.4296 19.7063 19.383 20.282 18.4546 20.6047L19.0013 21.3327C19.0013 21.3327 21.6146 21.317 23.3346 19.3327C23.0416 14.4747 21.3346 11.9993 21.3346 11.9993ZM13.8346 17.9993C13.19 17.9993 12.668 17.4027 12.668 16.666C12.668 15.9293 13.19 15.3327 13.8346 15.3327C14.4793 15.3327 15.0013 15.9293 15.0013 16.666C15.0013 17.4027 14.4793 17.9993 13.8346 17.9993ZM18.168 17.9993C17.5233 17.9993 17.0013 17.4027 17.0013 16.666C17.0013 15.9293 17.5233 15.3327 18.168 15.3327C18.8126 15.3327 19.3346 15.9293 19.3346 16.666C19.3346 17.4027 18.8126 17.9993 18.168 17.9993Z" fill="#565656"/>
</svg>
