<svg width="32" height="32" viewBox="0 0 32 32" fill="none" xmlns="http://www.w3.org/2000/svg">
<path fill-rule="evenodd" clip-rule="evenodd" d="M16.0018 1.84405C8.18485 1.84405 1.84796 8.18094 1.84796 15.9979C1.84796 23.8148 8.18485 30.1517 16.0018 30.1517C23.8188 30.1517 30.1556 23.8148 30.1556 15.9979C30.1556 8.18094 23.8188 1.84405 16.0018 1.84405ZM0.617188 15.9979C0.617188 7.50121 7.50511 0.613281 16.0018 0.613281C24.4985 0.613281 31.3864 7.50121 31.3864 15.9979C31.3864 24.4946 24.4985 31.3825 16.0018 31.3825C7.50511 31.3825 0.617188 24.4946 0.617188 15.9979Z" fill="#EAEAEA"/>
<g clip-path="url(#clip0)">
<path d="M9.99865 13.177H10.4732C10.6493 13.177 10.8985 13.3907 10.8985 13.5275V18.4862C10.8985 18.6231 10.6493 18.8099 10.4732 18.8099H9.99865V19.9869H14.2977V18.8099H13.3979V13.5974H13.442L15.5432 19.9869H17.17L19.2442 13.5974H19.2967V18.8099H18.3969V19.9869H21.9961V18.8099H21.5352C21.3454 18.8099 21.0963 18.6231 21.0963 18.4862V13.5275C21.0963 13.3907 21.3454 13.177 21.5352 13.177H21.9961V12H17.4955L16.0178 16.624H15.977L14.4858 12H9.99865V13.177Z" fill="#565656"/>
</g>
<defs>
<clipPath id="clip0">
<rect width="12" height="8" fill="white" transform="matrix(-1 0 0 1 22 12)"/>
</clipPath>
</defs>
</svg>
