<svg width="32" height="32" viewBox="0 0 32 32" fill="none" xmlns="http://www.w3.org/2000/svg">
<path fill-rule="evenodd" clip-rule="evenodd" d="M16.0018 1.84405C8.18485 1.84405 1.84796 8.18094 1.84796 15.9979C1.84796 23.8148 8.18485 30.1517 16.0018 30.1517C23.8188 30.1517 30.1556 23.8148 30.1556 15.9979C30.1556 8.18094 23.8188 1.84405 16.0018 1.84405ZM0.617188 15.9979C0.617188 7.50121 7.50511 0.613281 16.0018 0.613281C24.4985 0.613281 31.3864 7.50121 31.3864 15.9979C31.3864 24.4946 24.4985 31.3825 16.0018 31.3825C7.50511 31.3825 0.617188 24.4946 0.617188 15.9979Z" fill="#EAEAEA"/>
<path d="M20.7329 12.4426C20.6855 12.3797 20.6349 12.3193 20.5812 12.2617C20.6352 12.1179 20.6762 11.9695 20.7037 11.8184C20.785 11.2655 20.7144 10.7009 20.4995 10.1851C20.4995 10.1851 19.8462 9.98091 18.347 10.9901C17.7106 10.8143 17.0531 10.726 16.3929 10.7276C15.7307 10.7264 15.0714 10.8147 14.4329 10.9901C12.9337 9.96924 12.2804 10.1851 12.2804 10.1851C12.0681 10.6955 11.9975 11.2537 12.0762 11.8009C12.1039 11.9583 12.1469 12.1127 12.2045 12.2617C12.152 12.3201 12.0995 12.3842 12.0529 12.4426C11.6176 12.9886 11.3865 13.6694 11.3995 14.3676C11.3981 14.5332 11.4059 14.6987 11.4229 14.8634C11.6095 17.4476 13.3304 18.0484 14.9695 18.2351C14.7375 18.4508 14.5802 18.7348 14.5204 19.0459C14.4661 19.2534 14.4406 19.4673 14.4445 19.6817V20.4457C13.7922 20.5036 13.1224 20.4087 12.9149 19.8265C12.6918 19.2695 12.322 18.7832 11.8448 18.4195C11.8101 18.4005 11.7771 18.3786 11.7462 18.354C11.7043 18.2437 11.63 18.1488 11.5331 18.0816C11.4362 18.0144 11.3213 17.9781 11.2033 17.9774H11.2005C11.0463 17.9774 10.8983 18.0384 10.789 18.1472C10.6797 18.256 10.6179 18.4037 10.6172 18.5579C10.6149 19.0319 11.0892 19.3378 11.2837 19.442C11.5106 19.6706 11.6931 19.9393 11.822 20.2344C12.0345 20.8314 12.6557 21.7383 14.4271 21.6204C14.4277 21.6409 14.4283 21.6603 14.4285 21.678L14.4311 21.834C14.4311 21.9107 14.4461 21.9865 14.4754 22.0573C14.5048 22.1281 14.5477 22.1924 14.6019 22.2466C14.6561 22.3007 14.7204 22.3437 14.7912 22.373C14.8619 22.4023 14.9378 22.4174 15.0144 22.4174L15.0162 22.417V22.4174H17.7644C17.841 22.4174 17.9169 22.4023 17.9876 22.373C18.0584 22.3437 18.1227 22.3008 18.1769 22.2466C18.2311 22.1924 18.274 22.1281 18.3034 22.0573C18.3327 21.9865 18.3477 21.9107 18.3477 21.8341C18.3477 21.8341 18.352 19.9909 18.352 19.6818C18.3559 19.4674 18.3304 19.2534 18.2762 19.0459L18.2751 19.0424L18.2771 19.0459C18.272 19.0255 18.2644 19.0089 18.2589 18.9891C18.1938 18.7001 18.0433 18.4374 17.827 18.2351L17.8337 18.2472C17.8297 18.2437 17.826 18.2386 17.822 18.2351C19.4612 18.0484 21.1703 17.4359 21.357 14.8634C21.3739 14.6987 21.3817 14.5332 21.3803 14.3676C21.3907 13.6708 21.1622 12.9915 20.7329 12.4426V12.4426Z" fill="#565656"/>
</svg>
