<svg width="32" height="32" viewBox="0 0 32 32" fill="none" xmlns="http://www.w3.org/2000/svg">
<path fill-rule="evenodd" clip-rule="evenodd" d="M16.0018 1.84405C8.18485 1.84405 1.84796 8.18094 1.84796 15.9979C1.84796 23.8148 8.18485 30.1517 16.0018 30.1517C23.8188 30.1517 30.1556 23.8148 30.1556 15.9979C30.1556 8.18094 23.8188 1.84405 16.0018 1.84405ZM0.617188 15.9979C0.617188 7.50121 7.50511 0.613281 16.0018 0.613281C24.4985 0.613281 31.3864 7.50121 31.3864 15.9979C31.3864 24.4946 24.4985 31.3825 16.0018 31.3825C7.50511 31.3825 0.617188 24.4946 0.617188 15.9979Z" fill="#EAEAEA"/>
<path fill-rule="evenodd" clip-rule="evenodd" d="M10.5585 16.5901C10.1191 16.4197 10.1083 15.8019 10.5414 15.6163L20.6401 11.2883C21.0765 11.1012 21.5178 11.5425 21.3308 11.9789L17.0028 22.0776C16.8171 22.5108 16.1993 22.4999 16.0289 22.0605L14.5004 18.1186L10.5585 16.5901ZM15.3577 17.1112C15.4266 17.1379 15.4811 17.1924 15.5078 17.2613L16.3198 19.3553C16.405 19.575 16.7139 19.5804 16.8067 19.3638L19.2113 13.753C19.3048 13.5348 19.0842 13.3142 18.866 13.4077L13.2552 15.8123C13.0386 15.9051 13.044 16.2141 13.2637 16.2993L15.3577 17.1112Z" fill="#565656"/>
</svg>
