<svg width="40" height="40" viewBox="0 0 40 40" fill="none" xmlns="http://www.w3.org/2000/svg">
<path fill-rule="evenodd" clip-rule="evenodd" d="M20.0042 2.30409C10.233 2.30409 2.3119 10.2252 2.3119 19.9964C2.3119 29.7676 10.233 37.6887 20.0042 37.6887C29.7754 37.6887 37.6965 29.7676 37.6965 19.9964C37.6965 10.2252 29.7754 2.30409 20.0042 2.30409ZM0.773438 19.9964C0.773438 9.37553 9.38335 0.765625 20.0042 0.765625C30.6251 0.765625 39.235 9.37553 39.235 19.9964C39.235 30.6173 30.6251 39.2272 20.0042 39.2272C9.38335 39.2272 0.773438 30.6173 0.773438 19.9964Z" fill="#3D3D3D"/>
<g clip-path="url(#clip0)">
<path d="M25.918 15.5527C25.8588 15.4741 25.7955 15.3987 25.7284 15.3267C25.7959 15.1469 25.8472 14.9614 25.8816 14.7725C25.9832 14.0814 25.8949 13.3757 25.6264 12.7309C25.6264 12.7309 24.8097 12.4757 22.9357 13.7371C22.1401 13.5174 21.3184 13.407 20.493 13.409C19.6653 13.4075 18.8412 13.5179 18.043 13.7371C16.1691 12.4611 15.3524 12.7309 15.3524 12.7309C15.0871 13.3689 14.9989 14.0667 15.0972 14.7507C15.1318 14.9474 15.1855 15.1404 15.2576 15.3267C15.192 15.3996 15.1264 15.4798 15.068 15.5527C14.5239 16.2352 14.2351 17.0863 14.2514 17.959C14.2496 18.166 14.2594 18.3729 14.2805 18.5788C14.5138 21.809 16.6649 22.56 18.7139 22.7934C18.4238 23.063 18.2272 23.418 18.1524 23.8069C18.0846 24.0663 18.0527 24.3337 18.0576 24.6017V25.5566C17.2422 25.629 16.405 25.5104 16.1456 24.7827C15.8668 24.0864 15.4045 23.4786 14.808 23.0239C14.7646 23.0002 14.7234 22.9728 14.6847 22.942C14.6323 22.8042 14.5395 22.6855 14.4184 22.6015C14.2972 22.5175 14.1535 22.4721 14.0061 22.4713H14.0026C13.8098 22.4712 13.6249 22.5475 13.4882 22.6835C13.3515 22.8195 13.2743 23.0041 13.2734 23.1969C13.2706 23.7893 13.8634 24.1717 14.1066 24.302C14.3902 24.5878 14.6183 24.9236 14.7795 25.2925C15.0451 26.0388 15.8216 27.1724 18.0358 27.025C18.0365 27.0507 18.0373 27.0749 18.0376 27.097L18.0408 27.2921C18.0408 27.3878 18.0596 27.4827 18.0963 27.5711C18.1329 27.6596 18.1866 27.74 18.2543 27.8077C18.322 27.8754 18.4024 27.9291 18.4909 27.9658C18.5794 28.0024 18.6742 28.0213 18.77 28.0212L18.7722 28.0208V28.0213H22.2074C22.3032 28.0213 22.398 28.0024 22.4865 27.9658C22.575 27.9292 22.6554 27.8755 22.7231 27.8077C22.7908 27.74 22.8445 27.6596 22.8811 27.5712C22.9178 27.4827 22.9366 27.3879 22.9366 27.2921C22.9366 27.2921 22.9419 24.9882 22.9419 24.6017C22.9468 24.3337 22.9149 24.0663 22.8472 23.8069L22.8458 23.8025L22.8483 23.8069C22.842 23.7814 22.8324 23.7606 22.8256 23.7359C22.7442 23.3747 22.5561 23.0463 22.2856 22.7934L22.2941 22.8086C22.2891 22.8041 22.2845 22.7977 22.2795 22.7934C24.3284 22.56 26.4649 21.7944 26.6982 18.5788C26.7194 18.3729 26.7291 18.166 26.7274 17.959C26.7403 17.088 26.4547 16.2389 25.918 15.5527Z" fill="white"/>
</g>
<defs>
<clipPath id="clip0">
<rect width="17.5" height="17.5" fill="white" transform="translate(11.25 11.25)"/>
</clipPath>
</defs>
</svg>
