<svg width="40" height="36" viewBox="0 0 40 36" fill="none" xmlns="http://www.w3.org/2000/svg">
<path d="M5 5.1582L-5.13641e-08 5.1582C-1.50641e-07 14.8223 7.83594 22.6582 17.5 22.6582L17.5 33.9082C17.5 34.5957 18.0625 35.1582 18.75 35.1582L21.25 35.1582C21.9375 35.1582 22.5 34.5957 22.5 33.9082L22.5 22.6582C22.5 12.9941 14.6641 5.1582 5 5.1582ZM35 0.158203C28.4219 0.158203 22.7031 3.79102 19.7109 9.1582C21.875 11.5176 23.4766 14.3848 24.3203 17.5645C33.125 16.6504 40 9.21289 40 0.158204L35 0.158203Z" fill="#787878"/>
</svg>
