<svg width="40" height="40" viewBox="0 0 40 40" fill="none" xmlns="http://www.w3.org/2000/svg">
<path d="M5 8.1582L-5.13641e-08 8.1582C-1.50641e-07 17.8223 7.83594 25.6582 17.5 25.6582L17.5 36.9082C17.5 37.5957 18.0625 38.1582 18.75 38.1582L21.25 38.1582C21.9375 38.1582 22.5 37.5957 22.5 36.9082L22.5 25.6582C22.5 15.9941 14.6641 8.1582 5 8.1582ZM35 3.1582C28.4219 3.1582 22.7031 6.79102 19.7109 12.1582C21.875 14.5176 23.4766 17.3848 24.3203 20.5645C33.125 19.6504 40 12.2129 40 3.1582L35 3.1582Z" fill="#262626"/>
</svg>
