<svg width="40" height="40" viewBox="0 0 40 40" fill="none" xmlns="http://www.w3.org/2000/svg">
<path fill-rule="evenodd" clip-rule="evenodd" d="M20.0042 2.30409C10.233 2.30409 2.3119 10.2252 2.3119 19.9964C2.3119 29.7676 10.233 37.6887 20.0042 37.6887C29.7754 37.6887 37.6965 29.7676 37.6965 19.9964C37.6965 10.2252 29.7754 2.30409 20.0042 2.30409ZM0.773438 19.9964C0.773438 9.37553 9.38335 0.765625 20.0042 0.765625C30.6251 0.765625 39.235 9.37553 39.235 19.9964C39.235 30.6173 30.6251 39.2272 20.0042 39.2272C9.38335 39.2272 0.773438 30.6173 0.773438 19.9964Z" fill="#3D3D3D"/>
<g clip-path="url(#clip0)">
<path d="M12.4993 16.4713H13.0924C13.3126 16.4713 13.624 16.7384 13.624 16.9094V23.1077C13.624 23.2789 13.3126 23.5123 13.0924 23.5123H12.4993V24.9836H17.8731V23.5123H16.7484V16.9967H16.8035L19.43 24.9836H21.4635L24.0562 16.9967H24.1218V23.5123H22.9971V24.9836H27.4961V23.5123H26.9199C26.6828 23.5123 26.3713 23.2789 26.3713 23.1077V16.9094C26.3713 16.7384 26.6828 16.4712 26.9199 16.4712H27.4961V15H21.8703L20.0232 20.78H19.9723L18.1083 15H12.4993V16.4713Z" fill="white"/>
</g>
<defs>
<clipPath id="clip0">
<rect width="15" height="10" fill="white" transform="matrix(-1 0 0 1 27.5 15)"/>
</clipPath>
</defs>
</svg>
