<svg width="26" height="42" viewBox="0 0 26 42" fill="none" xmlns="http://www.w3.org/2000/svg">
<path fill-rule="evenodd" clip-rule="evenodd" d="M9.04285 12.639C10.884 14.1329 12.3217 15.4162 13.3561 16.4887C9.65312 16.9867 6.5294 18.4232 3.98492 20.7981C1.46112 23.1731 0.199219 26.1322 0.199219 29.6755C0.199219 33.3528 1.34734 36.2928 3.64358 38.4953C5.93983 40.6979 8.75324 41.7992 12.0838 41.7992C15.7454 41.7992 18.9415 40.4298 21.6722 37.6909C24.4235 34.9329 25.7992 31.7535 25.7992 28.1528C25.7992 26.1035 25.3338 24.1594 24.4029 22.3208C23.4719 20.4821 22.2618 18.9211 20.7723 17.6379C19.3035 16.3547 16.7797 14.5734 13.2009 12.2942C12.2193 11.6715 11.3468 11.1055 10.5834 10.5961L10.598 10.599C10.5842 10.5921 10.5703 10.5852 10.5564 10.5781C9.98169 10.1943 9.46927 9.84288 9.01916 9.52382C7.83135 8.42838 6.95345 6.69076 8.19922 4.19922C8.99922 2.59922 11.3992 1.79922 13.7992 2.59922H13.8093C13.919 2.6572 14.0265 2.71908 14.1318 2.78485C15.042 3.32113 16.1488 4.25962 17.4521 5.60032C18.7347 6.92187 19.8517 7.58264 20.8033 7.58264C21.4653 7.58264 22.0446 7.34323 22.541 6.86441C23.0375 6.38559 23.2858 5.78228 23.2858 5.05447C23.2858 3.54139 22.2618 2.35391 20.2138 1.49204C18.1865 0.630158 15.8075 0.199219 13.0768 0.199219C10.3461 0.199219 8.13263 0.687617 6.43631 1.66441C4.73999 2.62206 3.89182 3.9436 3.89182 5.62905C3.89182 6.75907 4.2435 7.8029 4.94686 8.76054C5.65021 9.69903 7.01554 10.9919 9.04285 12.639ZM5.8157 29.1296C5.8157 22.4836 8.78427 18.7105 14.7214 17.8103C18.4037 21.2769 20.2448 25.2703 20.2448 29.7904C20.2448 32.9123 19.5828 35.3926 18.2589 37.2313C16.9349 39.0508 15.2489 39.9605 13.2009 39.9605C11.2357 39.9605 9.50831 39.0125 8.01885 37.1163C6.55009 35.2202 5.8157 32.558 5.8157 29.1296Z" fill="#737373"/>
</svg>
