<svg width="133" height="37" viewBox="0 0 133 37" fill="none" xmlns="http://www.w3.org/2000/svg">
<path fill-rule="evenodd" clip-rule="evenodd" d="M5.48438 20.0451C7.40247 15.6586 9.32959 11.276 11.2257 6.8803C11.4351 6.39489 11.6745 6.21658 12.2081 6.22281C14.6178 6.25231 17.0283 6.24478 19.4382 6.22781C19.8901 6.22467 20.1819 6.2913 20.3858 6.77243C23.7232 14.6461 27.0819 22.5108 30.4323 30.379C30.4696 30.4668 30.4589 30.575 30.4813 30.7632C29.0552 30.7632 27.6561 30.7327 26.2591 30.7767C25.606 30.7973 25.5657 30.3084 25.4058 29.9327C22.7688 23.7308 20.123 17.5325 17.5413 11.3078C17.2035 10.4936 16.8049 10.2051 15.9614 10.2801C15.1063 10.3561 14.3056 10.1107 13.8563 11.3263C12.7667 14.2742 11.4632 17.1436 10.2458 20.0447C8.65873 20.0448 7.07155 20.045 5.48438 20.0451Z" fill="#343434"/>
<path fill-rule="evenodd" clip-rule="evenodd" d="M6.6911 24.3092C5.55355 24.3094 4.48203 24.3097 3.56624 24.3097C2.63237 26.4332 1.69782 28.5576 0.726562 30.7656C2.29081 30.7656 3.67672 30.7431 5.06115 30.7784C5.52036 30.7901 5.74394 30.6334 5.90898 30.2375C6.73395 28.2573 7.57677 26.284 8.41368 24.3086C7.83604 24.3088 7.25829 24.309 6.6911 24.3092Z" fill="#343434"/>
<path fill-rule="evenodd" clip-rule="evenodd" d="M55.0352 13.3159C55.9603 11.1523 56.8897 8.9906 57.8042 6.82243C57.9052 6.583 58.0206 6.49505 58.278 6.49812C59.4402 6.51267 60.6028 6.50896 61.7651 6.50059C61.983 6.49904 62.1238 6.5319 62.2221 6.76922C63.8318 10.6529 65.4517 14.532 67.0676 18.413C67.0856 18.4563 67.0804 18.5097 67.0912 18.6025C66.4034 18.6025 65.7286 18.5875 65.0548 18.6092C64.7399 18.6193 64.7204 18.3782 64.6433 18.1928C63.3715 15.1338 62.0954 12.0766 60.8502 9.00628C60.6873 8.60464 60.4951 8.46237 60.0882 8.49934C59.6758 8.53686 59.2896 8.41582 59.0729 9.01537C58.5474 10.4694 57.9187 11.8847 57.3316 13.3157C56.5662 13.3157 55.8007 13.3158 55.0352 13.3159Z" fill="#343434"/>
<path fill-rule="evenodd" clip-rule="evenodd" d="M91.0391 13.3159C91.9642 11.1523 92.8936 8.9906 93.8081 6.82243C93.9091 6.583 94.0245 6.49505 94.2819 6.49812C95.4442 6.51267 96.6067 6.50896 97.769 6.50059C97.9869 6.49904 98.1277 6.5319 98.2261 6.76922C99.8357 10.6529 101.456 14.532 103.071 18.413C103.09 18.4563 103.084 18.5097 103.095 18.6025C102.407 18.6025 101.732 18.5875 101.059 18.6092C100.744 18.6193 100.724 18.3782 100.647 18.1928C99.3754 15.1338 98.0993 12.0766 96.8541 9.00628C96.6912 8.60464 96.499 8.46237 96.0922 8.49934C95.6798 8.53686 95.2935 8.41582 95.0769 9.01537C94.5513 10.4694 93.9226 11.8847 93.3355 13.3157C92.57 13.3157 91.8046 13.3158 91.0391 13.3159Z" fill="#343434"/>
<path fill-rule="evenodd" clip-rule="evenodd" d="M44.8467 13.0054C45.4768 13.0054 45.913 12.947 46.1553 12.8302C46.3973 12.7133 46.5186 12.4992 46.5186 12.1878V8.82004C46.5186 8.50849 46.3973 8.2945 46.1553 8.17767C45.913 8.06085 45.4768 8.00244 44.8467 8.00244H41.3095V13.0054H44.8467ZM41.3095 18.5534H38.8867V6.38672H44.8227C45.9046 6.38672 46.7487 6.51655 47.3544 6.77611C47.96 7.03584 48.3962 7.46078 48.663 8.05105C48.9293 8.64187 49.0625 9.45599 49.0625 10.4942C49.0625 11.9479 48.7633 12.9859 48.166 13.6088C47.5685 14.2319 46.5751 14.5433 45.186 14.5433H41.3095V18.5534Z" fill="#343434"/>
<path fill-rule="evenodd" clip-rule="evenodd" d="M74.5436 12.7133H78.1961C78.8249 12.7133 79.2604 12.6549 79.5023 12.5381C79.744 12.4213 79.8649 12.2073 79.8649 11.8957V8.82004C79.8649 8.50849 79.744 8.2945 79.5023 8.17767C79.2604 8.06085 78.8249 8.00244 78.1961 8.00244H74.5436V12.7133ZM80.494 18.5534L77.9783 14.2512H74.5436V18.5534H72.125V6.38672H78.1719C79.252 6.38672 80.0947 6.51655 80.6995 6.77611C81.3041 7.03584 81.7396 7.46078 82.0057 8.05105C82.2716 8.64187 82.4048 9.45593 82.4048 10.4942C82.4048 11.4938 82.2474 12.2753 81.9331 12.8398C81.6186 13.4045 81.1066 13.7971 80.3972 14.0176L83.1303 18.5534H80.494Z" fill="#343434"/>
<path fill-rule="evenodd" clip-rule="evenodd" d="M111.49 18.5534H109.066V6.38672H117.307L117.04 8.00249H111.49V11.9542H116.337V13.492H111.49V18.5534Z" fill="#343434"/>
<mask id="mask0" mask-type="alpha" maskUnits="userSpaceOnUse" x="30" y="0" width="103" height="37">
<path d="M30.3164 36.75H132.019V0.25H30.3164V36.75Z" fill="white"/>
</mask>
<g mask="url(#mask0)">
<path fill-rule="evenodd" clip-rule="evenodd" d="M123.723 18.5534H126.101V6.38672H123.723V18.5534Z" fill="#343434"/>
<path fill-rule="evenodd" clip-rule="evenodd" d="M54.0836 15.3482C53.6335 16.4009 53.183 17.454 52.7148 18.5486C53.4688 18.5486 54.1369 18.5374 54.8042 18.5549C55.0255 18.5607 55.1333 18.483 55.2128 18.2868C55.6105 17.3051 56.0167 16.3269 56.4201 15.3477C56.1417 15.3478 55.8632 15.3479 55.5898 15.3479C55.0415 15.348 54.525 15.3482 54.0836 15.3482Z" fill="#343434"/>
<path fill-rule="evenodd" clip-rule="evenodd" d="M91.6602 15.3479C91.1081 15.348 90.5882 15.3482 90.1449 15.3482C89.6938 16.4009 89.2425 17.454 88.7734 18.5487C89.5266 18.5487 90.1939 18.5375 90.8605 18.5549C91.0816 18.5607 91.1893 18.4833 91.2687 18.2876C91.6673 17.3056 92.0745 16.3272 92.4787 15.3477C92.2042 15.3478 91.9298 15.3478 91.6602 15.3479Z" fill="#343434"/>
<path fill-rule="evenodd" clip-rule="evenodd" d="M45.5234 28.9488V27.1279C45.5234 26.5477 45.6528 26.1257 45.9114 25.8622C46.1701 25.5986 46.5815 25.4668 47.1457 25.4668H48.094C48.5747 25.4668 48.9326 25.5694 49.1677 25.7743C49.4028 25.9793 49.5333 26.3081 49.5595 26.7606C49.5699 26.8991 49.502 26.9682 49.3558 26.9682C49.2304 26.9682 49.1624 26.8991 49.152 26.7606C49.1311 26.4359 49.0423 26.2083 48.8855 26.0778C48.7288 25.9474 48.4649 25.8821 48.094 25.8821H47.1457C46.8427 25.8821 46.6036 25.9221 46.4286 26.0019C46.2536 26.0818 46.1269 26.2109 46.0486 26.3893C45.9702 26.5677 45.9311 26.8139 45.9311 27.1279V28.9488C45.9311 29.2631 45.9702 29.5092 46.0486 29.6875C46.1269 29.866 46.2536 29.995 46.4286 30.0749C46.6036 30.1547 46.8452 30.1948 47.1536 30.1948H48.094C48.4649 30.1948 48.7288 30.1309 48.8855 30.0031C49.0423 29.8752 49.1311 29.6464 49.152 29.3163C49.1624 29.1778 49.2304 29.1086 49.3558 29.1086C49.502 29.1086 49.5699 29.1804 49.5595 29.3242C49.5333 29.7768 49.4028 30.1042 49.1677 30.3065C48.9326 30.5089 48.5747 30.61 48.094 30.61H47.1536C46.5893 30.61 46.1765 30.477 45.9153 30.2106C45.654 29.9445 45.5234 29.5239 45.5234 28.9488Z" fill="#343434"/>
<path fill-rule="evenodd" clip-rule="evenodd" d="M59.2719 28.8051H61.4798L60.3759 26.1217L59.2719 28.8051ZM62.5603 30.4183C62.5603 30.4876 62.5162 30.5435 62.4281 30.586C62.3971 30.602 62.3633 30.61 62.3271 30.61C62.2544 30.61 62.2028 30.5674 62.1716 30.4822L61.6508 29.2204H61.6275H59.1087L58.5879 30.4822C58.5515 30.5674 58.4946 30.61 58.4168 30.61C58.3908 30.61 58.3572 30.602 58.3158 30.586C58.2329 30.5541 58.1914 30.4955 58.1914 30.4103C58.1914 30.3678 58.1965 30.3358 58.2069 30.3145L60.1349 25.6265C60.1763 25.52 60.254 25.4668 60.368 25.4668H60.3836C60.4873 25.4668 60.5624 25.52 60.609 25.6265L62.537 30.3145C62.5525 30.3517 62.5603 30.3864 62.5603 30.4183Z" fill="#343434"/>
<path fill-rule="evenodd" clip-rule="evenodd" d="M74.2613 26.8484C74.2613 26.5131 74.1873 26.2682 74.0393 26.1137C73.8912 25.9593 73.6509 25.8821 73.3186 25.8821H71.6981V28.0544H73.3186C73.6509 28.0544 73.8912 27.9785 74.0393 27.8268C74.1873 27.675 74.2613 27.4288 74.2613 27.088V26.8484ZM74.3236 25.8182C74.5521 26.0526 74.6665 26.396 74.6665 26.8484V27.088C74.6665 27.5406 74.5535 27.884 74.3276 28.1182C74.1016 28.3527 73.7653 28.4696 73.3186 28.4696H71.6981V30.4023C71.6981 30.5409 71.6305 30.61 71.4954 30.61C71.3604 30.61 71.293 30.5409 71.293 30.4023V25.6745C71.293 25.536 71.3604 25.4668 71.4954 25.4668H73.3186C73.76 25.4668 74.095 25.584 74.3236 25.8182Z" fill="#343434"/>
<path fill-rule="evenodd" clip-rule="evenodd" d="M83.517 30.5541C83.4822 30.5169 83.4648 30.4662 83.4648 30.4023V25.6745C83.4648 25.6106 83.4822 25.5601 83.517 25.5227C83.5516 25.4856 83.5988 25.4668 83.6583 25.4668C83.718 25.4668 83.7651 25.4856 83.7998 25.5227C83.8346 25.5601 83.852 25.6106 83.852 25.6745V30.4023C83.852 30.4662 83.8346 30.5169 83.7998 30.5541C83.7651 30.5914 83.718 30.61 83.6583 30.61C83.5988 30.61 83.5516 30.5914 83.517 30.5541Z" fill="#343434"/>
<path fill-rule="evenodd" clip-rule="evenodd" d="M94.6283 30.5502C94.589 30.5103 94.5695 30.4612 94.5695 30.4027V25.8814H92.9026C92.8451 25.8814 92.797 25.8615 92.7579 25.8217C92.7187 25.7817 92.6992 25.7327 92.6992 25.6741C92.6992 25.6103 92.7187 25.5599 92.7579 25.5226C92.797 25.4855 92.8451 25.4668 92.9026 25.4668H96.6433C96.7061 25.4668 96.7556 25.4855 96.792 25.5226C96.8286 25.5599 96.8469 25.6103 96.8469 25.6741C96.8469 25.7327 96.8286 25.7817 96.792 25.8217C96.7556 25.8615 96.7061 25.8814 96.6433 25.8814H94.9764V30.4027C94.9764 30.4612 94.9582 30.5103 94.9217 30.5502C94.8853 30.5901 94.8355 30.61 94.7731 30.61C94.7155 30.61 94.6674 30.5901 94.6283 30.5502Z" fill="#343434"/>
<path fill-rule="evenodd" clip-rule="evenodd" d="M105.002 28.8051H107.21L106.106 26.1217L105.002 28.8051ZM108.291 30.4183C108.291 30.4876 108.246 30.5435 108.159 30.586C108.127 30.602 108.094 30.61 108.058 30.61C107.985 30.61 107.933 30.5674 107.902 30.4822L107.381 29.2204H107.358H104.839L104.318 30.4822C104.282 30.5674 104.225 30.61 104.147 30.61C104.121 30.61 104.088 30.602 104.046 30.586C103.963 30.5541 103.922 30.4955 103.922 30.4103C103.922 30.3678 103.927 30.3358 103.937 30.3145L105.865 25.6265C105.907 25.52 105.984 25.4668 106.098 25.4668H106.114C106.218 25.4668 106.293 25.52 106.339 25.6265L108.267 30.3145C108.283 30.3517 108.291 30.3864 108.291 30.4183Z" fill="#343434"/>
<path fill-rule="evenodd" clip-rule="evenodd" d="M117.09 30.4023V25.6745C117.09 25.536 117.157 25.4668 117.292 25.4668C117.428 25.4668 117.495 25.536 117.495 25.6745V30.1948H119.874C120.009 30.1948 120.076 30.2639 120.076 30.4023C120.076 30.5409 120.009 30.61 119.874 30.61H117.292C117.157 30.61 117.09 30.5409 117.09 30.4023Z" fill="#343434"/>
</g>
</svg>
