<svg width="90" height="33" viewBox="0 0 90 33" fill="none" xmlns="http://www.w3.org/2000/svg">
<path fill-rule="evenodd" clip-rule="evenodd" d="M14.9094 0.213118C14.4212 0.266141 13.4897 0.440994 12.8393 0.60161C5.64869 2.37789 0.556453 8.34608 0.0669729 15.5713L0 16.5597L0.329695 16.7894C0.923062 17.2026 2.40964 17.8252 3.36466 18.0605C4.69072 18.387 7.27713 18.3842 8.51966 18.0548C9.57382 17.7752 11.0924 17.0663 12.1084 16.3793C13.9848 15.1107 15.6556 12.9175 16.3755 10.7781C17.0896 8.65607 15.8779 6.7948 13.4166 6.23321C12.7113 6.07228 12.4731 5.92941 12.6391 5.76704C12.6997 5.70772 14.4478 5.66285 17.01 5.6549L21.2798 5.64159L21.7271 6.65213C22.6534 8.7452 24.3026 11.0341 25.7018 12.1684C26.9607 13.1889 29.0749 14.0481 30.7069 14.2025C31.4827 14.2758 33.4226 14.1924 33.5368 14.0807C33.6985 13.9225 32.9201 11.2651 32.3146 9.90862C30.4941 5.82975 26.8347 2.52561 22.4943 1.04127C20.0724 0.213118 17.4971 -0.0680903 14.9094 0.213118ZM17.3964 14.4534C17.2592 26.4486 17.3212 29.2842 17.7514 30.6774C18.1288 31.8992 18.9662 32.894 19.616 32.8925C20.4607 32.8904 22.929 32.1146 24.4454 31.3744C25.2818 30.9662 27.1349 29.8466 27.1349 29.7494C27.1349 29.6148 21.9128 17.9887 19.6969 13.1901C19.1336 11.9702 18.414 10.3925 18.0977 9.68415C17.7815 8.97576 17.51 8.38384 17.4945 8.36868C17.479 8.35351 17.4348 11.0916 17.3964 14.4534ZM45.8029 9.2187C42.7003 9.89954 40.6588 11.8378 39.8845 14.8374C39.6942 15.5747 39.6675 15.9048 39.7138 16.9521C39.8049 19.013 40.3927 20.3975 41.7337 21.7091C43.3797 23.3189 45.4418 23.9942 48.3999 23.8921C50.0817 23.8339 50.753 23.6838 51.9993 23.0871C52.9428 22.6354 52.9913 22.6382 53.4457 23.1706C54.0008 23.8212 54.0294 23.7291 54.0294 21.288C54.0294 20.0681 53.9874 19.0701 53.9361 19.0701C53.8847 19.0701 53.762 19.3138 53.6632 19.6116C53.0662 21.4124 51.3808 22.9827 49.5426 23.4511C46.4742 24.2328 43.5022 22.3569 42.5126 19.0138C42.1751 17.8734 42.1736 15.4993 42.5097 14.3039C42.9885 12.6006 43.959 11.14 45.1573 10.3184C46.7961 9.19487 48.886 9.08232 50.6957 10.02C51.9306 10.6598 53.1867 12.145 53.6724 13.5392C53.7642 13.8025 53.9045 14.0153 53.9866 14.0153C54.1095 14.0153 54.1349 13.6269 54.1349 11.7459C54.1349 10.0539 54.1028 9.47639 54.0088 9.47639C53.9394 9.47639 53.686 9.69498 53.4458 9.96205L53.0088 10.4477L52.1216 10.011C50.6833 9.30277 50.0039 9.14907 48.1232 9.10584C46.9514 9.07892 46.2942 9.1109 45.8029 9.2187ZM83.4771 9.18115C81.6496 9.38127 80.1542 10.4351 79.6425 11.8837C79.3758 12.6386 79.3863 13.8479 79.666 14.5791C79.9517 15.3261 80.5844 16.0976 81.2701 16.5352C81.5728 16.7283 82.651 17.1744 83.6661 17.5265C84.6813 17.8786 85.7343 18.2764 86.0062 18.4105C87.0985 18.9494 87.6713 19.9553 87.5205 21.07C87.3713 22.1732 86.8112 22.9192 85.7761 23.394C84.9629 23.7672 83.6074 23.7741 82.6115 23.4101C81.6114 23.0447 80.6081 22.0337 79.9707 20.7491C79.7119 20.2274 79.4646 19.7987 79.421 19.7964C79.3775 19.794 79.3419 20.6974 79.3419 21.8038C79.3419 23.9894 79.3688 24.0747 79.8723 23.4849L80.1543 23.1544L80.7764 23.4219C81.81 23.8661 82.442 23.9703 84.088 23.9678C85.732 23.9653 86.3624 23.8443 87.3932 23.3335C88.9254 22.574 89.7721 20.8957 89.4723 19.2117C89.3115 18.3083 88.9717 17.6768 88.3313 17.0909C87.6592 16.476 87.04 16.1742 85.1741 15.5522C82.7744 14.7521 81.9679 14.2787 81.5434 13.4208C81.2166 12.7608 81.2163 11.7894 81.5425 11.0766C81.8417 10.4229 82.1112 10.1429 82.7697 9.80154C83.2386 9.55839 83.4137 9.52807 84.3517 9.52807C85.3241 9.52796 85.4506 9.5519 85.9721 9.83444C86.7606 10.2616 87.6804 11.28 88.1677 12.2653C88.3891 12.7133 88.6298 13.0814 88.7023 13.0834C88.803 13.0861 88.8341 12.6487 88.8341 11.2301C88.8341 9.183 88.7876 9.05932 88.2683 9.7252L87.9937 10.0773L87.4383 9.78483C86.415 9.24603 84.9388 9.02105 83.4771 9.18115ZM57.299 9.45483C57.299 9.50197 57.5385 9.60059 57.8314 9.67404C58.4521 9.8296 58.958 10.2097 59.1535 10.6675C59.3753 11.1868 59.4334 13.5875 59.3182 17.4711C59.2026 21.3642 59.1198 21.9676 58.6005 22.703C58.3306 23.0853 57.4443 23.609 57.0673 23.609C56.9627 23.609 56.8771 23.6795 56.8771 23.7655C56.8771 23.902 57.2175 23.9185 59.5402 23.8945C61.1267 23.878 62.1946 23.8278 62.1819 23.7701C62.1702 23.717 61.9092 23.6108 61.6019 23.5341C60.5027 23.2598 60.0486 22.7755 59.8289 21.6425C59.6976 20.9652 59.6874 10.7371 59.8182 10.8742C59.8696 10.9281 60.0769 11.3435 60.2788 11.7974C60.4806 12.2513 61.2276 13.8993 61.9386 15.4595C62.6496 17.0198 63.7449 19.456 64.3724 20.8734C65 22.2907 65.5554 23.464 65.6066 23.4807C65.6579 23.4974 65.9193 22.9832 66.1876 22.338C66.6635 21.1938 70.7189 12.3077 71.3277 11.0753L71.6335 10.4564L71.6068 16.1816C71.5788 22.2468 71.5721 22.3303 71.0743 22.8709C70.7659 23.206 70.317 23.4235 69.6607 23.5558C68.4678 23.7964 69.075 23.867 72.5656 23.894C75.4925 23.9167 76.0724 23.8976 76.0724 23.7787C76.0724 23.6904 75.9119 23.6151 75.6505 23.5809C75.0769 23.5055 74.3203 23.0531 74.0955 22.6508C73.9279 22.351 73.9073 21.8699 73.879 17.5917C73.8452 12.5037 73.9268 10.919 74.2505 10.377C74.4933 9.9702 75.1609 9.58357 75.6241 9.58119C75.8127 9.58027 75.9669 9.53312 75.9669 9.47639C75.9669 9.41088 75.1657 9.37323 73.7742 9.37323H71.5815L71.1709 10.3274C70.7507 11.3036 68.1809 16.9779 67.2347 19.0185C66.9454 19.6426 66.6678 20.1375 66.6181 20.1185C66.5682 20.0994 65.4513 17.6855 64.1359 14.7543L61.7443 9.42481L59.5216 9.39695C58.2991 9.38169 57.299 9.40768 57.299 9.45483ZM25.0255 14.0511C25.0255 14.1558 30.4171 26.1327 30.5037 26.2202C30.6165 26.3345 31.5979 24.8171 32.1548 23.6674C33.2071 21.4944 33.7811 18.995 33.7783 16.597C33.7776 16.0565 33.7477 15.4403 33.7117 15.2274L33.6463 14.8406H31.5744C30.4348 14.8406 29.1002 14.7921 28.6087 14.733C27.8359 14.64 25.999 14.27 25.2628 14.0592C25.1323 14.0218 25.0255 14.0182 25.0255 14.0511ZM14.3289 16.7634C13.1685 17.5347 10.7838 18.3811 8.83607 18.713C6.68113 19.0803 3.60323 19.0124 1.25571 18.5458C0.683015 18.432 0.190687 18.3621 0.161683 18.3906C0.132679 18.4189 0.183727 18.8736 0.275168 19.4009C1.40221 25.8991 6.43644 31.1353 13.0548 32.6932C13.5189 32.8024 13.9828 32.8921 14.0859 32.8925C14.4096 32.8937 15.212 31.9969 15.5891 31.2124C16.3061 29.7209 16.4892 28.0149 16.6457 21.364L16.7167 18.3454L16.3187 17.8566C15.6728 17.0635 15.0793 16.4911 14.9031 16.4911C14.8126 16.4911 14.5543 16.6137 14.3289 16.7634Z" fill="#343434"/>
</svg>
