<svg width="115" height="33" viewBox="0 0 115 33" fill="none" xmlns="http://www.w3.org/2000/svg">
<g clip-path="url(#clip0)">
<path d="M10.4086 3.86112C9.94594 3.86112 9.66323 3.55272 9.66323 3.1158V2.37048H8.91791C8.4553 2.37048 8.17259 2.06207 8.17259 1.62516V0.879834H0.667969V15.8377H8.17259V15.0924C8.17259 14.6554 8.481 14.347 8.91791 14.347H9.66323V13.6017C9.66323 13.1648 9.97164 12.8564 10.4086 12.8564H11.1539V3.86112H10.4086ZM9.66323 4.60644V12.0854C9.66323 12.5223 9.35483 12.8307 8.91791 12.8307H8.17259V13.576C8.17259 14.0129 7.86418 14.3213 7.42727 14.3213H2.90393C2.44132 14.3213 2.15861 14.0129 2.15861 13.576V3.0901C2.15861 2.65319 2.46702 2.34478 2.90393 2.34478H7.40157C7.86418 2.34478 8.14689 2.65319 8.14689 3.0901V3.83542H8.89221C9.35483 3.86112 9.66323 4.14383 9.66323 4.60644ZM13.4412 0.854139V15.8377H14.9319V0.854139H13.4412ZM26.2402 0.854139V3.0901C26.2402 3.52701 25.9318 3.83542 25.4949 3.83542H24.7496V7.58773C24.7496 8.02465 24.4412 8.33305 24.0043 8.33305H23.2589V12.0854C23.2589 12.5223 22.9505 12.8307 22.5136 12.8307C22.051 12.8307 21.7683 12.5223 21.7683 12.0854V8.33305H21.023C20.5604 8.33305 20.2776 8.02465 20.2776 7.58773V3.83542H19.5323C19.0697 3.83542 18.787 3.52701 18.787 3.0901V0.854139H17.2964V3.86112H18.0417C18.5043 3.86112 18.787 4.16953 18.787 4.60644V8.35876H19.5323C19.9949 8.35876 20.2776 8.66716 20.2776 9.10408V12.8564H21.023C21.4856 12.8564 21.7683 13.1648 21.7683 13.6017V15.8377H23.2589V13.6017C23.2589 13.1648 23.5673 12.8564 24.0043 12.8564H24.7496V9.10408C24.7496 8.66716 25.058 8.35876 25.4949 8.35876H26.2402V4.60644C26.2402 4.16953 26.5486 3.86112 26.9855 3.86112H27.7309V0.854139H26.2402ZM31.5346 6.09709V3.0901C31.5346 2.65319 31.843 2.34478 32.2799 2.34478H39.0392V0.854139H30.0182V15.8377H39.0392V14.347H32.2799C31.8173 14.347 31.5346 14.0386 31.5346 13.6017V9.10408C31.5346 8.66716 31.843 8.35876 32.2799 8.35876H37.5486V6.84241H32.2799C31.843 6.84241 31.5346 6.55971 31.5346 6.09709ZM49.6022 2.34478C49.1396 2.34478 48.8569 2.03637 48.8569 1.59946V0.854139H41.3523V15.8377H42.8429V10.5947C42.8429 10.1578 43.1513 9.8494 43.5882 9.8494H45.0789C45.5415 9.8494 45.8242 10.1578 45.8242 10.5947V11.34H46.5695C47.0321 11.34 47.3148 11.6485 47.3148 12.0854V14.3213H48.0602C48.5228 14.3213 48.8055 14.6297 48.8055 15.0667V15.812H50.2961V14.3213H49.5508C49.0882 14.3213 48.8055 14.0129 48.8055 13.576V11.34H48.0602C47.5975 11.34 47.3148 11.0316 47.3148 10.5947C47.3148 10.1578 47.6232 9.8494 48.0602 9.8494H48.8055V9.10408C48.8055 8.66716 49.1139 8.35876 49.5508 8.35876H50.2961V2.37048H49.6022V2.34478ZM48.8569 3.1158V7.61343C48.8569 8.05035 48.5485 8.35876 48.1116 8.35876H43.6139C43.1513 8.35876 42.8686 8.05035 42.8686 7.61343V3.1158C42.8686 2.67889 43.177 2.37048 43.6139 2.37048H48.1116C48.5485 2.34478 48.8569 2.65319 48.8569 3.1158ZM64.6628 5.35177V3.86112H63.9175C63.4549 3.86112 63.1722 3.55272 63.1722 3.1158V2.37048H62.4269C61.9643 2.37048 61.6816 2.06207 61.6816 1.62516V0.879834H55.6676V1.62516C55.6676 2.06207 55.3592 2.37048 54.9223 2.37048H54.1769V3.1158C54.1769 3.55272 53.8685 3.86112 53.4316 3.86112H52.6863V12.8564H53.4316C53.8942 12.8564 54.1769 13.1648 54.1769 13.6017V14.347H54.9223C55.3849 14.347 55.6676 14.6554 55.6676 15.0924V15.8377H61.6816V15.0924C61.6816 14.6554 61.99 14.347 62.4269 14.347C62.8895 14.347 63.1722 14.6554 63.1722 15.0924V15.8377H64.6628V8.35876H58.6489V9.8494H62.4012C62.8638 9.8494 63.1465 10.1578 63.1465 10.5947V12.0854C63.1465 12.5223 62.8381 12.8307 62.4012 12.8307H61.6559V13.576C61.6559 14.0129 61.3475 14.3213 60.9105 14.3213H56.4129C55.9503 14.3213 55.6676 14.0129 55.6676 13.576V12.8307H54.9223C54.4597 12.8307 54.1769 12.5223 54.1769 12.0854V4.60644C54.1769 4.16953 54.4854 3.86112 54.9223 3.86112H55.6676V3.1158C55.6676 2.67889 55.976 2.37048 56.4129 2.37048H60.9105C61.3732 2.37048 61.6559 2.67889 61.6559 3.1158V3.86112H62.4012C62.8638 3.86112 63.1465 4.16953 63.1465 4.60644V5.35177H64.6628ZM68.4409 6.09709V3.0901C68.4409 2.65319 68.7493 2.34478 69.1862 2.34478H75.9455V0.854139H66.9245V15.8377H75.9455V14.347H69.1862C68.7236 14.347 68.4409 14.0386 68.4409 13.6017V9.10408C68.4409 8.66716 68.7493 8.35876 69.1862 8.35876H74.4548V6.84241H69.1862C68.7493 6.84241 68.4409 6.55971 68.4409 6.09709ZM87.2538 0.854139V10.5947C87.2538 11.0316 86.9454 11.34 86.5085 11.34C86.0459 11.34 85.7632 11.0316 85.7632 10.5947V9.8494H85.0179C84.5552 9.8494 84.2725 9.54099 84.2725 9.10408V6.84241H83.5272C83.0646 6.84241 82.7819 6.534 82.7819 6.09709V5.35177H82.0366C81.574 5.35177 81.2912 5.04336 81.2912 4.60644V2.37048H80.5459C80.0833 2.37048 79.8006 2.06207 79.8006 1.62516V0.879834H78.31V15.8377H79.8006V6.09709C79.8006 5.66018 80.109 5.35177 80.5459 5.35177C80.9828 5.35177 81.2912 5.66018 81.2912 6.09709V6.84241H82.0366C82.4992 6.84241 82.7819 7.15082 82.7819 7.58773V9.8237H83.5272C83.9898 9.8237 84.2725 10.1321 84.2725 10.569V11.3143H85.0179C85.4805 11.3143 85.7632 11.6228 85.7632 12.0597V14.2956H86.5085C86.9711 14.2956 87.2538 14.604 87.2538 15.041V15.7863H88.7445V0.802734H87.2538V0.854139ZM103.06 5.35177V3.86112H102.314C101.852 3.86112 101.569 3.55272 101.569 3.1158V2.37048H100.824C100.361 2.37048 100.078 2.06207 100.078 1.62516V0.879834H94.0645V1.62516C94.0645 2.06207 93.7561 2.37048 93.3192 2.37048H92.5739V3.1158C92.5739 3.55272 92.2655 3.86112 91.8286 3.86112H91.0832V12.8564H91.8286C92.2912 12.8564 92.5739 13.1648 92.5739 13.6017V14.347H93.3192C93.7818 14.347 94.0645 14.6554 94.0645 15.0924V15.8377H100.053V15.0924C100.053 14.6554 100.361 14.347 100.798 14.347H101.543V13.6017C101.543 13.1648 101.852 12.8564 102.289 12.8564H103.034V11.3657H101.543V12.1111C101.543 12.548 101.235 12.8564 100.798 12.8564H100.053V13.6017C100.053 14.0386 99.7444 14.347 99.3075 14.347H94.8098C94.3472 14.347 94.0645 14.0386 94.0645 13.6017V12.8564H93.3192C92.8566 12.8564 92.5739 12.548 92.5739 12.1111V4.63215C92.5739 4.19523 92.8823 3.88683 93.3192 3.88683H94.0645V3.1415C94.0645 2.70459 94.3729 2.39618 94.8098 2.39618H99.3075C99.7701 2.39618 100.053 2.70459 100.053 3.1415V3.88683H100.798C101.261 3.88683 101.543 4.19523 101.543 4.63215V5.37747H103.06V5.35177ZM106.838 6.09709V3.0901C106.838 2.65319 107.146 2.34478 107.583 2.34478H114.342V0.854139H105.321V15.8377H114.342V14.347H107.583C107.121 14.347 106.838 14.0386 106.838 13.6017V9.10408C106.838 8.66716 107.146 8.35876 107.583 8.35876H112.852V6.84241H107.583C107.121 6.84241 106.838 6.55971 106.838 6.09709Z" fill="#343434"/>
<path d="M11.9065 18.9336L7.17476 32.3835H5.59753L0.53125 18.9336H2.10848L6.36226 30.1801L10.3292 18.9336H11.9065ZM15.5389 31.0982C16.3514 31.0982 17.0206 30.9146 17.4507 30.5015C17.9287 30.0883 18.2154 29.6293 18.311 29.0784H19.8883C19.8405 29.6752 19.6015 30.226 19.1713 30.7769C18.789 31.3277 18.2632 31.7409 17.5941 32.0622C16.9728 32.3835 16.2558 32.5212 15.4911 32.5212C14.6308 32.5212 13.8183 32.3376 13.1013 31.9245C12.3844 31.5113 11.8587 30.9605 11.4285 30.1801C11.0462 29.4457 10.8072 28.5276 10.8072 27.5177C10.8072 26.5996 10.9984 25.7733 11.4285 25.0388C11.8587 24.3044 12.3844 23.7076 13.1013 23.2945C13.8183 22.8814 14.583 22.6518 15.4433 22.6518C16.7816 22.6518 17.8331 23.065 18.6456 23.8912C19.4581 24.7175 19.8883 26.0028 19.8883 27.839H12.4322C12.48 28.8948 12.7668 29.7211 13.2925 30.2719C13.9139 30.8228 14.6308 31.0982 15.5389 31.0982ZM15.5389 24.2126C14.822 24.2126 14.2006 24.3962 13.6749 24.8093C13.1492 25.2225 12.8146 25.7733 12.6234 26.5078H18.3588C18.2154 25.7733 17.9287 25.1766 17.4985 24.8093C17.0206 24.3962 16.3992 24.2126 15.5389 24.2126ZM29.7818 32.3835H28.2046V27.38C28.2046 26.2783 28.0612 25.4979 27.7267 24.993C27.3921 24.488 26.8663 24.2126 26.1016 24.2126C25.1457 24.2126 24.4288 24.5339 23.8552 25.1307C23.2817 25.7274 22.9949 26.5996 22.9949 27.7931V32.3835H21.3221V22.7895H22.8993V24.4421C23.2817 23.8453 23.7597 23.4322 24.3332 23.1568C24.9067 22.8814 25.5281 22.7436 26.1972 22.7436C27.4877 22.7436 28.3958 23.1568 28.9215 23.9371C29.4473 24.7175 29.734 25.911 29.734 27.4259L29.7818 32.3835ZM33.1275 24.1208V30.3637C33.1275 30.6392 33.1753 30.7769 33.2709 30.8687C33.3665 30.9146 33.5099 30.9605 33.7488 30.9605H35.3261V32.3835H33.7488C33.0797 32.3835 32.554 32.3376 32.2672 32.2458C31.9804 32.1081 31.7892 31.9245 31.6936 31.6491C31.5981 31.3736 31.5503 30.9146 31.5503 30.2719V24.1208H30.1642V22.7895H31.5503V20.6779H33.1275V22.7895H35.3261V24.1208H33.1275ZM45.363 22.7436V32.3376H43.7858V30.9605C43.1645 31.9704 42.2086 32.4753 40.8703 32.4753C39.532 32.4753 38.5761 32.0622 37.907 31.19C37.2857 30.3178 36.9511 29.1702 36.9511 27.6554V22.6518H38.5283V27.6554C38.5283 28.7112 38.7673 29.4915 39.1975 30.0883C39.6276 30.6392 40.249 30.9146 41.0615 30.9146C42.8777 30.9146 43.7858 29.7211 43.7858 27.2882V22.6518H45.363V22.7436ZM48.5653 24.488C49.33 23.3404 50.5249 22.7895 52.2455 22.7895V24.3044C51.0984 24.3044 50.1903 24.5798 49.5212 25.1766C48.8521 25.7274 48.5175 26.5996 48.5175 27.7472V32.3376H46.9403V22.7436H48.5175V24.488H48.5653ZM57.503 31.0982C58.3155 31.0982 58.9846 30.9146 59.4148 30.5015C59.8927 30.0883 60.1795 29.6293 60.2751 29.0784H61.8523C61.8045 29.6752 61.5656 30.226 61.1354 30.7769C60.753 31.3277 60.2273 31.7409 59.5582 32.0622C58.9368 32.3835 58.2199 32.5212 57.4552 32.5212C56.5949 32.5212 55.7823 32.3376 55.0654 31.9245C54.3485 31.5113 53.8228 30.9605 53.3926 30.1801C53.0102 29.4457 52.7713 28.5276 52.7713 27.5177C52.7713 26.5996 52.9624 25.7733 53.3926 25.0388C53.8228 24.3044 54.3485 23.7076 55.0654 23.2945C55.7823 22.8814 56.5471 22.6518 57.4074 22.6518C58.7457 22.6518 59.7972 23.065 60.6097 23.8912C61.4222 24.7175 61.8523 26.0028 61.8523 27.839H54.3963C54.4441 28.8948 54.7309 29.7211 55.2566 30.2719C55.9257 30.8228 56.6427 31.0982 57.503 31.0982ZM57.503 24.2126C56.7861 24.2126 56.1647 24.3962 55.639 24.8093C55.1132 25.2225 54.7787 25.7733 54.5875 26.5078H60.3229C60.1795 25.7733 59.8927 25.1766 59.4626 24.8093C59.0324 24.3962 58.3633 24.2126 57.503 24.2126ZM62.856 29.3079C62.9516 30.4555 63.3818 31.2818 64.0987 31.7868C64.8634 32.2917 65.7715 32.5671 66.823 32.5671C67.9701 32.5671 68.926 32.3376 69.5951 31.9245C70.3121 31.5113 70.6466 30.7769 70.6466 29.8129C70.6466 28.9866 70.3599 28.344 69.8341 27.8849C69.3084 27.38 68.448 27.0586 67.2532 26.9209C65.437 26.7373 64.5289 26.2783 64.5289 25.4979C64.5289 24.9011 64.7678 24.5339 65.198 24.3044C65.6759 24.0749 66.2017 23.9371 66.823 23.9371C67.4922 23.9371 68.0179 24.1208 68.4003 24.4421C68.7826 24.8093 69.0216 25.2225 69.1172 25.7274H70.5988C70.5032 24.6716 70.1209 23.8913 69.4518 23.3863C68.7826 22.8355 67.9223 22.56 66.823 22.56C65.8193 22.56 64.959 22.7895 64.1943 23.2027C63.4296 23.6158 63.0472 24.3962 63.0472 25.4061C63.0472 26.2324 63.2862 26.8291 63.8119 27.2423C64.3377 27.6554 65.1502 27.9308 66.2495 28.0685C67.301 28.2062 68.0657 28.4358 68.4959 28.7112C68.926 28.9866 69.165 29.3079 69.165 29.767C69.165 30.3178 68.9738 30.6851 68.5915 30.9146C68.2091 31.0982 67.6355 31.2359 66.8708 31.2359C65.437 31.2359 64.6244 30.5933 64.4811 29.3079H62.856Z" fill="#343434"/>
</g>
<defs>
<clipPath id="clip0">
<rect width="113.938" height="32.1362" fill="white" transform="translate(0.53125 0.431641)"/>
</clipPath>
</defs>
</svg>
