<svg width="92" height="37" viewBox="0 0 92 37" fill="none" xmlns="http://www.w3.org/2000/svg">
<path fill-rule="evenodd" clip-rule="evenodd" d="M39.8582 0.102171C30.6664 0.627729 22.0697 2.48439 16.7039 5.10296C9.38044 8.6768 8.54808 13.4255 14.5741 17.2538C19.8592 20.6114 28.9199 22.7813 40.6068 23.4881C42.6927 23.6142 50.8307 23.5479 52.988 23.3871C65.3046 22.4693 74.9516 19.6857 79.1787 15.8301C81.9456 13.3062 82.0577 10.533 79.4948 8.00252C75.2945 3.85509 64.7707 0.857996 51.7211 0.09272C49.538 -0.0352947 42.1594 -0.0294435 39.8582 0.102171ZM54.8308 3.12424C59.0348 3.48331 62.9527 4.07029 65.7723 4.76368C71.2443 6.1093 74.6473 8.03852 74.639 9.79057C74.6355 10.4966 74.4799 10.5324 73.9092 9.95885C73.2576 9.30404 72.4411 8.79255 71.1855 8.25225C69.7032 7.61454 69.5522 7.57292 70.0338 7.9348C70.8162 8.5228 71.7166 9.49235 71.9961 10.0482C72.3929 10.8367 72.3927 11.9596 71.996 12.748C71.1041 14.5204 68.6542 15.9623 64.3326 17.2585C63.1146 17.6238 63.9284 17.5005 65.8922 17.0221C71.1439 15.7428 74.8553 13.8654 76.1777 11.8195C76.3408 11.567 76.5079 11.2298 76.549 11.0699C76.6982 10.4895 76.8553 10.7753 76.8107 11.5461C76.5256 16.4729 65.6867 20.109 49.553 20.6904C37.7703 21.1149 26.143 19.5006 19.8755 16.57C16.7304 15.0992 14.9947 13.1681 15.1176 11.2759L15.1534 10.7231L15.491 11.3981C16.6233 13.6618 20.2601 15.604 26.0373 17.0301C28.4493 17.6256 29.0256 17.6717 27.1891 17.1224C23.3657 15.9788 20.8695 14.481 19.9825 12.7981C19.5506 11.9787 19.5269 10.8624 19.9252 10.1044C20.3263 9.34105 20.9152 8.68737 21.6693 8.16788C22.0424 7.91096 22.3245 7.67788 22.296 7.6502C22.2232 7.57911 20.3633 8.36272 19.4997 8.82821C19.1031 9.04205 18.4894 9.49269 18.1363 9.82949C17.7831 10.1663 17.4751 10.4419 17.4519 10.4419C17.4287 10.4419 17.3764 10.268 17.3355 10.0555C17.1247 8.95802 18.1552 7.86922 20.4293 6.78683C24.4729 4.86211 30.3021 3.63664 38.073 3.07733C41.5872 2.82445 41.862 2.81793 47.2293 2.8573C50.9607 2.88463 52.7676 2.94808 54.8308 3.12424ZM41.9313 5.99051C38.1593 6.41325 35.0643 7.40047 33.7943 8.58579C33.2284 9.11393 33.0696 9.56795 33.3064 9.98011C33.4902 10.2998 34.6006 11.1585 34.98 11.2741C35.3599 11.39 35.5967 11.0782 35.5972 10.462C35.5979 9.51845 36.1593 8.88412 37.6128 8.18442C40.8947 6.60437 47.665 6.27387 52.297 7.46763C54.9744 8.15765 56.3281 9.16703 56.3281 10.4735C56.3281 10.8779 56.383 11.0292 56.5784 11.1628C56.8072 11.3194 56.8689 11.3127 57.2926 11.0849C58.0208 10.6935 58.7467 9.96527 58.7467 9.62622C58.7467 9.46581 58.5783 9.12124 58.3724 8.86049C57.436 7.67495 54.8297 6.71237 50.9149 6.10638C49.2792 5.85316 43.7882 5.7824 41.9313 5.99051ZM43.2029 7.86753C39.6538 8.17508 36.6333 9.33284 36.6333 10.3856C36.6333 11.7646 41.0916 13.0276 45.9624 13.0287C50.7917 13.0297 55.2915 11.758 55.2915 10.3922C55.2915 9.56986 53.462 8.66611 50.7421 8.14494C48.7774 7.76854 45.6657 7.65403 43.2029 7.86753ZM24.5241 8.63484C23.0327 9.27806 22.1613 9.91026 21.6454 10.7231C20.6138 12.3487 23.7145 14.4452 29.1431 15.7925C33.2373 16.8085 37.3764 17.3341 42.8342 17.5306C55.0436 17.9706 66.7346 15.8321 69.8384 12.5911C70.7409 11.6488 70.6685 10.9473 69.5646 9.93894C69.015 9.43678 67.3288 8.5445 66.4353 8.28307C65.8615 8.11513 65.5189 8.38173 65.5461 8.97501C65.5561 9.19403 65.5592 9.45714 65.5531 9.55973C65.5417 9.75018 64.181 10.5544 63.8702 10.5544C63.7785 10.5544 63.586 10.314 63.4422 10.02C63.2985 9.72611 63.1017 9.47154 63.0049 9.45411C62.9081 9.43678 62.5468 9.62813 62.2019 9.87944C61.8571 10.1307 61.5025 10.3221 61.4139 10.3048C61.3253 10.2873 61.1563 9.96538 61.0382 9.5891C60.92 9.21293 60.7222 8.81561 60.5985 8.70615C60.3772 8.51065 60.3746 8.51785 60.4399 9.13621C60.5337 10.0244 60.268 10.6429 59.5169 11.2847L58.9234 11.7918H59.3953C60.0953 11.7918 61.0346 11.5942 61.5957 11.329C62.2147 11.0363 62.4899 11.1104 62.3795 11.54C62.2019 12.2322 62.2398 12.4082 62.5741 12.4459C62.9861 12.4923 64.4509 11.7422 64.769 11.3219C65.1205 10.8575 65.3724 10.914 65.6052 11.5092C65.9164 12.3052 65.7888 12.9779 65.2301 13.4869C64.8395 13.8427 63.5159 14.4625 63.3963 14.3457C63.3729 14.3229 63.6016 14.1475 63.9045 13.9559C64.6796 13.4653 64.8932 13.2088 64.8067 12.8725C64.708 12.4882 64.3469 12.4019 63.9582 12.6697C61.4637 14.3884 55.1479 15.7204 48.4674 15.9366C40.0036 16.2107 32.2172 15.0499 28.5355 12.9652C27.5674 12.4171 27.2413 12.3932 27.1209 12.8616C27.03 13.2155 27.0939 13.2987 27.9056 13.8823C28.2855 14.1556 28.5668 14.3791 28.5306 14.3791C28.4943 14.3791 28.1768 14.2739 27.8251 14.1453C26.7453 13.7508 26.1497 13.1041 26.155 12.3317C26.1578 11.9274 26.5396 11.0043 26.704 11.0043C26.7602 11.0043 27.0183 11.2015 27.2776 11.4425C28.1491 12.2521 29.7229 12.7773 29.7229 12.2585C29.7229 12.144 29.6646 11.8871 29.5934 11.6875C29.3882 11.1124 29.5799 11.0455 30.4538 11.3869C31.2148 11.6844 32.9545 11.92 32.9408 11.724C32.9368 11.6685 32.7166 11.4707 32.4513 11.2847C32.1859 11.0985 31.8483 10.7188 31.701 10.441C31.4747 10.0141 31.4429 9.82488 31.4961 9.22148C31.5521 8.5877 31.5392 8.52347 31.3821 8.65081C31.1352 8.85093 30.9086 9.30708 30.8156 9.79113C30.7152 10.3138 30.4643 10.4071 30.0172 10.0886C29.8237 9.95064 29.5265 9.73916 29.3569 9.61845C28.9707 9.34386 28.7218 9.4315 28.5151 9.91498C28.2335 10.5731 28.0996 10.6091 27.3355 10.2323C26.4897 9.81531 26.3407 9.64489 26.4134 9.17738C26.4707 8.80886 26.342 8.43179 26.1064 8.27813C25.872 8.12525 25.524 8.20366 24.5241 8.63484ZM28.6648 17.6057C28.7478 17.6382 28.8472 17.6341 28.8855 17.5968C28.9237 17.5594 28.8558 17.5329 28.7344 17.5377C28.6002 17.5431 28.5729 17.5698 28.6648 17.6057ZM63.1018 17.6057C63.1848 17.6382 63.2842 17.6341 63.3225 17.5968C63.3607 17.5594 63.2927 17.5329 63.1713 17.5377C63.0372 17.5431 63.0099 17.5698 63.1018 17.6057ZM44.6073 29.9155C43.9744 30.2215 43.7042 30.5661 43.6085 31.1891C43.4365 32.3088 43.9366 33.0022 45.3884 33.6571C46.5971 34.2022 46.8838 34.4429 46.8838 34.9125C46.8838 35.3482 46.5642 35.7042 46.0798 35.8082C45.8 35.8681 44.4544 35.6545 43.9999 35.4779C43.8712 35.4279 43.7799 35.5256 43.6669 35.8338C43.5813 36.0674 43.4912 36.3113 43.4667 36.3759C43.3703 36.6301 44.6027 36.9335 45.7321 36.9335C46.6863 36.9335 46.8914 36.8975 47.3364 36.6523C48.2516 36.1479 48.6421 34.9275 48.2107 33.9193C48.0061 33.4407 47.652 33.1817 46.461 32.6392C45.4201 32.165 45.0403 31.8714 45.0428 31.5425C45.0451 31.2472 45.1498 31.0943 45.4584 30.9357C45.6919 30.8158 46.1701 30.8556 47.3067 31.0896C47.6686 31.1641 47.673 31.1597 47.753 30.6378C47.7976 30.3481 47.7886 30.0682 47.7332 30.016C47.5882 29.8793 46.3654 29.6778 45.6821 29.678C45.3204 29.678 44.9119 29.7683 44.6073 29.9155ZM0.46875 33.3901V36.9898H1.21738H1.96601V35.4149V33.84H3.17534H4.38466V35.4149V36.9898H5.19088H5.99709V33.3901V29.7903H5.19088H4.38466V31.1965V32.6026H3.17534H1.96601V31.1965V29.7903H1.21738H0.46875V33.3901ZM9.22196 29.86C9.22196 29.8982 9.67552 30.7714 10.2297 31.8004L11.2375 33.6713L11.2951 35.3024L11.3527 36.9335L12.1301 36.9668L12.9075 37L12.9094 35.4482L12.9113 33.8963L14.0035 31.8841C14.6043 30.7776 15.0958 29.8537 15.0958 29.8312C15.0958 29.8087 14.745 29.7903 14.3162 29.7903H13.5366L12.8321 31.1684L12.1275 32.5464L11.8389 31.9277C11.6802 31.5874 11.3887 30.9672 11.1912 30.5497L10.8321 29.7903H10.027C9.5843 29.7903 9.22196 29.8216 9.22196 29.86ZM18.3207 33.3901V36.9898H19.1269H19.9331V35.5985V34.2071L20.7681 34.1539C21.7966 34.0882 22.4574 33.7814 22.8296 33.1967C23.0511 32.8489 23.1004 32.6177 23.1004 31.9277C23.1004 30.876 22.857 30.4068 22.1232 30.0434C21.664 29.8161 21.4446 29.7903 19.9663 29.7903H18.3207V33.3901ZM26.6132 33.3901V36.9898H28.8015H30.9898V36.3711V35.7524H29.5501H28.1105V34.6837V33.615H29.435H30.7595V33.0526V32.4901H29.435H28.1105V31.7027V30.9152H29.5501H30.9898V30.3528V29.7903H28.8015H26.6132V33.3901ZM34.9057 33.3338V36.8773H35.6544H36.403V33.8963V30.9152H36.9569C37.7013 30.9152 37.9317 31.0965 37.9317 31.6824C37.9317 31.9389 37.8664 32.2257 37.7867 32.3195C37.6593 32.4694 37.7467 32.4901 38.5073 32.4901C39.4932 32.4901 39.5127 32.4722 39.5127 31.5661C39.5127 30.8294 39.1745 30.2838 38.5446 30.0045C38.1592 29.8335 37.7836 29.7948 36.4894 29.7928L34.9057 29.7903V33.3338ZM52.209 33.3516L52.2394 36.9335H52.9304H53.6215L53.6538 35.5555L53.6862 34.1775H54.2375C56.0068 34.1775 57.0435 33.1617 56.8569 31.611C56.7676 30.868 56.4826 30.3782 55.9617 30.0716C55.6353 29.8794 55.3308 29.841 53.879 29.8081L52.1786 29.7696L52.209 33.3516ZM60.4114 29.9321C60.3808 30.0101 60.3694 31.6173 60.3862 33.5037L60.4167 36.9335H61.1078H61.7988L61.8308 35.3868L61.8629 33.84H63.1265H64.3902V35.4195V36.9991L65.1101 36.9663L65.8299 36.9335L65.8603 33.3619L65.8907 29.7903H65.1439H64.3971L64.3649 31.2197L64.3326 32.649L63.1233 32.6327L61.914 32.6163L61.8817 31.2033L61.8495 29.7903H61.1583C60.7086 29.7903 60.4476 29.8398 60.4114 29.9321ZM69.9186 33.3939V36.9973L71.9707 36.9847C73.0994 36.9777 74.0875 36.9331 74.1665 36.8854C74.2558 36.8316 74.2964 36.6133 74.2739 36.3089L74.2376 35.819L72.8555 35.8138L71.4734 35.8086L71.4405 34.7118L71.4075 33.615H72.7362H74.0648V33.0526V32.4901H72.7403H71.4158V31.7027V30.9152H72.8555H74.2952V30.3528V29.7903H72.1069H69.9186V33.3939ZM78.2111 33.3338V36.8773H78.9597H79.7084V33.8963V30.9152H80.2622C80.5668 30.9152 80.9125 30.9841 81.0303 31.0682C81.2602 31.2325 81.3265 31.7989 81.167 32.237C81.0772 32.4838 81.0947 32.4901 81.8766 32.4901C82.7912 32.4901 82.818 32.4638 82.818 31.5661C82.818 30.8348 82.5027 30.3291 81.856 30.0233C81.4312 29.8225 81.1458 29.7903 79.7871 29.7903H78.2111V33.3338ZM87.1067 33.3619L87.1371 36.9335H89.2678H91.3985L91.4336 36.3992L91.4688 35.8649L90.2243 35.8519C89.5398 35.8448 88.8892 35.848 88.7783 35.859C88.5983 35.8769 88.5767 35.7578 88.5767 34.747V33.615H89.9012H91.2257V33.0526V32.4901H89.9012H88.5767V31.7027V30.9152H90.0164H91.4561V30.3528V29.7903H89.2662H87.0763L87.1067 33.3619ZM21.3495 31.2688C21.496 31.4436 21.5466 31.6634 21.5223 32.0198C21.4816 32.6166 21.1832 32.8819 20.4226 32.9978L19.9331 33.0724V31.9782V30.8839L20.5378 30.9528C20.9631 31.0013 21.2038 31.095 21.3495 31.2688ZM54.8027 31.0351C55.2371 31.183 55.4623 31.6593 55.3569 32.2079C55.2647 32.6881 54.9449 32.9137 54.2187 33.011L53.6791 33.0832V31.9992V30.9152H54.065C54.2773 30.9152 54.6092 30.9691 54.8027 31.0351ZM37.6555 34.4256C37.7733 34.6295 38.0689 35.2645 38.3122 35.8367L38.7548 36.8773H39.5271H40.2993L39.6918 35.4993L39.0842 34.1212L38.2628 34.0882L37.4414 34.0552L37.6555 34.4256ZM80.9609 34.4256C81.0787 34.6295 81.3742 35.2645 81.6176 35.8367L82.0602 36.8773H82.8324H83.6047L82.9971 35.4993L82.3896 34.1212L81.5682 34.0882L80.7468 34.0552L80.9609 34.4256Z" fill="#343434"/>
</svg>
