<svg width="332" height="266" viewBox="0 0 332 266" fill="none" xmlns="http://www.w3.org/2000/svg">
<g opacity="0.75">
<circle cx="29" cy="98" r="2" fill="#757575"/>
<circle r="1.5" transform="matrix(-1 0 0 1 245.5 73.5)" fill="#111111"/>
<circle r="2.5" transform="matrix(-1 0 0 1 260.5 35.5)" fill="#A5A5A5"/>
<circle r="2" transform="matrix(-1 0 0 1 284 48)" fill="#A5A5A5"/>
<circle r="1.5" transform="matrix(-1 0 0 1 298.5 64.5)" fill="#A5A5A5"/>
<circle r="1.5" transform="matrix(-1 0 0 1 311.5 83.5)" fill="#A5A5A5"/>
<circle r="2" transform="matrix(-1 0 0 1 299 94)" fill="#757575"/>
<circle r="1.5" transform="matrix(-1 0 0 1 317.5 107.5)" fill="#757575"/>
<circle r="3" transform="matrix(-1 0 0 1 285 74)" fill="#757575"/>
<circle r="2.5" transform="matrix(-1 0 0 1 269.5 56.5)" fill="#757575"/>
<circle r="2.5" transform="matrix(-1 0 0 1 235.5 178.5)" fill="#757575"/>
<circle r="3" transform="matrix(-1 0 0 1 288 194)" fill="#757575"/>
<circle r="3" transform="matrix(-1 0 0 1 277 230)" fill="#A5A5A5"/>
<circle r="2" transform="matrix(-1 0 0 1 276 251)" fill="#A5A5A5"/>
<circle r="1.5" transform="matrix(-1 0 0 1 285.5 264.5)" fill="#A5A5A5"/>
<circle r="2.5" transform="matrix(-1 0 0 1 294.5 248.5)" fill="#A5A5A5"/>
<circle r="2.5" transform="matrix(-1 0 0 1 301.5 231.5)" fill="#A5A5A5"/>
<circle r="2.5" transform="matrix(-1 0 0 1 312.5 213.5)" fill="#A5A5A5"/>
<circle r="2.5" transform="matrix(-1 0 0 1 315.5 195.5)" fill="#A5A5A5"/>
<circle r="3" transform="matrix(-1 0 0 1 303 182)" fill="#A5A5A5"/>
<circle r="2.5" transform="matrix(-1 0 0 1 308.5 162.5)" fill="#A5A5A5"/>
<circle r="2.5" transform="matrix(-1 0 0 1 320.5 176.5)" fill="#A5A5A5"/>
<circle r="2.5" transform="matrix(-1 0 0 1 324.5 156.5)" fill="#A5A5A5"/>
<circle r="2" transform="matrix(-1 0 0 1 330 136)" fill="#A5A5A5"/>
<circle r="1.5" transform="matrix(-1 0 0 1 316.5 139.5)" fill="#A5A5A5"/>
<circle r="2" transform="matrix(-1 0 0 1 299 149)" fill="#A5A5A5"/>
<circle r="1.5" transform="matrix(-1 0 0 1 287.5 136.5)" fill="#A5A5A5"/>
<circle r="2.5" transform="matrix(-1 0 0 1 273.5 125.5)" fill="#A5A5A5"/>
<circle r="1.5" transform="matrix(-1 0 0 1 293.5 111.5)" fill="#A5A5A5"/>
<circle r="3" transform="matrix(-1 0 0 1 300 124)" fill="#757575"/>
<circle r="1.5" transform="matrix(-1 0 0 1 307.5 124.5)" fill="#A5A5A5"/>
<circle r="2" transform="matrix(-1 0 0 1 272 148)" fill="#757575"/>
<circle r="2" transform="matrix(-1 0 0 1 307 201)" fill="#757575"/>
<circle r="1.5" transform="matrix(-1 0 0 1 304.5 241.5)" fill="#757575"/>
<circle r="1.5" transform="matrix(-1 0 0 1 307.5 222.5)" fill="#646464"/>
<circle cx="229" cy="118" r="2" fill="#111111"/>
<circle cx="244.5" cy="139.5" r="1.5" fill="#A5A5A5"/>
<circle cx="239.5" cy="88.5" r="2.5" fill="#A5A5A5"/>
<circle cx="34" cy="80" r="3" fill="#757575"/>
<circle cx="3" cy="151" r="3" fill="#757575"/>
<circle cx="31" cy="210" r="2" fill="#111111"/>
<circle cx="5" cy="129" r="2" fill="#A5A5A5"/>
<circle cx="26.5" cy="131.5" r="1.5" fill="#A5A5A5"/>
<circle cx="12.5" cy="102.5" r="1.5" fill="#A5A5A5"/>
<circle cx="24" cy="78" r="2" fill="#757575"/>
<circle cx="45" cy="55" r="3" fill="#757575"/>
<circle cx="57" cy="64" r="2" fill="#757575"/>
<circle cx="73" cy="78" r="3" fill="#757575"/>
<circle cx="98" cy="59" r="2" fill="#757575"/>
<circle cx="121.5" cy="71.5" r="2.5" fill="#757575"/>
<circle cx="146" cy="68" r="2" fill="#757575"/>
<circle cx="123" cy="88" r="2" fill="#757575"/>
<circle cx="148.5" cy="85.5" r="1.5" fill="#757575"/>
<circle cx="188.5" cy="148.5" r="1.5" fill="#646464"/>
<circle cx="155" cy="99" r="2" fill="#757575"/>
<circle cx="161.5" cy="112.5" r="1.5" fill="#A5A5A5"/>
<circle cx="184.5" cy="93.5" r="1.5" fill="#A5A5A5"/>
<circle cx="178" cy="79" r="2" fill="#A5A5A5"/>
<circle cx="190.5" cy="108.5" r="2.5" fill="#A5A5A5"/>
<circle cx="171" cy="65" r="2" fill="#A5A5A5"/>
<circle cx="198" cy="60" r="2" fill="#A5A5A5"/>
<circle cx="206" cy="75" r="2" fill="#A5A5A5"/>
<circle cx="184" cy="30" r="1" fill="#A5A5A5"/>
<circle cx="26.5" cy="81.5" r="1.5" fill="#757575"/>
<circle cx="30" cy="71" r="2" fill="#757575"/>
<circle cx="72" cy="92" r="2" fill="#757575"/>
<circle cx="76" cy="29" r="2" fill="#757575"/>
<circle cx="100" cy="15" r="2" fill="#757575"/>
<circle cx="108.5" cy="8.5" r="2.5" fill="#757575"/>
<circle cx="175" cy="2" r="2" fill="#757575"/>
<circle cx="194" cy="8" r="2" fill="#757575"/>
<circle cx="223.5" cy="12.5" r="2.5" fill="#757575"/>
<circle cx="234" cy="26" r="3" fill="#757575"/>
<circle cx="241" cy="47" r="3" fill="#757575"/>
<circle cx="123.5" cy="53.5" r="2.5" fill="#757575"/>
<circle cx="26" cy="115" r="2" fill="#757575"/>
<circle cx="12.5" cy="113.5" r="1.5" fill="#757575"/>
<circle cx="19" cy="94" r="2" fill="#A5A5A5"/>
<circle cx="28.5" cy="91.5" r="2.5" fill="#757575"/>
<circle cx="55" cy="54" r="2" fill="#757575"/>
<circle cx="90.5" cy="26.5" r="1.5" fill="#757575"/>
<circle cx="111.5" cy="38.5" r="1.5" fill="#757575"/>
<circle cx="120" cy="39" r="2" fill="#A5A5A5"/>
<circle cx="136" cy="20" r="3" fill="#A5A5A5"/>
<circle cx="140.5" cy="5.5" r="1.5" fill="#A5A5A5"/>
<circle cx="125.5" cy="5.5" r="1.5" fill="#A5A5A5"/>
<circle cx="128" cy="14" r="3" fill="#757575"/>
<circle cx="163" cy="33" r="2" fill="#A5A5A5"/>
<circle cx="144" cy="52" r="2" fill="#A5A5A5"/>
<circle cx="131" cy="68" r="2" fill="#111111"/>
</g>
<circle cx="73.5" cy="67.5" r="2.5" fill="#111111"/>
<circle cx="93.5" cy="72.5" r="2.5" fill="#111111"/>
<circle cx="129.5" cy="96.5" r="3.5" fill="#111111"/>
<circle cx="171.5" cy="95.5" r="3.5" fill="#111111"/>
<circle cx="211.5" cy="97.5" r="3.5" fill="#111111"/>
<circle cx="276.5" cy="113.5" r="3.5" fill="#111111"/>
<circle cx="261.5" cy="92.5" r="3.5" fill="#111111"/>
<circle cx="297" cy="158" r="4" fill="#111111"/>
<circle cx="171.5" cy="127.5" r="3.5" fill="#111111"/>
<circle cx="92" cy="36" r="3" fill="#111111"/>
<circle cx="38" cy="235" r="3" fill="#111111"/>
<circle cx="26.5" cy="184.5" r="3.5" fill="#111111"/>
<circle cx="52.5" cy="159.5" r="3.5" fill="#111111"/>
<circle cx="88.5" cy="159.5" r="3.5" fill="#111111"/>
<circle cx="147" cy="16" r="4" fill="#111111"/>
<circle cx="167" cy="22" r="3" fill="#111111"/>
<circle cx="55" cy="189" r="3" fill="#D26585"/>
<circle cx="211" cy="67" r="3" fill="#6875C5"/>
<circle cx="51" cy="254" r="2" fill="#6875C5"/>
<circle cx="120.5" cy="8.5" r="2.5" fill="#6875C5"/>
</svg>
