<svg width="395" height="316" viewBox="0 0 395 316" fill="none" xmlns="http://www.w3.org/2000/svg">
<g opacity="0.75">
<circle cx="34.4502" cy="116.421" r="2.37594" fill="#757575"/>
<circle r="1.78195" transform="matrix(-1 0 0 1 291.648 87.3152)" fill="#111111"/>
<circle r="2.96992" transform="matrix(-1 0 0 1 309.468 42.173)" fill="#A5A5A5"/>
<circle r="2.37594" transform="matrix(-1 0 0 1 337.382 57.0224)" fill="#A5A5A5"/>
<circle r="1.78195" transform="matrix(-1 0 0 1 354.609 76.6238)" fill="#A5A5A5"/>
<circle r="1.78195" transform="matrix(-1 0 0 1 370.054 99.196)" fill="#A5A5A5"/>
<circle r="2.37594" transform="matrix(-1 0 0 1 355.202 111.669)" fill="#757575"/>
<circle r="1.78195" transform="matrix(-1 0 0 1 377.179 127.708)" fill="#757575"/>
<circle r="3.56391" transform="matrix(-1 0 0 1 338.573 87.9096)" fill="#757575"/>
<circle r="2.96992" transform="matrix(-1 0 0 1 320.159 67.1203)" fill="#757575"/>
<circle r="2.96992" transform="matrix(-1 0 0 1 279.768 212.052)" fill="#757575"/>
<circle r="3.56391" transform="matrix(-1 0 0 1 342.135 230.466)" fill="#757575"/>
<circle r="3.56391" transform="matrix(-1 0 0 1 329.069 273.234)" fill="#A5A5A5"/>
<circle r="2.37594" transform="matrix(-1 0 0 1 327.878 298.181)" fill="#A5A5A5"/>
<circle r="1.78195" transform="matrix(-1 0 0 1 339.167 314.218)" fill="#A5A5A5"/>
<circle r="2.96992" transform="matrix(-1 0 0 1 349.858 295.21)" fill="#A5A5A5"/>
<circle r="2.96992" transform="matrix(-1 0 0 1 358.175 275.015)" fill="#A5A5A5"/>
<circle r="2.96992" transform="matrix(-1 0 0 1 371.241 253.632)" fill="#A5A5A5"/>
<circle r="2.96992" transform="matrix(-1 0 0 1 374.804 232.247)" fill="#A5A5A5"/>
<circle r="3.56391" transform="matrix(-1 0 0 1 359.956 216.21)" fill="#A5A5A5"/>
<circle r="2.96992" transform="matrix(-1 0 0 1 366.487 193.044)" fill="#A5A5A5"/>
<circle r="2.96992" transform="matrix(-1 0 0 1 380.745 209.677)" fill="#A5A5A5"/>
<circle r="2.96992" transform="matrix(-1 0 0 1 385.495 185.917)" fill="#A5A5A5"/>
<circle r="2.37594" transform="matrix(-1 0 0 1 392.03 161.563)" fill="#A5A5A5"/>
<circle r="1.78195" transform="matrix(-1 0 0 1 375.991 165.721)" fill="#A5A5A5"/>
<circle r="2.37594" transform="matrix(-1 0 0 1 355.202 177.007)" fill="#A5A5A5"/>
<circle r="1.78195" transform="matrix(-1 0 0 1 341.542 162.157)" fill="#A5A5A5"/>
<circle r="2.96992" transform="matrix(-1 0 0 1 324.909 149.091)" fill="#A5A5A5"/>
<circle r="1.78195" transform="matrix(-1 0 0 1 348.667 132.458)" fill="#A5A5A5"/>
<circle r="3.56391" transform="matrix(-1 0 0 1 356.389 147.308)" fill="#757575"/>
<circle r="1.78195" transform="matrix(-1 0 0 1 365.3 147.903)" fill="#A5A5A5"/>
<circle r="2.37594" transform="matrix(-1 0 0 1 323.128 175.819)" fill="#757575"/>
<circle r="2.37594" transform="matrix(-1 0 0 1 364.706 238.782)" fill="#757575"/>
<circle r="1.78195" transform="matrix(-1 0 0 1 361.738 286.895)" fill="#757575"/>
<circle r="1.78195" transform="matrix(-1 0 0 1 365.3 264.323)" fill="#646464"/>
<circle cx="272.044" cy="140.181" r="2.37594" fill="#111111"/>
<circle cx="290.458" cy="165.721" r="1.78195" fill="#A5A5A5"/>
<circle cx="284.521" cy="105.136" r="2.96992" fill="#A5A5A5"/>
<circle cx="40.392" cy="95.0385" r="3.56391" fill="#757575"/>
<circle cx="3.56391" cy="179.384" r="3.56391" fill="#757575"/>
<circle cx="36.8252" cy="249.474" r="2.37594" fill="#111111"/>
<circle cx="5.93844" cy="153.249" r="2.37594" fill="#A5A5A5"/>
<circle cx="31.4812" cy="156.217" r="1.78195" fill="#A5A5A5"/>
<circle cx="14.8484" cy="121.766" r="1.78195" fill="#A5A5A5"/>
<circle cx="28.5127" cy="92.6611" r="2.37594" fill="#757575"/>
<circle cx="53.4584" cy="65.3393" r="3.56391" fill="#757575"/>
<circle cx="67.7158" cy="76.0302" r="2.37594" fill="#757575"/>
<circle cx="86.7202" cy="92.6616" r="3.56391" fill="#757575"/>
<circle cx="116.423" cy="70.0908" r="2.37594" fill="#757575"/>
<circle cx="144.337" cy="84.9406" r="2.96992" fill="#757575"/>
<circle cx="173.442" cy="80.7822" r="2.37594" fill="#757575"/>
<circle cx="146.122" cy="104.542" r="2.37594" fill="#757575"/>
<circle cx="176.415" cy="101.571" r="1.78195" fill="#757575"/>
<circle cx="223.93" cy="176.413" r="1.78195" fill="#646464"/>
<circle cx="184.134" cy="117.608" r="2.37594" fill="#757575"/>
<circle cx="191.856" cy="133.647" r="1.78195" fill="#A5A5A5"/>
<circle cx="219.18" cy="111.075" r="1.78195" fill="#A5A5A5"/>
<circle cx="211.458" cy="93.8505" r="2.37594" fill="#A5A5A5"/>
<circle cx="226.31" cy="128.896" r="2.96992" fill="#A5A5A5"/>
<circle cx="203.142" cy="77.2177" r="2.37594" fill="#A5A5A5"/>
<circle cx="235.22" cy="71.2783" r="2.37594" fill="#A5A5A5"/>
<circle cx="244.724" cy="89.0986" r="2.37594" fill="#A5A5A5"/>
<circle cx="218.586" cy="35.6391" r="1.18797" fill="#A5A5A5"/>
<circle cx="31.4812" cy="96.8191" r="1.78195" fill="#757575"/>
<circle cx="35.6377" cy="84.3466" r="2.37594" fill="#757575"/>
<circle cx="85.5322" cy="109.294" r="2.37594" fill="#757575"/>
<circle cx="90.2861" cy="34.4502" r="2.37594" fill="#757575"/>
<circle cx="118.798" cy="17.8193" r="2.37594" fill="#757575"/>
<circle cx="128.896" cy="10.0969" r="2.96992" fill="#757575"/>
<circle cx="207.895" cy="2.37594" r="2.37594" fill="#757575"/>
<circle cx="230.466" cy="9.50289" r="2.37594" fill="#757575"/>
<circle cx="265.513" cy="14.8488" r="2.96992" fill="#757575"/>
<circle cx="277.986" cy="30.8881" r="3.56391" fill="#757575"/>
<circle cx="286.302" cy="55.8354" r="3.56391" fill="#757575"/>
<circle cx="146.716" cy="63.5559" r="2.96992" fill="#757575"/>
<circle cx="30.8877" cy="136.616" r="2.37594" fill="#757575"/>
<circle cx="14.8484" cy="134.835" r="1.78195" fill="#757575"/>
<circle cx="22.5713" cy="111.669" r="2.37594" fill="#A5A5A5"/>
<circle cx="33.8566" cy="108.698" r="2.96992" fill="#757575"/>
<circle cx="65.3369" cy="64.1513" r="2.37594" fill="#757575"/>
<circle cx="107.512" cy="31.4812" r="1.78195" fill="#757575"/>
<circle cx="132.458" cy="45.737" r="1.78195" fill="#757575"/>
<circle cx="142.556" cy="46.331" r="2.37594" fill="#A5A5A5"/>
<circle cx="161.564" cy="23.7592" r="3.56391" fill="#A5A5A5"/>
<circle cx="166.911" cy="6.53391" r="1.78195" fill="#A5A5A5"/>
<circle cx="149.091" cy="6.53391" r="1.78195" fill="#A5A5A5"/>
<circle cx="152.06" cy="16.6323" r="3.56391" fill="#757575"/>
<circle cx="193.638" cy="39.2021" r="2.37594" fill="#A5A5A5"/>
<circle cx="171.067" cy="61.7744" r="2.37594" fill="#A5A5A5"/>
<circle cx="155.626" cy="80.7822" r="2.37594" fill="#111111"/>
</g>
<circle cx="87.3176" cy="80.1887" r="2.96992" fill="#111111"/>
<circle cx="111.075" cy="86.1281" r="2.96992" fill="#111111"/>
<circle cx="153.841" cy="114.638" r="4.15789" fill="#111111"/>
<circle cx="203.736" cy="113.451" r="4.15789" fill="#111111"/>
<circle cx="251.256" cy="115.828" r="4.15789" fill="#111111"/>
<circle cx="328.474" cy="134.836" r="4.15789" fill="#111111"/>
<circle cx="310.654" cy="109.888" r="4.15789" fill="#111111"/>
<circle cx="352.826" cy="187.699" r="4.75188" fill="#111111"/>
<circle cx="203.736" cy="151.466" r="4.15789" fill="#111111"/>
<circle cx="109.294" cy="42.767" r="3.56391" fill="#111111"/>
<circle cx="45.142" cy="279.173" r="3.56391" fill="#111111"/>
<circle cx="31.4821" cy="219.181" r="4.15789" fill="#111111"/>
<circle cx="62.3688" cy="189.482" r="4.15789" fill="#111111"/>
<circle cx="105.134" cy="189.482" r="4.15789" fill="#111111"/>
<circle cx="174.631" cy="19.0077" r="4.75188" fill="#111111"/>
<circle cx="198.392" cy="26.1362" r="3.56391" fill="#111111"/>
<circle cx="65.3373" cy="224.527" r="3.56391" fill="#D26585"/>
<circle cx="250.662" cy="79.5932" r="3.56391" fill="#60CA9C"/>
<circle cx="60.5869" cy="301.745" r="2.37594" fill="#60CA9C"/>
<circle cx="143.15" cy="10.0969" r="2.96992" fill="#60CA9C"/>
</svg>
