<svg width="95" height="37" viewBox="0 0 95 37" fill="none" xmlns="http://www.w3.org/2000/svg">
<path fill-rule="evenodd" clip-rule="evenodd" d="M0.715747 0.999519C0.418683 1.35761 0.418683 1.5389 0.715747 1.897C1.04392 2.29248 6.5984 2.34573 47.3968 2.34573C72.8662 2.34573 93.918 2.26406 94.1783 2.16414C94.7904 1.9293 94.7904 0.96721 94.1783 0.73237C93.918 0.632452 72.8662 0.550781 47.3968 0.550781C6.5984 0.550781 1.04392 0.604031 0.715747 0.999519ZM1.01491 5.33732C1.01491 5.50186 1.21684 5.63648 1.46364 5.63648C1.84178 5.63648 1.91238 6.31796 1.91238 9.97428C1.91238 13.6306 1.84178 14.3121 1.46364 14.3121C1.21684 14.3121 1.01491 14.4467 1.01491 14.6112C1.01491 14.7758 1.6207 14.9104 2.36112 14.9104C3.73934 14.9104 4.1812 14.5056 3.10902 14.2253C2.54839 14.0787 2.51219 13.8274 2.53373 10.2268L2.55707 6.38437L4.61588 10.5457C5.74819 12.8342 6.812 14.844 6.97953 15.0115C7.18625 15.2182 7.59819 14.6026 8.26142 13.0939C8.79871 11.8718 9.66657 9.99672 10.1901 8.92722L11.1417 6.98269L11.1639 10.6474C11.1851 14.12 11.1549 14.3121 10.588 14.3121C10.2589 14.3121 9.98966 14.4467 9.98966 14.6112C9.98966 14.7842 10.9371 14.9104 12.2334 14.9104C13.5296 14.9104 14.477 14.7842 14.477 14.6112C14.477 14.4467 14.2751 14.3121 14.0283 14.3121C13.6502 14.3121 13.5796 13.6306 13.5796 9.97428C13.5796 7.28185 13.6929 5.63648 13.8787 5.63648C14.0433 5.63648 14.1779 5.49468 14.1779 5.32176C14.1779 5.1306 13.576 5.04235 12.6465 5.09739L11.1154 5.18774L9.61751 8.55328C8.79363 10.4045 8.03556 11.9152 7.93265 11.9107C7.83004 11.9065 7.01812 10.3584 6.12842 8.47041L4.51087 5.03816H2.76289C1.79691 5.03816 1.01491 5.17188 1.01491 5.33732ZM15.6737 5.30531C15.6737 5.4522 15.8756 5.64994 16.1224 5.74477C16.791 6.00115 16.791 14.3121 16.1224 14.3121C15.8756 14.3121 15.6737 14.4467 15.6737 14.6112C15.6737 14.7958 17.2194 14.9104 19.7123 14.9104H23.751V13.4146C23.751 11.8353 23.2944 11.3995 22.9746 12.6736C22.7018 13.7601 21.7319 14.3121 20.0943 14.3121H18.6653V12.1991V10.0859L19.6306 10.1798C20.2774 10.2426 20.707 10.4975 20.9323 10.9519C21.5432 12.1845 21.6568 12.0388 21.6568 10.0242C21.6568 7.96184 21.416 7.53853 20.9051 8.70285C20.7025 9.16446 20.3044 9.40528 19.6375 9.4696L18.6653 9.56353V7.59986V5.63648H20.0115C21.4169 5.63648 22.5543 6.37241 22.5543 7.28185C22.5543 7.52866 22.6889 7.73059 22.8535 7.73059C23.018 7.73059 23.1526 7.12479 23.1526 6.38437V5.03816H19.4132C17.3564 5.03816 15.6737 5.15842 15.6737 5.30531ZM27.1138 5.63498C25.6294 6.53994 24.95 7.88256 24.9488 9.91445C24.9461 13.8089 27.6322 15.7827 31.5641 14.7752C32.5588 14.5206 33.4287 14.3121 33.4978 14.3121C33.5667 14.3121 33.6232 13.8409 33.6232 13.265C33.6232 11.9939 33.3357 11.9383 32.6844 13.0831C32.0777 14.1499 30.4563 14.7572 29.344 14.3345C28.2198 13.907 27.6068 12.7774 27.4297 10.8077C27.1335 7.50861 28.1932 5.51681 30.2448 5.51681C31.1177 5.51681 31.5072 5.72862 32.2812 6.6237C32.8074 7.23249 33.3246 7.73059 33.4305 7.73059C33.5364 7.73059 33.6232 7.29232 33.6232 6.75623C33.6232 5.88209 33.5008 5.74388 32.4313 5.41002C30.608 4.84102 28.2524 4.94064 27.1138 5.63498ZM34.8198 5.33732C34.8198 5.50186 35.0218 5.63648 35.2686 5.63648C35.6467 5.63648 35.7173 6.31796 35.7173 9.97428C35.7173 13.6306 35.6467 14.3121 35.2686 14.3121C35.0218 14.3121 34.8198 14.4467 34.8198 14.6112C34.8198 14.7821 35.7173 14.9104 36.9139 14.9104C38.1106 14.9104 39.008 14.7821 39.008 14.6112C39.008 14.4467 38.8061 14.3121 38.5593 14.3121C38.2033 14.3121 38.1106 13.8801 38.1106 12.218V10.1239H39.9055H41.7005V12.218C41.7005 13.8801 41.6077 14.3121 41.2517 14.3121C41.0049 14.3121 40.803 14.4467 40.803 14.6112C40.803 14.7821 41.7005 14.9104 42.8971 14.9104C44.0937 14.9104 44.9912 14.7821 44.9912 14.6112C44.9912 14.4467 44.7893 14.3121 44.5425 14.3121C44.1643 14.3121 44.0937 13.6306 44.0937 9.97428C44.0937 6.31796 44.1643 5.63648 44.5425 5.63648C44.7893 5.63648 44.9912 5.50186 44.9912 5.33732C44.9912 5.1665 44.0937 5.03816 42.8971 5.03816C41.7005 5.03816 40.803 5.1665 40.803 5.33732C40.803 5.50186 41.0049 5.63648 41.2517 5.63648C41.6044 5.63648 41.7005 6.05201 41.7005 7.58101V9.52554H39.9055H38.1106V7.58101C38.1106 6.05201 38.2066 5.63648 38.5593 5.63648C38.8061 5.63648 39.008 5.50186 39.008 5.33732C39.008 5.1665 38.1106 5.03816 36.9139 5.03816C35.7173 5.03816 34.8198 5.1665 34.8198 5.33732ZM48.3717 9.45075C47.1006 12.5369 46.3641 13.9522 45.9222 14.1586C44.8877 14.642 45.1961 14.9104 46.7862 14.9104C47.6089 14.9104 48.282 14.7758 48.282 14.6112C48.282 14.4467 48.0127 14.3121 47.6836 14.3121C46.9693 14.3121 46.9654 14.2807 47.5188 12.9563C47.9457 11.9347 47.9798 11.9188 49.7616 11.9188C51.5198 11.9188 51.5826 11.9463 51.979 12.8911C52.4507 14.0156 52.3622 14.3121 51.5551 14.3121C51.2356 14.3121 50.9744 14.4467 50.9744 14.6112C50.9744 14.7871 52.0214 14.9104 53.5172 14.9104C55.8662 14.9104 56.8301 14.5831 55.5031 14.2361C55.1138 14.1344 54.3701 12.7262 53.0353 9.56443C51.7304 6.47263 50.9765 5.03816 50.657 5.03816C50.336 5.03816 49.6189 6.42237 48.3717 9.45075ZM56.3592 5.33732C56.3592 5.50186 56.5612 5.63648 56.808 5.63648C57.1861 5.63648 57.2567 6.31796 57.2567 9.97428C57.2567 13.6306 57.1861 14.3121 56.808 14.3121C56.5612 14.3121 56.3592 14.4467 56.3592 14.6112C56.3592 14.7758 56.965 14.9104 57.7055 14.9104C58.4459 14.9104 59.0517 14.7758 59.0517 14.6112C59.0517 14.4467 58.7824 14.3121 58.4534 14.3121C57.8859 14.3121 57.855 14.1125 57.855 10.423C57.855 8.28403 57.9137 6.53395 57.9855 6.53395C58.0573 6.53395 59.4983 8.41865 61.1883 10.7222C63.1594 13.4098 64.4527 14.9104 64.797 14.9104C65.2903 14.9104 65.334 14.5341 65.334 10.2734C65.334 6.35117 65.4031 5.63648 65.7827 5.63648C66.0295 5.63648 66.2315 5.50186 66.2315 5.33732C66.2315 5.17278 65.6257 5.03816 64.8853 5.03816C64.1448 5.03816 63.5391 5.17278 63.5391 5.33732C63.5391 5.50186 63.8083 5.63648 64.1374 5.63648C64.6959 5.63648 64.7357 5.83602 64.7357 8.62806C64.7357 10.2734 64.6735 11.6197 64.5975 11.6197C64.5215 11.6197 63.3661 10.1388 62.0298 8.32891L59.6006 5.03816H57.9798C57.0886 5.03816 56.3592 5.17278 56.3592 5.33732ZM67.4281 5.33732C67.4281 5.50186 67.6301 5.63648 67.8769 5.63648C68.255 5.63648 68.3256 6.31796 68.3256 9.97428C68.3256 13.6306 68.255 14.3121 67.8769 14.3121C67.6301 14.3121 67.4281 14.4467 67.4281 14.6112C67.4281 14.7821 68.3256 14.9104 69.5222 14.9104C70.7189 14.9104 71.6163 14.7821 71.6163 14.6112C71.6163 14.4467 71.4144 14.3121 71.1676 14.3121C70.7895 14.3121 70.7189 13.6306 70.7189 9.97428C70.7189 6.31796 70.7895 5.63648 71.1676 5.63648C71.4144 5.63648 71.6163 5.50186 71.6163 5.33732C71.6163 5.1665 70.7189 5.03816 69.5222 5.03816C68.3256 5.03816 67.4281 5.1665 67.4281 5.33732ZM74.0326 5.81268C73.3084 6.42177 73.1121 6.82444 73.1121 7.70007C73.1121 9.20843 73.5947 9.76546 75.8372 10.8472C77.5139 11.6558 77.7602 11.8826 77.8391 12.6921C77.9477 13.8062 77.3267 14.4123 76.1121 14.3779C74.8161 14.3411 74.0916 13.8334 73.6698 12.6664C73.1462 11.2188 72.8964 11.3576 72.9323 13.0757L72.9625 14.5317L74.7638 14.8655C77.8011 15.4282 79.5396 14.5963 79.8941 12.4103C80.1442 10.8706 79.4298 9.97009 77.0589 8.83718C75.4327 8.05996 75.0399 7.73478 74.9666 7.10654C74.8464 6.07205 75.5204 5.57784 76.8959 5.69182C77.7987 5.76691 78.1679 5.99278 78.7118 6.8026L79.3945 7.81914V6.61742C79.3945 5.46117 79.352 5.40852 78.2726 5.23022C76.0439 4.86166 74.9905 5.00645 74.0326 5.81268ZM81.1894 5.33732C81.1894 5.50186 81.324 5.63648 81.4886 5.63648C81.6744 5.63648 81.7877 7.28185 81.7877 9.97428C81.7877 13.6306 81.7171 14.3121 81.339 14.3121C81.0922 14.3121 80.8903 14.4467 80.8903 14.6112C80.8903 14.7758 81.4961 14.9104 82.2365 14.9104C82.9769 14.9104 83.5827 14.7758 83.5827 14.6112C83.5827 14.4467 83.3808 14.3121 83.1339 14.3121C82.7573 14.3121 82.6891 13.6994 82.7088 10.4978L82.7325 6.68353L84.8125 11.001C86.556 14.6196 86.9551 15.249 87.2791 14.8901C87.4918 14.6543 88.3812 12.8462 89.2562 10.8718C90.131 8.89731 90.895 7.22561 90.9542 7.1571C91.0132 7.08859 91.0616 8.67054 91.0616 10.6722C91.0616 14.1125 91.0287 14.3121 90.4633 14.3121C90.1343 14.3121 89.865 14.4467 89.865 14.6112C89.865 14.7842 90.8124 14.9104 92.1087 14.9104C93.405 14.9104 94.3524 14.7842 94.3524 14.6112C94.3524 14.4467 94.1505 14.3121 93.9037 14.3121C93.5255 14.3121 93.4549 13.6306 93.4549 9.97428C93.4549 6.31796 93.5255 5.63648 93.9037 5.63648C94.1505 5.63648 94.3524 5.50186 94.3524 5.33732C94.3524 5.17278 93.6323 5.03816 92.7525 5.03816H91.1526L89.5365 8.66815L87.9205 12.2981L86.1997 8.66815L84.4787 5.03816H82.8342C81.9295 5.03816 81.1894 5.17278 81.1894 5.33732ZM50.5295 9.41306C50.9388 10.3387 51.2736 11.1464 51.2736 11.208C51.2736 11.2699 50.5861 11.3205 49.7458 11.3205C48.0555 11.3205 48.1052 11.5033 49.1151 9.00321C49.3972 8.30438 49.6635 7.73238 49.7069 7.73178C49.7499 7.73119 50.1203 8.48776 50.5295 9.41306ZM3.18111 22.0887C1.50553 23.11 0.969434 24.31 1.07922 26.7909C1.16718 28.7749 1.25603 29.0319 2.18073 29.9862C3.58049 31.4305 5.36796 31.8317 7.68584 31.222C8.63986 30.971 9.48139 30.7658 9.55558 30.7658C9.62978 30.7658 9.69051 30.2946 9.69051 29.7187C9.69051 28.4476 9.40301 28.392 8.75175 29.5369C8.0933 30.6943 6.43476 31.2564 5.28629 30.7111C4.17432 30.183 3.40877 28.5577 3.41027 26.7272C3.41296 23.5594 4.38224 21.9705 6.31211 21.9705C7.18505 21.9705 7.57456 22.1823 8.34848 23.0774C8.8747 23.6862 9.35814 24.184 9.42306 24.1834C9.48798 24.1828 9.5502 23.7332 9.56127 23.1839C9.58041 22.2535 9.49336 22.1617 8.28566 21.8386C6.30642 21.3091 4.29817 21.4075 3.18111 22.0887ZM14.3918 22.4447C11.4107 29.6772 10.9903 30.5716 10.5132 30.6976C9.46135 30.9749 10.0289 31.3641 11.4855 31.3641C12.3081 31.3641 12.9813 31.2295 12.9813 31.065C12.9813 30.9004 12.712 30.7658 12.3829 30.7658C11.6934 30.7658 11.6635 30.6043 12.1131 29.3146C12.4341 28.3938 12.4832 28.3725 14.3086 28.3725C16.0192 28.3725 16.205 28.4366 16.523 29.1345C17.0298 30.2465 16.9499 30.7658 16.272 30.7658C15.9429 30.7658 15.6737 30.9004 15.6737 31.065C15.6737 31.2409 16.7207 31.3641 18.2165 31.3641C19.7123 31.3641 20.7594 31.2409 20.7594 31.065C20.7594 30.9004 20.5057 30.7658 20.1955 30.7658C19.7521 30.7658 19.2196 29.7911 17.7029 26.2036C15.6306 21.3028 15.1074 20.7084 14.3918 22.4447ZM21.0585 21.7318C21.0585 21.8937 21.2605 22.1037 21.5073 22.1985C21.8755 22.3397 21.956 23.0975 21.956 26.428C21.956 29.7585 21.8755 30.5163 21.5073 30.6575C20.4737 31.0542 21.1952 31.3641 23.1526 31.3641C24.3493 31.3641 25.2468 31.2358 25.2468 31.065C25.2468 30.9004 24.9709 30.7658 24.6335 30.7658C24.0758 30.7658 24.0283 30.6096 24.1099 29.0456L24.1997 27.3255L25.7443 27.236C27.8043 27.1167 28.8367 26.1516 28.8367 24.3453C28.8367 23.3853 28.6563 22.9222 28.0654 22.3666C27.3696 21.7124 26.9896 21.6316 24.1764 21.5395C22.2617 21.4769 21.0585 21.5511 21.0585 21.7318ZM30.0333 21.759C30.0333 21.9059 30.2352 22.1037 30.482 22.1985C30.8515 22.34 30.9308 23.113 30.9308 26.5683C30.9308 30.0999 30.8596 30.7658 30.482 30.7658C30.2352 30.7658 30.0333 30.9004 30.0333 31.065C30.0333 31.2337 30.8808 31.3641 31.9778 31.3641C33.0748 31.3641 33.9224 31.2337 33.9224 31.065C33.9224 30.9004 33.7204 30.7658 33.4736 30.7658C33.0961 30.7658 33.0249 30.0999 33.0249 26.5683C33.0249 23.113 33.1042 22.34 33.4736 22.1985C34.4827 21.8111 33.8069 21.4919 31.9778 21.4919C30.9083 21.4919 30.0333 21.6121 30.0333 21.759ZM34.8198 22.6709C34.8198 23.3194 34.9544 23.933 35.119 24.0347C35.2835 24.1364 35.4181 24.0096 35.4181 23.7532C35.4181 23.0382 36.5268 22.0902 37.3627 22.0902H38.1106V26.3065C38.1106 30.271 38.075 30.5319 37.5123 30.679C36.2067 31.0207 37.0318 31.3641 39.1576 31.3641C40.4539 31.3641 41.4013 31.2379 41.4013 31.065C41.4013 30.9004 41.1321 30.7658 40.803 30.7658C40.2322 30.7658 40.2047 30.5663 40.2047 26.428V22.0902H40.9526C41.7884 22.0902 42.8971 23.0382 42.8971 23.7532C42.8971 24.0096 43.0317 24.1364 43.1963 24.0347C43.3608 23.933 43.4954 23.3194 43.4954 22.6709V21.4919H39.1576H34.8198V22.6709ZM45.4265 25.9105C44.1051 29.1303 43.4404 30.3966 42.9584 30.6123C41.8904 31.0904 42.195 31.3641 43.7946 31.3641C44.6173 31.3641 45.2904 31.2295 45.2904 31.065C45.2904 30.9004 45.0884 30.7658 44.8416 30.7658C44.3226 30.7658 44.2708 30.2285 44.6846 29.1399C44.9532 28.4339 45.1199 28.3725 46.7712 28.3725C48.4558 28.3725 48.5937 28.4267 49.0221 29.2551C49.6294 30.4292 49.5977 30.7658 48.8803 30.7658C48.5512 30.7658 48.282 30.9004 48.282 31.065C48.282 31.2394 49.2791 31.3641 50.6752 31.3641C52.8863 31.3641 53.8113 31.0297 52.5282 30.6943C52.1594 30.5977 51.3884 29.118 50.0949 26.0223C48.7543 22.8145 48.0606 21.4937 47.7183 21.4979C47.3788 21.5021 46.697 22.8145 45.4265 25.9105ZM53.3677 21.791C53.3677 21.9556 53.5696 22.0902 53.8164 22.0902C54.1945 22.0902 54.2651 22.7717 54.2651 26.428C54.2651 30.0843 54.1945 30.7658 53.8164 30.7658C53.5696 30.7658 53.3677 30.9004 53.3677 31.065C53.3677 31.2483 54.8135 31.3641 57.1071 31.3641H60.8466V30.0179C60.8466 29.2775 60.712 28.6717 60.5475 28.6717C60.3829 28.6717 60.2483 28.9332 60.2483 29.253C60.2483 30.0718 59.1196 30.7658 57.7883 30.7658H56.6584V26.428C56.6584 22.2482 56.6808 22.0902 57.2744 22.0902C57.613 22.0902 57.8072 21.9556 57.7055 21.791C57.6037 21.6265 56.5863 21.4919 55.4441 21.4919C54.2592 21.4919 53.3677 21.6202 53.3677 21.791ZM25.8962 22.5853C26.2486 22.9042 26.4434 23.4968 26.4434 24.2504C26.4434 25.8988 26.0039 26.5776 24.9371 26.5776H24.0501V24.3339C24.0501 22.2305 24.0908 22.0902 24.6996 22.0902C25.0568 22.0902 25.5953 22.3131 25.8962 22.5853ZM14.5638 27.7171C13.8225 27.7679 13.1458 27.7392 13.0596 27.6531C12.9735 27.5669 13.2173 26.7221 13.6014 25.7755L14.2999 24.0548L15.1059 25.8396L15.9115 27.6246L14.5638 27.7171ZM48.1189 27.1334C48.3086 27.7308 48.2197 27.7742 46.8062 27.7742C45.9725 27.7742 45.2904 27.7237 45.2904 27.6617C45.2904 27.6001 45.6368 26.7661 46.0601 25.8087L46.8302 24.0682L47.3728 25.2804C47.6714 25.9473 48.007 26.781 48.1189 27.1334ZM0.530269 35.3884C0.438726 35.6274 0.450693 35.964 0.557193 36.1363C0.690319 36.3517 10.3373 36.4498 31.3373 36.4498C62.7041 36.4498 63.1968 36.4322 62.2987 35.3501C62.0298 35.0261 56.3886 34.954 31.3334 34.954C4.82589 34.954 0.674463 35.0127 0.530269 35.3884Z" fill="#343434"/>
</svg>
