<svg width="156" height="39" viewBox="0 0 156 39" fill="none" xmlns="http://www.w3.org/2000/svg">
<g clip-path="url(#clip0)">
<path d="M3.54671 37.1194C3.97507 37.1194 4.4177 37.1194 4.84606 37.1194C4.84606 37.3764 4.84606 37.5478 4.84606 37.7334C3.27542 37.7334 1.71907 37.7334 0.148438 37.7334C0.148438 37.5621 0.148438 37.305 0.148438 37.1194C0.576792 37.1194 1.01942 37.1194 1.44778 37.1194C1.44778 36.9481 1.44778 36.8624 1.44778 36.7767C1.44778 34.1638 1.44778 31.6508 1.44778 29.0378C1.44778 28.7808 1.36211 28.6951 1.1051 28.6951C0.762412 28.6951 0.491121 28.6951 0.148438 28.6951C0.148438 28.4381 0.148438 28.2668 0.148438 27.9955C0.234108 27.9955 0.319779 27.9955 0.40545 27.9955C1.97608 27.9955 3.53244 27.9955 5.18874 27.9955C5.80271 27.9955 6.40241 28.0812 6.93071 28.2525C8.05871 28.6808 8.75836 29.7232 8.67269 30.9511C8.58702 32.1648 7.8017 33.0358 6.58803 33.2928C5.71704 33.4641 4.84606 33.4641 4.07502 33.4641C3.64666 33.4641 3.46104 33.5498 3.46104 33.8925C3.46104 34.8492 3.46104 35.7201 3.46104 36.6768C3.54671 36.7767 3.54671 36.9481 3.54671 37.1194ZM3.46104 28.6095C3.46104 30.0801 3.46104 31.4794 3.46104 32.7788C4.07502 32.7788 4.67471 32.8644 5.28869 32.7788C6.074 32.6931 6.33102 32.3504 6.41669 31.5651C6.41669 30.9511 6.41669 30.4371 6.41669 29.8231C6.33102 29.2092 5.98833 28.8665 5.37436 28.7808C4.76038 28.6951 4.16069 28.6951 3.46104 28.6095ZM99.2816 28.6294C99.4529 28.4581 99.7099 28.201 100.067 27.9298C100.153 27.8441 100.324 27.7584 100.41 27.8441C100.495 27.8441 100.581 28.1011 100.581 28.1868C100.581 29.2291 100.581 30.2714 100.581 31.3138C100.581 31.4851 100.581 31.6564 100.238 31.6564C99.9812 31.6564 99.8099 31.6564 99.7099 31.3138C99.6243 30.8854 99.5386 30.3571 99.2816 29.9287C98.8532 28.9721 98.1536 28.3581 97.0256 28.4581C95.8976 28.4581 94.9409 28.8864 94.327 30.0287C94.1556 30.2857 94.07 30.6427 93.9843 30.9853C93.8129 32.3704 93.7273 33.7696 94.0699 35.1547C94.4126 36.6253 95.7263 37.4963 97.2826 37.325C98.5819 37.1536 99.6243 36.1113 99.7099 34.6264C99.7099 34.3693 99.8813 34.2837 100.138 34.2837C100.395 34.2837 100.395 34.455 100.395 34.712C100.31 36.1827 99.1816 37.4963 97.6967 37.9247C96.1261 38.2674 93.6987 37.839 92.485 35.84C91.6997 34.5407 91.5284 33.1414 91.8711 31.6707C92.485 28.5437 95.612 27.5014 97.611 28.0154C98.2393 28.1011 98.7533 28.3724 99.2816 28.6294ZM53.2501 28.2525C53.2501 28.4238 53.2501 28.5952 53.2501 28.8665C52.9074 28.8665 52.6361 28.8665 52.2934 28.8665C52.0364 28.8665 51.9507 28.9521 51.9507 29.2092C51.9507 30.1658 51.9507 31.2081 51.9507 32.1648C51.9507 32.3361 51.9507 32.5075 52.2078 32.5075C53.2501 32.5075 54.2924 32.5075 55.3347 32.5075C55.3347 31.2938 55.3347 30.1658 55.3347 28.8522C54.9064 28.8522 54.4637 28.8522 54.0354 28.8522C54.0354 28.5952 54.0354 28.4238 54.0354 28.2382C55.5061 28.2382 57.0767 28.2382 58.5474 28.2382C58.5474 28.4096 58.5474 28.5809 58.5474 28.8522C58.2047 28.8522 57.9334 28.8522 57.5907 28.8522C57.3337 28.8522 57.2481 28.9379 57.2481 29.1949C57.2481 31.7079 57.2481 34.3208 57.2481 36.8481C57.2481 37.1051 57.3337 37.1908 57.5907 37.1052C57.8477 37.1052 58.119 37.1052 58.2904 37.1052C58.5474 37.1052 58.5474 37.2765 58.5474 37.4478C58.5474 37.7048 58.4617 37.7048 58.2904 37.7048C56.9054 37.7048 55.5061 37.7048 54.1211 37.7048H54.0354C53.8641 37.0909 53.9497 37.0909 54.4637 37.0909C54.6351 37.0909 54.8921 37.0909 55.0777 37.0909H55.1634C55.1634 37.0052 55.1634 36.9195 55.1634 36.8339C55.1634 35.7059 55.1634 34.6635 55.1634 33.5355C55.1634 33.2785 55.0777 33.1072 54.735 33.1928C53.8641 33.1928 52.9931 33.1928 52.0364 33.1928C51.7794 33.1928 51.6937 33.2785 51.6937 33.5355C51.6937 34.6635 51.6937 35.7059 51.6937 36.8339C51.6937 37.0909 51.7794 37.1765 52.0364 37.1765C52.2077 37.1765 52.3791 37.1765 52.4648 37.1765C52.9931 37.1765 52.9931 37.1765 52.9931 37.7905C51.5224 37.7905 49.9518 37.7905 48.4811 37.7905C48.4811 37.6192 48.4811 37.4478 48.4811 37.1765C48.7381 37.1765 49.095 37.1765 49.4377 37.1765C49.6947 37.1765 49.7804 37.0909 49.7804 36.8339C49.7804 34.3208 49.7804 31.7936 49.7804 29.1806C49.7804 28.9236 49.6947 28.8379 49.4377 28.8379C49.1807 28.8379 48.8237 28.8379 48.4811 28.8379C48.4811 28.6666 48.4811 28.4952 48.4811 28.2239C50.2088 28.2525 51.6794 28.2525 53.2501 28.2525ZM10.4147 32.9501C10.5003 31.3795 10.843 30.0801 12.071 28.9521C13.8986 27.2958 18.0679 27.4815 19.1103 31.0368C19.5386 32.5075 19.5386 33.9924 18.8532 35.3775C18.0679 37.1194 16.2403 38.0761 14.2413 37.8048C12.328 37.5478 10.943 36.2342 10.586 34.3351C10.5003 33.9068 10.4147 33.4641 10.4147 32.9501ZM12.585 32.8644C12.585 33.3927 12.585 33.9068 12.6707 34.4351C12.7563 35.3917 13.0133 36.177 13.713 36.8624C14.4126 37.5621 15.5406 37.5621 16.1403 36.8624C16.483 36.4341 16.84 35.9058 17.0113 35.3917C17.354 34.1781 17.354 32.9644 17.1827 31.7364C17.097 31.1225 17.0113 30.5228 16.7543 29.9945C16.4116 29.2092 15.7976 28.6951 14.841 28.6951C13.97 28.6951 13.3703 29.2234 13.0133 29.9945C12.4993 30.7798 12.585 31.8221 12.585 32.8644ZM75.8386 28.8665C75.8386 28.6095 75.8386 28.5238 75.8386 28.2525C76.01 28.2525 76.1813 28.2525 76.4526 28.2525C77.1522 28.2525 77.9233 28.2525 78.6229 28.2525C78.9656 28.2525 79.2369 28.3382 79.4082 28.6808C80.7932 30.5942 82.1925 32.5075 83.5776 34.4208C83.5776 34.3351 83.5776 34.4208 83.7489 34.5065C83.7489 34.3351 83.8346 34.2495 83.8346 34.1638C83.8346 32.5932 83.8346 30.9511 83.8346 29.3805C83.8346 29.0378 83.7489 28.8522 83.4062 28.8522C83.1492 28.8522 82.8922 28.8522 82.5352 28.7665C82.5352 28.5952 82.5352 28.4238 82.5352 28.1525C83.6632 28.1525 84.7056 28.1525 85.8335 28.1525C85.8335 28.3239 85.8335 28.4952 85.8335 28.7665C85.4909 28.7665 85.3195 28.8522 85.0482 28.8522C84.7056 28.8522 84.5199 29.0235 84.5199 29.4662C84.5199 32.0791 84.5199 34.6778 84.5199 37.2908C84.5199 37.4621 84.4343 37.7191 84.2629 37.7191C84.0916 37.7191 83.9202 37.6335 83.7346 37.5478C83.6489 37.5478 83.6489 37.4621 83.6489 37.3764C82.0783 35.2061 80.522 33.0358 78.8657 30.8655C78.6086 30.4371 78.2517 30.0801 77.909 29.5661C77.909 29.7375 77.909 29.9088 77.909 29.9945C77.909 32.1648 77.909 34.3351 77.909 36.5055C77.909 36.9338 77.9947 37.1194 78.423 37.1194C78.5087 37.1194 78.5944 37.1194 78.68 37.1194C79.1941 37.1194 79.1941 37.1194 79.1941 37.7334C78.0661 37.7334 77.0237 37.7334 75.8957 37.7334C75.7244 37.2051 75.7244 37.1194 76.3241 37.1194C77.1094 37.0338 77.1094 37.0338 77.1094 36.2484C77.1094 33.9068 77.1094 31.5508 77.1094 29.2948C77.1094 28.9521 77.0237 28.7665 76.6811 28.8665C76.3669 28.8665 76.0956 28.8665 75.8386 28.8665ZM116.045 37.1394C116.473 37.1394 116.744 37.1394 117.087 37.1394C117.344 37.1394 117.344 37.3107 117.344 37.482C117.344 37.6534 117.344 37.8247 117.087 37.8247C115.702 37.8247 114.388 37.8247 113.003 37.8247C112.746 37.8247 112.746 37.7391 112.746 37.482C112.746 37.3107 112.746 37.1394 113.003 37.1394C113.346 37.1394 113.617 37.1394 114.046 37.1394C114.046 36.968 114.046 36.7967 114.046 36.711C114.046 34.2837 114.046 31.8421 114.046 29.4147C114.046 29.072 113.96 28.8864 113.617 28.8864C113.446 28.8864 113.274 28.8864 113.089 28.8864C112.832 28.8864 112.746 28.8007 112.746 28.5437C112.746 28.2867 112.832 28.201 113.089 28.201C114.745 28.201 116.387 28.201 118.044 28.201C119.086 28.201 120.128 28.5437 120.656 29.5004C121.613 31.071 120.742 32.9701 118.914 33.327C118.129 33.4984 117.258 33.4984 116.487 33.4984C116.144 33.4984 116.059 33.584 116.059 33.9267C116.045 35.0547 116.045 36.0114 116.045 37.1394ZM115.959 30.8854C115.959 31.4994 115.959 32.0134 115.959 32.6274C115.959 32.7987 115.959 32.9701 116.216 32.9701C116.744 32.9701 117.258 32.9701 117.786 32.8844C118.486 32.7987 118.829 32.456 118.829 31.7564C118.829 31.1424 118.829 30.5427 118.829 29.9287C118.743 29.2291 118.486 28.8864 117.786 28.8007C117.258 28.7151 116.83 28.8007 116.316 28.7151C116.059 28.7151 115.973 28.8007 115.973 29.0578C115.959 29.7574 115.959 30.3714 115.959 30.8854ZM131.251 28.9721C130.723 29.0578 130.123 29.0578 129.68 29.2291C129.252 29.3148 128.981 29.6574 128.895 30.1001C128.809 30.4428 128.724 30.8854 128.724 31.2281C128.638 31.7564 128.638 31.7564 128.024 31.6564C128.024 31.3994 128.024 31.2281 128.024 30.9568C128.11 30.1715 128.195 29.3862 128.195 28.6151C128.195 28.4438 128.195 28.2724 128.453 28.2724C131.065 28.2724 133.578 28.2724 136.191 28.2724C136.191 28.2724 136.277 28.2724 136.363 28.3581C136.448 29.4004 136.534 30.5284 136.62 31.5708C136.006 31.7421 136.006 31.7421 135.92 31.1424C135.834 30.8854 135.749 30.6141 135.749 30.2714C135.577 29.4861 135.049 29.0578 134.278 29.0578C133.935 29.0578 133.664 29.0578 133.321 29.0578C133.321 31.7564 133.321 34.4407 133.321 37.1394C133.935 37.1394 134.535 37.1394 135.149 37.1394C135.149 37.3964 135.149 37.5677 135.149 37.7533C133.236 37.7533 131.408 37.7533 129.495 37.7533C129.495 37.582 129.495 37.4107 129.495 37.1394C130.109 37.1394 130.709 37.1394 131.322 37.1394C131.251 34.455 131.251 31.7564 131.251 28.9721ZM69.1563 37.7334C67.6856 37.7334 66.2863 37.7334 64.9013 37.7334C64.73 37.1194 64.8156 37.1194 65.3297 37.1194C65.501 37.1194 65.6723 37.1194 65.9436 37.1194C65.6866 36.5055 65.5153 35.9058 65.3297 35.3775C65.3297 35.2918 65.1583 35.2918 65.0727 35.2918C64.2017 35.2918 63.3307 35.2918 62.4597 35.2918C62.374 35.2918 62.2027 35.3775 62.2027 35.4631C62.0313 35.9914 61.86 36.5055 61.6744 37.0338C61.9314 37.0338 62.1027 37.1194 62.2884 37.1194C62.8167 37.1194 62.8167 37.2908 62.7167 37.7334C61.6744 37.7334 60.7177 37.7334 59.6754 37.7334C59.5897 37.1194 59.5897 37.1194 60.1037 37.1194C60.632 37.1194 60.8891 36.9481 61.0604 36.4198C61.9314 33.8068 62.8881 31.2081 63.8447 28.5095C63.9304 28.2525 64.016 27.9812 64.373 27.9812C64.7157 27.9812 64.9013 28.1525 64.987 28.5095C65.6866 30.5942 66.4577 32.6788 67.1573 34.7635C67.4143 35.4631 67.6856 36.1485 67.857 36.8481C67.9426 37.1051 68.114 37.1908 68.3853 37.1908C68.4709 37.1908 68.5566 37.1908 68.6423 37.1908C69.242 37.1194 69.242 37.1194 69.1563 37.7334ZM65.1583 34.5065C64.73 33.2928 64.2873 32.1648 63.9447 30.9368H63.859C63.4306 32.0648 63.0737 33.2785 62.6453 34.4065C63.4164 34.5065 64.2017 34.5065 65.1583 34.5065ZM107.363 37.1394C107.792 37.1394 108.149 37.1394 108.491 37.1394C108.234 36.5254 108.063 35.9257 107.877 35.3974C107.877 35.3117 107.706 35.2261 107.62 35.2261C106.749 35.2261 105.878 35.2261 105.007 35.2261C104.922 35.2261 104.75 35.3117 104.665 35.3974C104.493 35.9257 104.322 36.3541 104.136 36.968C104.479 37.0537 104.836 37.0537 105.179 37.1394C105.179 37.3107 105.179 37.4821 105.179 37.7533C104.136 37.7533 103.18 37.7533 102.137 37.7533C101.966 37.1394 101.966 37.1394 102.566 37.1394C103.265 37.1394 103.265 37.1394 103.522 36.4397C104.479 33.8268 105.35 31.2281 106.307 28.5294C106.392 28.2724 106.478 28.0011 106.921 28.0011C107.349 28.0011 107.449 28.2582 107.535 28.5294C108.491 31.2281 109.448 33.9981 110.405 36.6967C110.49 37.0394 110.662 37.1251 111.018 37.1251C111.19 37.1251 111.276 37.1251 111.447 37.1251C111.704 37.1251 111.704 37.2964 111.704 37.4678C111.704 37.6391 111.618 37.8105 111.447 37.8105C110.233 37.8105 108.934 37.8105 107.706 37.8105C107.178 37.7533 107.449 37.4107 107.363 37.1394ZM105.007 34.5407C105.878 34.5407 106.749 34.5407 107.62 34.5407C107.192 33.327 106.749 32.199 106.407 30.9711H106.321C105.878 32.199 105.45 33.327 105.007 34.5407ZM141.674 37.7533C141.674 37.582 141.674 37.4107 141.674 37.1394C142.017 37.1394 142.374 37.1394 142.802 37.1394C142.545 36.5254 142.374 36.0114 142.188 35.3974C142.188 35.3117 142.017 35.2261 141.846 35.2261C140.975 35.2261 140.189 35.2261 139.333 35.2261C139.247 35.2261 139.076 35.3117 138.99 35.4831C138.819 35.9114 138.647 36.4397 138.462 37.0537C138.804 37.1394 139.161 37.1394 139.504 37.225C139.504 37.3964 139.504 37.5677 139.504 37.839C138.462 37.839 137.419 37.839 136.463 37.839C136.291 37.3107 136.291 37.225 136.891 37.225C137.591 37.225 137.591 37.225 137.848 36.5254C138.804 33.9124 139.675 31.3137 140.632 28.7008C140.718 28.4438 140.803 28.1725 141.246 28.1725C141.674 28.1725 141.774 28.4295 141.86 28.7008C142.817 31.3994 143.773 34.1694 144.73 36.8681C144.816 37.1251 144.987 37.2964 145.258 37.2108C145.344 37.2108 145.515 37.2108 145.601 37.2108C145.858 37.2108 146.029 37.2108 146.029 37.5534C146.029 37.8961 145.858 37.8961 145.601 37.8961C144.387 37.8961 143.174 37.8961 142.031 37.8961C141.946 37.7533 141.86 37.7533 141.674 37.7533ZM140.732 31.0567H140.646C140.218 32.1847 139.861 33.3984 139.433 34.5264C140.304 34.5264 141.175 34.5264 142.046 34.5264C141.503 33.327 141.075 32.199 140.732 31.0567ZM33.4316 32.9501C34.2169 31.5651 34.9022 30.3372 35.6876 28.9521C35.3449 28.8665 35.0736 28.8665 34.7309 28.7808C34.7309 28.6095 34.7309 28.4381 34.7309 28.1668C35.7732 28.1668 36.7299 28.1668 37.7722 28.1668C37.7722 28.3382 37.7722 28.5095 37.7722 28.6951L37.6865 28.7808C36.8156 28.6951 36.3872 29.1235 36.0302 29.8231C35.4163 31.1225 34.6452 32.3361 33.9456 33.5641C33.8599 33.7354 33.7742 33.9068 33.7742 34.0924C33.7742 34.9634 33.7742 35.8344 33.7742 36.7053C33.7742 36.9624 33.8599 37.048 34.1169 37.048C34.2883 37.048 34.4596 37.048 34.5453 37.048C35.0736 37.048 35.0736 37.048 34.9736 37.662C33.5029 37.662 32.018 37.662 30.5473 37.662C30.5473 37.4907 30.5473 37.3193 30.5473 37.048C30.89 37.048 31.247 37.048 31.504 37.048C31.6753 37.048 31.8466 36.9624 31.8466 36.791C31.8466 35.92 31.8466 34.9634 31.8466 34.0924C31.8466 33.921 31.761 33.8354 31.6753 33.664C30.8043 32.0934 29.9333 30.6227 29.0623 29.152C28.891 28.9807 28.634 28.895 28.4484 28.895C28.1914 28.8094 27.9201 28.895 27.6631 28.895C27.6631 28.7237 27.6631 28.5523 27.6631 28.2811C29.1337 28.2811 30.533 28.2811 32.0037 28.2811C32.0037 28.4524 32.0037 28.6237 32.0037 28.895C31.661 28.895 31.3897 28.895 30.9614 28.9807C31.8752 30.2515 32.5749 31.5651 33.4316 32.9501ZM47.3388 29.9088C47.3388 30.4371 47.3388 30.9511 47.3388 31.3795C47.3388 31.6365 47.3388 31.8078 46.9961 31.8078C46.7391 31.8078 46.5678 31.7222 46.5678 31.4652C46.4821 30.5942 46.1394 29.7232 45.3541 29.2092C44.0547 28.1668 41.8844 28.8665 41.2704 30.5085C41.0991 31.2081 41.0134 31.9792 41.0134 32.6788C41.0134 33.5498 41.0991 34.5065 41.3561 35.3775C41.6988 36.6768 43.0124 37.3764 44.3974 37.2908C45.6968 37.1194 46.6534 36.0771 46.7391 34.7778C46.7391 34.5207 46.8248 34.3494 47.1674 34.3494C47.5101 34.3494 47.4245 34.6064 47.4245 34.7778C47.3388 36.1628 46.2965 37.3907 44.8115 37.8191C42.8125 38.3474 40.4708 37.3907 39.4285 35.5631C38.3862 33.6498 38.3862 30.0944 41.2562 28.6095C42.7268 27.8241 44.3831 27.6528 45.8681 28.6951C45.9538 28.7808 46.1251 28.6951 46.2108 28.6951C46.3821 28.5238 46.5535 28.3524 46.8248 28.1668C46.9104 28.1668 47.0818 27.9955 47.1674 28.0812C47.2531 28.0812 47.3388 28.3382 47.3388 28.4238C47.3388 28.9521 47.3388 29.3805 47.3388 29.9088ZM154.368 34.0124C154.197 35.2261 154.111 36.3541 153.94 37.582C153.94 37.6677 153.683 37.7533 153.511 37.7533C151.769 37.7533 150.042 37.7533 148.3 37.7533C148.043 37.7533 147.771 37.7533 147.514 37.7533C146.986 37.7533 146.986 37.7533 147.086 37.1394C147.514 37.1394 147.871 37.1394 148.3 37.1394C148.3 36.968 148.3 36.7967 148.3 36.711C148.3 34.2837 148.3 31.7564 148.3 29.329C148.3 28.9864 148.214 28.8007 147.871 28.9007C147.786 28.9007 147.614 28.9007 147.529 28.9007C146.915 28.9007 146.915 28.9007 147.1 28.2867C148.671 28.2867 150.313 28.2867 151.883 28.2867C152.055 28.9007 151.969 28.9007 151.455 28.9007C151.112 28.9007 150.755 28.9007 150.327 28.9007C150.327 31.685 150.327 34.3693 150.327 37.068C151.898 37.4107 153.111 36.7253 153.454 35.2403C153.54 34.9833 153.54 34.712 153.625 34.455C153.754 33.9267 153.754 33.841 154.368 34.0124ZM27.9629 33.9924C27.7916 35.2061 27.7059 36.5055 27.5345 37.7334C25.1929 37.7334 22.9226 37.7334 20.6666 37.7334C20.6666 37.5621 20.6666 37.3907 20.6666 37.1194C21.0093 37.1194 21.2806 37.1194 21.6233 37.1194C21.8803 37.1194 21.9659 37.0338 21.9659 36.7767C21.9659 34.1638 21.9659 31.5651 21.9659 29.0378C21.9659 28.9521 21.9659 28.9521 21.9659 28.8665C21.5376 28.8665 21.1806 28.8665 20.7523 28.8665C20.7523 28.6095 20.7523 28.4381 20.7523 28.2525C22.4086 28.2525 24.0506 28.2525 25.7069 28.2525C25.7069 28.4238 25.7069 28.5952 25.7069 28.8665C25.1786 28.8665 24.6646 28.8665 24.0506 28.8665C24.0506 29.0378 24.0506 29.2092 24.0506 29.2948C24.0506 31.7222 24.0506 34.2495 24.0506 36.6768C24.0506 37.0195 24.1363 37.1052 24.479 37.1052C26.2209 37.1052 26.992 36.4055 27.3489 34.6778C27.3489 34.5921 27.4346 34.5065 27.4346 34.4208C27.2633 33.9068 27.5345 33.9068 27.9629 33.9924ZM122.213 28.8864C122.213 28.6294 122.213 28.4581 122.213 28.2724C123.783 28.2724 125.34 28.2724 126.91 28.2724C126.91 28.4438 126.91 28.6151 126.91 28.8864C126.568 28.8864 126.211 28.8864 125.868 28.8864C125.697 28.8864 125.525 28.9721 125.525 29.1434C125.525 31.7564 125.525 34.3551 125.525 36.968C125.525 37.0537 125.525 37.0537 125.611 37.1394C126.039 37.1394 126.482 37.1394 126.91 37.1394C126.91 37.3964 126.91 37.5677 126.91 37.7533C125.34 37.7533 123.783 37.7533 122.213 37.7533C122.213 37.582 122.213 37.4107 122.213 37.1394C122.555 37.1394 122.912 37.1394 123.255 37.1394C123.512 37.1394 123.512 37.0537 123.512 36.8824C123.512 34.3693 123.512 31.7564 123.512 29.2291C123.512 28.9721 123.426 28.8864 123.169 28.8864C122.912 28.8864 122.57 28.8864 122.213 28.8864ZM70.1986 28.8665C70.1986 28.6095 70.1986 28.4381 70.1986 28.2525C70.37 28.2525 70.5413 28.2525 70.627 28.2525C71.8406 28.2525 73.14 28.2525 74.3679 28.2525C74.882 28.1668 74.882 28.1668 74.882 28.8665C74.7106 28.8665 74.4536 28.8665 74.1823 28.8665C74.011 28.8665 73.754 28.8665 73.4827 28.8665C73.4827 29.0378 73.4827 29.2092 73.4827 29.2948C73.4827 31.7222 73.4827 34.1638 73.4827 36.6768C73.4827 37.1051 73.5683 37.2051 74.011 37.1052C74.0966 37.1052 74.268 37.1052 74.3537 37.1052C74.8677 37.1052 74.8677 37.1051 74.8677 37.7191C73.2971 37.7191 71.7407 37.7191 70.1701 37.7191C70.0844 37.1051 70.0844 37.1052 70.6984 37.1052C71.5694 37.1052 71.5694 37.1051 71.5694 36.2342C71.5694 33.8925 71.5694 31.5365 71.5694 29.2805C71.5694 28.9379 71.4837 28.7522 71.141 28.8522C70.7983 28.8665 70.4556 28.8665 70.1986 28.8665Z" fill="#343434"/>
<path fill-rule="evenodd" clip-rule="evenodd" d="M77.3842 0.139667C77.3391 0.216597 76.7651 1.90268 76.1085 3.88667C75.4519 5.87066 74.7911 7.86672 74.6399 8.32219C74.4887 8.77767 74.3083 9.15184 74.2391 9.15357C74.1698 9.15542 72.8177 8.37578 71.2345 7.42106C69.6514 6.46633 68.2761 5.7176 68.1784 5.75699C68.0287 5.8176 68.006 6.72856 68.0336 11.5661L68.0664 17.3033L70.394 18.7321C71.6742 19.518 72.7937 20.1609 72.882 20.1609C73.0066 20.1609 73.0423 19.5661 73.0423 17.4984C73.0423 15.3664 73.0753 14.8445 73.2079 14.8789C73.2988 14.9025 74.2625 15.4574 75.3494 16.1121L77.3254 17.3027V20.1166C77.3254 21.6643 77.3729 22.9615 77.4308 22.9992C77.4888 23.037 79.6703 21.7721 82.2787 20.1885L87.0213 17.3092L87.0233 11.5382C87.0251 6.18408 87.0093 5.75686 86.8048 5.62303C86.2128 5.23599 77.5676 0 77.5205 0C77.4907 0 77.4293 0.0628701 77.3842 0.139667ZM82.0678 3.25996C84.4126 4.68807 86.3419 5.86827 86.3554 5.88233C86.3688 5.89652 85.6039 6.36951 84.6554 6.93348C83.7071 7.49746 81.8 8.64517 80.4176 9.48396C79.0352 10.3226 77.859 11.0089 77.8037 11.0089C77.7485 11.0089 77.7033 8.68111 77.7033 5.83604C77.7033 2.99097 77.7261 0.663186 77.7541 0.663186C77.7819 0.663186 79.7231 1.83172 82.0678 3.25996ZM77.2728 10.9757C77.2422 11.008 76.6494 10.696 75.9554 10.2823L74.6937 9.53012L75.5193 7.05299C75.9733 5.69067 76.5513 3.92925 76.8036 3.1386L77.2624 1.70134L77.2955 6.30916C77.3138 8.84346 77.3036 10.9434 77.2728 10.9757ZM86.6473 11.5536C86.6473 15.7876 86.6168 16.7283 86.4815 16.6737C86.3903 16.6368 85.1574 15.8957 83.7416 15.0266C82.3258 14.1576 80.4404 13.0065 79.5517 12.4688C78.021 11.5428 77.9513 11.4825 78.229 11.3274C78.3902 11.2373 80.3075 10.0841 82.4897 8.76507C84.6719 7.44586 86.5 6.36659 86.5523 6.36659C86.6046 6.36659 86.6473 8.70074 86.6473 11.5536ZM74.0994 9.85336C74.073 10.1608 72.8826 13.6616 72.8053 13.659C72.7384 13.6566 70.9127 10.3554 69.3495 7.41005L68.8688 6.50453L71.491 8.09844C72.9331 8.97517 74.1069 9.76489 74.0994 9.85336ZM70.5706 10.5773C71.653 12.565 72.5384 14.2151 72.5384 14.2444C72.5384 14.2923 69.4887 16.1811 68.7908 16.5655L68.5073 16.7216V11.7873C68.5073 9.07332 68.5289 6.87777 68.5551 6.90815C68.5814 6.93865 69.4884 8.58972 70.5706 10.5773ZM76.2322 10.9781L77.0917 11.5011L75.4764 12.4958C74.588 13.0429 73.7357 13.5598 73.5824 13.6444C73.3212 13.7886 73.3385 13.6914 73.856 12.1051C74.1598 11.1739 74.4475 10.3068 74.4953 10.1783C74.5774 9.95721 74.6038 9.95841 74.9775 10.1998C75.1949 10.3401 75.7595 10.6904 76.2322 10.9781ZM77.2766 16.6753C77.2072 16.7484 73.4189 14.4532 73.4243 14.3414C73.4265 14.2958 74.291 13.7366 75.3453 13.0986L77.2624 11.9387L77.2969 14.2781C77.3158 15.5649 77.3067 16.6436 77.2766 16.6753ZM81.7642 14.3345C83.9303 15.6531 85.7563 16.7871 85.8222 16.8546C85.8957 16.9302 84.3531 16.9776 81.8226 16.9776H77.7033V14.4575C77.7033 13.0714 77.7309 11.9374 77.7646 11.9374C77.7983 11.9374 79.5982 13.0161 81.7642 14.3345ZM72.6644 17.1667V19.6108L70.792 18.4599C69.7621 17.827 68.9055 17.2531 68.8885 17.1844C68.8667 17.0968 72.1657 14.9401 72.6329 14.7364C72.6503 14.729 72.6644 15.8226 72.6644 17.1667ZM85.8222 17.4858C85.7366 17.5649 78.8505 21.7614 77.7978 22.3762C77.7459 22.4065 77.7033 21.2937 77.7033 19.9034V17.3755H81.8226C84.0882 17.3755 85.8879 17.4252 85.8222 17.4858Z" fill="black"/>
</g>
<defs>
<clipPath id="clip0">
<rect width="155" height="39" fill="white" transform="translate(0.0234375)"/>
</clipPath>
</defs>
</svg>
