<svg width="144" height="43" viewBox="0 0 144 43" fill="none" xmlns="http://www.w3.org/2000/svg">
<path fill-rule="evenodd" clip-rule="evenodd" d="M67.4218 26.6196C67.2311 26.8132 67.0751 27.0682 67.0751 27.1864C67.0751 27.6288 67.4098 28.1222 67.8046 28.2621C68.5613 28.5299 69.1934 28.0726 69.1934 27.2574C69.1934 26.3014 68.1167 25.9138 67.4218 26.6196ZM113.459 26.6196C113.268 26.8132 113.112 27.0682 113.112 27.1864C113.112 27.6288 113.447 28.1222 113.841 28.2621C114.598 28.5299 115.23 28.0726 115.23 27.2574C115.23 26.3014 114.153 25.9138 113.459 26.6196ZM29.2289 32.5774V38.6004H30.0056H30.7823V32.5774V26.5544H30.0056H29.2289V32.5774ZM49.5642 32.5774V38.6004H50.3409H51.1176V36.313C51.1176 35.0549 51.1866 33.6984 51.2711 33.2984C51.6175 31.6586 53.3187 30.8429 54.8858 31.5654C55.895 32.0307 55.9825 32.3452 56.0353 35.6965L56.0809 38.6004H56.8473H57.6136V35.6867C57.6136 32.278 57.4894 31.6418 56.6646 30.8243C56.371 30.5333 55.8527 30.1956 55.5128 30.074C54.292 29.6367 52.5776 29.8837 51.6055 30.6367L51.1176 31.0146V28.7845V26.5544H50.3409H49.5642V32.5774ZM131.47 32.5774V38.6004H132.247H133.023V32.5774V26.5544H132.247H131.47V32.5774ZM88.9044 27.1435C86.9972 27.4257 85.3554 28.6498 84.54 30.3975C84.1251 31.2872 84.0918 31.4702 84.0918 32.8642C84.0918 34.2583 84.1251 34.4412 84.54 35.3309C85.1084 36.5492 85.9666 37.4216 87.2062 38.0413C88.1575 38.517 88.2239 38.5287 89.9493 38.5287C91.5867 38.5287 91.7749 38.5 92.4942 38.1401C92.9213 37.9263 93.4933 37.5607 93.7651 37.3277L94.2594 36.9039L93.7727 36.3898C93.2343 35.8211 93.0421 35.766 92.7674 36.102C92.6657 36.2265 92.2607 36.4995 91.8676 36.7088C90.8874 37.2302 89.2505 37.2497 88.1568 36.7529C86.5279 36.013 85.6241 34.427 85.7467 32.5231C85.8499 30.9185 86.6407 29.7368 88.1123 28.9884C89.4364 28.315 91.5333 28.522 92.5475 29.4264C92.8105 29.6608 93.0843 29.8527 93.1559 29.8527C93.2275 29.8527 93.4991 29.6294 93.7595 29.3567C94.3125 28.7773 94.2591 28.6438 93.2002 27.9582C92.0804 27.233 90.4229 26.9186 88.9044 27.1435ZM10.0234 32.8642V38.6004H10.8001H11.5768V36.8796V35.1587H13.1539C15.2267 35.1587 16.3296 34.9522 17.2485 34.3923C18.2009 33.812 18.7399 33.028 18.94 31.9319C19.3771 29.5376 17.9963 27.6874 15.4603 27.2694C14.9943 27.1925 13.5804 27.1293 12.3182 27.1289L10.0234 27.128V32.8642ZM117.59 28.0776C117.535 28.1337 117.49 28.556 117.49 29.0162V29.8527H116.783H116.077V30.5697V31.2868H116.773H117.468L117.514 34.0473C117.555 36.5099 117.592 36.8691 117.853 37.3757C118.302 38.2442 119.13 38.635 120.393 38.574C121.032 38.5432 121.524 38.4368 121.763 38.2775C122.131 38.0325 122.133 38.0218 121.916 37.4902C121.795 37.1938 121.685 36.9379 121.67 36.9217C121.656 36.9055 121.37 36.9883 121.034 37.1057C120.355 37.3433 119.974 37.2767 119.502 36.8381C119.194 36.5525 119.184 36.457 119.184 33.9148V31.2868H120.392H121.6L121.557 30.6056L121.514 29.9244L120.356 29.8828L119.197 29.8414L119.156 28.9507L119.114 28.0601L118.402 28.0178C118.011 27.9946 117.645 28.0214 117.59 28.0776ZM16.289 29.1221C17.7713 30.0578 17.6623 32.4591 16.1011 33.2586C15.5387 33.5467 15.2623 33.5812 13.5239 33.5812H11.5768V31.1302V28.6792L13.6598 28.7281C15.5682 28.773 15.7885 28.806 16.289 29.1221ZM22.3093 30.0695C21.2524 30.4249 20.419 31.1554 19.9249 32.1595C19.5401 32.9415 19.485 33.2004 19.485 34.2266C19.485 35.2482 19.5408 35.5131 19.9171 36.2778C20.628 37.7225 21.7793 38.4692 23.4511 38.57C25.0763 38.668 25.9626 38.3564 26.9628 37.3353C27.9597 36.3177 28.3117 35.3438 28.2089 33.8886C28.0962 32.2962 27.2874 31.0392 25.9103 30.3173C25.029 29.8553 23.3007 29.7364 22.3093 30.0695ZM31.7709 29.9628C31.7709 30.0312 32.5953 31.976 33.603 34.2844L35.4352 38.4814L35.0883 39.1762C34.8977 39.5584 34.5991 39.9724 34.4252 40.0962C33.9916 40.4046 33.0647 40.3781 32.5216 40.0418L32.0721 39.7634L31.773 40.2783C31.6085 40.5614 31.5082 40.8837 31.5501 40.9947C31.5919 41.1056 31.9239 41.33 32.2878 41.4935C32.8098 41.728 33.1359 41.7754 33.834 41.7185C34.8875 41.6326 35.5365 41.2699 36.052 40.4788C36.4114 39.9274 40.6675 30.2542 40.6675 29.9891C40.6675 29.785 39.3117 29.8236 39.1562 30.032C39.0825 30.1306 38.4295 31.6149 37.7051 33.3303C36.9805 35.0457 36.3435 36.4494 36.2894 36.4494C36.2353 36.4494 35.5617 34.9813 34.7923 33.1869L33.3936 29.9244L32.5821 29.8814C32.1359 29.8577 31.7709 29.8944 31.7709 29.9628ZM43.5235 30.0634C42.3768 30.427 41.5326 31.1419 40.9781 32.2189C40.6615 32.8337 40.6081 33.1201 40.6031 34.2266C40.5982 35.3549 40.6446 35.6074 40.9728 36.2342C41.4204 37.0887 42.0605 37.7295 42.927 38.1906C43.4714 38.4803 43.7648 38.5287 44.9746 38.5287C46.0801 38.5287 46.4941 38.4708 46.8811 38.262C47.4499 37.955 48.435 37.0365 48.4333 36.8146C48.4328 36.732 48.1718 36.5133 47.8534 36.3286L47.2744 35.9927L46.8305 36.4274C46.5865 36.6665 46.2079 36.9305 45.9893 37.0142C45.1068 37.3521 43.6962 37.0978 43.023 36.4798C42.162 35.689 41.9066 33.9086 42.4881 32.7511C43.2635 31.2077 45.4768 30.7904 46.74 31.9493L47.2882 32.4522L47.8603 32.1205C48.1749 31.938 48.4328 31.7211 48.4333 31.6385C48.4356 31.3273 47.3273 30.4075 46.6224 30.1355C45.7698 29.8065 44.4317 29.7754 43.5235 30.0634ZM60.8257 30.0084C60.2723 30.1408 58.8845 30.8053 58.8845 30.9379C58.8845 31.0212 59.225 31.6791 59.4196 31.9718C59.5139 32.1138 59.695 32.0677 60.224 31.7675C60.7511 31.4683 61.1508 31.3663 61.9784 31.3197C62.9302 31.2661 63.1056 31.2975 63.5426 31.6C64.1206 32.0001 64.387 32.473 64.3899 33.1043L64.392 33.5596L62.4502 33.6062C60.895 33.6436 60.4015 33.7069 59.971 33.9241C58.7567 34.5366 58.2937 35.9516 58.9101 37.1664C59.6991 38.7213 62.4783 39.1312 64.0742 37.928L64.5332 37.582V38.0987V38.6155L65.2746 38.572L66.016 38.5287L66.0116 35.3738C66.0078 32.5999 65.976 32.1582 65.7486 31.717C65.316 30.8769 64.6648 30.2911 63.9113 30.0639C63.1487 29.8339 61.6661 29.8072 60.8257 30.0084ZM67.3575 34.2266V38.6148L68.1695 38.5718L68.9815 38.5287V34.2266V29.9244L68.1695 29.8814L67.3575 29.8384V34.2266ZM70.5283 30.0337C70.4907 30.1332 70.4767 32.0854 70.4974 34.3717L70.5349 38.5287H71.3116H72.0883L72.1589 35.7323C72.2384 32.5843 72.32 32.282 73.25 31.695C73.9419 31.2581 75.4206 31.2184 76.0252 31.6206C76.8146 32.1459 76.9538 32.776 76.9572 35.8399L76.9603 38.6004H77.7466H78.5327L78.488 35.338L78.4431 32.0755L78.0509 31.3982C77.5062 30.4572 76.665 29.9775 75.3981 29.8854C74.2314 29.8005 73.3513 30.0206 72.5758 30.5912L72.0177 31.0018V30.4272V29.8527H71.3072C70.8654 29.8527 70.5708 29.9211 70.5283 30.0337ZM96.7301 30.1127C95.8673 30.4021 95.1773 30.8122 95.1773 31.0354C95.1773 31.1155 95.3069 31.3942 95.4652 31.6545L95.7533 32.1275L96.4511 31.76C96.9227 31.5115 97.4589 31.3698 98.1053 31.3228C99.691 31.2076 100.477 31.7273 100.645 33.0022L100.722 33.5812L98.9735 33.5821C97.0051 33.583 96.367 33.7146 95.7414 34.2492C95.1437 34.7599 94.8947 35.3103 94.8954 36.1195C94.896 36.9741 95.2482 37.5937 96.0326 38.121C96.5299 38.4552 96.7983 38.522 97.8387 38.5707C98.9805 38.6242 99.1134 38.5997 99.8646 38.196L100.668 37.7641L100.712 38.1464C100.752 38.5006 100.811 38.5319 101.506 38.5725L102.257 38.6161L102.212 35.2502L102.168 31.8843L101.738 31.2628C101.069 30.2967 100.305 29.9431 98.7783 29.8933C97.8404 29.8627 97.3037 29.9202 96.7301 30.1127ZM103.603 29.9484C103.551 30.0008 103.509 32.6467 103.509 35.828V41.6119H104.356H105.204V39.5076V37.4031L105.521 37.7062C106.411 38.554 108.239 38.8523 109.619 38.3746C110.51 38.0664 111.465 37.1734 111.925 36.2196C112.246 35.5536 112.307 35.2376 112.307 34.2505C112.307 32.4006 111.578 31.1064 110.088 30.3109C109.464 29.9775 109.203 29.927 108.099 29.9263C106.732 29.9254 106.216 30.1009 105.451 30.828L105.062 31.197V30.5248V29.8527H104.38C104.004 29.8527 103.655 29.8957 103.603 29.9484ZM113.394 34.2266V38.6148L114.206 38.5718L115.018 38.5287V34.2266V29.9244L114.206 29.8814L113.394 29.8384V34.2266ZM124.654 30.1245C123.736 30.4313 123.138 30.7856 123.138 31.0222C123.138 31.1097 123.268 31.3945 123.427 31.6552L123.715 32.1291L124.442 31.7586C124.919 31.5152 125.487 31.3649 126.095 31.3206C127.65 31.2077 128.439 31.7363 128.606 33.0022L128.683 33.5812L126.934 33.5821C124.966 33.583 124.328 33.7146 123.702 34.2492C123.119 34.7477 122.856 35.3071 122.856 36.0478C122.856 36.8814 123.229 37.5751 123.951 38.0866C124.481 38.4623 124.696 38.519 125.787 38.57C126.943 38.6244 127.073 38.6006 127.826 38.196L128.629 37.7641L128.673 38.1464C128.713 38.5006 128.772 38.5319 129.467 38.5725L130.218 38.6161L130.173 35.2502L130.128 31.8843L129.699 31.2628C129.03 30.2967 128.266 29.9431 126.739 29.8933C125.784 29.8622 125.266 29.9197 124.654 30.1245ZM24.9566 31.5073C25.6354 31.7954 25.9471 32.0928 26.3024 32.7925C26.8668 33.9035 26.5948 35.6981 25.7437 36.4798C25.0704 37.098 23.6592 37.3521 22.7775 37.0138C21.0687 36.3583 20.4818 33.7553 21.7087 32.2747C22.4536 31.3757 23.862 31.043 24.9566 31.5073ZM108.984 31.5088C110.068 31.9687 110.705 32.9749 110.705 34.2266C110.705 35.4338 109.958 36.6356 108.972 37.0138C108.091 37.3519 106.689 37.0998 106.001 36.4798C105.283 35.8327 104.967 33.997 105.396 32.9672C105.635 32.3934 106.269 31.7375 106.828 31.4875C107.402 31.2304 108.35 31.2397 108.984 31.5088ZM64.392 35.3159C64.392 36.5256 63.4792 37.3098 62.0709 37.3098C61.0926 37.3098 60.5166 37.0283 60.3193 36.4537C60.1305 35.9036 60.3337 35.2579 60.7624 35.0463C61.3147 34.7738 61.4747 34.7513 62.9445 34.7398L64.392 34.7285V35.3159ZM100.685 35.3628C100.685 36.5259 99.705 37.3104 98.2533 37.3092C96.9599 37.3083 96.2085 36.5628 96.5354 35.6047C96.7552 34.9604 97.4503 34.7289 99.1667 34.7288L100.685 34.7285V35.3628ZM128.646 35.3628C128.646 36.5259 127.666 37.3104 126.214 37.3092C124.921 37.3083 124.169 36.5628 124.496 35.6047C124.716 34.9604 125.411 34.7289 127.128 34.7288L128.646 34.7285V35.3628Z" fill="black"/>
<path fill-rule="evenodd" clip-rule="evenodd" d="M71.4076 1.13967C71.3625 1.2166 70.7885 2.90268 70.1319 4.88667C69.4754 6.87066 68.8145 8.86672 68.6633 9.32219C68.5122 9.77767 68.3318 10.1518 68.2625 10.1536C68.1932 10.1554 66.8412 9.37578 65.2579 8.42106C63.6749 7.46633 62.2995 6.7176 62.2019 6.75699C62.0521 6.8176 62.0294 7.72856 62.057 12.5661L62.0899 18.3033L64.4175 19.7321C65.6976 20.518 66.8171 21.1609 66.9054 21.1609C67.03 21.1609 67.0658 20.5661 67.0658 18.4984C67.0658 16.3664 67.0988 15.8445 67.2313 15.8789C67.3222 15.9025 68.2859 16.4574 69.3728 17.1121L71.3488 18.3027V21.1166C71.3488 22.6643 71.3963 23.9615 71.4543 23.9992C71.5122 24.037 73.6938 22.7721 76.3022 21.1885L81.0447 18.3092L81.0468 12.5382C81.0485 7.18408 81.0328 6.75686 80.8282 6.62303C80.2363 6.23599 71.5911 1 71.5439 1C71.5141 1 71.4527 1.06287 71.4076 1.13967ZM76.0913 4.25996C78.436 5.68807 80.3654 6.86827 80.3789 6.88233C80.3922 6.89652 79.6273 7.36951 78.6789 7.93348C77.7305 8.49746 75.8235 9.64517 74.441 10.484C73.0586 11.3226 71.8824 12.0089 71.8271 12.0089C71.772 12.0089 71.7267 9.68111 71.7267 6.83604C71.7267 3.99097 71.7495 1.66319 71.7775 1.66319C71.8053 1.66319 73.7466 2.83172 76.0913 4.25996ZM71.2963 11.9757C71.2657 12.008 70.6728 11.696 69.9789 11.2823L68.7171 10.5301L69.5428 8.05299C69.9968 6.69067 70.5747 4.92925 70.827 4.1386L71.2858 2.70134L71.319 7.30916C71.3372 9.84346 71.327 11.9434 71.2963 11.9757ZM80.6707 12.5536C80.6707 16.7876 80.6402 17.7283 80.505 17.6737C80.4138 17.6368 79.1809 16.8957 77.7651 16.0266C76.3493 15.1576 74.4638 14.0065 73.5751 13.4688C72.0444 12.5428 71.9748 12.4825 72.2524 12.3274C72.4137 12.2373 74.3309 11.0841 76.5132 9.76507C78.6954 8.44586 80.5235 7.36659 80.5758 7.36659C80.628 7.36659 80.6707 9.70074 80.6707 12.5536ZM68.1228 10.8534C68.0965 11.1608 66.906 14.6616 66.8287 14.659C66.7618 14.6566 64.9361 11.3554 63.3729 8.41005L62.8922 7.50453L65.5144 9.09844C66.9566 9.97517 68.1304 10.7649 68.1228 10.8534ZM64.5941 11.5773C65.6764 13.565 66.5619 15.2151 66.5619 15.2444C66.5619 15.2923 63.5121 17.1811 62.8142 17.5655L62.5308 17.7216V12.7873C62.5308 10.0733 62.5523 7.87777 62.5785 7.90815C62.6049 7.93865 63.5118 9.58972 64.5941 11.5773ZM70.2556 11.9781L71.1151 12.5011L69.4998 13.4958C68.6114 14.0429 67.7591 14.5598 67.6058 14.6444C67.3447 14.7886 67.3619 14.6914 67.8794 13.1051C68.1833 12.1739 68.471 11.3068 68.5187 11.1783C68.6009 10.9572 68.6272 10.9584 69.0009 11.1998C69.2184 11.3401 69.783 11.6904 70.2556 11.9781ZM71.3001 17.6753C71.2307 17.7484 67.4423 15.4532 67.4477 15.3414C67.45 15.2958 68.3144 14.7366 69.3688 14.0986L71.2858 12.9387L71.3203 15.2781C71.3392 16.5649 71.3302 17.6436 71.3001 17.6753ZM75.7877 15.3345C77.9538 16.6531 79.7797 17.7871 79.8456 17.8546C79.9192 17.9302 78.3765 17.9776 75.846 17.9776H71.7267V15.4575C71.7267 14.0714 71.7543 12.9374 71.7881 12.9374C71.8217 12.9374 73.6216 14.0161 75.7877 15.3345ZM66.6879 18.1667V20.6108L64.8154 19.4599C63.7856 18.827 62.929 18.2531 62.912 18.1844C62.8902 18.0968 66.1891 15.9401 66.6564 15.7364C66.6737 15.729 66.6879 16.8226 66.6879 18.1667ZM79.8456 18.4858C79.7601 18.5649 72.874 22.7614 71.8212 23.3762C71.7693 23.4065 71.7267 22.2937 71.7267 20.9034V18.3755H75.846C78.1116 18.3755 79.9114 18.4252 79.8456 18.4858Z" fill="black"/>
</svg>
